<svg width="710" height="619" fill="none" xmlns="http://www.w3.org/2000/svg"><path d="M150 204.511s104.869 73.752 107.388 74.409c2.518.657 6.958-2.892 7.607-4.179.649-1.288-66.52-59.638-79.502-68.311-12.982-8.648-28.197-14.43-28.197-14.43L150 204.511z" fill="#D6D6D6" stroke="#26144D" stroke-width="1.5" stroke-linecap="round" stroke-linejoin="round"/><path d="M129.677 259.26c-1.439 1.753-3.789 3.374-7.555 3.626-3.957.264-6.5-1.092-8.095-2.653v-2.942c1.571 1.573 4.126 2.942 8.095 2.665 3.682-.252 6.008-1.801 7.447-3.506l.108 2.81z" fill="#D2233C" stroke="#26144D" stroke-width="1.5" stroke-linecap="round" stroke-linejoin="round"/><path d="M128.73 233.671a70.962 70.962 0 01-7.915-6.232c-2.362-2.149-4.688-4.515-6.919-6.964l-.108-31.712 13.455 4.695 1.487 40.225v-.012z" fill="#999" stroke="#26144D" stroke-width="1.5" stroke-linecap="round" stroke-linejoin="round"/><path d="M129.581 256.462c-1.451 1.705-3.765 3.254-7.447 3.506-3.969.277-6.512-1.092-8.107-2.665l-.131-36.816c2.23 2.45 4.545 4.803 6.919 6.965a72.01 72.01 0 007.915 6.232l.839 22.79.012-.012z" fill="#D6D6D6" stroke="#26144D" stroke-width="1.5" stroke-linecap="round" stroke-linejoin="round"/><path d="M134.271 440.456s-2.639 4.695-9.366 4.695c-6.14 0-9.654-4.107-9.654-4.107l-1.211-180.799c1.595 1.561 4.137 2.93 8.095 2.654 3.765-.252 6.116-1.873 7.555-3.627l4.593 181.196-.012-.012z" fill="#D6D6D6" stroke="#26144D" stroke-width="1.5" stroke-linecap="round" stroke-linejoin="round"/><path d="M133.91 197.168l-10.169 4.779-45.354-29.298-7.028-17.003v-.012l62.551 41.534z" fill="#999" stroke="#26144D" stroke-width="1.5" stroke-linecap="round" stroke-linejoin="round"/><path d="M144.223 171.76l-.287 5.187-.888 15.91-9.138 4.311-62.55-41.534 5.552-10.531 18.144-8.057 7.879 4.395 1.415 4.298.072.241 39.801 25.78z" fill="#D6D6D6" stroke="#26144D" stroke-width="1.5" stroke-linecap="round" stroke-linejoin="round"/><path d="M104.23 145.788L81.457 155.79l2.05-6.148 19.164-8.345" fill="#999"/><path d="M104.23 145.788L81.457 155.79l2.05-6.148 19.164-8.345" stroke="#26144D" stroke-width="1.5" stroke-linecap="round" stroke-linejoin="round"/><path d="M144.224 171.76l-.288 5.187-5.852 8.441-9.666.733-46.961-30.331 22.893-10.051.072.24 39.802 25.781z" fill="#EFEFEF" stroke="#26144D" stroke-width="1.5" stroke-linecap="round" stroke-linejoin="round"/><path d="M156.072 198.285c-7.555 12.848-22.569 5.775-26.623 3.53-2.518-.937-4.125-3.65-4.125-7.745 0-7.264 5.085-16.09 11.381-19.716 3.334-1.922 6.332-2.006 8.406-.565.012 0 .024.012.048.024 2.974 1.789 18.36 11.816 10.925 24.472h-.012z" fill="#EFEFEF" stroke="#26144D" stroke-width="1.5" stroke-linecap="round" stroke-linejoin="round"/><path d="M124.294 199.48s-.526-3.26-.171-4.614c.356-1.354 3.639-4.032 4.862-4.803 1.222-.772 9.197 5.764 9.012 8.835-.171 3.07-9.538 7.102-9.538 7.102l-4.165-6.536v.016z" fill="#D2233C" stroke="#26144D" stroke-width="1.5" stroke-linecap="round" stroke-linejoin="round"/><path d="M124.437 195c3.064.504 8.48 6.694 7.43 8.478-1.028 1.763-3.085 5.876-8.459 10.724-3.526 3.19-117.035 84.236-118.063 84.761-1.029.524-4.345-4.617-4.345-5.897 0-1.281 74.26-77.584 88.868-86.041C104.455 198.568 124.437 195 124.437 195z" fill="#EFEFEF" stroke="#26144D" stroke-width="1.5" stroke-linecap="round" stroke-linejoin="round"/><path d="M143.338 165c-1.976.567-3.775 10.092-3.244 11.21.531 1.118 2.536 2.373 6.488 2.68 3.952.306 5.928.122 6.296-2.496.354-2.619-.177-11.21-.177-11.21l-9.348-.184h-.015z" fill="#D2233C" stroke="#26144D" stroke-width="1.5" stroke-linecap="round" stroke-linejoin="round"/><path d="M190.862 1.27c1.786-.252 4.622-.778 5.126 1.03.504 1.81-15.126 51.076-27.941 98.049-12.816 46.973-15.883 66.978-15.883 66.978s-6.408 2.061-10-1.031c-3.592-3.092-2.458-18.385 1.534-33.363C154.979 90.588 190.862 1.27 190.862 1.27z" fill="#EFEFEF" stroke="#26144D" stroke-width="1.5" stroke-linecap="round" stroke-linejoin="round"/><path d="M365 288.511s104.869 73.752 107.388 74.409c2.518.657 6.958-2.892 7.607-4.179.649-1.288-66.52-59.638-79.502-68.311-12.982-8.648-28.197-14.43-28.197-14.43L365 288.511z" fill="#D6D6D6" stroke="#26144D" stroke-width="1.5" stroke-linecap="round" stroke-linejoin="round"/><path d="M344.677 343.26c-1.439 1.753-3.789 3.374-7.555 3.626-3.957.264-6.5-1.092-8.095-2.653v-2.942c1.571 1.573 4.126 2.942 8.095 2.665 3.682-.252 6.008-1.801 7.447-3.506l.108 2.81z" fill="#D2233C" stroke="#26144D" stroke-width="1.5" stroke-linecap="round" stroke-linejoin="round"/><path d="M343.73 317.671a70.962 70.962 0 01-7.915-6.232c-2.362-2.149-4.688-4.515-6.919-6.964l-.108-31.712 13.455 4.695 1.487 40.225v-.012z" fill="#999" stroke="#26144D" stroke-width="1.5" stroke-linecap="round" stroke-linejoin="round"/><path d="M344.581 340.462c-1.451 1.705-3.765 3.254-7.447 3.506-3.969.277-6.512-1.092-8.107-2.665l-.131-36.816c2.23 2.45 4.545 4.803 6.919 6.965a72.01 72.01 0 007.915 6.232l.839 22.79.012-.012z" fill="#D6D6D6" stroke="#26144D" stroke-width="1.5" stroke-linecap="round" stroke-linejoin="round"/><path d="M349.271 524.456s-2.639 4.695-9.366 4.695c-6.14 0-9.654-4.107-9.654-4.107l-1.211-180.799c1.595 1.561 4.137 2.93 8.095 2.654 3.765-.252 6.116-1.873 7.555-3.627l4.593 181.196-.012-.012z" fill="#D6D6D6" stroke="#26144D" stroke-width="1.5" stroke-linecap="round" stroke-linejoin="round"/><path d="M348.91 281.168l-10.169 4.779-45.354-29.298-7.028-17.003v-.012l62.551 41.534z" fill="#999" stroke="#26144D" stroke-width="1.5" stroke-linecap="round" stroke-linejoin="round"/><path d="M359.223 255.76l-.287 5.187-.888 15.91-9.138 4.311-62.551-41.534 5.553-10.531 18.144-8.057 7.879 4.395 1.415 4.298.072.241 39.801 25.78z" fill="#D6D6D6" stroke="#26144D" stroke-width="1.5" stroke-linecap="round" stroke-linejoin="round"/><path d="M319.23 229.788l-22.773 10.002 2.051-6.148 19.163-8.345" fill="#999"/><path d="M319.23 229.788l-22.773 10.002 2.051-6.148 19.163-8.345" stroke="#26144D" stroke-width="1.5" stroke-linecap="round" stroke-linejoin="round"/><path d="M359.224 255.76l-.288 5.187-5.852 8.441-9.666.733-46.961-30.331 22.893-10.051.072.24 39.802 25.781z" fill="#EFEFEF" stroke="#26144D" stroke-width="1.5" stroke-linecap="round" stroke-linejoin="round"/><path d="M371.072 282.285c-7.555 12.848-22.569 5.775-26.623 3.53-2.518-.937-4.125-3.65-4.125-7.745 0-7.264 5.085-16.09 11.381-19.716 3.334-1.922 6.332-2.006 8.406-.565.012 0 .024.012.048.024 2.974 1.789 18.36 11.816 10.925 24.472h-.012z" fill="#EFEFEF" stroke="#26144D" stroke-width="1.5" stroke-linecap="round" stroke-linejoin="round"/><path d="M339.294 283.48s-.526-3.26-.171-4.614c.356-1.354 3.639-4.032 4.862-4.803 1.222-.772 9.197 5.764 9.012 8.835-.171 3.07-9.538 7.102-9.538 7.102l-4.165-6.536v.016z" fill="#D2233C" stroke="#26144D" stroke-width="1.5" stroke-linecap="round" stroke-linejoin="round"/><path d="M339.437 279c3.064.504 8.48 6.694 7.43 8.478-1.028 1.763-3.085 5.876-8.459 10.724-3.526 3.19-117.035 84.236-118.063 84.761-1.029.524-4.345-4.617-4.345-5.897 0-1.281 74.259-77.584 88.868-86.041C319.455 282.568 339.437 279 339.437 279z" fill="#EFEFEF" stroke="#26144D" stroke-width="1.5" stroke-linecap="round" stroke-linejoin="round"/><path d="M358.338 249c-1.976.567-3.775 10.092-3.244 11.21.531 1.118 2.536 2.373 6.488 2.68 3.952.306 5.928.122 6.296-2.496.354-2.619-.177-11.21-.177-11.21l-9.348-.184h-.015z" fill="#D2233C" stroke="#26144D" stroke-width="1.5" stroke-linecap="round" stroke-linejoin="round"/><path d="M405.862 85.27c1.786-.252 4.622-.778 5.126 1.03.504 1.81-15.126 51.076-27.941 98.049-12.816 46.973-15.883 66.978-15.883 66.978s-6.408 2.061-10-1.031c-3.592-3.092-2.458-18.385 1.534-33.363 11.281-42.345 47.164-131.663 47.164-131.663z" fill="#EFEFEF" stroke="#26144D" stroke-width="1.5" stroke-linecap="round" stroke-linejoin="round"/><path d="M594 377.511s104.869 73.752 107.388 74.409c2.518.657 6.958-2.892 7.607-4.179.649-1.288-66.52-59.638-79.502-68.311-12.982-8.648-28.197-14.43-28.197-14.43L594 377.511z" fill="#D6D6D6" stroke="#26144D" stroke-width="1.5" stroke-linecap="round" stroke-linejoin="round"/><path d="M573.677 432.26c-1.439 1.753-3.789 3.374-7.555 3.626-3.957.264-6.5-1.092-8.095-2.653v-2.942c1.571 1.573 4.126 2.942 8.095 2.665 3.682-.252 6.008-1.801 7.447-3.506l.108 2.81z" fill="#D2233C" stroke="#26144D" stroke-width="1.5" stroke-linecap="round" stroke-linejoin="round"/><path d="M572.73 406.671a70.962 70.962 0 01-7.915-6.232c-2.362-2.149-4.688-4.515-6.919-6.964l-.108-31.712 13.455 4.695 1.487 40.225v-.012z" fill="#999" stroke="#26144D" stroke-width="1.5" stroke-linecap="round" stroke-linejoin="round"/><path d="M573.581 429.462c-1.451 1.705-3.765 3.254-7.447 3.506-3.969.277-6.512-1.092-8.107-2.665l-.131-36.816c2.23 2.45 4.545 4.803 6.919 6.965a72.01 72.01 0 007.915 6.232l.839 22.79.012-.012z" fill="#D6D6D6" stroke="#26144D" stroke-width="1.5" stroke-linecap="round" stroke-linejoin="round"/><path d="M578.271 613.456s-2.639 4.695-9.366 4.695c-6.14 0-9.654-4.107-9.654-4.107l-1.211-180.799c1.595 1.561 4.137 2.93 8.095 2.654 3.765-.252 6.116-1.873 7.555-3.627l4.593 181.196-.012-.012z" fill="#D6D6D6" stroke="#26144D" stroke-width="1.5" stroke-linecap="round" stroke-linejoin="round"/><path d="M577.91 370.168l-10.169 4.779-45.354-29.298-7.028-17.003v-.012l62.551 41.534z" fill="#999" stroke="#26144D" stroke-width="1.5" stroke-linecap="round" stroke-linejoin="round"/><path d="M588.223 344.76l-.287 5.187-.888 15.91-9.138 4.311-62.551-41.534 5.553-10.531 18.144-8.057 7.879 4.395 1.415 4.298.072.241 39.801 25.78z" fill="#D6D6D6" stroke="#26144D" stroke-width="1.5" stroke-linecap="round" stroke-linejoin="round"/><path d="M548.23 318.788l-22.773 10.002 2.051-6.148 19.163-8.345" fill="#999"/><path d="M548.23 318.788l-22.773 10.002 2.051-6.148 19.163-8.345" stroke="#26144D" stroke-width="1.5" stroke-linecap="round" stroke-linejoin="round"/><path d="M588.224 344.76l-.288 5.187-5.852 8.441-9.666.733-46.961-30.331 22.893-10.051.072.24 39.802 25.781z" fill="#EFEFEF" stroke="#26144D" stroke-width="1.5" stroke-linecap="round" stroke-linejoin="round"/><path d="M600.072 371.285c-7.555 12.848-22.569 5.775-26.623 3.53-2.518-.937-4.125-3.65-4.125-7.745 0-7.264 5.085-16.09 11.381-19.716 3.334-1.922 6.332-2.006 8.406-.565.012 0 .024.012.048.024 2.974 1.789 18.36 11.816 10.925 24.472h-.012z" fill="#EFEFEF" stroke="#26144D" stroke-width="1.5" stroke-linecap="round" stroke-linejoin="round"/><path d="M568.294 372.48s-.526-3.26-.171-4.614c.356-1.354 3.639-4.032 4.862-4.803 1.222-.772 9.197 5.764 9.012 8.835-.171 3.07-9.538 7.102-9.538 7.102l-4.165-6.536v.016z" fill="#D2233C" stroke="#26144D" stroke-width="1.5" stroke-linecap="round" stroke-linejoin="round"/><path d="M568.437 368c3.064.504 8.48 6.694 7.43 8.478-1.028 1.763-3.085 5.876-8.459 10.724-3.526 3.19-117.035 84.236-118.063 84.761-1.029.524-4.345-4.617-4.345-5.897 0-1.281 74.259-77.584 88.868-86.041C548.455 371.568 568.437 368 568.437 368z" fill="#EFEFEF" stroke="#26144D" stroke-width="1.5" stroke-linecap="round" stroke-linejoin="round"/><path d="M587.338 338c-1.976.567-3.775 10.092-3.244 11.21.531 1.118 2.536 2.373 6.488 2.68 3.952.306 5.928.122 6.296-2.496.354-2.619-.177-11.21-.177-11.21l-9.348-.184h-.015z" fill="#D2233C" stroke="#26144D" stroke-width="1.5" stroke-linecap="round" stroke-linejoin="round"/><path d="M634.862 174.27c1.786-.252 4.622-.778 5.126 1.031.504 1.809-15.126 51.075-27.941 98.048-12.816 46.973-15.883 66.978-15.883 66.978s-6.408 2.061-10-1.031c-3.592-3.092-2.458-18.385 1.534-33.363 11.281-42.345 47.164-131.663 47.164-131.663z" fill="#EFEFEF" stroke="#26144D" stroke-width="1.5" stroke-linecap="round" stroke-linejoin="round"/></svg>