<svg width="1447" height="1018" fill="none" xmlns="http://www.w3.org/2000/svg"><mask id="a" style="mask-type:alpha" maskUnits="userSpaceOnUse" x="0" y="0" width="1447" height="1018"><path fill="#D9D9D9" d="M0 0h1447v1018H0z"/></mask><g mask="url(#a)"><path d="M49 1022c0-133.686 36.16-266.062 106.417-389.572 70.256-123.51 173.232-235.733 303.048-330.263C588.282 207.635 742.396 132.65 912.01 81.49 1081.62 30.331 1263.41 4 1447 4v1018H49z" fill="#8ED760"/><g clip-path="url(#clip0_1321_62)"><path d="M1010 736.253S710.964 943.968 703.709 945.781c-7.255 1.813-19.882-8.124-21.696-11.751-1.814-3.626 189.718-167.999 226.762-192.373C945.819 717.284 989.176 701 989.176 701l20.794 35.218.03.035z" fill="#D6D6D6" stroke="#26144D" stroke-width="1.5" stroke-linecap="round" stroke-linejoin="round"/><path d="M1083.11 945.038c5.54 6.716 14.55 12.976 29.04 13.933 15.21 1.021 24.99-4.217 31.11-10.217l.05-11.303c-6.11 6.021-15.91 11.303-31.16 10.238-14.14-.978-23.09-6.912-28.65-13.455l-.41 10.782.02.022z" fill="#D2233C" stroke="#26144D" stroke-width="1.5" stroke-linecap="round" stroke-linejoin="round"/><path d="M1086.76 846.701a278.322 278.322 0 0030.46-23.976c9.1-8.26 18.03-17.346 26.59-26.758l.41-121.877-51.77 18.02-5.69 154.569v.022z" fill="#999" stroke="#26144D" stroke-width="1.5" stroke-linecap="round" stroke-linejoin="round"/><path d="M1083.52 934.256c5.56 6.543 14.49 12.477 28.66 13.455 15.25 1.044 25.04-4.217 31.15-10.238l.48-141.484c-8.56 9.412-17.49 18.476-26.59 26.758a281.017 281.017 0 01-30.46 23.976l-3.24 87.555v-.022z" fill="#D6D6D6" stroke="#26144D" stroke-width="1.5" stroke-linecap="round" stroke-linejoin="round"/><path d="M1065.45 1641.35s10.12 18.02 36.02 18.02c23.63 0 37.12-15.78 37.12-15.78l4.67-694.813c-6.12 5.999-15.9 11.237-31.11 10.216-14.49-.978-23.52-7.217-29.04-13.933l-17.66 696.31v-.02z" fill="#D6D6D6" stroke="#26144D" stroke-width="1.5" stroke-linecap="round" stroke-linejoin="round"/><path d="M1066.86 706.391l39.1 18.389 174.43-112.596 27.03-65.318-.03-.066-240.53 159.591z" fill="#999" stroke="#26144D" stroke-width="1.5" stroke-linecap="round" stroke-linejoin="round"/><path d="M1027.19 608.794l1.11 19.91 3.39 61.167 35.17 16.52 240.53-159.59-21.35-40.474-69.78-30.953-30.31 16.911-5.41 16.498-.3.935-153.05 99.076z" fill="#D6D6D6" stroke="#26144D" stroke-width="1.5" stroke-linecap="round" stroke-linejoin="round"/><path d="M1181 508.957l87.59 38.474-7.88-23.649-73.71-32.084" fill="#999"/><path d="M1181 508.957l87.59 38.474-7.88-23.649-73.71-32.084" stroke="#26144D" stroke-width="1.5" stroke-linecap="round" stroke-linejoin="round"/><path d="M1027.19 608.794l1.11 19.91 22.5 32.431 37.17 2.848 180.62-116.552-88.05-38.648-.3.935-153.05 99.076z" fill="#EFEFEF" stroke="#26144D" stroke-width="1.5" stroke-linecap="round" stroke-linejoin="round"/><path d="M981.611 710.695c29.049 49.385 86.789 22.171 102.389 13.563 9.69-3.63 15.88-14.041 15.88-29.735 0-27.91-19.57-61.841-43.75-75.774-12.82-7.413-24.36-7.695-32.35-2.152-.05.021-.11.043-.15.108-11.45 6.869-70.587 45.408-42.019 94.011v-.021z" fill="#EFEFEF" stroke="#26144D" stroke-width="1.5" stroke-linecap="round" stroke-linejoin="round"/><path d="M1116.8 732.962s2.13-12.033.71-17.01c-1.42-4.95-14.83-14.876-19.77-17.721-4.93-2.844-37.44 21.249-36.73 32.571.71 11.321 38.86 26.198 38.86 26.198l16.96-24.093-.03.055z" fill="#D2233C" stroke="#26144D" stroke-width="1.5" stroke-linecap="round" stroke-linejoin="round"/><path d="M1113.1 722c-9.39 1.572-25.87 20.496-22.7 25.907 3.17 5.411 9.42 17.956 25.84 32.829 10.78 9.764 357.37 257.614 360.48 259.154 3.11 1.55 13.28-14.08 13.28-18.01 0-3.93-226.76-237.244-271.35-263.091C1174.09 732.943 1113.07 722 1113.07 722h.03z" fill="#EFEFEF" stroke="#26144D" stroke-width="1.5" stroke-linecap="round" stroke-linejoin="round"/><path d="M1037.63 581c8.53 2.29 16.28 41.073 13.95 45.623-2.34 4.551-10.93 9.659-27.93 10.922-17 1.262-25.559.499-27.115-10.158-1.556-10.658.778-45.624.778-45.624l40.317-.763z" fill="#D2233C" stroke="#26144D" stroke-width="1.5" stroke-linecap="round" stroke-linejoin="round"/><path d="M872.069 48.899c-5.95-.857-15.319-2.569-17.028 3.425-1.709 5.993 50.228 169.732 92.797 325.831 42.569 156.099 52.792 222.622 52.792 222.622s21.3 6.817 33.2-3.425c11.9-10.242 8.15-61.089-5.1-110.883-37.469-140.752-156.661-437.57-156.661-437.57z" fill="#EFEFEF" stroke="#26144D" stroke-width="1.5" stroke-linecap="round" stroke-linejoin="round"/><path d="M1133.73 997.271c0 22.979 0 44.579-.5 68.839" stroke="#fff" stroke-width="1.5" stroke-linecap="round" stroke-linejoin="round"/><path d="M827.344 780.035C780.745 698 752.003 606.011 752.003 522.868m512.917 402.346c-37.32 95.016-134.41 122.056-248.29 56.255-44.318-25.606-86.094-62.319-122.787-105.749M868.49 336.781c42.276-8.63 93.264 1.5 148.16 33.213 127.9 73.883 234.59 240.321 259.26 393.89m-322.476 39.561c-19.769-21.606-37.388-46.582-51.77-73.144-25.179-46.473-40.538-97.793-40.538-144.397 0-73.383 38.083-114.487 92.656-110.857" stroke="#fff" stroke-width="1.86" stroke-linecap="round" stroke-linejoin="round"/><path d="M1064.66 532.541c27.01 25.714 50.77 57.863 69.04 92.533 23.95 45.43 38.46 95.207 38.46 140.506 0 23.28-3.83 43.321-10.8 59.689-16.42 38.604-50.29 56.971-92.59 49.907m-361.107-46.495C637.775 701.369 595.021 560.19 595.021 432.183m421.629 730.657c-70.646-40.82-137.254-99.36-195.737-168.634m617.347-74.904c0 162.268-68.69 266.338-174.29 293.858M707.294 166.061c77.014-51.538 187.114-48.038 309.356 22.584" stroke="#fff" stroke-width="1.86" stroke-linecap="round" stroke-linejoin="round"/><path d="M1099.64 368.907c135.39 120.378 235.02 320.79 235.02 490.532 0 114.139-45.06 190.111-115.73 216.671m-202.28-32.95C841.008 941.69 698.625 694.958 698.625 492.024c0-152.178 80.099-236.495 194.24-226.344m54.507 261.949l380.288-250.037m57.03 453.861l380.27-250.036m-469.91 250.036l380.29-250.036M656.566 547.148l244.642-160.851m395.672-14.194l158.13-96.62" stroke="#fff" stroke-width="1.86" stroke-linecap="round" stroke-linejoin="round"/></g></g><defs><clipPath id="clip0_1321_62"><path fill="#fff" transform="translate(593 129)" d="M0 0h1174v1532H0z"/></clipPath></defs></svg>