<svg width="27" height="27" viewBox="0 0 27 27" fill="none" xmlns="http://www.w3.org/2000/svg">
  <path id="Vector" fill-rule="evenodd" clip-rule="evenodd"
    d="M21.608 6.98272C21.813 6.77055 21.9263 6.48637 21.9238 6.1914C21.9212 5.89642 21.8029 5.61426 21.5943 5.40568C21.3857 5.19709 21.1036 5.07878 20.8086 5.07621C20.5136 5.07365 20.2295 5.18705 20.0173 5.39197L13.5002 11.9091L6.98303 5.39197C6.77085 5.18705 6.48667 5.07365 6.1917 5.07621C5.89673 5.07878 5.61457 5.19709 5.40598 5.40568C5.1974 5.61426 5.07908 5.89642 5.07652 6.1914C5.07396 6.48637 5.18735 6.77055 5.39228 6.98272L11.9094 13.4998L5.39228 20.017C5.28483 20.1207 5.19912 20.2449 5.14016 20.3821C5.0812 20.5194 5.05017 20.667 5.04887 20.8164C5.04757 20.9658 5.07604 21.1139 5.1326 21.2522C5.18917 21.3904 5.2727 21.516 5.37833 21.6217C5.48396 21.7273 5.60957 21.8108 5.74783 21.8674C5.88609 21.924 6.03423 21.9524 6.1836 21.9511C6.33298 21.9498 6.4806 21.9188 6.61786 21.8598C6.75511 21.8009 6.87925 21.7152 6.98303 21.6077L13.5002 15.0906L20.0173 21.6077C20.2295 21.8126 20.5136 21.926 20.8086 21.9235C21.1036 21.9209 21.3857 21.8026 21.5943 21.594C21.8029 21.3854 21.9212 21.1033 21.9238 20.8083C21.9263 20.5133 21.813 20.2291 21.608 20.017L15.0909 13.4998L21.608 6.98272Z"
    fill="currentColor" />
</svg>