<svg width="40" height="44" viewBox="0 0 40 44" fill="none" xmlns="http://www.w3.org/2000/svg">
<path id="&#208;&#179;&#209;&#128;&#209;&#141;&#209;&#129;" fill-rule="evenodd" clip-rule="evenodd" d="M6.78729 41.9769H38.0021V28.0689H6.78729V41.9769ZM18.1511 8.59769L18.9733 26.0461H14.7088L15.4079 8.59769H18.1511ZM30.1375 8.59769L30.9598 26.0461H26.6955L27.3944 8.59769H30.1375ZM4.78969 27.0575V41.9769H2.03899L3.37655 8.59769H6.11938L6.94165 26.0461H5.78849C5.65732 26.046 5.52742 26.0722 5.40622 26.123C5.28503 26.1738 5.17491 26.2483 5.08215 26.3422C4.9894 26.4361 4.91583 26.5476 4.86565 26.6704C4.81547 26.7931 4.78966 26.9247 4.78969 27.0575ZM2.41715 6.5746C2.15926 6.57469 1.91139 6.67575 1.7254 6.85666C1.5394 7.03756 1.4297 7.28427 1.41923 7.5452L0.000835935 42.9475C-0.00467021 43.0837 0.0170689 43.2196 0.0647407 43.347C0.112412 43.4745 0.185033 43.5909 0.278245 43.6892C0.371457 43.7875 0.483332 43.8657 0.60715 43.9191C0.730968 43.9725 0.864171 44 0.998757 44H39.0012C39.2661 43.9999 39.5202 43.8933 39.7075 43.7036C39.8948 43.5138 40 43.2565 40 42.9883V27.0575C40 26.7893 39.8948 26.532 39.7075 26.3423C39.5202 26.1526 39.2661 26.0461 39.0012 26.0461H32.96L32.0875 7.53814C32.0755 7.27845 31.9651 7.03345 31.7793 6.85402C31.5935 6.67459 31.3466 6.57454 31.0899 6.5746H26.4353C26.1774 6.57461 25.9294 6.67566 25.7434 6.85658C25.5574 7.0375 25.4477 7.28424 25.4373 7.5452L24.6959 26.0461H20.9732L20.1011 7.53814C20.089 7.27845 19.9786 7.03345 19.7928 6.85402C19.6071 6.67459 19.3602 6.57454 19.1035 6.5746H14.4488C14.1909 6.57461 13.9429 6.67563 13.7569 6.85655C13.5708 7.03746 13.4611 7.28422 13.4506 7.5452L12.7095 26.0461H8.94187L8.06971 7.53814C8.05755 7.27843 7.9471 7.03344 7.76128 6.85402C7.57546 6.6746 7.32854 6.57453 7.07178 6.5746H2.41715ZM5.15589 3.59089C5.15589 2.73874 5.71 2.02309 6.67262 2.02309C7.18121 2.02309 7.46132 2.2905 8.14032 3.00348C8.76738 3.66179 9.6836 4.60229 11.3109 4.60229C12.5125 4.60229 13.3637 4.18036 13.9609 3.57877C14.4345 3.10246 14.7216 2.52392 14.883 2.1986C14.9072 2.15014 14.9285 2.10729 14.9472 2.07124L13.1781 1.13137C13.1431 1.19873 13.1104 1.26344 13.0789 1.32549C12.9099 1.65849 12.7789 1.91644 12.5525 2.14425C12.3377 2.36053 11.9963 2.57916 11.3109 2.57916C10.58 2.57916 10.1796 2.23024 9.57826 1.5991L9.46942 1.48386C8.91677 0.896461 8.07379 0 6.67262 0C4.41212 0 3.15801 1.82927 3.15801 3.59089H5.15589Z" fill="black"/>
</svg>
