<svg width="42" height="48" viewBox="0 0 42 48" fill="none" xmlns="http://www.w3.org/2000/svg">
<path id="&#208;&#178;&#209;&#141;&#209;&#129;" fill-rule="evenodd" clip-rule="evenodd" d="M14.7658 6.57804C7.60586 9.21908 3.02086 16.2704 3.61975 23.5575L1.277 23.7305C0.598871 15.4851 5.76836 7.50771 13.9145 4.50312L14.7658 6.57804ZM38.3439 23.5575C38.9459 16.2704 34.3575 9.21908 27.1978 6.57804L28.0492 4.50312C36.1953 7.50771 41.3648 15.4851 40.6867 23.7305L38.3439 23.5575ZM17.4578 22.2741C17.4578 20.3234 19.0665 18.799 20.9805 18.799C22.8944 18.799 24.5028 20.3234 24.5028 22.2741C24.5028 24.2248 22.8944 25.7488 20.9805 25.7488C19.0665 25.7488 17.4578 24.2248 17.4578 22.2741ZM17.2434 26.673C16.152 25.7925 15.425 24.5738 15.1915 23.2333C13.6473 23.7936 12.3939 24.6579 11.2812 25.4842C9.74589 26.6236 6.98364 29.0249 4.35619 31.5031C7.09512 30.7851 9.93111 29.9507 13.022 28.8799C14.5396 28.3526 15.9632 27.6084 17.2434 26.673ZM22.2544 27.8413C21.8363 27.9306 21.409 27.9755 20.9805 27.9753C20.4841 27.9753 20.0056 27.9161 19.5477 27.8049L18.0361 45.7735H23.8631L22.2544 27.8413ZM26.7457 23.3566C26.4834 24.6834 25.7361 25.8801 24.6352 26.7364C25.9297 27.7594 27.368 28.3753 28.6978 28.8916C30.5031 29.5917 34.0728 30.6752 37.6425 31.611C35.6287 29.7127 33.4595 27.7912 30.9493 25.7762C29.689 24.7679 28.2708 23.9516 26.7457 23.3566ZM23.0557 16.9377C23.185 15.6302 23.044 14.3903 22.8739 13.2493C22.6067 11.4185 21.7965 7.95059 20.8542 4.55288C20.1349 7.15847 19.4743 9.90227 18.9018 12.9745C18.6572 14.3043 18.601 15.6591 18.7348 17.003C19.4452 16.718 20.209 16.5716 20.9805 16.5728C21.69 16.5717 22.3937 16.6954 23.0557 16.9377ZM25.2132 18.3239C25.6361 16.2724 25.4159 14.4026 25.2015 12.941C24.829 10.4196 23.5462 5.19606 22.2513 0.998749C21.8345 -0.35104 19.8355 -0.318516 19.4393 1.01046C18.3794 4.55288 17.3991 8.24715 16.5917 12.5869C16.1162 15.1287 16.354 17.2427 16.5742 18.505C15.9608 19.1829 15.5225 19.987 15.2941 20.8534C12.9369 21.508 11.167 22.7426 9.83404 23.7312C7.71768 25.3001 3.593 28.9723 0.413989 32.1388C-0.610578 33.1572 0.41982 34.7792 1.83473 34.4394C5.59822 33.5328 9.46119 32.4835 13.8263 30.9711C14.9495 30.5818 16.0292 30.0878 17.0496 29.4964L15.5935 46.7982C15.5803 46.9514 15.601 47.1056 15.6541 47.2508C15.7071 47.3961 15.7915 47.5293 15.9019 47.642C16.0117 47.7551 16.1451 47.8454 16.2937 47.907C16.4422 47.9686 16.6027 48.0003 16.7649 48H25.1429C25.4718 48 25.7857 47.8696 26.009 47.6397C26.2292 47.4101 26.3407 47.1032 26.3142 46.7926L24.7642 29.5455C25.8385 30.165 26.8984 30.5988 27.8084 30.9519C30.2949 31.9164 35.7021 33.4931 40.1817 34.5444C41.62 34.8829 42.5948 33.2301 41.585 32.2354C38.89 29.5839 36.0132 26.923 32.4641 24.0765C30.1597 22.2266 27.8907 21.359 26.6929 20.9509C26.4523 19.967 25.9418 19.0608 25.2132 18.3239Z" fill="black"/>
</svg>
