<svg width="246" height="214" fill="none" xmlns="http://www.w3.org/2000/svg"><path d="M162.502 196.888L1.14 103.516l82.498-47.862L245 149.033l-82.498 47.855z" fill="#4DA4FF" stroke="#26144D" stroke-width="1.5" stroke-linecap="round" stroke-linejoin="round"/><path d="M162.368 213.079L1 119.707v-16.319l161.368 93.378v16.313z" fill="#D9D9D9" stroke="#26144D" stroke-width="1.5" stroke-linecap="round" stroke-linejoin="round"/><path d="M244.942 165.339L162.438 213.2v-16.319l82.504-47.855v16.313z" fill="#999" stroke="#26144D" stroke-width="1.5" stroke-linecap="round" stroke-linejoin="round"/><path d="M162.193 165.39l-26.595 15.864-98.216-56.696 22.072-12.125 102.739 52.957z" fill="#B2B4B3" opacity=".46"/><g clip-path="url(#clip0_813_25397)" stroke-width="1.5" stroke-linecap="round" stroke-linejoin="round"><path d="M83.56 137.51l4.126-2.861v-8.121l-4.126-2.397v13.379zm-26.48-15.37l4.132-2.704v-8.643l-4.133-2.397v13.744z" fill="#D8D8D8" stroke="#26144D"/><path d="M147.052 140.371v33.884l64.522-37.426V57.233L178.97 76.145v45.696l-31.918 18.53z" fill="#7D7D7B" stroke="#26144D"/><path d="M49.736 83.66v34.216l7.343 4.263v-13.744l4.133 2.397 15.732 9.133v13.744l6.617 3.84V124.13l4.124 2.397 15.733 9.133v13.379l43.6 25.307v-34.215l-97.282-56.47zm129.209-7.639l-97.282-56.47L114.316.622l97.282 56.47-32.653 18.929z" fill="#D8D8D8" stroke="#26144D"/><path d="M146.936 140.206l-97.282-56.47 32.653-18.93 97.282 56.471-32.653 18.929z" fill="#D8D8D8" stroke="#26144D"/><path d="M169.4 116.35l-25.904 10.998-78.621-45.861 12.721-8.527 27.01 5.416L169.4 116.35z" fill="#565656" stroke="#26144D"/><path d="M87.686 126.527v8.121l15.732 9.132v-8.12l-15.733-9.133zm-26.474-15.734v8.643l15.732 9.133v-8.644l-15.732-9.132zm20.501-57.11l97.282 56.479V75.946l-97.282-56.47v34.207z" fill="#7D7D7B" stroke="#26144D"/><path d="M174.556 111.854c-.173-.688-5.156-32.664-5.156-32.664L88.94 32.167l-2.063 15.727 75.816 63.438 11.863.522z" fill="#565656" stroke="#26144D"/><path d="M67.151 64.558c0 .83.066 1.6.207 2.314.495 2.754 1.922 4.587 3.918 5.292l4.818 2.746a5.98 5.98 0 01-1.559-1.792c-.742-1.294-1.171-3.003-1.171-5.068 0-.282 0-.564.024-.854.091-1.668.43-3.393.982-5.11a27.26 27.26 0 012.326-5.168 27.491 27.491 0 012.434-3.5 20.92 20.92 0 013.704-3.575c.52-.39 1.048-.738 1.584-1.053a12.35 12.35 0 011.741-.846c2.269-.905 4.315-.871 5.899-.025v-.025l-5.363-2.92h-.008a4.907 4.907 0 00-1.37-.788c-1.105-.44-2.384-.523-3.794-.216-1.04.224-2.154.664-3.309 1.336a16.52 16.52 0 00-2.103 1.46 20.46 20.46 0 00-2.789 2.712 26.965 26.965 0 00-3.68 5.55 25.025 25.025 0 00-1.64 4.13c-.545 1.833-.842 3.666-.842 5.408l-.009-.008z" fill="#D8D8D8" stroke="#26144D"/><path d="M73.363 68.05c0 3.235 1.031 5.59 2.731 6.86 2.03 1.517 5.008 1.492 8.332-.44C90.531 70.92 95.49 62.293 95.49 55.2c0-3.65-1.311-6.18-3.423-7.29-1.98-1.054-4.67-.847-7.64.878-6.105 3.542-11.063 12.169-11.063 19.26z" fill="#7D7D7B" stroke="#26144D"/><path d="M81.522 43.962l1.32 5.88c.52-.39 1.048-.738 1.584-1.053.594-.34 1.172-.63 1.741-.846l-.841-3.766c-1.106-.44-2.385-.522-3.795-.215h-.009zm-8.208 5.508l3.383 7.448a27.492 27.492 0 012.434-3.5l-3.028-6.661c-.982.78-1.922 1.7-2.788 2.712zm-5.313 9.68l5.395 8.045c.091-1.667.43-3.392.982-5.11l-4.735-7.066A25.02 25.02 0 0068 59.149zm-.644 7.722c.495 2.754 1.923 4.587 3.92 5.292l4.817 2.746a5.98 5.98 0 01-1.56-1.792l-7.177-6.246z" fill="#D8D8D8" stroke="#26144D"/><path d="M74.14 75.598c0 1.244.099 2.406.305 3.475.742 4.14 2.887 6.902 5.89 7.963l7.244 4.131a8.973 8.973 0 01-2.343-2.696c-1.122-1.949-1.758-4.512-1.758-7.622 0-.423.009-.855.042-1.286.132-2.505.643-5.101 1.476-7.69a40.593 40.593 0 013.498-7.771 40.017 40.017 0 013.663-5.26c1.692-2.065 3.572-3.89 5.569-5.374a23.79 23.79 0 012.384-1.585 19.407 19.407 0 012.615-1.277c3.416-1.36 6.485-1.31 8.869-.041v-.034l-8.068-4.396h-.017a7.388 7.388 0 00-2.054-1.186c-1.658-.663-3.589-.788-5.71-.323-1.567.34-3.241 1.003-4.974 2.007a24.4 24.4 0 00-3.168 2.198 31.827 31.827 0 00-4.199 4.073 40.073 40.073 0 00-5.527 8.344 37.731 37.731 0 00-2.467 6.213c-.817 2.754-1.27 5.516-1.27 8.137z" fill="#D8D8D8" stroke="#26144D"/><path d="M83.478 80.84c0 4.869 1.552 8.402 4.1 10.319 3.045 2.272 7.533 2.24 12.532-.656 9.182-5.342 16.632-18.306 16.632-28.973 0-5.491-1.98-9.29-5.148-10.966-2.978-1.584-7.021-1.269-11.484 1.319-9.182 5.325-16.632 18.298-16.632 28.965v-.008z" fill="#7D7D7B" stroke="#26144D"/><path d="M95.746 44.626l1.98 8.842a23.798 23.798 0 012.384-1.585 19.407 19.407 0 012.615-1.277l-1.27-5.657c-1.658-.663-3.589-.788-5.709-.323zm-12.342 8.278l5.09 11.198a40.016 40.016 0 013.663-5.26l-4.553-10.01a31.82 31.82 0 00-4.2 4.072zM75.41 67.46l8.11 12.103c.132-2.505.643-5.102 1.477-7.69l-7.12-10.625a37.715 37.715 0 00-2.467 6.213zm-.965 11.613c.743 4.14 2.888 6.901 5.89 7.963l7.244 4.13a8.972 8.972 0 01-2.343-2.695l-10.79-9.398z" fill="#D8D8D8" stroke="#26144D"/><path d="M176.709 156.637l19.519-47.031" stroke="#26144D"/><path d="M196.674 52.447l-54.556-31.802" stroke="#fff"/><path d="M97.28 74.661c0 1.26.347 2.231.933 2.845l1.155.68 16.631 9.747a6.9 6.9 0 003.523.962 7 7 0 006.047-3.476c1.947-3.35.833-7.656-2.5-9.621l-16.59-9.714-1.37-.804c-.8-.166-1.765.033-2.805.63-2.772 1.61-5.024 5.533-5.024 8.751z" fill="#fff" stroke="#26144D"/><path d="M104.837 87.078c0 .83.066 1.601.206 2.315.495 2.753 1.922 4.587 3.919 5.292l4.818 2.745a5.962 5.962 0 01-1.559-1.792c-.743-1.294-1.172-3.002-1.172-5.068 0-.282 0-.564.025-.854.091-1.667.429-3.392.982-5.11a27.231 27.231 0 012.326-5.167 27.493 27.493 0 012.434-3.5 20.926 20.926 0 013.704-3.575c.52-.39 1.048-.739 1.584-1.054a12.37 12.37 0 011.741-.846c2.268-.904 4.314-.87 5.898-.025v-.025l-5.362-2.92h-.009a4.899 4.899 0 00-1.369-.787c-1.105-.44-2.384-.523-3.795-.216-1.039.224-2.153.663-3.308 1.335-.718.423-1.427.905-2.104 1.46-.982.78-1.922 1.7-2.788 2.713a27.009 27.009 0 00-3.68 5.549 25.021 25.021 0 00-1.641 4.13c-.545 1.834-.842 3.667-.842 5.409l-.008-.009z" fill="#D8D8D8" stroke="#26144D"/><path d="M111.041 90.561c0 3.235 1.031 5.591 2.731 6.86 2.029 1.518 5.007 1.493 8.332-.44 6.105-3.55 11.063-12.176 11.063-19.268 0-3.65-1.312-6.18-3.424-7.291-1.98-1.054-4.669-.846-7.639.879-6.105 3.542-11.063 12.168-11.063 19.26z" fill="#7D7D7B" stroke="#26144D"/><path d="M119.2 66.482l1.32 5.881c.52-.39 1.048-.738 1.584-1.053.594-.34 1.172-.63 1.741-.846l-.842-3.766c-1.105-.44-2.384-.523-3.795-.216h-.008zm-8.2 5.5l3.382 7.449a27.487 27.487 0 012.434-3.5l-3.028-6.662c-.981.78-1.922 1.7-2.788 2.713zm-5.321 9.679l5.395 8.046c.091-1.667.429-3.393.982-5.11l-4.736-7.067a25.017 25.017 0 00-1.641 4.131zm-.644 7.723c.495 2.754 1.922 4.587 3.919 5.292l4.818 2.745a5.963 5.963 0 01-1.559-1.791l-7.178-6.246zm10.601 6.204c0 .987.082 1.908.239 2.754.586 3.284 2.293 5.474 4.678 6.32l5.75 3.277a7.104 7.104 0 01-1.856-2.14c-.891-1.543-1.395-3.584-1.395-6.047 0-.332 0-.68.033-1.02.108-1.991.512-4.048 1.172-6.105a32.345 32.345 0 012.772-6.163 31.68 31.68 0 012.904-4.173c1.344-1.642 2.838-3.085 4.422-4.263a21.92 21.92 0 011.889-1.26 15.798 15.798 0 012.079-1.013c2.706-1.078 5.148-1.037 7.037-.033v-.025l-6.402-3.492h-.017a5.918 5.918 0 00-1.633-.937c-1.312-.523-2.846-.622-4.529-.257-1.246.273-2.574.796-3.944 1.592a19.567 19.567 0 00-2.516 1.742 25.048 25.048 0 00-3.333 3.235 31.997 31.997 0 00-4.389 6.62 29.627 29.627 0 00-1.955 4.926c-.652 2.182-1.006 4.38-1.006 6.454v.008z" fill="#D8D8D8" stroke="#26144D"/><path d="M123.044 99.751c0 3.858 1.229 6.669 3.259 8.187 2.417 1.809 5.972 1.775 9.941-.522 7.284-4.239 13.199-14.524 13.199-22.993 0-4.355-1.567-7.374-4.083-8.701-2.36-1.253-5.569-1.012-9.108 1.045-7.285 4.23-13.2 14.516-13.2 22.976l-.008.008z" fill="#7D7D7B" stroke="#26144D"/><path d="M132.779 71.01l1.568 7.018c.619-.465 1.254-.88 1.889-1.26a15.798 15.798 0 012.079-1.013l-1.007-4.487c-1.311-.523-2.846-.622-4.529-.257zm-9.793 6.57l4.043 8.883a31.672 31.672 0 012.904-4.172l-3.614-7.946a25.043 25.043 0 00-3.333 3.235zm-6.343 11.546l6.434 9.606c.108-1.991.512-4.048 1.172-6.105l-5.651-8.428a29.455 29.455 0 00-1.955 4.927zm-.768 9.216c.586 3.285 2.293 5.474 4.678 6.32l5.75 3.277a7.104 7.104 0 01-1.856-2.14l-8.564-7.457h-.008zm11.08 7.631c0 1.244.099 2.405.305 3.476.743 4.139 2.888 6.901 5.891 7.962l7.243 4.131a8.96 8.96 0 01-2.343-2.696c-1.122-1.949-1.757-4.512-1.757-7.622 0-.423.008-.855.041-1.286.132-2.505.644-5.101 1.477-7.689a40.557 40.557 0 013.498-7.772 39.998 39.998 0 013.663-5.26c1.691-2.065 3.572-3.89 5.568-5.374a23.79 23.79 0 012.385-1.585 19.349 19.349 0 012.615-1.277c3.415-1.36 6.484-1.31 8.868-.041v-.034l-8.068-4.396h-.017a7.36 7.36 0 00-2.054-1.186c-1.658-.663-3.588-.788-5.709-.323-1.567.34-3.242 1.003-4.974 2.007a24.392 24.392 0 00-3.168 2.198 31.77 31.77 0 00-4.199 4.073 40.067 40.067 0 00-5.528 8.344 37.719 37.719 0 00-2.466 6.213c-.817 2.754-1.271 5.516-1.271 8.137z" fill="#D8D8D8" stroke="#26144D"/><path d="M136.285 111.224c0 4.869 1.551 8.402 4.1 10.318 3.045 2.273 7.532 2.24 12.532-.655 9.182-5.342 16.631-18.306 16.631-28.974 0-5.49-1.98-9.29-5.147-10.965-2.979-1.584-7.021-1.27-11.484 1.319-9.182 5.325-16.632 18.298-16.632 28.965v-.008z" fill="#7D7D7B" stroke="#26144D"/><path d="M148.562 75l1.979 8.843a23.79 23.79 0 012.385-1.585 19.349 19.349 0 012.615-1.277l-1.271-5.657c-1.658-.663-3.588-.788-5.708-.323zm-12.342 8.279l5.09 11.198a39.997 39.997 0 013.663-5.26l-4.554-10.01a31.764 31.764 0 00-4.199 4.072zm-7.994 14.557l8.109 12.102c.132-2.505.644-5.101 1.477-7.689l-7.12-10.626a37.72 37.72 0 00-2.466 6.213zm-.965 11.612c.742 4.139 2.887 6.901 5.89 7.963l7.243 4.131a8.984 8.984 0 01-2.342-2.696l-10.791-9.398zm21.507-4.835c0 1.261.346 2.232.932 2.845l1.155.681 16.631 9.746a6.902 6.902 0 003.523.962 6.998 6.998 0 006.047-3.475c1.947-3.352.833-7.657-2.499-9.622l-16.591-9.713-1.369-.805c-.801-.166-1.766.033-2.805.63-2.772 1.61-5.024 5.533-5.024 8.751z" fill="#D8D8D8" stroke="#26144D"/><path d="M200.518 99.263l-4.29 10.343-19.519 47.031-5.725 13.811-8.943-5.3.14-40.736c.108-10.866 7.813-24.013 17.226-29.363 2.698-1.526 5.239-2.256 7.491-2.256s4.042.663 5.552 1.916l8.068 4.554z" fill="#D8D8D8" stroke="#26144D"/><path d="M204.842 150.806l-33.858 19.642.141-40.735c.099-10.866 7.812-24.013 17.225-29.363 9.413-5.35 16.962-.871 16.863 9.995l-.371 40.461z" fill="#7D7D7B" stroke="#26144D"/><path d="M204.561 112.144l-3.077 5.624-9.735 17.834-3.432 6.271-6.196-3.526c-2.714-.962-4.446-3.848-4.446-8.211 0-7.656 5.346-16.963 11.937-20.787 3.671-2.132 6.955-2.115 9.141-.365h.008l5.8 3.16z" fill="#D8D8D8" stroke="#26144D"/><path d="M204.75 131.871c4.661-8.117 4.661-16.89.001-19.595-4.66-2.705-12.216 1.682-16.877 9.799-4.661 8.117-4.662 16.89-.002 19.595 4.66 2.706 12.217-1.682 16.878-9.799z" fill="#7D7D7B" stroke="#26144D"/><path d="M191.807 130.8c0 1.261.346 2.231.932 2.845l1.155.68 16.631 9.746a6.894 6.894 0 003.523.963 6.999 6.999 0 006.047-3.476c1.947-3.351.834-7.656-2.499-9.622l-16.591-9.713-1.369-.805c-.801-.165-1.766.034-2.805.631-2.772 1.609-5.024 5.532-5.024 8.751z" fill="#fff" stroke="#26144D"/></g><path d="M206.206 143.859c0 3.183 1.262 5.29 3.244 5.988l3.793 2.159c-1.339-1.006-2.148-2.857-2.148-5.406 0-5.585 3.901-12.373 8.714-15.166 2.339-1.358 4.455-1.518 6.017-.692v-.019l-4.226-2.299c-1.594-1.281-3.99-1.294-6.674.263-4.813 2.792-8.714 9.581-8.714 15.166l-.006.006z" fill="#D7D7D7" stroke="#26144D" stroke-width="1.5" stroke-linecap="round" stroke-linejoin="round"/><path d="M211.102 146.606c0 2.549.816 4.4 2.148 5.406 1.593 1.191 3.946 1.172 6.565-.346 4.813-2.799 8.714-9.588 8.714-15.172 0-2.876-1.039-4.868-2.696-5.745-1.562-.827-3.678-.666-6.018.691-4.812 2.793-8.713 9.582-8.713 15.166z" fill="#7D7D7B" stroke="#26144D" stroke-width="1.5" stroke-linecap="round" stroke-linejoin="round"/><defs><clipPath id="clip0_813_25397"><path fill="#fff" transform="translate(49.035)" d="M0 0h172.636v174.969H0z"/></clipPath></defs></svg>