<svg width="1447" height="859" fill="none" xmlns="http://www.w3.org/2000/svg"><mask id="a" style="mask-type:alpha" maskUnits="userSpaceOnUse" x="0" y="0" width="1447" height="859"><path fill="#D9D9D9" d="M0 0h1447v859H0z"/></mask><g mask="url(#a)"><rect x="-120.5" y="96.5" width="230" height="15" rx="7.5" fill="#FFE448" stroke="#000"/><rect x="-106.5" y="63.5" width="230" height="15" rx="7.5" fill="#007117" stroke="#000"/><rect x="99.814" y="93.689" width="120.309" height="16.989" rx="8.494" transform="rotate(29.905 99.814 93.689)" fill="#FFE448" stroke="#000"/><rect x="113.153" y="60.683" width="120.309" height="16.989" rx="8.494" transform="rotate(29.905 113.153 60.683)" fill="#007117" stroke="#000"/><path d="M479.566 281.644l-8.47 5.531-197.212-144.976L266.82 5.235 273.884 1l205.445 118.609.237 162.035z" fill="#85898C" stroke="#26144D" stroke-width="1.5" stroke-linecap="round" stroke-linejoin="round"/><path d="M472.265 265.05L266.829 146.433V5.234l205.436 118.609V265.05z" fill="#9DA0A3" stroke="#26144D" stroke-width="1.5" stroke-linecap="round" stroke-linejoin="round"/><path d="M461.906 243.419l-20.456-11.808c-1.44-.83-2.609-3.066-2.609-4.989v-3.625c0-1.923 1.169-2.804 2.609-1.974l20.456 11.808c1.44.83 2.609 3.066 2.609 4.989v3.625c0 1.923-1.169 2.804-2.609 1.974zm-9.885-18.357l-20.456-11.807c-1.44-.83-2.608-3.067-2.608-4.989v-3.626c0-1.922 1.168-2.803 2.608-1.973l20.456 11.807c1.44.83 2.609 3.067 2.609 4.989v3.626c0 1.922-1.169 2.803-2.609 1.973zm-26.469-35.295l-20.455-11.807c-1.44-.83-2.609-3.067-2.609-4.989v-3.626c0-1.922 1.169-2.803 2.609-1.973l20.455 11.807c1.44.83 2.609 3.067 2.609 4.989v3.626c0 1.922-1.169 2.803-2.609 1.973zm10.588-6.708l-20.456-11.807c-1.44-.83-2.609-3.067-2.609-4.989v-3.626c0-1.922 1.169-2.803 2.609-1.973l20.456 11.807c1.44.83 2.608 3.067 2.608 4.989v3.626c0 1.922-1.168 2.803-2.608 1.973zM301.997 79.274l-20.456-11.808c-1.439-.83-2.608-3.066-2.608-4.988v-3.626c0-1.922 1.169-2.803 2.608-1.973l20.456 11.807c1.44.83 2.609 3.066 2.609 4.99V77.3c0 1.923-1.169 2.804-2.609 1.974zm12.001-6.006l-20.455-11.807c-1.44-.83-2.609-3.067-2.609-4.99v-3.625c0-1.922 1.169-2.803 2.609-1.973l20.455 11.807c1.44.83 2.609 3.067 2.609 4.99v3.625c0 1.922-1.169 2.803-2.609 1.973zm37.066 53.658l-20.455-11.807c-1.44-.83-2.609-3.066-2.609-4.989v-3.625c0-1.923 1.169-2.804 2.609-1.974l20.455 11.808c1.44.83 2.609 3.066 2.609 4.989v3.625c0 1.923-1.169 2.803-2.609 1.973zm12.358-6.352l-20.455-11.808c-1.44-.83-2.609-3.066-2.609-4.989v-3.625c0-1.923 1.169-2.803 2.609-1.974l20.455 11.808c1.44.83 2.609 3.066 2.609 4.989v3.625c0 1.923-1.169 2.804-2.609 1.974zm46.24 4.235l-20.456-11.807c-1.439-.83-2.608-3.067-2.608-4.989v-3.626c0-1.922 1.169-2.803 2.608-1.973l20.456 11.807c1.44.83 2.609 3.067 2.609 4.989v3.626c0 1.922-1.169 2.803-2.609 1.973zm-12.35-20.125l-20.455-11.807c-1.44-.83-2.609-3.066-2.609-4.99v-3.624c0-1.923 1.169-2.804 2.609-1.974l20.455 11.807c1.44.83 2.609 3.067 2.609 4.99v3.625c0 1.922-1.169 2.803-2.609 1.973zm27.884 15.89l-20.456-11.808c-1.44-.83-2.609-3.066-2.609-4.989v-3.625c0-1.923 1.169-2.803 2.609-1.974l20.456 11.808c1.44.83 2.609 3.066 2.609 4.989v3.625c0 1.923-1.169 2.804-2.609 1.974zM294.933 36.558l-20.456-11.807c-1.44-.83-2.609-3.067-2.609-4.99v-3.624c0-1.923 1.169-2.804 2.609-1.974l20.456 11.807c1.44.83 2.608 3.067 2.608 4.99v3.625c0 1.922-1.168 2.803-2.608 1.973z" fill="#BCBCBC"/><path d="M472.266 123.844l7.064-4.236" stroke="#26144D" stroke-width="1.5" stroke-linecap="round" stroke-linejoin="round"/><path d="M351.9 335.1L114.201 198.296l121.528-70.119 237.699 136.804L351.9 335.1z" fill="#4DA4FF" stroke="#26144D" stroke-width="1.5" stroke-linecap="round" stroke-linejoin="round"/><path d="M351.702 358.824L114.003 222.01v-23.9l237.699 136.805v23.909z" fill="#999" stroke="#26144D" stroke-width="1.5" stroke-linecap="round" stroke-linejoin="round"/><path d="M473.344 288.881L351.816 359v-23.899l121.528-70.12v23.9z" fill="#D9D9D9" stroke="#26144D" stroke-width="1.5" stroke-linecap="round" stroke-linejoin="round"/><path d="M326.858 302.536l39.584 24.075 94.062-53.307-48.182-31.522-85.464 60.754z" fill="#B2B4B3" opacity=".46"/><path d="M335.28 307.599L161.958 207.247V95.734L335.28 196.076v111.523z" fill="#004DA9" stroke="#26144D" stroke-width="1.5" stroke-linecap="round" stroke-linejoin="round"/><path d="M335.302 195.82L161.98 95.468l86.981-50.18 173.312 100.351-86.971 50.181zm87.051 61.589l-86.981 50.181V196.077l86.981-50.191v111.523z" fill="#0069EA" stroke="#26144D" stroke-width="1.5" stroke-linecap="round" stroke-linejoin="round"/><path d="M303.292 219.822v56.319l-52.527-30.305v-56.318l4.087 2.362 48.44 27.942z" stroke="#26144D" stroke-width="1.5" stroke-linecap="round" stroke-linejoin="round"/><path d="M303.294 219.821v51.801l-48.44-27.943v-51.8l48.44 27.942z" fill="#003C93" stroke="#26144D" stroke-width="1.5" stroke-linecap="round" stroke-linejoin="round"/><path d="M409.844 210.148l-5.367 12.862-24.421 58.485-7.164 17.174-11.188-6.591.175-50.656c.134-13.512 9.775-29.861 21.552-36.514 3.375-1.898 6.554-2.805 9.372-2.805 2.818 0 5.058.825 6.946 2.382l10.095 5.663z" fill="#004DA9" stroke="#26144D" stroke-width="1.5" stroke-linecap="round" stroke-linejoin="round"/><path d="M404.474 223.009l-.413 44.652-24.008 13.832 24.421-58.484z" stroke="#26144D" stroke-width="1.5" stroke-linecap="round" stroke-linejoin="round"/><path d="M415.243 274.241l-42.36 24.425.175-50.655c.124-13.513 9.775-29.861 21.552-36.514 11.777-6.653 21.221-1.083 21.098 12.429l-.465 50.315z" fill="#0069EA" stroke="#26144D" stroke-width="1.5" stroke-linecap="round" stroke-linejoin="round"/><path d="M414.903 226.166l-3.85 6.994-12.18 22.176-4.293 7.798-7.752-4.384c-3.396-1.196-5.563-4.786-5.563-10.211 0-9.521 6.688-21.094 14.935-25.849 4.593-2.651 8.701-2.63 11.437-.454h.01l7.256 3.93z" fill="#004DA9" stroke="#26144D" stroke-width="1.5" stroke-linecap="round" stroke-linejoin="round"/><path d="M415.13 250.691c5.832-10.094 5.833-21.003.003-24.367-5.831-3.364-15.285 2.092-21.116 12.186-5.832 10.093-5.833 21.003-.003 24.367 5.831 3.364 15.285-2.092 21.116-12.186z" fill="#0069EA" stroke="#26144D" stroke-width="1.5" stroke-linecap="round" stroke-linejoin="round"/><path d="M383.717 168.342L218.951 69.258l12.964-17.256 153.071 88.634-1.269 27.706z" stroke="#26144D" stroke-width="1.5" stroke-linecap="round" stroke-linejoin="round"/><path d="M383.722 168.342l1.269-27.706 25.97-14.977 11.395 20.227-38.634 22.456zm1.269-27.707L231.919 52.001l25.97-14.987 153.071 88.644-25.969 14.977z" fill="#037BF4" stroke="#26144D" stroke-width="1.5" stroke-linecap="round" stroke-linejoin="round"/><path d="M182.869 107.514l51.784-30.521s-52.052-7.025-52.486-6.88c-.433.144-5.594 18.05-5.594 18.05l6.286 19.351h.01zm131.593 76.094l7.235-20.64 14.915 8.602-1.238 24.508-20.912-12.47z" fill="#004DA9" stroke="#26144D" stroke-width="1.5" stroke-linecap="round" stroke-linejoin="round"/><path d="M162.174 95.477l8.815-19.557 12.479 7.23-.64 24.797-20.654-12.47z" fill="#004DA9" stroke="#26144D" stroke-width="1.5" stroke-linecap="round" stroke-linejoin="round"/><path d="M366.402 150.506v3.661l-29.83 17.484-11.292-25.88-150.129-86.262 31.853-18.793c4.056-2.517 9.743-2.26 16.029 1.372l121.095 69.861c12.283 7.086 22.274 24.384 22.274 38.557z" fill="#037BF4" stroke="#26144D" stroke-width="1.5" stroke-linecap="round" stroke-linejoin="round"/><path d="M195.262 213.084l-.774-.444c-1.032-.598-1.868-2.186-1.868-3.558v-27.303c0-1.372.836-2.001 1.868-1.413l.774.443c1.033.599 1.869 2.187 1.869 3.559v27.303c0 1.372-.836 2.001-1.869 1.413zm8.198 4.733l-.774-.443c-1.032-.598-1.868-2.187-1.868-3.559v-27.303c0-1.372.836-2.001 1.868-1.413l.774.444c1.032.598 1.868 2.186 1.868 3.558v27.303c0 1.372-.836 2.001-1.868 1.413zm8.349 4.808l-.774-.443c-1.032-.599-1.868-2.187-1.868-3.559V191.32c0-1.372.836-2.001 1.868-1.413l.774.443c1.032.599 1.868 2.187 1.868 3.559v27.303c0 1.372-.836 2.001-1.868 1.413zm8.546 4.931l-.774-.444c-1.032-.598-1.868-2.187-1.868-3.558v-27.303c0-1.372.836-2.002 1.868-1.414l.774.444c1.032.598 1.868 2.187 1.868 3.559v27.303c0 1.371-.836 2.001-1.868 1.413zm8.198 4.734l-.775-.443c-1.032-.599-1.868-2.187-1.868-3.559v-27.303c0-1.372.836-2.001 1.868-1.413l.775.443c1.032.599 1.868 2.187 1.868 3.559v27.303c0 1.372-.836 2.001-1.868 1.413zm8.335 4.817l-.774-.443c-1.032-.598-1.868-2.187-1.868-3.559v-27.303c0-1.372.836-2.001 1.868-1.413l.774.444c1.032.598 1.868 2.186 1.868 3.558v27.303c0 1.372-.836 2.001-1.868 1.413z" fill="#003C93" stroke="#26144D" stroke-width="1.5" stroke-linecap="round" stroke-linejoin="round"/><path d="M201.966 57.076l34.846 20.351m21.934-35.825l96.363 56.453" stroke="#fff" stroke-width="1.5" stroke-linecap="round" stroke-linejoin="round"/><path d="M335.372 196.078l1.239-24.508 29.891-18.061 17.217 14.832-48.347 27.737z" fill="#037BF4" stroke="#26144D" stroke-width="1.5" stroke-linecap="round" stroke-linejoin="round"/><path d="M183.323 83.874l-12.397-7.272v-4.188c0-14.172 9.992-19.938 22.275-12.852l121.084 69.862c12.282 7.086 22.274 24.384 22.274 38.556v3.662l-15.059-8.685v-3.662c0-4.59-3.241-10.201-7.226-12.501L190.548 75.519c-3.984-2.3-7.225-.433-7.225 4.167v4.188z" fill="#004DA9" stroke="#26144D" stroke-width="1.5" stroke-linecap="round" stroke-linejoin="round"/><path d="M534.336 309l17.711 9.6c4.965 2.648 5.01 6.62 1.49 11.421-3.642 4.965-6.952 6.455-12.58 3.144l-30.404-17.172-107.9-61.292-1.366-.775-.062-.039c-.767-.767-1.225-2.007-1.225-3.627 0-4.062 2.846-8.999 6.368-11.03 1.473-.844 2.823-1.054 3.901-.713l1.093.628 112.516 63.92c2.792 1.581 6.652 3.783 10.458 5.935z" fill="#D2233C" stroke="#26144D" stroke-width="1.5" stroke-linecap="round" stroke-linejoin="round"/><path d="M420.228 264.674c-.767-.767-1.225-2.007-1.225-3.627 0-4.062 2.846-8.999 6.368-11.029 1.473-.845 2.823-1.055 3.901-.714m70.803 60.689c-.331-.497-.683-1.425-.683-3.045 0-4.061 2.847-8.998 6.368-11.029 1.473-.845 2.823-1.054 3.901-.713" stroke="#26144D" stroke-width="1.5" stroke-linecap="round" stroke-linejoin="round"/><path d="M429.722 252.663c13.589 8.208 27.549 15.959 41.339 24.221z" fill="#FA6646"/><path d="M429.722 252.663c13.589 8.208 27.549 15.959 41.339 24.221" stroke="#fff" stroke-width="1.5" stroke-linecap="round" stroke-linejoin="round"/><path d="M540.558 304.814l291.015 187.078 9.427-5.447v-165.86L540.558 147.119l-7.436 4.914 7.436 152.781z" fill="#85898C" stroke="#26144D" stroke-width="1.5" stroke-linecap="round" stroke-linejoin="round"/><path d="M533 309.635L833.451 483.1V325.415L533 151.949v157.686z" fill="#9DA0A3" stroke="#26144D" stroke-width="1.4" stroke-linecap="round" stroke-linejoin="round"/><path d="M796.734 384.479l22.563 13.024c1.588.915 2.877-.056 2.877-2.177v-3.999c0-2.121-1.289-4.587-2.877-5.503l-22.563-13.023c-1.588-.916-2.878.056-2.878 2.176v3.999c0 2.121 1.29 4.587 2.878 5.503zm-13.238-21.806l22.562 13.024c1.589.916 2.878-.056 2.878-2.177v-3.999c0-2.12-1.289-4.587-2.878-5.502l-22.562-13.024c-1.589-.916-2.878.056-2.878 2.177v3.998c0 2.121 1.289 4.588 2.878 5.503zm-15.967-58.017l22.562 13.023c1.589.916 2.878-.056 2.878-2.176v-3.999c0-2.121-1.289-4.587-2.878-5.503l-22.562-13.024c-1.588-.915-2.878.056-2.878 2.177v3.999c0 2.121 1.29 4.587 2.878 5.503zm-76.703-20.639l22.562 13.024c1.589.915 2.878-.056 2.878-2.177v-3.999c0-2.121-1.289-4.587-2.878-5.503l-22.562-13.023c-1.588-.916-2.878.056-2.878 2.176v3.999c0 2.121 1.29 4.587 2.878 5.503zm-13.631-21.413l22.562 13.024c1.589.915 2.878-.056 2.878-2.177v-3.999c0-2.121-1.289-4.587-2.878-5.503l-22.562-13.023c-1.588-.916-2.878.056-2.878 2.176v3.999c0 2.121 1.29 4.587 2.878 5.503zM782.328 424.97l22.563 13.024c1.588.915 2.877-.056 2.877-2.177v-3.999c0-2.12-1.289-4.587-2.877-5.503l-22.563-13.023c-1.588-.916-2.877.056-2.877 2.177v3.998c0 2.121 1.289 4.588 2.877 5.503zm12.463-6.614l22.563 13.024c1.588.915 2.877-.057 2.877-2.177v-3.999c0-2.121-1.289-4.587-2.877-5.503l-22.563-13.023c-1.588-.916-2.877.056-2.877 2.176v3.999c0 2.121 1.289 4.587 2.877 5.503zM552.209 187.844l22.562 13.024c1.588.915 2.878-.056 2.878-2.177v-3.999c0-2.12-1.29-4.587-2.878-5.503l-22.562-13.023c-1.589-.916-2.878.056-2.878 2.177v3.998c0 2.121 1.289 4.588 2.878 5.503zm-14.79 5.456l22.563 13.024c1.588.915 2.877-.056 2.877-2.177v-3.999c0-2.12-1.289-4.587-2.877-5.502l-22.563-13.024c-1.588-.916-2.877.056-2.877 2.177v3.998c0 2.121 1.289 4.588 2.877 5.503zm30.363 17.91l22.563 13.024c1.588.916 2.877-.056 2.877-2.177v-3.998c0-2.121-1.289-4.588-2.877-5.503l-22.563-13.024c-1.588-.916-2.877.056-2.877 2.177v3.999c0 2.12 1.289 4.587 2.877 5.502zm-21.412 34.26l22.562 13.024c1.589.915 2.878-.056 2.878-2.177v-3.999c0-2.12-1.289-4.587-2.878-5.503l-22.562-13.023c-1.589-.916-2.878.056-2.878 2.177v3.998c0 2.121 1.289 4.588 2.878 5.503zm105.908 80.216l22.562 13.024c1.589.915 2.878-.056 2.878-2.177v-3.999c0-2.121-1.289-4.587-2.878-5.503l-22.562-13.023c-1.588-.916-2.878.056-2.878 2.176v3.999c0 2.121 1.29 4.587 2.878 5.503zm15.966-4.288l22.563 13.024c1.588.915 2.877-.057 2.877-2.177v-3.999c0-2.121-1.289-4.587-2.877-5.503l-22.563-13.023c-1.588-.916-2.877.056-2.877 2.176v3.999c0 2.121 1.289 4.587 2.877 5.503zm-52.954-68.912l22.563 13.023c1.588.916 2.877-.056 2.877-2.176v-3.999c0-2.121-1.289-4.587-2.877-5.503l-22.563-13.024c-1.588-.915-2.877.056-2.877 2.177v3.999c0 2.121 1.289 4.587 2.877 5.503zm14.799-5.064l22.563 13.024c1.588.916 2.877-.056 2.877-2.177v-3.999c0-2.12-1.289-4.587-2.877-5.502l-22.563-13.024c-1.588-.916-2.878.056-2.878 2.177v3.998c0 2.121 1.29 4.588 2.878 5.503zm89.166 101.238l22.563 13.023c1.588.916 2.878-.056 2.878-2.177v-3.998c0-2.121-1.29-4.587-2.878-5.503l-22.563-13.024c-1.588-.915-2.877.056-2.877 2.177v3.999c0 2.121 1.289 4.587 2.877 5.503zm-13.238-21.414l22.563 13.024c1.588.916 2.877-.056 2.877-2.177v-3.998c0-2.121-1.289-4.588-2.877-5.503l-22.563-13.024c-1.588-.915-2.877.056-2.877 2.177v3.999c0 2.12 1.289 4.587 2.877 5.502zm14.406-5.457l22.563 13.024c1.588.916 2.878-.056 2.878-2.177v-3.998c0-2.121-1.29-4.588-2.878-5.503l-22.563-13.024c-1.588-.915-2.877.056-2.877 2.177v3.999c0 2.12 1.289 4.587 2.877 5.502z" fill="#BCBCBC"/><path d="M841 320.585l-7.549 4.83" stroke="#26144D" stroke-width="1.5" stroke-linecap="round" stroke-linejoin="round"/><path d="M708.215 537.97L390.203 354.026l125.845-72.632 318.013 183.943-125.846 72.633z" fill="#4DA4FF" stroke="#26144D" stroke-width="1.5" stroke-linecap="round" stroke-linejoin="round"/><path d="M708.013 562.544L390 378.59v-24.756l318.013 183.943v24.767z" fill="#999" stroke="#26144D" stroke-width="1.5" stroke-linecap="round" stroke-linejoin="round"/><path opacity=".99" d="M833.976 490.092L708.12 562.725v-24.756l125.856-72.633v24.756z" fill="#D9D9D9" stroke="#26144D" stroke-width="1.5" stroke-linecap="round" stroke-linejoin="round"/><path d="M807 480.499l-81.5 46.5L432 360.212l89.5-51.213 285.5 171.5z" fill="#B2B4B3" opacity=".46"/><g clip-path="url(#clip0_1107_34)" stroke-width="1.5" stroke-linecap="round" stroke-linejoin="round"><path d="M473.598 383.402l5.328-3.713v-10.535l-5.328-3.11v17.358zM439.39 363.46l5.339-3.508v-11.213l-5.339-3.11v17.831z" fill="#D8D8D8" stroke="#26144D"/><path d="M555.611 387.114v43.96l83.345-48.555V279.253l-42.115 24.536v59.284l-41.23 24.041z" fill="#7D7D7B" stroke="#26144D"/><path d="M429.906 313.539v44.391l9.484 5.531v-17.832l5.339 3.11 20.322 11.849v17.831l8.547 4.983v-17.358l5.328 3.11 20.322 11.848v17.358l56.32 32.833v-44.391l-125.662-73.263zm166.904-9.912l-125.663-73.263 42.179-24.557 125.662 73.263-42.178 24.557z" fill="#D8D8D8" stroke="#26144D"/><path d="M555.462 386.899l-125.663-73.263 42.179-24.558 125.663 73.263-42.179 24.558z" fill="#D8D8D8" stroke="#26144D"/><path d="M584.48 355.95l-33.462 14.269L449.46 310.72l16.433-11.063 34.89 7.027 83.697 49.266z" fill="#565656" stroke="#26144D"/><path d="M478.926 369.153v10.536l20.322 11.848v-10.535l-20.322-11.849zm-34.197-20.414v11.214l20.322 11.848v-11.213l-20.322-11.849zm26.482-74.092l125.663 73.274v-44.39l-125.663-73.263v44.379z" fill="#7D7D7B" stroke="#26144D"/><path d="M591.14 350.117c-.224-.893-6.66-42.378-6.66-42.378l-103.934-61.007-2.664 20.404 97.934 82.303 15.324.678z" fill="#565656" stroke="#26144D"/><path d="M452.402 288.756c0 1.076.085 2.077.266 3.002.64 3.573 2.483 5.952 5.062 6.866l6.224 3.562a7.727 7.727 0 01-2.014-2.324c-.96-1.679-1.514-3.896-1.514-6.575 0-.366 0-.732.032-1.109.117-2.163.554-4.401 1.268-6.629a35.389 35.389 0 013.006-6.704 35.483 35.483 0 013.143-4.541c1.45-1.787 3.069-3.358 4.785-4.639a21.93 21.93 0 012.046-1.366c.767-.441 1.513-.818 2.249-1.098 2.93-1.173 5.573-1.13 7.619-.032v-.032l-6.927-3.788h-.01a6.34 6.34 0 00-1.769-1.023c-1.428-.57-3.08-.678-4.902-.28-1.343.291-2.782.861-4.274 1.733a21.36 21.36 0 00-2.717 1.894 26.515 26.515 0 00-3.602 3.519c-1.844 2.141-3.463 4.606-4.753 7.199a32.603 32.603 0 00-2.121 5.359c-.703 2.379-1.086 4.757-1.086 7.017l-.011-.011z" fill="#D8D8D8" stroke="#26144D"/><path d="M460.426 293.286c0 4.197 1.332 7.253 3.528 8.9 2.621 1.969 6.468 1.937 10.763-.57 7.886-4.606 14.29-15.798 14.29-24.999 0-4.735-1.694-8.017-4.422-9.459-2.558-1.367-6.032-1.098-9.868 1.14-7.886 4.596-14.291 15.787-14.291 24.988z" fill="#7D7D7B" stroke="#26144D"/><path d="M470.966 262.036l1.705 7.629a21.93 21.93 0 012.046-1.366c.767-.441 1.513-.818 2.248-1.098l-1.086-4.886c-1.428-.57-3.08-.678-4.903-.279h-.01zm-10.604 7.145l4.37 9.664a35.564 35.564 0 013.143-4.542l-3.911-8.641a26.515 26.515 0 00-3.602 3.519zM453.5 281.74l6.969 10.439c.117-2.164.554-4.402 1.268-6.629l-6.117-9.169a32.44 32.44 0 00-2.12 5.359zm-.832 10.019c.64 3.573 2.483 5.951 5.062 6.866l6.224 3.562a7.743 7.743 0 01-2.014-2.325l-9.272-8.103z" fill="#D8D8D8" stroke="#26144D"/><path d="M461.428 303.079c0 1.614.128 3.12.395 4.509.959 5.37 3.729 8.953 7.608 10.331l9.357 5.359c-1.183-.904-2.206-2.067-3.027-3.498-1.449-2.529-2.27-5.854-2.27-9.889 0-.549.011-1.109.054-1.668.17-3.25.831-6.619 1.907-9.976a52.785 52.785 0 014.519-10.084 51.88 51.88 0 014.731-6.822c2.185-2.68 4.615-5.047 7.193-6.974a30.712 30.712 0 013.08-2.055 24.98 24.98 0 013.378-1.657c4.412-1.765 8.376-1.701 11.456-.054v-.043l-10.422-5.704h-.021a9.551 9.551 0 00-2.654-1.539c-2.142-.861-4.635-1.022-7.374-.419-2.025.441-4.188 1.302-6.426 2.604a31.507 31.507 0 00-4.092 2.852c-1.908 1.528-3.73 3.314-5.424 5.284-2.771 3.217-5.211 6.919-7.14 10.825a49.117 49.117 0 00-3.187 8.061c-1.055 3.572-1.641 7.156-1.641 10.557z" fill="#D8D8D8" stroke="#26144D"/><path d="M473.492 309.88c0 6.317 2.003 10.901 5.296 13.387 3.932 2.949 9.73 2.906 16.187-.85 11.861-6.93 21.484-23.75 21.484-37.589 0-7.124-2.557-12.053-6.65-14.227-3.847-2.055-9.068-1.646-14.834 1.711-11.86 6.909-21.483 23.74-21.483 37.579v-.011z" fill="#7D7D7B" stroke="#26144D"/><path d="M489.338 262.896l2.557 11.471a30.712 30.712 0 013.08-2.055 24.98 24.98 0 013.378-1.657l-1.641-7.34c-2.142-.861-4.635-1.022-7.374-.419zm-15.942 10.739l6.575 14.528a51.88 51.88 0 014.731-6.822l-5.882-12.989c-1.908 1.528-3.73 3.314-5.424 5.283zm-10.327 18.887l10.476 15.701c.17-3.25.831-6.618 1.907-9.976l-9.196-13.785a49.142 49.142 0 00-3.187 8.06zm-1.246 15.066c.959 5.37 3.73 8.953 7.609 10.331l9.356 5.359c-1.183-.904-2.206-2.066-3.026-3.497l-13.939-12.193z" fill="#D8D8D8" stroke="#26144D"/><path d="M593.921 408.217l25.214-61.017" stroke="#26144D"/><path d="M619.71 273.044l-70.472-41.259" stroke="#fff"/><path d="M491.32 301.863c0 1.636.447 2.895 1.204 3.691l1.492.883 21.484 12.644a8.88 8.88 0 004.55 1.249 9.033 9.033 0 007.811-4.509c2.515-4.348 1.077-9.933-3.229-12.484l-21.43-12.601-1.769-1.044c-1.034-.215-2.281.043-3.623.818-3.581 2.088-6.49 7.178-6.49 11.353z" fill="#fff" stroke="#26144D"/><path d="M501.081 317.973c0 1.076.085 2.077.266 3.002.64 3.573 2.483 5.951 5.062 6.866l6.224 3.562a7.74 7.74 0 01-2.014-2.324c-.959-1.679-1.514-3.896-1.514-6.576 0-.366 0-.731.032-1.108.118-2.163.555-4.401 1.269-6.629a35.447 35.447 0 013.005-6.704 35.77 35.77 0 013.143-4.542c1.45-1.786 3.07-3.357 4.785-4.638a21.798 21.798 0 012.046-1.366c.768-.442 1.514-.818 2.249-1.098 2.93-1.173 5.573-1.13 7.619-.032v-.033l-6.926-3.788h-.011a6.337 6.337 0 00-1.769-1.022c-1.428-.57-3.08-.678-4.902-.28-1.343.291-2.782.861-4.273 1.733a21.3 21.3 0 00-2.718 1.894 26.456 26.456 0 00-3.602 3.519c-1.843 2.141-3.463 4.606-4.753 7.199a32.617 32.617 0 00-2.12 5.359c-.704 2.378-1.087 4.757-1.087 7.017l-.011-.011z" fill="#D8D8D8" stroke="#26144D"/><path d="M509.095 322.492c0 4.197 1.332 7.254 3.527 8.9 2.622 1.969 6.469 1.937 10.763-.57 7.886-4.606 14.291-15.798 14.291-24.999 0-4.735-1.695-8.017-4.423-9.459-2.557-1.367-6.031-1.098-9.868 1.141-7.886 4.595-14.29 15.786-14.29 24.987z" fill="#7D7D7B" stroke="#26144D"/><path d="M519.634 291.252l1.705 7.63a21.798 21.798 0 012.046-1.366c.768-.442 1.514-.818 2.249-1.098l-1.087-4.886c-1.428-.57-3.08-.678-4.902-.28h-.011zm-10.592 7.135l4.369 9.664a35.483 35.483 0 013.143-4.541l-3.911-8.642a26.451 26.451 0 00-3.601 3.519zm-6.874 12.559l6.969 10.439c.118-2.163.555-4.402 1.269-6.629l-6.117-9.169a32.533 32.533 0 00-2.121 5.359zm-.831 10.019c.639 3.573 2.483 5.951 5.062 6.866l6.223 3.562a7.771 7.771 0 01-2.014-2.325l-9.271-8.103zm13.694 8.049c0 1.281.106 2.475.309 3.573.756 4.261 2.962 7.102 6.042 8.2l7.428 4.251a9.198 9.198 0 01-2.398-2.777c-1.151-2.001-1.801-4.649-1.801-7.845 0-.43 0-.882.043-1.323.138-2.583.66-5.252 1.513-7.921.884-2.733 2.11-5.445 3.581-7.996a41.133 41.133 0 013.751-5.412c1.737-2.131 3.666-4.004 5.712-5.532a28.463 28.463 0 012.44-1.636 20.463 20.463 0 012.685-1.312c3.496-1.399 6.65-1.346 9.09-.043v-.033l-8.269-4.53h-.021a7.65 7.65 0 00-2.11-1.216c-1.695-.678-3.677-.807-5.851-.334-1.609.355-3.325 1.033-5.094 2.066a25.294 25.294 0 00-3.25 2.26 32.378 32.378 0 00-4.305 4.197 41.53 41.53 0 00-5.67 8.588 38.487 38.487 0 00-2.525 6.392c-.842 2.83-1.3 5.682-1.3 8.372v.011z" fill="#D8D8D8" stroke="#26144D"/><path d="M524.601 334.416c0 5.004 1.587 8.652 4.209 10.622 3.122 2.345 7.715 2.302 12.841-.678 9.41-5.5 17.051-18.844 17.051-29.831 0-5.65-2.025-9.567-5.275-11.289-3.048-1.625-7.194-1.312-11.765 1.356-9.41 5.489-17.051 18.833-17.051 29.809l-.01.011z" fill="#7D7D7B" stroke="#26144D"/><path d="M537.175 297.128l2.025 9.104a28.62 28.62 0 012.44-1.636 20.473 20.473 0 012.686-1.312l-1.3-5.822c-1.695-.678-3.677-.807-5.851-.334zm-12.649 8.523l5.222 11.525a41.24 41.24 0 013.751-5.413l-4.668-10.309a32.378 32.378 0 00-4.305 4.197zm-8.195 14.98l8.312 12.461c.139-2.583.661-5.251 1.513-7.92l-7.299-10.934a38.416 38.416 0 00-2.526 6.393zm-.991 11.956c.756 4.261 2.962 7.102 6.042 8.2l7.428 4.251a9.198 9.198 0 01-2.398-2.777l-11.061-9.674h-.011zm14.311 9.9c0 1.614.128 3.121.395 4.509.959 5.37 3.729 8.953 7.608 10.331l9.357 5.359c-1.183-.904-2.206-2.066-3.027-3.498-1.449-2.528-2.269-5.854-2.269-9.889 0-.549.01-1.109.053-1.668.17-3.25.831-6.618 1.907-9.976a52.75 52.75 0 014.519-10.083 51.92 51.92 0 014.731-6.823c2.185-2.68 4.615-5.047 7.194-6.973a30.428 30.428 0 013.079-2.056 24.98 24.98 0 013.378-1.657c4.412-1.765 8.377-1.7 11.456-.054v-.043l-10.422-5.704h-.021a9.51 9.51 0 00-2.654-1.538c-2.142-.861-4.635-1.023-7.374-.42-2.025.441-4.188 1.302-6.426 2.604a31.507 31.507 0 00-4.092 2.852c-1.908 1.528-3.73 3.314-5.424 5.284-2.771 3.217-5.211 6.919-7.14 10.826a49.072 49.072 0 00-3.187 8.06c-1.055 3.573-1.641 7.156-1.641 10.557z" fill="#D8D8D8" stroke="#26144D"/><path d="M541.704 349.299c0 6.317 2.004 10.901 5.296 13.387 3.933 2.949 9.73 2.906 16.188-.85 11.861-6.93 21.484-23.75 21.484-37.589 0-7.124-2.558-12.053-6.65-14.227-3.847-2.055-9.069-1.646-14.834 1.711-11.861 6.909-21.484 23.74-21.484 37.579v-.011z" fill="#7D7D7B" stroke="#26144D"/><path d="M557.561 302.304l2.558 11.472a30.428 30.428 0 013.079-2.056 24.932 24.932 0 013.379-1.657l-1.642-7.339c-2.142-.861-4.635-1.023-7.374-.42zm-15.942 10.74l6.575 14.527a51.88 51.88 0 014.731-6.822l-5.882-12.989c-1.908 1.528-3.73 3.314-5.424 5.284zm-10.327 18.886l10.476 15.701c.17-3.25.831-6.618 1.907-9.976l-9.196-13.785a49.142 49.142 0 00-3.187 8.06zm-1.246 15.066c.959 5.37 3.73 8.954 7.609 10.331l9.356 5.359c-1.183-.904-2.206-2.066-3.026-3.497l-13.939-12.193zm27.782-6.274c0 1.636.447 2.895 1.204 3.692l1.492.882 21.483 12.645a8.883 8.883 0 004.551 1.248 9.032 9.032 0 007.811-4.509c2.515-4.348 1.076-9.933-3.229-12.483l-21.43-12.602-1.769-1.044c-1.034-.215-2.281.043-3.623.818-3.581 2.088-6.49 7.178-6.49 11.353z" fill="#D8D8D8" stroke="#26144D"/><path d="M624.677 333.782l-5.542 13.419-25.213 61.017-7.396 17.917-11.552-6.876.181-52.849c.139-14.097 10.092-31.154 22.251-38.095 3.485-1.98 6.767-2.927 9.676-2.927 2.91 0 5.222.861 7.172 2.486l10.423 5.908z" fill="#D8D8D8" stroke="#26144D"/><path d="M630.261 400.652l-43.735 25.483.181-52.849c.128-14.098 10.092-31.154 22.251-38.096 12.159-6.941 21.91-1.129 21.782 12.968l-.479 52.494z" fill="#7D7D7B" stroke="#26144D"/><path d="M629.898 350.493l-3.975 7.296-12.574 23.137-4.434 8.136-8.003-4.574c-3.506-1.248-5.744-4.993-5.744-10.654 0-9.932 6.906-22.007 15.421-26.968 4.742-2.765 8.983-2.744 11.807-.473h.011l7.491 4.1z" fill="#D8D8D8" stroke="#26144D"/><path d="M630.142 376.087c6.021-10.531 6.022-21.913.003-25.423-6.02-3.509-15.781 2.182-21.801 12.713-6.021 10.531-6.022 21.913-.003 25.423 6.02 3.509 15.78-2.183 21.801-12.713z" fill="#7D7D7B" stroke="#26144D"/><path d="M613.423 374.696c0 1.636.448 2.895 1.205 3.691l1.491.883 21.484 12.644a8.881 8.881 0 004.551 1.249 9.035 9.035 0 007.811-4.509c2.515-4.348 1.076-9.933-3.229-12.484l-21.431-12.601-1.769-1.044c-1.033-.215-2.28.043-3.623.818-3.58 2.088-6.49 7.178-6.49 11.353z" fill="#fff" stroke="#26144D"/></g><path d="M631.935 407.102c-7.453-4.302-7.454-18.25-.001-31.153 7.452-12.903 19.536-19.877 26.99-15.575 7.453 4.302 7.454 18.249.001 31.153-7.452 12.903-19.536 19.877-26.99 15.575z" fill="#F21131" stroke="#26144D" stroke-width="1.5" stroke-linecap="round" stroke-linejoin="round"/><path d="M629.945 422.953c0 13.783 5.067 23.281 13.169 27.298l69.464 40.965 58.797-100.637-71.271-42.3-.032.054c-7.439-4.082-17.604-3.377-28.816 3.098-22.82 13.174-41.311 45.195-41.311 71.522z" fill="#E40133" stroke="#26144D" stroke-width="1.5" stroke-linecap="round" stroke-linejoin="round"/><path d="M711.991 491.092c-16.129-9.308-16.128-39.494.002-67.422 16.13-27.928 42.281-43.022 58.41-33.713 16.129 9.308 16.128 39.494-.002 67.422-16.13 27.928-42.281 43.022-58.41 33.713z" fill="#BF0037" stroke="#26144D" stroke-width="1.5" stroke-linecap="round" stroke-linejoin="round"/><path d="M775.178 415.547l-5.558 13.323-25.289 60.581-7.417 11.262-11.587-6.828.182-45.943c.139-13.997 10.122-30.931 22.318-37.823 3.495-1.966 6.787-2.906 9.705-2.906s5.237.855 7.193 2.468l10.453 5.866z" fill="#E40133" stroke="#26144D" stroke-width="1.5" stroke-linecap="round" stroke-linejoin="round"/><path d="M744.323 489.441l25.288-60.581" stroke="#26144D" stroke-width="1.5" stroke-linecap="round" stroke-linejoin="round"/><path d="M780.769 475.411l-43.865 25.301.182-45.943c.128-13.997 10.122-30.932 22.317-37.823 12.196-6.892 21.975-1.122 21.847 12.875l-.481 45.59z" fill="#BF0037" stroke="#26144D" stroke-width="1.5" stroke-linecap="round" stroke-linejoin="round"/><path d="M780.405 432.13l-3.987 7.244-12.612 22.971-4.446 8.078-8.027-4.541c-3.517-1.24-5.761-4.958-5.761-10.578 0-9.862 6.926-21.849 15.466-26.775 4.756-2.746 9.01-2.725 11.843-.47h.01l7.514 4.071z" fill="#E40133" stroke="#26144D" stroke-width="1.5" stroke-linecap="round" stroke-linejoin="round"/><path d="M758.784 470.173c-6.037-3.484-6.036-14.785.003-25.241 6.038-10.455 15.828-16.106 21.866-12.622 6.037 3.484 6.036 14.785-.003 25.241-6.039 10.455-15.828 16.107-21.866 12.622zm-47.242-108.764v29.82c3.891-3.632 8.006-6.752 12.281-9.22 5.398-3.12 10.56-4.894 15.295-5.449v-12.993l-27.576-2.158z" fill="#BF0037" stroke="#26144D" stroke-width="1.5" stroke-linecap="round" stroke-linejoin="round"/><path d="M678.28 358.812v13.057l33.251 19.371.011-.011v-29.82l-33.262-2.597z" fill="#F21131" stroke="#26144D" stroke-width="1.5" stroke-linecap="round" stroke-linejoin="round"/><path d="M739.118 363.567c-4.735.556-9.897 2.33-15.295 5.45-4.275 2.468-8.401 5.598-12.281 9.231l-33.262-19.371s5.825-5.941 14.696-10.022c9.053-4.156 14.846-3.857 14.846-3.857l31.285 18.559.011.01z" fill="#F21131" stroke="#26144D" stroke-width="1.5" stroke-linecap="round" stroke-linejoin="round"/><path d="M627.605 467.088L657.79 459v-28.57l-30.185 36.658zm32.813 20.033l30.184-8.088v-28.559l-30.184 36.647z" fill="#7D7D7B" stroke="#26144D" stroke-width="1.5" stroke-linecap="round" stroke-linejoin="round"/><path d="M657.79 430.431l-12.816-7.426-28.762 36.658 11.319 7.223 30.259-36.455zm32.812 20.044l-12.815-7.426-28.763 36.647 11.319 7.223 30.259-36.444z" fill="#D8D8D8" stroke="#26144D" stroke-width="1.5" stroke-linecap="round" stroke-linejoin="round"/><path d="M649.152 387.377l44.561 25.718-5.681 9.836-44.561-25.718 5.681-9.836z" fill="#BF0037" stroke="#26144D" stroke-width="1.5" stroke-linecap="round" stroke-linejoin="round"/><path d="M764.808 459.745c-2.715-1.566-2.717-6.643-.004-11.34 2.712-4.696 7.112-7.233 9.826-5.667 2.715 1.567 2.717 6.644.004 11.341-2.712 4.696-7.112 7.233-9.826 5.666z" fill="#7D7D7B" stroke="#26144D" stroke-width="1.5" stroke-linecap="round" stroke-linejoin="round"/><path d="M730.169 362.071l-21.825-12.907" stroke="#fff" stroke-width="1.5" stroke-linecap="round" stroke-linejoin="round"/><path d="M910.185 485.634c.078-4.582 3.297-10.31 7.18-12.796 2.32-1.445 4.327-1.432 5.591-.209l37.947 21.44-10.021 17.885-37.947-21.439c-1.694-.43-2.763-2.135-2.737-4.868l-.013-.013z" fill="#248CFF" stroke="#26144D" stroke-width="1.5" stroke-linecap="round" stroke-linejoin="round"/><path d="M960.641 505.676c2.803-4.999 2.886-10.277.186-11.787-2.7-1.511-7.161 1.318-9.964 6.317-2.802 4.999-2.886 10.276-.185 11.787 2.7 1.51 7.161-1.318 9.963-6.317z" fill="#0069EA" stroke="#26144D" stroke-width="1.5" stroke-linecap="round" stroke-linejoin="round"/><path d="M873.961 634.343l-125.753-72.532 125.753-72.519 125.753 72.519-125.753 72.532z" fill="#8ED760" stroke="#26144D" stroke-width="1.5" stroke-linecap="round" stroke-linejoin="round"/><path d="M873.753 658.881L748 586.349v-24.72l125.753 72.532v24.72z" fill="#956054" stroke="#26144D" stroke-width="1.5" stroke-linecap="round" stroke-linejoin="round"/><path d="M999.626 586.53l-125.753 72.533v-24.72l125.753-72.532v24.719z" fill="#A9776B" stroke="#26144D" stroke-width="1.5" stroke-linecap="round" stroke-linejoin="round"/><path d="M796.323 554.858v7.967m175.429-5.246v7.967m-167.44-6.703v7.966m159.987-13.747v7.967m-6.917-2.655v7.967m-80.46 40.873v7.966m-7.179-13.551v7.979m-7.179-2.122v7.967m-73.942-56.077v7.967" stroke="#5FAE2C" stroke-width="1.5" stroke-linecap="round" stroke-linejoin="round"/><path d="M862.649 527.654l-14.1-8.214.091-39.247 14.1 8.214-.091 39.247z" fill="#fff" stroke="#000" stroke-width="1.5" stroke-linecap="round" stroke-linejoin="round"/><path d="M862.74 488.406l-14.1-8.214 12.901-7.433 14.087 8.214-12.888 7.433z" fill="#248CFF" stroke="#26144D" stroke-width="1.5" stroke-linecap="round" stroke-linejoin="round"/><path d="M853.329 480.415l8.679-4.882" stroke="#fff" stroke-width="1.5" stroke-linecap="round" stroke-linejoin="round"/><path d="M875.631 480.974l-.078 39.247-12.901 7.433.091-39.248 12.888-7.432z" fill="#fff" stroke="#000" stroke-width="1.5" stroke-linecap="round" stroke-linejoin="round"/><path d="M845.08 537.781l-14.087-8.214.078-39.247 14.1 8.227-.091 39.234z" fill="#004DA9" stroke="#26144D" stroke-width="1.5" stroke-linecap="round" stroke-linejoin="round"/><path d="M845.171 498.548l-14.1-8.226 12.901-7.433 14.1 8.214-12.901 7.445z" fill="#248CFF" stroke="#26144D" stroke-width="1.5" stroke-linecap="round" stroke-linejoin="round"/><path d="M835.737 490.658l8.692-4.882" stroke="#fff" stroke-width="1.5" stroke-linecap="round" stroke-linejoin="round"/><path d="M858.077 491.103l-.091 39.247-12.902 7.432.092-39.234 12.901-7.445z" fill="#fff" stroke="#000" stroke-width="1.5" stroke-linecap="round" stroke-linejoin="round"/><path d="M831.801 585.19l62.733 36.89 82.827-47.2-36.396-22.507-109.164 32.817z" fill="#B2B4B3" opacity=".46"/><path d="M827.529 547.909l-14.1-8.214.091-39.247 14.087 8.227-.078 39.234z" fill="#004DA9" stroke="#26144D" stroke-width="1.5" stroke-linecap="round" stroke-linejoin="round"/><path d="M827.606 508.674l-14.086-8.226 12.888-7.433 14.1 8.214-12.902 7.445z" fill="#248CFF" stroke="#26144D" stroke-width="1.5" stroke-linecap="round" stroke-linejoin="round"/><path d="M840.509 501.228l-.092 39.247-12.888 7.432.078-39.234 12.902-7.445z" fill="#fff" stroke="#000" stroke-width="1.5" stroke-linecap="round" stroke-linejoin="round"/><path d="M866.219 594.85l-53.794-31.033v-52.603l53.794 31.033v52.603z" fill="#004DA9" stroke="#26144D" stroke-width="1.5" stroke-linecap="round" stroke-linejoin="round"/><path d="M943.494 550.278l-77.276 44.571v-52.603l77.276-44.571v52.603z" fill="#0069EA" stroke="#26144D" stroke-width="1.5" stroke-linecap="round" stroke-linejoin="round"/><path d="M866.219 542.246l-53.794-31.033 77.276-44.558 53.794 31.02-77.276 44.571z" fill="#248CFF" stroke="#26144D" stroke-width="1.5" stroke-linecap="round" stroke-linejoin="round"/><path d="M847.728 522.343l24.812 15.1 12.223-6.509-24.381-14.163-12.654 5.572zm22.358-15.179l27.523 16.089 11.767-6.873-24.981-14.645-14.309 5.429zm25.533-12.847l25.711 14.826 11.95-6.508-25.02-13.903-12.641 5.585z" fill="#B2B4B3" opacity=".46"/><path d="M825.014 528.499l25.346 14.28m-25.346-7.77l25.346 14.28m-25.346-7.408l25.346 14.28m-25.346-7.589l25.346 14.28" stroke="#26144D" stroke-width="1.5" stroke-linecap="round" stroke-linejoin="round"/><path d="M931.077 573.631l-14.1-8.227.091-39.234 14.1 8.214-.091 39.247z" fill="#004DA9" stroke="#26144D" stroke-width="1.5" stroke-linecap="round" stroke-linejoin="round"/><path d="M931.165 534.384l-14.1-8.214 12.902-7.445 14.086 8.227-12.888 7.432z" fill="#248CFF" stroke="#26144D" stroke-width="1.5" stroke-linecap="round" stroke-linejoin="round"/><path d="M944.054 526.952l-.078 39.247-12.901 7.433.091-39.247 12.888-7.433z" fill="#0069EA" stroke="#26144D" stroke-width="1.5" stroke-linecap="round" stroke-linejoin="round"/><path d="M913.51 583.759l-14.087-8.214.079-39.247 14.099 8.214-.091 39.247z" fill="#004DA9" stroke="#26144D" stroke-width="1.5" stroke-linecap="round" stroke-linejoin="round"/><path d="M913.6 544.511l-14.1-8.214 12.902-7.445 14.1 8.226-12.902 7.433z" fill="#248CFF" stroke="#26144D" stroke-width="1.5" stroke-linecap="round" stroke-linejoin="round"/><path d="M926.5 537.078l-.091 39.247-12.901 7.433.091-39.247 12.901-7.433z" fill="#0069EA" stroke="#26144D" stroke-width="1.5" stroke-linecap="round" stroke-linejoin="round"/><path d="M895.956 593.885l-14.1-8.214.091-39.247 14.087 8.214-.078 39.247z" fill="#004DA9" stroke="#26144D" stroke-width="1.5" stroke-linecap="round" stroke-linejoin="round"/><path d="M896.032 554.639l-14.087-8.214 12.888-7.433 14.1 8.214-12.901 7.433z" fill="#248CFF" stroke="#26144D" stroke-width="1.5" stroke-linecap="round" stroke-linejoin="round"/><path d="M908.936 547.206l-.091 39.247-12.888 7.433.078-39.247 12.901-7.433z" fill="#0069EA" stroke="#26144D" stroke-width="1.5" stroke-linecap="round" stroke-linejoin="round"/><path d="M849.982 595.123l-38.82-22.48.091-17.339 38.82 22.481-.091 17.338z" fill="#004DA9" stroke="#26144D" stroke-width="1.5" stroke-linecap="round" stroke-linejoin="round"/><path d="M850.073 577.784l-38.82-22.481 7.923-4.569 38.821 22.481-7.924 4.569z" fill="#248CFF" stroke="#26144D" stroke-width="1.5" stroke-linecap="round" stroke-linejoin="round"/><path d="M857.998 573.214l-.092 17.339-7.923 4.569.092-17.339 7.923-4.569z" fill="#0069EA" stroke="#26144D" stroke-width="1.5" stroke-linecap="round" stroke-linejoin="round"/><path d="M734.5 371s37.611 44.97 69.5 63c34.602 19.564 98.001 27.5 98.001 27.5" stroke="#666" stroke-width="2" stroke-linecap="round" stroke-linejoin="round"/><path d="M721.5 377s37.823 41.202 67.5 60.5c30.952 20.128 86.491 38.179 86.491 38.179M716 380s33.305 33.87 56.5 53.5c27.605 23.362 74.501 55 74.501 55" stroke="#666" stroke-width="2" stroke-linecap="round" stroke-linejoin="round"/><path d="M904.659 493.379c-3.219 1.34-8.171.82-11.064-1.159-1.694-1.184-2.293-2.616-1.811-3.866l1.903-18.146 15.455 1.614-1.903 18.146c.209 1.328-.664 2.604-2.58 3.411z" fill="#fff" stroke="#26144D" stroke-width="1.5" stroke-linecap="round" stroke-linejoin="round"/><path d="M907.659 485.502c.208 1.328-.665 2.604-2.568 3.411-3.205 1.341-8.131.82-10.998-1.146-1.694-1.184-2.281-2.616-1.798-3.866" fill="#fff"/><path d="M907.659 485.502c.208 1.328-.665 2.604-2.568 3.411-3.205 1.341-8.131.82-10.998-1.146-1.694-1.184-2.281-2.616-1.798-3.866" stroke="#26144D" stroke-width="1.5" stroke-linecap="round" stroke-linejoin="round"/><path d="M908.153 480.818c.209 1.328-.664 2.603-2.567 3.41-3.206 1.341-8.132.821-10.998-1.145-1.695-1.185-2.281-2.617-1.799-3.866" fill="#fff"/><path d="M908.153 480.818c.209 1.328-.664 2.603-2.567 3.41-3.206 1.341-8.132.821-10.998-1.145-1.695-1.185-2.281-2.617-1.799-3.866" stroke="#26144D" stroke-width="1.5" stroke-linecap="round" stroke-linejoin="round"/><path d="M908.66 476.377c.208 1.328-.665 2.604-2.568 3.411-3.205 1.341-8.131.82-10.998-1.146-1.694-1.184-2.281-2.616-1.798-3.866" fill="#fff"/><path d="M908.66 476.377c.208 1.328-.665 2.604-2.568 3.411-3.205 1.341-8.131.82-10.998-1.146-1.694-1.184-2.281-2.616-1.798-3.866" stroke="#26144D" stroke-width="1.5" stroke-linecap="round" stroke-linejoin="round"/><path d="M909.581 470.669c.248-2.36-3.103-4.644-7.484-5.102-4.38-.459-8.132 1.082-8.379 3.442-.248 2.359 3.103 4.644 7.483 5.102 4.381.459 8.133-1.083 8.38-3.442z" fill="#fff" stroke="#26144D" stroke-width="1.5" stroke-linecap="round" stroke-linejoin="round"/><path d="M910.167 465.123c.248-2.36-3.103-4.644-7.484-5.102-4.38-.459-8.132 1.083-8.38 3.442-.247 2.36 3.104 4.644 7.484 5.102 4.381.459 8.133-1.082 8.38-3.442z" fill="#fff" stroke="#26144D" stroke-width="1.5" stroke-linecap="round" stroke-linejoin="round"/><path d="M904.621 463.973c-1.185.482-3.01.3-4.078-.429-.626-.43-.847-.951-.678-1.406l.691-6.6 5.707.599-.69 6.6c.078.481-.248.95-.952 1.236z" fill="#fff" stroke="#26144D" stroke-width="1.5" stroke-linecap="round" stroke-linejoin="round"/><path d="M906.298 456.164c.09-.858-1.131-1.689-2.727-1.856-1.596-.167-2.963.393-3.053 1.251-.09.858 1.131 1.689 2.727 1.856 1.596.167 2.963-.393 3.053-1.251z" fill="#fff" stroke="#26144D" stroke-width="1.5" stroke-linecap="round" stroke-linejoin="round"/><path d="M911.55 455.933c.247-2.36-3.103-4.644-7.484-5.103-4.38-.458-8.132 1.083-8.38 3.443-.247 2.359 3.103 4.644 7.484 5.102 4.381.458 8.132-1.083 8.38-3.442z" fill="#E40133" stroke="#26144D" stroke-width="1.5" stroke-linecap="round" stroke-linejoin="round"/><path d="M882.213 506.682c-3.063 1.667-8.041 1.667-11.116 0-1.812-1.002-2.554-2.356-2.203-3.657v-18.251h15.534v18.251c.339 1.301-.391 2.655-2.202 3.657h-.013z" fill="#fff" stroke="#26144D" stroke-width="1.5" stroke-linecap="round" stroke-linejoin="round"/><path d="M884.371 498.532c.339 1.302-.391 2.656-2.189 3.658-3.05 1.666-8.002 1.666-11.064 0-1.798-1.002-2.541-2.356-2.189-3.658" fill="#fff"/><path d="M884.371 498.532c.339 1.302-.391 2.656-2.189 3.658-3.05 1.666-8.002 1.666-11.064 0-1.798-1.002-2.541-2.356-2.189-3.658" stroke="#26144D" stroke-width="1.5" stroke-linecap="round" stroke-linejoin="round"/><path d="M884.371 493.834c.339 1.302-.391 2.656-2.189 3.658-3.05 1.666-8.002 1.666-11.064 0-1.798-1.002-2.541-2.356-2.189-3.658" fill="#fff"/><path d="M884.371 493.834c.339 1.302-.391 2.656-2.189 3.658-3.05 1.666-8.002 1.666-11.064 0-1.798-1.002-2.541-2.356-2.189-3.658" stroke="#26144D" stroke-width="1.5" stroke-linecap="round" stroke-linejoin="round"/><path d="M884.41 489.356c.338 1.302-.391 2.656-2.19 3.658-3.049 1.667-8.001 1.667-11.063 0-1.799-1.002-2.542-2.356-2.19-3.658" fill="#fff"/><path d="M884.41 489.356c.338 1.302-.391 2.656-2.19 3.658-3.049 1.667-8.001 1.667-11.063 0-1.799-1.002-2.542-2.356-2.19-3.658" stroke="#26144D" stroke-width="1.5" stroke-linecap="round" stroke-linejoin="round"/><path d="M876.762 487.885c4.404 0 7.975-1.923 7.975-4.295 0-2.373-3.571-4.296-7.975-4.296-4.405 0-7.975 1.923-7.975 4.296 0 2.372 3.57 4.295 7.975 4.295z" fill="#fff" stroke="#26144D" stroke-width="1.5" stroke-linecap="round" stroke-linejoin="round"/><path d="M876.762 482.314c4.404 0 7.975-1.923 7.975-4.296 0-2.372-3.571-4.295-7.975-4.295-4.405 0-7.975 1.923-7.975 4.295 0 2.373 3.57 4.296 7.975 4.296z" fill="#fff" stroke="#26144D" stroke-width="1.5" stroke-linecap="round" stroke-linejoin="round"/><path d="M879.095 477.445c-1.133.612-2.971.612-4.105 0-.664-.364-.938-.859-.821-1.328v-6.638h5.734v6.638c.131.469-.143.964-.821 1.328h.013z" fill="#fff" stroke="#26144D" stroke-width="1.5" stroke-linecap="round" stroke-linejoin="round"/><path d="M877.049 471.08c1.605 0 2.906-.699 2.906-1.562 0-.863-1.301-1.562-2.906-1.562-1.605 0-2.906.699-2.906 1.562 0 .863 1.301 1.562 2.906 1.562z" fill="#fff" stroke="#26144D" stroke-width="1.5" stroke-linecap="round" stroke-linejoin="round"/><path d="M877.181 473.02c4.405 0 7.975-1.923 7.975-4.296 0-2.372-3.57-4.295-7.975-4.295-4.404 0-7.975 1.923-7.975 4.295 0 2.373 3.571 4.296 7.975 4.296z" fill="#E40133" stroke="#26144D" stroke-width="1.5" stroke-linecap="round" stroke-linejoin="round"/><path d="M858.725 520.715c-2.789 2.096-7.715 2.825-10.999 1.627-1.941-.729-2.867-1.965-2.723-3.293l-2.685-18.055 15.364-2.278 2.685 18.055c.534 1.236 0 2.681-1.642 3.944z" fill="#fff" stroke="#26144D" stroke-width="1.5" stroke-linecap="round" stroke-linejoin="round"/><path d="M859.674 512.334c.521 1.237 0 2.682-1.629 3.944-2.763 2.096-7.662 2.825-10.933 1.627-1.929-.729-2.854-1.965-2.711-3.293" fill="#fff"/><path d="M859.674 512.334c.521 1.237 0 2.682-1.629 3.944-2.763 2.096-7.662 2.825-10.933 1.627-1.929-.729-2.854-1.965-2.711-3.293" stroke="#26144D" stroke-width="1.5" stroke-linecap="round" stroke-linejoin="round"/><path d="M858.985 507.686c.522 1.236 0 2.681-1.628 3.944-2.763 2.096-7.663 2.825-10.934 1.627-1.928-.729-2.854-1.966-2.71-3.293" fill="#fff"/><path d="M858.985 507.686c.522 1.236 0 2.681-1.628 3.944-2.763 2.096-7.663 2.825-10.934 1.627-1.928-.729-2.854-1.966-2.71-3.293" stroke="#26144D" stroke-width="1.5" stroke-linecap="round" stroke-linejoin="round"/><path d="M858.372 503.246c.521 1.237 0 2.682-1.629 3.944-2.762 2.096-7.662 2.825-10.933 1.627-1.929-.728-2.854-1.965-2.711-3.293" fill="#fff"/><path d="M858.372 503.246c.521 1.237 0 2.682-1.629 3.944-2.762 2.096-7.662 2.825-10.933 1.627-1.929-.728-2.854-1.965-2.711-3.293" stroke="#26144D" stroke-width="1.5" stroke-linecap="round" stroke-linejoin="round"/><path d="M850.587 502.895c4.357-.645 7.606-3.071 7.258-5.418-.349-2.347-4.163-3.726-8.52-3.08-4.357.646-7.606 3.072-7.258 5.419.349 2.346 4.163 3.725 8.52 3.079z" fill="#fff" stroke="#26144D" stroke-width="1.5" stroke-linecap="round" stroke-linejoin="round"/><path d="M849.762 497.387c4.356-.646 7.606-3.072 7.257-5.419-.348-2.347-4.163-3.725-8.52-3.08-4.357.646-7.606 3.072-7.257 5.419.348 2.347 4.163 3.725 8.52 3.08z" fill="#fff" stroke="#26144D" stroke-width="1.5" stroke-linecap="round" stroke-linejoin="round"/><path d="M851.366 492.234c-1.03.768-2.841 1.028-4.066.599-.717-.26-1.055-.716-1.003-1.198l-.978-6.56 5.669-.846.977 6.56c.196.456 0 .977-.612 1.432l.013.013z" fill="#fff" stroke="#26144D" stroke-width="1.5" stroke-linecap="round" stroke-linejoin="round"/><path d="M848.407 486.233c1.587-.236 2.772-1.118 2.645-1.972-.127-.853-1.517-1.354-3.104-1.119-1.588.236-2.772 1.118-2.645 1.972.127.853 1.516 1.354 3.104 1.119z" fill="#fff" stroke="#26144D" stroke-width="1.5" stroke-linecap="round" stroke-linejoin="round"/><path d="M848.817 488.139c4.357-.646 7.606-3.072 7.258-5.419-.349-2.347-4.163-3.725-8.52-3.08-4.357.646-7.606 3.072-7.258 5.419.349 2.346 4.163 3.725 8.52 3.08z" fill="#E40133" stroke="#26144D" stroke-width="1.5" stroke-linecap="round" stroke-linejoin="round"/><path d="M818.772 511.408l46.978 27.128m51.409-62.848l33.855 19.722m-81.461 91.952v-42.865l66.251-38.245m-117.438-5.7l8.692-4.881" stroke="#fff" stroke-width="1.5" stroke-linecap="round" stroke-linejoin="round"/><path d="M1004.59 566s-57.751-18.012-91.874-36C886.588 516.227 849 489.125 849 489.125m167.44 43.374s-48.658-6.801-77.546-18.499c-27.034-10.947-64.704-37.5-64.704-37.5" stroke="#D9D9D9" stroke-width="2" stroke-linecap="round" stroke-linejoin="round"/><path d="M1082.63 503.5s-82.639 11.958-133.362 0c-29.309-6.91-72.113-27.499-72.113-27.499" stroke="#D9D9D9" stroke-width="2" stroke-linecap="round" stroke-linejoin="round"/><path d="M1093 529s-73.25-6.665-116.073-24.5c-30.445-12.68-73.101-42.5-73.101-42.5" stroke="#D9D9D9" stroke-width="2" stroke-linecap="round" stroke-linejoin="round"/><path d="M1215.01 833.16l126.29-72.889-126.27-72.909-126.29 72.909 126.27 72.889z" fill="#8ED760" stroke="#26144D" stroke-width="1.5" stroke-linecap="round" stroke-linejoin="round"/><path d="M1215.23 857.812l126.29-72.889v-24.85l-126.29 72.889v24.85z" fill="#956054" stroke="#26144D" stroke-width="1.5" stroke-linecap="round" stroke-linejoin="round"/><path d="M1088.84 785.101l126.27 72.909v-24.85l-126.27-72.909v24.85z" fill="#A9776B" stroke="#26144D" stroke-width="1.5" stroke-linecap="round" stroke-linejoin="round"/><path d="M1279.27 756.598v8.243m-139.26-8.799v8.244m41.76-44.5v8.244m89.28 32.678v8.244m-26.1-43.947v8.244m7.13-11.269v8.244m-104.38 21.155v8.244m7.14-2.748v8.244m58.78 26.904v8.244m7.42-14.018v8.244m7.42-2.192v8.244m-38.99-75.816v8.244m-15.94-7.413v8.243m113.71 27.458v8.244m-28.3-44.223v8.244" stroke="#5FAE2C" stroke-width="1.5" stroke-linecap="round" stroke-linejoin="round"/><path d="M1048.29 732.912l126.29-72.889-126.29-72.889L922 660.023l126.29 72.889z" fill="#8ED760" stroke="#26144D" stroke-width="1.5" stroke-linecap="round" stroke-linejoin="round"/><path d="M1048.48 757.585l126.29-72.909v-24.85l-126.29 72.909v24.85z" fill="#956054" stroke="#26144D" stroke-width="1.5" stroke-linecap="round" stroke-linejoin="round"/><path d="M922.1 684.872l126.29 72.89v-24.85l-126.29-72.89v24.85z" fill="#A9776B" stroke="#26144D" stroke-width="1.5" stroke-linecap="round" stroke-linejoin="round"/><path d="M1113.91 655.536v8.224m-139.255-8.78v8.224m41.735-44.479v8.243m89.28 32.678v8.244m-26.08-43.947v8.244m7.14-11.268v8.244m-104.385 21.154v8.224m7.138-2.748v8.244m58.777 26.925v8.224m7.42-13.998v8.243m7.42-2.192v8.224m-39.01-75.795v8.244m-15.92-7.414v8.224m113.71 27.477v8.224m-28.3-44.202v8.243" stroke="#5FAE2C" stroke-width="1.5" stroke-linecap="round" stroke-linejoin="round"/><path d="M1004.31 575.884c2.14 1.167 5.64 1.167 7.79 0 1.27-.712 1.78-1.66 1.55-2.57v-12.791h-10.88v12.791c-.24.91.28 1.858 1.54 2.57z" fill="#fff" stroke="#26144D" stroke-width="1.5" stroke-linecap="round" stroke-linejoin="round"/><path d="M1008.13 563.607c-3.09 0-5.6-1.346-5.6-3.005 0-1.66 2.51-3.005 5.6-3.005s5.59 1.345 5.59 3.005c0 1.659-2.5 3.005-5.59 3.005zm16.21 23.327c2.14 1.166 5.64 1.166 7.79 0 1.27-.712 1.78-1.661 1.54-2.57v-12.791h-10.87v12.791c-.24.909.28 1.858 1.54 2.57z" fill="#fff" stroke="#26144D" stroke-width="1.5" stroke-linecap="round" stroke-linejoin="round"/><path d="M1028.14 574.656c-3.09 0-5.6-1.345-5.6-3.005 0-1.659 2.51-3.005 5.6-3.005s5.59 1.346 5.59 3.005c0 1.66-2.5 3.005-5.59 3.005zm69.06-29.336c2.14 1.166 5.64 1.166 7.79 0 1.27-.712 1.78-1.661 1.55-2.57v-12.791h-10.88v12.791c-.24.909.28 1.858 1.54 2.57z" fill="#fff" stroke="#26144D" stroke-width="1.5" stroke-linecap="round" stroke-linejoin="round"/><path d="M1101.02 533.042c-3.09 0-5.6-1.345-5.6-3.005 0-1.659 2.51-3.005 5.6-3.005s5.59 1.346 5.59 3.005c0 1.66-2.5 3.005-5.59 3.005zm-83.03 9.015c2.14 1.166 5.64 1.166 7.79 0 1.27-.712 1.78-1.661 1.55-2.57v-12.791h-10.88v12.791c-.24.909.28 1.858 1.54 2.57z" fill="#fff" stroke="#26144D" stroke-width="1.5" stroke-linecap="round" stroke-linejoin="round"/><path d="M1021.79 529.779c-3.09 0-5.6-1.345-5.6-3.005 0-1.659 2.51-3.004 5.6-3.004s5.59 1.345 5.59 3.004c0 1.66-2.5 3.005-5.59 3.005zm62.46-13.538c2.14 1.166 5.64 1.166 7.79 0 1.27-.712 1.78-1.661 1.55-2.57V500.88h-10.88v12.791c-.24.909.28 1.858 1.54 2.57z" fill="#fff" stroke="#26144D" stroke-width="1.5" stroke-linecap="round" stroke-linejoin="round"/><path d="M1088.07 503.963c-3.09 0-5.6-1.345-5.6-3.005s2.51-3.005 5.6-3.005 5.6 1.345 5.6 3.005-2.51 3.005-5.6 3.005z" fill="#fff" stroke="#26144D" stroke-width="1.5" stroke-linecap="round" stroke-linejoin="round"/><path d="M1055.78 675.854l-1.41-80.777 14.3-6.781 20.37 70.457" stroke="#26144D" stroke-width="1.5" stroke-linecap="round" stroke-linejoin="round"/><path d="M1021.89 657.173l19.85-69.864v-86.036L1054.38 463l13.16 37.403v87.894l-13.34-6.622-12.46 5.634 12.64 7.769V464.759m34.3 193.997l-32.9-9.648-33.83 8.244" stroke="#26144D" stroke-width="1.5" stroke-linecap="round" stroke-linejoin="round"/><path d="M1033.66 617.318l21.61 11.941 21.06-10.537-20.55 30.385-22.12-31.789z" stroke="#26144D" stroke-width="1.5" stroke-linecap="round" stroke-linejoin="round"/><path d="M1038.93 601.523l16.34 9.134 17.02-7.374-17.02 25.977-16.34-27.737zm57.42-73.028l-68.49 39.143 26.52-27.38 12.47-7.374 29.5-4.389zm-13.69-7.828l-68.5 39.143 26.52-27.38 12.47-7.374 29.51-4.389zm2.44-17.279l-48.1 26.511 17.02-21.608 13.53-7.888 17.55 2.985zm-13.5-5.969l-48.13 26.51 17.05-21.607 13.5-7.888 17.58 2.985zm9.82 139.393l-25.64 39.044-26.16-41.851 26.16 15.104 25.47-13.523" stroke="#26144D" stroke-width="1.5" stroke-linecap="round" stroke-linejoin="round"/><path d="M1068.08 589.404l-13.52 20.027-12.12-19.849m11.58-81.29l-12.28-7.019m-13.88 66.365l-13.52-7.73m82.01-31.411l-13.7-7.374m-45.65 8.775l-13.53-5.97m61.63-20.54l-13.5-5.97m-4.75 35.467l-11.07-7.196m-1.4 14.57l-12.28-7.552m24.58 34.24l-11.59 5.081-12.66-7.908" stroke="#26144D" stroke-width="1.5" stroke-linecap="round" stroke-linejoin="round"/><path d="M1021 657.603l79.39 46.754 34.05-20.323L1056.43 639 1021 657.603zm163 103l79.39 46.754 34.05-20.323L1219.43 742 1184 760.603z" fill="#B2B4B3" opacity=".46"/><path d="M1266.07 637.862s-38.74-8.244-86.95-37.068c-48.46-28.981-74.58-55.61-74.58-55.61m147.53 65.474s-38.74-8.244-86.95-37.068c-48.46-28.981-74.58-55.611-74.58-55.611m94.77 117.391s-38.73-8.244-86.94-37.068c-48.46-28.981-74.58-55.611-74.58-55.611m149.17 130.597s-18.97-2.887-67.17-31.73c-48.47-28.982-74.59-55.611-74.59-55.611" stroke="#D9D9D9" stroke-width="2" stroke-linecap="round" stroke-linejoin="round"/><path d="M1167.28 679.14c2.14 1.166 5.64 1.166 7.79 0 1.27-.712 1.78-1.661 1.54-2.57v-12.791h-10.87v12.791c-.24.909.28 1.858 1.54 2.57z" fill="#fff" stroke="#26144D" stroke-width="1.5" stroke-linecap="round" stroke-linejoin="round"/><path d="M1171.1 666.862c-3.09 0-5.6-1.345-5.6-3.005 0-1.659 2.51-3.004 5.6-3.004s5.59 1.345 5.59 3.004c0 1.66-2.5 3.005-5.59 3.005zm16.21 23.347c2.14 1.167 5.64 1.167 7.79 0 1.27-.711 1.78-1.66 1.54-2.57v-12.79h-10.87v12.79c-.24.91.27 1.859 1.54 2.57z" fill="#fff" stroke="#26144D" stroke-width="1.5" stroke-linecap="round" stroke-linejoin="round"/><path d="M1191.11 677.932c-3.09 0-5.6-1.346-5.6-3.005 0-1.66 2.51-3.005 5.6-3.005s5.59 1.345 5.59 3.005c0 1.659-2.5 3.005-5.59 3.005zm69.06-29.337c2.14 1.166 5.64 1.166 7.79 0 1.27-.712 1.78-1.661 1.55-2.57v-12.791h-10.88v12.791c-.24.909.28 1.858 1.54 2.57z" fill="#fff" stroke="#26144D" stroke-width="1.5" stroke-linecap="round" stroke-linejoin="round"/><path d="M1263.99 636.317c-3.09 0-5.59-1.345-5.59-3.004 0-1.66 2.5-3.005 5.59-3.005s5.6 1.345 5.6 3.005c0 1.659-2.51 3.004-5.6 3.004zm-83.03 8.997c2.14 1.166 5.64 1.166 7.8 0 1.26-.712 1.77-1.661 1.54-2.57v-12.791h-10.88v12.791c-.24.909.28 1.858 1.54 2.57z" fill="#fff" stroke="#26144D" stroke-width="1.5" stroke-linecap="round" stroke-linejoin="round"/><path d="M1184.76 633.036c-3.09 0-5.6-1.345-5.6-3.005 0-1.659 2.51-3.005 5.6-3.005s5.6 1.346 5.6 3.005c0 1.66-2.51 3.005-5.6 3.005zm62.46-13.541c2.14 1.167 5.64 1.167 7.79 0 1.27-.711 1.78-1.66 1.55-2.57v-12.79h-10.88v12.79c-.24.91.28 1.859 1.54 2.57z" fill="#fff" stroke="#26144D" stroke-width="1.5" stroke-linecap="round" stroke-linejoin="round"/><path d="M1251.04 607.218c-3.09 0-5.6-1.345-5.6-3.005s2.51-3.005 5.6-3.005 5.6 1.345 5.6 3.005-2.51 3.005-5.6 3.005z" fill="#fff" stroke="#26144D" stroke-width="1.5" stroke-linecap="round" stroke-linejoin="round"/><path d="M1218.75 779.11l-1.4-80.757 14.27-6.781 20.39 70.458" stroke="#26144D" stroke-width="1.5" stroke-linecap="round" stroke-linejoin="round"/><path d="M1184.86 760.45l19.85-69.885V604.55l12.63-38.274 13.17 37.384v87.914l-13.34-6.623-12.46 5.614 12.63 7.79V568.016m34.31 194.015l-32.9-9.667-33.83 8.264" stroke="#26144D" stroke-width="1.5" stroke-linecap="round" stroke-linejoin="round"/><path d="M1196.63 720.595l21.61 11.94 21.06-10.537-20.55 30.366-22.12-31.769z" stroke="#26144D" stroke-width="1.5" stroke-linecap="round" stroke-linejoin="round"/><path d="M1201.9 704.8l16.34 9.113 17.02-7.373-17.02 25.996-16.34-27.736zm57.42-73.048l-68.49 39.163 26.52-27.4 12.47-7.374 29.5-4.389zm-13.7-7.828l-68.49 39.143 26.51-27.38 12.48-7.374 29.5-4.389zm2.46-17.28l-48.11 26.511 17.02-21.588 13.53-7.908 17.56 2.985zm-13.53-5.969l-48.11 26.51 17.04-21.588 13.51-7.908 17.56 2.986zm9.84 139.413l-25.64 39.025-26.16-41.832 26.16 15.084 25.47-13.522" stroke="#26144D" stroke-width="1.5" stroke-linecap="round" stroke-linejoin="round"/><path d="M1231.05 692.681l-13.53 20.006-12.12-19.828m11.59-81.291l-12.27-7.018m-13.89 66.364l-13.52-7.729m82.01-31.432l-13.7-7.374m-45.65 8.776l-13.53-5.97m61.64-20.541l-13.53-5.97m-4.73 35.467l-11.07-7.196m-1.4 14.57l-12.28-7.552m24.57 34.241l-11.58 5.1-12.66-7.908" stroke="#26144D" stroke-width="1.5" stroke-linecap="round" stroke-linejoin="round"/><path d="M1452.5 732.5s-70.43-14.832-110.17-36.685C1310.18 678.132 1267.5 639 1267.5 639" stroke="#D9D9D9" stroke-width="2" stroke-linecap="round" stroke-linejoin="round"/><path d="M1456 712s-60.44-9.632-96-25c-46.42-20.058-106.25-74-106.25-74m194.75 144.5s-98.45-15.433-154.5-43.5c-45.89-22.979-108-81-108-81m260.5 151s-115.21-11.818-177.5-47.421c-32.43-18.536-76-58.079-76-58.079" stroke="#D9D9D9" stroke-width="2" stroke-linecap="round" stroke-linejoin="round"/></g><defs><clipPath id="clip0_1107_34"><path fill="#fff" transform="translate(429 205)" d="M0 0h223v227H0z"/></clipPath></defs></svg>