<svg width="1447" height="859" viewBox="0 0 1447 859" fill="none" xmlns="http://www.w3.org/2000/svg">
<mask id="mask0_1107_34" style="mask-type:alpha" maskUnits="userSpaceOnUse" x="0" y="0" width="1447" height="859">
<rect width="1447" height="859" fill="#D9D9D9"/>
</mask>
<g mask="url(#mask0_1107_34)">
<rect x="-120.5" y="96.5" width="230" height="15" rx="7.5" fill="#FFE448" stroke="black"/>
<rect x="-106.5" y="63.5" width="230" height="15" rx="7.5" fill="#007117" stroke="black"/>
<rect x="99.814" y="93.6886" width="120.309" height="16.9888" rx="8.49438" transform="rotate(29.9054 99.814 93.6886)" fill="#FFE448" stroke="black"/>
<rect x="113.153" y="60.6827" width="120.309" height="16.9888" rx="8.49438" transform="rotate(29.9054 113.153 60.6827)" fill="#007117" stroke="black"/>
<path d="M479.566 281.644L471.096 287.175L273.884 142.199L266.82 5.23511L273.884 1L479.329 119.609L479.566 281.644Z" fill="#85898C" stroke="#26144D" stroke-width="1.5" stroke-linecap="round" stroke-linejoin="round"/>
<path d="M472.265 265.05L266.829 146.433V5.23438L472.265 123.843V265.05Z" fill="#9DA0A3" stroke="#26144D" stroke-width="1.5" stroke-linecap="round" stroke-linejoin="round"/>
<path d="M461.906 243.419L441.45 231.611C440.01 230.781 438.841 228.545 438.841 226.622V222.997C438.841 221.074 440.01 220.193 441.45 221.023L461.906 232.831C463.346 233.661 464.515 235.897 464.515 237.82V241.445C464.515 243.368 463.346 244.249 461.906 243.419Z" fill="#BCBCBC"/>
<path d="M452.021 225.062L431.565 213.255C430.125 212.425 428.957 210.188 428.957 208.266V204.64C428.957 202.718 430.125 201.837 431.565 202.667L452.021 214.474C453.461 215.304 454.63 217.541 454.63 219.463V223.089C454.63 225.011 453.461 225.892 452.021 225.062Z" fill="#BCBCBC"/>
<path d="M425.552 189.767L405.097 177.96C403.657 177.13 402.488 174.893 402.488 172.971V169.345C402.488 167.423 403.657 166.542 405.097 167.372L425.552 179.179C426.992 180.009 428.161 182.246 428.161 184.168V187.794C428.161 189.716 426.992 190.597 425.552 189.767Z" fill="#BCBCBC"/>
<path d="M436.14 183.059L415.684 171.252C414.244 170.422 413.075 168.185 413.075 166.263V162.637C413.075 160.715 414.244 159.834 415.684 160.664L436.14 172.471C437.58 173.301 438.748 175.538 438.748 177.46V181.086C438.748 183.008 437.58 183.889 436.14 183.059Z" fill="#BCBCBC"/>
<path d="M301.997 79.274L281.541 67.4665C280.102 66.6364 278.933 64.4003 278.933 62.4776V58.8523C278.933 56.9296 280.102 56.0487 281.541 56.8787L301.997 68.6862C303.437 69.5163 304.606 71.7525 304.606 73.6752V77.3005C304.606 79.2232 303.437 80.1041 301.997 79.274Z" fill="#BCBCBC"/>
<path d="M313.998 73.2682L293.543 61.4607C292.103 60.6306 290.934 58.3944 290.934 56.4717V52.8464C290.934 50.9237 292.103 50.0428 293.543 50.8729L313.998 62.6804C315.438 63.5105 316.607 65.7466 316.607 67.6693V71.2946C316.607 73.2173 315.438 74.0982 313.998 73.2682Z" fill="#BCBCBC"/>
<path d="M351.064 126.926L330.609 115.119C329.169 114.289 328 112.053 328 110.13V106.505C328 104.582 329.169 103.701 330.609 104.531L351.064 116.339C352.504 117.169 353.673 119.405 353.673 121.328V124.953C353.673 126.876 352.504 127.756 351.064 126.926Z" fill="#BCBCBC"/>
<path d="M363.422 120.574L342.967 108.766C341.527 107.936 340.358 105.7 340.358 103.777V100.152C340.358 98.2294 341.527 97.3485 342.967 98.1785L363.422 109.986C364.862 110.816 366.031 113.052 366.031 114.975V118.6C366.031 120.523 364.862 121.404 363.422 120.574Z" fill="#BCBCBC"/>
<path d="M409.662 124.809L389.206 113.002C387.767 112.172 386.598 109.935 386.598 108.013V104.387C386.598 102.465 387.767 101.584 389.206 102.414L409.662 114.221C411.102 115.051 412.271 117.288 412.271 119.21V122.836C412.271 124.758 411.102 125.639 409.662 124.809Z" fill="#BCBCBC"/>
<path d="M397.312 104.684L376.857 92.8767C375.417 92.0466 374.248 89.8105 374.248 87.8877V84.2625C374.248 82.3397 375.417 81.4588 376.857 82.2889L397.312 94.0964C398.752 94.9265 399.921 97.1626 399.921 99.0854V102.711C399.921 104.633 398.752 105.514 397.312 104.684Z" fill="#BCBCBC"/>
<path d="M425.196 120.574L404.74 108.766C403.3 107.936 402.131 105.7 402.131 103.777V100.152C402.131 98.2294 403.3 97.3485 404.74 98.1785L425.196 109.986C426.636 110.816 427.805 113.052 427.805 114.975V118.6C427.805 120.523 426.636 121.404 425.196 120.574Z" fill="#BCBCBC"/>
<path d="M294.933 36.5582L274.477 24.7507C273.037 23.9206 271.868 21.6845 271.868 19.7617V16.1365C271.868 14.2137 273.037 13.3328 274.477 14.1629L294.933 25.9704C296.373 26.8005 297.541 29.0366 297.541 30.9594V34.5846C297.541 36.5074 296.373 37.3883 294.933 36.5582Z" fill="#BCBCBC"/>
<path d="M472.266 123.844L479.33 119.608" stroke="#26144D" stroke-width="1.5" stroke-linecap="round" stroke-linejoin="round"/>
<path d="M351.9 335.1L114.201 198.296L235.729 128.177L473.428 264.981L351.9 335.1Z" fill="#4DA4FF" stroke="#26144D" stroke-width="1.5" stroke-linecap="round" stroke-linejoin="round"/>
<path d="M351.702 358.824L114.003 222.01V198.11L351.702 334.915V358.824Z" fill="#999999" stroke="#26144D" stroke-width="1.5" stroke-linecap="round" stroke-linejoin="round"/>
<path d="M473.344 288.881L351.816 359V335.101L473.344 264.981V288.881Z" fill="#D9D9D9" stroke="#26144D" stroke-width="1.5" stroke-linecap="round" stroke-linejoin="round"/>
<g style="mix-blend-mode:multiply" opacity="0.46">
<path d="M326.858 302.536L366.442 326.611L460.504 273.304L412.322 241.782L326.858 302.536Z" fill="#B2B4B3"/>
</g>
<path d="M335.28 307.599L161.958 207.247V95.7344L335.28 196.076V307.599Z" fill="#004DA9" stroke="#26144D" stroke-width="1.5" stroke-linecap="round" stroke-linejoin="round"/>
<path d="M335.302 195.82L161.98 95.4682L248.961 45.2871L422.273 145.639L335.302 195.82Z" fill="#0069EA" stroke="#26144D" stroke-width="1.5" stroke-linecap="round" stroke-linejoin="round"/>
<path d="M422.353 257.409L335.372 307.59V196.077L422.353 145.886V257.409Z" fill="#0069EA" stroke="#26144D" stroke-width="1.5" stroke-linecap="round" stroke-linejoin="round"/>
<path d="M303.292 219.822V276.141L250.765 245.836V189.518L254.852 191.88L303.292 219.822Z" stroke="#26144D" stroke-width="1.5" stroke-linecap="round" stroke-linejoin="round"/>
<path d="M303.294 219.821V271.622L254.854 243.679V191.879L303.294 219.821Z" fill="#003C93" stroke="#26144D" stroke-width="1.5" stroke-linecap="round" stroke-linejoin="round"/>
<path d="M409.844 210.148L404.477 223.01L380.056 281.495L372.892 298.669L361.704 292.078L361.879 241.422C362.013 227.91 371.654 211.561 383.431 204.908C386.806 203.01 389.985 202.103 392.803 202.103C395.621 202.103 397.861 202.928 399.749 204.485L409.844 210.148Z" fill="#004DA9" stroke="#26144D" stroke-width="1.5" stroke-linecap="round" stroke-linejoin="round"/>
<path d="M404.474 223.009L404.061 267.661L380.053 281.493L404.474 223.009Z" stroke="#26144D" stroke-width="1.5" stroke-linecap="round" stroke-linejoin="round"/>
<path d="M415.243 274.241L372.883 298.666L373.058 248.011C373.182 234.498 382.833 218.15 394.61 211.497C406.387 204.844 415.831 210.414 415.708 223.926L415.243 274.241Z" fill="#0069EA" stroke="#26144D" stroke-width="1.5" stroke-linecap="round" stroke-linejoin="round"/>
<path d="M414.903 226.166L411.053 233.16L398.873 255.336L394.58 263.134L386.828 258.75C383.432 257.554 381.265 253.964 381.265 248.539C381.265 239.018 387.953 227.445 396.2 222.69C400.793 220.039 404.901 220.06 407.637 222.236H407.647L414.903 226.166Z" fill="#004DA9" stroke="#26144D" stroke-width="1.5" stroke-linecap="round" stroke-linejoin="round"/>
<path d="M415.13 250.691C420.962 240.597 420.963 229.688 415.133 226.324C409.302 222.96 399.848 228.416 394.017 238.51C388.185 248.603 388.184 259.513 394.014 262.877C399.845 266.241 409.299 260.785 415.13 250.691Z" fill="#0069EA" stroke="#26144D" stroke-width="1.5" stroke-linecap="round" stroke-linejoin="round"/>
<path d="M383.717 168.342L218.951 69.2585L231.915 52.002L384.986 140.636L383.717 168.342Z" stroke="#26144D" stroke-width="1.5" stroke-linecap="round" stroke-linejoin="round"/>
<path d="M383.722 168.342L384.991 140.636L410.961 125.659L422.356 145.886L383.722 168.342Z" fill="#037BF4" stroke="#26144D" stroke-width="1.5" stroke-linecap="round" stroke-linejoin="round"/>
<path d="M384.991 140.635L231.919 52.001L257.889 37.0137L410.96 125.658L384.991 140.635Z" fill="#037BF4" stroke="#26144D" stroke-width="1.5" stroke-linecap="round" stroke-linejoin="round"/>
<path d="M182.869 107.514L234.653 76.9925C234.653 76.9925 182.601 69.9681 182.167 70.1125C181.734 70.257 176.573 88.1633 176.573 88.1633L182.859 107.514H182.869Z" fill="#004DA9" stroke="#26144D" stroke-width="1.5" stroke-linecap="round" stroke-linejoin="round"/>
<path d="M314.462 183.608L321.697 162.968L336.612 171.57L335.374 196.078L314.462 183.608Z" fill="#004DA9" stroke="#26144D" stroke-width="1.5" stroke-linecap="round" stroke-linejoin="round"/>
<path d="M162.174 95.4766L170.989 75.9199L183.468 83.1505L182.828 107.947L162.174 95.4766Z" fill="#004DA9" stroke="#26144D" stroke-width="1.5" stroke-linecap="round" stroke-linejoin="round"/>
<path d="M366.402 150.506V154.167L336.572 171.651L325.28 145.771L175.151 59.5092L207.004 40.7158C211.06 38.199 216.747 38.4568 223.033 42.0876L344.128 111.949C356.411 119.035 366.402 136.333 366.402 150.506Z" fill="#037BF4" stroke="#26144D" stroke-width="1.5" stroke-linecap="round" stroke-linejoin="round"/>
<path d="M195.262 213.084L194.488 212.64C193.456 212.042 192.62 210.454 192.62 209.082V181.779C192.62 180.407 193.456 179.778 194.488 180.366L195.262 180.809C196.295 181.408 197.131 182.996 197.131 184.368V211.671C197.131 213.043 196.295 213.672 195.262 213.084Z" fill="#003C93" stroke="#26144D" stroke-width="1.5" stroke-linecap="round" stroke-linejoin="round"/>
<path d="M203.46 217.817L202.686 217.374C201.654 216.776 200.818 215.187 200.818 213.815V186.512C200.818 185.14 201.654 184.511 202.686 185.099L203.46 185.543C204.492 186.141 205.328 187.729 205.328 189.101V216.404C205.328 217.776 204.492 218.405 203.46 217.817Z" fill="#003C93" stroke="#26144D" stroke-width="1.5" stroke-linecap="round" stroke-linejoin="round"/>
<path d="M211.809 222.625L211.035 222.182C210.003 221.583 209.167 219.995 209.167 218.623V191.32C209.167 189.948 210.003 189.319 211.035 189.907L211.809 190.35C212.841 190.949 213.677 192.537 213.677 193.909V221.212C213.677 222.584 212.841 223.213 211.809 222.625Z" fill="#003C93" stroke="#26144D" stroke-width="1.5" stroke-linecap="round" stroke-linejoin="round"/>
<path d="M220.355 227.556L219.581 227.112C218.549 226.514 217.713 224.925 217.713 223.554V196.251C217.713 194.879 218.549 194.249 219.581 194.837L220.355 195.281C221.387 195.879 222.223 197.468 222.223 198.84V226.143C222.223 227.514 221.387 228.144 220.355 227.556Z" fill="#003C93" stroke="#26144D" stroke-width="1.5" stroke-linecap="round" stroke-linejoin="round"/>
<path d="M228.553 232.29L227.778 231.847C226.746 231.248 225.91 229.66 225.91 228.288V200.985C225.91 199.613 226.746 198.984 227.778 199.572L228.553 200.015C229.585 200.614 230.421 202.202 230.421 203.574V230.877C230.421 232.249 229.585 232.878 228.553 232.29Z" fill="#003C93" stroke="#26144D" stroke-width="1.5" stroke-linecap="round" stroke-linejoin="round"/>
<path d="M236.888 237.107L236.114 236.664C235.082 236.066 234.246 234.477 234.246 233.105V205.802C234.246 204.43 235.082 203.801 236.114 204.389L236.888 204.833C237.92 205.431 238.756 207.019 238.756 208.391V235.694C238.756 237.066 237.92 237.695 236.888 237.107Z" fill="#003C93" stroke="#26144D" stroke-width="1.5" stroke-linecap="round" stroke-linejoin="round"/>
<path d="M201.966 57.0762L236.812 77.4271" stroke="white" stroke-width="1.5" stroke-linecap="round" stroke-linejoin="round"/>
<path d="M258.746 41.6025L355.109 98.055" stroke="white" stroke-width="1.5" stroke-linecap="round" stroke-linejoin="round"/>
<path d="M335.372 196.078L336.611 171.57L366.502 153.509L383.719 168.341L335.372 196.078Z" fill="#037BF4" stroke="#26144D" stroke-width="1.5" stroke-linecap="round" stroke-linejoin="round"/>
<path d="M183.323 83.8739L170.926 76.602V72.4142C170.926 58.2418 180.918 52.4759 193.201 59.5621L314.285 129.424C326.567 136.51 336.559 153.808 336.559 167.98V171.642L321.5 162.957V159.295C321.5 154.705 318.259 149.094 314.274 146.794L190.548 75.519C186.564 73.2188 183.323 75.0857 183.323 79.6861V83.8739Z" fill="#004DA9" stroke="#26144D" stroke-width="1.5" stroke-linecap="round" stroke-linejoin="round"/>
<path d="M534.336 309L552.047 318.6C557.012 321.248 557.057 325.22 553.537 330.021C549.895 334.986 546.585 336.476 540.957 333.165L510.553 315.993L402.653 254.701L401.287 253.926C401.287 253.926 401.249 253.902 401.225 253.887C400.458 253.12 400 251.88 400 250.26C400 246.198 402.846 241.261 406.368 239.23C407.841 238.386 409.191 238.176 410.269 238.517L411.362 239.145L523.878 303.065C526.67 304.646 530.53 306.848 534.336 309Z" fill="#D2233C" stroke="#26144D" stroke-width="1.5" stroke-linecap="round" stroke-linejoin="round"/>
<path d="M420.228 264.674C419.461 263.907 419.003 262.667 419.003 261.047C419.003 256.985 421.849 252.048 425.371 250.018C426.844 249.173 428.194 248.963 429.272 249.304" stroke="#26144D" stroke-width="1.5" stroke-linecap="round" stroke-linejoin="round"/>
<path d="M500.075 309.993C499.744 309.496 499.392 308.568 499.392 306.948C499.392 302.887 502.239 297.95 505.76 295.919C507.233 295.074 508.583 294.865 509.661 295.206" stroke="#26144D" stroke-width="1.5" stroke-linecap="round" stroke-linejoin="round"/>
<path d="M429.722 252.663C443.311 260.871 457.271 268.622 471.061 276.884Z" fill="#FA6646"/>
<path d="M429.722 252.663C443.311 260.871 457.271 268.622 471.061 276.884" stroke="white" stroke-width="1.5" stroke-linecap="round" stroke-linejoin="round"/>
<path d="M540.558 304.814L831.573 491.892L841 486.445V320.585L540.558 147.119L533.122 152.033L540.558 304.814Z" fill="#85898C" stroke="#26144D" stroke-width="1.5" stroke-linecap="round" stroke-linejoin="round"/>
<path d="M533 309.635L833.451 483.1V325.415L533 151.949V309.635Z" fill="#9DA0A3" stroke="#26144D" stroke-width="1.4" stroke-linecap="round" stroke-linejoin="round"/>
<path d="M796.734 384.479L819.297 397.503C820.885 398.418 822.174 397.447 822.174 395.326V391.327C822.174 389.206 820.885 386.74 819.297 385.824L796.734 372.801C795.146 371.885 793.856 372.857 793.856 374.977V378.976C793.856 381.097 795.146 383.563 796.734 384.479Z" fill="#BCBCBC"/>
<path d="M783.496 362.673L806.058 375.697C807.647 376.613 808.936 375.641 808.936 373.52V369.521C808.936 367.401 807.647 364.934 806.058 364.019L783.496 350.995C781.907 350.079 780.618 351.051 780.618 353.172V357.17C780.618 359.291 781.907 361.758 783.496 362.673Z" fill="#BCBCBC"/>
<path d="M767.529 304.656L790.091 317.679C791.68 318.595 792.969 317.623 792.969 315.503V311.504C792.969 309.383 791.68 306.917 790.091 306.001L767.529 292.977C765.941 292.062 764.651 293.033 764.651 295.154V299.153C764.651 301.274 765.941 303.74 767.529 304.656Z" fill="#BCBCBC"/>
<path d="M690.826 284.017L713.388 297.041C714.977 297.956 716.266 296.985 716.266 294.864V290.865C716.266 288.744 714.977 286.278 713.388 285.362L690.826 272.339C689.238 271.423 687.948 272.395 687.948 274.515V278.514C687.948 280.635 689.238 283.101 690.826 284.017Z" fill="#BCBCBC"/>
<path d="M677.195 262.604L699.757 275.628C701.346 276.543 702.635 275.572 702.635 273.451V269.452C702.635 267.331 701.346 264.865 699.757 263.949L677.195 250.926C675.607 250.01 674.317 250.982 674.317 253.102V257.101C674.317 259.222 675.607 261.688 677.195 262.604Z" fill="#BCBCBC"/>
<path d="M782.328 424.97L804.891 437.994C806.479 438.909 807.768 437.938 807.768 435.817V431.818C807.768 429.698 806.479 427.231 804.891 426.315L782.328 413.292C780.74 412.376 779.451 413.348 779.451 415.469V419.467C779.451 421.588 780.74 424.055 782.328 424.97Z" fill="#BCBCBC"/>
<path d="M794.791 418.356L817.354 431.38C818.942 432.295 820.231 431.323 820.231 429.203V425.204C820.231 423.083 818.942 420.617 817.354 419.701L794.791 406.678C793.203 405.762 791.914 406.734 791.914 408.854V412.853C791.914 414.974 793.203 417.44 794.791 418.356Z" fill="#BCBCBC"/>
<path d="M552.209 187.844L574.771 200.868C576.359 201.783 577.649 200.812 577.649 198.691V194.692C577.649 192.572 576.359 190.105 574.771 189.189L552.209 176.166C550.62 175.25 549.331 176.222 549.331 178.343V182.341C549.331 184.462 550.62 186.929 552.209 187.844Z" fill="#BCBCBC"/>
<path d="M537.419 193.3L559.982 206.324C561.57 207.239 562.859 206.268 562.859 204.147V200.148C562.859 198.028 561.57 195.561 559.982 194.646L537.419 181.622C535.831 180.706 534.542 181.678 534.542 183.799V187.797C534.542 189.918 535.831 192.385 537.419 193.3Z" fill="#BCBCBC"/>
<path d="M567.782 211.21L590.345 224.234C591.933 225.15 593.222 224.178 593.222 222.057V218.059C593.222 215.938 591.933 213.471 590.345 212.556L567.782 199.532C566.194 198.616 564.905 199.588 564.905 201.709V205.708C564.905 207.828 566.194 210.295 567.782 211.21Z" fill="#BCBCBC"/>
<path d="M546.37 245.47L568.932 258.494C570.521 259.409 571.81 258.438 571.81 256.317V252.318C571.81 250.198 570.521 247.731 568.932 246.815L546.37 233.792C544.781 232.876 543.492 233.848 543.492 235.969V239.967C543.492 242.088 544.781 244.555 546.37 245.47Z" fill="#BCBCBC"/>
<path d="M652.278 325.686L674.84 338.71C676.429 339.625 677.718 338.654 677.718 336.533V332.534C677.718 330.413 676.429 327.947 674.84 327.031L652.278 314.008C650.69 313.092 649.4 314.064 649.4 316.184V320.183C649.4 322.304 650.69 324.77 652.278 325.686Z" fill="#BCBCBC"/>
<path d="M668.244 321.398L690.807 334.422C692.395 335.337 693.684 334.365 693.684 332.245V328.246C693.684 326.125 692.395 323.659 690.807 322.743L668.244 309.72C666.656 308.804 665.367 309.776 665.367 311.896V315.895C665.367 318.016 666.656 320.482 668.244 321.398Z" fill="#BCBCBC"/>
<path d="M615.29 252.486L637.853 265.509C639.441 266.425 640.73 265.453 640.73 263.333V259.334C640.73 257.213 639.441 254.747 637.853 253.831L615.29 240.807C613.702 239.892 612.413 240.863 612.413 242.984V246.983C612.413 249.104 613.702 251.57 615.29 252.486Z" fill="#BCBCBC"/>
<path d="M630.089 247.422L652.652 260.446C654.24 261.362 655.529 260.39 655.529 258.269V254.27C655.529 252.15 654.24 249.683 652.652 248.768L630.089 235.744C628.501 234.828 627.211 235.8 627.211 237.921V241.919C627.211 244.04 628.501 246.507 630.089 247.422Z" fill="#BCBCBC"/>
<path d="M719.255 348.66L741.818 361.683C743.406 362.599 744.696 361.627 744.696 359.506V355.508C744.696 353.387 743.406 350.921 741.818 350.005L719.255 336.981C717.667 336.066 716.378 337.037 716.378 339.158V343.157C716.378 345.278 717.667 347.744 719.255 348.66Z" fill="#BCBCBC"/>
<path d="M706.017 327.246L728.58 340.27C730.168 341.186 731.457 340.214 731.457 338.093V334.095C731.457 331.974 730.168 329.507 728.58 328.592L706.017 315.568C704.429 314.653 703.14 315.624 703.14 317.745V321.744C703.14 323.864 704.429 326.331 706.017 327.246Z" fill="#BCBCBC"/>
<path d="M720.423 321.789L742.986 334.813C744.574 335.729 745.864 334.757 745.864 332.636V328.638C745.864 326.517 744.574 324.05 742.986 323.135L720.423 310.111C718.835 309.196 717.546 310.167 717.546 312.288V316.287C717.546 318.407 718.835 320.874 720.423 321.789Z" fill="#BCBCBC"/>
<path d="M841 320.585L833.451 325.415" stroke="#26144D" stroke-width="1.5" stroke-linecap="round" stroke-linejoin="round"/>
<path d="M708.215 537.97L390.203 354.026L516.048 281.394L834.061 465.337L708.215 537.97Z" fill="#4DA4FF" stroke="#26144D" stroke-width="1.5" stroke-linecap="round" stroke-linejoin="round"/>
<path d="M708.013 562.544L390 378.59V353.834L708.013 537.777V562.544Z" fill="#999999" stroke="#26144D" stroke-width="1.5" stroke-linecap="round" stroke-linejoin="round"/>
<path opacity="0.99" d="M833.976 490.092L708.12 562.725V537.969L833.976 465.336V490.092Z" fill="#D9D9D9" stroke="#26144D" stroke-width="1.5" stroke-linecap="round" stroke-linejoin="round"/>
<g style="mix-blend-mode:multiply" opacity="0.46">
<path d="M807 480.499L725.5 526.999L432 360.212L521.5 308.999L807 480.499Z" fill="#B2B4B3"/>
</g>
<g clip-path="url(#clip0_1107_34)">
<path d="M473.598 383.402L478.926 379.689V369.154L473.598 366.044V383.402Z" fill="#D8D8D8" stroke="#26144D" stroke-width="1.5" stroke-linecap="round" stroke-linejoin="round"/>
<path d="M439.39 363.46L444.729 359.952V348.739L439.39 345.629V363.46Z" fill="#D8D8D8" stroke="#26144D" stroke-width="1.5" stroke-linecap="round" stroke-linejoin="round"/>
<path d="M555.611 387.114V431.074L638.956 382.519V279.253L596.841 303.789V363.073L555.611 387.114Z" fill="#7D7D7B" stroke="#26144D" stroke-width="1.5" stroke-linecap="round" stroke-linejoin="round"/>
<path d="M429.906 313.539V357.93L439.39 363.461V345.629L444.729 348.739L465.051 360.588V378.419L473.598 383.402V366.044L478.926 369.154L499.248 381.002V398.36L555.568 431.193V386.802L429.906 313.539Z" fill="#D8D8D8" stroke="#26144D" stroke-width="1.5" stroke-linecap="round" stroke-linejoin="round"/>
<path d="M596.81 303.627L471.147 230.364L513.326 205.807L638.988 279.07L596.81 303.627Z" fill="#D8D8D8" stroke="#26144D" stroke-width="1.5" stroke-linecap="round" stroke-linejoin="round"/>
<path d="M555.462 386.899L429.799 313.636L471.978 289.078L597.641 362.341L555.462 386.899Z" fill="#D8D8D8" stroke="#26144D" stroke-width="1.5" stroke-linecap="round" stroke-linejoin="round"/>
<path d="M584.48 355.95L551.018 370.219L449.46 310.72L465.893 299.657L500.783 306.684L584.48 355.95Z" fill="#565656" stroke="#26144D" stroke-width="1.5" stroke-linecap="round" stroke-linejoin="round"/>
<path d="M478.926 369.153V379.689L499.248 391.537V381.002L478.926 369.153Z" fill="#7D7D7B" stroke="#26144D" stroke-width="1.5" stroke-linecap="round" stroke-linejoin="round"/>
<path d="M444.729 348.739V359.953L465.051 371.801V360.588L444.729 348.739Z" fill="#7D7D7B" stroke="#26144D" stroke-width="1.5" stroke-linecap="round" stroke-linejoin="round"/>
<path d="M471.211 274.647L596.874 347.921V303.531L471.211 230.268V274.647Z" fill="#7D7D7B" stroke="#26144D" stroke-width="1.5" stroke-linecap="round" stroke-linejoin="round"/>
<path d="M591.14 350.117C590.916 349.224 584.48 307.739 584.48 307.739L480.546 246.732L477.882 267.136L575.816 349.439L591.14 350.117Z" fill="#565656" stroke="#26144D" stroke-width="1.5" stroke-linecap="round" stroke-linejoin="round"/>
<path d="M452.402 288.756C452.402 289.832 452.487 290.833 452.668 291.758C453.308 295.331 455.151 297.71 457.73 298.624L463.954 302.186C463.165 301.584 462.483 300.809 461.94 299.862C460.98 298.183 460.426 295.966 460.426 293.287C460.426 292.921 460.426 292.555 460.458 292.178C460.575 290.015 461.012 287.777 461.726 285.549C462.472 283.257 463.495 280.986 464.732 278.845C465.669 277.241 466.724 275.713 467.875 274.304C469.325 272.517 470.944 270.946 472.66 269.665C473.331 269.16 474.013 268.708 474.706 268.299C475.473 267.858 476.219 267.481 476.955 267.201C479.885 266.028 482.528 266.071 484.574 267.169V267.137L477.647 263.349H477.637C477.104 262.907 476.507 262.574 475.868 262.326C474.44 261.756 472.788 261.648 470.966 262.046C469.623 262.337 468.184 262.907 466.692 263.779C465.765 264.328 464.849 264.952 463.975 265.673C462.707 266.685 461.492 267.879 460.373 269.192C458.529 271.333 456.91 273.798 455.62 276.391C454.746 278.135 454.032 279.943 453.499 281.75C452.796 284.129 452.413 286.507 452.413 288.767L452.402 288.756Z" fill="#D8D8D8" stroke="#26144D" stroke-width="1.5" stroke-linecap="round" stroke-linejoin="round"/>
<path d="M460.426 293.286C460.426 297.483 461.758 300.539 463.954 302.186C466.575 304.155 470.422 304.123 474.717 301.616C482.603 297.01 489.007 285.818 489.007 276.617C489.007 271.882 487.313 268.6 484.585 267.158C482.027 265.791 478.553 266.06 474.717 268.298C466.831 272.894 460.426 284.085 460.426 293.286Z" fill="#7D7D7B" stroke="#26144D" stroke-width="1.5" stroke-linecap="round" stroke-linejoin="round"/>
<path d="M470.966 262.036L472.671 269.665C473.342 269.16 474.024 268.708 474.717 268.299C475.484 267.858 476.23 267.481 476.965 267.201L475.879 262.315C474.451 261.745 472.799 261.637 470.976 262.036H470.966Z" fill="#D8D8D8" stroke="#26144D" stroke-width="1.5" stroke-linecap="round" stroke-linejoin="round"/>
<path d="M460.362 269.181L464.732 278.845C465.669 277.241 466.724 275.713 467.875 274.303L463.964 265.662C462.696 266.674 461.481 267.868 460.362 269.181Z" fill="#D8D8D8" stroke="#26144D" stroke-width="1.5" stroke-linecap="round" stroke-linejoin="round"/>
<path d="M453.5 281.74L460.469 292.179C460.586 290.015 461.023 287.777 461.737 285.55L455.62 276.381C454.746 278.124 454.032 279.932 453.5 281.74Z" fill="#D8D8D8" stroke="#26144D" stroke-width="1.5" stroke-linecap="round" stroke-linejoin="round"/>
<path d="M452.668 291.759C453.308 295.332 455.151 297.71 457.73 298.625L463.954 302.187C463.165 301.584 462.483 300.809 461.94 299.862L452.668 291.759Z" fill="#D8D8D8" stroke="#26144D" stroke-width="1.5" stroke-linecap="round" stroke-linejoin="round"/>
<path d="M461.428 303.079C461.428 304.693 461.556 306.199 461.823 307.588C462.782 312.958 465.552 316.541 469.431 317.919L478.788 323.278C477.605 322.374 476.582 321.211 475.761 319.78C474.312 317.251 473.491 313.926 473.491 309.891C473.491 309.342 473.502 308.782 473.545 308.223C473.715 304.973 474.376 301.604 475.452 298.247C476.571 294.803 478.106 291.381 479.971 288.163C481.377 285.753 482.965 283.45 484.702 281.341C486.887 278.661 489.317 276.294 491.895 274.367C492.897 273.603 493.931 272.925 494.975 272.312C496.126 271.645 497.256 271.085 498.353 270.655C502.765 268.89 506.729 268.954 509.809 270.601V270.558L499.387 264.854H499.366C498.566 264.198 497.671 263.681 496.712 263.315C494.57 262.454 492.077 262.293 489.338 262.896C487.313 263.337 485.15 264.198 482.912 265.5C481.516 266.318 480.141 267.265 478.82 268.352C476.912 269.88 475.09 271.666 473.396 273.636C470.625 276.853 468.185 280.555 466.256 284.461C464.945 287.087 463.869 289.799 463.069 292.522C462.014 296.094 461.428 299.678 461.428 303.079Z" fill="#D8D8D8" stroke="#26144D" stroke-width="1.5" stroke-linecap="round" stroke-linejoin="round"/>
<path d="M473.492 309.88C473.492 316.197 475.495 320.781 478.788 323.267C482.72 326.216 488.518 326.173 494.975 322.417C506.836 315.487 516.459 298.667 516.459 284.828C516.459 277.704 513.902 272.775 509.809 270.601C505.962 268.546 500.741 268.955 494.975 272.312C483.115 279.221 473.492 296.052 473.492 309.891V309.88Z" fill="#7D7D7B" stroke="#26144D" stroke-width="1.5" stroke-linecap="round" stroke-linejoin="round"/>
<path d="M489.338 262.896L491.895 274.367C492.897 273.603 493.931 272.925 494.975 272.312C496.126 271.645 497.256 271.085 498.353 270.655L496.712 263.315C494.57 262.454 492.077 262.293 489.338 262.896Z" fill="#D8D8D8" stroke="#26144D" stroke-width="1.5" stroke-linecap="round" stroke-linejoin="round"/>
<path d="M473.396 273.635L479.971 288.163C481.377 285.753 482.965 283.45 484.702 281.341L478.82 268.352C476.912 269.88 475.09 271.666 473.396 273.635Z" fill="#D8D8D8" stroke="#26144D" stroke-width="1.5" stroke-linecap="round" stroke-linejoin="round"/>
<path d="M463.069 292.522L473.545 308.223C473.715 304.973 474.376 301.605 475.452 298.247L466.256 284.462C464.945 287.088 463.869 289.8 463.069 292.522Z" fill="#D8D8D8" stroke="#26144D" stroke-width="1.5" stroke-linecap="round" stroke-linejoin="round"/>
<path d="M461.823 307.588C462.782 312.958 465.553 316.541 469.432 317.919L478.788 323.278C477.605 322.374 476.582 321.212 475.762 319.781L461.823 307.588Z" fill="#D8D8D8" stroke="#26144D" stroke-width="1.5" stroke-linecap="round" stroke-linejoin="round"/>
<path d="M593.921 408.217L619.135 347.2" stroke="#26144D" stroke-width="1.5" stroke-linecap="round" stroke-linejoin="round"/>
<path d="M619.71 273.044L549.238 231.785" stroke="white" stroke-width="1.5" stroke-linecap="round" stroke-linejoin="round"/>
<path d="M491.32 301.863C491.32 303.499 491.767 304.758 492.524 305.554L494.016 306.437L515.5 319.081C516.928 319.931 518.505 320.33 520.05 320.33C523.151 320.33 526.178 318.715 527.861 315.821C530.376 311.473 528.938 305.888 524.632 303.337L503.202 290.736L501.433 289.692C500.399 289.477 499.152 289.735 497.81 290.51C494.229 292.598 491.32 297.688 491.32 301.863Z" fill="white" stroke="#26144D" stroke-width="1.5" stroke-linecap="round" stroke-linejoin="round"/>
<path d="M501.081 317.973C501.081 319.049 501.166 320.05 501.347 320.975C501.987 324.548 503.83 326.926 506.409 327.841L512.633 331.403C511.844 330.8 511.162 330.026 510.619 329.079C509.66 327.4 509.105 325.183 509.105 322.503C509.105 322.137 509.105 321.772 509.137 321.395C509.255 319.232 509.692 316.994 510.406 314.766C511.152 312.474 512.175 310.203 513.411 308.062C514.349 306.458 515.404 304.93 516.554 303.52C518.004 301.734 519.624 300.163 521.339 298.882C522.011 298.376 522.693 297.924 523.385 297.516C524.153 297.074 524.899 296.698 525.634 296.418C528.564 295.245 531.207 295.288 533.253 296.386V296.353L526.327 292.565H526.316C525.783 292.124 525.186 291.79 524.547 291.543C523.119 290.973 521.467 290.865 519.645 291.263C518.302 291.554 516.863 292.124 515.372 292.996C514.444 293.545 513.528 294.169 512.654 294.89C511.386 295.901 510.171 297.096 509.052 298.409C507.209 300.55 505.589 303.015 504.299 305.608C503.426 307.351 502.712 309.159 502.179 310.967C501.475 313.345 501.092 315.724 501.092 317.984L501.081 317.973Z" fill="#D8D8D8" stroke="#26144D" stroke-width="1.5" stroke-linecap="round" stroke-linejoin="round"/>
<path d="M509.095 322.492C509.095 326.689 510.427 329.746 512.622 331.392C515.244 333.361 519.091 333.329 523.385 330.822C531.271 326.216 537.676 315.024 537.676 305.823C537.676 301.088 535.981 297.806 533.253 296.364C530.696 294.997 527.222 295.266 523.385 297.505C515.499 302.1 509.095 313.291 509.095 322.492Z" fill="#7D7D7B" stroke="#26144D" stroke-width="1.5" stroke-linecap="round" stroke-linejoin="round"/>
<path d="M519.634 291.252L521.339 298.882C522.011 298.376 522.693 297.924 523.385 297.516C524.153 297.074 524.899 296.698 525.634 296.418L524.547 291.532C523.119 290.962 521.467 290.854 519.645 291.252H519.634Z" fill="#D8D8D8" stroke="#26144D" stroke-width="1.5" stroke-linecap="round" stroke-linejoin="round"/>
<path d="M509.042 298.387L513.411 308.051C514.348 306.447 515.403 304.919 516.554 303.51L512.643 294.868C511.375 295.88 510.16 297.074 509.042 298.387Z" fill="#D8D8D8" stroke="#26144D" stroke-width="1.5" stroke-linecap="round" stroke-linejoin="round"/>
<path d="M502.168 310.946L509.137 321.385C509.255 319.222 509.692 316.983 510.406 314.756L504.289 305.587C503.415 307.33 502.701 309.138 502.168 310.946Z" fill="#D8D8D8" stroke="#26144D" stroke-width="1.5" stroke-linecap="round" stroke-linejoin="round"/>
<path d="M501.337 320.965C501.976 324.538 503.82 326.916 506.399 327.831L512.622 331.393C511.834 330.79 511.152 330.015 510.608 329.068L501.337 320.965Z" fill="#D8D8D8" stroke="#26144D" stroke-width="1.5" stroke-linecap="round" stroke-linejoin="round"/>
<path d="M515.031 329.014C515.031 330.295 515.137 331.489 515.34 332.587C516.096 336.848 518.302 339.689 521.382 340.787L528.81 345.038C527.872 344.317 527.062 343.402 526.412 342.261C525.261 340.26 524.611 337.612 524.611 334.416C524.611 333.986 524.611 333.534 524.654 333.093C524.792 330.51 525.314 327.841 526.167 325.172C527.051 322.439 528.277 319.727 529.748 317.176C530.866 315.261 532.124 313.432 533.499 311.764C535.236 309.633 537.165 307.76 539.211 306.232C540.01 305.63 540.83 305.091 541.651 304.596C542.567 304.069 543.463 303.628 544.336 303.284C547.832 301.885 550.986 301.938 553.426 303.241V303.208L545.157 298.678H545.136C544.496 298.161 543.793 297.752 543.026 297.462C541.331 296.784 539.349 296.655 537.175 297.128C535.566 297.483 533.85 298.161 532.081 299.194C530.973 299.84 529.886 300.593 528.831 301.454C527.318 302.67 525.869 304.08 524.526 305.651C522.331 308.202 520.391 311.139 518.856 314.239C517.812 316.326 516.96 318.479 516.331 320.631C515.489 323.461 515.031 326.313 515.031 329.003V329.014Z" fill="#D8D8D8" stroke="#26144D" stroke-width="1.5" stroke-linecap="round" stroke-linejoin="round"/>
<path d="M524.601 334.416C524.601 339.42 526.188 343.068 528.81 345.038C531.932 347.383 536.525 347.34 541.651 344.36C551.061 338.86 558.702 325.516 558.702 314.529C558.702 308.879 556.677 304.962 553.427 303.24C550.379 301.615 546.233 301.928 541.662 304.596C532.252 310.085 524.611 323.429 524.611 334.405L524.601 334.416Z" fill="#7D7D7B" stroke="#26144D" stroke-width="1.5" stroke-linecap="round" stroke-linejoin="round"/>
<path d="M537.175 297.128L539.2 306.232C539.999 305.63 540.82 305.091 541.64 304.596C542.557 304.069 543.452 303.628 544.326 303.284L543.026 297.462C541.331 296.784 539.349 296.655 537.175 297.128Z" fill="#D8D8D8" stroke="#26144D" stroke-width="1.5" stroke-linecap="round" stroke-linejoin="round"/>
<path d="M524.526 305.651L529.748 317.176C530.867 315.261 532.124 313.431 533.499 311.763L528.831 301.454C527.318 302.67 525.869 304.08 524.526 305.651Z" fill="#D8D8D8" stroke="#26144D" stroke-width="1.5" stroke-linecap="round" stroke-linejoin="round"/>
<path d="M516.331 320.631L524.643 333.092C524.782 330.509 525.304 327.841 526.156 325.172L518.857 314.238C517.812 316.326 516.96 318.478 516.331 320.631Z" fill="#D8D8D8" stroke="#26144D" stroke-width="1.5" stroke-linecap="round" stroke-linejoin="round"/>
<path d="M515.34 332.587C516.096 336.848 518.302 339.689 521.382 340.787L528.81 345.038C527.872 344.317 527.062 343.402 526.412 342.261L515.351 332.587H515.34Z" fill="#D8D8D8" stroke="#26144D" stroke-width="1.5" stroke-linecap="round" stroke-linejoin="round"/>
<path d="M529.651 342.487C529.651 344.101 529.779 345.608 530.046 346.996C531.005 352.366 533.775 355.949 537.654 357.327L547.011 362.686C545.828 361.782 544.805 360.62 543.984 359.188C542.535 356.66 541.715 353.334 541.715 349.299C541.715 348.75 541.725 348.19 541.768 347.631C541.938 344.381 542.599 341.013 543.675 337.655C544.794 334.211 546.329 330.789 548.194 327.572C549.601 325.161 551.188 322.858 552.925 320.749C555.11 318.069 557.54 315.702 560.119 313.776C561.12 313.011 562.154 312.333 563.198 311.72C564.349 311.053 565.479 310.493 566.576 310.063C570.988 308.298 574.953 308.363 578.032 310.009V309.966L567.61 304.262H567.589C566.79 303.606 565.894 303.089 564.935 302.724C562.793 301.863 560.3 301.701 557.561 302.304C555.536 302.745 553.373 303.606 551.135 304.908C549.739 305.726 548.364 306.673 547.043 307.76C545.135 309.288 543.313 311.074 541.619 313.044C538.848 316.261 536.408 319.963 534.479 323.87C533.168 326.495 532.092 329.207 531.292 331.93C530.237 335.503 529.651 339.086 529.651 342.487Z" fill="#D8D8D8" stroke="#26144D" stroke-width="1.5" stroke-linecap="round" stroke-linejoin="round"/>
<path d="M541.704 349.299C541.704 355.616 543.708 360.2 547 362.686C550.933 365.635 556.73 365.592 563.188 361.836C575.049 354.906 584.672 338.086 584.672 324.247C584.672 317.123 582.114 312.194 578.022 310.02C574.175 307.965 568.953 308.374 563.188 311.731C551.327 318.64 541.704 335.471 541.704 349.31V349.299Z" fill="#7D7D7B" stroke="#26144D" stroke-width="1.5" stroke-linecap="round" stroke-linejoin="round"/>
<path d="M557.561 302.304L560.119 313.776C561.12 313.011 562.154 312.333 563.198 311.72C564.349 311.053 565.479 310.493 566.577 310.063L564.935 302.724C562.793 301.863 560.3 301.701 557.561 302.304Z" fill="#D8D8D8" stroke="#26144D" stroke-width="1.5" stroke-linecap="round" stroke-linejoin="round"/>
<path d="M541.619 313.044L548.194 327.571C549.6 325.161 551.188 322.858 552.925 320.749L547.043 307.76C545.135 309.288 543.313 311.074 541.619 313.044Z" fill="#D8D8D8" stroke="#26144D" stroke-width="1.5" stroke-linecap="round" stroke-linejoin="round"/>
<path d="M531.292 331.93L541.768 347.631C541.938 344.381 542.599 341.013 543.675 337.655L534.479 323.87C533.168 326.496 532.092 329.208 531.292 331.93Z" fill="#D8D8D8" stroke="#26144D" stroke-width="1.5" stroke-linecap="round" stroke-linejoin="round"/>
<path d="M530.046 346.996C531.005 352.366 533.776 355.95 537.655 357.327L547.011 362.686C545.828 361.782 544.805 360.62 543.985 359.189L530.046 346.996Z" fill="#D8D8D8" stroke="#26144D" stroke-width="1.5" stroke-linecap="round" stroke-linejoin="round"/>
<path d="M557.828 340.722C557.828 342.358 558.275 343.617 559.032 344.414L560.524 345.296L582.007 357.941C583.435 358.791 585.013 359.189 586.558 359.189C589.659 359.189 592.685 357.575 594.369 354.68C596.884 350.332 595.445 344.747 591.14 342.197L569.71 329.595L567.941 328.551C566.907 328.336 565.66 328.594 564.318 329.369C560.737 331.457 557.828 336.547 557.828 340.722Z" fill="#D8D8D8" stroke="#26144D" stroke-width="1.5" stroke-linecap="round" stroke-linejoin="round"/>
<path d="M624.677 333.782L619.135 347.201L593.922 408.218L586.526 426.135L574.974 419.259L575.155 366.41C575.294 352.313 585.247 335.256 597.406 328.315C600.891 326.335 604.173 325.388 607.082 325.388C609.992 325.388 612.304 326.249 614.254 327.874L624.677 333.782Z" fill="#D8D8D8" stroke="#26144D" stroke-width="1.5" stroke-linecap="round" stroke-linejoin="round"/>
<path d="M630.261 400.652L586.526 426.135L586.707 373.286C586.835 359.188 596.799 342.132 608.958 335.19C621.117 328.249 630.868 334.061 630.74 348.158L630.261 400.652Z" fill="#7D7D7B" stroke="#26144D" stroke-width="1.5" stroke-linecap="round" stroke-linejoin="round"/>
<path d="M629.898 350.493L625.923 357.789L613.349 380.926L608.915 389.062L600.912 384.488C597.406 383.24 595.168 379.495 595.168 373.834C595.168 363.902 602.074 351.827 610.589 346.866C615.331 344.101 619.572 344.122 622.396 346.393H622.407L629.898 350.493Z" fill="#D8D8D8" stroke="#26144D" stroke-width="1.5" stroke-linecap="round" stroke-linejoin="round"/>
<path d="M630.142 376.087C636.163 365.556 636.164 354.174 630.145 350.664C624.125 347.155 614.364 352.846 608.344 363.377C602.323 373.908 602.322 385.29 608.341 388.8C614.361 392.309 624.121 386.617 630.142 376.087Z" fill="#7D7D7B" stroke="#26144D" stroke-width="1.5" stroke-linecap="round" stroke-linejoin="round"/>
<path d="M613.423 374.696C613.423 376.332 613.871 377.591 614.628 378.387L616.119 379.27L637.603 391.914C639.031 392.764 640.608 393.163 642.154 393.163C645.255 393.163 648.281 391.548 649.965 388.654C652.48 384.306 651.041 378.721 646.736 376.17L625.305 363.569L623.536 362.525C622.503 362.31 621.256 362.568 619.913 363.343C616.333 365.431 613.423 370.521 613.423 374.696Z" fill="white" stroke="#26144D" stroke-width="1.5" stroke-linecap="round" stroke-linejoin="round"/>
</g>
<path d="M631.935 407.102C624.482 402.8 624.481 388.852 631.934 375.949C639.386 363.046 651.47 356.072 658.924 360.374C666.377 364.676 666.378 378.623 658.925 391.527C651.473 404.43 639.389 411.404 631.935 407.102Z" fill="#F21131" stroke="#26144D" stroke-width="1.5" stroke-linecap="round" stroke-linejoin="round"/>
<path d="M629.945 422.953C629.945 436.736 635.012 446.234 643.114 450.251L712.578 491.216L771.375 390.579L700.104 348.279L700.072 348.333C692.633 344.251 682.468 344.956 671.256 351.431C648.436 364.605 629.945 396.626 629.945 422.953Z" fill="#E40133" stroke="#26144D" stroke-width="1.5" stroke-linecap="round" stroke-linejoin="round"/>
<path d="M711.991 491.092C695.862 481.784 695.863 451.598 711.993 423.67C728.123 395.742 754.274 380.648 770.403 389.957C786.532 399.265 786.531 429.451 770.401 457.379C754.271 485.307 728.12 500.401 711.991 491.092Z" fill="#BF0037" stroke="#26144D" stroke-width="1.5" stroke-linecap="round" stroke-linejoin="round"/>
<path d="M775.178 415.547L769.62 428.87L744.331 489.451L736.914 500.713L725.327 493.885L725.509 447.942C725.648 433.945 735.631 417.011 747.827 410.119C751.322 408.153 754.614 407.213 757.532 407.213C760.45 407.213 762.769 408.068 764.725 409.681L775.178 415.547Z" fill="#E40133" stroke="#26144D" stroke-width="1.5" stroke-linecap="round" stroke-linejoin="round"/>
<path d="M744.323 489.441L769.611 428.86" stroke="#26144D" stroke-width="1.5" stroke-linecap="round" stroke-linejoin="round"/>
<path d="M780.769 475.411L736.904 500.712L737.086 454.769C737.214 440.772 747.208 423.837 759.403 416.946C771.599 410.054 781.378 415.824 781.25 429.821L780.769 475.411Z" fill="#BF0037" stroke="#26144D" stroke-width="1.5" stroke-linecap="round" stroke-linejoin="round"/>
<path d="M780.405 432.13L776.418 439.374L763.806 462.345L759.36 470.423L751.333 465.882C747.816 464.642 745.572 460.924 745.572 455.304C745.572 445.442 752.498 433.455 761.038 428.529C765.794 425.783 770.048 425.804 772.881 428.059H772.891L780.405 432.13Z" fill="#E40133" stroke="#26144D" stroke-width="1.5" stroke-linecap="round" stroke-linejoin="round"/>
<path d="M758.784 470.173C752.747 466.689 752.748 455.388 758.787 444.932C764.825 434.477 774.615 428.826 780.653 432.31C786.69 435.794 786.689 447.095 780.65 457.551C774.611 468.006 764.822 473.658 758.784 470.173Z" fill="#BF0037" stroke="#26144D" stroke-width="1.5" stroke-linecap="round" stroke-linejoin="round"/>
<path d="M711.542 361.409V391.229C715.433 387.597 719.548 384.477 723.823 382.009C729.221 378.889 734.383 377.115 739.118 376.56V363.567L711.542 361.409Z" fill="#BF0037" stroke="#26144D" stroke-width="1.5" stroke-linecap="round" stroke-linejoin="round"/>
<path d="M678.28 358.812V371.869L711.531 391.24L711.542 391.229V361.409L678.28 358.812Z" fill="#F21131" stroke="#26144D" stroke-width="1.5" stroke-linecap="round" stroke-linejoin="round"/>
<path d="M739.118 363.567C734.383 364.123 729.221 365.897 723.823 369.017C719.548 371.485 715.422 374.615 711.542 378.248L678.28 358.877C678.28 358.877 684.105 352.936 692.976 348.855C702.029 344.699 707.822 344.998 707.822 344.998L739.107 363.557L739.118 363.567Z" fill="#F21131" stroke="#26144D" stroke-width="1.5" stroke-linecap="round" stroke-linejoin="round"/>
<path d="M627.605 467.088L657.79 459V430.43L627.605 467.088Z" fill="#7D7D7B" stroke="#26144D" stroke-width="1.5" stroke-linecap="round" stroke-linejoin="round"/>
<path d="M660.418 487.121L690.602 479.033V450.474L660.418 487.121Z" fill="#7D7D7B" stroke="#26144D" stroke-width="1.5" stroke-linecap="round" stroke-linejoin="round"/>
<path d="M657.79 430.431L644.974 423.005L616.212 459.663L627.531 466.886L657.79 430.431Z" fill="#D8D8D8" stroke="#26144D" stroke-width="1.5" stroke-linecap="round" stroke-linejoin="round"/>
<path d="M690.602 450.475L677.787 443.049L649.024 479.696L660.343 486.919L690.602 450.475Z" fill="#D8D8D8" stroke="#26144D" stroke-width="1.5" stroke-linecap="round" stroke-linejoin="round"/>
<path d="M649.152 387.377L693.713 413.095L688.032 422.931L643.471 397.213L649.152 387.377Z" fill="#BF0037" stroke="#26144D" stroke-width="1.5" stroke-linecap="round" stroke-linejoin="round"/>
<path d="M764.808 459.745C762.093 458.179 762.091 453.102 764.804 448.405C767.516 443.709 771.916 441.172 774.63 442.738C777.345 444.305 777.347 449.382 774.634 454.079C771.922 458.775 767.522 461.312 764.808 459.745Z" fill="#7D7D7B" stroke="#26144D" stroke-width="1.5" stroke-linecap="round" stroke-linejoin="round"/>
<path d="M730.169 362.071L708.344 349.164" stroke="white" stroke-width="1.5" stroke-linecap="round" stroke-linejoin="round"/>
<path d="M910.185 485.634C910.263 481.052 913.482 475.324 917.365 472.838C919.685 471.393 921.692 471.406 922.956 472.629L960.903 494.069L950.882 511.954L912.935 490.515C911.241 490.085 910.172 488.38 910.198 485.647L910.185 485.634Z" fill="#248CFF" stroke="#26144D" stroke-width="1.5" stroke-linecap="round" stroke-linejoin="round"/>
<path d="M960.641 505.676C963.444 500.677 963.527 495.399 960.827 493.889C958.127 492.378 953.666 495.207 950.863 500.206C948.061 505.205 947.977 510.482 950.678 511.993C953.378 513.503 957.839 510.675 960.641 505.676Z" fill="#0069EA" stroke="#26144D" stroke-width="1.5" stroke-linecap="round" stroke-linejoin="round"/>
<path d="M873.961 634.343L748.208 561.811L873.961 489.292L999.714 561.811L873.961 634.343Z" fill="#8ED760" stroke="#26144D" stroke-width="1.5" stroke-linecap="round" stroke-linejoin="round"/>
<path d="M873.753 658.881L748 586.349V561.629L873.753 634.161V658.881Z" fill="#956054" stroke="#26144D" stroke-width="1.5" stroke-linecap="round" stroke-linejoin="round"/>
<path d="M999.626 586.53L873.873 659.063V634.343L999.626 561.811V586.53Z" fill="#A9776B" stroke="#26144D" stroke-width="1.5" stroke-linecap="round" stroke-linejoin="round"/>
<path d="M796.323 554.858V562.825" stroke="#5FAE2C" stroke-width="1.5" stroke-linecap="round" stroke-linejoin="round"/>
<path d="M971.752 557.579V565.546" stroke="#5FAE2C" stroke-width="1.5" stroke-linecap="round" stroke-linejoin="round"/>
<path d="M804.312 558.843V566.809" stroke="#5FAE2C" stroke-width="1.5" stroke-linecap="round" stroke-linejoin="round"/>
<path d="M964.299 553.062V561.029" stroke="#5FAE2C" stroke-width="1.5" stroke-linecap="round" stroke-linejoin="round"/>
<path d="M957.382 558.374V566.341" stroke="#5FAE2C" stroke-width="1.5" stroke-linecap="round" stroke-linejoin="round"/>
<path d="M876.922 607.214V615.18" stroke="#5FAE2C" stroke-width="1.5" stroke-linecap="round" stroke-linejoin="round"/>
<path d="M869.743 601.629V609.608" stroke="#5FAE2C" stroke-width="1.5" stroke-linecap="round" stroke-linejoin="round"/>
<path d="M862.564 607.486V615.453" stroke="#5FAE2C" stroke-width="1.5" stroke-linecap="round" stroke-linejoin="round"/>
<path d="M788.622 559.376V567.343" stroke="#5FAE2C" stroke-width="1.5" stroke-linecap="round" stroke-linejoin="round"/>
<path d="M862.649 527.654L848.549 519.44L848.64 480.193L862.74 488.407L862.649 527.654Z" fill="white" stroke="black" stroke-width="1.5" stroke-linecap="round" stroke-linejoin="round"/>
<path d="M862.74 488.406L848.64 480.192L861.541 472.759L875.628 480.973L862.74 488.406Z" fill="#248CFF" stroke="#26144D" stroke-width="1.5" stroke-linecap="round" stroke-linejoin="round"/>
<path d="M853.329 480.415L862.008 475.533" stroke="white" stroke-width="1.5" stroke-linecap="round" stroke-linejoin="round"/>
<path d="M875.631 480.974L875.553 520.221L862.652 527.654L862.743 488.406L875.631 480.974Z" fill="white" stroke="black" stroke-width="1.5" stroke-linecap="round" stroke-linejoin="round"/>
<path d="M845.08 537.781L830.993 529.567L831.071 490.32L845.171 498.547L845.08 537.781Z" fill="#004DA9" stroke="#26144D" stroke-width="1.5" stroke-linecap="round" stroke-linejoin="round"/>
<path d="M845.171 498.548L831.071 490.322L843.972 482.889L858.072 491.103L845.171 498.548Z" fill="#248CFF" stroke="#26144D" stroke-width="1.5" stroke-linecap="round" stroke-linejoin="round"/>
<path d="M835.737 490.658L844.429 485.776" stroke="white" stroke-width="1.5" stroke-linecap="round" stroke-linejoin="round"/>
<path d="M858.077 491.103L857.986 530.35L845.084 537.782L845.176 498.548L858.077 491.103Z" fill="white" stroke="black" stroke-width="1.5" stroke-linecap="round" stroke-linejoin="round"/>
<g style="mix-blend-mode:multiply" opacity="0.46">
<path d="M831.801 585.19L894.534 622.08L977.361 574.88L940.965 552.373L831.801 585.19Z" fill="#B2B4B3"/>
</g>
<path d="M827.529 547.909L813.429 539.695L813.52 500.448L827.607 508.675L827.529 547.909Z" fill="#004DA9" stroke="#26144D" stroke-width="1.5" stroke-linecap="round" stroke-linejoin="round"/>
<path d="M827.606 508.674L813.52 500.448L826.408 493.015L840.508 501.229L827.606 508.674Z" fill="#248CFF" stroke="#26144D" stroke-width="1.5" stroke-linecap="round" stroke-linejoin="round"/>
<path d="M840.509 501.228L840.417 540.475L827.529 547.907L827.607 508.673L840.509 501.228Z" fill="white" stroke="black" stroke-width="1.5" stroke-linecap="round" stroke-linejoin="round"/>
<path d="M866.219 594.85L812.425 563.817V511.214L866.219 542.247V594.85Z" fill="#004DA9" stroke="#26144D" stroke-width="1.5" stroke-linecap="round" stroke-linejoin="round"/>
<path d="M943.494 550.278L866.218 594.849V542.246L943.494 497.675V550.278Z" fill="#0069EA" stroke="#26144D" stroke-width="1.5" stroke-linecap="round" stroke-linejoin="round"/>
<path d="M866.219 542.246L812.425 511.213L889.701 466.655L943.495 497.675L866.219 542.246Z" fill="#248CFF" stroke="#26144D" stroke-width="1.5" stroke-linecap="round" stroke-linejoin="round"/>
<g style="mix-blend-mode:multiply" opacity="0.46">
<path d="M847.728 522.343L872.54 537.443L884.763 530.934L860.382 516.771L847.728 522.343Z" fill="#B2B4B3"/>
</g>
<g style="mix-blend-mode:multiply" opacity="0.46">
<path d="M870.086 507.164L897.609 523.253L909.376 516.38L884.395 501.735L870.086 507.164Z" fill="#B2B4B3"/>
</g>
<g style="mix-blend-mode:multiply" opacity="0.46">
<path d="M895.619 494.317L921.33 509.143L933.28 502.635L908.26 488.732L895.619 494.317Z" fill="#B2B4B3"/>
</g>
<path d="M825.014 528.499L850.36 542.779" stroke="#26144D" stroke-width="1.5" stroke-linecap="round" stroke-linejoin="round"/>
<path d="M825.014 535.009L850.36 549.289" stroke="#26144D" stroke-width="1.5" stroke-linecap="round" stroke-linejoin="round"/>
<path d="M825.014 541.881L850.36 556.161" stroke="#26144D" stroke-width="1.5" stroke-linecap="round" stroke-linejoin="round"/>
<path d="M825.014 548.572L850.36 562.852" stroke="#26144D" stroke-width="1.5" stroke-linecap="round" stroke-linejoin="round"/>
<path d="M931.077 573.631L916.977 565.404L917.068 526.17L931.168 534.384L931.077 573.631Z" fill="#004DA9" stroke="#26144D" stroke-width="1.5" stroke-linecap="round" stroke-linejoin="round"/>
<path d="M931.165 534.384L917.065 526.17L929.967 518.725L944.053 526.952L931.165 534.384Z" fill="#248CFF" stroke="#26144D" stroke-width="1.5" stroke-linecap="round" stroke-linejoin="round"/>
<path d="M944.054 526.952L943.976 566.199L931.075 573.632L931.166 534.385L944.054 526.952Z" fill="#0069EA" stroke="#26144D" stroke-width="1.5" stroke-linecap="round" stroke-linejoin="round"/>
<path d="M913.51 583.759L899.423 575.545L899.502 536.298L913.601 544.512L913.51 583.759Z" fill="#004DA9" stroke="#26144D" stroke-width="1.5" stroke-linecap="round" stroke-linejoin="round"/>
<path d="M913.6 544.511L899.5 536.297L912.402 528.852L926.502 537.078L913.6 544.511Z" fill="#248CFF" stroke="#26144D" stroke-width="1.5" stroke-linecap="round" stroke-linejoin="round"/>
<path d="M926.5 537.078L926.409 576.325L913.508 583.758L913.599 544.511L926.5 537.078Z" fill="#0069EA" stroke="#26144D" stroke-width="1.5" stroke-linecap="round" stroke-linejoin="round"/>
<path d="M895.956 593.885L881.856 585.671L881.947 546.424L896.034 554.638L895.956 593.885Z" fill="#004DA9" stroke="#26144D" stroke-width="1.5" stroke-linecap="round" stroke-linejoin="round"/>
<path d="M896.032 554.639L881.945 546.425L894.833 538.992L908.933 547.206L896.032 554.639Z" fill="#248CFF" stroke="#26144D" stroke-width="1.5" stroke-linecap="round" stroke-linejoin="round"/>
<path d="M908.936 547.206L908.845 586.453L895.957 593.886L896.035 554.639L908.936 547.206Z" fill="#0069EA" stroke="#26144D" stroke-width="1.5" stroke-linecap="round" stroke-linejoin="round"/>
<path d="M849.982 595.123L811.162 572.643L811.253 555.304L850.073 577.785L849.982 595.123Z" fill="#004DA9" stroke="#26144D" stroke-width="1.5" stroke-linecap="round" stroke-linejoin="round"/>
<path d="M850.073 577.784L811.253 555.303L819.176 550.734L857.997 573.215L850.073 577.784Z" fill="#248CFF" stroke="#26144D" stroke-width="1.5" stroke-linecap="round" stroke-linejoin="round"/>
<path d="M857.998 573.214L857.906 590.553L849.983 595.122L850.075 577.783L857.998 573.214Z" fill="#0069EA" stroke="#26144D" stroke-width="1.5" stroke-linecap="round" stroke-linejoin="round"/>
<path d="M734.5 371C734.5 371 772.111 415.97 804 434C838.602 453.564 902.001 461.5 902.001 461.5" stroke="#666666" stroke-width="2" stroke-linecap="round" stroke-linejoin="round"/>
<path d="M721.5 377C721.5 377 759.323 418.202 789 437.5C819.952 457.628 875.491 475.679 875.491 475.679" stroke="#666666" stroke-width="2" stroke-linecap="round" stroke-linejoin="round"/>
<path d="M716 380C716 380 749.305 413.87 772.5 433.5C800.105 456.862 847.001 488.5 847.001 488.5" stroke="#666666" stroke-width="2" stroke-linecap="round" stroke-linejoin="round"/>
<path d="M904.659 493.379C901.44 494.719 896.488 494.199 893.595 492.22C891.901 491.036 891.302 489.604 891.784 488.354L893.687 470.208L909.142 471.822L907.239 489.968C907.448 491.296 906.575 492.572 904.659 493.379Z" fill="white" stroke="#26144D" stroke-width="1.5" stroke-linecap="round" stroke-linejoin="round"/>
<path d="M907.659 485.502C907.867 486.83 906.994 488.106 905.091 488.913C901.886 490.254 896.96 489.733 894.093 487.767C892.399 486.583 891.812 485.151 892.295 483.901" fill="white"/>
<path d="M907.659 485.502C907.867 486.83 906.994 488.106 905.091 488.913C901.886 490.254 896.96 489.733 894.093 487.767C892.399 486.583 891.812 485.151 892.295 483.901" stroke="#26144D" stroke-width="1.5" stroke-linecap="round" stroke-linejoin="round"/>
<path d="M908.153 480.818C908.362 482.146 907.489 483.421 905.586 484.228C902.38 485.569 897.454 485.049 894.588 483.083C892.893 481.898 892.307 480.466 892.789 479.217" fill="white"/>
<path d="M908.153 480.818C908.362 482.146 907.489 483.421 905.586 484.228C902.38 485.569 897.454 485.049 894.588 483.083C892.893 481.898 892.307 480.466 892.789 479.217" stroke="#26144D" stroke-width="1.5" stroke-linecap="round" stroke-linejoin="round"/>
<path d="M908.66 476.377C908.868 477.705 907.995 478.981 906.092 479.788C902.887 481.129 897.961 480.608 895.094 478.642C893.4 477.458 892.813 476.026 893.296 474.776" fill="white"/>
<path d="M908.66 476.377C908.868 477.705 907.995 478.981 906.092 479.788C902.887 481.129 897.961 480.608 895.094 478.642C893.4 477.458 892.813 476.026 893.296 474.776" stroke="#26144D" stroke-width="1.5" stroke-linecap="round" stroke-linejoin="round"/>
<path d="M909.581 470.669C909.829 468.309 906.478 466.025 902.097 465.567C897.717 465.108 893.965 466.649 893.718 469.009C893.47 471.368 896.821 473.653 901.201 474.111C905.582 474.57 909.334 473.028 909.581 470.669Z" fill="white" stroke="#26144D" stroke-width="1.5" stroke-linecap="round" stroke-linejoin="round"/>
<path d="M910.167 465.123C910.415 462.763 907.064 460.479 902.683 460.021C898.303 459.562 894.551 461.104 894.303 463.463C894.056 465.823 897.407 468.107 901.787 468.565C906.168 469.024 909.92 467.483 910.167 465.123Z" fill="white" stroke="#26144D" stroke-width="1.5" stroke-linecap="round" stroke-linejoin="round"/>
<path d="M904.621 463.973C903.436 464.455 901.611 464.273 900.543 463.544C899.917 463.114 899.696 462.593 899.865 462.138L900.556 455.538L906.263 456.137L905.573 462.737C905.651 463.218 905.325 463.687 904.621 463.973Z" fill="white" stroke="#26144D" stroke-width="1.5" stroke-linecap="round" stroke-linejoin="round"/>
<path d="M906.298 456.164C906.388 455.306 905.167 454.475 903.571 454.308C901.975 454.141 900.608 454.701 900.518 455.559C900.428 456.417 901.649 457.248 903.245 457.415C904.841 457.582 906.208 457.022 906.298 456.164Z" fill="white" stroke="#26144D" stroke-width="1.5" stroke-linecap="round" stroke-linejoin="round"/>
<path d="M911.55 455.933C911.797 453.573 908.447 451.289 904.066 450.83C899.686 450.372 895.934 451.913 895.686 454.273C895.439 456.632 898.789 458.917 903.17 459.375C907.551 459.833 911.302 458.292 911.55 455.933Z" fill="#E40133" stroke="#26144D" stroke-width="1.5" stroke-linecap="round" stroke-linejoin="round"/>
<path d="M882.213 506.682C879.15 508.349 874.172 508.349 871.097 506.682C869.285 505.68 868.543 504.326 868.894 503.025V484.774H884.428V503.025C884.767 504.326 884.037 505.68 882.226 506.682H882.213Z" fill="white" stroke="#26144D" stroke-width="1.5" stroke-linecap="round" stroke-linejoin="round"/>
<path d="M884.371 498.532C884.71 499.834 883.98 501.188 882.182 502.19C879.132 503.856 874.18 503.856 871.118 502.19C869.32 501.188 868.577 499.834 868.929 498.532" fill="white"/>
<path d="M884.371 498.532C884.71 499.834 883.98 501.188 882.182 502.19C879.132 503.856 874.18 503.856 871.118 502.19C869.32 501.188 868.577 499.834 868.929 498.532" stroke="#26144D" stroke-width="1.5" stroke-linecap="round" stroke-linejoin="round"/>
<path d="M884.371 493.834C884.71 495.136 883.98 496.49 882.182 497.492C879.132 499.158 874.18 499.158 871.118 497.492C869.32 496.49 868.577 495.136 868.929 493.834" fill="white"/>
<path d="M884.371 493.834C884.71 495.136 883.98 496.49 882.182 497.492C879.132 499.158 874.18 499.158 871.118 497.492C869.32 496.49 868.577 495.136 868.929 493.834" stroke="#26144D" stroke-width="1.5" stroke-linecap="round" stroke-linejoin="round"/>
<path d="M884.41 489.356C884.748 490.658 884.019 492.012 882.22 493.014C879.171 494.681 874.219 494.681 871.157 493.014C869.358 492.012 868.615 490.658 868.967 489.356" fill="white"/>
<path d="M884.41 489.356C884.748 490.658 884.019 492.012 882.22 493.014C879.171 494.681 874.219 494.681 871.157 493.014C869.358 492.012 868.615 490.658 868.967 489.356" stroke="#26144D" stroke-width="1.5" stroke-linecap="round" stroke-linejoin="round"/>
<path d="M876.762 487.885C881.166 487.885 884.737 485.962 884.737 483.59C884.737 481.217 881.166 479.294 876.762 479.294C872.357 479.294 868.787 481.217 868.787 483.59C868.787 485.962 872.357 487.885 876.762 487.885Z" fill="white" stroke="#26144D" stroke-width="1.5" stroke-linecap="round" stroke-linejoin="round"/>
<path d="M876.762 482.314C881.166 482.314 884.737 480.391 884.737 478.018C884.737 475.646 881.166 473.723 876.762 473.723C872.357 473.723 868.787 475.646 868.787 478.018C868.787 480.391 872.357 482.314 876.762 482.314Z" fill="white" stroke="#26144D" stroke-width="1.5" stroke-linecap="round" stroke-linejoin="round"/>
<path d="M879.095 477.445C877.962 478.057 876.124 478.057 874.99 477.445C874.326 477.081 874.052 476.586 874.169 476.117V469.479H879.903V476.117C880.034 476.586 879.76 477.081 879.082 477.445H879.095Z" fill="white" stroke="#26144D" stroke-width="1.5" stroke-linecap="round" stroke-linejoin="round"/>
<path d="M877.049 471.08C878.654 471.08 879.955 470.381 879.955 469.518C879.955 468.655 878.654 467.956 877.049 467.956C875.444 467.956 874.143 468.655 874.143 469.518C874.143 470.381 875.444 471.08 877.049 471.08Z" fill="white" stroke="#26144D" stroke-width="1.5" stroke-linecap="round" stroke-linejoin="round"/>
<path d="M877.181 473.02C881.586 473.02 885.156 471.097 885.156 468.724C885.156 466.352 881.586 464.429 877.181 464.429C872.777 464.429 869.206 466.352 869.206 468.724C869.206 471.097 872.777 473.02 877.181 473.02Z" fill="#E40133" stroke="#26144D" stroke-width="1.5" stroke-linecap="round" stroke-linejoin="round"/>
<path d="M858.725 520.715C855.936 522.811 851.01 523.54 847.726 522.342C845.785 521.613 844.859 520.377 845.003 519.049L842.318 500.994L857.682 498.716L860.367 516.771C860.901 518.007 860.367 519.452 858.725 520.715Z" fill="white" stroke="#26144D" stroke-width="1.5" stroke-linecap="round" stroke-linejoin="round"/>
<path d="M859.674 512.334C860.195 513.571 859.674 515.016 858.045 516.278C855.282 518.374 850.383 519.103 847.112 517.905C845.183 517.176 844.258 515.94 844.401 514.612" fill="white"/>
<path d="M859.674 512.334C860.195 513.571 859.674 515.016 858.045 516.278C855.282 518.374 850.383 519.103 847.112 517.905C845.183 517.176 844.258 515.94 844.401 514.612" stroke="#26144D" stroke-width="1.5" stroke-linecap="round" stroke-linejoin="round"/>
<path d="M858.985 507.686C859.507 508.922 858.985 510.367 857.357 511.63C854.594 513.726 849.694 514.455 846.423 513.257C844.495 512.528 843.569 511.291 843.713 509.964" fill="white"/>
<path d="M858.985 507.686C859.507 508.922 858.985 510.367 857.357 511.63C854.594 513.726 849.694 514.455 846.423 513.257C844.495 512.528 843.569 511.291 843.713 509.964" stroke="#26144D" stroke-width="1.5" stroke-linecap="round" stroke-linejoin="round"/>
<path d="M858.372 503.246C858.893 504.483 858.372 505.928 856.743 507.19C853.981 509.286 849.081 510.015 845.81 508.817C843.881 508.089 842.956 506.852 843.099 505.524" fill="white"/>
<path d="M858.372 503.246C858.893 504.483 858.372 505.928 856.743 507.19C853.981 509.286 849.081 510.015 845.81 508.817C843.881 508.089 842.956 506.852 843.099 505.524" stroke="#26144D" stroke-width="1.5" stroke-linecap="round" stroke-linejoin="round"/>
<path d="M850.587 502.895C854.944 502.25 858.193 499.824 857.845 497.477C857.496 495.13 853.682 493.751 849.325 494.397C844.968 495.043 841.719 497.469 842.067 499.816C842.416 502.162 846.23 503.541 850.587 502.895Z" fill="white" stroke="#26144D" stroke-width="1.5" stroke-linecap="round" stroke-linejoin="round"/>
<path d="M849.762 497.387C854.118 496.741 857.368 494.315 857.019 491.968C856.671 489.621 852.856 488.243 848.499 488.888C844.142 489.534 840.893 491.96 841.242 494.307C841.59 496.654 845.405 498.032 849.762 497.387Z" fill="white" stroke="#26144D" stroke-width="1.5" stroke-linecap="round" stroke-linejoin="round"/>
<path d="M851.366 492.234C850.336 493.002 848.525 493.262 847.3 492.833C846.583 492.573 846.245 492.117 846.297 491.635L845.319 485.075L850.988 484.229L851.965 490.789C852.161 491.245 851.965 491.766 851.353 492.221L851.366 492.234Z" fill="white" stroke="#26144D" stroke-width="1.5" stroke-linecap="round" stroke-linejoin="round"/>
<path d="M848.407 486.233C849.994 485.997 851.179 485.115 851.052 484.261C850.925 483.408 849.535 482.907 847.948 483.142C846.36 483.378 845.176 484.26 845.303 485.114C845.43 485.967 846.819 486.468 848.407 486.233Z" fill="white" stroke="#26144D" stroke-width="1.5" stroke-linecap="round" stroke-linejoin="round"/>
<path d="M848.817 488.139C853.174 487.493 856.423 485.067 856.075 482.72C855.726 480.373 851.912 478.995 847.555 479.64C843.198 480.286 839.949 482.712 840.297 485.059C840.646 487.405 844.46 488.784 848.817 488.139Z" fill="#E40133" stroke="#26144D" stroke-width="1.5" stroke-linecap="round" stroke-linejoin="round"/>
<path d="M818.772 511.408L865.75 538.536" stroke="white" stroke-width="1.5" stroke-linecap="round" stroke-linejoin="round"/>
<path d="M917.159 475.688L951.014 495.41" stroke="white" stroke-width="1.5" stroke-linecap="round" stroke-linejoin="round"/>
<path d="M869.553 587.362V544.497L935.804 506.252" stroke="white" stroke-width="1.5" stroke-linecap="round" stroke-linejoin="round"/>
<path d="M818.366 500.552L827.058 495.671" stroke="white" stroke-width="1.5" stroke-linecap="round" stroke-linejoin="round"/>
<path d="M1004.59 566C1004.59 566 946.839 547.988 912.716 530C886.588 516.227 849 489.125 849 489.125" stroke="#D9D9D9" stroke-width="2" stroke-linecap="round" stroke-linejoin="round"/>
<path d="M1016.44 532.499C1016.44 532.499 967.782 525.698 938.894 514C911.86 503.053 874.19 476.5 874.19 476.5" stroke="#D9D9D9" stroke-width="2" stroke-linecap="round" stroke-linejoin="round"/>
<path d="M1082.63 503.5C1082.63 503.5 999.991 515.458 949.268 503.5C919.959 496.59 877.155 476.001 877.155 476.001" stroke="#D9D9D9" stroke-width="2" stroke-linecap="round" stroke-linejoin="round"/>
<path d="M1093 529C1093 529 1019.75 522.335 976.927 504.5C946.482 491.82 903.826 462 903.826 462" stroke="#D9D9D9" stroke-width="2" stroke-linecap="round" stroke-linejoin="round"/>
<path d="M1215.01 833.16L1341.3 760.271L1215.03 687.362L1088.74 760.271L1215.01 833.16Z" fill="#8ED760" stroke="#26144D" stroke-width="1.5" stroke-linecap="round" stroke-linejoin="round"/>
<path d="M1215.23 857.812L1341.52 784.923V760.073L1215.23 832.962V857.812Z" fill="#956054" stroke="#26144D" stroke-width="1.5" stroke-linecap="round" stroke-linejoin="round"/>
<path d="M1088.84 785.101L1215.11 858.01V833.16L1088.84 760.251V785.101Z" fill="#A9776B" stroke="#26144D" stroke-width="1.5" stroke-linecap="round" stroke-linejoin="round"/>
<path d="M1279.27 756.598V764.841" stroke="#5FAE2C" stroke-width="1.5" stroke-linecap="round" stroke-linejoin="round"/>
<path d="M1140.01 756.042V764.286" stroke="#5FAE2C" stroke-width="1.5" stroke-linecap="round" stroke-linejoin="round"/>
<path d="M1181.77 719.786V728.03" stroke="#5FAE2C" stroke-width="1.5" stroke-linecap="round" stroke-linejoin="round"/>
<path d="M1271.05 760.708V768.952" stroke="#5FAE2C" stroke-width="1.5" stroke-linecap="round" stroke-linejoin="round"/>
<path d="M1244.95 725.005V733.249" stroke="#5FAE2C" stroke-width="1.5" stroke-linecap="round" stroke-linejoin="round"/>
<path d="M1252.08 721.98V730.224" stroke="#5FAE2C" stroke-width="1.5" stroke-linecap="round" stroke-linejoin="round"/>
<path d="M1147.7 751.379V759.623" stroke="#5FAE2C" stroke-width="1.5" stroke-linecap="round" stroke-linejoin="round"/>
<path d="M1154.84 756.875V765.119" stroke="#5FAE2C" stroke-width="1.5" stroke-linecap="round" stroke-linejoin="round"/>
<path d="M1213.62 792.023V800.267" stroke="#5FAE2C" stroke-width="1.5" stroke-linecap="round" stroke-linejoin="round"/>
<path d="M1221.04 786.249V794.493" stroke="#5FAE2C" stroke-width="1.5" stroke-linecap="round" stroke-linejoin="round"/>
<path d="M1228.46 792.301V800.545" stroke="#5FAE2C" stroke-width="1.5" stroke-linecap="round" stroke-linejoin="round"/>
<path d="M1189.47 724.729V732.973" stroke="#5FAE2C" stroke-width="1.5" stroke-linecap="round" stroke-linejoin="round"/>
<path d="M1173.53 725.56V733.803" stroke="#5FAE2C" stroke-width="1.5" stroke-linecap="round" stroke-linejoin="round"/>
<path d="M1287.24 761.261V769.505" stroke="#5FAE2C" stroke-width="1.5" stroke-linecap="round" stroke-linejoin="round"/>
<path d="M1258.94 725.282V733.526" stroke="#5FAE2C" stroke-width="1.5" stroke-linecap="round" stroke-linejoin="round"/>
<path d="M1048.29 732.912L1174.58 660.023L1048.29 587.134L922 660.023L1048.29 732.912Z" fill="#8ED760" stroke="#26144D" stroke-width="1.5" stroke-linecap="round" stroke-linejoin="round"/>
<path d="M1048.48 757.585L1174.77 684.676V659.826L1048.48 732.735V757.585Z" fill="#956054" stroke="#26144D" stroke-width="1.5" stroke-linecap="round" stroke-linejoin="round"/>
<path d="M922.1 684.872L1048.39 757.762V732.912L922.1 660.022V684.872Z" fill="#A9776B" stroke="#26144D" stroke-width="1.5" stroke-linecap="round" stroke-linejoin="round"/>
<path d="M1113.91 655.536V663.76" stroke="#5FAE2C" stroke-width="1.5" stroke-linecap="round" stroke-linejoin="round"/>
<path d="M974.655 654.98V663.204" stroke="#5FAE2C" stroke-width="1.5" stroke-linecap="round" stroke-linejoin="round"/>
<path d="M1016.39 618.725V626.968" stroke="#5FAE2C" stroke-width="1.5" stroke-linecap="round" stroke-linejoin="round"/>
<path d="M1105.67 659.646V667.89" stroke="#5FAE2C" stroke-width="1.5" stroke-linecap="round" stroke-linejoin="round"/>
<path d="M1079.59 623.943V632.187" stroke="#5FAE2C" stroke-width="1.5" stroke-linecap="round" stroke-linejoin="round"/>
<path d="M1086.73 620.919V629.163" stroke="#5FAE2C" stroke-width="1.5" stroke-linecap="round" stroke-linejoin="round"/>
<path d="M982.345 650.317V658.541" stroke="#5FAE2C" stroke-width="1.5" stroke-linecap="round" stroke-linejoin="round"/>
<path d="M989.483 655.793V664.037" stroke="#5FAE2C" stroke-width="1.5" stroke-linecap="round" stroke-linejoin="round"/>
<path d="M1048.26 690.962V699.186" stroke="#5FAE2C" stroke-width="1.5" stroke-linecap="round" stroke-linejoin="round"/>
<path d="M1055.68 685.188V693.431" stroke="#5FAE2C" stroke-width="1.5" stroke-linecap="round" stroke-linejoin="round"/>
<path d="M1063.1 691.239V699.463" stroke="#5FAE2C" stroke-width="1.5" stroke-linecap="round" stroke-linejoin="round"/>
<path d="M1024.09 623.668V631.912" stroke="#5FAE2C" stroke-width="1.5" stroke-linecap="round" stroke-linejoin="round"/>
<path d="M1008.17 624.498V632.722" stroke="#5FAE2C" stroke-width="1.5" stroke-linecap="round" stroke-linejoin="round"/>
<path d="M1121.88 660.199V668.423" stroke="#5FAE2C" stroke-width="1.5" stroke-linecap="round" stroke-linejoin="round"/>
<path d="M1093.58 624.221V632.464" stroke="#5FAE2C" stroke-width="1.5" stroke-linecap="round" stroke-linejoin="round"/>
<path d="M1004.31 575.884C1006.45 577.051 1009.95 577.051 1012.1 575.884C1013.37 575.172 1013.88 574.224 1013.65 573.314V560.523H1002.77V573.314C1002.53 574.224 1003.05 575.172 1004.31 575.884Z" fill="white" stroke="#26144D" stroke-width="1.5" stroke-linecap="round" stroke-linejoin="round"/>
<path d="M1008.13 563.607C1005.04 563.607 1002.53 562.261 1002.53 560.602C1002.53 558.942 1005.04 557.597 1008.13 557.597C1011.22 557.597 1013.72 558.942 1013.72 560.602C1013.72 562.261 1011.22 563.607 1008.13 563.607Z" fill="white" stroke="#26144D" stroke-width="1.5" stroke-linecap="round" stroke-linejoin="round"/>
<path d="M1024.34 586.934C1026.48 588.1 1029.98 588.1 1032.13 586.934C1033.4 586.222 1033.91 585.273 1033.67 584.364V571.573H1022.8V584.364C1022.56 585.273 1023.08 586.222 1024.34 586.934Z" fill="white" stroke="#26144D" stroke-width="1.5" stroke-linecap="round" stroke-linejoin="round"/>
<path d="M1028.14 574.656C1025.05 574.656 1022.54 573.311 1022.54 571.651C1022.54 569.992 1025.05 568.646 1028.14 568.646C1031.23 568.646 1033.73 569.992 1033.73 571.651C1033.73 573.311 1031.23 574.656 1028.14 574.656Z" fill="white" stroke="#26144D" stroke-width="1.5" stroke-linecap="round" stroke-linejoin="round"/>
<path d="M1097.2 545.32C1099.34 546.486 1102.84 546.486 1104.99 545.32C1106.26 544.608 1106.77 543.659 1106.54 542.75V529.959H1095.66V542.75C1095.42 543.659 1095.94 544.608 1097.2 545.32Z" fill="white" stroke="#26144D" stroke-width="1.5" stroke-linecap="round" stroke-linejoin="round"/>
<path d="M1101.02 533.042C1097.93 533.042 1095.42 531.697 1095.42 530.037C1095.42 528.378 1097.93 527.032 1101.02 527.032C1104.11 527.032 1106.61 528.378 1106.61 530.037C1106.61 531.697 1104.11 533.042 1101.02 533.042Z" fill="white" stroke="#26144D" stroke-width="1.5" stroke-linecap="round" stroke-linejoin="round"/>
<path d="M1017.99 542.057C1020.13 543.223 1023.63 543.223 1025.78 542.057C1027.05 541.345 1027.56 540.396 1027.33 539.487V526.696H1016.45V539.487C1016.21 540.396 1016.73 541.345 1017.99 542.057Z" fill="white" stroke="#26144D" stroke-width="1.5" stroke-linecap="round" stroke-linejoin="round"/>
<path d="M1021.79 529.779C1018.7 529.779 1016.19 528.434 1016.19 526.774C1016.19 525.115 1018.7 523.77 1021.79 523.77C1024.88 523.77 1027.38 525.115 1027.38 526.774C1027.38 528.434 1024.88 529.779 1021.79 529.779Z" fill="white" stroke="#26144D" stroke-width="1.5" stroke-linecap="round" stroke-linejoin="round"/>
<path d="M1084.25 516.241C1086.39 517.407 1089.89 517.407 1092.04 516.241C1093.31 515.529 1093.82 514.58 1093.59 513.671V500.88H1082.71V513.671C1082.47 514.58 1082.99 515.529 1084.25 516.241Z" fill="white" stroke="#26144D" stroke-width="1.5" stroke-linecap="round" stroke-linejoin="round"/>
<path d="M1088.07 503.963C1084.98 503.963 1082.47 502.618 1082.47 500.958C1082.47 499.298 1084.98 497.953 1088.07 497.953C1091.16 497.953 1093.67 499.298 1093.67 500.958C1093.67 502.618 1091.16 503.963 1088.07 503.963Z" fill="white" stroke="#26144D" stroke-width="1.5" stroke-linecap="round" stroke-linejoin="round"/>
<path d="M1055.78 675.854L1054.37 595.077L1068.67 588.296L1089.04 658.753" stroke="#26144D" stroke-width="1.5" stroke-linecap="round" stroke-linejoin="round"/>
<path d="M1021.89 657.173L1041.74 587.309V501.273L1054.38 463L1067.54 500.403V588.297L1054.2 581.675L1041.74 587.309L1054.38 595.078V464.759" stroke="#26144D" stroke-width="1.5" stroke-linecap="round" stroke-linejoin="round"/>
<path d="M1088.68 658.756L1055.78 649.108L1021.95 657.352" stroke="#26144D" stroke-width="1.5" stroke-linecap="round" stroke-linejoin="round"/>
<path d="M1033.66 617.318L1055.27 629.259L1076.33 618.722L1055.78 649.107L1033.66 617.318Z" stroke="#26144D" stroke-width="1.5" stroke-linecap="round" stroke-linejoin="round"/>
<path d="M1038.93 601.523L1055.27 610.657L1072.29 603.283L1055.27 629.26L1038.93 601.523Z" stroke="#26144D" stroke-width="1.5" stroke-linecap="round" stroke-linejoin="round"/>
<path d="M1096.35 528.495L1027.86 567.638L1054.38 540.258L1066.85 532.884L1096.35 528.495Z" stroke="#26144D" stroke-width="1.5" stroke-linecap="round" stroke-linejoin="round"/>
<path d="M1082.66 520.667L1014.16 559.81L1040.68 532.43L1053.15 525.056L1082.66 520.667Z" stroke="#26144D" stroke-width="1.5" stroke-linecap="round" stroke-linejoin="round"/>
<path d="M1085.1 503.388L1037 529.899L1054.02 508.291L1067.55 500.403L1085.1 503.388Z" stroke="#26144D" stroke-width="1.5" stroke-linecap="round" stroke-linejoin="round"/>
<path d="M1071.6 497.419L1023.47 523.929L1040.52 502.322L1054.02 494.434L1071.6 497.419Z" stroke="#26144D" stroke-width="1.5" stroke-linecap="round" stroke-linejoin="round"/>
<path d="M1081.42 636.812L1055.78 675.856L1029.62 634.005L1055.78 649.109L1081.25 635.586" stroke="#26144D" stroke-width="1.5" stroke-linecap="round" stroke-linejoin="round"/>
<path d="M1068.08 589.404L1054.56 609.431L1042.44 589.582" stroke="#26144D" stroke-width="1.5" stroke-linecap="round" stroke-linejoin="round"/>
<path d="M1054.02 508.292L1041.74 501.273" stroke="#26144D" stroke-width="1.5" stroke-linecap="round" stroke-linejoin="round"/>
<path d="M1027.86 567.638L1014.34 559.908" stroke="#26144D" stroke-width="1.5" stroke-linecap="round" stroke-linejoin="round"/>
<path d="M1096.35 528.497L1082.65 521.123" stroke="#26144D" stroke-width="1.5" stroke-linecap="round" stroke-linejoin="round"/>
<path d="M1037 529.898L1023.47 523.928" stroke="#26144D" stroke-width="1.5" stroke-linecap="round" stroke-linejoin="round"/>
<path d="M1085.1 503.388L1071.6 497.418" stroke="#26144D" stroke-width="1.5" stroke-linecap="round" stroke-linejoin="round"/>
<path d="M1066.85 532.885L1055.78 525.689" stroke="#26144D" stroke-width="1.5" stroke-linecap="round" stroke-linejoin="round"/>
<path d="M1054.38 540.259L1042.1 532.707" stroke="#26144D" stroke-width="1.5" stroke-linecap="round" stroke-linejoin="round"/>
<path d="M1066.68 566.947L1055.09 572.028L1042.43 564.12" stroke="#26144D" stroke-width="1.5" stroke-linecap="round" stroke-linejoin="round"/>
<g style="mix-blend-mode:multiply" opacity="0.46">
<path d="M1021 657.603L1100.39 704.357L1134.44 684.034L1056.43 639L1021 657.603Z" fill="#B2B4B3"/>
</g>
<g style="mix-blend-mode:multiply" opacity="0.46">
<path d="M1184 760.603L1263.39 807.357L1297.44 787.034L1219.43 742L1184 760.603Z" fill="#B2B4B3"/>
</g>
<path d="M1266.07 637.862C1266.07 637.862 1227.33 629.618 1179.12 600.794C1130.66 571.813 1104.54 545.184 1104.54 545.184" stroke="#D9D9D9" stroke-width="2" stroke-linecap="round" stroke-linejoin="round"/>
<path d="M1252.07 610.658C1252.07 610.658 1213.33 602.414 1165.12 573.59C1116.66 544.609 1090.54 517.979 1090.54 517.979" stroke="#D9D9D9" stroke-width="2" stroke-linecap="round" stroke-linejoin="round"/>
<path d="M1185.31 635.37C1185.31 635.37 1146.58 627.126 1098.37 598.302C1049.91 569.321 1023.79 542.691 1023.79 542.691" stroke="#D9D9D9" stroke-width="2" stroke-linecap="round" stroke-linejoin="round"/>
<path d="M1172.96 673.288C1172.96 673.288 1153.99 670.401 1105.79 641.558C1057.32 612.576 1031.2 585.947 1031.2 585.947" stroke="#D9D9D9" stroke-width="2" stroke-linecap="round" stroke-linejoin="round"/>
<path d="M1167.28 679.14C1169.42 680.306 1172.92 680.306 1175.07 679.14C1176.34 678.428 1176.85 677.479 1176.61 676.57V663.779H1165.74V676.57C1165.5 677.479 1166.02 678.428 1167.28 679.14Z" fill="white" stroke="#26144D" stroke-width="1.5" stroke-linecap="round" stroke-linejoin="round"/>
<path d="M1171.1 666.862C1168.01 666.862 1165.5 665.517 1165.5 663.857C1165.5 662.198 1168.01 660.853 1171.1 660.853C1174.19 660.853 1176.69 662.198 1176.69 663.857C1176.69 665.517 1174.19 666.862 1171.1 666.862Z" fill="white" stroke="#26144D" stroke-width="1.5" stroke-linecap="round" stroke-linejoin="round"/>
<path d="M1187.31 690.209C1189.45 691.376 1192.95 691.376 1195.1 690.209C1196.37 689.498 1196.88 688.549 1196.64 687.639V674.849H1185.77V687.639C1185.53 688.549 1186.04 689.498 1187.31 690.209Z" fill="white" stroke="#26144D" stroke-width="1.5" stroke-linecap="round" stroke-linejoin="round"/>
<path d="M1191.11 677.932C1188.02 677.932 1185.51 676.586 1185.51 674.927C1185.51 673.267 1188.02 671.922 1191.11 671.922C1194.2 671.922 1196.7 673.267 1196.7 674.927C1196.7 676.586 1194.2 677.932 1191.11 677.932Z" fill="white" stroke="#26144D" stroke-width="1.5" stroke-linecap="round" stroke-linejoin="round"/>
<path d="M1260.17 648.595C1262.31 649.761 1265.81 649.761 1267.96 648.595C1269.23 647.883 1269.74 646.934 1269.51 646.025V633.234H1258.63V646.025C1258.39 646.934 1258.91 647.883 1260.17 648.595Z" fill="white" stroke="#26144D" stroke-width="1.5" stroke-linecap="round" stroke-linejoin="round"/>
<path d="M1263.99 636.317C1260.9 636.317 1258.4 634.972 1258.4 633.313C1258.4 631.653 1260.9 630.308 1263.99 630.308C1267.08 630.308 1269.59 631.653 1269.59 633.313C1269.59 634.972 1267.08 636.317 1263.99 636.317Z" fill="white" stroke="#26144D" stroke-width="1.5" stroke-linecap="round" stroke-linejoin="round"/>
<path d="M1180.96 645.314C1183.1 646.48 1186.6 646.48 1188.76 645.314C1190.02 644.602 1190.53 643.653 1190.3 642.744V629.953H1179.42V642.744C1179.18 643.653 1179.7 644.602 1180.96 645.314Z" fill="white" stroke="#26144D" stroke-width="1.5" stroke-linecap="round" stroke-linejoin="round"/>
<path d="M1184.76 633.036C1181.67 633.036 1179.16 631.691 1179.16 630.031C1179.16 628.372 1181.67 627.026 1184.76 627.026C1187.85 627.026 1190.36 628.372 1190.36 630.031C1190.36 631.691 1187.85 633.036 1184.76 633.036Z" fill="white" stroke="#26144D" stroke-width="1.5" stroke-linecap="round" stroke-linejoin="round"/>
<path d="M1247.22 619.495C1249.36 620.662 1252.86 620.662 1255.01 619.495C1256.28 618.784 1256.79 617.835 1256.56 616.925V604.135H1245.68V616.925C1245.44 617.835 1245.96 618.784 1247.22 619.495Z" fill="white" stroke="#26144D" stroke-width="1.5" stroke-linecap="round" stroke-linejoin="round"/>
<path d="M1251.04 607.218C1247.95 607.218 1245.44 605.873 1245.44 604.213C1245.44 602.553 1247.95 601.208 1251.04 601.208C1254.13 601.208 1256.64 602.553 1256.64 604.213C1256.64 605.873 1254.13 607.218 1251.04 607.218Z" fill="white" stroke="#26144D" stroke-width="1.5" stroke-linecap="round" stroke-linejoin="round"/>
<path d="M1218.75 779.11L1217.35 698.353L1231.62 691.572L1252.01 762.03" stroke="#26144D" stroke-width="1.5" stroke-linecap="round" stroke-linejoin="round"/>
<path d="M1184.86 760.45L1204.71 690.565V604.55L1217.34 566.276L1230.51 603.66V691.574L1217.17 684.951L1204.71 690.565L1217.34 698.355V568.016" stroke="#26144D" stroke-width="1.5" stroke-linecap="round" stroke-linejoin="round"/>
<path d="M1251.65 762.031L1218.75 752.364L1184.92 760.628" stroke="#26144D" stroke-width="1.5" stroke-linecap="round" stroke-linejoin="round"/>
<path d="M1196.63 720.595L1218.24 732.535L1239.3 721.998L1218.75 752.364L1196.63 720.595Z" stroke="#26144D" stroke-width="1.5" stroke-linecap="round" stroke-linejoin="round"/>
<path d="M1201.9 704.8L1218.24 713.913L1235.26 706.54L1218.24 732.536L1201.9 704.8Z" stroke="#26144D" stroke-width="1.5" stroke-linecap="round" stroke-linejoin="round"/>
<path d="M1259.32 631.752L1190.83 670.915L1217.35 643.515L1229.82 636.141L1259.32 631.752Z" stroke="#26144D" stroke-width="1.5" stroke-linecap="round" stroke-linejoin="round"/>
<path d="M1245.62 623.924L1177.13 663.067L1203.64 635.687L1216.12 628.313L1245.62 623.924Z" stroke="#26144D" stroke-width="1.5" stroke-linecap="round" stroke-linejoin="round"/>
<path d="M1248.08 606.644L1199.97 633.155L1216.99 611.567L1230.52 603.659L1248.08 606.644Z" stroke="#26144D" stroke-width="1.5" stroke-linecap="round" stroke-linejoin="round"/>
<path d="M1234.55 600.675L1186.44 627.185L1203.48 605.597L1216.99 597.689L1234.55 600.675Z" stroke="#26144D" stroke-width="1.5" stroke-linecap="round" stroke-linejoin="round"/>
<path d="M1244.39 740.088L1218.75 779.113L1192.59 737.281L1218.75 752.365L1244.22 738.843" stroke="#26144D" stroke-width="1.5" stroke-linecap="round" stroke-linejoin="round"/>
<path d="M1231.05 692.681L1217.52 712.687L1205.4 692.859" stroke="#26144D" stroke-width="1.5" stroke-linecap="round" stroke-linejoin="round"/>
<path d="M1216.99 611.568L1204.72 604.55" stroke="#26144D" stroke-width="1.5" stroke-linecap="round" stroke-linejoin="round"/>
<path d="M1190.83 670.914L1177.31 663.185" stroke="#26144D" stroke-width="1.5" stroke-linecap="round" stroke-linejoin="round"/>
<path d="M1259.32 631.753L1245.62 624.379" stroke="#26144D" stroke-width="1.5" stroke-linecap="round" stroke-linejoin="round"/>
<path d="M1199.97 633.155L1186.44 627.185" stroke="#26144D" stroke-width="1.5" stroke-linecap="round" stroke-linejoin="round"/>
<path d="M1248.08 606.644L1234.55 600.674" stroke="#26144D" stroke-width="1.5" stroke-linecap="round" stroke-linejoin="round"/>
<path d="M1229.82 636.141L1218.75 628.945" stroke="#26144D" stroke-width="1.5" stroke-linecap="round" stroke-linejoin="round"/>
<path d="M1217.35 643.515L1205.07 635.963" stroke="#26144D" stroke-width="1.5" stroke-linecap="round" stroke-linejoin="round"/>
<path d="M1229.64 670.204L1218.06 675.304L1205.4 667.396" stroke="#26144D" stroke-width="1.5" stroke-linecap="round" stroke-linejoin="round"/>
<path d="M1452.5 732.5C1452.5 732.5 1382.07 717.668 1342.33 695.815C1310.18 678.132 1267.5 639 1267.5 639" stroke="#D9D9D9" stroke-width="2" stroke-linecap="round" stroke-linejoin="round"/>
<path d="M1456 712C1456 712 1395.56 702.368 1360 687C1313.58 666.942 1253.75 613 1253.75 613" stroke="#D9D9D9" stroke-width="2" stroke-linecap="round" stroke-linejoin="round"/>
<path d="M1448.5 757.5C1448.5 757.5 1350.05 742.067 1294 714C1248.11 691.021 1186 633 1186 633" stroke="#D9D9D9" stroke-width="2" stroke-linecap="round" stroke-linejoin="round"/>
<path d="M1446.5 784C1446.5 784 1331.29 772.182 1269 736.579C1236.57 718.043 1193 678.5 1193 678.5" stroke="#D9D9D9" stroke-width="2" stroke-linecap="round" stroke-linejoin="round"/>
</g>
<defs>
<clipPath id="clip0_1107_34">
<rect width="223" height="227" fill="white" transform="translate(429 205)"/>
</clipPath>
</defs>
</svg>
