<svg width="166" height="138" fill="none" xmlns="http://www.w3.org/2000/svg"><path d="M106.669 24.216c.051-2.986 2.148-6.717 4.678-8.337 1.511-.941 2.819-.933 3.643-.136l24.724 13.969-6.53 11.653-24.724-13.969c-1.103-.28-1.8-1.39-1.783-3.172l-.008-.008z" fill="#248CFF" stroke="#26144D" stroke-width="1.5" stroke-linecap="round" stroke-linejoin="round"/><path d="M139.542 37.275c1.826-3.258 1.881-6.696.121-7.68-1.759-.984-4.665.859-6.491 4.116-1.826 3.257-1.881 6.695-.121 7.68 1.759.983 4.665-.86 6.491-4.116z" fill="#0069EA" stroke="#26144D" stroke-width="1.5" stroke-linecap="round" stroke-linejoin="round"/><path d="M83.068 121.106L1.136 73.848 83.068 26.6l81.933 47.248-81.933 47.258z" fill="#8ED760" stroke="#26144D" stroke-width="1.5" stroke-linecap="round" stroke-linejoin="round"/><path d="M82.932 137.092L1 89.835V73.73l81.932 47.257v16.105z" fill="#956054" stroke="#26144D" stroke-width="1.5" stroke-linecap="round" stroke-linejoin="round"/><path d="M164.942 89.953L83.01 137.211v-16.106l81.932-47.257v16.105z" fill="#A9776B" stroke="#26144D" stroke-width="1.5" stroke-linecap="round" stroke-linejoin="round"/><path d="M32.484 69.318v5.19m114.298-3.418v5.191M37.69 71.914v5.19m104.236-8.956v5.19m-4.506-1.728v5.19m-52.423 26.63v5.19m-4.677-8.829v5.199m-4.677-1.383v5.191M27.467 72.262v5.19" stroke="#5FAE2C" stroke-width="1.5" stroke-linecap="round" stroke-linejoin="round"/><path d="M75.697 51.594l-9.186-5.351.06-25.571 9.186 5.351-.06 25.571z" fill="#fff" stroke="#000" stroke-width="1.5" stroke-linecap="round" stroke-linejoin="round"/><path d="M75.757 26.023L66.57 20.67l8.406-4.843 9.178 5.352-8.397 4.843z" fill="#248CFF" stroke="#26144D" stroke-width="1.5" stroke-linecap="round" stroke-linejoin="round"/><path d="M69.625 20.816l5.655-3.18" stroke="#fff" stroke-width="1.5" stroke-linecap="round" stroke-linejoin="round"/><path d="M84.156 21.18l-.051 25.572-8.406 4.842.06-25.57 8.397-4.843z" fill="#fff" stroke="#000" stroke-width="1.5" stroke-linecap="round" stroke-linejoin="round"/><path d="M64.25 58.192l-9.178-5.352.051-25.57 9.187 5.36-.06 25.562z" fill="#004DA9" stroke="#26144D" stroke-width="1.5" stroke-linecap="round" stroke-linejoin="round"/><path d="M64.31 32.63l-9.187-5.36 8.406-4.842 9.186 5.351-8.405 4.852z" fill="#248CFF" stroke="#26144D" stroke-width="1.5" stroke-linecap="round" stroke-linejoin="round"/><path d="M58.163 27.49l5.663-3.18" stroke="#fff" stroke-width="1.5" stroke-linecap="round" stroke-linejoin="round"/><path d="M72.719 27.78l-.06 25.57-8.405 4.843.06-25.563 8.405-4.85z" fill="#fff" stroke="#000" stroke-width="1.5" stroke-linecap="round" stroke-linejoin="round"/><path d="M55.599 89.08l40.872 24.036 53.965-30.753L126.723 67.7 55.599 89.08z" fill="#B2B4B3" opacity=".46"/><path d="M52.816 64.79l-9.187-5.351.06-25.57 9.178 5.36-.051 25.562z" fill="#004DA9" stroke="#26144D" stroke-width="1.5" stroke-linecap="round" stroke-linejoin="round"/><path d="M52.867 39.228l-9.178-5.36 8.397-4.843 9.186 5.352-8.405 4.851z" fill="#248CFF" stroke="#26144D" stroke-width="1.5" stroke-linecap="round" stroke-linejoin="round"/><path d="M61.272 34.376l-.06 25.57-8.397 4.844.051-25.563 8.406-4.851z" fill="#fff" stroke="#000" stroke-width="1.5" stroke-linecap="round" stroke-linejoin="round"/><path d="M78.023 95.374L42.975 75.155V40.883l35.048 20.219v34.273z" fill="#004DA9" stroke="#26144D" stroke-width="1.5" stroke-linecap="round" stroke-linejoin="round"/><path d="M128.371 66.334l-50.349 29.04V61.1l50.349-29.04v34.273z" fill="#0069EA" stroke="#26144D" stroke-width="1.5" stroke-linecap="round" stroke-linejoin="round"/><path d="M78.023 61.102l-35.048-20.22 50.348-29.03 35.048 20.21-50.348 29.04z" fill="#248CFF" stroke="#26144D" stroke-width="1.5" stroke-linecap="round" stroke-linejoin="round"/><path d="M65.976 48.134l16.165 9.838 7.964-4.24-15.885-9.228-8.244 3.63zm14.567-9.89l17.932 10.482 7.667-4.478-16.277-9.541-9.322 3.537zm16.636-8.37l16.751 9.66 7.786-4.24-16.302-9.059-8.235 3.639z" fill="#B2B4B3" opacity=".46"/><path d="M51.177 52.145l16.514 9.303m-16.514-5.062L67.69 65.69m-16.513-4.827l16.514 9.304m-16.514-4.944l16.514 9.303" stroke="#26144D" stroke-width="1.5" stroke-linecap="round" stroke-linejoin="round"/><path d="M120.28 81.55l-9.186-5.36.059-25.563 9.187 5.352-.06 25.57z" fill="#004DA9" stroke="#26144D" stroke-width="1.5" stroke-linecap="round" stroke-linejoin="round"/><path d="M120.338 55.98l-9.187-5.352 8.406-4.852 9.178 5.36-8.397 4.843z" fill="#248CFF" stroke="#26144D" stroke-width="1.5" stroke-linecap="round" stroke-linejoin="round"/><path d="M128.736 51.137l-.051 25.57-8.406 4.843.06-25.57 8.397-4.843z" fill="#0069EA" stroke="#26144D" stroke-width="1.5" stroke-linecap="round" stroke-linejoin="round"/><path d="M108.835 88.148l-9.178-5.352.051-25.57 9.187 5.351-.06 25.571z" fill="#004DA9" stroke="#26144D" stroke-width="1.5" stroke-linecap="round" stroke-linejoin="round"/><path d="M108.894 62.577l-9.187-5.352 8.406-4.851 9.186 5.36-8.405 4.843z" fill="#248CFF" stroke="#26144D" stroke-width="1.5" stroke-linecap="round" stroke-linejoin="round"/><path d="M117.298 57.734l-.059 25.571-8.406 4.843.059-25.57 8.406-4.844z" fill="#0069EA" stroke="#26144D" stroke-width="1.5" stroke-linecap="round" stroke-linejoin="round"/><path d="M97.398 94.746l-9.187-5.352.06-25.57 9.177 5.35-.05 25.572z" fill="#004DA9" stroke="#26144D" stroke-width="1.5" stroke-linecap="round" stroke-linejoin="round"/><path d="M97.448 69.176l-9.178-5.352 8.397-4.843 9.186 5.352-8.405 4.843z" fill="#248CFF" stroke="#26144D" stroke-width="1.5" stroke-linecap="round" stroke-linejoin="round"/><path d="M105.855 64.333l-.06 25.57-8.397 4.844.051-25.571 8.406-4.843z" fill="#0069EA" stroke="#26144D" stroke-width="1.5" stroke-linecap="round" stroke-linejoin="round"/><path d="M67.444 95.552L42.151 80.905l.06-11.297 25.293 14.647-.06 11.297z" fill="#004DA9" stroke="#26144D" stroke-width="1.5" stroke-linecap="round" stroke-linejoin="round"/><path d="M67.504 84.256L42.21 69.609l5.162-2.977 25.293 14.647-5.162 2.977z" fill="#248CFF" stroke="#26144D" stroke-width="1.5" stroke-linecap="round" stroke-linejoin="round"/><path d="M72.667 81.278l-.06 11.297-5.162 2.977.06-11.297 5.162-2.977z" fill="#0069EA" stroke="#26144D" stroke-width="1.5" stroke-linecap="round" stroke-linejoin="round"/><path d="M103.069 29.262c-2.097.874-5.324.535-7.209-.754-1.103-.772-1.494-1.705-1.18-2.52l1.24-11.822 10.069 1.052-1.239 11.823c.136.864-.433 1.696-1.681 2.221z" fill="#fff" stroke="#26144D" stroke-width="1.5" stroke-linecap="round" stroke-linejoin="round"/><path d="M105.022 24.131c.136.865-.433 1.696-1.672 2.222-2.089.874-5.298.534-7.166-.746-1.104-.772-1.486-1.705-1.172-2.52" fill="#fff"/><path d="M105.022 24.131c.136.865-.433 1.696-1.672 2.222-2.089.874-5.298.534-7.166-.746-1.104-.772-1.486-1.705-1.172-2.52" stroke="#26144D" stroke-width="1.5" stroke-linecap="round" stroke-linejoin="round"/><path d="M105.346 21.08c.136.864-.433 1.696-1.673 2.221-2.089.874-5.298.535-7.166-.746-1.104-.772-1.486-1.705-1.172-2.519" fill="#fff"/><path d="M105.346 21.08c.136.864-.433 1.696-1.673 2.221-2.089.874-5.298.535-7.166-.746-1.104-.772-1.486-1.705-1.172-2.519" stroke="#26144D" stroke-width="1.5" stroke-linecap="round" stroke-linejoin="round"/><path d="M105.675 18.186c.136.865-.433 1.696-1.673 2.222-2.088.873-5.298.534-7.166-.747-1.103-.771-1.486-1.704-1.171-2.518" fill="#fff"/><path d="M105.675 18.186c.136.865-.433 1.696-1.673 2.222-2.088.873-5.298.534-7.166-.747-1.103-.771-1.486-1.704-1.171-2.518" stroke="#26144D" stroke-width="1.5" stroke-linecap="round" stroke-linejoin="round"/><path d="M106.275 14.467c.161-1.537-2.022-3.026-4.876-3.324-2.854-.3-5.298.705-5.46 2.242-.16 1.538 2.022 3.026 4.876 3.325 2.854.298 5.299-.706 5.46-2.243z" fill="#fff" stroke="#26144D" stroke-width="1.5" stroke-linecap="round" stroke-linejoin="round"/><path d="M106.657 10.854c.161-1.538-2.022-3.026-4.876-3.325-2.854-.298-5.299.706-5.46 2.243-.161 1.537 2.022 3.026 4.876 3.324 2.854.3 5.299-.705 5.46-2.242z" fill="#fff" stroke="#26144D" stroke-width="1.5" stroke-linecap="round" stroke-linejoin="round"/><path d="M103.044 10.104c-.773.314-1.961.195-2.658-.28-.407-.28-.551-.619-.441-.916l.45-4.3 3.719.39-.45 4.3c.051.314-.162.62-.62.806z" fill="#fff" stroke="#26144D" stroke-width="1.5" stroke-linecap="round" stroke-linejoin="round"/><path d="M104.137 5.016c.059-.56-.737-1.1-1.777-1.21-1.04-.108-1.931.257-1.989.816-.059.559.737 1.1 1.777 1.209 1.04.109 1.93-.256 1.989-.815z" fill="#fff" stroke="#26144D" stroke-width="1.5" stroke-linecap="round" stroke-linejoin="round"/><path d="M107.557 4.865c.161-1.537-2.022-3.025-4.876-3.324-2.854-.299-5.298.706-5.46 2.243-.16 1.537 2.022 3.025 4.877 3.324 2.854.299 5.298-.705 5.459-2.243z" fill="#E40133" stroke="#26144D" stroke-width="1.5" stroke-linecap="round" stroke-linejoin="round"/><path d="M88.444 37.93c-1.996 1.086-5.24 1.086-7.243 0-1.18-.653-1.664-1.535-1.435-2.383v-11.89h10.12v11.89c.222.848-.254 1.73-1.434 2.383h-.008z" fill="#fff" stroke="#26144D" stroke-width="1.5" stroke-linecap="round" stroke-linejoin="round"/><path d="M89.85 32.62c.22.848-.255 1.73-1.426 2.383-1.987 1.086-5.214 1.086-7.209 0-1.172-.653-1.656-1.535-1.426-2.383" fill="#fff"/><path d="M89.85 32.62c.22.848-.255 1.73-1.426 2.383-1.987 1.086-5.214 1.086-7.209 0-1.172-.653-1.656-1.535-1.426-2.383" stroke="#26144D" stroke-width="1.5" stroke-linecap="round" stroke-linejoin="round"/><path d="M89.85 29.56c.22.848-.255 1.73-1.426 2.383-1.987 1.085-5.214 1.085-7.209 0-1.172-.653-1.656-1.535-1.426-2.383" fill="#fff"/><path d="M89.85 29.56c.22.848-.255 1.73-1.426 2.383-1.987 1.085-5.214 1.085-7.209 0-1.172-.653-1.656-1.535-1.426-2.383" stroke="#26144D" stroke-width="1.5" stroke-linecap="round" stroke-linejoin="round"/><path d="M89.875 26.642c.221.848-.254 1.73-1.426 2.383-1.987 1.085-5.213 1.085-7.209 0-1.171-.653-1.655-1.535-1.426-2.383" fill="#fff"/><path d="M89.875 26.642c.221.848-.254 1.73-1.426 2.383-1.987 1.085-5.213 1.085-7.209 0-1.171-.653-1.655-1.535-1.426-2.383" stroke="#26144D" stroke-width="1.5" stroke-linecap="round" stroke-linejoin="round"/><path d="M84.892 25.683c2.87 0 5.197-1.253 5.197-2.798 0-1.546-2.327-2.8-5.197-2.8s-5.196 1.254-5.196 2.8c0 1.545 2.327 2.798 5.196 2.798z" fill="#fff" stroke="#26144D" stroke-width="1.5" stroke-linecap="round" stroke-linejoin="round"/><path d="M84.892 22.054c2.87 0 5.197-1.253 5.197-2.8 0-1.545-2.327-2.798-5.197-2.798s-5.196 1.253-5.196 2.799 2.327 2.799 5.196 2.799z" fill="#fff" stroke="#26144D" stroke-width="1.5" stroke-linecap="round" stroke-linejoin="round"/><path d="M86.412 18.882c-.739.398-1.936.398-2.674 0-.433-.238-.612-.56-.535-.865V13.69h3.736v4.326c.084.305-.094.627-.535.865h.008z" fill="#fff" stroke="#26144D" stroke-width="1.5" stroke-linecap="round" stroke-linejoin="round"/><path d="M85.079 14.735c1.046 0 1.893-.456 1.893-1.018s-.847-1.018-1.893-1.018-1.893.456-1.893 1.018.847 1.018 1.893 1.018z" fill="#fff" stroke="#26144D" stroke-width="1.5" stroke-linecap="round" stroke-linejoin="round"/><path d="M85.166 15.998c2.87 0 5.196-1.253 5.196-2.799S88.036 10.4 85.166 10.4c-2.87 0-5.196 1.253-5.196 2.8 0 1.545 2.326 2.798 5.196 2.798z" fill="#E40133" stroke="#26144D" stroke-width="1.5" stroke-linecap="round" stroke-linejoin="round"/><path d="M73.142 47.073c-1.817 1.366-5.027 1.84-7.166 1.06-1.265-.474-1.868-1.28-1.775-2.145l-1.749-11.764 10.01-1.484 1.75 11.764c.347.805 0 1.747-1.07 2.57z" fill="#fff" stroke="#26144D" stroke-width="1.5" stroke-linecap="round" stroke-linejoin="round"/><path d="M73.759 41.612c.34.806 0 1.747-1.061 2.57-1.8 1.366-4.993 1.84-7.124 1.06-1.256-.475-1.86-1.28-1.766-2.145" fill="#fff"/><path d="M73.759 41.612c.34.806 0 1.747-1.061 2.57-1.8 1.366-4.993 1.84-7.124 1.06-1.256-.475-1.86-1.28-1.766-2.145" stroke="#26144D" stroke-width="1.5" stroke-linecap="round" stroke-linejoin="round"/><path d="M73.31 38.584c.34.806 0 1.747-1.06 2.57-1.8 1.365-4.993 1.84-7.124 1.06-1.257-.475-1.86-1.28-1.766-2.146" fill="#fff"/><path d="M73.31 38.584c.34.806 0 1.747-1.06 2.57-1.8 1.365-4.993 1.84-7.124 1.06-1.257-.475-1.86-1.28-1.766-2.146" stroke="#26144D" stroke-width="1.5" stroke-linecap="round" stroke-linejoin="round"/><path d="M72.911 35.691c.34.806 0 1.747-1.061 2.57-1.8 1.366-4.992 1.84-7.123 1.06-1.257-.475-1.86-1.28-1.766-2.145" fill="#fff"/><path d="M72.911 35.691c.34.806 0 1.747-1.061 2.57-1.8 1.366-4.992 1.84-7.123 1.06-1.257-.475-1.86-1.28-1.766-2.145" stroke="#26144D" stroke-width="1.5" stroke-linecap="round" stroke-linejoin="round"/><path d="M67.84 35.464c2.838-.421 4.955-2.002 4.728-3.53-.227-1.53-2.712-2.428-5.551-2.007-2.839.42-4.956 2.001-4.729 3.53.227 1.529 2.713 2.427 5.551 2.007z" fill="#fff" stroke="#26144D" stroke-width="1.5" stroke-linecap="round" stroke-linejoin="round"/><path d="M67.301 31.874c2.839-.421 4.956-2.002 4.729-3.53-.227-1.53-2.713-2.428-5.551-2.007-2.839.42-4.956 2.001-4.729 3.53.227 1.53 2.713 2.427 5.551 2.007z" fill="#fff" stroke="#26144D" stroke-width="1.5" stroke-linecap="round" stroke-linejoin="round"/><path d="M68.346 28.517c-.67.5-1.851.67-2.65.39-.466-.17-.687-.467-.653-.78l-.637-4.275 3.694-.551.636 4.274c.128.297 0 .636-.399.933l.009.009z" fill="#fff" stroke="#26144D" stroke-width="1.5" stroke-linecap="round" stroke-linejoin="round"/><path d="M66.418 24.607c1.034-.153 1.806-.728 1.723-1.284-.082-.556-.988-.883-2.022-.73-1.034.154-1.806.729-1.723 1.285.082.556.988.882 2.022.729z" fill="#fff" stroke="#26144D" stroke-width="1.5" stroke-linecap="round" stroke-linejoin="round"/><path d="M66.686 25.848c2.839-.42 4.956-2 4.729-3.53-.228-1.529-2.713-2.427-5.552-2.007-2.838.421-4.955 2.002-4.728 3.53.227 1.53 2.712 2.428 5.551 2.007z" fill="#E40133" stroke="#26144D" stroke-width="1.5" stroke-linecap="round" stroke-linejoin="round"/><path d="M47.11 41.01l30.608 17.675m33.494-40.949l22.058 12.85m-53.075 59.91V62.567l43.166-24.918m-76.515-3.713l5.663-3.18" stroke="#fff" stroke-width="1.5" stroke-linecap="round" stroke-linejoin="round"/></svg>