<svg width="227" height="246" fill="none" xmlns="http://www.w3.org/2000/svg"><path d="M225.879 199.166l-5.981 3.906-139.254-102.37L75.656 3.99 80.644 1l145.068 83.75.167 114.416z" fill="#85898C" stroke="#26144D" stroke-width="1.5" stroke-linecap="round" stroke-linejoin="round"/><path d="M220.724 187.449l-145.06-83.757V3.99l145.06 83.751v99.708z" fill="#9DA0A3" stroke="#26144D" stroke-width="1.5" stroke-linecap="round" stroke-linejoin="round"/><path d="M213.409 172.175l-14.444-8.338c-1.017-.586-1.842-2.165-1.842-3.522v-2.56c0-1.358.825-1.98 1.842-1.394l14.444 8.338c1.017.586 1.842 2.165 1.842 3.522v2.56c0 1.358-.825 1.98-1.842 1.394zm-6.979-12.962l-14.444-8.338c-1.017-.586-1.842-2.165-1.842-3.522v-2.56c0-1.358.825-1.98 1.842-1.394l14.444 8.338c1.016.586 1.842 2.165 1.842 3.522v2.56c0 1.358-.826 1.98-1.842 1.394zm-18.691-24.922l-14.444-8.337c-1.016-.587-1.842-2.166-1.842-3.523v-2.56c0-1.358.826-1.98 1.842-1.394l14.444 8.338c1.017.586 1.842 2.165 1.842 3.523v2.559c0 1.358-.825 1.98-1.842 1.394zm7.477-4.736l-14.444-8.338c-1.017-.586-1.842-2.165-1.842-3.523v-2.559c0-1.358.825-1.98 1.842-1.394l14.444 8.337c1.017.587 1.842 2.166 1.842 3.523v2.56c0 1.358-.825 1.98-1.842 1.394zm-94.72-73.285l-14.444-8.338c-1.017-.586-1.842-2.165-1.842-3.523v-2.56c0-1.357.825-1.98 1.842-1.393l14.444 8.337c1.017.586 1.842 2.165 1.842 3.523v2.56c0 1.358-.825 1.98-1.842 1.394zm8.474-4.24l-14.444-8.338c-1.017-.586-1.842-2.165-1.842-3.523v-2.56c0-1.358.825-1.98 1.842-1.393l14.444 8.337c1.016.586 1.842 2.165 1.842 3.523v2.56c0 1.357-.826 1.98-1.842 1.393zm26.173 37.889l-14.444-8.337c-1.017-.587-1.843-2.166-1.843-3.523v-2.56c0-1.358.826-1.98 1.843-1.394l14.444 8.338c1.016.586 1.842 2.165 1.842 3.523v2.56c0 1.357-.826 1.979-1.842 1.393zm8.726-4.486l-14.444-8.337c-1.017-.586-1.842-2.165-1.842-3.523v-2.56c0-1.357.825-1.98 1.842-1.393l14.444 8.337c1.017.587 1.842 2.166 1.842 3.523v2.56c0 1.358-.825 1.98-1.842 1.393zm32.65 2.99l-14.443-8.338c-1.017-.586-1.843-2.165-1.843-3.522v-2.56c0-1.358.826-1.98 1.843-1.394l14.443 8.338c1.017.586 1.843 2.165 1.843 3.522v2.56c0 1.358-.826 1.98-1.843 1.394zm-8.72-14.211l-14.444-8.338c-1.017-.586-1.842-2.165-1.842-3.522v-2.56c0-1.358.825-1.98 1.842-1.394l14.444 8.338c1.017.586 1.842 2.165 1.842 3.522v2.56c0 1.358-.825 1.98-1.842 1.394zm19.688 11.221l-14.444-8.337c-1.016-.586-1.842-2.165-1.842-3.523v-2.56c0-1.357.826-1.98 1.842-1.393l14.444 8.337c1.017.587 1.842 2.166 1.842 3.523v2.56c0 1.358-.825 1.98-1.842 1.393zm-91.98-59.325l-14.444-8.337c-1.017-.586-1.842-2.165-1.842-3.523v-2.56c0-1.357.825-1.98 1.842-1.393l14.444 8.337c1.016.586 1.842 2.165 1.842 3.523v2.56c0 1.357-.826 1.98-1.842 1.393z" fill="#BCBCBC"/><path d="M220.725 87.741l4.988-2.99" stroke="#26144D" stroke-width="1.5" stroke-linecap="round" stroke-linejoin="round"/><path d="M147.433 229.978L1.123 145.77l74.803-43.161 146.312 84.208-74.805 43.161z" fill="#4DA5FF" stroke="#26144D" stroke-width="1.5" stroke-linecap="round" stroke-linejoin="round"/><path d="M147.311 244.581L1 160.367v-14.711l146.311 84.208v14.717z" fill="#999" stroke="#26144D" stroke-width="1.5" stroke-linecap="round" stroke-linejoin="round"/><path d="M222.184 201.527l-74.804 43.161v-14.711l74.804-43.161v14.711z" fill="#D9D9D9" stroke="#26144D" stroke-width="1.5" stroke-linecap="round" stroke-linejoin="round"/><path d="M132.019 209.933l24.365 14.819 57.898-32.812-29.658-19.403-52.605 37.396z" fill="#B2B4B3" opacity=".46"/><path d="M137.204 213.05L30.519 151.28V82.64l106.685 61.764v68.646z" fill="#004DA9" stroke="#26144D" stroke-width="1.5" stroke-linecap="round" stroke-linejoin="round"/><path d="M137.219 144.246L30.533 82.476l53.54-30.888 106.679 61.77-53.533 30.888zm53.581 37.91l-53.539 30.888v-68.64L190.8 113.51v68.646z" fill="#0069EA" stroke="#26144D" stroke-width="1.5" stroke-linecap="round" stroke-linejoin="round"/><path d="M117.514 159.02v34.666l-32.332-18.654v-34.666l2.516 1.454 29.816 17.2z" stroke="#26144D" stroke-width="1.5" stroke-linecap="round" stroke-linejoin="round"/><path d="M117.515 159.02v31.885l-29.817-17.2V141.82l29.817 17.2z" fill="#003C93" stroke="#26144D" stroke-width="1.5" stroke-linecap="round" stroke-linejoin="round"/><path d="M183.101 153.065l-3.304 7.917-15.032 35.999-4.409 10.571-6.887-4.057.108-31.18c.082-8.317 6.016-18.381 13.266-22.476 2.077-1.168 4.034-1.727 5.768-1.727 1.735 0 3.114.508 4.276 1.467l6.214 3.486z" fill="#004DA9" stroke="#26144D" stroke-width="1.5" stroke-linecap="round" stroke-linejoin="round"/><path d="M179.794 160.98l-.254 27.485-14.778 8.515 15.032-36z" stroke="#26144D" stroke-width="1.5" stroke-linecap="round" stroke-linejoin="round"/><path d="M186.423 192.516l-26.074 15.035.108-31.18c.076-8.318 6.016-18.381 13.265-22.476 7.25-4.095 13.063-.667 12.987 7.651l-.286 30.97z" fill="#0069EA" stroke="#26144D" stroke-width="1.5" stroke-linecap="round" stroke-linejoin="round"/><path d="M186.215 162.925l-2.369 4.305-7.497 13.65-2.643 4.8-4.772-2.698c-2.09-.737-3.424-2.946-3.424-6.286 0-5.86 4.117-12.984 9.193-15.911 2.827-1.631 5.356-1.619 7.04-.279h.006l4.466 2.419z" fill="#004DA9" stroke="#26144D" stroke-width="1.5" stroke-linecap="round" stroke-linejoin="round"/><path d="M186.354 178.021c3.59-6.213 3.59-12.928.001-14.999-3.588-2.071-9.408 1.288-12.997 7.501-3.59 6.213-3.59 12.928-.002 14.999 3.589 2.07 9.408-1.288 12.998-7.501z" fill="#0069EA" stroke="#26144D" stroke-width="1.5" stroke-linecap="round" stroke-linejoin="round"/><path d="M167.018 127.333L65.6 66.343l7.98-10.621 94.22 54.557-.782 17.054z" stroke="#26144D" stroke-width="1.5" stroke-linecap="round" stroke-linejoin="round"/><path d="M167.021 127.332l.781-17.054 15.985-9.218 7.014 12.45-23.78 13.822z" fill="#037BF4" stroke="#26144D" stroke-width="1.5" stroke-linecap="round" stroke-linejoin="round"/><path d="M167.802 110.278L73.582 55.72l15.985-9.225 94.22 54.564-15.985 9.219z" fill="#037BF4" stroke="#26144D" stroke-width="1.5" stroke-linecap="round" stroke-linejoin="round"/><path d="M43.391 89.89l31.875-18.787s-32.04-4.323-32.307-4.234c-.267.088-3.443 11.11-3.443 11.11l3.869 11.911h.006zm80.999 46.838l4.453-12.705 9.181 5.296-.762 15.085-12.872-7.676z" fill="#004DA9" stroke="#26144D" stroke-width="1.5" stroke-linecap="round" stroke-linejoin="round"/><path d="M30.651 82.481l5.426-12.038 7.681 4.451-.394 15.263-12.713-7.676z" fill="#004DA9" stroke="#26144D" stroke-width="1.5" stroke-linecap="round" stroke-linejoin="round"/><path d="M156.36 116.352v2.254l-18.361 10.762-6.951-15.93-92.41-53.097 19.607-11.568c2.497-1.55 5.998-1.39 9.867.844l74.537 43.002c7.561 4.362 13.711 15.009 13.711 23.733z" fill="#037BF4" stroke="#26144D" stroke-width="1.5" stroke-linecap="round" stroke-linejoin="round"/><path d="M51.019 154.872l-.477-.273c-.635-.368-1.15-1.346-1.15-2.19v-16.806c0-.844.515-1.232 1.15-.87l.477.273c.635.368 1.15 1.346 1.15 2.191v16.806c0 .844-.515 1.231-1.15.869zm5.045 2.914l-.477-.273c-.635-.368-1.15-1.346-1.15-2.19v-16.806c0-.844.515-1.232 1.15-.87l.477.273c.635.369 1.15 1.346 1.15 2.191v16.806c0 .844-.515 1.231-1.15.869zm5.141 2.959l-.477-.273c-.635-.368-1.15-1.346-1.15-2.19v-16.806c0-.844.515-1.232 1.15-.87l.477.273c.635.369 1.15 1.346 1.15 2.191v16.806c0 .844-.515 1.231-1.15.869zm5.259 3.036l-.476-.273c-.635-.369-1.15-1.346-1.15-2.191v-16.806c0-.844.515-1.231 1.15-.87l.476.273c.636.369 1.15 1.346 1.15 2.191v16.806c0 .844-.514 1.231-1.15.87zm5.046 2.914l-.476-.273c-.636-.369-1.15-1.346-1.15-2.191v-16.806c0-.844.514-1.231 1.15-.87l.476.273c.636.369 1.15 1.346 1.15 2.191v16.806c0 .844-.514 1.232-1.15.87zm5.131 2.965l-.476-.273c-.636-.368-1.15-1.346-1.15-2.19v-16.806c0-.844.514-1.232 1.15-.87l.476.273c.635.369 1.15 1.346 1.15 2.191v16.806c0 .844-.515 1.231-1.15.869z" fill="#003C93" stroke="#26144D" stroke-width="1.5" stroke-linecap="round" stroke-linejoin="round"/><path d="M55.145 58.844L76.594 71.37m13.501-22.05l59.315 34.748" stroke="#fff" stroke-width="1.5" stroke-linecap="round" stroke-linejoin="round"/><path d="M137.261 144.404l.762-15.086 18.399-11.117 10.598 9.13-29.759 17.073z" fill="#037BF4" stroke="#26144D" stroke-width="1.5" stroke-linecap="round" stroke-linejoin="round"/><path d="M43.669 75.34l-7.63-4.477v-2.578c0-8.723 6.15-12.272 13.71-7.91l74.531 43.001c7.56 4.362 13.71 15.01 13.71 23.733v2.254l-9.269-5.346v-2.254c0-2.825-1.995-6.279-4.448-7.695L48.116 70.196c-2.453-1.415-4.447-.266-4.447 2.565v2.578z" fill="#004DA9" stroke="#26144D" stroke-width="1.5" stroke-linecap="round" stroke-linejoin="round"/></svg>