<svg width="390" height="793" fill="none" xmlns="http://www.w3.org/2000/svg"><mask id="a" style="mask-type:alpha" maskUnits="userSpaceOnUse" x="0" y="0" width="390" height="793"><path fill="#D9D9D9" d="M0 0h390v793H0z"/></mask><g mask="url(#a)"><rect x="34.555" y="-21.701" width="92.3" height="16.855" rx="8.428" transform="rotate(29.905 34.555 -21.701)" fill="#007117" stroke="#000"/><rect x="94.5" y="97.5" width="78" height="17" rx="8.5" transform="rotate(-90 94.5 97.5)" fill="#007117" stroke="#000"/><rect x="-.184" y=".683" width="90.213" height="16.855" rx="8.428" transform="scale(-1 1) rotate(29.905 -196.965 -159.268)" fill="#007117" stroke="#000"/><rect x="36.157" y="114.817" width="76.264" height="16.855" rx="8.428" transform="rotate(29.905 36.157 114.817)" fill="#007117" stroke="#000"/><rect x="-.184" y=".683" width="61.306" height="16.855" rx="8.428" transform="scale(-1 1) rotate(29.905 -294.905 -188.657)" fill="#007117" stroke="#000"/><rect x="128.086" y="122.683" width="58.699" height="16.855" rx="8.428" transform="rotate(29.905 128.086 122.683)" fill="#007117" stroke="#000"/><rect x="-.184" y=".683" width="111.912" height="16.855" rx="8.428" transform="scale(-1 1) rotate(29.905 -353.129 -246.91)" fill="#007117" stroke="#000"/><rect x="23.574" y="328.843" width="84.469" height="16.832" rx="8.416" transform="rotate(-90 23.574 328.843)" fill="#007117" stroke="#000"/><rect x="82.087" y="191.683" width="58.699" height="16.855" rx="8.428" transform="rotate(29.905 82.087 191.683)" fill="#007117" stroke="#000"/><rect x="29.087" y="240.683" width="120.074" height="16.855" rx="8.428" transform="rotate(29.905 29.087 240.683)" fill="#007117" stroke="#000"/><rect x="29.086" y="309.427" width="48.697" height="16.855" rx="8.428" transform="rotate(29.905 29.086 309.427)" fill="#007117" stroke="#000"/><rect x="113.5" y="311.5" width="95" height="17" rx="8.5" transform="rotate(-90 113.5 311.5)" fill="#007117" stroke="#000"/><rect x="51.5" y="578.5" width="250" height="17" rx="8.5" transform="rotate(-90 51.5 578.5)" fill="#007117" stroke="#000"/><rect x="57.087" y="559.683" width="48.697" height="16.855" rx="8.428" transform="rotate(29.905 57.087 559.683)" fill="#007117" stroke="#000"/><rect x="252.5" y="132.5" width="82" height="15" rx="7.5" transform="rotate(-90 252.5 132.5)" fill="#FFE448" stroke="#000"/><rect x="297.569" y="95.271" width="69.041" height="15.447" rx="7.723" transform="rotate(-90 297.569 95.271)" fill="#FFE448" stroke="#000"/><rect x="-.184" y=".683" width="54.19" height="15.469" rx="7.734" transform="scale(-1 1) rotate(29.905 -219.383 -467.103)" fill="#FFE448" stroke="#000"/><rect x="302.562" y="77.359" width="76.948" height="15.469" rx="7.734" transform="rotate(29.905 302.562 77.359)" fill="#FFE448" stroke="#000"/><rect x="218.499" y="202.5" width="132" height="15" rx="7.5" transform="rotate(-90 218.499 202.5)" fill="#FFE448" stroke="#000"/><rect x="224.394" y="185.683" width="54.612" height="15.469" rx="7.734" transform="rotate(29.905 224.394 185.683)" fill="#FFE448" stroke="#000"/><rect x="-.184" y=".683" width="110.058" height="15.469" rx="7.734" transform="scale(-1 1) rotate(29.905 -515.3 -391.073)" fill="#FFE448" stroke="#000"/><rect x="257.906" y="114.945" width="50.062" height="15.469" rx="7.734" transform="rotate(29.905 257.906 114.945)" fill="#FFE448" stroke="#000"/><rect x="302.573" y="23.272" width="54.318" height="15.469" rx="7.734" transform="rotate(29.905 302.573 23.272)" fill="#FFE448" stroke="#000"/><rect x="331.881" y="60.676" width="70.176" height="15.447" rx="7.723" transform="rotate(-90 331.881 60.676)" fill="#FFE448" stroke="#000"/><rect x="306.499" y="554.5" width="230" height="15" rx="7.5" transform="rotate(-90 306.499 554.5)" fill="#FFE448" stroke="#000"/><rect x="-.184" y=".683" width="81.838" height="15.469" rx="7.734" transform="scale(-1 1) rotate(29.905 -758.911 -431.383)" fill="#FFE448" stroke="#000"/><rect x="-.184" y=".683" width="110.058" height="15.469" rx="7.734" transform="scale(-1 1) rotate(29.905 -1161.64 -322.753)" fill="#FFE448" stroke="#000"/><rect x="171.499" y="328.5" width="73" height="15" rx="7.5" transform="rotate(-90 171.499 328.5)" fill="#FFE448" stroke="#000"/><rect x="283.389" y="186.864" width="52.311" height="15.447" rx="7.723" transform="rotate(-90 283.389 186.864)" fill="#FFE448" stroke="#000"/><rect x="177.394" y="310.683" width="103.058" height="15.469" rx="7.734" transform="rotate(29.905 177.394 310.683)" fill="#FFE448" stroke="#000"/><rect x="289.016" y="169.331" width="92.756" height="15.469" rx="7.734" transform="rotate(29.905 289.016 169.331)" fill="#FFE448" stroke="#000"/><rect x="351.447" y="225.712" width="114.413" height="15.447" rx="7.723" transform="rotate(-90 351.447 225.712)" fill="#FFE448" stroke="#000"/><path d="M244.42 771.15L26.18 645.545l111.58-64.379L356 706.771 244.42 771.15z" fill="#4DA4FF" stroke="#000" stroke-width="1.5" stroke-linecap="round" stroke-linejoin="round"/><path d="M244.24 792.932L26 667.318v-21.943L244.24 770.98v21.952z" fill="#999" stroke="#000" stroke-width="1.5" stroke-linecap="round" stroke-linejoin="round"/><path d="M355.924 728.714l-111.579 64.379V771.15l111.579-64.379v21.943z" fill="#D9D9D9" stroke="#000" stroke-width="1.5" stroke-linecap="round" stroke-linejoin="round"/><path d="M221.429 741.252l36.344 22.104 86.361-48.943-44.237-28.941-78.468 55.78z" fill="#B2B4B3" opacity=".46"/><path d="M228.958 745.982L69.984 653.938v-102.28l158.974 92.034v102.29z" fill="#004DA9" stroke="#000" stroke-width="1.5" stroke-linecap="round" stroke-linejoin="round"/><path d="M228.976 643.456L70.003 551.412l79.78-46.027 158.964 92.044-79.771 46.027zm79.846 56.491l-79.78 46.026v-102.28l79.78-46.036v102.29z" fill="#0069EA" stroke="#000" stroke-width="1.5" stroke-linecap="round" stroke-linejoin="round"/><path d="M199.62 665.471v51.656l-48.179-27.796v-51.656l3.749 2.167 44.43 25.629z" stroke="#000" stroke-width="1.5" stroke-linecap="round" stroke-linejoin="round"/><path d="M199.618 665.472v47.512l-44.43-25.63v-47.512l44.43 25.63z" fill="#003C93" stroke="#000" stroke-width="1.5" stroke-linecap="round" stroke-linejoin="round"/><path d="M297.35 656.597l-4.923 11.798-22.399 53.642-6.571 15.753-10.262-6.046.161-46.462c.123-12.393 8.965-27.389 19.767-33.491 3.096-1.741 6.012-2.573 8.596-2.573 2.585 0 4.639.757 6.372 2.185l9.259 5.194z" fill="#004DA9" stroke="#000" stroke-width="1.5" stroke-linecap="round" stroke-linejoin="round"/><path d="M292.425 668.395l-.378 40.955-22.021 12.687 22.399-53.642z" stroke="#000" stroke-width="1.5" stroke-linecap="round" stroke-linejoin="round"/><path d="M302.301 715.386l-38.854 22.403.161-46.462c.114-12.393 8.966-27.389 19.768-33.491 10.802-6.102 19.464-.993 19.351 11.401l-.426 46.149z" fill="#0069EA" stroke="#000" stroke-width="1.5" stroke-linecap="round" stroke-linejoin="round"/><path d="M301.987 671.29l-3.531 6.415-11.172 20.34-3.938 7.153-7.11-4.021c-3.115-1.098-5.103-4.39-5.103-9.366 0-8.733 6.135-19.348 13.699-23.709 4.213-2.432 7.981-2.413 10.49-.416h.009l6.656 3.604z" fill="#004DA9" stroke="#000" stroke-width="1.5" stroke-linecap="round" stroke-linejoin="round"/><path d="M302.195 693.785c5.349-9.258 5.349-19.265.002-22.35-5.348-3.086-14.019 1.918-19.368 11.177-5.349 9.258-5.35 19.264-.002 22.35 5.348 3.085 14.019-1.919 19.368-11.177z" fill="#0069EA" stroke="#000" stroke-width="1.5" stroke-linecap="round" stroke-linejoin="round"/><path d="M273.387 618.253l-151.125-90.881 11.891-15.828 140.399 81.297-1.165 25.412z" stroke="#000" stroke-width="1.5" stroke-linecap="round" stroke-linejoin="round"/><path d="M273.387 618.253l1.164-25.412 23.82-13.737 10.451 18.553-35.435 20.596z" fill="#037BF4" stroke="#000" stroke-width="1.5" stroke-linecap="round" stroke-linejoin="round"/><path d="M274.552 592.841l-140.398-81.297 23.819-13.746 140.399 81.306-23.82 13.737z" fill="#037BF4" stroke="#000" stroke-width="1.5" stroke-linecap="round" stroke-linejoin="round"/><path d="M89.167 562.462l47.497-27.994s-47.743-6.443-48.14-6.311c-.398.133-5.132 16.557-5.132 16.557l5.766 17.748h.01zm120.694 69.792l6.637-18.931 13.68 7.891-1.136 22.478-19.181-11.438z" fill="#004DA9" stroke="#000" stroke-width="1.5" stroke-linecap="round" stroke-linejoin="round"/><path d="M70.181 551.422l8.085-17.938 11.446 6.632-.587 22.744-18.944-11.438z" fill="#004DA9" stroke="#000" stroke-width="1.5" stroke-linecap="round" stroke-linejoin="round"/><path d="M257.502 601.895v3.358l-27.36 16.036-10.358-23.737-137.7-79.12 29.216-17.238c3.72-2.308 8.937-2.072 14.702 1.258l111.07 64.078c11.266 6.5 20.43 22.366 20.43 35.365z" fill="#037BF4" stroke="#000" stroke-width="1.5" stroke-linecap="round" stroke-linejoin="round"/><path d="M100.535 659.294l-.71-.407c-.947-.549-1.714-2.006-1.714-3.264V630.58c0-1.258.767-1.835 1.714-1.296l.71.407c.947.549 1.713 2.006 1.713 3.264v25.042c0 1.259-.766 1.836-1.713 1.297zm7.518 4.342l-.71-.406c-.946-.549-1.713-2.006-1.713-3.264v-25.043c0-1.258.767-1.835 1.713-1.296l.71.407c.947.548 1.714 2.005 1.714 3.264v25.042c0 1.259-.767 1.836-1.714 1.296zm7.659 4.409l-.71-.407c-.947-.549-1.713-2.006-1.713-3.264v-25.043c0-1.258.766-1.835 1.713-1.296l.71.407c.947.549 1.714 2.005 1.714 3.264v25.042c0 1.259-.767 1.836-1.714 1.297zm7.839 4.522l-.71-.407c-.947-.548-1.714-2.005-1.714-3.264v-25.042c0-1.259.767-1.836 1.714-1.297l.71.407c.946.549 1.713 2.006 1.713 3.264v25.043c0 1.258-.767 1.835-1.713 1.296zm7.517 4.343l-.71-.407c-.947-.549-1.714-2.006-1.714-3.264v-25.043c0-1.258.767-1.835 1.714-1.296l.71.407c.946.549 1.713 2.006 1.713 3.264v25.043c0 1.258-.767 1.835-1.713 1.296zm7.647 4.418l-.71-.407c-.947-.549-1.713-2.006-1.713-3.264v-25.043c0-1.258.766-1.835 1.713-1.296l.71.407c.947.549 1.714 2.006 1.714 3.264v25.043c0 1.258-.767 1.835-1.714 1.296z" fill="#003C93" stroke="#000" stroke-width="1.5" stroke-linecap="round" stroke-linejoin="round"/><path d="M106.68 516.199l31.961 18.666m20.118-32.857l88.386 51.779" stroke="#fff" stroke-width="1.5" stroke-linecap="round" stroke-linejoin="round"/><path d="M229.042 643.693l1.136-22.479 27.417-16.566 15.791 13.605-44.344 25.44z" fill="#037BF4" stroke="#000" stroke-width="1.5" stroke-linecap="round" stroke-linejoin="round"/><path d="M89.582 540.778l-11.37-6.67v-3.841c0-12.999 9.164-18.287 20.43-11.788L209.7 582.557c11.266 6.5 20.431 22.365 20.431 35.364v3.359l-13.813-7.966v-3.359c0-4.21-2.973-9.356-6.627-11.466L96.209 533.115c-3.655-2.11-6.627-.397-6.627 3.822v3.841z" fill="#004DA9" stroke="#000" stroke-width="1.5" stroke-linecap="round" stroke-linejoin="round"/><path d="M412.001 751.539v58.93c0 4.759-3.863 8.619-8.625 8.619-4.762 0-8.625-3.86-8.625-8.619v-53.916l-104.335-59.267-1.32-.75-.06-.037c-.742-.742-1.185-1.941-1.185-3.507 0-3.928 2.752-8.702 6.157-10.665 1.425-.817 2.73-1.02 3.773-.69l1.057.607 108.798 61.808a8.606 8.606 0 014.365 7.487z" fill="#D2233C" stroke="#000" stroke-width="1.5" stroke-linecap="round" stroke-linejoin="round"/><path d="M307.411 706.932c-.743-.742-1.185-1.941-1.185-3.508 0-3.927 2.752-8.701 6.157-10.665 1.425-.817 2.73-1.019 3.772-.689m68.989 59.244c-.743-.742-1.185-1.941-1.185-3.507 0-3.927 2.752-8.701 6.157-10.665 1.425-.817 2.73-1.019 3.773-.689" stroke="#000" stroke-width="1.5" stroke-linecap="round" stroke-linejoin="round"/><path d="M316.59 695.315c13.14 7.937 26.639 15.431 39.974 23.421" stroke="#fff" stroke-width="1.5" stroke-linecap="round" stroke-linejoin="round"/></g></svg>