<svg width="1447" height="2280" fill="none" xmlns="http://www.w3.org/2000/svg"><mask id="a" style="mask-type:alpha" maskUnits="userSpaceOnUse" x="0" y="0" width="1447" height="2279"><path fill="#D9D9D9" d="M0 0h1447v2279H0z"/></mask><g mask="url(#a)"><path d="M647.941 1021.32c-14.667 0-26.562-11.91-26.562-26.589V825.13a26.582 26.582 0 0113.581-23.191 26.551 26.551 0 0126.839.508l55.849 34.152 83.659-48.372-139.924-82.846c-8.176-4.856-13.165-13.689-13.05-23.215a26.612 26.612 0 0113.605-22.891l134.634-75.262V397.255a26.639 26.639 0 0113.142-22.96 26.551 26.551 0 0126.423-.231l215.633 121.414a26.614 26.614 0 0113.54 23.168V630.28l179.83 101.159V443.754l-174.94-96.489a26.594 26.594 0 01-13.74-23.284V135.143c0-9.457 5.01-18.197 13.17-22.96a26.526 26.526 0 0126.44-.185l93.22 52.741V-28.677c0-14.683 11.9-26.59 26.57-26.59 14.66 0 26.56 11.907 26.56 26.59v238.99c0 9.457-5.01 18.197-13.17 22.96a26.582 26.582 0 01-26.47.185l-93.19-52.741v127.588l174.93 96.488a26.585 26.585 0 0113.75 23.284V776.92c0 9.434-5.01 18.174-13.14 22.961a26.567 26.567 0 01-26.43.231l-232.96-131.056a26.642 26.642 0 01-13.56-23.192V534.208L849.672 442.69v156.907a26.569 26.569 0 01-13.604 23.215l-107.887 60.325 139.276 82.454a26.596 26.596 0 0113.05 23.029 26.57 26.57 0 01-13.281 22.891l-136.689 79.008a26.562 26.562 0 01-27.14-.346l-28.894-17.689v122.2c0 14.686-11.895 26.586-26.562 26.586v.05z" fill="#FFE448" stroke="#000" stroke-width="1.5" stroke-miterlimit="10"/><path d="M762.803 871.652c2.286-2.289 3.649-5.989 3.649-10.821 0-12.116-8.477-26.845-18.963-32.903-4.388-2.521-8.407-3.145-11.618-2.127m44.279 36.209c2.287-2.29 3.65-5.989 3.65-10.822 0-12.116-8.477-26.844-18.963-32.902-4.389-2.521-8.408-3.145-11.618-2.128m22.587-159.403c2.287-2.289 3.65-5.989 3.65-10.821 0-12.116-8.477-26.845-18.963-32.903-4.389-2.521-8.407-3.145-11.618-2.127m315.625 79.979c-2.29-2.289-3.65-5.989-3.65-10.821 0-12.116 8.48-26.845 18.96-32.903 4.39-2.52 8.41-3.144 11.62-2.127m20.97-274.413c-2.28-2.289-3.65-5.989-3.65-10.821 0-12.116 8.48-26.845 18.97-32.903 4.39-2.52 8.4-3.145 11.61-2.127m-43.88 383.78c-2.29-2.289-3.65-5.988-3.65-10.821 0-12.116 8.48-26.845 18.96-32.903 4.39-2.52 8.41-3.144 11.62-2.127" stroke="#000" stroke-width="1.5" stroke-linecap="round" stroke-linejoin="round"/><path d="M832.742 387.29c27.879 16.347 129.53 70.776 142.464 78.384M726.609 694.236c27.093 16.393 54.556 32.116 81.926 48.001" stroke="#fff" stroke-width="1.5" stroke-linecap="round" stroke-linejoin="round"/><path d="M286.931 1126.27a26.38 26.38 0 01-13.674-3.82l-137.659-82.86a26.579 26.579 0 01-12.866-22.77V812.546a26.587 26.587 0 0113.212-22.982l436.977-254.348-69.014-36.415-78.878 44.044a26.528 26.528 0 01-26.561-.393L171.283 406.55a26.557 26.557 0 01-12.935-23.005c.07-9.41 5.105-18.103 13.235-22.82L432.421 209.24 240.829 97.383a26.602 26.602 0 01-13.189-22.959v-86.748c0-14.681 11.895-26.588 26.562-26.588 14.667 0 26.562 11.907 26.562 26.588V59.12l217.853 127.209c8.177 4.762 13.189 13.525 13.189 23.004a26.54 26.54 0 01-13.235 22.959L237.272 384.054l175.285 104.828 78.046-43.582a26.511 26.511 0 0125.314-.3l124.171 65.523a26.532 26.532 0 0114.159 22.959 26.555 26.555 0 01-13.212 23.536L175.856 827.805v173.955l124.772 75.12c12.564 7.56 16.63 23.91 9.077 36.49-4.989 8.3-13.766 12.9-22.797 12.9h.023z" fill="#007117" stroke="#000" stroke-width="1.5" stroke-linecap="round" stroke-linejoin="round"/><path d="M204.982 810.373c2.287-2.289 3.65-5.989 3.65-10.821 0-12.115-8.477-26.843-18.963-32.9-4.389-2.52-8.408-3.145-11.618-2.127m400.414-170.953c2.286-2.289 3.649-5.988 3.649-10.821 0-12.115-8.477-26.843-18.963-32.9-4.388-2.52-8.407-3.144-11.618-2.127M266.582 367.13c2.286-2.289 3.649-5.988 3.649-10.821 0-12.115-8.477-26.842-18.963-32.9-4.388-2.52-8.407-3.144-11.618-2.127m205.012-57.639c2.287-2.289 3.649-5.989 3.649-10.821 0-12.115-8.476-26.843-18.963-32.9-4.388-2.52-8.407-3.145-11.618-2.127" stroke="#000" stroke-width="1.5" stroke-linecap="round" stroke-linejoin="round"/><path d="M544.882 563.77c-40.467 24.484-293.544 170.467-334.611 195.113" stroke="#fff" stroke-width="1.5" stroke-linecap="round" stroke-linejoin="round"/><path d="M643.807 1486.62l-539.554-310.53 275.857-159.16 539.553 310.53-275.856 159.16z" fill="#4DA4FF" stroke="#26144D" stroke-width="1.5" stroke-linecap="round" stroke-linejoin="round"/><path d="M643.36 1540.48l-539.553-310.56v-54.25L643.36 1486.2v54.28z" fill="#999" stroke="#26144D" stroke-width="1.5" stroke-linecap="round" stroke-linejoin="round"/><path d="M919.475 1381.71l-275.857 159.16v-54.25l275.857-159.16v54.25z" fill="#D9D9D9" stroke="#26144D" stroke-width="1.5" stroke-linecap="round" stroke-linejoin="round"/><path d="M586.966 1412.71l89.852 54.64 213.511-121-109.368-71.55-193.995 137.91z" fill="#B2B4B3" opacity=".46"/><path d="M606.083 1424.2l-393.425-227.79V943.292l393.425 227.768v253.14z" fill="#004DA9" stroke="#26144D" stroke-width="1.5" stroke-linecap="round" stroke-linejoin="round"/><path d="M606.131 1170.47L212.706 942.684l197.439-113.906 393.401 227.792-197.415 113.9zm197.601 139.8l-197.439 113.91v-253.12l197.439-113.93v253.14z" fill="#0069EA" stroke="#26144D" stroke-width="1.5" stroke-linecap="round" stroke-linejoin="round"/><path d="M533.476 1224.96v127.83L414.245 1284v-127.83l9.278 5.36 109.953 63.43z" stroke="#26144D" stroke-width="1.5" stroke-linecap="round" stroke-linejoin="round"/><path d="M533.476 1224.96v117.58l-109.954-63.43v-117.58l109.954 63.43z" fill="#003C93" stroke="#26144D" stroke-width="1.5" stroke-linecap="round" stroke-linejoin="round"/><path d="M775.336 1202.99l-12.183 29.2-55.434 132.75-16.26 38.99-25.397-14.96.398-114.99c.304-30.67 22.187-67.78 48.92-82.88 7.662-4.31 14.878-6.37 21.274-6.37 6.396 0 11.48 1.87 15.768 5.41l22.914 12.85z" fill="#004DA9" stroke="#26144D" stroke-width="1.5" stroke-linecap="round" stroke-linejoin="round"/><path d="M763.152 1232.19l-.938 101.36-54.496 31.39 55.434-132.75z" stroke="#26144D" stroke-width="1.5" stroke-linecap="round" stroke-linejoin="round"/><path d="M787.591 1348.48l-96.154 55.45.398-114.99c.281-30.67 22.188-67.78 48.921-82.88 26.733-15.1 48.17-2.46 47.889 28.21l-1.054 114.21z" fill="#0069EA" stroke="#26144D" stroke-width="1.5" stroke-linecap="round" stroke-linejoin="round"/><path d="M786.816 1239.36l-8.739 15.87-27.647 50.34-9.746 17.7-17.596-9.95c-7.708-2.72-12.628-10.87-12.628-23.18 0-21.61 15.182-47.88 33.902-58.67 10.426-6.02 19.751-5.97 25.96-1.03h.023l16.471 8.92z" fill="#004DA9" stroke="#26144D" stroke-width="1.5" stroke-linecap="round" stroke-linejoin="round"/><path d="M787.329 1295.03c13.237-22.92 13.24-47.68.005-55.32-13.234-7.63-34.694 4.75-47.931 27.66-13.237 22.92-13.239 47.68-.005 55.32 13.234 7.63 34.694-4.75 47.931-27.66z" fill="#0069EA" stroke="#26144D" stroke-width="1.5" stroke-linecap="round" stroke-linejoin="round"/><path d="M716.038 1108.1L342.036 883.191l29.427-39.171 347.457 201.19-2.882 62.89z" stroke="#26144D" stroke-width="1.5" stroke-linecap="round" stroke-linejoin="round"/><path d="M716.037 1108.1l2.881-62.89 58.949-34 25.865 45.92-87.695 50.97z" fill="#037BF4" stroke="#26144D" stroke-width="1.5" stroke-linecap="round" stroke-linejoin="round"/><path d="M718.918 1045.21L371.462 844.02 430.41 810l347.457 201.21-58.949 34z" fill="#037BF4" stroke="#26144D" stroke-width="1.5" stroke-linecap="round" stroke-linejoin="round"/><path d="M260.127 970.03l117.545-69.28s-118.154-15.944-119.138-15.617c-.984.328-12.699 40.974-12.699 40.974l14.268 43.923h.024zm298.699 172.72l16.424-46.85 33.855 19.53-2.811 55.63-47.468-28.31z" fill="#004DA9" stroke="#26144D" stroke-width="1.5" stroke-linecap="round" stroke-linejoin="round"/><path d="M213.149 942.707l20.009-44.392 28.326 16.413-1.453 56.286-46.882-28.307z" fill="#004DA9" stroke="#26144D" stroke-width="1.5" stroke-linecap="round" stroke-linejoin="round"/><path d="M676.721 1067.62v8.31l-67.711 39.69-25.631-58.75L242.6 861.065l72.302-42.66c9.208-5.712 22.118-5.127 36.386 3.114l274.873 158.58c27.881 16.085 50.56 55.351 50.56 87.521z" fill="#037BF4" stroke="#26144D" stroke-width="1.5" stroke-linecap="round" stroke-linejoin="round"/><path d="M288.264 1209.67l-1.758-1.01c-2.343-1.36-4.24-4.96-4.24-8.08v-61.97c0-3.12 1.897-4.54 4.24-3.21l1.758 1.01c2.342 1.36 4.24 4.96 4.24 8.07v61.98c0 3.11-1.898 4.54-4.24 3.21zm18.603 10.74l-1.758-1c-2.343-1.36-4.24-4.97-4.24-8.08v-61.98c0-3.11 1.897-4.54 4.24-3.2l1.758 1c2.342 1.36 4.24 4.97 4.24 8.08v61.98c0 3.11-1.898 4.54-4.24 3.2zm18.954 10.91l-1.757-1c-2.343-1.36-4.241-4.97-4.241-8.08v-61.97c0-3.12 1.898-4.55 4.241-3.21l1.757 1c2.343 1.36 4.241 4.97 4.241 8.08v61.98c0 3.11-1.898 4.54-4.241 3.2zm19.4 11.2l-1.758-1.01c-2.343-1.36-4.24-4.96-4.24-8.08v-61.97c0-3.12 1.897-4.54 4.24-3.21l1.758 1.01c2.342 1.35 4.24 4.96 4.24 8.07v61.98c0 3.11-1.898 4.54-4.24 3.21zm18.603 10.74l-1.758-1c-2.343-1.36-4.24-4.97-4.24-8.08v-61.98c0-3.11 1.897-4.54 4.24-3.2l1.758 1c2.343 1.36 4.24 4.97 4.24 8.08v61.98c0 3.11-1.897 4.54-4.24 3.2zm18.929 10.94l-1.757-1.01c-2.343-1.36-4.241-4.96-4.241-8.08v-61.97c0-3.12 1.898-4.54 4.241-3.21l1.757 1.01c2.343 1.36 4.241 4.96 4.241 8.07v61.98c0 3.11-1.898 4.54-4.241 3.21z" fill="#003C93" stroke="#26144D" stroke-width="1.5" stroke-linecap="round" stroke-linejoin="round"/><path d="M303.47 855.539l79.097 46.195m49.788-81.315l218.736 128.142" stroke="#fff" stroke-width="1.5" stroke-linecap="round" stroke-linejoin="round"/><path d="M606.293 1171.06l2.812-55.63 67.851-41 39.08 33.67-109.743 62.96z" fill="#037BF4" stroke="#26144D" stroke-width="1.5" stroke-linecap="round" stroke-linejoin="round"/><path d="M261.157 916.367l-28.138-16.507v-9.505c0-32.17 22.679-45.259 50.56-29.174l274.849 158.579c27.881 16.09 50.561 55.35 50.561 87.52v8.31l-34.184-19.71v-8.31c0-10.42-7.357-23.16-16.4-28.38L277.558 897.402c-9.044-5.221-16.401-.983-16.401 9.459v9.506z" fill="#004DA9" stroke="#26144D" stroke-width="1.5" stroke-linecap="round" stroke-linejoin="round"/><path d="M1152 1471l53.5 29c15 8 15.13 20 4.5 34.5-11 15-21 19.5-38 9.5l-91.85-51.87-325.944-185.16-4.123-2.34s-.117-.07-.188-.12c-2.319-2.31-3.702-6.06-3.702-10.95 0-12.27 8.599-27.19 19.236-33.32 4.451-2.55 8.528-3.19 11.785-2.16l3.303 1.9 339.893 193.09c8.43 4.78 20.09 11.43 31.59 17.93z" fill="#D2233C" stroke="#26144D" stroke-width="1.5" stroke-linecap="round" stroke-linejoin="round"/><path d="M807.298 1337.1c-2.32-2.31-3.702-6.06-3.702-10.95 0-12.27 8.598-27.19 19.235-33.32 4.452-2.55 8.528-3.18 11.785-2.15M1048.5 1474c-1-1.5-2.06-4.3-2.06-9.2 0-12.27 8.6-27.18 19.23-33.32 4.46-2.55 8.53-3.18 11.79-2.15" stroke="#26144D" stroke-width="1.5" stroke-linecap="round" stroke-linejoin="round"/><path d="M835.976 1300.81c41.048 24.8 83.22 48.21 124.878 73.17z" fill="#FA6646"/><path d="M835.976 1300.81c41.048 24.8 83.22 48.21 124.878 73.17" stroke="#fff" stroke-width="1.5" stroke-linecap="round" stroke-linejoin="round"/><path d="M1228.46 1689c-8.53 0-16.87-4.05-21.77-11.46-7.63-11.53-4.19-25.74 7.81-33.04l66.5-38-96-54c-5-6.24-5.5-16-4-26.02 1.5-10.03 11-28.42 23.5-26.98l142 80c7.71 4.38 13.36 14.69 13.5 23.28.14 8.6-3.94 18.42-11.5 23.03l-106 60.19c-4.29 2.61-9.28 3-14.02 3h-.02z" fill="#D2233C" stroke="#26144D" stroke-width="1.5" stroke-linecap="round" stroke-linejoin="round"/><path d="M885.831 2216.17l621.649-357.79L1189.65 1675 568 2032.78l317.831 183.39z" fill="#4DA4FF" stroke="#26144D" stroke-width="1.5" stroke-linecap="round" stroke-linejoin="round"/><path d="M886.346 2278.21L1508 1920.4v-62.5l-621.654 357.78v62.53z" fill="#D9D9D9" stroke="#26144D" stroke-width="1.5" stroke-linecap="round" stroke-linejoin="round"/><path d="M568.217 2095.29l317.832 183.38v-62.5l-317.832-183.39v62.51z" fill="#999" stroke="#26144D" stroke-width="1.5" stroke-linecap="round" stroke-linejoin="round"/><path d="M877 2094.61L983.543 2158 1377 1931.45l-88.42-48.45L877 2094.61z" fill="#B2B4B3" opacity=".46"/><path d="M1205.01 1976.77l-15.18-10.49v-29.75l15.18-8.78v49.02zm97.4-56.31l-15.2-9.91v-31.66l15.2-8.78v50.35z" fill="#D8D8D8" stroke="#26144D" stroke-width="1.5" stroke-linecap="round" stroke-linejoin="round"/><path d="M971.471 1987.25v124.14l-237.329-137.11v-291.6l119.924 69.28v167.41l117.405 67.88z" fill="#7D7D7B" stroke="#26144D" stroke-width="1.5" stroke-linecap="round" stroke-linejoin="round"/><path d="M1329.42 1779.49v125.35l-27.01 15.62v-50.35l-15.2 8.78-57.87 33.46v50.35l-24.33 14.07v-49.02l-15.18 8.79-57.86 33.45v49.02l-160.378 92.71v-125.35l357.828-206.88zm-475.263-27.99l357.833-206.88-120.11-69.34-357.829 206.88 120.106 69.34z" fill="#D8D8D8" stroke="#26144D" stroke-width="1.5" stroke-linecap="round" stroke-linejoin="round"/><path d="M971.896 1986.64l357.824-206.88-120.1-69.34-357.83 206.88 120.106 69.34z" fill="#D8D8D8" stroke="#26144D" stroke-width="1.5" stroke-linecap="round" stroke-linejoin="round"/><path d="M889.266 1899.25l95.283 40.29 289.191-168.01-46.79-31.24-99.35 19.84-238.334 139.12z" fill="#565656" stroke="#26144D" stroke-width="1.5" stroke-linecap="round" stroke-linejoin="round"/><path d="M1189.83 1936.54v29.74l-57.86 33.46v-29.75l57.86-33.45zm97.38-57.65v31.66l-57.87 33.46v-31.66l57.87-33.46zm-75.41-209.22l-357.825 206.91v-125.35l357.825-206.88v125.32z" fill="#7D7D7B" stroke="#26144D" stroke-width="1.5" stroke-linecap="round" stroke-linejoin="round"/><path d="M870.301 1882.78c.637-2.52 18.965-119.67 18.965-119.67l295.954-172.27 7.59 57.62-278.873 232.4-43.636 1.92z" fill="#565656" stroke="#26144D" stroke-width="1.5" stroke-linecap="round" stroke-linejoin="round"/><path d="M1265.36 1709.51c0 3.04-.24 5.86-.76 8.48-1.82 10.08-7.07 16.8-14.41 19.38l-17.72 10.06c2.24-1.7 4.19-3.89 5.73-6.56 2.73-4.74 4.31-11 4.31-18.57 0-1.03 0-2.07-.09-3.13-.33-6.11-1.58-12.43-3.61-18.72-2.12-6.47-5.04-12.88-8.56-18.93-2.67-4.53-5.67-8.84-8.95-12.82-4.13-5.05-8.74-9.48-13.62-13.1a64.52 64.52 0 00-5.83-3.86c-2.18-1.25-4.31-2.31-6.4-3.1-8.35-3.31-15.87-3.19-21.7-.09v-.09l19.72-10.7h.04c1.51-1.24 3.21-2.19 5.03-2.88 4.07-1.61 8.77-1.92 13.96-.79 3.82.82 7.92 2.43 12.17 4.89 2.64 1.55 5.25 3.31 7.74 5.35 3.61 2.85 7.07 6.23 10.25 9.93 5.25 6.05 9.87 13.01 13.54 20.33a91.702 91.702 0 016.04 15.14c2 6.71 3.09 13.43 3.09 19.81l.03-.03z" fill="#D8D8D8" stroke="#26144D" stroke-width="1.5" stroke-linecap="round" stroke-linejoin="round"/><path d="M1242.51 1722.3c0 11.85-3.79 20.48-10.04 25.13-7.47 5.56-18.42 5.47-30.65-1.61-22.46-13-40.69-44.61-40.69-70.59 0-13.37 4.82-22.64 12.59-26.71 7.28-3.86 17.18-3.1 28.1 3.22 22.46 12.98 40.69 44.58 40.69 70.56z" fill="#7D7D7B" stroke="#26144D" stroke-width="1.5" stroke-linecap="round" stroke-linejoin="round"/><path d="M1212.5 1634.06l-4.85 21.54a64.52 64.52 0 00-5.83-3.86c-2.18-1.24-4.31-2.31-6.4-3.1l3.09-13.79c4.07-1.62 8.77-1.92 13.96-.79h.03zm30.19 20.17l-12.44 27.29c-2.67-4.53-5.67-8.84-8.95-12.82l11.14-24.4c3.61 2.85 7.07 6.23 10.25 9.93zm19.55 35.47l-19.85 29.47c-.33-6.11-1.58-12.43-3.61-18.72l17.42-25.89a91.702 91.702 0 016.04 15.14zm2.36 28.29c-1.82 10.09-7.07 16.8-14.41 19.38l-17.72 10.06c2.24-1.7 4.19-3.89 5.73-6.56l26.4-22.88z" fill="#D8D8D8" stroke="#26144D" stroke-width="1.5" stroke-linecap="round" stroke-linejoin="round"/><path d="M1239.66 1749.95c0 4.56-.36 8.82-1.12 12.74-2.73 15.16-10.62 25.28-21.67 29.17l-26.64 15.13c3.37-2.55 6.28-5.83 8.62-9.87 4.12-7.15 6.46-16.54 6.46-27.93 0-1.55-.03-3.13-.15-4.71-.49-9.18-2.37-18.69-5.43-28.17-3.19-9.72-7.56-19.39-12.87-28.47-4.01-6.81-8.53-13.31-13.47-19.27-6.22-7.57-13.14-14.25-20.49-19.69-2.85-2.16-5.79-4.07-8.77-5.8-3.27-1.89-6.49-3.47-9.62-4.68-12.56-4.99-23.85-4.81-32.62-.16v-.12l29.68-16.1h.06c2.28-1.86 4.83-3.32 7.56-4.35 6.1-2.43 13.2-2.89 21-1.18 5.76 1.24 11.92 3.67 18.29 7.35a89.98 89.98 0 0111.66 8.05c5.43 4.32 10.62 9.36 15.44 14.92 7.89 9.09 14.84 19.54 20.33 30.57 3.74 7.42 6.8 15.08 9.08 22.76 3 10.09 4.67 20.21 4.67 29.81z" fill="#D8D8D8" stroke="#26144D" stroke-width="1.5" stroke-linecap="round" stroke-linejoin="round"/><path d="M1205.31 1769.16c0 17.84-5.71 30.78-15.08 37.8-11.2 8.33-27.71 8.21-46.1-2.4-33.77-19.57-61.17-67.07-61.17-106.14 0-20.12 7.28-34.04 18.93-40.18 10.96-5.8 25.83-4.65 42.24 4.83 33.78 19.51 61.18 67.04 61.18 106.12v-.03z" fill="#7D7D7B" stroke="#26144D" stroke-width="1.5" stroke-linecap="round" stroke-linejoin="round"/><path d="M1160.19 1636.49l-7.29 32.39c-2.85-2.16-5.79-4.07-8.77-5.8-3.27-1.89-6.49-3.47-9.62-4.68l4.68-20.73c6.1-2.43 13.2-2.89 21-1.18zm45.39 30.32l-18.72 41.03c-4.01-6.81-8.53-13.31-13.47-19.27l16.75-36.68c5.43 4.32 10.62 9.36 15.44 14.92zm29.41 53.33l-29.83 44.34c-.49-9.18-2.37-18.69-5.43-28.17l26.18-38.93c3.74 7.42 6.8 15.08 9.08 22.76zm3.55 42.55c-2.73 15.16-10.62 25.28-21.67 29.17l-26.64 15.13c3.37-2.55 6.28-5.83 8.62-9.87l39.69-34.43z" fill="#D8D8D8" stroke="#26144D" stroke-width="1.5" stroke-linecap="round" stroke-linejoin="round"/><path d="M862.38 2046.84l-71.796-172.3" stroke="#26144D" stroke-width="1.5" stroke-linecap="round" stroke-linejoin="round"/><path d="M788.946 1665.14l200.671-116.51" stroke="#fff" stroke-width="1.5" stroke-linecap="round" stroke-linejoin="round"/><path d="M1154.54 1746.52c0 4.62-1.27 8.17-3.43 10.42l-4.24 2.5-61.18 35.7c-4.07 2.4-8.56 3.53-12.96 3.53-8.83 0-17.45-4.56-22.24-12.74-7.16-12.27-3.07-28.04 9.19-35.25l61.03-35.58 5.04-2.95c2.94-.61 6.49.12 10.31 2.31 10.2 5.9 18.48 20.27 18.48 32.06z" fill="#fff" stroke="#26144D" stroke-width="1.5" stroke-linecap="round" stroke-linejoin="round"/><path d="M1126.75 1792.01c0 3.04-.25 5.87-.76 8.48-1.82 10.09-7.07 16.8-14.42 19.39l-17.72 10.05c2.25-1.7 4.19-3.88 5.74-6.56 2.73-4.74 4.31-11 4.31-18.57 0-1.03 0-2.06-.09-3.13-.34-6.1-1.58-12.42-3.62-18.71-2.12-6.48-5.03-12.89-8.55-18.94-2.67-4.52-5.68-8.84-8.95-12.82-4.13-5.04-8.74-9.48-13.63-13.1-1.91-1.43-3.85-2.7-5.83-3.86-2.18-1.24-4.31-2.31-6.4-3.1-8.34-3.31-15.87-3.19-21.7-.09v-.09l19.73-10.69h.03c1.52-1.25 3.22-2.19 5.04-2.89 4.06-1.61 8.77-1.92 13.96-.79 3.82.82 7.92 2.43 12.16 4.89 2.64 1.55 5.25 3.31 7.74 5.35 3.61 2.86 7.07 6.23 10.26 9.94 5.25 6.04 9.86 13 13.53 20.33a91.255 91.255 0 016.04 15.13c2 6.71 3.1 13.43 3.1 19.81l.03-.03z" fill="#D8D8D8" stroke="#26144D" stroke-width="1.5" stroke-linecap="round" stroke-linejoin="round"/><path d="M1103.93 1804.77c0 11.86-3.8 20.49-10.05 25.13-7.46 5.57-18.42 5.47-30.65-1.61-22.45-13-40.69-44.61-40.69-70.59 0-13.37 4.83-22.64 12.59-26.71 7.29-3.86 17.18-3.1 28.1 3.22 22.46 12.98 40.7 44.58 40.7 70.56z" fill="#7D7D7B" stroke="#26144D" stroke-width="1.5" stroke-linecap="round" stroke-linejoin="round"/><path d="M1073.92 1716.56l-4.86 21.54c-1.91-1.43-3.85-2.7-5.83-3.86-2.18-1.24-4.3-2.31-6.4-3.1l3.1-13.79c4.06-1.61 8.77-1.92 13.96-.79h.03zm30.16 20.15l-12.44 27.28c-2.67-4.52-5.68-8.84-8.96-12.82l11.14-24.4c3.61 2.86 7.07 6.23 10.26 9.94zm19.57 35.46l-19.84 29.47c-.34-6.1-1.58-12.42-3.62-18.71l17.42-25.89a91.255 91.255 0 016.04 15.13zm2.37 28.29c-1.82 10.09-7.07 16.8-14.42 19.39l-17.72 10.05c2.25-1.7 4.19-3.88 5.74-6.56l26.4-22.88zm-39 22.73c0 3.62-.3 6.99-.88 10.09-2.15 12.03-8.43 20.05-17.2 23.15l-21.15 12.01c2.67-2.04 4.97-4.62 6.83-7.84 3.27-5.66 5.12-13.13 5.12-22.16 0-1.21 0-2.49-.12-3.73-.39-7.3-1.88-14.83-4.31-22.37-2.51-7.72-6-15.38-10.19-22.58-3.19-5.41-6.77-10.57-10.68-15.28-4.95-6.02-10.44-11.31-16.27-15.62-2.27-1.7-4.61-3.22-6.95-4.62-2.61-1.49-5.16-2.74-7.64-3.71-9.958-3.95-18.94-3.8-25.889-.12v-.09l23.549-12.79h.06c1.82-1.46 3.82-2.62 6.01-3.44 4.82-1.91 10.47-2.28 16.66-.94 4.58 1 9.47 2.92 14.5 5.83 3.16 1.83 6.25 3.95 9.26 6.39 4.31 3.43 8.43 7.41 12.26 11.85 6.25 7.2 11.77 15.49 16.14 24.25 2.97 5.89 5.4 11.97 7.19 18.05 2.4 7.99 3.7 16.04 3.7 23.64v.03z" fill="#D8D8D8" stroke="#26144D" stroke-width="1.5" stroke-linecap="round" stroke-linejoin="round"/><path d="M1059.77 1838.44c0 14.13-4.52 24.44-11.98 30-8.89 6.62-21.97 6.5-36.57-1.92-26.792-15.53-48.55-53.21-48.55-84.23 0-15.96 5.766-27.02 15.021-31.88 8.679-4.59 20.483-3.71 33.499 3.83 26.8 15.5 48.55 53.18 48.55 84.17l.03.03z" fill="#7D7D7B" stroke="#26144D" stroke-width="1.5" stroke-linecap="round" stroke-linejoin="round"/><path d="M1023.97 1733.15l-5.77 25.71c-2.27-1.7-4.61-3.22-6.95-4.62-2.61-1.49-5.16-2.74-7.64-3.71l3.7-16.44c4.82-1.91 10.47-2.28 16.66-.94zm36.02 24.07l-14.87 32.54c-3.19-5.41-6.77-10.57-10.68-15.28l13.29-29.11c4.31 3.43 8.43 7.41 12.26 11.85zm23.33 42.3l-23.67 35.19c-.39-7.3-1.88-14.83-4.31-22.37l20.79-30.87c2.97 5.89 5.4 11.97 7.19 18.05zm2.82 33.76c-2.15 12.03-8.43 20.05-17.2 23.15l-21.15 12.01c2.67-2.04 4.97-4.62 6.83-7.84l31.49-27.32h.03zm-40.75 27.95c0 4.56-.36 8.82-1.12 12.74-2.73 15.16-10.62 25.28-21.67 29.17l-26.641 15.13c3.368-2.55 6.281-5.83 8.621-9.87 4.12-7.15 6.46-16.53 6.46-27.93 0-1.55-.03-3.13-.15-4.71-.49-9.18-2.37-18.69-5.43-28.17-3.19-9.72-7.559-19.39-12.869-28.47-4.006-6.81-8.527-13.31-13.473-19.27-6.221-7.57-13.14-14.25-20.483-19.69-2.853-2.16-5.796-4.07-8.77-5.8-3.277-1.89-6.494-3.47-9.619-4.68-12.563-4.99-23.852-4.81-32.621-.16v-.12l29.677-16.1h.061a26.953 26.953 0 017.556-4.35c6.099-2.43 13.2-2.89 20.998-1.18 5.766 1.24 11.926 3.67 18.299 7.35a89.77 89.77 0 0111.652 8.05c5.432 4.32 10.622 9.36 15.442 14.92 7.89 9.09 14.84 19.54 20.33 30.57 3.74 7.42 6.8 15.08 9.08 22.76 3 10.09 4.67 20.21 4.67 29.81z" fill="#D8D8D8" stroke="#26144D" stroke-width="1.5" stroke-linecap="round" stroke-linejoin="round"/><path d="M1011.07 1880.47c0 17.84-5.7 30.78-15.081 37.8-11.197 8.33-27.705 8.21-46.094-2.4-33.774-19.57-61.175-67.06-61.175-106.14 0-20.12 7.282-34.04 18.935-40.18 10.955-5.8 25.824-4.65 42.24 4.84 33.774 19.5 61.175 67.03 61.175 106.11v-.03z" fill="#7D7D7B" stroke="#26144D" stroke-width="1.5" stroke-linecap="round" stroke-linejoin="round"/><path d="M965.917 1747.77l-7.282 32.39c-2.853-2.16-5.796-4.07-8.77-5.8-3.277-1.89-6.494-3.47-9.619-4.68l4.673-20.73c6.099-2.43 13.2-2.89 20.998-1.18zm45.393 30.32l-18.719 41.03c-4.006-6.81-8.527-13.31-13.474-19.27l16.751-36.68c5.432 4.32 10.622 9.36 15.442 14.92zm29.41 53.33l-29.83 44.34c-.49-9.18-2.37-18.69-5.43-28.17l26.18-38.93c3.74 7.42 6.8 15.08 9.08 22.76zm3.55 42.55c-2.73 15.16-10.62 25.28-21.67 29.17l-26.641 15.13c3.369-2.55 6.281-5.83 8.621-9.87l39.69-34.43zm-79.111-17.72c0 4.62-1.274 8.18-3.429 10.42l-4.248 2.5-61.176 35.7a25.456 25.456 0 01-12.957 3.53c-8.83 0-17.448-4.56-22.243-12.74-7.161-12.27-3.065-28.04 9.195-35.25l61.023-35.58 5.038-2.95c2.943-.61 6.494.12 10.317 2.31 10.196 5.9 18.48 20.27 18.48 32.06z" fill="#D8D8D8" stroke="#26144D" stroke-width="1.5" stroke-linecap="round" stroke-linejoin="round"/><path d="M774.805 1836.65l15.779 37.89 71.797 172.3 21.059 50.6 32.894-19.42-.516-149.23c-.394-39.81-28.737-87.98-63.36-107.58-9.923-5.59-19.269-8.26-27.554-8.26-8.284 0-14.869 2.43-20.422 7.02l-29.677 16.68z" fill="#D8D8D8" stroke="#26144D" stroke-width="1.5" stroke-linecap="round" stroke-linejoin="round"/><path d="M758.904 2025.48l124.536 71.96-.516-149.24c-.364-39.8-28.737-87.97-63.36-107.57-34.624-19.6-62.39-3.19-62.026 36.62l1.366 148.23z" fill="#7D7D7B" stroke="#26144D" stroke-width="1.5" stroke-linecap="round" stroke-linejoin="round"/><path d="M759.936 1883.84l11.318 20.61 35.807 65.33 12.624 22.97 22.789-12.91c9.984-3.53 16.356-14.1 16.356-30.09 0-28.04-19.664-62.14-43.909-76.15-13.504-7.81-25.581-7.75-33.622-1.33h-.031l-21.332 11.57z" fill="#D8D8D8" stroke="#26144D" stroke-width="1.5" stroke-linecap="round" stroke-linejoin="round"/><path d="M759.241 1956.11c-17.145-29.74-17.148-61.88-.007-71.79 17.141-9.91 44.934 6.17 62.079 35.9 17.145 29.74 17.148 61.88.007 71.79-17.141 9.91-44.935-6.16-62.079-35.9z" fill="#7D7D7B" stroke="#26144D" stroke-width="1.5" stroke-linecap="round" stroke-linejoin="round"/><path d="M806.849 1952.18c0 4.62-1.274 8.18-3.429 10.43l-4.248 2.49-61.176 35.71a25.444 25.444 0 01-12.957 3.52c-8.83 0-17.448-4.56-22.243-12.73-7.161-12.28-3.065-28.05 9.195-35.25l61.023-35.59 5.038-2.94c2.943-.61 6.494.12 10.317 2.31 10.196 5.89 18.48 20.26 18.48 32.05z" fill="#fff" stroke="#26144D" stroke-width="1.5" stroke-linecap="round" stroke-linejoin="round"/><circle cx="1131.5" cy="1739.5" r="5.5" fill="#525252"/><circle cx="1010.5" cy="2061.5" r="5.5" fill="#525252"/><path d="M744.23 2009.23c0 12.3-4.875 20.44-12.533 23.13l-14.65 8.34c5.17-3.88 8.297-11.03 8.297-20.88 0-21.57-15.069-47.8-33.659-58.58-9.037-5.25-17.211-5.87-23.244-2.67v-.08l16.325-8.88c6.156-4.95 15.414-5 25.78 1.01 18.59 10.79 33.66 37.02 33.66 58.59l.024.02z" fill="#D7D7D7" stroke="#26144D" stroke-width="1.5" stroke-linecap="round" stroke-linejoin="round"/><path d="M725.319 2019.85c0 9.84-3.152 16.99-8.298 20.88-6.156 4.6-15.241 4.52-25.361-1.34-18.591-10.81-33.66-37.03-33.66-58.61 0-11.11 4.014-18.8 10.415-22.19 6.033-3.19 14.208-2.57 23.245 2.67 18.59 10.79 33.659 37.01 33.659 58.59z" fill="#7D7D7B" stroke="#26144D" stroke-width="1.5" stroke-linecap="round" stroke-linejoin="round"/><circle cx="927.5" cy="1806.5" r="5.5" fill="#525252"/><path fill="#C1C1C1" fill-opacity=".8" d="M374 1875h199v82H374z"/><path fill="#fff" d="M367 1868h199v82H367z"/><path stroke="#525252" d="M360.5 1861.5h198v81h-198z"/><path d="M559 1902l369-95m83 255l-243 147" stroke="#525252" stroke-linecap="round"/><path fill="#C1C1C1" fill-opacity=".8" d="M583 2196h199v82H583z"/><path fill="#fff" d="M576 2189h199v82H576z"/><path stroke="#525252" d="M569.5 2182.5h198v81h-198z"/><path fill="#C1C1C1" fill-opacity=".8" d="M1185 2089h199v82h-199z"/><path fill="#fff" d="M1178 2082h199v82h-199z"/><path stroke="#525252" d="M1171.5 2075.5h198v81h-198z"/><path d="M1295 2075l-163-335" stroke="#525252" stroke-linecap="round"/></g></svg>