<svg width="352" height="332" fill="none" xmlns="http://www.w3.org/2000/svg"><path d="M106.544 309.789L1.183 248.978l105.344-60.827 105.362 60.827-105.345 60.811z" fill="#8ED760" stroke="#000" stroke-width="1.5" stroke-linecap="round" stroke-linejoin="round"/><path d="M106.361 330.356L1 269.545v-20.732l105.361 60.811v20.732z" fill="#956054" stroke="#000" stroke-width="1.5" stroke-linecap="round" stroke-linejoin="round"/><path d="M211.805 269.694L106.46 330.521v-20.732l105.345-60.827v20.732z" fill="#A9776B" stroke="#000" stroke-width="1.5" stroke-linecap="round" stroke-linejoin="round"/><path d="M52.93 245.91v6.878m116.182-7.34v6.878M134.271 215.2v6.878m-74.479 27.263v6.877m21.774-36.663v6.877m-5.955-9.401v6.878m87.083 17.647v6.877m-5.955-2.291v6.877m-49.042 22.447v6.877m-6.187-11.693v6.878m-6.184-1.831v6.878m32.528-63.252v6.878m13.297-6.185v6.877m-94.87 22.91v6.877m23.606-36.895v6.878" stroke="#5FAE2C" stroke-width="1.5" stroke-linecap="round" stroke-linejoin="round"/><path d="M245.639 226.152l-105.361-60.81 105.361-60.811 105.362 60.811-105.362 60.81z" fill="#8ED760" stroke="#000" stroke-width="1.5" stroke-linecap="round" stroke-linejoin="round"/><path d="M245.474 246.736l-105.361-60.827v-20.732l105.361 60.827v20.732z" fill="#956054" stroke="#000" stroke-width="1.5" stroke-linecap="round" stroke-linejoin="round"/><path d="M350.918 186.074l-105.361 60.81v-20.732l105.361-60.81v20.732z" fill="#A9776B" stroke="#000" stroke-width="1.5" stroke-linecap="round" stroke-linejoin="round"/><path d="M190.887 161.598v6.861m116.181-7.322v6.861m-34.822-37.11v6.877m-74.482 27.264v6.878m21.759-36.665v6.878m-5.955-9.401v6.877m87.083 17.648v6.861m-5.956-2.293v6.878m-49.042 22.464v6.861m-6.186-11.677v6.878m-6.184-1.831v6.861m32.545-63.235v6.877m13.279-6.185v6.861m-94.869 22.926v6.861m23.605-36.878v6.877" stroke="#5FAE2C" stroke-width="1.5" stroke-linecap="round" stroke-linejoin="round"/><path d="M282.329 95.147c-1.781.973-4.701.973-6.499 0-1.056-.594-1.485-1.385-1.287-2.144V82.332h9.073v10.671c.198.759-.231 1.55-1.287 2.144z" fill="#fff" stroke="#000" stroke-width="1.5" stroke-linecap="round" stroke-linejoin="round"/><path d="M279.144 84.905c2.578 0 4.668-1.123 4.668-2.507 0-1.385-2.09-2.507-4.668-2.507-2.578 0-4.668 1.122-4.668 2.507 0 1.384 2.09 2.507 4.668 2.507zm-13.528 19.462c-1.782.973-4.702.973-6.5 0-1.055-.594-1.484-1.385-1.286-2.144V91.552h9.073v10.671c.197.759-.231 1.55-1.287 2.144z" fill="#fff" stroke="#000" stroke-width="1.5" stroke-linecap="round" stroke-linejoin="round"/><path d="M262.449 94.124c2.578 0 4.668-1.122 4.668-2.507 0-1.384-2.09-2.507-4.668-2.507-2.579 0-4.669 1.123-4.669 2.507 0 1.385 2.09 2.507 4.669 2.507zM204.83 69.65c-1.782.972-4.702.972-6.5 0-1.056-.595-1.484-1.386-1.287-2.145V56.834h9.073v10.671c.198.759-.231 1.55-1.286 2.144z" fill="#fff" stroke="#000" stroke-width="1.5" stroke-linecap="round" stroke-linejoin="round"/><path d="M201.645 59.407c2.578 0 4.668-1.123 4.668-2.507 0-1.385-2.09-2.507-4.668-2.507-2.578 0-4.668 1.122-4.668 2.507 0 1.384 2.09 2.507 4.668 2.507zm69.267 7.52c-1.781.974-4.701.974-6.499 0-1.056-.593-1.485-1.385-1.287-2.144v-10.67h9.073v10.67c.198.76-.231 1.55-1.287 2.144z" fill="#fff" stroke="#000" stroke-width="1.5" stroke-linecap="round" stroke-linejoin="round"/><path d="M267.745 56.685c2.578 0 4.669-1.123 4.669-2.507 0-1.385-2.091-2.507-4.669-2.507-2.578 0-4.668 1.122-4.668 2.507 0 1.384 2.09 2.507 4.668 2.507zm-52.111-11.297c-1.781.973-4.701.973-6.499 0-1.056-.594-1.485-1.386-1.287-2.145v-10.67h9.073v10.67c.198.76-.231 1.55-1.287 2.145z" fill="#fff" stroke="#000" stroke-width="1.5" stroke-linecap="round" stroke-linejoin="round"/><path d="M212.449 35.145c2.578 0 4.669-1.123 4.669-2.507 0-1.385-2.091-2.507-4.669-2.507-2.578 0-4.668 1.122-4.668 2.507 0 1.384 2.09 2.507 4.668 2.507z" fill="#fff" stroke="#000" stroke-width="1.5" stroke-linecap="round" stroke-linejoin="round"/><path d="M239.387 178.553l1.171-67.391-11.927-5.657-16.991 58.782" stroke="#000" stroke-width="1.5" stroke-linecap="round" stroke-linejoin="round"/><path d="M267.662 162.967L251.1 104.68V32.902L240.559.97l-10.987 31.205v73.329l11.135-5.525 10.393 4.7-10.541 6.482V2.439m-28.621 161.848l27.449-8.049 28.225 6.878" stroke="#000" stroke-width="1.5" stroke-linecap="round" stroke-linejoin="round"/><path d="M257.847 129.717l-18.03 9.962-17.569-8.791 17.14 25.35 18.459-26.521z" stroke="#000" stroke-width="1.5" stroke-linecap="round" stroke-linejoin="round"/><path d="M253.442 116.539l-13.625 7.62-14.204-6.152 14.204 21.672 13.625-23.14zm-47.904-60.927l57.143 32.657-22.122-22.843-10.409-6.152-24.612-3.662zm11.433-6.53l57.143 32.657-22.122-22.844-10.409-6.152-24.612-3.661zm-2.047-14.416l40.135 22.118-14.203-18.027-11.284-6.581-14.648 2.49zm11.268-4.981l40.152 22.117-14.22-18.027-11.266-6.58-14.666 2.49zm-8.2 116.294l21.395 32.574 21.825-34.916-21.825 12.601-21.247-11.282" stroke="#000" stroke-width="1.5" stroke-linecap="round" stroke-linejoin="round"/><path d="M229.128 106.429l11.283 16.707 10.113-16.559m-9.668-67.82L251.1 32.9m11.581 55.37l11.284-6.45m-68.427-26.207l11.431-6.152m38.091 7.323l11.283-4.981m-51.419-17.137l11.267-4.98m3.958 29.588l9.238-6.004m1.172 12.156l10.244-6.3m-20.504 28.566l9.667 4.238 10.557-6.597" stroke="#000" stroke-width="1.5" stroke-linecap="round" stroke-linejoin="round"/><path d="M215.317 164.319l66.233 39.006 28.406-16.955-65.077-37.571-29.562 15.52zM75.068 249.556l66.232 39.007 28.407-16.955-65.078-37.572-29.561 15.52z" fill="#B2B4B3" opacity=".46"/><path d="M63.95 146.853s32.315-6.877 72.533-30.924c40.432-24.18 62.224-46.396 62.224-46.396M75.629 124.158s32.316-6.878 72.534-30.925c40.432-24.179 62.224-46.395 62.224-46.395m-79.067 97.936s32.316-6.877 72.534-30.924c40.432-24.18 62.223-46.396 62.223-46.396M141.631 176.409s15.82-2.408 56.038-26.472c40.432-24.179 62.223-46.395 62.223-46.395" stroke="#6CA3FF" stroke-width="2" stroke-linecap="round" stroke-linejoin="round"/><path d="M146.365 181.29c-1.781.973-4.701.973-6.499 0-1.056-.594-1.485-1.386-1.287-2.144v-10.671h9.073v10.671c.198.758-.231 1.55-1.287 2.144z" fill="#fff" stroke="#000" stroke-width="1.5" stroke-linecap="round" stroke-linejoin="round"/><path d="M143.18 171.048c2.578 0 4.669-1.122 4.669-2.507 0-1.384-2.091-2.507-4.669-2.507-2.578 0-4.668 1.123-4.668 2.507 0 1.385 2.09 2.507 4.668 2.507zm-13.528 19.479c-1.782.973-4.701.973-6.5 0-1.055-.594-1.484-1.385-1.286-2.144v-10.671h9.073v10.671c.198.759-.231 1.55-1.287 2.144z" fill="#fff" stroke="#000" stroke-width="1.5" stroke-linecap="round" stroke-linejoin="round"/><path d="M126.485 180.284c2.578 0 4.668-1.122 4.668-2.507 0-1.384-2.09-2.506-4.668-2.506-2.578 0-4.669 1.122-4.669 2.506 0 1.385 2.091 2.507 4.669 2.507zm-57.622-24.475c-1.782.973-4.701.973-6.5 0-1.055-.593-1.484-1.385-1.286-2.144v-10.671h9.073v10.671c.197.759-.231 1.551-1.287 2.144z" fill="#fff" stroke="#000" stroke-width="1.5" stroke-linecap="round" stroke-linejoin="round"/><path d="M65.678 145.567c2.578 0 4.668-1.123 4.668-2.507 0-1.385-2.09-2.507-4.668-2.507-2.579 0-4.669 1.122-4.669 2.507 0 1.384 2.09 2.507 4.669 2.507zm69.269 7.505c-1.782.973-4.702.973-6.5 0-1.055-.594-1.484-1.385-1.286-2.144v-10.671h9.073v10.671c.198.759-.231 1.55-1.287 2.144z" fill="#fff" stroke="#000" stroke-width="1.5" stroke-linecap="round" stroke-linejoin="round"/><path d="M131.78 142.829c2.578 0 4.668-1.122 4.668-2.507 0-1.384-2.09-2.507-4.668-2.507-2.579 0-4.669 1.123-4.669 2.507 0 1.385 2.09 2.507 4.669 2.507zm-52.11-11.298c-1.781.973-4.7.973-6.499 0-1.056-.594-1.485-1.385-1.287-2.144v-10.671h9.073v10.671c.198.759-.23 1.55-1.286 2.144z" fill="#fff" stroke="#000" stroke-width="1.5" stroke-linecap="round" stroke-linejoin="round"/><path d="M76.485 121.288c2.579 0 4.669-1.122 4.669-2.507 0-1.384-2.09-2.507-4.669-2.507-2.578 0-4.668 1.123-4.668 2.507 0 1.385 2.09 2.507 4.668 2.507z" fill="#fff" stroke="#000" stroke-width="1.5" stroke-linecap="round" stroke-linejoin="round"/><path d="M103.423 264.697l1.171-67.375-11.91-5.657-17.008 58.782" stroke="#000" stroke-width="1.5" stroke-linecap="round" stroke-linejoin="round"/><path d="M131.698 249.127l-16.562-58.303v-71.762l-10.541-31.931-10.987 31.189v73.345l11.135-5.525 10.393 4.684-10.541 6.498V88.582M75.974 250.447l27.449-8.065 28.225 6.894" stroke="#000" stroke-width="1.5" stroke-linecap="round" stroke-linejoin="round"/><path d="M121.883 215.877l-18.03 9.962-17.569-8.791 17.14 25.334 18.459-26.505z" stroke="#000" stroke-width="1.5" stroke-linecap="round" stroke-linejoin="round"/><path d="M117.479 202.699l-13.626 7.604-14.204-6.152 14.204 21.688 13.626-23.14zm-47.908-60.942l57.143 32.673-22.121-22.86-10.41-6.152-24.612-3.661zm11.433-6.531l57.143 32.656-22.121-22.843-10.409-6.152-24.613-3.661zM78.96 120.81l40.135 22.117-14.203-18.01-11.283-6.598-14.649 2.491zm11.284-4.982l40.135 22.118-14.22-18.011-11.267-6.597-14.648 2.49zm-8.216 116.311l21.395 32.558 21.825-34.9-21.825 12.584L82.176 231.1" stroke="#000" stroke-width="1.5" stroke-linecap="round" stroke-linejoin="round"/><path d="M93.162 192.589l11.283 16.691 10.112-16.543m-9.667-67.82l10.244-5.855m11.581 55.367l11.283-6.449m-68.427-26.224l11.432-6.152m38.09 7.323l11.284-4.981M78.96 120.81l11.283-4.981m3.942 29.589l9.238-6.004m1.172 12.156l10.244-6.3m-20.507 28.565l9.667 4.255 10.557-6.597" stroke="#000" stroke-width="1.5" stroke-linecap="round" stroke-linejoin="round"/></svg>