<svg width="1238" height="780" fill="none" xmlns="http://www.w3.org/2000/svg"><path d="M880.682 79.164c-.172-10.067-7.243-22.65-15.774-28.112-5.096-3.174-9.505-3.145-12.282-.457l-83.367 47.1 22.015 39.293 83.367-47.1c3.722-.944 6.07-4.69 6.012-10.696l.029-.028z" fill="#248CFF" stroke="#26144D" stroke-width="1.5" stroke-linecap="round" stroke-linejoin="round"/><path d="M769.838 123.193c-6.157-10.982-6.34-22.576-.408-25.894 5.932-3.319 15.732 2.894 21.89 13.877 6.157 10.983 6.34 22.577.408 25.895-5.932 3.319-15.732-2.895-21.89-13.878z" fill="#0069EA" stroke="#26144D" stroke-width="1.5" stroke-linecap="round" stroke-linejoin="round"/><path d="M960.267 405.865l276.273-159.347L960.267 87.2 683.999 246.518l276.268 159.347z" fill="#8ED760" stroke="#26144D" stroke-width="1.5" stroke-linecap="round" stroke-linejoin="round"/><path d="M833.5 271.5l182 106.5L1193 274l-105.5-60.5-254 58z" fill="#B2B4B3" opacity=".46"/><path d="M960.726 459.771l276.264-159.347v-54.307L960.726 405.464v54.307z" fill="#A9776B" stroke="#26144D" stroke-width="1.5" stroke-linecap="round" stroke-linejoin="round"/><path d="M684.2 300.826l276.268 159.346v-54.307L684.2 246.519v54.307z" fill="#956054" stroke="#26144D" stroke-width="1.5" stroke-linecap="round" stroke-linejoin="round"/><path d="M1130.84 231.247v17.502m-385.402-11.525v17.501m367.852-14.727V257.5m-351.477-30.199v17.502m15.204-5.834v17.502m176.754 89.797v17.501m15.772-29.771v17.53m15.777-4.661v17.502m162.44-123.198v17.502" stroke="#5FAE2C" stroke-width="1.5" stroke-linecap="round" stroke-linejoin="round"/><path d="M985.118 171.478l30.972-18.045-.2-86.222-30.973 18.045.201 86.222z" fill="#fff" stroke="#000" stroke-width="1.5" stroke-linecap="round" stroke-linejoin="round"/><path d="M984.919 85.255L1015.9 67.21l-28.347-16.33-30.948 18.046 28.314 16.33z" fill="#248CFF" stroke="#26144D" stroke-width="1.5" stroke-linecap="round" stroke-linejoin="round"/><path d="M1005.59 67.697l-19.07-10.724" stroke="#fff" stroke-width="1.5" stroke-linecap="round" stroke-linejoin="round"/><path d="M956.604 68.927l.172 86.222 28.342 16.329-.2-86.222-28.314-16.33z" fill="#fff" stroke="#000" stroke-width="1.5" stroke-linecap="round" stroke-linejoin="round"/><path d="M1023.71 193.726l30.95-18.045-.17-86.222-30.98 18.074.2 86.193z" fill="#004DA9" stroke="#26144D" stroke-width="1.5" stroke-linecap="round" stroke-linejoin="round"/><path d="M1023.51 107.534l30.98-18.074-28.35-16.33-30.974 18.046 28.344 16.358z" fill="#248CFF" stroke="#26144D" stroke-width="1.5" stroke-linecap="round" stroke-linejoin="round"/><path d="M1044.24 90.203l-19.1-10.725" stroke="#fff" stroke-width="1.5" stroke-linecap="round" stroke-linejoin="round"/><path d="M995.167 91.176l.2 86.222 28.343 16.329-.2-86.193-28.343-16.358z" fill="#fff" stroke="#000" stroke-width="1.5" stroke-linecap="round" stroke-linejoin="round"/><path d="M1062.27 215.975l30.98-18.045-.2-86.222-30.95 18.074.17 86.193z" fill="#004DA9" stroke="#26144D" stroke-width="1.5" stroke-linecap="round" stroke-linejoin="round"/><path d="M1062.1 129.782l30.95-18.074-28.32-16.33-30.97 18.046 28.34 16.358z" fill="#248CFF" stroke="#26144D" stroke-width="1.5" stroke-linecap="round" stroke-linejoin="round"/><path d="M1033.76 113.425l.2 86.222 28.31 16.329-.17-86.193-28.34-16.358z" fill="#fff" stroke="#000" stroke-width="1.5" stroke-linecap="round" stroke-linejoin="round"/><path d="M977.273 319.1l118.177-68.177V135.359l-118.177 68.177V319.1z" fill="#004DA9" stroke="#26144D" stroke-width="1.5" stroke-linecap="round" stroke-linejoin="round"/><path d="M807.505 221.181l169.769 97.918V203.536l-169.769-97.919v115.564z" fill="#0069EA" stroke="#26144D" stroke-width="1.5" stroke-linecap="round" stroke-linejoin="round"/><path d="M977.273 203.536l118.177-68.177-169.766-97.89-118.179 68.148 169.768 97.919z" fill="#248CFF" stroke="#26144D" stroke-width="1.5" stroke-linecap="round" stroke-linejoin="round"/><path d="M1017.9 159.81l-54.512 33.174-26.854-14.299 53.565-31.115 27.801 12.24zm-49.128-33.346l-60.464 35.347-25.851-15.099 54.881-32.173 31.434 11.925zM912.686 98.24l-56.485 32.572-26.253-14.299 54.968-30.542 27.77 12.268z" fill="#B2B4B3" opacity=".46"/><path d="M1067.8 173.336l-55.69 31.372m55.69-17.073l-55.69 31.371m55.69-16.271l-55.69 31.372m55.69-16.671l-55.69 31.371" stroke="#26144D" stroke-width="1.5" stroke-linecap="round" stroke-linejoin="round"/><path d="M834.787 272.485l30.976-18.074-.2-86.193-30.977 18.045.201 86.222z" fill="#004DA9" stroke="#26144D" stroke-width="1.5" stroke-linecap="round" stroke-linejoin="round"/><path d="M834.587 186.263l30.976-18.045-28.343-16.358-30.947 18.074 28.314 16.329z" fill="#248CFF" stroke="#26144D" stroke-width="1.5" stroke-linecap="round" stroke-linejoin="round"/><path d="M806.275 169.934l.172 86.222 28.342 16.329-.2-86.222-28.314-16.329z" fill="#0069EA" stroke="#26144D" stroke-width="1.5" stroke-linecap="round" stroke-linejoin="round"/><path d="M873.379 294.734l30.948-18.045-.172-86.222-30.976 18.045.2 86.222z" fill="#004DA9" stroke="#26144D" stroke-width="1.5" stroke-linecap="round" stroke-linejoin="round"/><path d="M873.18 208.511l30.976-18.045-28.342-16.358-30.977 18.074 28.343 16.329z" fill="#248CFF" stroke="#26144D" stroke-width="1.5" stroke-linecap="round" stroke-linejoin="round"/><path d="M844.836 192.183l.2 86.222 28.343 16.329-.2-86.222-28.343-16.329z" fill="#0069EA" stroke="#26144D" stroke-width="1.5" stroke-linecap="round" stroke-linejoin="round"/><path d="M911.944 316.982l30.976-18.045-.2-86.222-30.948 18.045.172 86.222z" fill="#004DA9" stroke="#26144D" stroke-width="1.5" stroke-linecap="round" stroke-linejoin="round"/><path d="M911.772 230.761l30.948-18.045-28.314-16.329-30.977 18.045 28.343 16.329z" fill="#248CFF" stroke="#26144D" stroke-width="1.5" stroke-linecap="round" stroke-linejoin="round"/><path d="M883.428 214.432l.2 86.222 28.314 16.329-.171-86.222-28.343-16.329z" fill="#0069EA" stroke="#26144D" stroke-width="1.5" stroke-linecap="round" stroke-linejoin="round"/><path d="M1012.94 319.7l85.29-49.388-.2-38.092-85.29 49.388.2 38.092z" fill="#004DA9" stroke="#26144D" stroke-width="1.5" stroke-linecap="round" stroke-linejoin="round"/><path d="M1012.74 281.608l85.29-49.389-17.41-10.037-85.282 49.388 17.402 10.038z" fill="#248CFF" stroke="#26144D" stroke-width="1.5" stroke-linecap="round" stroke-linejoin="round"/><path d="M995.338 271.569l.2 38.092 17.402 10.038-.2-38.092-17.402-10.038z" fill="#0069EA" stroke="#26144D" stroke-width="1.5" stroke-linecap="round" stroke-linejoin="round"/><path d="M892.819 96.18c7.072 2.946 17.951 1.802 24.306-2.545 3.722-2.602 5.039-5.748 3.98-8.493l-4.18-39.866-33.954 3.546 4.18 39.866c-.458 2.917 1.46 5.72 5.668 7.492z" fill="#fff" stroke="#26144D" stroke-width="1.5" stroke-linecap="round" stroke-linejoin="round"/><path d="M886.235 78.879c-.458 2.917 1.46 5.72 5.64 7.492 7.043 2.946 17.865 1.802 24.163-2.516 3.722-2.603 5.01-5.748 3.951-8.494" fill="#fff"/><path d="M886.235 78.879c-.458 2.917 1.46 5.72 5.64 7.492 7.043 2.946 17.865 1.802 24.163-2.516 3.722-2.603 5.01-5.748 3.951-8.494" stroke="#26144D" stroke-width="1.5" stroke-linecap="round" stroke-linejoin="round"/><path d="M885.147 68.584c-.458 2.917 1.461 5.72 5.64 7.492 7.043 2.946 17.865 1.802 24.163-2.516 3.722-2.603 5.01-5.748 3.951-8.494" fill="#fff"/><path d="M885.147 68.584c-.458 2.917 1.461 5.72 5.64 7.492 7.043 2.946 17.865 1.802 24.163-2.516 3.722-2.603 5.01-5.748 3.951-8.494" stroke="#26144D" stroke-width="1.5" stroke-linecap="round" stroke-linejoin="round"/><path d="M884.029 58.832c-.458 2.917 1.46 5.72 5.64 7.493 7.043 2.945 17.865 1.801 24.163-2.517 3.722-2.602 5.01-5.748 3.951-8.493" fill="#fff"/><path d="M884.029 58.832c-.458 2.917 1.46 5.72 5.64 7.493 7.043 2.945 17.865 1.801 24.163-2.517 3.722-2.602 5.01-5.748 3.951-8.493" stroke="#26144D" stroke-width="1.5" stroke-linecap="round" stroke-linejoin="round"/><path d="M882.008 46.29c-.544-5.184 6.817-10.203 16.441-11.21 9.624-1.007 17.866 2.379 18.41 7.562.543 5.184-6.818 10.203-16.442 11.21-9.624 1.007-17.866-2.38-18.409-7.563z" fill="#fff" stroke="#26144D" stroke-width="1.5" stroke-linecap="round" stroke-linejoin="round"/><path d="M880.719 34.106c-.544-5.184 6.817-10.203 16.441-11.21 9.624-1.007 17.866 2.38 18.41 7.563.544 5.183-6.817 10.202-16.441 11.21-9.624 1.006-17.866-2.38-18.41-7.563z" fill="#fff" stroke="#26144D" stroke-width="1.5" stroke-linecap="round" stroke-linejoin="round"/><path d="M892.904 31.578c2.606 1.058 6.614.658 8.961-.944 1.374-.943 1.861-2.087 1.489-3.088l-1.517-14.5-12.54 1.316 1.518 14.5c-.172 1.058.543 2.087 2.089 2.716z" fill="#fff" stroke="#26144D" stroke-width="1.5" stroke-linecap="round" stroke-linejoin="round"/><path d="M889.219 14.418c-.197-1.885 2.485-3.71 5.992-4.078 3.507-.367 6.51.864 6.707 2.749.198 1.885-2.484 3.71-5.991 4.077-3.507.367-6.51-.863-6.708-2.748z" fill="#fff" stroke="#26144D" stroke-width="1.5" stroke-linecap="round" stroke-linejoin="round"/><path d="M877.686 13.913c-.544-5.184 6.817-10.202 16.441-11.21 9.624-1.006 17.866 2.38 18.41 7.564.543 5.183-6.818 10.202-16.441 11.209-9.624 1.007-17.867-2.38-18.41-7.563z" fill="#E40133" stroke="#26144D" stroke-width="1.5" stroke-linecap="round" stroke-linejoin="round"/><path d="M942.143 125.407c6.728 3.661 17.664 3.661 24.421 0 3.979-2.202 5.611-5.176 4.838-8.036V77.277h-34.126v40.094c-.744 2.86.859 5.834 4.839 8.036h.028z" fill="#fff" stroke="#26144D" stroke-width="1.5" stroke-linecap="round" stroke-linejoin="round"/><path d="M937.392 107.505c-.744 2.86.859 5.834 4.81 8.036 6.699 3.66 17.578 3.66 24.306 0 3.95-2.202 5.582-5.176 4.809-8.036" fill="#fff"/><path d="M937.392 107.505c-.744 2.86.859 5.834 4.81 8.036 6.699 3.66 17.578 3.66 24.306 0 3.95-2.202 5.582-5.176 4.809-8.036" stroke="#26144D" stroke-width="1.5" stroke-linecap="round" stroke-linejoin="round"/><path d="M937.392 97.182c-.744 2.859.859 5.834 4.81 8.036 6.699 3.66 17.578 3.66 24.306 0 3.95-2.202 5.582-5.177 4.809-8.036" fill="#fff"/><path d="M937.392 97.182c-.744 2.859.859 5.834 4.81 8.036 6.699 3.66 17.578 3.66 24.306 0 3.95-2.202 5.582-5.177 4.809-8.036" stroke="#26144D" stroke-width="1.5" stroke-linecap="round" stroke-linejoin="round"/><path d="M937.304 87.344c-.744 2.86.859 5.834 4.81 8.036 6.699 3.66 17.578 3.66 24.306 0 3.95-2.202 5.582-5.176 4.809-8.036" fill="#fff"/><path d="M937.304 87.344c-.744 2.86.859 5.834 4.81 8.036 6.699 3.66 17.578 3.66 24.306 0 3.95-2.202 5.582-5.176 4.809-8.036" stroke="#26144D" stroke-width="1.5" stroke-linecap="round" stroke-linejoin="round"/><path d="M954.111 84.113c-9.677 0-17.521-4.225-17.521-9.438 0-5.212 7.844-9.437 17.521-9.437 9.676 0 17.52 4.225 17.52 9.438 0 5.212-7.844 9.437-17.52 9.437z" fill="#fff" stroke="#26144D" stroke-width="1.5" stroke-linecap="round" stroke-linejoin="round"/><path d="M954.111 71.873c-9.677 0-17.521-4.226-17.521-9.438 0-5.212 7.844-9.437 17.521-9.437 9.676 0 17.52 4.225 17.52 9.437s-7.844 9.438-17.52 9.438z" fill="#fff" stroke="#26144D" stroke-width="1.5" stroke-linecap="round" stroke-linejoin="round"/><path d="M948.989 61.177c2.49 1.344 6.527 1.344 9.018 0 1.46-.801 2.061-1.888 1.803-2.917V43.675h-12.596V58.26c-.287 1.03.314 2.116 1.803 2.917h-.028z" fill="#fff" stroke="#26144D" stroke-width="1.5" stroke-linecap="round" stroke-linejoin="round"/><path d="M953.484 47.193c-3.526 0-6.384-1.537-6.384-3.432s2.858-3.432 6.384-3.432c3.526 0 6.384 1.537 6.384 3.432s-2.858 3.432-6.384 3.432z" fill="#fff" stroke="#26144D" stroke-width="1.5" stroke-linecap="round" stroke-linejoin="round"/><path d="M953.195 51.454c-9.676 0-17.52-4.226-17.52-9.438 0-5.212 7.844-9.437 17.52-9.437 9.677 0 17.521 4.225 17.521 9.437s-7.844 9.438-17.521 9.438z" fill="#E40133" stroke="#26144D" stroke-width="1.5" stroke-linecap="round" stroke-linejoin="round"/><path d="M993.737 156.235c6.127 4.605 16.953 6.206 24.163 3.575 4.27-1.601 6.3-4.318 5.98-7.235l5.9-39.665-33.753-5.005-5.897 39.665c-1.174 2.717 0 5.891 3.607 8.665z" fill="#fff" stroke="#26144D" stroke-width="1.5" stroke-linecap="round" stroke-linejoin="round"/><path d="M991.648 137.819c-1.145 2.717 0 5.891 3.578 8.665 6.074 4.605 16.834 6.206 24.024 3.575 4.23-1.601 6.27-4.318 5.95-7.235" fill="#fff"/><path d="M991.648 137.819c-1.145 2.717 0 5.891 3.578 8.665 6.074 4.605 16.834 6.206 24.024 3.575 4.23-1.601 6.27-4.318 5.95-7.235" stroke="#26144D" stroke-width="1.5" stroke-linecap="round" stroke-linejoin="round"/><path d="M993.164 127.61c-1.145 2.717 0 5.891 3.579 8.665 6.067 4.605 16.837 6.206 24.017 3.575 4.24-1.601 6.27-4.318 5.96-7.235" fill="#fff"/><path d="M993.164 127.61c-1.145 2.717 0 5.891 3.579 8.665 6.067 4.605 16.837 6.206 24.017 3.575 4.24-1.601 6.27-4.318 5.96-7.235" stroke="#26144D" stroke-width="1.5" stroke-linecap="round" stroke-linejoin="round"/><path d="M994.509 117.857c-1.145 2.717 0 5.892 3.579 8.666 6.072 4.604 16.832 6.205 24.022 3.574 4.23-1.601 6.27-4.318 5.95-7.235" fill="#fff"/><path d="M994.509 117.857c-1.145 2.717 0 5.892 3.579 8.666 6.072 4.604 16.832 6.205 24.022 3.574 4.23-1.601 6.27-4.318 5.95-7.235" stroke="#26144D" stroke-width="1.5" stroke-linecap="round" stroke-linejoin="round"/><path d="M1011.61 117.088c-9.57-1.419-16.711-6.749-15.945-11.904.765-5.156 9.145-8.185 18.715-6.766 9.57 1.418 16.71 6.748 15.95 11.903-.77 5.156-9.15 8.185-18.72 6.767z" fill="#fff" stroke="#26144D" stroke-width="1.5" stroke-linecap="round" stroke-linejoin="round"/><path d="M1013.43 104.985c-9.58-1.419-16.715-6.748-15.949-11.904.766-5.155 9.149-8.185 18.719-6.766 9.57 1.419 16.71 6.748 15.94 11.904-.76 5.155-9.14 8.185-18.71 6.766z" fill="#fff" stroke="#26144D" stroke-width="1.5" stroke-linecap="round" stroke-linejoin="round"/><path d="M1009.91 93.664c2.26 1.687 6.24 2.259 8.93 1.315 1.58-.572 2.32-1.573 2.21-2.63l2.14-14.414-12.45-1.859-2.15 14.413c-.43 1.001 0 2.145 1.35 3.146l-.03.029z" fill="#fff" stroke="#26144D" stroke-width="1.5" stroke-linecap="round" stroke-linejoin="round"/><path d="M1016.41 80.481c-3.49-.517-6.09-2.456-5.81-4.33.28-1.875 3.33-2.976 6.82-2.46 3.48.518 6.09 2.457 5.81 4.331-.28 1.875-3.33 2.976-6.82 2.459z" fill="#fff" stroke="#26144D" stroke-width="1.5" stroke-linecap="round" stroke-linejoin="round"/><path d="M1015.5 84.663c-9.57-1.419-16.709-6.748-15.943-11.904.763-5.156 9.143-8.185 18.713-6.766 9.58 1.418 16.72 6.748 15.95 11.904-.77 5.155-9.15 8.184-18.72 6.766z" fill="#E40133" stroke="#26144D" stroke-width="1.5" stroke-linecap="round" stroke-linejoin="round"/><path d="M1081.51 135.788l-103.207 59.598M865.364 57.315l-74.377 43.326m178.958 202.015v-94.172l-145.549-84.02m258.004-12.527l-19.1-10.724" stroke="#fff" stroke-width="1.5" stroke-linecap="round" stroke-linejoin="round"/><path d="M948 63S794.5 248 584 308.5c-108 25.5-250.369 28.556-250.369 28.556" stroke="#6CA3FF" stroke-width="2" stroke-linecap="round" stroke-linejoin="round"/><path d="M899.501 28s-124.5 159.5-280.5 230.5c-92 46.5-291.205 72.798-291.205 72.798M1015.5 91S839 281.5 658.5 364.5c-138.5 49.092-222.287 49.092-222.287 49.092" stroke="#6CA3FF" stroke-width="2" stroke-linecap="round" stroke-linejoin="round"/><path d="M956.5 58S795 259.5 628.5 334c-121.5 43-209.033 35.35-209.033 35.35" stroke="#6CA3FF" stroke-width="2" stroke-linecap="round" stroke-linejoin="round"/><path d="M163.863 747.028L1.809 653.497l162.029-93.558 162.055 93.558-162.03 93.531z" fill="#8ED760" stroke="#26144D" stroke-width="1.5" stroke-linecap="round" stroke-linejoin="round"/><path d="M163.584 778.663L1.529 685.131v-31.888l162.055 93.532v31.888z" fill="#956054" stroke="#26144D" stroke-width="1.5" stroke-linecap="round" stroke-linejoin="round"/><path d="M325.766 685.359l-162.03 93.557v-31.887l162.03-93.557v31.887z" fill="#A9776B" stroke="#26144D" stroke-width="1.5" stroke-linecap="round" stroke-linejoin="round"/><path d="M81.402 648.778v10.579m178.7-11.289v10.579m-53.587-57.104v10.578M91.957 654.055v10.578m33.492-56.393v10.579m-9.159-14.461v10.579m133.942 27.144v10.579m-9.16-3.526v10.578m-75.432 34.525v10.579m-9.515-17.986v10.579m-9.515-2.816v10.578m50.035-97.286v10.578m20.45-9.513v10.579M71.177 654.765v10.578m36.308-56.747v10.578" stroke="#5FAE2C" stroke-width="1.5" stroke-linecap="round" stroke-linejoin="round"/><path d="M377.805 618.387L215.75 524.855l162.055-93.532 162.055 93.532-162.055 93.532z" fill="#8ED760" stroke="#26144D" stroke-width="1.5" stroke-linecap="round" stroke-linejoin="round"/><path d="M377.551 650.046l-162.054-93.557v-31.887l162.054 93.557v31.887z" fill="#956054" stroke="#26144D" stroke-width="1.5" stroke-linecap="round" stroke-linejoin="round"/><path d="M539.733 556.743l-162.055 93.532v-31.888l162.055-93.532v31.888z" fill="#A9776B" stroke="#26144D" stroke-width="1.5" stroke-linecap="round" stroke-linejoin="round"/><path d="M293.593 519.097v10.553m178.699-11.263v10.553m-53.561-57.079v10.579m-114.557 41.933v10.579m33.466-56.393v10.578m-9.16-14.46v10.578m133.943 27.144v10.553m-9.16-3.525v10.578m-75.432 34.551v10.553m-9.516-17.961v10.579m-9.514-2.816v10.553m50.06-97.261v10.579m20.425-9.513v10.553m-145.918 35.261v10.553m36.308-56.722v10.579" stroke="#5FAE2C" stroke-width="1.5" stroke-linecap="round" stroke-linejoin="round"/><path d="M434.234 416.89c-2.74 1.496-7.231 1.496-9.997 0-1.624-.914-2.283-2.131-1.979-3.298v-16.413h13.955v16.413c.305 1.167-.355 2.384-1.979 3.298z" fill="#fff" stroke="#26144D" stroke-width="1.5" stroke-linecap="round" stroke-linejoin="round"/><path d="M429.337 401.136c3.966 0 7.181-1.727 7.181-3.856 0-2.13-3.215-3.856-7.181-3.856-3.965 0-7.18 1.726-7.18 3.856 0 2.129 3.215 3.856 7.18 3.856zm-20.806 29.934c-2.74 1.497-7.231 1.497-9.996 0-1.624-.913-2.284-2.131-1.979-3.298v-16.413h13.954v16.413c.305 1.167-.355 2.385-1.979 3.298z" fill="#fff" stroke="#26144D" stroke-width="1.5" stroke-linecap="round" stroke-linejoin="round"/><path d="M403.66 415.316c3.966 0 7.18-1.726 7.18-3.856 0-2.129-3.214-3.856-7.18-3.856-3.966 0-7.181 1.727-7.181 3.856 0 2.13 3.215 3.856 7.181 3.856zm-88.627-37.645c-2.74 1.497-7.231 1.497-9.996 0-1.624-.913-2.284-2.131-1.98-3.298V357.96h13.955v16.413c.305 1.167-.355 2.385-1.979 3.298z" fill="#fff" stroke="#26144D" stroke-width="1.5" stroke-linecap="round" stroke-linejoin="round"/><path d="M310.137 361.917c3.965 0 7.18-1.726 7.18-3.856s-3.215-3.856-7.18-3.856c-3.966 0-7.181 1.726-7.181 3.856s3.215 3.856 7.181 3.856zm106.539 11.568c-2.74 1.497-7.231 1.497-9.997 0-1.624-.913-2.283-2.131-1.979-3.297v-16.414h13.955v16.414c.304 1.166-.355 2.384-1.979 3.297z" fill="#fff" stroke="#26144D" stroke-width="1.5" stroke-linecap="round" stroke-linejoin="round"/><path d="M411.804 357.731c3.966 0 7.181-1.726 7.181-3.856 0-2.129-3.215-3.855-7.181-3.855-3.965 0-7.18 1.726-7.18 3.855 0 2.13 3.215 3.856 7.18 3.856zm-80.152-17.377c-2.74 1.497-7.231 1.497-9.996 0-1.624-.913-2.284-2.13-1.979-3.297v-16.413h13.955v16.413c.304 1.167-.356 2.384-1.98 3.297z" fill="#fff" stroke="#26144D" stroke-width="1.5" stroke-linecap="round" stroke-linejoin="round"/><path d="M326.756 324.601c3.965 0 7.18-1.727 7.18-3.856 0-2.13-3.215-3.856-7.18-3.856-3.966 0-7.181 1.726-7.181 3.856 0 2.129 3.215 3.856 7.181 3.856z" fill="#fff" stroke="#26144D" stroke-width="1.5" stroke-linecap="round" stroke-linejoin="round"/><path d="M368.189 545.175l1.801-103.653-18.344-8.702-26.134 90.412" stroke="#26144D" stroke-width="1.5" stroke-linecap="round" stroke-linejoin="round"/><path d="M411.678 521.203l-25.474-89.651V321.151l-16.214-49.113-16.898 47.996V432.82l17.127-8.498 15.985 7.23-16.214 9.97V274.296m-44.021 248.936l42.22-12.379 43.413 10.578" stroke="#26144D" stroke-width="1.5" stroke-linecap="round" stroke-linejoin="round"/><path d="M396.581 470.061l-27.732 15.322-27.022-13.521 26.362 38.99 28.392-40.791z" stroke="#26144D" stroke-width="1.5" stroke-linecap="round" stroke-linejoin="round"/><path d="M389.807 449.792l-20.958 11.72-21.846-9.462 21.846 33.333 20.958-35.591zm-73.682-93.71l87.89 50.229-34.024-35.135-16.011-9.462-37.855-5.632zm17.583-10.046l87.89 50.229-34.024-35.135-16.011-9.462-37.855-5.632zm-3.146-22.171l61.731 34.018-21.846-27.727-17.355-10.122-22.53 3.831zm17.329-7.661l61.757 34.018-21.871-27.727-17.33-10.122-22.556 3.831zm-12.61 178.87l32.908 50.102 33.568-53.704-33.568 19.381-32.68-17.352" stroke="#26144D" stroke-width="1.5" stroke-linecap="round" stroke-linejoin="round"/><path d="M352.407 434.241l17.355 25.698 15.553-25.469m-14.868-104.314l15.757-9.006m17.811 85.16l17.355-9.918m-105.245-40.31l17.583-9.462m58.585 11.264l17.355-7.661m-79.086-26.358l17.329-7.661m6.089 45.51l14.209-9.234m1.802 18.696l15.756-9.691m-31.539 43.938l14.869 6.519 16.238-10.147" stroke="#26144D" stroke-width="1.5" stroke-linecap="round" stroke-linejoin="round"/><path d="M331.17 523.282l101.871 59.996 43.692-26.079-100.095-57.788-45.468 23.871zM115.452 654.384l101.871 59.995 43.692-26.078-100.095-57.788-45.468 23.871z" fill="#B2B4B3" opacity=".46"/><path d="M98.351 496.418s49.705-10.578 111.563-47.565c62.189-37.189 95.706-71.36 95.706-71.36m-189.305 84.018s49.705-10.578 111.563-47.565c62.189-37.189 95.706-71.36 95.706-71.36M201.973 493.222s49.705-10.578 111.564-47.565c62.188-37.189 95.705-71.36 95.705-71.36M217.831 541.878s24.332-3.704 86.191-40.716c62.188-37.19 95.705-71.36 95.705-71.36" stroke="#6CA3FF" stroke-width="2" stroke-linecap="round" stroke-linejoin="round"/><path d="M225.113 549.387c-2.74 1.496-7.231 1.496-9.997 0-1.624-.914-2.283-2.131-1.979-3.298v-16.413h13.955v16.413c.304 1.167-.355 2.384-1.979 3.298z" fill="#fff" stroke="#26144D" stroke-width="1.5" stroke-linecap="round" stroke-linejoin="round"/><path d="M220.216 533.633c3.966 0 7.181-1.727 7.181-3.856 0-2.13-3.215-3.856-7.181-3.856s-7.18 1.726-7.18 3.856c0 2.129 3.214 3.856 7.18 3.856zm-20.806 29.96c-2.74 1.496-7.231 1.496-9.997 0-1.623-.913-2.283-2.131-1.979-3.298v-16.413h13.955v16.413c.305 1.167-.355 2.385-1.979 3.298z" fill="#fff" stroke="#26144D" stroke-width="1.5" stroke-linecap="round" stroke-linejoin="round"/><path d="M194.539 547.839c3.966 0 7.18-1.727 7.18-3.856 0-2.13-3.214-3.856-7.18-3.856-3.966 0-7.181 1.726-7.181 3.856 0 2.129 3.215 3.856 7.181 3.856zm-88.627-37.646c-2.74 1.497-7.23 1.497-9.997 0-1.623-.913-2.283-2.131-1.979-3.298v-16.413h13.955v16.413c.305 1.167-.355 2.385-1.979 3.298z" fill="#fff" stroke="#26144D" stroke-width="1.5" stroke-linecap="round" stroke-linejoin="round"/><path d="M101.015 494.439c3.966 0 7.181-1.726 7.181-3.856 0-2.129-3.215-3.855-7.181-3.855-3.965 0-7.18 1.726-7.18 3.855 0 2.13 3.215 3.856 7.18 3.856zm106.54 11.543c-2.74 1.497-7.231 1.497-9.997 0-1.624-.913-2.284-2.13-1.979-3.297v-16.414h13.955v16.414c.304 1.167-.355 2.384-1.979 3.297z" fill="#fff" stroke="#26144D" stroke-width="1.5" stroke-linecap="round" stroke-linejoin="round"/><path d="M202.683 490.228c3.966 0 7.181-1.726 7.181-3.855 0-2.13-3.215-3.856-7.181-3.856-3.965 0-7.18 1.726-7.18 3.856 0 2.129 3.215 3.855 7.18 3.855zm-80.152-17.376c-2.74 1.496-7.231 1.496-9.996 0-1.624-.914-2.284-2.131-1.979-3.298v-16.413h13.954v16.413c.305 1.167-.355 2.384-1.979 3.298z" fill="#fff" stroke="#26144D" stroke-width="1.5" stroke-linecap="round" stroke-linejoin="round"/><path d="M117.635 457.098c3.965 0 7.18-1.727 7.18-3.856 0-2.13-3.215-3.856-7.18-3.856-3.966 0-7.181 1.726-7.181 3.856 0 2.129 3.215 3.856 7.181 3.856z" fill="#fff" stroke="#26144D" stroke-width="1.5" stroke-linecap="round" stroke-linejoin="round"/><path d="M159.068 677.672l1.801-103.628-18.319-8.701-26.159 90.411" stroke="#26144D" stroke-width="1.5" stroke-linecap="round" stroke-linejoin="round"/><path d="M202.557 653.725l-25.475-89.676V453.673l-16.213-49.112-16.898 47.97v112.812l17.127-8.498 15.984 7.204-16.213 9.995V406.793m-44.021 248.962l42.22-12.405 43.413 10.603" stroke="#26144D" stroke-width="1.5" stroke-linecap="round" stroke-linejoin="round"/><path d="M187.46 602.583l-27.732 15.322-27.022-13.521 26.362 38.965 28.392-40.766z" stroke="#26144D" stroke-width="1.5" stroke-linecap="round" stroke-linejoin="round"/><path d="M180.685 582.314l-20.957 11.695-21.846-9.462 21.846 33.359 20.957-35.592zm-73.682-93.735l87.891 50.254-34.025-35.16-16.01-9.462-37.856-5.632zm17.583-10.046l87.891 50.229-34.025-35.135-16.01-9.462-37.856-5.632zm-3.146-22.171l61.732 34.018-21.846-27.702-17.355-10.147-22.531 3.831zm17.355-7.661l61.732 34.018-21.871-27.702-17.33-10.147-22.531 3.831zM126.16 627.596l32.908 50.077 33.568-53.679-33.568 19.356-32.68-17.352" stroke="#26144D" stroke-width="1.5" stroke-linecap="round" stroke-linejoin="round"/><path d="M143.286 566.764l17.355 25.672 15.553-25.444m-14.868-104.314l15.757-9.005m17.811 85.16l17.355-9.919m-105.246-40.335l17.584-9.462m58.585 11.264l17.355-7.661m-79.087-26.358l17.355-7.661m6.064 45.51l14.209-9.233m1.802 18.695l15.756-9.691m-31.539 43.938l14.869 6.545 16.238-10.148" stroke="#26144D" stroke-width="1.5" stroke-linecap="round" stroke-linejoin="round"/></svg>