<svg width="1238" height="780" viewBox="0 0 1238 780" fill="none" xmlns="http://www.w3.org/2000/svg">
<path d="M880.682 79.1638C880.51 69.0974 873.439 56.5144 864.908 51.0522C859.812 47.8779 855.403 47.9065 852.626 50.5947L769.259 97.6952L791.274 136.988L874.641 89.888C878.363 88.9442 880.711 85.1979 880.653 79.1924L880.682 79.1638Z" fill="#248CFF" stroke="#26144D" stroke-width="1.5" stroke-linecap="round" stroke-linejoin="round"/>
<path d="M769.838 123.193C763.681 112.211 763.498 100.617 769.43 97.2985C775.362 93.9801 785.162 100.193 791.32 111.176C797.477 122.159 797.66 133.753 791.728 137.071C785.796 140.39 775.996 134.176 769.838 123.193Z" fill="#0069EA" stroke="#26144D" stroke-width="1.5" stroke-linecap="round" stroke-linejoin="round"/>
<path d="M960.267 405.865L1236.54 246.518L960.267 87.2002L683.999 246.518L960.267 405.865Z" fill="#8ED760" stroke="#26144D" stroke-width="1.5" stroke-linecap="round" stroke-linejoin="round"/>
<g style="mix-blend-mode:multiply" opacity="0.46">
<path d="M833.5 271.5L1015.5 378L1193 274L1087.5 213.5L833.5 271.5Z" fill="#B2B4B3"/>
</g>
<path d="M960.726 459.771L1236.99 300.424V246.117L960.726 405.464V459.771Z" fill="#A9776B" stroke="#26144D" stroke-width="1.5" stroke-linecap="round" stroke-linejoin="round"/>
<path d="M684.2 300.826L960.468 460.172V405.865L684.2 246.519V300.826Z" fill="#956054" stroke="#26144D" stroke-width="1.5" stroke-linecap="round" stroke-linejoin="round"/>
<path d="M1130.84 231.247V248.749" stroke="#5FAE2C" stroke-width="1.5" stroke-linecap="round" stroke-linejoin="round"/>
<path d="M745.438 237.224V254.725" stroke="#5FAE2C" stroke-width="1.5" stroke-linecap="round" stroke-linejoin="round"/>
<path d="M1113.29 239.998V257.5" stroke="#5FAE2C" stroke-width="1.5" stroke-linecap="round" stroke-linejoin="round"/>
<path d="M761.813 227.301V244.803" stroke="#5FAE2C" stroke-width="1.5" stroke-linecap="round" stroke-linejoin="round"/>
<path d="M777.017 238.969V256.471" stroke="#5FAE2C" stroke-width="1.5" stroke-linecap="round" stroke-linejoin="round"/>
<path d="M953.771 346.268V363.769" stroke="#5FAE2C" stroke-width="1.5" stroke-linecap="round" stroke-linejoin="round"/>
<path d="M969.543 333.998V351.528" stroke="#5FAE2C" stroke-width="1.5" stroke-linecap="round" stroke-linejoin="round"/>
<path d="M985.32 346.867V364.369" stroke="#5FAE2C" stroke-width="1.5" stroke-linecap="round" stroke-linejoin="round"/>
<path d="M1147.76 241.171V258.673" stroke="#5FAE2C" stroke-width="1.5" stroke-linecap="round" stroke-linejoin="round"/>
<path d="M985.118 171.478L1016.09 153.433L1015.89 67.2109L984.917 85.2561L985.118 171.478Z" fill="white" stroke="black" stroke-width="1.5" stroke-linecap="round" stroke-linejoin="round"/>
<path d="M984.919 85.2553L1015.9 67.2102L987.553 50.8809L956.605 68.926L984.919 85.2553Z" fill="#248CFF" stroke="#26144D" stroke-width="1.5" stroke-linecap="round" stroke-linejoin="round"/>
<path d="M1005.59 67.6968L986.52 56.9727" stroke="white" stroke-width="1.5" stroke-linecap="round" stroke-linejoin="round"/>
<path d="M956.604 68.9268L956.776 155.149L985.118 171.478L984.918 85.2561L956.604 68.9268Z" fill="white" stroke="black" stroke-width="1.5" stroke-linecap="round" stroke-linejoin="round"/>
<path d="M1023.71 193.726L1054.66 175.681L1054.49 89.459L1023.51 107.533L1023.71 193.726Z" fill="#004DA9" stroke="#26144D" stroke-width="1.5" stroke-linecap="round" stroke-linejoin="round"/>
<path d="M1023.51 107.534L1054.49 89.4602L1026.14 73.1309L995.166 91.176L1023.51 107.534Z" fill="#248CFF" stroke="#26144D" stroke-width="1.5" stroke-linecap="round" stroke-linejoin="round"/>
<path d="M1044.24 90.2027L1025.14 79.4785" stroke="white" stroke-width="1.5" stroke-linecap="round" stroke-linejoin="round"/>
<path d="M995.167 91.1758L995.367 177.398L1023.71 193.727L1023.51 107.534L995.167 91.1758Z" fill="white" stroke="black" stroke-width="1.5" stroke-linecap="round" stroke-linejoin="round"/>
<path d="M1062.27 215.975L1093.25 197.93L1093.05 111.708L1062.1 129.782L1062.27 215.975Z" fill="#004DA9" stroke="#26144D" stroke-width="1.5" stroke-linecap="round" stroke-linejoin="round"/>
<path d="M1062.1 129.782L1093.05 111.708L1064.73 95.3789L1033.76 113.424L1062.1 129.782Z" fill="#248CFF" stroke="#26144D" stroke-width="1.5" stroke-linecap="round" stroke-linejoin="round"/>
<path d="M1033.76 113.425L1033.96 199.647L1062.27 215.976L1062.1 129.783L1033.76 113.425Z" fill="white" stroke="black" stroke-width="1.5" stroke-linecap="round" stroke-linejoin="round"/>
<path d="M977.273 319.1L1095.45 250.923V135.359L977.273 203.536V319.1Z" fill="#004DA9" stroke="#26144D" stroke-width="1.5" stroke-linecap="round" stroke-linejoin="round"/>
<path d="M807.505 221.181L977.274 319.099V203.536L807.505 105.617V221.181Z" fill="#0069EA" stroke="#26144D" stroke-width="1.5" stroke-linecap="round" stroke-linejoin="round"/>
<path d="M977.273 203.536L1095.45 135.359L925.684 37.4688L807.505 105.617L977.273 203.536Z" fill="#248CFF" stroke="#26144D" stroke-width="1.5" stroke-linecap="round" stroke-linejoin="round"/>
<g style="mix-blend-mode:multiply" opacity="0.46">
<path d="M1017.9 159.81L963.388 192.984L936.534 178.685L990.099 147.57L1017.9 159.81Z" fill="#B2B4B3"/>
</g>
<g style="mix-blend-mode:multiply" opacity="0.46">
<path d="M968.772 126.464L908.308 161.811L882.457 146.712L937.338 114.539L968.772 126.464Z" fill="#B2B4B3"/>
</g>
<g style="mix-blend-mode:multiply" opacity="0.46">
<path d="M912.686 98.2391L856.201 130.812L829.948 116.513L884.916 85.9707L912.686 98.2391Z" fill="#B2B4B3"/>
</g>
<path d="M1067.8 173.336L1012.11 204.708" stroke="#26144D" stroke-width="1.5" stroke-linecap="round" stroke-linejoin="round"/>
<path d="M1067.8 187.635L1012.11 219.006" stroke="#26144D" stroke-width="1.5" stroke-linecap="round" stroke-linejoin="round"/>
<path d="M1067.8 202.735L1012.11 234.107" stroke="#26144D" stroke-width="1.5" stroke-linecap="round" stroke-linejoin="round"/>
<path d="M1067.8 217.436L1012.11 248.807" stroke="#26144D" stroke-width="1.5" stroke-linecap="round" stroke-linejoin="round"/>
<path d="M834.787 272.485L865.763 254.411L865.563 168.218L834.586 186.263L834.787 272.485Z" fill="#004DA9" stroke="#26144D" stroke-width="1.5" stroke-linecap="round" stroke-linejoin="round"/>
<path d="M834.587 186.263L865.563 168.218L837.22 151.86L806.273 169.934L834.587 186.263Z" fill="#248CFF" stroke="#26144D" stroke-width="1.5" stroke-linecap="round" stroke-linejoin="round"/>
<path d="M806.275 169.934L806.447 256.156L834.789 272.485L834.589 186.263L806.275 169.934Z" fill="#0069EA" stroke="#26144D" stroke-width="1.5" stroke-linecap="round" stroke-linejoin="round"/>
<path d="M873.379 294.734L904.327 276.689L904.155 190.467L873.179 208.512L873.379 294.734Z" fill="#004DA9" stroke="#26144D" stroke-width="1.5" stroke-linecap="round" stroke-linejoin="round"/>
<path d="M873.18 208.511L904.156 190.466L875.814 174.108L844.837 192.182L873.18 208.511Z" fill="#248CFF" stroke="#26144D" stroke-width="1.5" stroke-linecap="round" stroke-linejoin="round"/>
<path d="M844.836 192.183L845.036 278.405L873.379 294.734L873.179 208.512L844.836 192.183Z" fill="#0069EA" stroke="#26144D" stroke-width="1.5" stroke-linecap="round" stroke-linejoin="round"/>
<path d="M911.944 316.982L942.92 298.937L942.72 212.715L911.772 230.76L911.944 316.982Z" fill="#004DA9" stroke="#26144D" stroke-width="1.5" stroke-linecap="round" stroke-linejoin="round"/>
<path d="M911.772 230.761L942.72 212.716L914.406 196.387L883.429 214.432L911.772 230.761Z" fill="#248CFF" stroke="#26144D" stroke-width="1.5" stroke-linecap="round" stroke-linejoin="round"/>
<path d="M883.428 214.432L883.628 300.654L911.942 316.983L911.771 230.761L883.428 214.432Z" fill="#0069EA" stroke="#26144D" stroke-width="1.5" stroke-linecap="round" stroke-linejoin="round"/>
<path d="M1012.94 319.7L1098.23 270.312L1098.03 232.22L1012.74 281.608L1012.94 319.7Z" fill="#004DA9" stroke="#26144D" stroke-width="1.5" stroke-linecap="round" stroke-linejoin="round"/>
<path d="M1012.74 281.608L1098.03 232.219L1080.62 222.182L995.338 271.57L1012.74 281.608Z" fill="#248CFF" stroke="#26144D" stroke-width="1.5" stroke-linecap="round" stroke-linejoin="round"/>
<path d="M995.338 271.569L995.538 309.661L1012.94 319.699L1012.74 281.607L995.338 271.569Z" fill="#0069EA" stroke="#26144D" stroke-width="1.5" stroke-linecap="round" stroke-linejoin="round"/>
<path d="M892.819 96.1803C899.891 99.1259 910.77 97.982 917.125 93.6351C920.847 91.0327 922.164 87.887 921.105 85.1416L916.925 45.2764L882.971 48.8225L887.151 88.6877C886.693 91.6047 888.611 94.4073 892.819 96.1803Z" fill="white" stroke="#26144D" stroke-width="1.5" stroke-linecap="round" stroke-linejoin="round"/>
<path d="M886.235 78.8789C885.777 81.7958 887.695 84.5984 891.875 86.3714C898.918 89.317 909.74 88.1731 916.038 83.8549C919.76 81.2525 921.048 78.1067 919.989 75.3613" fill="white"/>
<path d="M886.235 78.8789C885.777 81.7958 887.695 84.5984 891.875 86.3714C898.918 89.317 909.74 88.1731 916.038 83.8549C919.76 81.2525 921.048 78.1067 919.989 75.3613" stroke="#26144D" stroke-width="1.5" stroke-linecap="round" stroke-linejoin="round"/>
<path d="M885.147 68.5839C884.689 71.5009 886.608 74.3035 890.787 76.0765C897.83 79.0221 908.652 77.8782 914.95 73.5599C918.672 70.9575 919.96 67.8118 918.901 65.0664" fill="white"/>
<path d="M885.147 68.5839C884.689 71.5009 886.608 74.3035 890.787 76.0765C897.83 79.0221 908.652 77.8782 914.95 73.5599C918.672 70.9575 919.96 67.8118 918.901 65.0664" stroke="#26144D" stroke-width="1.5" stroke-linecap="round" stroke-linejoin="round"/>
<path d="M884.029 58.832C883.571 61.749 885.489 64.5515 889.669 66.3246C896.712 69.2702 907.534 68.1262 913.832 63.808C917.554 61.2056 918.842 58.0598 917.783 55.3145" fill="white"/>
<path d="M884.029 58.832C883.571 61.749 885.489 64.5515 889.669 66.3246C896.712 69.2702 907.534 68.1262 913.832 63.808C917.554 61.2056 918.842 58.0598 917.783 55.3145" stroke="#26144D" stroke-width="1.5" stroke-linecap="round" stroke-linejoin="round"/>
<path d="M882.008 46.2891C881.464 41.1055 888.825 36.0869 898.449 35.0799C908.073 34.0729 916.315 37.4587 916.859 42.6424C917.402 47.8261 910.041 52.8447 900.417 53.8517C890.793 54.8587 882.551 51.4728 882.008 46.2891Z" fill="white" stroke="#26144D" stroke-width="1.5" stroke-linecap="round" stroke-linejoin="round"/>
<path d="M880.719 34.1056C880.175 28.9219 887.536 23.9033 897.16 22.8963C906.784 21.8893 915.026 25.2752 915.57 30.4588C916.114 35.6425 908.753 40.6611 899.129 41.6681C889.505 42.6751 881.263 39.2893 880.719 34.1056Z" fill="white" stroke="#26144D" stroke-width="1.5" stroke-linecap="round" stroke-linejoin="round"/>
<path d="M892.904 31.5782C895.51 32.6363 899.518 32.236 901.865 30.6345C903.239 29.6908 903.726 28.5468 903.354 27.5459L901.837 13.0469L889.297 14.3624L890.815 28.8614C890.643 29.9195 891.358 30.9491 892.904 31.5782Z" fill="white" stroke="#26144D" stroke-width="1.5" stroke-linecap="round" stroke-linejoin="round"/>
<path d="M889.219 14.4177C889.022 12.5327 891.704 10.7072 895.211 10.3403C898.718 9.97332 901.721 11.2039 901.918 13.0889C902.116 14.9739 899.434 16.7994 895.927 17.1663C892.42 17.5333 889.417 16.3027 889.219 14.4177Z" fill="white" stroke="#26144D" stroke-width="1.5" stroke-linecap="round" stroke-linejoin="round"/>
<path d="M877.686 13.9132C877.142 8.7295 884.503 3.71093 894.127 2.70392C903.751 1.6969 911.993 5.08277 912.537 10.2665C913.08 15.4501 905.719 20.4687 896.096 21.4757C886.472 22.4827 878.229 19.0969 877.686 13.9132Z" fill="#E40133" stroke="#26144D" stroke-width="1.5" stroke-linecap="round" stroke-linejoin="round"/>
<path d="M942.143 125.407C948.871 129.068 959.807 129.068 966.564 125.407C970.543 123.205 972.175 120.231 971.402 117.371V77.2773H937.276V117.371C936.532 120.231 938.135 123.205 942.115 125.407H942.143Z" fill="white" stroke="#26144D" stroke-width="1.5" stroke-linecap="round" stroke-linejoin="round"/>
<path d="M937.392 107.505C936.648 110.365 938.251 113.339 942.202 115.541C948.901 119.201 959.78 119.201 966.508 115.541C970.458 113.339 972.09 110.365 971.317 107.505" fill="white"/>
<path d="M937.392 107.505C936.648 110.365 938.251 113.339 942.202 115.541C948.901 119.201 959.78 119.201 966.508 115.541C970.458 113.339 972.09 110.365 971.317 107.505" stroke="#26144D" stroke-width="1.5" stroke-linecap="round" stroke-linejoin="round"/>
<path d="M937.392 97.1816C936.648 100.041 938.251 103.016 942.202 105.218C948.901 108.878 959.78 108.878 966.508 105.218C970.458 103.016 972.09 100.041 971.317 97.1816" fill="white"/>
<path d="M937.392 97.1816C936.648 100.041 938.251 103.016 942.202 105.218C948.901 108.878 959.78 108.878 966.508 105.218C970.458 103.016 972.09 100.041 971.317 97.1816" stroke="#26144D" stroke-width="1.5" stroke-linecap="round" stroke-linejoin="round"/>
<path d="M937.304 87.3438C936.56 90.2035 938.163 93.1777 942.114 95.3797C948.813 99.0402 959.692 99.0402 966.42 95.3797C970.37 93.1777 972.002 90.2035 971.229 87.3438" fill="white"/>
<path d="M937.304 87.3438C936.56 90.2035 938.163 93.1777 942.114 95.3797C948.813 99.0402 959.692 99.0402 966.42 95.3797C970.37 93.1777 972.002 90.2035 971.229 87.3438" stroke="#26144D" stroke-width="1.5" stroke-linecap="round" stroke-linejoin="round"/>
<path d="M954.111 84.1128C944.434 84.1128 936.59 79.8876 936.59 74.6755C936.59 69.4635 944.434 65.2383 954.111 65.2383C963.787 65.2383 971.631 69.4635 971.631 74.6755C971.631 79.8876 963.787 84.1128 954.111 84.1128Z" fill="white" stroke="#26144D" stroke-width="1.5" stroke-linecap="round" stroke-linejoin="round"/>
<path d="M954.111 71.8725C944.434 71.8725 936.59 67.6474 936.59 62.4353C936.59 57.2233 944.434 52.998 954.111 52.998C963.787 52.998 971.631 57.2233 971.631 62.4353C971.631 67.6474 963.787 71.8725 954.111 71.8725Z" fill="white" stroke="#26144D" stroke-width="1.5" stroke-linecap="round" stroke-linejoin="round"/>
<path d="M948.989 61.1766C951.479 62.5207 955.516 62.5207 958.007 61.1766C959.467 60.3759 960.068 59.2892 959.81 58.2597V43.6748H947.214V58.2597C946.927 59.2892 947.528 60.3759 949.017 61.1766H948.989Z" fill="white" stroke="#26144D" stroke-width="1.5" stroke-linecap="round" stroke-linejoin="round"/>
<path d="M953.484 47.1926C949.958 47.1926 947.1 45.6561 947.1 43.7608C947.1 41.8656 949.958 40.3291 953.484 40.3291C957.01 40.3291 959.868 41.8656 959.868 43.7608C959.868 45.6561 957.01 47.1926 953.484 47.1926Z" fill="white" stroke="#26144D" stroke-width="1.5" stroke-linecap="round" stroke-linejoin="round"/>
<path d="M953.195 51.4536C943.519 51.4536 935.675 47.2284 935.675 42.0164C935.675 36.8043 943.519 32.5791 953.195 32.5791C962.872 32.5791 970.716 36.8043 970.716 42.0164C970.716 47.2284 962.872 51.4536 953.195 51.4536Z" fill="#E40133" stroke="#26144D" stroke-width="1.5" stroke-linecap="round" stroke-linejoin="round"/>
<path d="M993.737 156.235C999.864 160.84 1010.69 162.441 1017.9 159.81C1022.17 158.209 1024.2 155.492 1023.88 152.575L1029.78 112.91L996.027 107.905L990.13 147.57C988.956 150.287 990.13 153.461 993.737 156.235Z" fill="white" stroke="#26144D" stroke-width="1.5" stroke-linecap="round" stroke-linejoin="round"/>
<path d="M991.648 137.819C990.503 140.536 991.648 143.71 995.226 146.484C1001.3 151.089 1012.06 152.69 1019.25 150.059C1023.48 148.458 1025.52 145.741 1025.2 142.824" fill="white"/>
<path d="M991.648 137.819C990.503 140.536 991.648 143.71 995.226 146.484C1001.3 151.089 1012.06 152.69 1019.25 150.059C1023.48 148.458 1025.52 145.741 1025.2 142.824" stroke="#26144D" stroke-width="1.5" stroke-linecap="round" stroke-linejoin="round"/>
<path d="M993.164 127.61C992.019 130.327 993.164 133.501 996.743 136.275C1002.81 140.88 1013.58 142.481 1020.76 139.85C1025 138.249 1027.03 135.532 1026.72 132.615" fill="white"/>
<path d="M993.164 127.61C992.019 130.327 993.164 133.501 996.743 136.275C1002.81 140.88 1013.58 142.481 1020.76 139.85C1025 138.249 1027.03 135.532 1026.72 132.615" stroke="#26144D" stroke-width="1.5" stroke-linecap="round" stroke-linejoin="round"/>
<path d="M994.509 117.857C993.364 120.574 994.509 123.749 998.088 126.523C1004.16 131.127 1014.92 132.728 1022.11 130.097C1026.34 128.496 1028.38 125.779 1028.06 122.862" fill="white"/>
<path d="M994.509 117.857C993.364 120.574 994.509 123.749 998.088 126.523C1004.16 131.127 1014.92 132.728 1022.11 130.097C1026.34 128.496 1028.38 125.779 1028.06 122.862" stroke="#26144D" stroke-width="1.5" stroke-linecap="round" stroke-linejoin="round"/>
<path d="M1011.61 117.088C1002.04 115.669 994.899 110.339 995.665 105.184C996.43 100.028 1004.81 96.9988 1014.38 98.4175C1023.95 99.8362 1031.09 105.166 1030.33 110.321C1029.56 115.477 1021.18 118.506 1011.61 117.088Z" fill="white" stroke="#26144D" stroke-width="1.5" stroke-linecap="round" stroke-linejoin="round"/>
<path d="M1013.43 104.985C1003.85 103.566 996.715 98.2368 997.481 93.0812C998.247 87.9256 1006.63 84.8963 1016.2 86.315C1025.77 87.7337 1032.91 93.0632 1032.14 98.2188C1031.38 103.374 1023 106.404 1013.43 104.985Z" fill="white" stroke="#26144D" stroke-width="1.5" stroke-linecap="round" stroke-linejoin="round"/>
<path d="M1009.91 93.6638C1012.17 95.3511 1016.15 95.923 1018.84 94.9793C1020.42 94.4073 1021.16 93.4064 1021.05 92.3483L1023.19 77.935L1010.74 76.0762L1008.59 90.4894C1008.16 91.4904 1008.59 92.6343 1009.94 93.6352L1009.91 93.6638Z" fill="white" stroke="#26144D" stroke-width="1.5" stroke-linecap="round" stroke-linejoin="round"/>
<path d="M1016.41 80.481C1012.92 79.9641 1010.32 78.0252 1010.6 76.1504C1010.88 74.2757 1013.93 73.175 1017.42 73.6919C1020.9 74.2089 1023.51 76.1477 1023.23 78.0225C1022.95 79.8972 1019.9 80.998 1016.41 80.481Z" fill="white" stroke="#26144D" stroke-width="1.5" stroke-linecap="round" stroke-linejoin="round"/>
<path d="M1015.5 84.6628C1005.93 83.2441 998.791 77.9146 999.557 72.759C1000.32 67.6033 1008.7 64.574 1018.27 65.9927C1027.85 67.4114 1034.99 72.741 1034.22 77.8966C1033.45 83.0522 1025.07 86.0815 1015.5 84.6628Z" fill="#E40133" stroke="#26144D" stroke-width="1.5" stroke-linecap="round" stroke-linejoin="round"/>
<path d="M1081.51 135.788L978.303 195.386" stroke="white" stroke-width="1.5" stroke-linecap="round" stroke-linejoin="round"/>
<path d="M865.364 57.3154L790.987 100.641" stroke="white" stroke-width="1.5" stroke-linecap="round" stroke-linejoin="round"/>
<path d="M969.945 302.656V208.484L824.396 124.464" stroke="white" stroke-width="1.5" stroke-linecap="round" stroke-linejoin="round"/>
<path d="M1082.4 111.937L1063.3 101.213" stroke="white" stroke-width="1.5" stroke-linecap="round" stroke-linejoin="round"/>
<path d="M948 63C948 63 794.5 248 584 308.5C476 334 333.631 337.056 333.631 337.056" stroke="#6CA3FF" stroke-width="2" stroke-linecap="round" stroke-linejoin="round"/>
<path d="M899.501 28C899.501 28 775.001 187.5 619.001 258.5C527.001 305 327.796 331.298 327.796 331.298" stroke="#6CA3FF" stroke-width="2" stroke-linecap="round" stroke-linejoin="round"/>
<path d="M1015.5 91C1015.5 91 839 281.5 658.5 364.5C520 413.592 436.213 413.592 436.213 413.592" stroke="#6CA3FF" stroke-width="2" stroke-linecap="round" stroke-linejoin="round"/>
<path d="M956.5 58C956.5 58 795 259.5 628.5 334C507 377 419.467 369.35 419.467 369.35" stroke="#6CA3FF" stroke-width="2" stroke-linecap="round" stroke-linejoin="round"/>
<path d="M163.863 747.028L1.80859 653.497L163.838 559.939L325.893 653.497L163.863 747.028Z" fill="#8ED760" stroke="#26144D" stroke-width="1.5" stroke-linecap="round" stroke-linejoin="round"/>
<path d="M163.584 778.663L1.5293 685.131V653.243L163.584 746.775V778.663Z" fill="#956054" stroke="#26144D" stroke-width="1.5" stroke-linecap="round" stroke-linejoin="round"/>
<path d="M325.766 685.359L163.736 778.916V747.029L325.766 653.472V685.359Z" fill="#A9776B" stroke="#26144D" stroke-width="1.5" stroke-linecap="round" stroke-linejoin="round"/>
<path d="M81.4023 648.778V659.357" stroke="#5FAE2C" stroke-width="1.5" stroke-linecap="round" stroke-linejoin="round"/>
<path d="M260.102 648.068V658.647" stroke="#5FAE2C" stroke-width="1.5" stroke-linecap="round" stroke-linejoin="round"/>
<path d="M206.515 601.543V612.121" stroke="#5FAE2C" stroke-width="1.5" stroke-linecap="round" stroke-linejoin="round"/>
<path d="M91.9575 654.055V664.633" stroke="#5FAE2C" stroke-width="1.5" stroke-linecap="round" stroke-linejoin="round"/>
<path d="M125.449 608.24V618.819" stroke="#5FAE2C" stroke-width="1.5" stroke-linecap="round" stroke-linejoin="round"/>
<path d="M116.29 604.358V614.937" stroke="#5FAE2C" stroke-width="1.5" stroke-linecap="round" stroke-linejoin="round"/>
<path d="M250.232 642.081V652.66" stroke="#5FAE2C" stroke-width="1.5" stroke-linecap="round" stroke-linejoin="round"/>
<path d="M241.072 649.134V659.712" stroke="#5FAE2C" stroke-width="1.5" stroke-linecap="round" stroke-linejoin="round"/>
<path d="M165.64 694.237V704.816" stroke="#5FAE2C" stroke-width="1.5" stroke-linecap="round" stroke-linejoin="round"/>
<path d="M156.125 686.83V697.409" stroke="#5FAE2C" stroke-width="1.5" stroke-linecap="round" stroke-linejoin="round"/>
<path d="M146.61 694.593V705.171" stroke="#5FAE2C" stroke-width="1.5" stroke-linecap="round" stroke-linejoin="round"/>
<path d="M196.645 607.885V618.463" stroke="#5FAE2C" stroke-width="1.5" stroke-linecap="round" stroke-linejoin="round"/>
<path d="M217.095 608.95V619.529" stroke="#5FAE2C" stroke-width="1.5" stroke-linecap="round" stroke-linejoin="round"/>
<path d="M71.1772 654.765V665.343" stroke="#5FAE2C" stroke-width="1.5" stroke-linecap="round" stroke-linejoin="round"/>
<path d="M107.485 608.596V619.174" stroke="#5FAE2C" stroke-width="1.5" stroke-linecap="round" stroke-linejoin="round"/>
<path d="M377.805 618.387L215.75 524.855L377.805 431.323L539.86 524.855L377.805 618.387Z" fill="#8ED760" stroke="#26144D" stroke-width="1.5" stroke-linecap="round" stroke-linejoin="round"/>
<path d="M377.551 650.046L215.497 556.489V524.602L377.551 618.159V650.046Z" fill="#956054" stroke="#26144D" stroke-width="1.5" stroke-linecap="round" stroke-linejoin="round"/>
<path d="M539.733 556.743L377.678 650.275V618.387L539.733 524.855V556.743Z" fill="#A9776B" stroke="#26144D" stroke-width="1.5" stroke-linecap="round" stroke-linejoin="round"/>
<path d="M293.593 519.097V529.65" stroke="#5FAE2C" stroke-width="1.5" stroke-linecap="round" stroke-linejoin="round"/>
<path d="M472.292 518.387V528.94" stroke="#5FAE2C" stroke-width="1.5" stroke-linecap="round" stroke-linejoin="round"/>
<path d="M418.731 471.861V482.44" stroke="#5FAE2C" stroke-width="1.5" stroke-linecap="round" stroke-linejoin="round"/>
<path d="M304.174 524.373V534.952" stroke="#5FAE2C" stroke-width="1.5" stroke-linecap="round" stroke-linejoin="round"/>
<path d="M337.64 478.559V489.137" stroke="#5FAE2C" stroke-width="1.5" stroke-linecap="round" stroke-linejoin="round"/>
<path d="M328.48 474.677V485.255" stroke="#5FAE2C" stroke-width="1.5" stroke-linecap="round" stroke-linejoin="round"/>
<path d="M462.423 512.399V522.952" stroke="#5FAE2C" stroke-width="1.5" stroke-linecap="round" stroke-linejoin="round"/>
<path d="M453.263 519.427V530.005" stroke="#5FAE2C" stroke-width="1.5" stroke-linecap="round" stroke-linejoin="round"/>
<path d="M377.831 564.556V575.109" stroke="#5FAE2C" stroke-width="1.5" stroke-linecap="round" stroke-linejoin="round"/>
<path d="M368.315 557.148V567.727" stroke="#5FAE2C" stroke-width="1.5" stroke-linecap="round" stroke-linejoin="round"/>
<path d="M358.801 564.911V575.464" stroke="#5FAE2C" stroke-width="1.5" stroke-linecap="round" stroke-linejoin="round"/>
<path d="M408.861 478.203V488.782" stroke="#5FAE2C" stroke-width="1.5" stroke-linecap="round" stroke-linejoin="round"/>
<path d="M429.286 479.269V489.822" stroke="#5FAE2C" stroke-width="1.5" stroke-linecap="round" stroke-linejoin="round"/>
<path d="M283.368 525.083V535.636" stroke="#5FAE2C" stroke-width="1.5" stroke-linecap="round" stroke-linejoin="round"/>
<path d="M319.676 478.914V489.493" stroke="#5FAE2C" stroke-width="1.5" stroke-linecap="round" stroke-linejoin="round"/>
<path d="M434.234 416.89C431.494 418.386 427.003 418.386 424.237 416.89C422.613 415.976 421.954 414.759 422.258 413.592V397.179H436.213V413.592C436.518 414.759 435.858 415.976 434.234 416.89Z" fill="white" stroke="#26144D" stroke-width="1.5" stroke-linecap="round" stroke-linejoin="round"/>
<path d="M429.337 401.136C433.303 401.136 436.518 399.409 436.518 397.28C436.518 395.15 433.303 393.424 429.337 393.424C425.372 393.424 422.157 395.15 422.157 397.28C422.157 399.409 425.372 401.136 429.337 401.136Z" fill="white" stroke="#26144D" stroke-width="1.5" stroke-linecap="round" stroke-linejoin="round"/>
<path d="M408.531 431.07C405.791 432.567 401.3 432.567 398.535 431.07C396.911 430.157 396.251 428.939 396.556 427.772V411.359H410.51V427.772C410.815 428.939 410.155 430.157 408.531 431.07Z" fill="white" stroke="#26144D" stroke-width="1.5" stroke-linecap="round" stroke-linejoin="round"/>
<path d="M403.66 415.316C407.626 415.316 410.84 413.59 410.84 411.46C410.84 409.331 407.626 407.604 403.66 407.604C399.694 407.604 396.479 409.331 396.479 411.46C396.479 413.59 399.694 415.316 403.66 415.316Z" fill="white" stroke="#26144D" stroke-width="1.5" stroke-linecap="round" stroke-linejoin="round"/>
<path d="M315.033 377.671C312.293 379.168 307.802 379.168 305.037 377.671C303.413 376.758 302.753 375.54 303.057 374.373V357.96H317.012V374.373C317.317 375.54 316.657 376.758 315.033 377.671Z" fill="white" stroke="#26144D" stroke-width="1.5" stroke-linecap="round" stroke-linejoin="round"/>
<path d="M310.137 361.917C314.102 361.917 317.317 360.191 317.317 358.061C317.317 355.931 314.102 354.205 310.137 354.205C306.171 354.205 302.956 355.931 302.956 358.061C302.956 360.191 306.171 361.917 310.137 361.917Z" fill="white" stroke="#26144D" stroke-width="1.5" stroke-linecap="round" stroke-linejoin="round"/>
<path d="M416.676 373.485C413.936 374.982 409.445 374.982 406.679 373.485C405.055 372.572 404.396 371.354 404.7 370.188V353.774H418.655V370.188C418.959 371.354 418.3 372.572 416.676 373.485Z" fill="white" stroke="#26144D" stroke-width="1.5" stroke-linecap="round" stroke-linejoin="round"/>
<path d="M411.804 357.731C415.77 357.731 418.985 356.005 418.985 353.875C418.985 351.746 415.77 350.02 411.804 350.02C407.839 350.02 404.624 351.746 404.624 353.875C404.624 356.005 407.839 357.731 411.804 357.731Z" fill="white" stroke="#26144D" stroke-width="1.5" stroke-linecap="round" stroke-linejoin="round"/>
<path d="M331.652 340.354C328.912 341.851 324.421 341.851 321.656 340.354C320.032 339.441 319.372 338.224 319.677 337.057V320.644H333.632V337.057C333.936 338.224 333.276 339.441 331.652 340.354Z" fill="white" stroke="#26144D" stroke-width="1.5" stroke-linecap="round" stroke-linejoin="round"/>
<path d="M326.756 324.601C330.721 324.601 333.936 322.874 333.936 320.745C333.936 318.615 330.721 316.889 326.756 316.889C322.79 316.889 319.575 318.615 319.575 320.745C319.575 322.874 322.79 324.601 326.756 324.601Z" fill="white" stroke="#26144D" stroke-width="1.5" stroke-linecap="round" stroke-linejoin="round"/>
<path d="M368.189 545.175L369.99 441.522L351.646 432.82L325.512 523.232" stroke="#26144D" stroke-width="1.5" stroke-linecap="round" stroke-linejoin="round"/>
<path d="M411.678 521.203L386.204 431.552V321.151L369.99 272.038L353.092 320.034V432.82L370.219 424.322L386.204 431.552L369.99 441.522V274.296" stroke="#26144D" stroke-width="1.5" stroke-linecap="round" stroke-linejoin="round"/>
<path d="M325.969 523.232L368.189 510.853L411.602 521.431" stroke="#26144D" stroke-width="1.5" stroke-linecap="round" stroke-linejoin="round"/>
<path d="M396.581 470.061L368.849 485.383L341.827 471.862L368.189 510.852L396.581 470.061Z" stroke="#26144D" stroke-width="1.5" stroke-linecap="round" stroke-linejoin="round"/>
<path d="M389.807 449.792L368.849 461.512L347.003 452.05L368.849 485.383L389.807 449.792Z" stroke="#26144D" stroke-width="1.5" stroke-linecap="round" stroke-linejoin="round"/>
<path d="M316.125 356.082L404.015 406.311L369.991 371.176L353.98 361.714L316.125 356.082Z" stroke="#26144D" stroke-width="1.5" stroke-linecap="round" stroke-linejoin="round"/>
<path d="M333.708 346.036L421.598 396.265L387.574 361.13L371.563 351.668L333.708 346.036Z" stroke="#26144D" stroke-width="1.5" stroke-linecap="round" stroke-linejoin="round"/>
<path d="M330.562 323.865L392.293 357.883L370.447 330.156L353.092 320.034L330.562 323.865Z" stroke="#26144D" stroke-width="1.5" stroke-linecap="round" stroke-linejoin="round"/>
<path d="M347.891 316.204L409.648 350.222L387.777 322.495L370.447 312.373L347.891 316.204Z" stroke="#26144D" stroke-width="1.5" stroke-linecap="round" stroke-linejoin="round"/>
<path d="M335.281 495.074L368.189 545.176L401.757 491.472L368.189 510.853L335.509 493.501" stroke="#26144D" stroke-width="1.5" stroke-linecap="round" stroke-linejoin="round"/>
<path d="M352.407 434.241L369.762 459.939L385.315 434.47" stroke="#26144D" stroke-width="1.5" stroke-linecap="round" stroke-linejoin="round"/>
<path d="M370.447 330.156L386.204 321.15" stroke="#26144D" stroke-width="1.5" stroke-linecap="round" stroke-linejoin="round"/>
<path d="M404.015 406.31L421.37 396.392" stroke="#26144D" stroke-width="1.5" stroke-linecap="round" stroke-linejoin="round"/>
<path d="M316.125 356.082L333.708 346.62" stroke="#26144D" stroke-width="1.5" stroke-linecap="round" stroke-linejoin="round"/>
<path d="M392.293 357.884L409.648 350.223" stroke="#26144D" stroke-width="1.5" stroke-linecap="round" stroke-linejoin="round"/>
<path d="M330.562 323.865L347.891 316.204" stroke="#26144D" stroke-width="1.5" stroke-linecap="round" stroke-linejoin="round"/>
<path d="M353.98 361.714L368.189 352.48" stroke="#26144D" stroke-width="1.5" stroke-linecap="round" stroke-linejoin="round"/>
<path d="M369.991 371.176L385.747 361.485" stroke="#26144D" stroke-width="1.5" stroke-linecap="round" stroke-linejoin="round"/>
<path d="M354.208 405.423L369.077 411.942L385.315 401.795" stroke="#26144D" stroke-width="1.5" stroke-linecap="round" stroke-linejoin="round"/>
<g style="mix-blend-mode:multiply" opacity="0.46">
<path d="M331.17 523.282L433.041 583.278L476.733 557.199L376.638 499.411L331.17 523.282Z" fill="#B2B4B3"/>
</g>
<g style="mix-blend-mode:multiply" opacity="0.46">
<path d="M115.452 654.384L217.323 714.379L261.015 688.301L160.92 630.513L115.452 654.384Z" fill="#B2B4B3"/>
</g>
<path d="M98.3511 496.418C98.3511 496.418 148.056 485.84 209.914 448.853C272.103 411.664 305.62 377.493 305.62 377.493" stroke="#6CA3FF" stroke-width="2" stroke-linecap="round" stroke-linejoin="round"/>
<path d="M116.315 461.511C116.315 461.511 166.02 450.933 227.878 413.946C290.067 376.757 323.584 342.586 323.584 342.586" stroke="#6CA3FF" stroke-width="2" stroke-linecap="round" stroke-linejoin="round"/>
<path d="M201.973 493.222C201.973 493.222 251.678 482.644 313.537 445.657C375.725 408.468 409.242 374.297 409.242 374.297" stroke="#6CA3FF" stroke-width="2" stroke-linecap="round" stroke-linejoin="round"/>
<path d="M217.831 541.878C217.831 541.878 242.163 538.174 304.022 501.162C366.21 463.972 399.727 429.802 399.727 429.802" stroke="#6CA3FF" stroke-width="2" stroke-linecap="round" stroke-linejoin="round"/>
<path d="M225.113 549.387C222.373 550.883 217.882 550.883 215.116 549.387C213.492 548.473 212.833 547.256 213.137 546.089V529.676H227.092V546.089C227.396 547.256 226.737 548.473 225.113 549.387Z" fill="white" stroke="#26144D" stroke-width="1.5" stroke-linecap="round" stroke-linejoin="round"/>
<path d="M220.216 533.633C224.182 533.633 227.397 531.906 227.397 529.777C227.397 527.647 224.182 525.921 220.216 525.921C216.25 525.921 213.036 527.647 213.036 529.777C213.036 531.906 216.25 533.633 220.216 533.633Z" fill="white" stroke="#26144D" stroke-width="1.5" stroke-linecap="round" stroke-linejoin="round"/>
<path d="M199.41 563.593C196.67 565.089 192.179 565.089 189.413 563.593C187.79 562.68 187.13 561.462 187.434 560.295V543.882H201.389V560.295C201.694 561.462 201.034 562.68 199.41 563.593Z" fill="white" stroke="#26144D" stroke-width="1.5" stroke-linecap="round" stroke-linejoin="round"/>
<path d="M194.539 547.839C198.505 547.839 201.719 546.112 201.719 543.983C201.719 541.853 198.505 540.127 194.539 540.127C190.573 540.127 187.358 541.853 187.358 543.983C187.358 546.112 190.573 547.839 194.539 547.839Z" fill="white" stroke="#26144D" stroke-width="1.5" stroke-linecap="round" stroke-linejoin="round"/>
<path d="M105.912 510.193C103.172 511.69 98.6811 511.69 95.9154 510.193C94.2916 509.28 93.6319 508.062 93.9364 506.895V490.482H107.891V506.895C108.196 508.062 107.536 509.28 105.912 510.193Z" fill="white" stroke="#26144D" stroke-width="1.5" stroke-linecap="round" stroke-linejoin="round"/>
<path d="M101.015 494.439C104.981 494.439 108.196 492.713 108.196 490.583C108.196 488.454 104.981 486.728 101.015 486.728C97.0497 486.728 93.835 488.454 93.835 490.583C93.835 492.713 97.0497 494.439 101.015 494.439Z" fill="white" stroke="#26144D" stroke-width="1.5" stroke-linecap="round" stroke-linejoin="round"/>
<path d="M207.555 505.982C204.815 507.479 200.324 507.479 197.558 505.982C195.934 505.069 195.274 503.852 195.579 502.685V486.271H209.534V502.685C209.838 503.852 209.179 505.069 207.555 505.982Z" fill="white" stroke="#26144D" stroke-width="1.5" stroke-linecap="round" stroke-linejoin="round"/>
<path d="M202.683 490.228C206.649 490.228 209.864 488.502 209.864 486.373C209.864 484.243 206.649 482.517 202.683 482.517C198.718 482.517 195.503 484.243 195.503 486.373C195.503 488.502 198.718 490.228 202.683 490.228Z" fill="white" stroke="#26144D" stroke-width="1.5" stroke-linecap="round" stroke-linejoin="round"/>
<path d="M122.531 472.852C119.791 474.348 115.3 474.348 112.535 472.852C110.911 471.938 110.251 470.721 110.556 469.554V453.141H124.51V469.554C124.815 470.721 124.155 471.938 122.531 472.852Z" fill="white" stroke="#26144D" stroke-width="1.5" stroke-linecap="round" stroke-linejoin="round"/>
<path d="M117.635 457.098C121.6 457.098 124.815 455.371 124.815 453.242C124.815 451.112 121.6 449.386 117.635 449.386C113.669 449.386 110.454 451.112 110.454 453.242C110.454 455.371 113.669 457.098 117.635 457.098Z" fill="white" stroke="#26144D" stroke-width="1.5" stroke-linecap="round" stroke-linejoin="round"/>
<path d="M159.068 677.672L160.869 574.044L142.55 565.343L116.391 655.754" stroke="#26144D" stroke-width="1.5" stroke-linecap="round" stroke-linejoin="round"/>
<path d="M202.557 653.725L177.082 564.049V453.673L160.869 404.561L143.971 452.531V565.343L161.098 556.845L177.082 564.049L160.869 574.044V406.793" stroke="#26144D" stroke-width="1.5" stroke-linecap="round" stroke-linejoin="round"/>
<path d="M116.848 655.755L159.068 643.35L202.481 653.953" stroke="#26144D" stroke-width="1.5" stroke-linecap="round" stroke-linejoin="round"/>
<path d="M187.46 602.583L159.728 617.905L132.706 604.384L159.068 643.349L187.46 602.583Z" stroke="#26144D" stroke-width="1.5" stroke-linecap="round" stroke-linejoin="round"/>
<path d="M180.685 582.314L159.728 594.009L137.882 584.547L159.728 617.906L180.685 582.314Z" stroke="#26144D" stroke-width="1.5" stroke-linecap="round" stroke-linejoin="round"/>
<path d="M107.003 488.579L194.894 538.833L160.869 503.673L144.859 494.211L107.003 488.579Z" stroke="#26144D" stroke-width="1.5" stroke-linecap="round" stroke-linejoin="round"/>
<path d="M124.586 478.533L212.477 528.762L178.452 493.627L162.442 484.165L124.586 478.533Z" stroke="#26144D" stroke-width="1.5" stroke-linecap="round" stroke-linejoin="round"/>
<path d="M121.44 456.362L183.172 490.38L161.326 462.678L143.971 452.531L121.44 456.362Z" stroke="#26144D" stroke-width="1.5" stroke-linecap="round" stroke-linejoin="round"/>
<path d="M138.795 448.701L200.527 482.719L178.656 455.017L161.326 444.87L138.795 448.701Z" stroke="#26144D" stroke-width="1.5" stroke-linecap="round" stroke-linejoin="round"/>
<path d="M126.16 627.596L159.068 677.673L192.636 623.994L159.068 643.35L126.388 625.998" stroke="#26144D" stroke-width="1.5" stroke-linecap="round" stroke-linejoin="round"/>
<path d="M143.286 566.764L160.641 592.436L176.194 566.992" stroke="#26144D" stroke-width="1.5" stroke-linecap="round" stroke-linejoin="round"/>
<path d="M161.326 462.678L177.083 453.673" stroke="#26144D" stroke-width="1.5" stroke-linecap="round" stroke-linejoin="round"/>
<path d="M194.894 538.833L212.249 528.914" stroke="#26144D" stroke-width="1.5" stroke-linecap="round" stroke-linejoin="round"/>
<path d="M107.003 488.579L124.587 479.117" stroke="#26144D" stroke-width="1.5" stroke-linecap="round" stroke-linejoin="round"/>
<path d="M183.172 490.381L200.527 482.72" stroke="#26144D" stroke-width="1.5" stroke-linecap="round" stroke-linejoin="round"/>
<path d="M121.44 456.362L138.795 448.701" stroke="#26144D" stroke-width="1.5" stroke-linecap="round" stroke-linejoin="round"/>
<path d="M144.859 494.211L159.068 484.978" stroke="#26144D" stroke-width="1.5" stroke-linecap="round" stroke-linejoin="round"/>
<path d="M160.87 503.673L176.626 493.982" stroke="#26144D" stroke-width="1.5" stroke-linecap="round" stroke-linejoin="round"/>
<path d="M145.087 537.92L159.956 544.465L176.194 534.317" stroke="#26144D" stroke-width="1.5" stroke-linecap="round" stroke-linejoin="round"/>
</svg>
