<svg width="532" height="532" fill="none" xmlns="http://www.w3.org/2000/svg"><path d="M351.603 496.074L1.285 294.669l179.107-103.21L530.71 392.843 351.603 496.074z" fill="#4DA4FF" stroke="#26144D" stroke-width="1.5" stroke-linecap="round" stroke-linejoin="round"/><path d="M239.5 391.5L388 476l32.5-19.5-137.5-76-43.5 11z" fill="#B2B4B3" opacity=".46"/><path d="M351.296 530.996L1 329.59v-35.184L351.296 495.79v35.206z" fill="#999" stroke="#26144D" stroke-width="1.5" stroke-linecap="round" stroke-linejoin="round"/><path d="M530.579 428.027l-179.107 103.21v-35.185l179.107-103.209v35.184z" fill="#D9D9D9" stroke="#26144D" stroke-width="1.5" stroke-linecap="round" stroke-linejoin="round"/><path d="M248.494 213.178l21.495 39.059 127.235-65.661-.176-.328c3.049-1.555 4.979-5.145 4.979-10.378 0-10.05-7.084-22.31-15.814-27.324-4.606-2.649-8.751-2.781-11.625-.832l-.109-.175-125.963 65.639h-.022z" fill="#D7D7D7" stroke="#26144D" stroke-width="1.5" stroke-linecap="round" stroke-linejoin="round"/><path d="M332.669 358.539c42.161-24.299 44.99-98.2 6.318-165.063-38.672-66.863-104.201-101.368-146.362-77.069-42.161 24.298-44.99 98.199-6.318 165.062 38.672 66.863 104.201 101.369 146.362 77.07z" fill="#0069E9" stroke="#26144D" stroke-width="1.5" stroke-linecap="round" stroke-linejoin="round"/><path d="M337.368 175.345s-7.918 5.167-10.66 7.006c-2.742 1.839-12.502-5.474-12.502-5.474l10.353-8.517 12.787 7.007.022-.022zm-12.129-17.932s-8.225 7.29-10.967 9.742c-2.742 2.453-12.195-3.043-12.195-3.043l10.046-10.947 13.094 4.248h.022zm-15.31-12.94s-6.405 7.904-8.225 10.028c-1.82 2.123-11.734-1.292-11.734-1.292l7.084-10.269 12.875 1.511v.022zM294.62 129.65s-4.255 9.13-5.483 12.174c-1.229 3.043-12.502 2.123-12.502 2.123l4.255-14.297h13.73zm-16.976-11.559s-3.97 10.334-5.177 14.297c-1.228 3.963-9.76 4.247-9.76 4.247l3.663-16.727 11.274-1.817zm-18.315-7.313s-2.04 10.882-2.544 14.998c-.483 4.116-8.839 5.933-8.839 5.933l.614-17.121 10.769-3.81z" fill="#0069E9" stroke="#26144D" stroke-width="1.5" stroke-linecap="round" stroke-linejoin="round"/><path d="M337.653 160.149s7.304 13.378-.307 15.217c-7.611 1.817-12.787-7.006-12.787-7.006s6.689 3.612 10.199.613c3.202-2.737 2.895-8.824 2.895-8.824zm-14.235-16.726s8.401 9.59 1.821 13.99c-6.01 4.029-13.094-4.247-13.094-4.247s5.022 1.905 9.146-.92c3.706-2.539 2.127-8.823 2.127-8.823zm-17.678-12.787s10.308 7.729 4.189 13.837c-5.571 5.562-12.875-1.072-12.875-1.072s4.804.218 8.006-3.197c2.259-2.408.68-9.59.68-9.59v.022zm-17.525-12.239s11.515 4.708 6.405 11.254c-4.869 6.24-13.708 0-13.708 0s5.856.526 8.532-3.35c2.215-3.218-1.229-7.904-1.229-7.904zm-16.209-9.545s9.783 3.919 6.01 9.327c-4.759 6.831-11.361 1.335-11.361 1.335s4.014-1.335 6.009-3.656c1.996-2.321-.658-7.006-.658-7.006zm-19.871-6.153s10.331 2.102 7.589 8.101c-3.465 7.575-10.923 3.327-10.923 3.327s3.707-2.036 5.264-4.685c1.557-2.649-1.908-6.765-1.908-6.765l-.022.022z" fill="#4DA5FF" stroke="#26144D" stroke-width="1.5" stroke-linecap="round" stroke-linejoin="round"/><path d="M257.377 382.881c22.635 11.604 44.218 16.004 63.3 14.056 6.141-.635 12.041-1.927 17.612-3.854 31.803-10.903 53.451-42.343 55.754-88.956 2.106-42.387-12.216-88.825-36.782-128.607l-16.581 9.918-6.427 3.831-76.262 45.606-99.555-131.059-2.873-3.788a74.497 74.497 0 00-12.129 10.531c-1.25 3.416-2.303 7.072-3.18 10.926-3.466 15.107-4.409 33.016-5.242 49.853-3.948 80.177 50.841 174.892 122.365 211.543z" fill="#4DA5FF" stroke="#26144D" stroke-width="1.5" stroke-linecap="round" stroke-linejoin="round"/><path d="M240.006 391.551c38.032 19.508 73.126 18.654 98.283 1.532 22.131-15.063 36.541-42.759 38.405-80.286 2.062-41.949-11.931-87.862-36.014-127.359l-6.427 3.831-76.262 45.606-99.555-131.059-2.873-3.788a74.497 74.497 0 00-12.129 10.531c-14.915 16.005-24.324 39.607-25.793 69.449-3.948 80.155 50.841 174.892 122.365 211.543z" fill="#0069E9" stroke="#26144D" stroke-width="1.5" stroke-linecap="round" stroke-linejoin="round"/><path d="M241.037 387.018c29.785 15.764 57.553 18.369 79.64 9.918 28.688-10.991 47.814-40.614 49.393-84.293 1.448-40.46-12.414-84.95-35.817-123.374l-76.262 45.606-99.555-131.06c-6.909 4.598-13.028 10.51-18.182 17.669-10.726 14.888-17.24 35.14-18.139 59.903-2.808 77.309 50.446 169.374 118.922 205.631z" fill="#0054CE" stroke="#26144D" stroke-width="1.5" stroke-linecap="round" stroke-linejoin="round"/><path d="M139.223 204.77c.548 31.835 11.909 66.034 30.136 95.744 11.23 18.304 25.048 34.921 40.555 48.255 8.948 7.707 18.467 14.341 28.381 19.552 57.158 30.083 105.477 2.233 107.956-62.224 1.359-35.512-11.493-74.703-32.878-107.785a204.093 204.093 0 00-8.225-11.889c-16.187-21.785-36.124-40.045-57.926-51.517-18.885-9.962-36.826-13.575-52.442-11.604-31.65 3.919-53.847 30.652-55.514 73.805-.087 2.54-.131 5.102-.043 7.663z" fill="#7D7D7B" stroke="#26144D" stroke-width="1.5" stroke-linecap="round" stroke-linejoin="round"/><path d="M139.223 204.77c15.09 1.029 42.682 3.722 55.995 9.722 18.885 8.516 59.11 45.036 59.11 45.036s25.596-10.969 28.645-12.173c2.457-.985 22.569-35.469 30.4-49.043 1.93-3.328 3.114-5.408 3.114-5.408l-11.339-6.481-110.368-63.121c-31.65 3.919-53.847 30.652-55.514 73.805-.087 2.54-.131 5.102-.043 7.663z" fill="#B5B5B5"/><path d="M169.359 300.514c11.23 18.304 25.048 34.922 40.554 48.255l40.16-65.529-42.177-56.466-38.537 73.74z" fill="#B5B5B5"/><path d="M168.854 247.662l36.125 62.508 37.22-21.172c7.107-1.139 11.822-7.597 11.822-18.041 0-16.289-11.449-36.104-25.596-44.248-8.4-4.839-15.858-4.467-20.529.065l-39.042 20.888z" fill="#D7D7D7" stroke="#26144D" stroke-width="1.5" stroke-linecap="round" stroke-linejoin="round"/><path d="M204.775 310.587c9.998-5.762 10.001-24.44.007-41.718-9.993-17.279-26.199-26.615-36.197-20.853-9.997 5.761-10 24.439-.007 41.718 9.994 17.279 26.2 26.615 36.197 20.853z" fill="#7D7D7B" stroke="#26144D" stroke-width="1.5" stroke-linecap="round" stroke-linejoin="round"/><path d="M37.233 330.685l22.854 41.533 135.285-69.821-.198-.35c3.246-1.642 5.286-5.474 5.286-11.035 0-10.684-7.523-23.711-16.823-29.053-4.891-2.825-9.299-2.956-12.37-.876l-.11-.197-133.924 69.799z" fill="#D7D7D7" stroke="#26144D" stroke-width="1.5" stroke-linecap="round" stroke-linejoin="round"/><path d="M61.444 371.874c6.567-3.785 6.568-16.055.003-27.407-6.566-11.351-17.212-17.486-23.779-13.701s-6.568 16.055-.003 27.407c6.566 11.351 17.212 17.485 23.779 13.701z" fill="#7D7D7B" stroke="#26144D" stroke-width="1.5" stroke-linecap="round" stroke-linejoin="round"/><path d="M176.334 267.432L72.721 321.576m149.3-91.255l-30.465 15.83M231.781 1l.614 54.736" stroke="#fff" stroke-width="1.5" stroke-linecap="round" stroke-linejoin="round"/><path d="M353.05 369.941l-22.548-12.173m10.046 25.857l-21.319-13.99m6.098 24.63l-20.727-17.34m3.355 23.427l-20.42-19.771m-2.741 20.69l-16.143-21.894m-7.611 16.728l-8.839-21.303m-11.164 12.216l-2.764-18.698m-13.203 9.525l-.9-17.647m-13.116 6.7l.614-15.808m-13.708 3.941l2.127-14.603m-14.629 2.43l3.663-15.502m-15.244 1.818l5.484-12.458m182.528 36.191l-24.082-8.211m29.258-10.64l-24.368-3.043m-.614-126.549l-19.499 8.232m27.417 7.597l-20.419 6.393m25.288 7.598l-19.498 5.167m24.697 9.437l-21.034 4.247m25.289 11.254l-21.034 2.736m24.389 15.217l-22.24 1.204m24.368 15.216l-23.161-.613m22.547 18.261l-23.14-2.737m-196.544-51.715l-10.045 6.393m6.997-16.114l-10.353 6.985m7.304-17.034l-10.967 5.78m9.453-16.114l-12.502 4.86m10.353-15.808l-14.015 4.554m13.73-15.808l-14.937 3.044m14.74-15.567l-17.174 1.861m18.27-12.458l-17.656.307" stroke="#26144D" stroke-width="1.5" stroke-linecap="round" stroke-linejoin="round"/><path d="M224.324 52.845l-.922 57.495-48.757 5.167-3.948-65.092 53.627 2.43z" fill="#C1C1C1" stroke="#26144D" stroke-width="1.5" stroke-linecap="round" stroke-linejoin="round"/><path d="M240.774 135.584l-8.225 6.086-1.843 13.684-29.237-7.312-4.891-37.702 42.967-4.27 1.229 29.514z" fill="#E0C379" stroke="#26144D" stroke-width="1.3" stroke-linecap="round" stroke-linejoin="round"/><path d="M232.856 136.504l.57 18.106v.438l.044.985 39.633-6.831a2.445 2.445 0 01-.329-.175c-.614-.35-1.096-.679-1.316-.941-.153-.132-.219-.241-.219-.329 0-.919 2.15-10.64 2.15-10.64s-11.581-7.62-26.211-5.189c-14.037 2.342-14.322 4.4-14.322 4.576z" fill="#FFE89F" stroke="#26144D" stroke-width="1.3" stroke-linecap="round" stroke-linejoin="round"/><path d="M233.47 156.033v.241l33.821 15.501 10.352-20.362s-2.654-1.16-4.54-2.211l-39.633 6.831z" fill="#E0C379" stroke="#26144D" stroke-width="1.3" stroke-linecap="round" stroke-linejoin="round"/><path d="M233.47 156.033l-4.957.854" stroke="#26144D" stroke-width="1.3" stroke-linecap="round" stroke-linejoin="round"/><path d="M231.014 61.056V85.38s8.839-1.226 9.76 3.963c.921 5.189 1.228 20.69 1.228 20.69l-21.933 2.124.614-48.978 10.352-2.123h-.021z" fill="#D7D7D7" stroke="#26144D" stroke-width="1.5" stroke-linecap="round" stroke-linejoin="round"/><path d="M303.24 177.862s-20.42 15.808-25.29 16.727c-4.869.92-101.77-39.847-101.77-39.847l1.228-43.198s3.356-3.043 23.776-3.963c20.42-.919 27.417 1.818 27.417 1.818l-.307 7.29s-3.883-1.532-13.402-1.817c-7.391-.219-12.655.219-12.655.219l5.483 34.221s3.882-.46 10.967.219c5.044.482 10.813 2.43 10.813 2.43l.614-18.26 5.483 2.737.614 17.953s6.01 2.431 11.494 4.949c6.689 3.065 12.874 7.531 12.874 7.531s1.821-13.071 4.87-15.807c3.048-2.737 37.791 26.776 37.791 26.776v.022z" fill="#EFD489" stroke="#26144D" stroke-width="1.3" stroke-linecap="round" stroke-linejoin="round"/><path d="M195.372 115.813l6.097 32.229-25.289 6.7-9.607-35.732 28.799-3.197z" fill="#E0C379" stroke="#26144D" stroke-width="1.3" stroke-linecap="round" stroke-linejoin="round"/><path d="M265.448 151.085c-1.425 2.408 10.967 8.823 22.241 20.69 11.273 11.867 17.831 22.047 17.831 22.047l20.574-12.764s-7.304-15.961-23.162-25.397c-15.835-9.437-33.514-11.254-37.484-4.554v-.022zm7.919-13.99s-9.761-3.657-21.934-3.35c-12.173.306-15.835 2.737-15.835 2.737l-5.484-2.737s3.707-3.284 18.293-4.861c19.652-2.123 24.982 8.211 24.982 8.211h-.022zm-25.443-31.769v9.568l-19.653 1.839-1.359-18.479 10.045-.24.921 8.451 10.046-1.139z" fill="#FFECB8" stroke="#26144D" stroke-width="1.3" stroke-linecap="round" stroke-linejoin="round"/><path d="M277.95 194.589s-17.985-24.325-46.016-33.148c-28.03-8.823-40.839-2.737-40.839-2.737l62.773 48.058 24.06-12.173h.022z" fill="#C1C1C1" stroke="#26144D" stroke-width="1.5" stroke-linecap="round" stroke-linejoin="round"/><path d="M305.52 193.823l-10.966-14.144s-28.338 15.063-33.821 17.8c-5.484 2.737-10.046 1.817-19.192-8.21-9.146-10.028-21.473-19.158-34.282-26.908-12.809-7.751-24.674-11.867-24.674-11.867l-4.563-85.322-14.168 3.196 5.483 91.716 46.169 24.171 33.361 34.221 16.91-1.817 39.765-22.814-.022-.022z" fill="#D7D7D7" stroke="#26144D" stroke-width="1.5" stroke-linecap="round" stroke-linejoin="round"/><path d="M326.094 181.058s-58.957 31.484-65.361 33.302c-6.405 1.817-9.607 1.379-18.731-10.028-9.146-11.407-19.192-21.434-32.9-31.944-13.708-10.487-35.203-18.697-35.203-18.697l-4.562-81.206s26.057 2.277 48.911-1.38c22.855-3.656 22.855-9.13 22.855-9.13V3.878h-86.248l5.818 98.252s-16.45 6.852-32 12.326c-15.551 5.474-14.169 36.038-7.304 49.722 6.865 13.684 25.596 26.01 39.765 22.354 14.169-3.656 29.259-7.751 48.911 7.291 19.652 15.063 26.517 25.55 29.259 30.105 2.742 4.554 10.967 4.554 19.192.919 8.225-3.656 31.079-15.961 31.079-15.961l15.09-10.947 11.888-5.014 9.607-11.867h-.066z" fill="#7D7D7B" stroke="#26144D" stroke-width="1.5" stroke-linecap="round" stroke-linejoin="round"/></svg>