<svg width="525" height="458" fill="none" xmlns="http://www.w3.org/2000/svg"><path d="M177.812 421.979L523.65 221.86 346.838 119.281 1 319.414l176.812 102.565z" fill="#4DA4FF" stroke="#26144D" stroke-width="1.5" stroke-linecap="round" stroke-linejoin="round"/><path d="M178.1 456.68l345.851-200.12v-34.975L178.1 421.718v34.962z" fill="#D9D9D9" stroke="#26144D" stroke-width="1.5" stroke-linecap="round" stroke-linejoin="round"/><path d="M1.123 354.362L177.95 456.94v-34.975L1.123 319.4v34.962z" fill="#999" stroke="#26144D" stroke-width="1.5" stroke-linecap="round" stroke-linejoin="round"/><path d="M178.475 354.471l57 34 210.5-121.514-47.304-25.986-220.196 113.5z" fill="#B2B4B3" opacity=".46"/><g clip-path="url(#clip0_813_22983)" stroke-width="1.5" stroke-linecap="round" stroke-linejoin="round"><path d="M347.003 294.716l-8.84-6.133v-17.404l8.84-5.138v28.675zm56.758-32.941l-8.859-5.796v-18.524l8.859-5.138v29.458z" fill="#D8D8D8" stroke="#26144D"/><path d="M210.928 300.85v72.621L72.642 293.259V122.665l69.877 40.533v97.936l68.409 39.716z" fill="#7D7D7B" stroke="#26144D"/><path d="M419.497 179.305v73.332l-15.736 9.138v-29.458l-8.859 5.138-33.718 19.573v29.458l-14.18 8.231v-28.676l-8.841 5.138-33.719 19.573v28.675l-93.445 54.24v-73.333l208.498-121.029zm-276.925-16.374L351.07 41.901 281.088 1.333 72.589 122.363l69.983 40.568z" fill="#D8D8D8" stroke="#26144D"/><path d="M211.175 300.495l208.499-121.03-69.983-40.569-208.498 121.03 69.982 40.569z" fill="#D8D8D8" stroke="#26144D"/><path d="M163.029 249.366l55.519 23.573 168.504-98.293-27.265-18.275-57.889 11.609-138.869 81.386z" fill="#565656" stroke="#26144D"/><path d="M338.163 271.179v17.404l-33.718 19.573v-17.404l33.718-19.573zm56.739-33.724v18.524l-33.718 19.573v-18.524l33.718-19.573zm-43.938-122.398L142.466 236.104v-73.332l208.498-121.03v73.315z" fill="#7D7D7B" stroke="#26144D"/><path d="M151.978 239.73c.371-1.475 11.051-70.008 11.051-70.008l172.446-100.78 4.421 33.706-162.492 135.963-25.426 1.119z" fill="#565656" stroke="#26144D"/><path d="M382.172 138.362c0 1.778-.142 3.432-.442 4.96-1.061 5.903-4.12 9.831-8.399 11.342l-10.326 5.885c1.309-.996 2.44-2.276 3.342-3.84 1.591-2.773 2.511-6.436 2.511-10.862 0-.605 0-1.209-.053-1.831-.195-3.574-.92-7.271-2.104-10.951-1.238-3.787-2.935-7.538-4.986-11.076a58.984 58.984 0 00-5.216-7.502c-2.405-2.951-5.093-5.546-7.939-7.662a36.337 36.337 0 00-3.395-2.258c-1.273-.729-2.511-1.351-3.731-1.813-4.862-1.938-9.247-1.867-12.642-.053v-.054l11.493-6.257h.017a10.527 10.527 0 012.936-1.69c2.369-.942 5.109-1.12 8.133-.462 2.228.48 4.615 1.423 7.09 2.863a35.386 35.386 0 014.509 3.129c2.104 1.671 4.12 3.644 5.976 5.813 3.059 3.538 5.747 7.609 7.886 11.893a53.635 53.635 0 013.519 8.853c1.167 3.929 1.803 7.858 1.803 11.591l.018-.018z" fill="#D8D8D8" stroke="#26144D"/><path d="M368.858 145.847c0 6.933-2.21 11.982-5.853 14.702-4.349 3.253-10.732 3.2-17.858-.943-13.084-7.608-23.71-26.097-23.71-41.297 0-7.822 2.811-13.244 7.337-15.626 4.244-2.258 10.008-1.814 16.373 1.884 13.084 7.591 23.711 26.08 23.711 41.28z" fill="#7D7D7B" stroke="#26144D"/><path d="M351.371 94.22l-2.829 12.605a36.403 36.403 0 00-3.395-2.258c-1.273-.728-2.51-1.351-3.731-1.813l1.804-8.07c2.369-.943 5.11-1.12 8.133-.463h.018zm17.593 11.805l-7.249 15.964a59.055 59.055 0 00-5.216-7.502l6.489-14.275c2.104 1.671 4.119 3.644 5.976 5.813zm11.387 20.746l-11.564 17.244c-.195-3.573-.919-7.271-2.104-10.951l10.149-15.146a53.635 53.635 0 013.519 8.853zm1.379 16.551c-1.061 5.902-4.12 9.831-8.399 11.342l-10.326 5.885c1.309-.996 2.44-2.276 3.342-3.84l15.383-13.387z" fill="#D8D8D8" stroke="#26144D"/><path d="M367.196 162.025c0 2.667-.212 5.155-.654 7.449-1.592 8.871-6.189 14.791-12.625 17.066l-15.524 8.853c1.963-1.493 3.66-3.413 5.021-5.777 2.405-4.178 3.767-9.671 3.767-16.338 0-.907-.018-1.831-.089-2.755-.283-5.369-1.379-10.934-3.165-16.48-1.856-5.689-4.403-11.342-7.497-16.658-2.334-3.982-4.968-7.786-7.85-11.271-3.625-4.426-7.656-8.337-11.935-11.52a50.9 50.9 0 00-5.11-3.395c-1.91-1.102-3.784-2.027-5.605-2.738-7.32-2.915-13.898-2.809-19.008-.089v-.071l17.293-9.422h.035a15.82 15.82 0 014.403-2.542c3.554-1.422 7.691-1.69 12.235-.694 3.36.73 6.949 2.152 10.662 4.303a52.351 52.351 0 016.79 4.711c3.165 2.524 6.188 5.475 9 8.728 4.597 5.316 8.646 11.431 11.846 17.885 2.175 4.337 3.961 8.817 5.287 13.315 1.75 5.902 2.723 11.822 2.723 17.44z" fill="#D8D8D8" stroke="#26144D"/><path d="M347.181 173.26c0 10.436-3.324 18.009-8.788 22.115-6.524 4.872-16.143 4.8-26.858-1.404-19.679-11.449-35.646-39.235-35.646-62.097 0-11.769 4.244-19.911 11.034-23.502 6.383-3.395 15.046-2.72 24.612 2.827 19.679 11.413 35.646 39.217 35.646 62.079v-.018z" fill="#7D7D7B" stroke="#26144D"/><path d="M320.888 95.644l-4.243 18.95a50.9 50.9 0 00-5.11-3.395c-1.91-1.102-3.784-2.027-5.605-2.738l2.723-12.124c3.554-1.422 7.691-1.69 12.235-.694zm26.452 17.741l-10.91 24c-2.333-3.982-4.968-7.787-7.85-11.271l9.76-21.458c3.165 2.525 6.189 5.476 9 8.729zm17.133 31.2l-17.381 25.937c-.283-5.368-1.379-10.933-3.165-16.479l15.259-22.773c2.175 4.337 3.961 8.817 5.287 13.315zm2.069 24.889c-1.592 8.871-6.189 14.791-12.625 17.066l-15.524 8.853c1.962-1.493 3.66-3.413 5.021-5.777l23.128-20.142z" fill="#D8D8D8" stroke="#26144D"/><path d="M147.363 335.712l-41.834-100.799" stroke="#26144D"/><path d="M104.575 112.407l116.926-68.159" stroke="#fff"/><path d="M317.6 160.016c0 2.702-.743 4.782-1.998 6.098l-2.476 1.457-35.645 20.889a14.79 14.79 0 01-7.55 2.062 14.999 14.999 0 01-12.961-7.449c-4.173-7.182-1.786-16.408 5.358-20.622l35.557-20.817 2.935-1.725c1.715-.355 3.784.072 6.012 1.352 5.941 3.448 10.768 11.857 10.768 18.755z" fill="#fff" stroke="#26144D"/><path d="M301.403 186.629c0 1.778-.141 3.431-.442 4.96-1.061 5.902-4.119 9.831-8.398 11.342l-10.326 5.884c1.308-.995 2.44-2.275 3.342-3.84 1.591-2.773 2.51-6.435 2.51-10.862 0-.604 0-1.208-.053-1.831-.194-3.573-.919-7.271-2.104-10.951-1.238-3.786-2.935-7.537-4.986-11.075a58.882 58.882 0 00-5.216-7.502c-2.405-2.951-5.092-5.547-7.939-7.662a36.01 36.01 0 00-3.395-2.258c-1.273-.729-2.511-1.351-3.731-1.813-4.862-1.938-9.247-1.867-12.642-.054v-.053l11.493-6.258h.018a10.522 10.522 0 012.935-1.689c2.369-.942 5.11-1.12 8.133-.462 2.228.48 4.615 1.422 7.091 2.862a35.456 35.456 0 014.508 3.129c2.104 1.671 4.12 3.645 5.977 5.813 3.059 3.538 5.746 7.609 7.886 11.894a53.683 53.683 0 013.518 8.853c1.167 3.929 1.804 7.858 1.804 11.591l.017-.018z" fill="#D8D8D8" stroke="#26144D"/><path d="M288.107 194.096c0 6.933-2.21 11.982-5.853 14.702-4.349 3.253-10.732 3.2-17.858-.943-13.084-7.608-23.71-26.097-23.71-41.297 0-7.822 2.811-13.244 7.337-15.626 4.244-2.258 10.008-1.814 16.373 1.884 13.084 7.591 23.711 26.08 23.711 41.28z" fill="#7D7D7B" stroke="#26144D"/><path d="M270.62 142.488l-2.829 12.604a36.206 36.206 0 00-3.395-2.258c-1.273-.729-2.51-1.351-3.73-1.813l1.803-8.071c2.369-.942 5.11-1.12 8.133-.462h.018zm17.575 11.786l-7.249 15.964a58.953 58.953 0 00-5.216-7.502l6.489-14.275c2.104 1.671 4.12 3.644 5.976 5.813zM299.6 175.02l-11.564 17.244c-.194-3.573-.919-7.271-2.104-10.951l10.149-15.146a53.635 53.635 0 013.519 8.853zm1.379 16.551c-1.061 5.902-4.12 9.831-8.399 11.342l-10.326 5.885c1.309-.996 2.44-2.276 3.342-3.84l15.383-13.387zm-22.721 13.298c0 2.115-.177 4.089-.512 5.902-1.256 7.04-4.916 11.733-10.026 13.547l-12.324 7.022c1.556-1.191 2.9-2.702 3.979-4.587 1.909-3.306 2.988-7.68 2.988-12.96 0-.711 0-1.457-.071-2.186-.23-4.267-1.096-8.676-2.511-13.085-1.467-4.515-3.501-8.995-5.941-13.208-1.856-3.165-3.943-6.187-6.223-8.942-2.883-3.52-6.083-6.614-9.478-9.138a46.797 46.797 0 00-4.049-2.702c-1.52-.871-3.006-1.6-4.455-2.169-5.8-2.311-11.034-2.222-15.083-.071v-.054l13.721-7.484h.035a12.74 12.74 0 013.501-2.009c2.812-1.12 6.1-1.333 9.707-.551 2.67.587 5.517 1.707 8.452 3.413a41.827 41.827 0 015.393 3.734 53.46 53.46 0 017.143 6.933c3.643 4.213 6.861 9.066 9.407 14.186 1.732 3.449 3.147 7.005 4.19 10.56 1.397 4.676 2.157 9.387 2.157 13.831v.018z" fill="#D8D8D8" stroke="#26144D"/><path d="M262.38 213.793c0 8.267-2.634 14.293-6.984 17.546-5.18 3.876-12.801 3.805-21.306-1.12-15.612-9.084-28.29-31.128-28.29-49.279 0-9.333 3.359-15.804 8.752-18.649 5.057-2.684 11.935-2.168 19.521 2.24 15.612 9.067 28.29 31.111 28.29 49.244l.017.018z" fill="#7D7D7B" stroke="#26144D"/><path d="M241.517 152.194l-3.36 15.04a46.797 46.797 0 00-4.049-2.702c-1.52-.871-3.006-1.6-4.456-2.169l2.158-9.618c2.811-1.12 6.1-1.333 9.707-.551zm20.987 14.08l-8.663 19.04c-1.857-3.165-3.943-6.187-6.224-8.942l7.744-17.031a53.523 53.523 0 017.143 6.933zm13.597 24.746l-13.791 20.586c-.23-4.266-1.097-8.675-2.511-13.084l12.112-18.062c1.732 3.449 3.147 7.004 4.19 10.56zm1.645 19.751c-1.256 7.04-4.916 11.734-10.026 13.547l-12.324 7.022c1.556-1.191 2.9-2.702 3.979-4.586l18.353-15.983h.018zM254 227.126c0 2.667-.213 5.156-.655 7.449-1.591 8.871-6.188 14.791-12.624 17.067l-15.524 8.853c1.962-1.493 3.66-3.413 5.021-5.778 2.405-4.177 3.766-9.671 3.766-16.337 0-.907-.017-1.831-.088-2.756-.283-5.369-1.379-10.933-3.165-16.48-1.857-5.688-4.403-11.342-7.497-16.657-2.334-3.982-4.969-7.787-7.851-11.271-3.624-4.427-7.656-8.338-11.934-11.52a51.313 51.313 0 00-5.11-3.396c-1.91-1.102-3.784-2.026-5.605-2.737-7.32-2.916-13.898-2.809-19.008-.089v-.071l17.293-9.422h.035a15.809 15.809 0 014.403-2.543c3.554-1.422 7.691-1.689 12.235-.693 3.36.729 6.949 2.151 10.662 4.302a52.418 52.418 0 016.79 4.711c3.165 2.525 6.188 5.476 8.999 8.729 4.597 5.316 8.647 11.431 11.847 17.884 2.175 4.338 3.96 8.818 5.287 13.316 1.75 5.902 2.723 11.822 2.723 17.439z" fill="#D8D8D8" stroke="#26144D"/><path d="M234.002 238.379c0 10.436-3.324 18.009-8.788 22.116-6.524 4.871-16.143 4.8-26.858-1.405-19.679-11.449-35.645-39.235-35.645-62.097 0-11.769 4.243-19.911 11.033-23.502 6.383-3.395 15.047-2.72 24.612 2.827 19.68 11.413 35.646 39.217 35.646 62.079v-.018z" fill="#7D7D7B" stroke="#26144D"/><path d="M207.692 160.745l-4.244 18.951a51.083 51.083 0 00-5.11-3.396c-1.909-1.102-3.783-2.026-5.605-2.737l2.723-12.125c3.554-1.422 7.692-1.689 12.236-.693zm26.452 17.742l-10.91 23.999c-2.334-3.982-4.968-7.786-7.85-11.271l9.76-21.457c3.165 2.524 6.188 5.475 9 8.729zm17.132 31.199l-17.38 25.938c-.283-5.369-1.38-10.933-3.165-16.48l15.259-22.773c2.174 4.338 3.96 8.818 5.286 13.315zm2.069 24.889c-1.591 8.871-6.188 14.791-12.624 17.067l-15.524 8.853c1.962-1.493 3.66-3.413 5.021-5.778l23.127-20.142zM207.25 224.21c0 2.702-.743 4.782-1.998 6.098l-2.475 1.458-35.646 20.888a14.775 14.775 0 01-7.55 2.063 15 15 0 01-12.96-7.449c-4.173-7.182-1.786-16.409 5.357-20.622l35.557-20.818 2.935-1.724c1.715-.356 3.784.071 6.012 1.351 5.941 3.449 10.768 11.858 10.768 18.755z" fill="#D8D8D8" stroke="#26144D"/><path d="M96.335 212.744l9.194 22.169 41.834 100.799 12.271 29.6 19.167-11.36-.301-87.306c-.23-23.289-16.744-51.466-36.918-62.933-5.782-3.271-11.228-4.835-16.055-4.835s-8.664 1.422-11.9 4.107l-17.292 9.759z" fill="#D8D8D8" stroke="#26144D"/><path d="M87.07 323.214l72.564 42.097-.3-87.306c-.212-23.288-16.745-51.466-36.919-62.932-20.174-11.467-36.353-1.867-36.14 21.422l.795 86.719z" fill="#7D7D7B" stroke="#26144D"/><path d="M87.671 240.353l6.595 12.053 20.865 38.222 7.355 13.44 13.279-7.556c5.817-2.062 9.53-8.248 9.53-17.599 0-16.409-11.458-36.355-25.585-44.551-7.868-4.569-14.905-4.533-19.591-.782h-.018l-12.43 6.773z" fill="#D8D8D8" stroke="#26144D"/><path d="M87.266 282.631c-9.99-17.397-9.991-36.2-.004-41.997 9.988-5.798 26.183 3.605 36.172 21.002 9.99 17.397 9.992 36.2.004 41.997-9.987 5.798-26.182-3.605-36.172-21.002z" fill="#7D7D7B" stroke="#26144D"/><path d="M115.006 280.334c0 2.702-.742 4.782-1.998 6.098l-2.475 1.458-35.646 20.888a14.777 14.777 0 01-7.55 2.063 15 15 0 01-12.96-7.449c-4.173-7.182-1.786-16.409 5.357-20.622l35.558-20.818 2.935-1.724c1.715-.356 3.784.071 6.011 1.351 5.941 3.449 10.768 11.858 10.768 18.755z" fill="#fff" stroke="#26144D"/></g><path d="M84.145 308.324c0 6.822-2.705 11.338-6.954 12.834l-8.13 4.626c2.87-2.155 4.605-6.122 4.605-11.585 0-11.97-8.361-26.52-18.676-32.505-5.014-2.91-9.55-3.253-12.897-1.482v-.042l9.058-4.927c3.416-2.746 8.552-2.773 14.304.562 10.315 5.985 18.676 20.535 18.676 32.505l.014.014z" fill="#D7D7D7" stroke="#26144D" stroke-width="1.5" stroke-linecap="round" stroke-linejoin="round"/><path d="M73.653 314.213c0 5.463-1.75 9.43-4.605 11.585-3.415 2.553-8.456 2.512-14.071-.741-10.315-5.999-18.676-20.549-18.676-32.519 0-6.163 2.227-10.432 5.779-12.312 3.347-1.771 7.883-1.428 12.897 1.482 10.314 5.985 18.676 20.535 18.676 32.505z" fill="#7D7D7B" stroke="#26144D" stroke-width="1.5" stroke-linecap="round" stroke-linejoin="round"/><defs><clipPath id="clip0_813_22983"><path fill="#fff" transform="matrix(-1 0 0 1 421 0)" d="M0 0h370v375H0z"/></clipPath></defs></svg>