<svg width="545" height="423" fill="none" xmlns="http://www.w3.org/2000/svg"><path d="M360.334 385.767L1.31 178.849 184.858 72.808l359.045 206.918-183.569 106.041z" fill="#4DA4FF" stroke="#26144D" stroke-width="1.5" stroke-linecap="round" stroke-linejoin="round"/><path d="M509.451 300.448l-133 75.5-223-125 181.5-51 174.5 100.5z" fill="#B2B4B3" opacity=".46"/><path d="M360.045 421.63L1 214.733V178.58l359.045 206.897v36.153z" fill="#999" stroke="#26144D" stroke-width="1.5" stroke-linecap="round" stroke-linejoin="round"/><path d="M543.758 315.858L360.21 421.899v-36.153l183.548-106.041v36.153z" fill="#D9D9D9" stroke="#26144D" stroke-width="1.5" stroke-linecap="round" stroke-linejoin="round"/><path d="M200.301 68.015l-21.514 39.189-127.349-65.88.186-.331c-3.055-1.55-4.976-5.165-4.976-10.412 0-10.081 7.082-22.373 15.836-27.414C67.09.502 71.24.377 74.13 2.34l.103-.186 126.069 65.86z" fill="#D7D7D7" stroke="#26144D" stroke-width="1.5" stroke-linecap="round" stroke-linejoin="round"/><path d="M214.484 105.151c14.396-24.95 14.394-51.918-.004-60.235-14.398-8.318-37.74 5.165-52.136 30.114-14.396 24.95-14.394 51.918.004 60.235 14.398 8.318 37.74-5.165 52.136-30.114z" fill="#F11131" stroke="#26144D" stroke-width="1.5" stroke-linecap="round" stroke-linejoin="round"/><path d="M158.533 165.916c0 26.649 9.786 45.015 25.436 52.783l134.183 79.205L431.729 103.32 294.057 21.532l-.062.103c-14.37-7.892-34.005-6.528-55.663 5.991-44.081 25.472-79.799 87.386-79.799 138.29z" fill="#E30133" stroke="#26144D" stroke-width="1.5" stroke-linecap="round" stroke-linejoin="round"/><path d="M429.826 232.471c31.159-53.999 31.16-112.365.004-130.363-31.156-17.999-81.671 11.186-112.83 65.185-31.158 53.999-31.16 112.365-.004 130.364 31.156 17.998 81.672-11.186 112.83-65.186z" fill="#BE0037" stroke="#26144D" stroke-width="1.5" stroke-linecap="round" stroke-linejoin="round"/><path d="M439.059 151.599l-10.737 25.762-48.85 117.135-14.328 21.774-22.381-13.201.351-88.833c.268-27.062 19.552-59.807 43.11-73.131 6.751-3.802 13.11-5.62 18.747-5.62 5.637 0 10.117 1.653 13.895 4.773l20.193 11.341z" fill="#E30133" stroke="#26144D" stroke-width="1.5" stroke-linecap="round" stroke-linejoin="round"/><path d="M379.472 294.496l48.85-117.135" stroke="#26144D" stroke-width="1.5" stroke-linecap="round" stroke-linejoin="round"/><path d="M449.877 267.35l-84.733 48.92.351-88.832c.247-27.063 19.552-59.807 43.11-73.132 23.558-13.325 42.449-2.169 42.201 24.894l-.929 88.15z" fill="#BE0037" stroke="#26144D" stroke-width="1.5" stroke-linecap="round" stroke-linejoin="round"/><path d="M449.176 183.682l-7.702 14.007-24.363 44.416-8.589 15.618-15.505-8.78c-6.793-2.396-11.129-9.585-11.129-20.452 0-19.068 13.379-42.247 29.876-51.771 9.188-5.309 17.405-5.268 22.876-.909h.021l14.515 7.871z" fill="#E30133" stroke="#26144D" stroke-width="1.5" stroke-linecap="round" stroke-linejoin="round"/><path d="M449.639 232.804c11.665-20.217 11.667-42.067.005-48.804-11.663-6.738-30.574 4.189-42.239 24.406-11.665 20.216-11.667 42.066-.004 48.804 11.662 6.737 30.573-4.19 42.238-24.406zM316.149 46.922v57.658c7.516-7.024 15.465-13.056 23.723-17.828 10.427-6.032 20.399-9.462 29.546-10.536V51.095l-53.269-4.173z" fill="#BE0037" stroke="#26144D" stroke-width="1.5" stroke-linecap="round" stroke-linejoin="round"/><path d="M251.897 41.901v25.245l64.232 37.455.02-.021V46.921l-64.252-5.02z" fill="#F11131" stroke="#26144D" stroke-width="1.5" stroke-linecap="round" stroke-linejoin="round"/><path d="M369.418 51.095c-9.147 1.074-19.119 4.503-29.546 10.536-8.258 4.772-16.228 10.825-23.723 17.849l-64.252-37.455s11.252-11.486 28.389-19.377c17.137-7.892 28.678-7.458 28.678-7.458l60.433 35.884.021.02z" fill="#F11131" stroke="#26144D" stroke-width="1.5" stroke-linecap="round" stroke-linejoin="round"/><path d="M153.951 250.948l58.366-15.33v-55.241l-58.366 70.571zm65.5 36l56.251-14v-53.815l-56.251 67.815z" fill="#7D7D7B" stroke="#26144D" stroke-width="1.5" stroke-linecap="round" stroke-linejoin="round"/><path d="M212.317 180.377l-24.755-14.357-55.56 70.88 21.844 13.965 58.471-70.488zm63.385 38.756l-24.755-14.358-54.996 70.173 23.5 12 56.251-67.815z" fill="#D7D7D7" stroke="#26144D" stroke-width="1.5" stroke-linecap="round" stroke-linejoin="round"/><path d="M184.663 116.164l86.076 49.726 10.974-19.018-86.077-49.726-10.973 19.018z" fill="#BE0037" stroke="#26144D" stroke-width="1.5" stroke-linecap="round" stroke-linejoin="round"/><path d="M438.016 226.089c5.24-9.08 5.237-18.897-.007-21.926s-13.742 1.876-18.982 10.957c-5.239 9.08-5.236 18.897.008 21.926 5.243 3.03 13.742-1.876 18.981-10.957z" fill="#7D7D7B" stroke="#26144D" stroke-width="1.5" stroke-linecap="round" stroke-linejoin="round"/><path d="M352.137 48.203l-42.161-24.956" stroke="#fff" stroke-width="1.5" stroke-linecap="round" stroke-linejoin="round"/></svg>