<svg width="390" height="411" viewBox="0 0 390 411" fill="none" xmlns="http://www.w3.org/2000/svg">
<mask id="mask0_1028_32" style="mask-type:alpha" maskUnits="userSpaceOnUse" x="0" y="0" width="390" height="411">
<rect width="390" height="411" fill="#D9D9D9"/>
</mask>
<g mask="url(#mask0_1028_32)">
<path d="M137.018 336.9L369.808 202.921L250.79 134.25L18.0002 268.229L137.018 336.9Z" fill="#4DA5FF" stroke="black" stroke-width="1.5" stroke-linecap="round" stroke-linejoin="round"/>
<path d="M137.211 360.134L370.001 226.145V202.739L137.211 336.718V360.134Z" fill="#D9D9D9" stroke="black" stroke-width="1.5" stroke-linecap="round" stroke-linejoin="round"/>
<path d="M18.0846 291.634L137.103 360.305V336.9L18.0846 268.229V291.634Z" fill="#999999" stroke="black" stroke-width="1.5" stroke-linecap="round" stroke-linejoin="round"/>
<g style="mix-blend-mode:multiply" opacity="0.46">
<path d="M122.479 285.389L175.583 314.368L323.194 228.978L289.762 210.641L122.479 285.389Z" fill="#B2B4B3"/>
</g>
<path d="M256.701 247.078L251.023 243.161V232.047L256.701 228.767V247.078Z" fill="#D8D8D8" stroke="black" stroke-width="1.5" stroke-linecap="round" stroke-linejoin="round"/>
<path d="M293.156 226.042L287.466 222.341V210.512L293.156 207.231V226.042Z" fill="#D8D8D8" stroke="black" stroke-width="1.5" stroke-linecap="round" stroke-linejoin="round"/>
<path d="M169.3 250.995V297.37L80.479 246.148V137.211L125.361 163.094V225.634L169.3 250.995Z" fill="#7D7D7B" stroke="black" stroke-width="1.5" stroke-linecap="round" stroke-linejoin="round"/>
<path d="M303.266 173.379V220.207L293.158 226.042V207.232L287.468 210.512L265.811 223.011V241.822L256.703 247.078V228.767L251.025 232.048L229.367 244.547V262.858L169.347 297.494V250.666L303.266 173.379Z" fill="#D8D8D8" stroke="black" stroke-width="1.5" stroke-linecap="round" stroke-linejoin="round"/>
<path d="M125.396 162.923L259.315 85.6365L214.365 59.7305L80.4458 137.017L125.396 162.923Z" fill="#D8D8D8" stroke="black" stroke-width="1.5" stroke-linecap="round" stroke-linejoin="round"/>
<path d="M169.46 250.767L303.379 173.48L258.429 147.574L124.51 224.861L169.46 250.767Z" fill="#D8D8D8" stroke="black" stroke-width="1.5" stroke-linecap="round" stroke-linejoin="round"/>
<path d="M138.537 218.118L174.197 233.172L282.427 170.405L264.915 158.734L227.733 166.147L138.537 218.118Z" fill="#565656" stroke="black" stroke-width="1.5" stroke-linecap="round" stroke-linejoin="round"/>
<path d="M251.025 232.048V243.162L229.368 255.661V244.547L251.025 232.048Z" fill="#7D7D7B" stroke="black" stroke-width="1.5" stroke-linecap="round" stroke-linejoin="round"/>
<path d="M287.47 210.513V222.342L265.812 234.841V223.012L287.47 210.513Z" fill="#7D7D7B" stroke="black" stroke-width="1.5" stroke-linecap="round" stroke-linejoin="round"/>
<path d="M259.248 132.351L125.329 209.649V162.821L259.248 85.5342V132.351Z" fill="#7D7D7B" stroke="black" stroke-width="1.5" stroke-linecap="round" stroke-linejoin="round"/>
<path d="M131.439 211.965C131.678 211.022 138.537 167.259 138.537 167.259L249.288 102.914L252.127 124.438L147.759 211.261L131.428 211.976L131.439 211.965Z" fill="#565656" stroke="black" stroke-width="1.5" stroke-linecap="round" stroke-linejoin="round"/>
<path d="M279.484 153.774C279.484 155.477 279.348 157.066 279.064 158.53C278.042 164.195 275.089 167.976 270.955 169.429L260.984 175.082C262.244 174.129 263.335 172.903 264.209 171.393C265.754 168.725 266.628 165.217 266.628 160.96C266.628 160.381 266.617 159.791 266.571 159.2C266.39 155.772 265.686 152.219 264.539 148.677C263.346 145.044 261.711 141.434 259.723 138.04C258.224 135.497 256.532 133.067 254.681 130.842C252.353 128.015 249.763 125.518 247.015 123.486C245.948 122.68 244.846 121.965 243.733 121.318C242.506 120.614 241.303 120.023 240.133 119.569C235.431 117.708 231.206 117.776 227.924 119.513V119.467L239.031 113.45H239.054C239.906 112.758 240.86 112.213 241.882 111.827C244.165 110.919 246.822 110.749 249.741 111.384C251.898 111.85 254.204 112.758 256.589 114.132C258.077 114.994 259.542 115.993 260.95 117.14C262.983 118.752 264.925 120.636 266.73 122.714C269.683 126.108 272.284 130.013 274.339 134.134C275.736 136.904 276.883 139.765 277.735 142.637C278.859 146.406 279.484 150.187 279.484 153.774Z" fill="#D8D8D8" stroke="black" stroke-width="1.5" stroke-linecap="round" stroke-linejoin="round"/>
<path d="M266.641 160.948C266.641 167.612 264.506 172.448 260.996 175.07C256.806 178.181 250.628 178.135 243.745 174.173C231.105 166.862 220.85 149.119 220.85 134.52C220.85 127.004 223.576 121.805 227.937 119.512C232.037 117.344 237.601 117.775 243.745 121.317C256.385 128.605 266.641 146.36 266.641 160.959V160.948Z" fill="#7D7D7B" stroke="black" stroke-width="1.5" stroke-linecap="round" stroke-linejoin="round"/>
<path d="M249.743 111.384L247.017 123.486C245.95 122.68 244.848 121.965 243.735 121.318C242.509 120.614 241.305 120.023 240.135 119.569L241.884 111.827C244.167 110.919 246.824 110.749 249.743 111.384Z" fill="#D8D8D8" stroke="black" stroke-width="1.5" stroke-linecap="round" stroke-linejoin="round"/>
<path d="M266.733 122.714L259.726 138.039C258.226 135.496 256.534 133.067 254.683 130.842L260.952 117.14C262.985 118.752 264.927 120.636 266.733 122.714Z" fill="#D8D8D8" stroke="black" stroke-width="1.5" stroke-linecap="round" stroke-linejoin="round"/>
<path d="M277.737 142.638L266.573 159.201C266.392 155.772 265.688 152.219 264.541 148.677L274.341 134.135C275.738 136.905 276.885 139.766 277.737 142.638Z" fill="#D8D8D8" stroke="black" stroke-width="1.5" stroke-linecap="round" stroke-linejoin="round"/>
<path d="M279.067 158.53C278.045 164.195 275.092 167.975 270.958 169.429L260.987 175.082C262.247 174.128 263.338 172.902 264.212 171.392L279.067 158.53Z" fill="#D8D8D8" stroke="black" stroke-width="1.5" stroke-linecap="round" stroke-linejoin="round"/>
<path d="M257.826 160.676C257.826 162.027 257.713 163.287 257.497 164.445C256.691 168.941 254.34 171.938 251.058 173.096L243.142 177.58C244.141 176.819 245.004 175.854 245.697 174.651C246.924 172.539 247.616 169.747 247.616 166.375C247.616 165.921 247.616 165.444 247.571 164.979C247.423 162.254 246.867 159.439 245.958 156.623C245.016 153.74 243.71 150.879 242.142 148.188C240.95 146.168 239.61 144.238 238.145 142.478C236.294 140.231 234.238 138.255 232.058 136.643C231.206 136.007 230.331 135.44 229.457 134.918C228.48 134.361 227.526 133.896 226.595 133.533C222.87 132.057 219.508 132.114 216.908 133.487V133.453L225.721 128.674H225.743C226.425 128.129 227.174 127.698 227.992 127.391C229.798 126.676 231.91 126.54 234.227 127.039C235.942 127.414 237.77 128.129 239.655 129.219C240.836 129.9 241.995 130.695 243.119 131.603C244.732 132.886 246.276 134.373 247.707 136.03C250.047 138.721 252.114 141.82 253.749 145.089C254.862 147.292 255.771 149.562 256.441 151.833C257.338 154.818 257.826 157.827 257.826 160.665V160.676Z" fill="#D8D8D8" stroke="black" stroke-width="1.5" stroke-linecap="round" stroke-linejoin="round"/>
<path d="M247.628 166.375C247.628 171.654 245.936 175.502 243.142 177.58C239.814 180.055 234.92 180.009 229.457 176.865C219.429 171.064 211.286 156.987 211.286 145.396C211.286 139.436 213.444 135.304 216.908 133.487C220.156 131.773 224.574 132.102 229.446 134.918C239.474 140.707 247.616 154.784 247.616 166.364L247.628 166.375Z" fill="#7D7D7B" stroke="black" stroke-width="1.5" stroke-linecap="round" stroke-linejoin="round"/>
<path d="M234.227 127.051L232.069 136.655C231.217 136.019 230.343 135.452 229.468 134.929C228.492 134.373 227.538 133.908 226.606 133.544L227.992 127.403C229.798 126.688 231.91 126.551 234.227 127.051Z" fill="#D8D8D8" stroke="black" stroke-width="1.5" stroke-linecap="round" stroke-linejoin="round"/>
<path d="M247.707 136.042L242.142 148.2C240.95 146.179 239.61 144.249 238.145 142.49L243.119 131.614C244.731 132.897 246.276 134.384 247.707 136.042Z" fill="#D8D8D8" stroke="black" stroke-width="1.5" stroke-linecap="round" stroke-linejoin="round"/>
<path d="M256.442 151.844L247.583 164.99C247.436 162.265 246.879 159.45 245.971 156.635L253.75 145.101C254.863 147.303 255.772 149.573 256.442 151.844Z" fill="#D8D8D8" stroke="black" stroke-width="1.5" stroke-linecap="round" stroke-linejoin="round"/>
<path d="M257.498 164.457C256.692 168.953 254.341 171.95 251.059 173.108L243.143 177.592C244.142 176.831 245.006 175.866 245.698 174.663L257.487 164.457H257.498Z" fill="#D8D8D8" stroke="black" stroke-width="1.5" stroke-linecap="round" stroke-linejoin="round"/>
<path d="M237.669 170.485C237.669 171.62 237.579 172.676 237.385 173.652C236.704 177.421 234.739 179.93 231.991 180.895L225.359 184.653C226.199 184.017 226.926 183.2 227.505 182.201C228.527 180.43 229.118 178.091 229.118 175.264C229.118 174.878 229.118 174.492 229.084 174.095C228.959 171.813 228.493 169.452 227.732 167.102C226.937 164.684 225.847 162.289 224.53 160.029C223.53 158.338 222.406 156.726 221.179 155.239C219.635 153.354 217.909 151.697 216.08 150.346C215.365 149.812 214.638 149.336 213.9 148.904C213.082 148.439 212.287 148.041 211.503 147.746C208.38 146.509 205.564 146.554 203.383 147.712V147.678L210.765 143.682H210.777C211.344 143.217 211.98 142.865 212.662 142.604C214.184 142.002 215.944 141.888 217.886 142.308C219.317 142.615 220.85 143.217 222.44 144.136C223.428 144.715 224.405 145.374 225.336 146.134C226.687 147.201 227.982 148.461 229.175 149.846C231.139 152.106 232.865 154.705 234.24 157.441C235.171 159.28 235.932 161.187 236.5 163.095C237.249 165.603 237.658 168.112 237.658 170.496L237.669 170.485Z" fill="#D8D8D8" stroke="black" stroke-width="1.5" stroke-linecap="round" stroke-linejoin="round"/>
<path d="M229.129 175.264C229.129 179.691 227.71 182.916 225.37 184.652C222.576 186.73 218.477 186.696 213.9 184.051C205.496 179.192 198.67 167.386 198.67 157.679C198.67 152.684 200.476 149.222 203.383 147.701C206.109 146.259 209.811 146.543 213.9 148.904C222.304 153.751 229.129 165.558 229.129 175.264Z" fill="#7D7D7B" stroke="black" stroke-width="1.5" stroke-linecap="round" stroke-linejoin="round"/>
<path d="M217.896 142.297L216.079 150.346C215.364 149.812 214.637 149.335 213.899 148.904C213.081 148.438 212.286 148.041 211.502 147.746L212.661 142.592C214.183 141.99 215.943 141.877 217.885 142.297H217.896Z" fill="#D8D8D8" stroke="black" stroke-width="1.5" stroke-linecap="round" stroke-linejoin="round"/>
<path d="M229.196 149.834L224.54 160.029C223.541 158.337 222.416 156.725 221.19 155.238L225.358 146.122C226.709 147.189 228.004 148.449 229.196 149.834Z" fill="#D8D8D8" stroke="black" stroke-width="1.5" stroke-linecap="round" stroke-linejoin="round"/>
<path d="M236.512 163.082L229.085 174.094C228.96 171.812 228.494 169.451 227.733 167.101L234.252 157.429C235.183 159.268 235.944 161.175 236.512 163.082Z" fill="#D8D8D8" stroke="black" stroke-width="1.5" stroke-linecap="round" stroke-linejoin="round"/>
<path d="M237.397 173.651C236.716 177.42 234.751 179.929 232.003 180.894L225.371 184.652C226.211 184.016 226.938 183.199 227.517 182.2L237.397 173.651Z" fill="#D8D8D8" stroke="black" stroke-width="1.5" stroke-linecap="round" stroke-linejoin="round"/>
<path d="M218.409 172.425C218.409 174.151 217.932 175.479 217.126 176.319L215.536 177.25L192.64 190.589C191.119 191.486 189.438 191.906 187.791 191.906C184.486 191.906 181.261 190.203 179.467 187.149C176.786 182.563 178.32 176.671 182.908 173.98L205.746 160.687L207.631 159.586C208.733 159.359 210.062 159.631 211.493 160.448C215.309 162.651 218.409 168.02 218.409 172.425Z" fill="white" stroke="black" stroke-width="1.5" stroke-linecap="round" stroke-linejoin="round"/>
<path d="M202.387 199.399C202.387 201.102 202.251 202.691 201.967 204.155C200.945 209.82 197.992 213.601 193.858 215.054L183.887 220.707C185.147 219.754 186.238 218.528 187.112 217.018C188.657 214.35 189.531 210.842 189.531 206.585C189.531 206.006 189.52 205.416 189.474 204.825C189.293 201.397 188.588 197.844 187.441 194.302C186.249 190.669 184.614 187.059 182.626 183.665C181.127 181.122 179.435 178.692 177.584 176.467C175.256 173.64 172.666 171.143 169.918 169.111C168.85 168.305 167.749 167.59 166.636 166.943C165.409 166.239 164.205 165.648 163.036 165.194C158.334 163.333 154.109 163.401 150.827 165.138V165.092L161.934 159.075H161.957C162.809 158.383 163.763 157.838 164.785 157.452C167.067 156.544 169.725 156.374 172.644 157.009C174.801 157.475 177.107 158.383 179.492 159.757C180.979 160.619 182.444 161.618 183.853 162.765C185.886 164.377 187.828 166.261 189.633 168.339C192.586 171.733 195.187 175.638 197.242 179.759C198.639 182.529 199.786 185.39 200.638 188.262C201.762 192.031 202.387 195.812 202.387 199.399Z" fill="#D8D8D8" stroke="black" stroke-width="1.5" stroke-linecap="round" stroke-linejoin="round"/>
<path d="M189.531 206.585C189.531 213.248 187.396 218.084 183.886 220.707C179.696 223.817 173.518 223.772 166.635 219.81C153.995 212.499 143.74 194.755 143.74 180.156C143.74 172.641 146.466 167.442 150.827 165.149C154.927 162.98 160.491 163.412 166.635 166.954C179.276 174.242 189.531 191.997 189.531 206.596V206.585Z" fill="#7D7D7B" stroke="black" stroke-width="1.5" stroke-linecap="round" stroke-linejoin="round"/>
<path d="M172.643 157.009L169.917 169.111C168.849 168.305 167.748 167.59 166.635 166.943C165.408 166.239 164.204 165.648 163.035 165.194L164.784 157.452C167.066 156.544 169.724 156.374 172.643 157.009Z" fill="#D8D8D8" stroke="black" stroke-width="1.5" stroke-linecap="round" stroke-linejoin="round"/>
<path d="M189.634 168.339L182.627 183.664C181.128 181.121 179.436 178.692 177.584 176.467L183.853 162.765C185.886 164.377 187.828 166.261 189.634 168.339Z" fill="#D8D8D8" stroke="black" stroke-width="1.5" stroke-linecap="round" stroke-linejoin="round"/>
<path d="M200.638 188.262L189.474 204.825C189.293 201.396 188.588 197.843 187.441 194.301L197.242 179.759C198.639 182.529 199.786 185.39 200.638 188.262Z" fill="#D8D8D8" stroke="black" stroke-width="1.5" stroke-linecap="round" stroke-linejoin="round"/>
<path d="M201.966 204.155C200.944 209.82 197.991 213.6 193.857 215.054L183.886 220.707C185.147 219.753 186.237 218.527 187.112 217.017L201.966 204.155Z" fill="#D8D8D8" stroke="black" stroke-width="1.5" stroke-linecap="round" stroke-linejoin="round"/>
<path d="M180.522 204.167C180.522 205.302 180.432 206.358 180.239 207.334C179.557 211.103 177.592 213.612 174.844 214.577L168.212 218.334C169.052 217.699 169.779 216.881 170.358 215.882C171.38 214.111 171.971 211.773 171.971 208.946C171.971 208.56 171.971 208.174 171.937 207.777C171.812 205.495 171.346 203.134 170.585 200.784C169.79 198.366 168.7 195.97 167.383 193.711C166.383 192.02 165.259 190.408 164.032 188.92C162.488 187.036 160.762 185.378 158.933 184.028C158.218 183.494 157.491 183.017 156.753 182.586C155.935 182.12 155.14 181.723 154.356 181.428C151.233 180.19 148.417 180.236 146.236 181.394V181.36L153.618 177.364H153.63C154.197 176.898 154.833 176.546 155.515 176.285C157.037 175.684 158.797 175.57 160.739 175.99C162.17 176.297 163.703 176.898 165.293 177.818C166.281 178.397 167.258 179.055 168.189 179.816C169.54 180.883 170.835 182.143 172.028 183.528C173.992 185.787 175.718 188.387 177.093 191.123C178.024 192.962 178.785 194.869 179.353 196.776C180.102 199.285 180.511 201.794 180.511 204.178L180.522 204.167Z" fill="#D8D8D8" stroke="black" stroke-width="1.5" stroke-linecap="round" stroke-linejoin="round"/>
<path d="M171.982 208.946C171.982 213.373 170.563 216.597 168.223 218.334C165.429 220.412 161.33 220.377 156.753 217.732C148.349 212.874 141.523 201.067 141.523 191.361C141.523 186.366 143.329 182.903 146.237 181.382C148.962 179.941 152.664 180.224 156.753 182.586C165.157 187.433 171.982 199.239 171.982 208.946Z" fill="#7D7D7B" stroke="black" stroke-width="1.5" stroke-linecap="round" stroke-linejoin="round"/>
<path d="M160.738 175.978L158.921 184.027C158.206 183.494 157.479 183.017 156.741 182.585C155.923 182.12 155.128 181.723 154.344 181.427L155.503 176.274C157.024 175.672 158.785 175.558 160.727 175.978H160.738Z" fill="#D8D8D8" stroke="black" stroke-width="1.5" stroke-linecap="round" stroke-linejoin="round"/>
<path d="M172.039 183.516L167.382 193.71C166.383 192.019 165.259 190.407 164.032 188.92L168.2 179.804C169.552 180.871 170.846 182.131 172.039 183.516Z" fill="#D8D8D8" stroke="black" stroke-width="1.5" stroke-linecap="round" stroke-linejoin="round"/>
<path d="M179.365 196.765L171.938 207.777C171.813 205.495 171.347 203.133 170.586 200.784L177.105 191.111C178.036 192.95 178.797 194.858 179.365 196.765Z" fill="#D8D8D8" stroke="black" stroke-width="1.5" stroke-linecap="round" stroke-linejoin="round"/>
<path d="M180.241 207.333C179.56 211.102 177.595 213.611 174.847 214.576L168.214 218.333C169.055 217.698 169.782 216.88 170.361 215.881L180.241 207.333Z" fill="#D8D8D8" stroke="black" stroke-width="1.5" stroke-linecap="round" stroke-linejoin="round"/>
<path d="M161.705 205.904C161.705 207.629 161.228 208.957 160.422 209.798L158.832 210.728L135.936 224.067C134.415 224.964 132.734 225.384 131.087 225.384C127.782 225.384 124.557 223.681 122.762 220.628C120.082 216.041 121.615 210.149 126.204 207.459L149.042 194.165L150.927 193.064C152.029 192.837 153.358 193.11 154.789 193.927C158.604 196.129 161.705 201.499 161.705 205.904Z" fill="#D8D8D8" stroke="black" stroke-width="1.5" stroke-linecap="round" stroke-linejoin="round"/>
<path d="M95.6978 194.733L101.603 208.889L128.473 273.257L136.355 292.158L148.666 284.904L148.473 229.153C148.325 214.281 137.718 196.288 124.76 188.966C121.046 186.877 117.548 185.878 114.448 185.878C111.347 185.878 108.883 186.786 106.805 188.5L95.6978 194.733Z" fill="#D8D8D8" stroke="black" stroke-width="1.5" stroke-linecap="round" stroke-linejoin="round"/>
<path d="M128.472 273.256L101.602 208.889" stroke="black" stroke-width="1.5" stroke-linecap="round" stroke-linejoin="round"/>
<path d="M89.7575 265.276L136.366 292.158L136.173 236.407C136.036 221.535 125.418 203.542 112.46 196.22C99.5016 188.897 89.1102 195.028 89.2464 209.899L89.7575 265.276Z" fill="#7D7D7B" stroke="black" stroke-width="1.5" stroke-linecap="round" stroke-linejoin="round"/>
<path d="M90.1333 212.363L94.3694 220.06L107.77 244.467L112.495 253.05L121.024 248.225C124.76 246.908 127.145 242.957 127.145 236.986C127.145 226.508 119.786 213.771 110.712 208.537C105.658 205.62 101.138 205.642 98.1285 208.038H98.1171L90.1333 212.363Z" fill="#D8D8D8" stroke="black" stroke-width="1.5" stroke-linecap="round" stroke-linejoin="round"/>
<path d="M113.111 252.788C119.526 249.086 119.525 237.079 113.109 225.97C106.692 214.86 96.2902 208.856 89.8752 212.558C83.4602 216.26 83.4613 228.268 89.8777 239.377C96.2942 250.486 106.696 256.491 113.111 252.788Z" fill="#7D7D7B" stroke="black" stroke-width="1.5" stroke-linecap="round" stroke-linejoin="round"/>
<path d="M107.69 237.894C107.69 239.619 107.213 240.948 106.407 241.788L104.817 242.719L81.9217 256.058C80.3999 256.954 78.7191 257.375 77.0724 257.375C73.7675 257.375 70.5422 255.672 68.7478 252.618C66.0676 248.032 67.6008 242.14 72.1889 239.449L95.0274 226.156L96.9126 225.054C98.0143 224.827 99.343 225.1 100.774 225.917C104.59 228.12 107.69 233.489 107.69 237.894Z" fill="white" stroke="black" stroke-width="1.5" stroke-linecap="round" stroke-linejoin="round"/>
<path d="M100.99 130.66L176.092 87.1348" stroke="white" stroke-width="1.5" stroke-linecap="round" stroke-linejoin="round"/>
<path d="M92.0216 253.481C92.0216 258.047 90.2111 261.07 87.3674 262.071L81.927 265.167C83.8471 263.725 85.0084 261.07 85.0084 257.413C85.0084 249.402 79.4125 239.664 72.509 235.659C69.1533 233.711 66.1176 233.481 63.8774 234.666V234.639L69.9397 231.341C72.2256 229.503 75.6636 229.485 79.5131 231.717C86.4165 235.723 92.0124 245.461 92.0124 253.472L92.0216 253.481Z" fill="#D7D7D7" stroke="black" stroke-width="1.5" stroke-linecap="round" stroke-linejoin="round"/>
<path d="M84.9992 257.423C84.9992 261.079 83.8288 263.734 81.9178 265.176C79.6319 266.885 76.2579 266.857 72.4998 264.68C65.5964 260.666 60.0005 250.927 60.0005 242.916C60.0005 238.792 61.4909 235.934 63.8682 234.676C66.1084 233.491 69.1441 233.72 72.4998 235.668C79.4033 239.673 84.9992 249.412 84.9992 257.423Z" fill="#7D7D7B" stroke="black" stroke-width="1.5" stroke-linecap="round" stroke-linejoin="round"/>
<path d="M-48.0003 314.053V372.983C-48.0003 377.742 -44.1379 381.602 -39.3756 381.602C-34.6133 381.602 -30.751 377.742 -30.751 372.983V319.067L73.5845 259.8L74.9045 259.05C74.9045 259.05 74.942 259.028 74.9645 259.013C75.7069 258.271 76.1494 257.072 76.1494 255.505C76.1494 251.578 73.397 246.804 69.9922 244.84C68.5672 244.023 67.2623 243.821 66.2198 244.151L65.1624 244.758L-43.6355 306.566C-46.3353 308.095 -48.0003 310.958 -48.0003 314.053Z" fill="#D2233C" stroke="black" stroke-width="1.5" stroke-linecap="round" stroke-linejoin="round"/>
<path d="M56.5899 269.445C57.3324 268.703 57.7749 267.504 57.7749 265.938C57.7749 262.011 55.0225 257.237 51.6176 255.273C50.1927 254.456 48.8878 254.254 47.8453 254.584" stroke="black" stroke-width="1.5" stroke-linecap="round" stroke-linejoin="round"/>
<path d="M47.4102 257.828C34.2707 265.765 20.7713 273.259 7.43688 281.249" stroke="white" stroke-width="1.5" stroke-linecap="round" stroke-linejoin="round"/>
<rect x="261" y="8" width="107" height="44" fill="#C1C1C1" fill-opacity="0.8"/>
<rect x="257" y="4" width="107" height="44" fill="white"/>
<rect x="253.269" y="0.269345" width="106.461" height="43.4613" stroke="#525252" stroke-width="0.53869"/>
<path d="M203.768 172.865L278.768 43.8652" stroke="#525252" stroke-width="0.53869" stroke-linecap="round"/>
<circle cx="203.963" cy="172.963" r="2.9628" fill="#525252"/>
<circle cx="151.818" cy="187.818" r="2.8183" fill="#525252"/>
<rect x="25" y="54" width="102" height="43" fill="#C1C1C1" fill-opacity="0.8"/>
<rect x="22" y="51" width="101" height="42" fill="white"/>
<rect x="18.2562" y="47.2562" width="100.488" height="41.4876" stroke="#525252" stroke-width="0.512419"/>
<path d="M58.186 88.8232L152.186 187.823" stroke="#525252" stroke-width="0.512419" stroke-linecap="round"/>
<path d="M207.074 251.743L252.074 264.743" stroke="#525252" stroke-width="0.534328" stroke-linecap="round"/>
<circle cx="206.939" cy="251.939" r="2.93881" fill="#525252"/>
<rect x="260" y="255" width="106" height="44" fill="#C1C1C1" fill-opacity="0.8"/>
<rect x="256" y="251" width="106" height="44" fill="white"/>
<rect x="252.267" y="248.267" width="105.466" height="42.4657" stroke="#525252" stroke-width="0.534328"/>
</g>
</svg>
