<svg width="390" height="411" fill="none" xmlns="http://www.w3.org/2000/svg"><mask id="a" style="mask-type:alpha" maskUnits="userSpaceOnUse" x="0" y="0" width="390" height="411"><path fill="#D9D9D9" d="M0 0h390v411H0z"/></mask><g mask="url(#a)"><path d="M137.018 336.9l232.79-133.979L250.79 134.25 18 268.229 137.018 336.9z" fill="#4DA5FF" stroke="#000" stroke-width="1.5" stroke-linecap="round" stroke-linejoin="round"/><path d="M137.211 360.134l232.79-133.989v-23.406l-232.79 133.979v23.416z" fill="#D9D9D9" stroke="#000" stroke-width="1.5" stroke-linecap="round" stroke-linejoin="round"/><path d="M18.085 291.634l119.018 68.671V336.9L18.085 268.229v23.405z" fill="#999" stroke="#000" stroke-width="1.5" stroke-linecap="round" stroke-linejoin="round"/><path d="M122.479 285.389l53.104 28.979 147.611-85.39-33.432-18.337-167.283 74.748z" fill="#B2B4B3" opacity=".46"/><path d="M256.701 247.078l-5.678-3.917v-11.114l5.678-3.28v18.311zm36.455-21.036l-5.69-3.701v-11.829l5.69-3.281v18.811z" fill="#D8D8D8" stroke="#000" stroke-width="1.5" stroke-linecap="round" stroke-linejoin="round"/><path d="M169.3 250.995v46.375l-88.821-51.222V137.211l44.882 25.883v62.54l43.939 25.361z" fill="#7D7D7B" stroke="#000" stroke-width="1.5" stroke-linecap="round" stroke-linejoin="round"/><path d="M303.266 173.379v46.828l-10.108 5.835v-18.81l-5.69 3.28-21.657 12.499v18.811l-9.108 5.256v-18.311l-5.678 3.281-21.658 12.499v18.311l-60.02 34.636v-46.828l133.919-77.287zm-177.87-10.456l133.919-77.287-44.95-25.905-133.92 77.286 44.951 25.906z" fill="#D8D8D8" stroke="#000" stroke-width="1.5" stroke-linecap="round" stroke-linejoin="round"/><path d="M169.46 250.767l133.919-77.287-44.95-25.906-133.919 77.287 44.95 25.906z" fill="#D8D8D8" stroke="#000" stroke-width="1.5" stroke-linecap="round" stroke-linejoin="round"/><path d="M138.537 218.118l35.66 15.054 108.23-62.767-17.512-11.671-37.182 7.413-89.196 51.971z" fill="#565656" stroke="#000" stroke-width="1.5" stroke-linecap="round" stroke-linejoin="round"/><path d="M251.025 232.048v11.114l-21.657 12.499v-11.114l21.657-12.499zm36.445-21.535v11.829l-21.658 12.499v-11.829l21.658-12.499zm-28.222-78.162l-133.919 77.298v-46.828l133.919-77.287v46.817z" fill="#7D7D7B" stroke="#000" stroke-width="1.5" stroke-linecap="round" stroke-linejoin="round"/><path d="M131.439 211.965c.239-.943 7.098-44.706 7.098-44.706l110.751-64.345 2.839 21.524-104.368 86.823-16.331.715.011-.011z" fill="#565656" stroke="#000" stroke-width="1.5" stroke-linecap="round" stroke-linejoin="round"/><path d="M279.484 153.774c0 1.703-.136 3.292-.42 4.756-1.022 5.665-3.975 9.446-8.109 10.899l-9.971 5.653c1.26-.953 2.351-2.179 3.225-3.689 1.545-2.668 2.419-6.176 2.419-10.433 0-.579-.011-1.169-.057-1.76-.181-3.428-.885-6.981-2.032-10.523a55.385 55.385 0 00-4.816-10.637 54.775 54.775 0 00-5.042-7.198c-2.328-2.827-4.918-5.324-7.666-7.356a32.663 32.663 0 00-3.282-2.168c-1.227-.704-2.43-1.295-3.6-1.749-4.702-1.861-8.927-1.793-12.209-.056v-.046l11.107-6.017h.023a10.19 10.19 0 012.828-1.623c2.283-.908 4.94-1.078 7.859-.443 2.157.466 4.463 1.374 6.848 2.748a33.455 33.455 0 014.361 3.008c2.033 1.612 3.975 3.496 5.78 5.574 2.953 3.394 5.554 7.299 7.609 11.42a51.47 51.47 0 013.396 8.503c1.124 3.769 1.749 7.55 1.749 11.137z" fill="#D8D8D8" stroke="#000" stroke-width="1.5" stroke-linecap="round" stroke-linejoin="round"/><path d="M266.641 160.948c0 6.664-2.135 11.5-5.645 14.122-4.19 3.111-10.368 3.065-17.251-.897-12.64-7.311-22.895-25.054-22.895-39.653 0-7.516 2.726-12.715 7.087-15.008 4.1-2.168 9.664-1.737 15.808 1.805 12.64 7.288 22.896 25.043 22.896 39.642v-.011z" fill="#7D7D7B" stroke="#000" stroke-width="1.5" stroke-linecap="round" stroke-linejoin="round"/><path d="M249.743 111.384l-2.726 12.102a32.663 32.663 0 00-3.282-2.168 26.66 26.66 0 00-3.6-1.749l1.749-7.742c2.283-.908 4.94-1.078 7.859-.443zm16.99 11.33l-7.007 15.325a54.866 54.866 0 00-5.043-7.197l6.269-13.702c2.033 1.612 3.975 3.496 5.781 5.574zm11.004 19.924l-11.164 16.563c-.181-3.429-.885-6.982-2.032-10.524l9.8-14.542a51.47 51.47 0 013.396 8.503zm1.33 15.892c-1.022 5.665-3.975 9.445-8.109 10.899l-9.971 5.653c1.26-.954 2.351-2.18 3.225-3.69l14.855-12.862zm-21.241 2.146c0 1.351-.113 2.611-.329 3.769-.806 4.496-3.157 7.493-6.439 8.651l-7.916 4.484a9.754 9.754 0 002.555-2.929c1.227-2.112 1.919-4.904 1.919-8.276 0-.454 0-.931-.045-1.396-.148-2.725-.704-5.54-1.613-8.356-.942-2.883-2.248-5.744-3.816-8.435a43.511 43.511 0 00-3.997-5.71c-1.851-2.247-3.907-4.223-6.087-5.835a30.315 30.315 0 00-2.601-1.725 21.808 21.808 0 00-2.862-1.385c-3.725-1.476-7.087-1.419-9.687-.046v-.034l8.813-4.779h.022a8.204 8.204 0 012.249-1.283c1.806-.715 3.918-.851 6.235-.352 1.715.375 3.543 1.09 5.428 2.18a26.912 26.912 0 013.464 2.384 34.324 34.324 0 014.588 4.427 43.734 43.734 0 016.042 9.059 40.33 40.33 0 012.692 6.744c.897 2.985 1.385 5.994 1.385 8.832v.011z" fill="#D8D8D8" stroke="#000" stroke-width="1.5" stroke-linecap="round" stroke-linejoin="round"/><path d="M247.628 166.375c0 5.279-1.692 9.127-4.486 11.205-3.328 2.475-8.222 2.429-13.685-.715-10.028-5.801-18.171-19.878-18.171-31.469 0-5.96 2.158-10.092 5.622-11.909 3.248-1.714 7.666-1.385 12.538 1.431 10.028 5.789 18.17 19.866 18.17 31.446l.012.011z" fill="#7D7D7B" stroke="#000" stroke-width="1.5" stroke-linecap="round" stroke-linejoin="round"/><path d="M234.227 127.051l-2.158 9.604a30.409 30.409 0 00-2.601-1.726 21.94 21.94 0 00-2.862-1.385l1.386-6.141c1.806-.715 3.918-.852 6.235-.352zm13.48 8.991l-5.565 12.158a43.378 43.378 0 00-3.997-5.71l4.974-10.876a34.33 34.33 0 014.588 4.428zm8.735 15.802l-8.859 13.146c-.147-2.725-.704-5.54-1.612-8.355l7.779-11.534a40.287 40.287 0 012.692 6.743zm1.056 12.613c-.806 4.496-3.157 7.493-6.439 8.651l-7.916 4.484a9.74 9.74 0 002.555-2.929l11.789-10.206h.011zm-19.829 6.028c0 1.135-.09 2.191-.284 3.167-.681 3.769-2.646 6.278-5.394 7.243l-6.632 3.758a8.205 8.205 0 002.146-2.452c1.022-1.771 1.613-4.11 1.613-6.937 0-.386 0-.772-.034-1.169-.125-2.282-.591-4.643-1.352-6.993a37.261 37.261 0 00-3.202-7.073 37.658 37.658 0 00-3.351-4.79c-1.544-1.885-3.27-3.542-5.099-4.893a23.31 23.31 0 00-2.18-1.442c-.818-.465-1.613-.863-2.397-1.158-3.123-1.237-5.939-1.192-8.12-.034v-.034l7.382-3.996h.012a6.756 6.756 0 011.885-1.078c1.522-.602 3.282-.716 5.224-.296 1.431.307 2.964.909 4.554 1.828a22.784 22.784 0 012.896 1.998 28.144 28.144 0 013.839 3.712c1.964 2.26 3.69 4.859 5.065 7.595a34.14 34.14 0 012.26 5.654c.749 2.508 1.158 5.017 1.158 7.401l.011-.011z" fill="#D8D8D8" stroke="#000" stroke-width="1.5" stroke-linecap="round" stroke-linejoin="round"/><path d="M229.129 175.264c0 4.427-1.419 7.652-3.759 9.388-2.794 2.078-6.893 2.044-11.47-.601-8.404-4.859-15.23-16.665-15.23-26.372 0-4.995 1.806-8.457 4.713-9.978 2.726-1.442 6.428-1.158 10.517 1.203 8.404 4.847 15.229 16.654 15.229 26.36z" fill="#7D7D7B" stroke="#000" stroke-width="1.5" stroke-linecap="round" stroke-linejoin="round"/><path d="M217.896 142.297l-1.817 8.049a23.113 23.113 0 00-2.18-1.442c-.818-.466-1.613-.863-2.397-1.158l1.159-5.154c1.522-.602 3.282-.715 5.224-.295h.011zm11.3 7.537l-4.656 10.195a37.59 37.59 0 00-3.35-4.791l4.168-9.116a28.08 28.08 0 013.838 3.712zm7.316 13.248l-7.427 11.012c-.125-2.282-.591-4.643-1.352-6.993l6.519-9.672a34.166 34.166 0 012.26 5.653zm.885 10.569c-.681 3.769-2.646 6.278-5.394 7.243l-6.632 3.758a8.205 8.205 0 002.146-2.452l9.88-8.549z" fill="#D8D8D8" stroke="#000" stroke-width="1.5" stroke-linecap="round" stroke-linejoin="round"/><path d="M218.409 172.425c0 1.726-.477 3.054-1.283 3.894l-1.59.931-22.896 13.339a9.53 9.53 0 01-4.849 1.317 9.644 9.644 0 01-8.324-4.757c-2.681-4.586-1.147-10.478 3.441-13.169l22.838-13.293 1.885-1.101c1.102-.227 2.431.045 3.862.862 3.816 2.203 6.916 7.572 6.916 11.977z" fill="#fff" stroke="#000" stroke-width="1.5" stroke-linecap="round" stroke-linejoin="round"/><path d="M202.387 199.399c0 1.703-.136 3.292-.42 4.756-1.022 5.665-3.975 9.446-8.109 10.899l-9.971 5.653c1.26-.953 2.351-2.179 3.225-3.689 1.545-2.668 2.419-6.176 2.419-10.433 0-.579-.011-1.169-.057-1.76-.181-3.428-.886-6.981-2.033-10.523a55.32 55.32 0 00-4.815-10.637 54.775 54.775 0 00-5.042-7.198c-2.328-2.827-4.918-5.324-7.666-7.356a32.777 32.777 0 00-3.282-2.168 26.775 26.775 0 00-3.6-1.749c-4.702-1.861-8.927-1.793-12.209-.056v-.046l11.107-6.017h.023a10.19 10.19 0 012.828-1.623c2.282-.908 4.94-1.078 7.859-.443 2.157.466 4.463 1.374 6.848 2.748a33.59 33.59 0 014.361 3.008c2.033 1.612 3.975 3.496 5.78 5.574 2.953 3.394 5.554 7.299 7.609 11.42a51.47 51.47 0 013.396 8.503c1.124 3.769 1.749 7.55 1.749 11.137z" fill="#D8D8D8" stroke="#000" stroke-width="1.5" stroke-linecap="round" stroke-linejoin="round"/><path d="M189.531 206.585c0 6.663-2.135 11.499-5.645 14.122-4.19 3.11-10.368 3.065-17.251-.897-12.64-7.311-22.895-25.055-22.895-39.654 0-7.515 2.726-12.714 7.087-15.007 4.1-2.169 9.664-1.737 15.808 1.805 12.641 7.288 22.896 25.043 22.896 39.642v-.011z" fill="#7D7D7B" stroke="#000" stroke-width="1.5" stroke-linecap="round" stroke-linejoin="round"/><path d="M172.643 157.009l-2.726 12.102a32.777 32.777 0 00-3.282-2.168 26.775 26.775 0 00-3.6-1.749l1.749-7.742c2.282-.908 4.94-1.078 7.859-.443zm16.991 11.33l-7.007 15.325a54.676 54.676 0 00-5.043-7.197l6.269-13.702c2.033 1.612 3.975 3.496 5.781 5.574zm11.004 19.923l-11.164 16.563c-.181-3.429-.886-6.982-2.033-10.524l9.801-14.542a51.47 51.47 0 013.396 8.503zm1.328 15.893c-1.022 5.665-3.975 9.445-8.109 10.899l-9.971 5.653c1.261-.954 2.351-2.18 3.226-3.69l14.854-12.862zm-21.444.012c0 1.135-.09 2.191-.283 3.167-.682 3.769-2.647 6.278-5.395 7.243l-6.632 3.757a8.192 8.192 0 002.146-2.452c1.022-1.771 1.613-4.109 1.613-6.936 0-.386 0-.772-.034-1.169-.125-2.282-.591-4.643-1.352-6.993a37.233 37.233 0 00-3.202-7.073 37.74 37.74 0 00-3.351-4.791c-1.544-1.884-3.27-3.542-5.099-4.892a23.113 23.113 0 00-2.18-1.442c-.818-.466-1.613-.863-2.397-1.158-3.123-1.238-5.939-1.192-8.12-.034v-.034l7.382-3.996h.012a6.734 6.734 0 011.885-1.079c1.522-.601 3.282-.715 5.224-.295 1.431.307 2.964.908 4.554 1.828a22.68 22.68 0 012.896 1.998 28.144 28.144 0 013.839 3.712c1.964 2.259 3.69 4.859 5.065 7.595a34.166 34.166 0 012.26 5.653c.749 2.509 1.158 5.018 1.158 7.402l.011-.011z" fill="#D8D8D8" stroke="#000" stroke-width="1.5" stroke-linecap="round" stroke-linejoin="round"/><path d="M171.982 208.946c0 4.427-1.419 7.651-3.759 9.388-2.794 2.078-6.893 2.043-11.47-.602-8.404-4.858-15.23-16.665-15.23-26.371 0-4.995 1.806-8.458 4.714-9.979 2.725-1.441 6.427-1.158 10.516 1.204 8.404 4.847 15.229 16.653 15.229 26.36z" fill="#7D7D7B" stroke="#000" stroke-width="1.5" stroke-linecap="round" stroke-linejoin="round"/><path d="M160.738 175.978l-1.817 8.049a23.51 23.51 0 00-2.18-1.442c-.818-.465-1.613-.862-2.397-1.158l1.159-5.153c1.521-.602 3.282-.716 5.224-.296h.011zm11.301 7.538l-4.657 10.194a37.55 37.55 0 00-3.35-4.79l4.168-9.116a28.087 28.087 0 013.839 3.712zm7.326 13.249l-7.427 11.012c-.125-2.282-.591-4.644-1.352-6.993l6.519-9.673a34.176 34.176 0 012.26 5.654zm.876 10.568c-.681 3.769-2.646 6.278-5.394 7.243l-6.633 3.757a8.181 8.181 0 002.147-2.452l9.88-8.548zm-18.536-1.429c0 1.725-.477 3.053-1.283 3.894l-1.59.93-22.896 13.339a9.53 9.53 0 01-4.849 1.317 9.648 9.648 0 01-8.325-4.756c-2.68-4.587-1.147-10.479 3.442-13.169l22.838-13.294 1.885-1.101c1.102-.227 2.431.046 3.862.863 3.815 2.202 6.916 7.572 6.916 11.977z" fill="#D8D8D8" stroke="#000" stroke-width="1.5" stroke-linecap="round" stroke-linejoin="round"/><path d="M95.698 194.733l5.905 14.156 26.87 64.368 7.882 18.901 12.311-7.254-.193-55.751c-.148-14.872-10.755-32.865-23.713-40.187-3.714-2.089-7.212-3.088-10.312-3.088-3.101 0-5.565.908-7.643 2.622l-11.107 6.233z" fill="#D8D8D8" stroke="#000" stroke-width="1.5" stroke-linecap="round" stroke-linejoin="round"/><path d="M128.472 273.256l-26.87-64.367" stroke="#000" stroke-width="1.5" stroke-linecap="round" stroke-linejoin="round"/><path d="M89.757 265.276l46.609 26.882-.193-55.751c-.137-14.872-10.755-32.865-23.713-40.187-12.958-7.323-23.35-1.192-23.214 13.679l.511 55.377z" fill="#7D7D7B" stroke="#000" stroke-width="1.5" stroke-linecap="round" stroke-linejoin="round"/><path d="M90.133 212.363l4.236 7.697 13.401 24.407 4.725 8.583 8.529-4.825c3.736-1.317 6.121-5.268 6.121-11.239 0-10.478-7.359-23.215-16.433-28.449-5.054-2.917-9.574-2.895-12.584-.499h-.01l-7.985 4.325z" fill="#D8D8D8" stroke="#000" stroke-width="1.5" stroke-linecap="round" stroke-linejoin="round"/><path d="M113.111 252.788c6.415-3.702 6.414-15.709-.002-26.818-6.417-11.11-16.819-17.114-23.234-13.412-6.415 3.702-6.414 15.71.003 26.819 6.416 11.109 16.818 17.114 23.233 13.411z" fill="#7D7D7B" stroke="#000" stroke-width="1.5" stroke-linecap="round" stroke-linejoin="round"/><path d="M107.69 237.894c0 1.725-.477 3.054-1.283 3.894l-1.59.931-22.895 13.339a9.545 9.545 0 01-4.85 1.317 9.646 9.646 0 01-8.324-4.757c-2.68-4.586-1.147-10.478 3.44-13.169l22.84-13.293 1.885-1.102c1.101-.227 2.43.046 3.861.863 3.816 2.203 6.916 7.572 6.916 11.977z" fill="#fff" stroke="#000" stroke-width="1.5" stroke-linecap="round" stroke-linejoin="round"/><path d="M100.99 130.66l75.102-43.525" stroke="#fff" stroke-width="1.5" stroke-linecap="round" stroke-linejoin="round"/><path d="M92.022 253.481c0 4.566-1.81 7.589-4.655 8.59l-5.44 3.096c1.92-1.442 3.081-4.097 3.081-7.754 0-8.011-5.596-17.749-12.499-21.754-3.356-1.948-6.391-2.178-8.632-.993v-.027l6.063-3.298c2.286-1.838 5.724-1.856 9.573.376 6.903 4.006 12.5 13.744 12.5 21.755l.009.009z" fill="#D7D7D7" stroke="#000" stroke-width="1.5" stroke-linecap="round" stroke-linejoin="round"/><path d="M85 257.423c0 3.656-1.171 6.311-3.082 7.753-2.286 1.709-5.66 1.681-9.418-.496-6.904-4.014-12.5-13.753-12.5-21.764 0-4.124 1.49-6.982 3.868-8.24 2.24-1.185 5.276-.956 8.632.992 6.903 4.005 12.5 13.744 12.5 21.755z" fill="#7D7D7B" stroke="#000" stroke-width="1.5" stroke-linecap="round" stroke-linejoin="round"/><path d="M-48 314.053v58.93c0 4.759 3.862 8.619 8.624 8.619 4.763 0 8.625-3.86 8.625-8.619v-53.916L73.585 259.8l1.32-.75.06-.037c.742-.742 1.184-1.941 1.184-3.508 0-3.927-2.752-8.701-6.157-10.665-1.425-.817-2.73-1.019-3.772-.689l-1.058.607-108.797 61.808A8.607 8.607 0 00-48 314.053z" fill="#D2233C" stroke="#000" stroke-width="1.5" stroke-linecap="round" stroke-linejoin="round"/><path d="M56.59 269.445c.742-.742 1.185-1.941 1.185-3.507 0-3.927-2.752-8.701-6.157-10.665-1.425-.817-2.73-1.019-3.773-.689" stroke="#000" stroke-width="1.5" stroke-linecap="round" stroke-linejoin="round"/><path d="M47.41 257.828c-13.14 7.937-26.639 15.431-39.973 23.421" stroke="#fff" stroke-width="1.5" stroke-linecap="round" stroke-linejoin="round"/><path fill="#C1C1C1" fill-opacity=".8" d="M261 8h107v44H261z"/><path fill="#fff" d="M257 4h107v44H257z"/><path stroke="#525252" stroke-width=".539" d="M253.269.269H359.73V43.73H253.269z"/><path d="M203.768 172.865l75-129" stroke="#525252" stroke-width=".539" stroke-linecap="round"/><circle cx="203.963" cy="172.963" r="2.963" fill="#525252"/><circle cx="151.818" cy="187.818" r="2.818" fill="#525252"/><path fill="#C1C1C1" fill-opacity=".8" d="M25 54h102v43H25z"/><path fill="#fff" d="M22 51h101v42H22z"/><path stroke="#525252" stroke-width=".512" d="M18.256 47.256h100.488v41.488H18.256z"/><path d="M58.186 88.823l94 99" stroke="#525252" stroke-width=".512" stroke-linecap="round"/><path d="M207.074 251.743l45 13" stroke="#525252" stroke-width=".534" stroke-linecap="round"/><circle cx="206.939" cy="251.939" r="2.939" fill="#525252"/><path fill="#C1C1C1" fill-opacity=".8" d="M260 255h106v44H260z"/><path fill="#fff" d="M256 251h106v44H256z"/><path stroke="#525252" stroke-width=".534" d="M252.267 248.267h105.466v42.466H252.267z"/></g></svg>