<svg width="1447" height="863" fill="none" xmlns="http://www.w3.org/2000/svg"><mask id="a" style="mask-type:alpha" maskUnits="userSpaceOnUse" x="0" y="0" width="1447" height="863"><path fill="#D9D9D9" d="M0 0h1447v863H0z"/></mask><g clip-path="url(#clip0_1324_81)" mask="url(#a)"><path d="M823.766 185.428c-26.827 11.421-59.721 25.649-62.584 27.281-5.536 3.168-11.849 41.908-11.849 41.908S486.994 391.4 471.201 400.107c-10.332 5.673-25.822 31.872-35.301 49.345l-3.622-6.09s17.386-37.962 33.198-46.65c15.793-8.708 278.131-145.491 278.131-145.491s6.313-38.74 11.849-41.908c4.19-2.39 42.336-18.82 62.338-27.015 1.801.929 3.792 1.992 5.972 3.13z" fill="#EFEFEF" stroke="#26144D" stroke-width="1.5" stroke-linecap="round" stroke-linejoin="round"/><path d="M900.077 389.029c0 1.574-319.235 171.842-323.975 174.46-4.739 2.637-56.896-3.68-56.896-3.68l-13.12 7.531-70.187-117.888c9.48-17.472 24.97-43.672 35.302-49.344 15.793-8.708 278.131-145.491 278.131-145.491s6.314-38.739 11.85-41.908c2.863-1.631 35.757-15.86 62.584-27.28 34.999 18.326 115.86 60.784 117.926 62.852 2.635 2.637-40.572 60.101-42.677 63.269-2.104 3.149 1.062 75.885 1.062 77.479z" fill="#999" stroke="#26144D" stroke-width="1.5" stroke-linecap="round" stroke-linejoin="round"/><path d="M809.452 358.238l31.984-18.687-.189-25.858-31.984 18.706.189 25.839z" fill="#004DA7" stroke="#26144D" stroke-width="1.5" stroke-linecap="round" stroke-linejoin="round"/><path d="M809.263 332.399l31.984-18.706-29.254-16.884-31.984 18.686 29.254 16.904z" fill="#248AFF" stroke="#26144D" stroke-width="1.5" stroke-linecap="round" stroke-linejoin="round"/><path d="M780.009 315.495l.189 25.858 29.254 16.884-.189-25.838-29.254-16.904z" fill="#0069E8" stroke="#26144D" stroke-width="1.5" stroke-linecap="round" stroke-linejoin="round"/><path d="M849.305 381.269l31.984-18.687-.19-25.857-31.984 18.686.19 25.858z" fill="#004DA7" stroke="#26144D" stroke-width="1.5" stroke-linecap="round" stroke-linejoin="round"/><path d="M849.115 355.411l31.984-18.686-29.273-16.904-31.984 18.687 29.273 16.903z" fill="#248AFF" stroke="#26144D" stroke-width="1.5" stroke-linecap="round" stroke-linejoin="round"/><path d="M819.842 338.508l.208 25.858 29.254 16.903-.189-25.858-29.273-16.903z" fill="#0069E8" stroke="#26144D" stroke-width="1.5" stroke-linecap="round" stroke-linejoin="round"/><path d="M889.157 404.281l31.984-18.687-.209-25.858-31.984 18.687.209 25.858z" fill="#004DA7" stroke="#26144D" stroke-width="1.5" stroke-linecap="round" stroke-linejoin="round"/><path d="M888.948 378.423l31.984-18.687-29.254-16.903-31.984 18.706 29.254 16.884z" fill="#248AFF" stroke="#26144D" stroke-width="1.5" stroke-linecap="round" stroke-linejoin="round"/><path d="M859.694 361.539l.19 25.839 29.273 16.903-.209-25.857-29.254-16.885z" fill="#0069E8" stroke="#26144D" stroke-width="1.5" stroke-linecap="round" stroke-linejoin="round"/><path d="M809.452 323.16l31.984-18.687-.189-89.184-31.984 18.687.189 89.184z" fill="#004DA7" stroke="#26144D" stroke-width="1.5" stroke-linecap="round" stroke-linejoin="round"/><path d="M809.263 233.976l31.984-18.687-29.254-16.903-31.984 18.686 29.254 16.904z" fill="#248AFF" stroke="#26144D" stroke-width="1.5" stroke-linecap="round" stroke-linejoin="round"/><path d="M780.009 217.072l.189 89.184 29.254 16.904-.189-89.184-29.254-16.904z" fill="#0069E8" stroke="#26144D" stroke-width="1.5" stroke-linecap="round" stroke-linejoin="round"/><path d="M849.305 346.192l31.984-18.687-.19-89.203-31.984 18.687.19 89.203z" fill="#004DA7" stroke="#26144D" stroke-width="1.5" stroke-linecap="round" stroke-linejoin="round"/><path d="M849.115 256.988l31.984-18.687-29.273-16.904-31.984 18.687 29.273 16.904z" fill="#248AFF" stroke="#26144D" stroke-width="1.5" stroke-linecap="round" stroke-linejoin="round"/><path d="M819.842 240.085l.208 89.203 29.254 16.903-.189-89.203-29.273-16.903z" fill="#0069E8" stroke="#26144D" stroke-width="1.5" stroke-linecap="round" stroke-linejoin="round"/><path d="M889.157 369.204l31.984-18.687-.209-89.184-31.984 18.687.209 89.184z" fill="#004DA7" stroke="#26144D" stroke-width="1.5" stroke-linecap="round" stroke-linejoin="round"/><path d="M888.948 280.019l31.984-18.687-29.254-16.903-31.984 18.686 29.254 16.904z" fill="#248AFF" stroke="#26144D" stroke-width="1.5" stroke-linecap="round" stroke-linejoin="round"/><path d="M859.694 263.116l.19 89.184 29.273 16.904-.209-89.184-29.254-16.904z" fill="#0069E8" stroke="#26144D" stroke-width="1.5" stroke-linecap="round" stroke-linejoin="round"/><path d="M749.977 448.523l66.869-39.195-.285-37.658-66.869 39.176.285 37.677z" fill="#004DA7" stroke="#26144D" stroke-width="1.5" stroke-linecap="round" stroke-linejoin="round"/><path d="M749.693 410.846l66.869-39.176-65.845-39.005-66.869 39.176 65.845 39.005z" fill="#248AFF" stroke="#26144D" stroke-width="1.5" stroke-linecap="round" stroke-linejoin="round"/><path d="M683.848 371.841l.284 37.677 65.845 39.005-.284-37.677-65.845-39.005z" fill="#0069E8" stroke="#26144D" stroke-width="1.5" stroke-linecap="round" stroke-linejoin="round"/><path d="M700.076 396.541c3.811 2.371 7.034 7.968 7.167 12.483.056 2.675-.967 4.363-2.636 4.8l-76.86 44.298-10.011-17.454 76.861-44.298c1.213-1.214 3.185-1.252 5.479.152v.019z" fill="#EFEFEF" stroke="#26144D" stroke-width="1.5" stroke-linecap="round" stroke-linejoin="round"/><path d="M627.935 458.181c2.624-1.508 2.482-6.686-.317-11.565-2.8-4.88-7.197-7.613-9.821-6.106-2.625 1.508-2.483 6.686.317 11.565 2.799 4.88 7.196 7.613 9.821 6.106z" fill="#fff" stroke="#26144D" stroke-width="1.5" stroke-linecap="round" stroke-linejoin="round"/><path d="M732.478 416.688c3.811 2.372 7.034 7.968 7.167 12.484.057 2.674-.967 4.363-2.635 4.799l-76.861 44.298-10.01-17.453 76.86-44.298c1.213-1.214 3.185-1.252 5.479.151v.019z" fill="#EFEFEF" stroke="#26144D" stroke-width="1.5" stroke-linecap="round" stroke-linejoin="round"/><path d="M660.344 478.348c2.624-1.508 2.482-6.686-.317-11.565-2.8-4.88-7.197-7.613-9.821-6.106-2.624 1.508-2.482 6.686.317 11.565 2.8 4.88 7.196 7.613 9.821 6.106z" fill="#fff" stroke="#26144D" stroke-width="1.5" stroke-linecap="round" stroke-linejoin="round"/><path d="M518.41 886.134l1.915-311.528 133.454-24.246 10.541 425.906" fill="#D6D6D6"/><path d="M518.41 886.134l1.915-311.528 133.454-24.246 10.541 425.906" stroke="#26144D" stroke-width="1.5" stroke-linecap="round" stroke-linejoin="round"/><path d="M939.948 241.735s-45.047 64.048-46.222 69.189c-1.175 5.141 0 70.364 0 73.931 0 3.567-316.466 171.178-320.012 173.55-3.545 2.371-35.946-2.77-35.946-2.77l1.573 15.423 39.909 5.938 204.247-107.529 131.558-77.08 21.727-69.587 16.59-62.454-5.138-15.025-8.304-3.567.018-.019z" fill="#EFEFEF" stroke="#26144D" stroke-width="1.5" stroke-linecap="round" stroke-linejoin="round"/><path d="M985.394 296.296c.796 7.115-52.157 105.936-57.674 113.847-5.536 7.911-330.288 181.062-333.454 183.434-3.166 2.371-73.486-1.575-73.486-1.575l-14.693-24.662 13.12-7.532s52.156 6.317 56.896 3.68c4.74-2.618 323.974-172.885 323.974-174.46 0-1.574-3.223-74.367-1.061-77.479 5.384-7.74 43.701-63.876 42.923-64.673-2.142-2.144-85.79-44.431-118.722-61.675-.948-.494-4.569-2.467-5.422-2.903 6.427-2.637 10.977-4.42 11.944-4.61 3.943-.778 117.717 61.676 121.68 63.25 3.943 1.594 33.178 48.244 33.975 55.358z" fill="#EFEFEF" stroke="#26144D" stroke-width="1.5" stroke-linecap="round" stroke-linejoin="round"/><path d="M427.539 465.502s3.337-6.792 8.361-16.05" stroke="#26144D" stroke-width="1.5" stroke-linecap="round" stroke-linejoin="round"/><path d="M802.303 329.481c6.375-3.683 6.373-15.628-.004-26.68-6.376-11.052-16.714-17.025-23.088-13.342-6.375 3.682-6.374 15.627.003 26.679 6.377 11.052 16.714 17.026 23.089 13.343z" fill="#F01131" stroke="#26144D" stroke-width="1.5" stroke-linecap="round" stroke-linejoin="round"/><path d="M803.992 343.042c0 11.801-4.342 19.939-11.262 23.373l-59.418 35.078-50.298-86.168 60.953-36.216v.038c6.39-3.491 15.092-2.884 24.685 2.656 19.528 11.288 35.34 38.702 35.34 61.239z" fill="#E20133" stroke="#26144D" stroke-width="1.5" stroke-linecap="round" stroke-linejoin="round"/><path d="M733.83 401.404c13.801-7.974 13.802-33.828.001-57.746-13.8-23.919-36.176-36.845-49.978-28.872-13.801 7.974-13.802 33.828-.002 57.746 13.801 23.919 36.177 36.845 49.979 28.872z" fill="#BD0037" stroke="#26144D" stroke-width="1.5" stroke-linecap="round" stroke-linejoin="round"/><path d="M679.753 336.706l4.759 11.402 21.632 51.867 6.351 9.638 9.916-5.844-.152-39.346c-.113-11.99-8.664-26.484-19.091-32.384-2.996-1.688-5.802-2.485-8.305-2.485-2.502 0-4.474.74-6.161 2.105l-8.949 5.028v.019z" fill="#E20133" stroke="#26144D" stroke-width="1.5" stroke-linecap="round" stroke-linejoin="round"/><path d="M706.144 399.975l-21.632-51.868" stroke="#26144D" stroke-width="1.5" stroke-linecap="round" stroke-linejoin="round"/><path d="M674.975 387.967l37.52 21.665-.152-39.346c-.114-11.99-8.664-26.484-19.092-32.384-10.427-5.9-18.788-.968-18.694 11.022l.418 39.024v.019z" fill="#BD0037" stroke="#26144D" stroke-width="1.5" stroke-linecap="round" stroke-linejoin="round"/><path d="M675.278 350.897l3.413 6.203 10.788 19.674 3.811 6.924 6.863-3.889c3.014-1.062 4.929-4.25 4.929-9.049 0-8.443-5.915-18.706-13.233-22.918-4.077-2.352-7.717-2.333-10.125-.398l-6.427 3.491-.019-.038z" fill="#E20133" stroke="#26144D" stroke-width="1.5" stroke-linecap="round" stroke-linejoin="round"/><path d="M693.77 383.516c5.169-2.987 5.17-12.667.002-21.623-5.167-8.956-13.546-13.796-18.715-10.81-5.169 2.987-5.17 12.667-.002 21.623 5.167 8.956 13.546 13.796 18.715 10.81z" fill="#BD0037" stroke="#26144D" stroke-width="1.5" stroke-linecap="round" stroke-linejoin="round"/><path d="M682.312 360.154c3.811 2.372 7.034 7.968 7.167 12.483.057 2.675-.967 4.364-2.635 4.8l-76.861 44.298-10.01-17.453 76.86-44.299c1.214-1.214 3.185-1.252 5.479.152v.019z" fill="#EFEFEF" stroke="#26144D" stroke-width="1.5" stroke-linecap="round" stroke-linejoin="round"/><path d="M610.153 421.822c2.625-1.507 2.483-6.685-.317-11.565-2.799-4.879-7.196-7.612-9.821-6.105-2.624 1.508-2.482 6.685.318 11.565 2.799 4.879 7.196 7.613 9.82 6.105z" fill="#fff" stroke="#26144D" stroke-width="1.5" stroke-linecap="round" stroke-linejoin="round"/><path d="M646.839 510.843l-77.429-44.734v-95.236l77.429 44.734v95.236z" fill="#999" stroke="#26144D" stroke-width="1.5" stroke-linecap="round" stroke-linejoin="round"/><path d="M646.953 415.683l-77.43-44.734 32.951-19.048 77.43 44.735-32.951 19.047z" fill="#EFEFEF" stroke="#26144D" stroke-width="1.5" stroke-linecap="round" stroke-linejoin="round"/><path d="M679.734 491.91l-32.97 19.047v-95.236l32.97-19.047v95.236zm-110.191-74.367l7.546 13.754 23.888 43.615 8.418 15.329 15.205-8.613c6.655-2.353 10.921-9.41 10.921-20.091 0-18.725-13.12-41.49-29.292-50.843-9.006-5.217-17.063-5.179-22.429-.892h-.019l-14.238 7.722v.019z" fill="#D6D6D6" stroke="#26144D" stroke-width="1.4" stroke-linecap="round" stroke-linejoin="round"/><path d="M610.486 489.813c11.451-6.599 11.468-28.046.039-47.903-11.429-19.856-29.977-30.603-41.427-24.004-11.451 6.6-11.469 28.046-.04 47.903 11.43 19.856 29.977 30.603 41.428 24.004z" fill="#999" stroke="#26144D" stroke-width="1.5" stroke-linecap="round" stroke-linejoin="round"/><path d="M599.084 470.003c5.145-2.965 5.155-12.597.023-21.513-5.132-8.915-13.463-13.74-18.607-10.775-5.145 2.965-5.155 12.597-.023 21.513 5.132 8.916 13.462 13.74 18.607 10.775z" fill="#EFEFEF" stroke="#26144D" stroke-width="1.5" stroke-linecap="round" stroke-linejoin="round"/><path d="M562.831 435.963l5.536 10.093 17.537 32.005 6.181 11.25 11.148-6.318c4.892-1.726 8.001-6.905 8.001-14.74 0-13.736-9.631-30.43-21.5-37.298-6.617-3.832-12.532-3.794-16.456-.664l-10.447 5.672z" fill="#D6D6D6" stroke="#26144D" stroke-width="1.4" stroke-linecap="round" stroke-linejoin="round"/><path d="M592.887 488.988c8.402-4.843 8.414-20.581.027-35.154-8.388-14.572-21.999-22.46-30.401-17.617-8.402 4.842-8.414 20.581-.026 35.153s21.998 22.46 30.4 17.618z" fill="#999" stroke="#26144D" stroke-width="1.5" stroke-linecap="round" stroke-linejoin="round"/><path d="M584.522 474.455c3.775-2.175 3.78-9.245.012-15.791-3.768-6.547-9.882-10.09-13.657-7.914-3.774 2.175-3.78 9.245-.012 15.791 3.768 6.547 9.883 10.09 13.657 7.914z" fill="#EFEFEF" stroke="#26144D" stroke-width="1.5" stroke-linecap="round" stroke-linejoin="round"/><path d="M576.463 455.751c3.811 2.371 7.034 7.968 7.166 12.483.057 2.675-.967 4.363-2.635 4.8l-76.861 44.298-10.01-17.454 76.861-44.298c1.213-1.214 3.185-1.252 5.479.152v.019z" fill="#EFEFEF" stroke="#26144D" stroke-width="1.5" stroke-linecap="round" stroke-linejoin="round"/><path d="M504.304 517.414c2.624-1.507 2.482-6.685-.317-11.565-2.8-4.879-7.197-7.613-9.821-6.105-2.624 1.507-2.482 6.685.317 11.565 2.8 4.879 7.196 7.613 9.821 6.105z" fill="#fff" stroke="#26144D" stroke-width="1.5" stroke-linecap="round" stroke-linejoin="round"/><path d="M766.983 392.273l33.122-19.142v-40.712l-33.122 19.123v40.731z" fill="#999" stroke="#26144D" stroke-width="1.5" stroke-linecap="round" stroke-linejoin="round"/><path d="M766.945 351.58l33.103-19.142-14.086-8.139-33.122 19.123 14.105 8.158z" fill="#EFEFEF" stroke="#26144D" stroke-width="1.5" stroke-linecap="round" stroke-linejoin="round"/><path d="M752.916 384.172l14.106 8.139v-40.713l-14.106-8.158v40.732z" fill="#D6D6D6" stroke="#26144D" stroke-width="1.4" stroke-linecap="round" stroke-linejoin="round"/><path d="M654.195 421.811l18.808-10.871m-18.808 17.985l18.808-10.87m-18.808 17.586l18.808-10.87m-18.808 17.984l18.808-10.87m-18.808 17.586l18.808-10.87m-18.808 17.984l18.808-10.87m-18.808 17.605l18.808-10.871m-18.808 17.985l18.808-10.871" stroke="#26144D" stroke-width="1.4" stroke-linecap="round" stroke-linejoin="round"/><path d="M355.627 599.383S53.797 855.552 50.63 860.295c-3.166 4.743 30.032 1.063 35.302-1.574 5.271-2.637 277.089-182.903 285.507-192.92 8.436-10.016 16.323-43.216 16.323-43.216l-32.135-23.202z" fill="#D6D6D6" stroke="#26144D" stroke-width="1.5" stroke-linecap="round" stroke-linejoin="round"/><path d="M272.832-.282c16.077 41.908 45.312 123.333 69.106 218.569 12.513 50.065 19.831 88.786 24.078 117.869-10.048-41.244-26.088-95.142-51.474-156.874-58.47-142.323-80.596-181.86-80.596-181.86" fill="#D6D6D6"/><path d="M272.832-.282c16.077 41.908 45.312 123.333 69.106 218.569 12.513 50.065 19.831 88.786 24.078 117.869-10.048-41.244-26.088-95.142-51.474-156.874-58.47-142.323-80.596-181.86-80.596-181.86" stroke="#26144D" stroke-width="1.5" stroke-linecap="round" stroke-linejoin="round"/><path d="M314.542 2.166s64.803 161.294 91.668 245.109c26.865 83.816 52.156 181.84 52.156 181.84l-52.156 36.387-24.23-43.235s-2.863-32.214-15.945-85.959v-.057s0-.057-.019-.095c-4.246-29.083-11.565-67.804-24.078-117.869-23.794-95.236-53.029-176.66-69.106-218.568" fill="#EFEFEF"/><path d="M314.542 2.166s64.803 161.294 91.668 245.109c26.865 83.816 52.156 181.84 52.156 181.84l-52.156 36.387-24.23-43.235s-2.863-32.214-15.945-85.959v-.057s0-.057-.019-.095c-4.246-29.083-11.565-67.804-24.078-117.869-23.794-95.236-53.029-176.66-69.106-218.568" stroke="#26144D" stroke-width="1.5" stroke-linecap="round" stroke-linejoin="round"/><path d="M422.002 448.106s-126.95 81.178-82.7 159.719c44.251 78.541 192.265 4.212 192.265 4.212s32.895-42.572-11.053-113.847c-41.615-67.462-98.512-50.084-98.512-50.084z" fill="#EFEFEF" stroke="#26144D" stroke-width="1.5" stroke-linecap="round" stroke-linejoin="round"/><path d="M381.979 422.266l7.376 54.827s15.812 26.882 50.564 15.291c34.771-11.592 31.605-39.536 31.605-39.536l-19.49-46.385s1.061 17.397-28.97 26.351-41.085-10.548-41.085-10.548z" fill="#D2233C" stroke="#26144D" stroke-width="1.5" stroke-linecap="round" stroke-linejoin="round"/><path d="M515.244 626.796s31.605 26.882 210.182 162.869c178.576 135.986 357.154 260.915 357.154 260.915l-7.91-41.11S967.212 881.372 806.021 753.297C644.83 625.203 546.849 576.181 546.849 576.181l-31.605 50.596v.019z" fill="#EFEFEF" stroke="#26144D" stroke-width="1.5" stroke-linecap="round" stroke-linejoin="round"/><path d="M490.483 578.286c-15.527 23.904-3.166 43.748 2.636 49.022 5.801 5.274 39.511 14.76 39.511 14.76s-10.011-21.077 2.635-37.431c12.646-16.334 31.605-15.29 31.605-15.29s-20.021-21.609-31.074-30.563c-11.053-8.955-31.605-1.575-45.294 19.502h-.019z" fill="#D2233C" stroke="#26144D" stroke-width="1.5" stroke-linecap="round" stroke-linejoin="round"/><path d="M366.017 336.155s.018.057.018.095v.056" stroke="#26144D" stroke-width="1.5" stroke-linecap="round" stroke-linejoin="round"/><path d="M337.729 92.83s31.226 72.526 53.731 144.428c27.396 87.495 43.189 150.746 43.189 150.746m134.856 217.165s86.056 51.735 144.336 94.875c76.917 56.933 168.566 132.838 168.566 132.838M365.561 515.928c-19.054 21.646-32.818 50.274-23.187 79.3M708.57 309.463l41.085-24.245m-228.61 203.467l44.251-24.777" stroke="#fff" stroke-width="1.5" stroke-linecap="round" stroke-linejoin="round"/></g><defs><clipPath id="clip0_1324_81"><path fill="#fff" transform="translate(49 -4)" d="M0 0h1035v1056H0z"/></clipPath></defs></svg>