<svg width="390" height="570" fill="none" xmlns="http://www.w3.org/2000/svg"><mask id="a" style="mask-type:alpha" maskUnits="userSpaceOnUse" x="0" y="0" width="390" height="570"><path fill="#D9D9D9" d="M0 0h390v570H0z"/></mask><g mask="url(#a)"><path fill="#C1C1C1" fill-opacity=".8" d="M27 163h140v46H27z"/><path fill="#fff" d="M23 159h140v46H23z"/><path stroke="#525252" stroke-width=".512" d="M19.256 155.256h139.488v45.488H19.256z"/><path d="M48.076 177.99v-7.154c.95-.027 1.606-.041 1.968-.041.779 0 1.356.158 1.732.472.382.307.574.741.574 1.301 0 .417-.11.766-.328 1.046a1.88 1.88 0 01-.902.615v.02c.464.075.827.26 1.086.554.267.293.4.676.4 1.147 0 .684-.232 1.203-.697 1.558-.465.349-1.1.523-1.906.523-.786 0-1.428-.014-1.927-.041zm2.03-3.259h-1.159v2.439c.28.027.65.041 1.107.041.54 0 .953-.109 1.24-.328.294-.226.44-.553.44-.984 0-.376-.143-.663-.43-.861-.28-.205-.68-.307-1.199-.307zm-.083-3.116c-.205 0-.563.011-1.076.031v2.316h1.148c.403 0 .735-.106.994-.318.26-.218.39-.512.39-.881 0-.765-.486-1.148-1.456-1.148zM55.55 178h-1.486v-4.612h.82v1.384h.758c.629 0 1.09.143 1.384.43.294.28.44.666.44 1.158 0 .465-.153.854-.46 1.169-.294.314-.78.471-1.456.471zm3.618 0h-.82v-4.612h.82V178zm-3.68-2.46h-.604v1.691h.594c.39 0 .673-.068.85-.205.179-.136.267-.348.267-.635 0-.567-.369-.851-1.106-.851zm8.697 1.199l.39.595c-.397.512-.987.768-1.773.768-.738 0-1.336-.218-1.794-.655-.45-.438-.676-1.022-.676-1.753 0-.676.222-1.247.666-1.711.444-.465 1.001-.697 1.67-.697.807 0 1.412.201 1.815.604l-.38.646c-.355-.321-.796-.482-1.322-.482-.43 0-.803.158-1.117.472-.307.307-.46.697-.46 1.168 0 .499.156.895.47 1.189.322.301.718.451 1.19.451.532 0 .973-.198 1.321-.595zm1.577.687c-.45-.465-.676-1.042-.676-1.732 0-.697.225-1.271.676-1.722.458-.457 1.052-.686 1.784-.686.73 0 1.322.229 1.772.686.458.451.687 1.025.687 1.722 0 .697-.229 1.274-.687 1.732-.45.451-1.041.676-1.772.676-.725 0-1.32-.225-1.784-.676zm.646-2.91c-.3.3-.451.693-.451 1.178s.147.878.44 1.179c.301.307.684.461 1.148.461.465 0 .844-.15 1.138-.451.3-.308.451-.704.451-1.189 0-.471-.15-.864-.451-1.178-.294-.308-.673-.462-1.138-.462-.464 0-.843.154-1.137.462zm7.742-1.128h1.076l-2.019 2.204L75.42 178h-1.138l-2.08-2.357 1.947-2.255zM72.007 178h-.82v-4.612h.82V178zm4.403-.574c-.451-.465-.676-1.042-.676-1.732 0-.697.225-1.271.676-1.722.458-.457 1.052-.686 1.783-.686.731 0 1.322.229 1.773.686.458.451.687 1.025.687 1.722 0 .697-.23 1.274-.687 1.732-.45.451-1.042.676-1.773.676-.724 0-1.319-.225-1.783-.676zm.646-2.91c-.301.3-.451.693-.451 1.178s.147.878.44 1.179c.301.307.684.461 1.148.461.465 0 .844-.15 1.138-.451.3-.308.45-.704.45-1.189 0-.471-.15-.864-.45-1.178-.294-.308-.673-.462-1.138-.462-.464 0-.844.154-1.137.462zm8.326 2.223l.39.595c-.397.512-.988.768-1.774.768-.738 0-1.336-.218-1.793-.655-.451-.438-.677-1.022-.677-1.753 0-.676.222-1.247.666-1.711.444-.465 1.001-.697 1.67-.697.807 0 1.412.201 1.815.604l-.38.646c-.355-.321-.795-.482-1.321-.482-.43 0-.803.158-1.117.472-.308.307-.462.697-.462 1.168 0 .499.157.895.472 1.189.32.301.717.451 1.189.451.533 0 .973-.198 1.322-.595zm4.42-3.351h1.076l-2.02 2.204L91.073 178h-1.137l-2.08-2.357 1.947-2.255zM87.66 178h-.82v-4.612h.82V178zm4.403-.574c-.451-.465-.677-1.042-.677-1.732 0-.697.226-1.271.677-1.722.457-.457 1.052-.686 1.783-.686.731 0 1.322.229 1.773.686.458.451.687 1.025.687 1.722 0 .697-.23 1.274-.687 1.732-.451.451-1.042.676-1.773.676-.724 0-1.319-.225-1.783-.676zm.645-2.91c-.3.3-.45.693-.45 1.178s.146.878.44 1.179c.3.307.683.461 1.148.461.465 0 .844-.15 1.138-.451.3-.308.45-.704.45-1.189 0-.471-.15-.864-.45-1.178-.294-.308-.673-.462-1.138-.462-.465 0-.844.154-1.138.462zm5.6 5.534h-.82v-6.662h.82v.543c.164-.191.39-.345.677-.461a2.24 2.24 0 01.891-.184c.656 0 1.172.218 1.548.656.389.43.584.99.584 1.68 0 .704-.222 1.295-.666 1.773-.437.472-1.015.707-1.732.707-.553 0-.987-.105-1.302-.317v2.265zm1.333-5.996c-.547 0-.991.212-1.333.636v2.285c.362.239.772.359 1.23.359.485 0 .871-.154 1.158-.461.294-.315.441-.721.441-1.22 0-.485-.133-.871-.4-1.158-.266-.294-.632-.441-1.096-.441zm3.911 3.372c-.451-.465-.676-1.042-.676-1.732 0-.697.225-1.271.676-1.722.458-.457 1.052-.686 1.783-.686.731 0 1.322.229 1.773.686.458.451.687 1.025.687 1.722 0 .697-.229 1.274-.687 1.732-.451.451-1.042.676-1.773.676-.724 0-1.318-.225-1.783-.676zm.646-2.91c-.301.3-.451.693-.451 1.178s.147.878.441 1.179c.3.307.683.461 1.147.461.465 0 .844-.15 1.138-.451.301-.308.451-.704.451-1.189 0-.471-.15-.864-.451-1.178-.294-.308-.673-.462-1.138-.462-.464 0-.843.154-1.137.462zm8.326 2.223l.389.595c-.396.512-.987.768-1.773.768-.738 0-1.335-.218-1.793-.655-.451-.438-.677-1.022-.677-1.753 0-.676.223-1.247.667-1.711.444-.465 1.001-.697 1.67-.697.806 0 1.411.201 1.814.604l-.379.646c-.355-.321-.796-.482-1.322-.482-.431 0-.803.158-1.117.472-.308.307-.461.697-.461 1.168 0 .499.157.895.471 1.189.321.301.717.451 1.189.451.533 0 .973-.198 1.322-.595zm2.505-2.531h-1.691v-.82h4.202v.82h-1.691V178h-.82v-3.792zm7.608 3.792h-.819v-1.947h-2.562V178h-.82v-4.612h.82v1.896h2.562v-1.896h.819V178zm1.852-.574c-.451-.465-.676-1.042-.676-1.732 0-.697.225-1.271.676-1.722.458-.457 1.052-.686 1.783-.686.732 0 1.322.229 1.773.686.458.451.687 1.025.687 1.722 0 .697-.229 1.274-.687 1.732-.451.451-1.041.676-1.773.676-.724 0-1.318-.225-1.783-.676zm.646-2.91c-.301.3-.451.693-.451 1.178s.147.878.441 1.179c.3.307.683.461 1.147.461.465 0 .844-.15 1.138-.451.301-.308.451-.704.451-1.189 0-.471-.15-.864-.451-1.178-.294-.308-.673-.462-1.138-.462-.464 0-.843.154-1.137.462zm8.264.051L130.735 178h-.82v-4.612h.82v3.433l2.664-3.433h.82V178h-.82v-3.433zm-2.828-3.536h.769c.041.54.304.81.789.81.457 0 .707-.27.748-.81h.768c0 .417-.143.762-.43 1.035-.28.267-.642.4-1.086.4-.485 0-.868-.13-1.148-.39-.273-.266-.41-.614-.41-1.045zm7.441 6.969v-4.612h.143c.062-.007.15-.01.267-.01.116-.007.222-.01.317-.01.506-.014.82-.021.943-.021 1.326 0 1.988.397 1.988 1.189 0 .273-.085.509-.256.707a1.08 1.08 0 01-.666.349v.02c.717.13 1.076.492 1.076 1.086 0 .895-.707 1.343-2.121 1.343-.069 0-.369-.007-.902-.021a5.94 5.94 0 01-.338-.01c-.123 0-.219-.003-.287-.01h-.164zm1.803-2.07h-.983v1.414c.491.021.806.031.942.031.786 0 1.179-.246 1.179-.738 0-.471-.379-.707-1.138-.707zm-.071-1.917c-.199 0-.503.011-.912.031v1.373h1.035c.28 0 .505-.064.676-.194a.623.623 0 00.256-.523c0-.458-.352-.687-1.055-.687zm3.578.349l-.215-.656c.457-.28.97-.42 1.537-.42.622 0 1.072.153 1.353.461.28.307.42.782.42 1.424V178h-.779v-.594c-.362.444-.854.666-1.476.666-.423 0-.765-.127-1.025-.379-.259-.26-.389-.609-.389-1.046 0-.451.16-.806.482-1.066.321-.266.741-.399 1.26-.399.485 0 .868.099 1.148.297 0-.519-.072-.892-.215-1.117-.144-.226-.421-.338-.83-.338-.417 0-.841.112-1.271.338zm1.127 2.972c.458 0 .854-.198 1.189-.595v-.584c-.287-.205-.632-.307-1.035-.307-.28 0-.516.068-.707.205a.635.635 0 00-.277.553c0 .226.072.403.215.533.15.13.355.195.615.195zm7.317.666h-.82v-3.792h-1.619l-.051.779a9.958 9.958 0 01-.246 1.588c-.103.417-.239.732-.41.943a1.428 1.428 0 01-.523.431c-.184.075-.41.112-.676.112l-.062-.799a.565.565 0 00.236-.031.803.803 0 00.266-.205c.103-.102.192-.239.267-.41.082-.17.154-.409.215-.717a6.68 6.68 0 00.133-1.076l.082-1.435h3.208V178z" fill="#000"/><path d="M50.552 191.208l.204.384c-.14.144-.33.258-.57.342-.24.084-.492.126-.756.126-.628 0-1.142-.196-1.542-.588-.392-.4-.588-.924-.588-1.572 0-.624.188-1.138.564-1.542.376-.412.886-.618 1.53-.618.532 0 .958.136 1.278.408l-.234.384c-.28-.208-.626-.312-1.038-.312-.456 0-.83.156-1.122.468-.292.308-.438.712-.438 1.212s.15.906.45 1.218c.308.308.704.462 1.188.462.408 0 .766-.124 1.074-.372zm.87.456a1.399 1.399 0 01-.397-1.014c0-.408.132-.744.396-1.008.268-.268.616-.402 1.044-.402.428 0 .774.134 1.038.402.268.264.402.6.402 1.008 0 .408-.134.746-.402 1.014-.264.264-.61.396-1.038.396-.424 0-.772-.132-1.044-.396zm.377-1.704c-.176.176-.264.406-.264.69 0 .284.086.514.258.69a.9.9 0 00.672.27.89.89 0 00.666-.264.954.954 0 00.264-.696.959.959 0 00-.264-.69.88.88 0 00-.666-.27.88.88 0 00-.666.27zm4.929 1.368l.15.378c-.26.236-.598.354-1.014.354-.44 0-.79-.128-1.05-.384-.264-.256-.396-.598-.396-1.026 0-.404.124-.74.372-1.008.244-.268.584-.402 1.02-.402.36 0 .658.116.894.348.24.228.36.524.36.888 0 .116-.01.224-.03.324h-2.076c.02.252.114.45.282.594.172.144.392.216.66.216.352 0 .628-.094.828-.282zm-.942-1.638a.879.879 0 00-.588.198.802.802 0 00-.27.522h1.638c-.012-.224-.088-.4-.228-.528-.136-.128-.32-.192-.552-.192zm1.902 2.97h-.45v-1.11h.336c.1-.124.188-.324.264-.6.076-.28.126-.592.15-.936l.042-.714h1.842v2.25h.45v1.11h-.45V192h-2.184v.66zm.792-2.91l-.03.45c-.024.3-.072.574-.144.822s-.146.424-.222.528h1.308v-1.8h-.912zm4.404.24l-1.56 2.01h-.48v-2.7h.48v2.01l1.56-2.01h.48v2.7h-.48v-2.01zm3.813 2.01h-.48v-1.14h-1.5V192h-.48v-2.7h.48v1.11h1.5v-1.11h.48v2.7zm2.998-.672l.15.378c-.26.236-.598.354-1.014.354-.44 0-.79-.128-1.05-.384-.264-.256-.396-.598-.396-1.026 0-.404.124-.74.372-1.008.244-.268.584-.402 1.02-.402.36 0 .658.116.894.348.24.228.36.524.36.888 0 .116-.01.224-.03.324h-2.076c.02.252.114.45.282.594.172.144.392.216.66.216.352 0 .628-.094.828-.282zm-.942-1.638a.879.879 0 00-.588.198.802.802 0 00-.27.522h1.638c-.012-.224-.088-.4-.228-.528-.136-.128-.32-.192-.552-.192zm4.389 2.31h-.48v-1.14h-1.5V192h-.48v-2.7h.48v1.11h1.5v-1.11h.48v2.7zm4.292-.738l.228.348c-.232.3-.578.45-1.038.45-.432 0-.782-.128-1.05-.384-.264-.256-.396-.598-.396-1.026 0-.396.13-.73.39-1.002s.586-.408.978-.408c.472 0 .826.118 1.062.354l-.222.378a1.111 1.111 0 00-.774-.282.894.894 0 00-.654.276.927.927 0 00-.27.684c0 .292.092.524.276.696a.98.98 0 00.696.264c.312 0 .57-.116.774-.348zm3.953-.438h-1.332v-.39h1.326a.813.813 0 00-.306-.552c-.164-.128-.374-.192-.63-.192-.332 0-.608.098-.828.294l-.204-.36c.116-.116.27-.208.462-.276a1.6 1.6 0 01.564-.108c.432 0 .778.128 1.038.384.268.256.402.598.402 1.026 0 .396-.13.73-.39 1.002s-.586.408-.978.408c-.488 0-.85-.114-1.086-.342l.228-.354c.184.164.46.246.828.246.252 0 .458-.068.618-.204a.893.893 0 00.288-.582zM84.793 192h-.48v-2.22h-.948l-.03.456c-.032.372-.08.682-.144.93-.06.244-.14.428-.24.552a.837.837 0 01-.306.252c-.108.044-.24.066-.396.066l-.036-.468a.337.337 0 00.138-.018.48.48 0 00.156-.12c.06-.06.112-.14.156-.24.048-.1.09-.24.126-.42.04-.184.066-.394.078-.63l.048-.84h1.878v2.7zm2.996-.672l.15.378c-.26.236-.598.354-1.014.354-.44 0-.79-.128-1.05-.384-.264-.256-.396-.598-.396-1.026 0-.404.124-.74.372-1.008.244-.268.584-.402 1.02-.402.36 0 .658.116.894.348.24.228.36.524.36.888 0 .116-.01.224-.03.324h-2.076c.02.252.114.45.282.594.172.144.392.216.66.216.352 0 .628-.094.828-.282zm-.942-1.638a.879.879 0 00-.588.198.802.802 0 00-.27.522h1.638c-.012-.224-.088-.4-.228-.528-.136-.128-.32-.192-.552-.192zm3.663-.39h.63l-1.182 1.29 1.296 1.41h-.666l-1.218-1.38 1.14-1.32zm-1.254 2.7h-.48v-2.7h.48v2.7zm3.156-2.22h-.99v-.48h2.46v.48h-.99V192h-.48v-2.22zm2.475 3.42h-.48v-3.9h.48v.318c.096-.112.228-.202.396-.27.168-.072.342-.108.522-.108.384 0 .686.128.906.384.228.252.342.58.342.984 0 .412-.13.758-.39 1.038-.256.276-.594.414-1.014.414-.324 0-.578-.062-.762-.186v1.326zm.78-3.51c-.32 0-.58.124-.78.372v1.338c.212.14.452.21.72.21.284 0 .51-.09.678-.27.172-.184.258-.422.258-.714 0-.284-.078-.51-.234-.678-.156-.172-.37-.258-.642-.258zm2.29 1.974a1.399 1.399 0 01-.396-1.014c0-.408.132-.744.396-1.008.268-.268.616-.402 1.044-.402.428 0 .774.134 1.038.402.268.264.402.6.402 1.008 0 .408-.134.746-.402 1.014-.264.264-.61.396-1.038.396-.424 0-.772-.132-1.044-.396zm.378-1.704c-.176.176-.264.406-.264.69 0 .284.086.514.258.69a.9.9 0 00.672.27.89.89 0 00.666-.264.954.954 0 00.264-.696.959.959 0 00-.264-.69.88.88 0 00-.666-.27.88.88 0 00-.666.27zm3.278 2.04h-.48v-2.7h1.71v.45h-1.23V192zm3.736-.672l.15.378c-.26.236-.598.354-1.014.354-.44 0-.79-.128-1.05-.384-.264-.256-.396-.598-.396-1.026 0-.404.124-.74.372-1.008.244-.268.584-.402 1.02-.402.36 0 .658.116.894.348.24.228.36.524.36.888 0 .116-.01.224-.03.324h-2.076c.02.252.114.45.282.594.172.144.392.216.66.216.352 0 .628-.094.828-.282zm-.942-1.638a.879.879 0 00-.588.198.802.802 0 00-.27.522h1.638c-.012-.224-.088-.4-.228-.528-.136-.128-.32-.192-.552-.192zm4.389 2.31h-.48v-1.14h-1.5V192h-.48v-2.7h.48v1.11h1.5v-1.11h.48v2.7zm2.998-.672l.15.378c-.26.236-.598.354-1.014.354-.44 0-.79-.128-1.05-.384-.264-.256-.396-.598-.396-1.026 0-.404.124-.74.372-1.008.244-.268.584-.402 1.02-.402.36 0 .658.116.894.348.24.228.36.524.36.888 0 .116-.01.224-.03.324h-2.076c.02.252.114.45.282.594.172.144.392.216.66.216.352 0 .628-.094.828-.282zm-.942-1.638a.879.879 0 00-.588.198.802.802 0 00-.27.522h1.638c-.012-.224-.088-.4-.228-.528-.136-.128-.32-.192-.552-.192zm2.41 3.51h-.48v-3.9h.48v.318c.096-.112.228-.202.396-.27.168-.072.342-.108.522-.108.384 0 .686.128.906.384.228.252.342.58.342.984 0 .412-.13.758-.39 1.038-.256.276-.594.414-1.014.414-.324 0-.578-.062-.762-.186v1.326zm.78-3.51c-.32 0-.58.124-.78.372v1.338c.212.14.452.21.72.21.284 0 .51-.09.678-.27.172-.184.258-.422.258-.714 0-.284-.078-.51-.234-.678-.156-.172-.37-.258-.642-.258zm2.218.18l-.126-.384a1.69 1.69 0 01.9-.246c.364 0 .628.09.792.27.164.18.246.458.246.834V192h-.456v-.348c-.212.26-.5.39-.864.39-.248 0-.448-.074-.6-.222-.152-.152-.228-.356-.228-.612a.76.76 0 01.282-.624c.188-.156.434-.234.738-.234.284 0 .508.058.672.174 0-.304-.042-.522-.126-.654-.084-.132-.246-.198-.486-.198-.244 0-.492.066-.744.198zm.66 1.74c.268 0 .5-.116.696-.348v-.342c-.168-.12-.37-.18-.606-.18a.694.694 0 00-.414.12.373.373 0 00-.162.324.4.4 0 00.126.312.532.532 0 00.36.114zm2.603-1.83h-.99v-.48h2.46v.48h-.99V192h-.48v-2.22zm2.123 1.884a1.399 1.399 0 01-.396-1.014c0-.408.132-.744.396-1.008.268-.268.616-.402 1.044-.402.428 0 .774.134 1.038.402.268.264.402.6.402 1.008 0 .408-.134.746-.402 1.014-.264.264-.61.396-1.038.396-.424 0-.772-.132-1.044-.396zm.378-1.704c-.176.176-.264.406-.264.69 0 .284.086.514.258.69a.9.9 0 00.672.27.89.89 0 00.666-.264.954.954 0 00.264-.696.959.959 0 00-.264-.69.88.88 0 00-.666-.27.88.88 0 00-.666.27zm3.279 3.24h-.48v-3.9h.48v.318c.096-.112.228-.202.396-.27.168-.072.342-.108.522-.108.384 0 .686.128.906.384.228.252.342.58.342.984 0 .412-.13.758-.39 1.038-.256.276-.594.414-1.014.414-.324 0-.578-.062-.762-.186v1.326zm.78-3.51c-.32 0-.58.124-.78.372v1.338c.212.14.452.21.72.21.284 0 .51-.09.678-.27.172-.184.258-.422.258-.714 0-.284-.078-.51-.234-.678-.156-.172-.37-.258-.642-.258zm2.29 1.974a1.399 1.399 0 01-.396-1.014c0-.408.132-.744.396-1.008.268-.268.616-.402 1.044-.402.428 0 .774.134 1.038.402.268.264.402.6.402 1.008 0 .408-.134.746-.402 1.014-.264.264-.61.396-1.038.396-.424 0-.772-.132-1.044-.396zm.378-1.704c-.176.176-.264.406-.264.69 0 .284.086.514.258.69a.9.9 0 00.672.27.89.89 0 00.666-.264.954.954 0 00.264-.696.959.959 0 00-.264-.69.88.88 0 00-.666-.27.88.88 0 00-.666.27zm3.278 2.04h-.48v-2.7h.438l1.038 1.338.984-1.338h.426v2.7h-.48v-1.968l-.936 1.254h-.018l-.972-1.254V192zm3.144-.324c0-.084.032-.158.096-.222a.346.346 0 01.246-.096c.084 0 .158.032.222.096a.305.305 0 01.096.222c0 .096-.03.178-.09.246a.299.299 0 01-.228.096.346.346 0 01-.246-.096.346.346 0 01-.096-.246z" fill="#848484"/><path d="M31.31 175.73l-1.26-1.95 5.04-3.9h1.68V191h-2.4v-17.67l-3.06 2.4z" fill="#D9D9D9"/><path d="M159.126 190.784a.25.25 0 10-.252.432l.252-.432zm77.722 45.545a1.333 1.333 0 102.303 1.342 1.333 1.333 0 00-2.303-1.342zm-77.974-45.113l79 46 .252-.432-79-46-.252.432z" fill="#525252"/></g></svg>