<svg width="390" height="570" fill="none" xmlns="http://www.w3.org/2000/svg"><mask id="a" style="mask-type:alpha" maskUnits="userSpaceOnUse" x="0" y="0" width="390" height="570"><path fill="#D9D9D9" d="M0 0h390v570H0z"/></mask><g mask="url(#a)"><path fill="#C1C1C1" fill-opacity=".8" d="M225 344h145v63H225z"/><path fill="#fff" d="M221 340h145v63H221z"/><path stroke="#525252" stroke-width=".512" d="M217.256 336.256h144.488v62.488H217.256z"/><path d="M252.947 356.243V359h-.871v-7.174c.287 0 .591-.003.912-.01.321-.007.642-.01.964-.01.942 0 1.619.211 2.029.635.416.417.625.946.625 1.589 0 .621-.226 1.154-.677 1.598-.437.438-1.072.656-1.906.656-.437 0-.796-.013-1.076-.041zm1.087-3.617c-.123 0-.486.006-1.087.02v2.767c.431.034.779.051 1.046.051.526 0 .939-.126 1.24-.379.3-.26.451-.615.451-1.066 0-.444-.141-.785-.421-1.025-.273-.246-.683-.368-1.229-.368zm6.887 5.226l.256.646c-.444.403-1.022.604-1.732.604-.752 0-1.35-.218-1.794-.655-.451-.438-.676-1.022-.676-1.753 0-.69.212-1.264.635-1.722.417-.457.998-.686 1.743-.686.614 0 1.123.198 1.527.594.41.39.614.895.614 1.517 0 .198-.017.383-.051.553h-3.546c.034.431.195.769.482 1.015.294.246.67.369 1.127.369.602 0 1.073-.161 1.415-.482zm-1.609-2.798c-.404 0-.738.113-1.005.339a1.37 1.37 0 00-.461.891h2.798c-.021-.382-.15-.683-.39-.902-.232-.218-.546-.328-.942-.328zm3.248 5.073h-.769v-1.896h.574c.171-.211.321-.553.451-1.024.13-.479.215-1.012.256-1.599l.072-1.22h3.146v3.843h.769v1.896h-.769V359h-3.73v1.127zm1.353-4.97l-.052.768a7.063 7.063 0 01-.246 1.405c-.123.423-.249.724-.379.901h2.234v-3.074h-1.557zm7.297-.769h.933L270.298 359c-.335.813-.625 1.353-.871 1.619-.26.287-.557.431-.892.431-.3 0-.591-.096-.871-.287l.267-.625c.218.102.389.153.512.153.191 0 .362-.082.512-.246.158-.164.315-.43.472-.799l.102-.246-2.213-4.612h.984l1.352 2.931c.028.048.12.28.277.697.062-.225.133-.461.215-.707l1.066-2.921zm4.737 0h1.076l-2.019 2.204 2.214 2.408h-1.138l-2.08-2.357 1.947-2.255zM273.805 359h-.82v-4.612h.82V359zm5.391-3.792h-1.691v-.82h4.202v.82h-1.691V359h-.82v-3.792zm3.626 3.218c-.451-.465-.676-1.042-.676-1.732 0-.697.225-1.271.676-1.722.458-.457 1.052-.686 1.783-.686.731 0 1.322.229 1.773.686.458.451.687 1.025.687 1.722 0 .697-.229 1.274-.687 1.732-.451.451-1.042.676-1.773.676-.724 0-1.318-.225-1.783-.676zm.646-2.91c-.301.3-.451.693-.451 1.178s.147.878.44 1.179c.301.307.684.461 1.148.461.465 0 .844-.15 1.138-.451.3-.308.451-.704.451-1.189 0-.471-.151-.864-.451-1.178-.294-.308-.673-.462-1.138-.462-.464 0-.844.154-1.137.462zm5.6 5.534h-.82v-6.662h.82v.543a1.72 1.72 0 01.676-.461 2.24 2.24 0 01.892-.184c.655 0 1.171.218 1.547.656.39.43.584.99.584 1.68 0 .704-.222 1.295-.666 1.773-.437.472-1.014.707-1.732.707-.553 0-.987-.105-1.301-.317v2.265zm1.332-5.996c-.547 0-.991.212-1.332.636v2.285c.362.239.772.359 1.229.359.485 0 .872-.154 1.158-.461.294-.315.441-.721.441-1.22 0-.485-.133-.871-.4-1.158-.266-.294-.632-.441-1.096-.441z" fill="#000"/><path d="M254.552 371.993l.204.384c-.14.144-.33.258-.57.342-.24.084-.492.126-.756.126-.628 0-1.142-.196-1.542-.588-.392-.4-.588-.924-.588-1.572 0-.624.188-1.138.564-1.542.376-.412.886-.618 1.53-.618.532 0 .958.136 1.278.408l-.234.384c-.28-.208-.626-.312-1.038-.312-.456 0-.83.156-1.122.468-.292.308-.438.712-.438 1.212s.15.906.45 1.218c.308.308.704.462 1.188.462.408 0 .766-.124 1.074-.372zm3.063.792h-.48v-2.22h-.948l-.03.456c-.032.372-.08.682-.144.93-.06.244-.14.428-.24.552a.837.837 0 01-.306.252c-.108.044-.24.066-.396.066l-.036-.468a.337.337 0 00.138-.018.48.48 0 00.156-.12c.06-.06.112-.14.156-.24.048-.1.09-.24.126-.42.04-.184.066-.394.078-.63l.048-.84h1.878v2.7zm1.082-.336a1.399 1.399 0 01-.396-1.014c0-.408.132-.744.396-1.008.268-.268.616-.402 1.044-.402.428 0 .774.134 1.038.402.268.264.402.6.402 1.008 0 .408-.134.746-.402 1.014-.264.264-.61.396-1.038.396-.424 0-.772-.132-1.044-.396zm.378-1.704c-.176.176-.264.406-.264.69 0 .284.086.514.258.69a.9.9 0 00.672.27.89.89 0 00.666-.264.954.954 0 00.264-.696.959.959 0 00-.264-.69.88.88 0 00-.666-.27.88.88 0 00-.666.27zm5.538-.66h.594l-.978 1.302 1.05 1.398h-.594l-1.002-1.398.93-1.302zm-1.05 2.7h-.48v-2.7h.48v2.7zm-2.178 0l1.032-1.398-.978-1.302h.6l.924 1.302-.99 1.398h-.588zm6.874 0h-.48v-1.14h-1.5v1.14h-.48v-2.7h.48v1.11h1.5v-1.11h.48v2.7zm1.738 0h-.87v-2.7h.48v.81h.444c.368 0 .638.084.81.252.172.164.258.39.258.678 0 .272-.09.5-.27.684-.172.184-.456.276-.852.276zm2.118 0h-.48v-2.7h.48v2.7zm-2.154-1.44h-.354v.99h.348c.228 0 .394-.04.498-.12.104-.08.156-.204.156-.372 0-.332-.216-.498-.648-.498zm5.056-.57l-1.56 2.01h-.48v-2.7h.48v2.01l1.56-2.01h.48v2.7h-.48v-2.01zm-1.656-2.07h.45c.024.316.178.474.462.474.268 0 .414-.158.438-.474h.45a.801.801 0 01-.252.606.885.885 0 01-.636.234c-.284 0-.508-.076-.672-.228a.816.816 0 01-.24-.612zm6.786 4.08h-.48v-2.25h-1.47v2.25h-.48v-2.7h2.43v2.7zm2.999-.672l.15.378c-.26.236-.598.354-1.014.354-.44 0-.79-.128-1.05-.384-.264-.256-.396-.598-.396-1.026 0-.404.124-.74.372-1.008.244-.268.584-.402 1.02-.402.36 0 .658.116.894.348.24.228.36.524.36.888 0 .116-.01.224-.03.324h-2.076c.02.252.114.45.282.594.172.144.392.216.66.216.352 0 .628-.094.828-.282zm-.942-1.638a.879.879 0 00-.588.198.802.802 0 00-.27.522h1.638c-.012-.224-.088-.4-.228-.528-.136-.128-.32-.192-.552-.192zm2.409 3.51h-.48v-3.9h.48v.318c.096-.112.228-.202.396-.27.168-.072.342-.108.522-.108.384 0 .686.128.906.384.228.252.342.58.342.984 0 .412-.13.758-.39 1.038-.256.276-.594.414-1.014.414-.324 0-.578-.062-.762-.186v1.326zm.78-3.51c-.32 0-.58.124-.78.372v1.338c.212.14.452.21.72.21.284 0 .51-.09.678-.27.172-.184.258-.422.258-.714 0-.284-.078-.51-.234-.678-.156-.172-.37-.258-.642-.258zm4.204 1.638l.15.378c-.26.236-.598.354-1.014.354-.44 0-.79-.128-1.05-.384-.264-.256-.396-.598-.396-1.026 0-.404.124-.74.372-1.008.244-.268.584-.402 1.02-.402.36 0 .658.116.894.348.24.228.36.524.36.888 0 .116-.01.224-.03.324h-2.076c.02.252.114.45.282.594.172.144.392.216.66.216.352 0 .628-.094.828-.282zm-.942-1.638a.879.879 0 00-.588.198.802.802 0 00-.27.522h1.638c-.012-.224-.088-.4-.228-.528-.136-.128-.32-.192-.552-.192zm1.902 2.97h-.45v-1.11h.336c.1-.124.188-.324.264-.6.076-.28.126-.592.15-.936l.042-.714h1.842v2.25h.45v1.11h-.45v-.66h-2.184v.66zm.792-2.91l-.03.45c-.024.3-.072.574-.144.822s-.146.424-.222.528h1.308v-1.8h-.912zm2.508.12l-.126-.384a1.69 1.69 0 01.9-.246c.364 0 .628.09.792.27.164.18.246.458.246.834v1.656h-.456v-.348c-.212.26-.5.39-.864.39-.248 0-.448-.074-.6-.222-.152-.152-.228-.356-.228-.612a.76.76 0 01.282-.624c.188-.156.434-.234.738-.234.284 0 .508.058.672.174 0-.304-.042-.522-.126-.654-.084-.132-.246-.198-.486-.198-.244 0-.492.066-.744.198zm.66 1.74c.268 0 .5-.116.696-.348v-.342c-.168-.12-.37-.18-.606-.18a.694.694 0 00-.414.12.373.373 0 00-.162.324.4.4 0 00.126.312.532.532 0 00.36.114zm2.604-1.83h-.99v-.48h2.46v.48h-.99v2.22h-.48v-2.22zm2.123 1.884a1.399 1.399 0 01-.396-1.014c0-.408.132-.744.396-1.008.268-.268.616-.402 1.044-.402.428 0 .774.134 1.038.402.268.264.402.6.402 1.008 0 .408-.134.746-.402 1.014-.264.264-.61.396-1.038.396-.424 0-.772-.132-1.044-.396zm.378-1.704c-.176.176-.264.406-.264.69 0 .284.086.514.258.69a.9.9 0 00.672.27.89.89 0 00.666-.264.954.954 0 00.264-.696.959.959 0 00-.264-.69.88.88 0 00-.666-.27.88.88 0 00-.666.27zm4.346-.66h.48v2.7h-.48v-1.05a1.37 1.37 0 01-.75.198c-.64 0-.96-.344-.96-1.032v-.816h.51v.762c0 .424.194.636.582.636.252 0 .458-.056.618-.168v-1.23zm3.807 2.7h-.48v-1.14h-1.5v1.14h-.48v-2.7h.48v1.11h1.5v-1.11h.48v2.7zm1.738 0h-.87v-2.7h.48v.81h.444c.368 0 .638.084.81.252.172.164.258.39.258.678 0 .272-.09.5-.27.684-.172.184-.456.276-.852.276zm2.118 0h-.48v-2.7h.48v2.7zm-2.154-1.44h-.354v.99h.348c.228 0 .394-.04.498-.12.104-.08.156-.204.156-.372 0-.332-.216-.498-.648-.498zm5.056-.57l-1.56 2.01h-.48v-2.7h.48v2.01l1.56-2.01h.48v2.7h-.48v-2.01zm-1.656-2.07h.45c.024.316.178.474.462.474.268 0 .414-.158.438-.474h.45a.801.801 0 01-.252.606.885.885 0 01-.636.234c-.284 0-.508-.076-.672-.228a.816.816 0 01-.24-.612zm4.836 4.08h-.48v-2.7h.438l1.038 1.338.984-1.338h.426v2.7h-.48v-1.968l-.936 1.254h-.018l-.972-1.254v1.968zm5.406-.672l.15.378c-.26.236-.598.354-1.014.354-.44 0-.79-.128-1.05-.384-.264-.256-.396-.598-.396-1.026 0-.404.124-.74.372-1.008.244-.268.584-.402 1.02-.402.36 0 .658.116.894.348.24.228.36.524.36.888 0 .116-.01.224-.03.324h-2.076c.02.252.114.45.282.594.172.144.392.216.66.216.352 0 .628-.094.828-.282zm-.942-1.638a.879.879 0 00-.588.198.802.802 0 00-.27.522h1.638c-.012-.224-.088-.4-.228-.528-.136-.128-.32-.192-.552-.192zm3.642-.39h.558l-.966 1.302 1.026 1.398h-.588l-.792-1.092-.804 1.092h-.558l1.02-1.374-.96-1.326h.588l.732 1.02.744-1.02zm1.343.57l-.126-.384a1.69 1.69 0 01.9-.246c.364 0 .628.09.792.27.164.18.246.458.246.834v1.656h-.456v-.348c-.212.26-.5.39-.864.39-.248 0-.448-.074-.6-.222-.152-.152-.228-.356-.228-.612a.76.76 0 01.282-.624c.188-.156.434-.234.738-.234.284 0 .508.058.672.174 0-.304-.042-.522-.126-.654-.084-.132-.246-.198-.486-.198-.244 0-.492.066-.744.198zm.66 1.74c.268 0 .5-.116.696-.348v-.342c-.168-.12-.37-.18-.606-.18a.694.694 0 00-.414.12.373.373 0 00-.162.324.4.4 0 00.126.312.532.532 0 00.36.114zm4.416.39h-.48v-1.14h-1.5v1.14h-.48v-2.7h.48v1.11h1.5v-1.11h.48v2.7zm2.908-2.01l-1.56 2.01h-.48v-2.7h.48v2.01l1.56-2.01h.48v2.7h-.48v-2.01zm2.246 2.07a2.27 2.27 0 01-.648-.102c-.22-.072-.376-.16-.468-.264l.246-.36c.108.088.236.16.384.216.152.052.29.078.414.078.208 0 .378-.04.51-.12.132-.084.198-.192.198-.324a.287.287 0 00-.144-.258.7.7 0 00-.384-.09h-.456v-.39h.426a.513.513 0 00.336-.108.352.352 0 00.132-.276.32.32 0 00-.156-.282.726.726 0 00-.42-.108c-.284 0-.554.1-.81.3l-.186-.372c.108-.112.258-.2.45-.264.196-.064.402-.096.618-.096.32 0 .568.064.744.192.18.128.27.306.27.534 0 .312-.158.524-.474.636v.012c.176.02.314.09.414.21.1.116.15.258.15.426a.69.69 0 01-.318.594c-.208.144-.484.216-.828.216zm2.358-.06h-.48v-2.7h.438l1.038 1.338.984-1.338h.426v2.7h-.48v-1.968l-.936 1.254h-.018l-.972-1.254v1.968zm3.168-.276c0-.096.03-.172.09-.228a.34.34 0 01.252-.09c.128 0 .232.054.312.162.08.104.12.244.12.42 0 .216-.06.402-.18.558a.88.88 0 01-.48.33l-.132-.228a.525.525 0 00.384-.402c.028-.136.026-.236-.006-.3-.024.036-.068.054-.132.054a.216.216 0 01-.162-.078.311.311 0 01-.066-.198zm-89.752 5.576h.63l-1.182 1.29 1.296 1.41h-.666l-1.218-1.38 1.14-1.32zm-1.254 2.7h-.48v-2.7h.48v2.7zm2.578-.336a1.399 1.399 0 01-.396-1.014c0-.408.132-.744.396-1.008.268-.268.616-.402 1.044-.402.428 0 .774.134 1.038.402.268.264.402.6.402 1.008 0 .408-.134.746-.402 1.014-.264.264-.61.396-1.038.396-.424 0-.772-.132-1.044-.396zm.378-1.704c-.176.176-.264.406-.264.69 0 .284.086.514.258.69a.9.9 0 00.672.27.89.89 0 00.666-.264.954.954 0 00.264-.696.959.959 0 00-.264-.69.88.88 0 00-.666-.27.88.88 0 00-.666.27zm3.341-.18h-.99v-.48h2.46v.48h-.99v2.22h-.48v-2.22zm2.123 1.884a1.399 1.399 0 01-.396-1.014c0-.408.132-.744.396-1.008.268-.268.616-.402 1.044-.402.428 0 .774.134 1.038.402.268.264.402.6.402 1.008 0 .408-.134.746-.402 1.014-.264.264-.61.396-1.038.396-.424 0-.772-.132-1.044-.396zm.378-1.704c-.176.176-.264.406-.264.69 0 .284.086.514.258.69a.9.9 0 00.672.27.89.89 0 00.666-.264.954.954 0 00.264-.696.959.959 0 00-.264-.69.88.88 0 00-.666-.27.88.88 0 00-.666.27zm3.278 3.24h-.48v-3.9h.48v.318c.096-.112.228-.202.396-.27.168-.072.342-.108.522-.108.384 0 .686.128.906.384.228.252.342.58.342.984 0 .412-.13.758-.39 1.038-.256.276-.594.414-1.014.414-.324 0-.578-.062-.762-.186v1.326zm.78-3.51c-.32 0-.58.124-.78.372v1.338c.212.14.452.21.72.21.284 0 .51-.09.678-.27.172-.184.258-.422.258-.714 0-.284-.078-.51-.234-.678-.156-.172-.37-.258-.642-.258zm2.944 2.31h-.87v-2.7h.48v.81h.444c.368 0 .638.084.81.252.172.164.258.39.258.678 0 .272-.09.5-.27.684-.172.184-.456.276-.852.276zm2.118 0h-.48v-2.7h.48v2.7zm-2.154-1.44h-.354v.99h.348c.228 0 .394-.04.498-.12.104-.08.156-.204.156-.372 0-.332-.216-.498-.648-.498zm5.056-.57l-1.56 2.01h-.48v-2.7h.48v2.01l1.56-2.01h.48v2.7h-.48v-2.01zm-1.656-2.07h.45c.024.316.178.474.462.474.268 0 .414-.158.438-.474h.45a.801.801 0 01-.252.606.885.885 0 01-.636.234c-.284 0-.508-.076-.672-.228a.816.816 0 01-.24-.612zm6.786 4.08h-.48v-2.25h-1.47v2.25h-.48v-2.7h2.43v2.7zm1.085-.336a1.399 1.399 0 01-.396-1.014c0-.408.132-.744.396-1.008.268-.268.616-.402 1.044-.402.428 0 .774.134 1.038.402.268.264.402.6.402 1.008 0 .408-.134.746-.402 1.014-.264.264-.61.396-1.038.396-.424 0-.772-.132-1.044-.396zm.378-1.704c-.176.176-.264.406-.264.69 0 .284.086.514.258.69a.9.9 0 00.672.27.89.89 0 00.666-.264.954.954 0 00.264-.696.959.959 0 00-.264-.69.88.88 0 00-.666-.27.88.88 0 00-.666.27zm2.798 2.04v-2.7h.084c.036-.004.088-.006.156-.006a29.46 29.46 0 01.738-.018c.776 0 1.164.232 1.164.696 0 .16-.05.298-.15.414a.63.63 0 01-.39.204v.012c.42.076.63.288.63.636 0 .524-.414.786-1.242.786a43.513 43.513 0 01-.894-.024h-.096zm1.056-1.212h-.576v.828c.288.012.472.018.552.018.46 0 .69-.144.69-.432 0-.276-.222-.414-.666-.414zm-.042-1.122c-.116 0-.294.006-.534.018v.804h.606a.638.638 0 00.396-.114c.1-.076.15-.178.15-.306 0-.268-.206-.402-.618-.402zm2.821 2.334h-.87v-2.7h.48v.81h.444c.368 0 .638.084.81.252.172.164.258.39.258.678 0 .272-.09.5-.27.684-.172.184-.456.276-.852.276zm2.118 0h-.48v-2.7h.48v2.7zm-2.154-1.44h-.354v.99h.348c.228 0 .394-.04.498-.12.104-.08.156-.204.156-.372 0-.332-.216-.498-.648-.498zm6.436 1.44h-3.42v-2.7h.48v2.25h.99v-2.25h.48v2.25h.99v-2.25h.48v2.7zm1.013-2.13l-.126-.384a1.69 1.69 0 01.9-.246c.364 0 .628.09.792.27.164.18.246.458.246.834v1.656h-.456v-.348c-.212.26-.5.39-.864.39-.248 0-.448-.074-.6-.222-.152-.152-.228-.356-.228-.612a.76.76 0 01.282-.624c.188-.156.434-.234.738-.234.284 0 .508.058.672.174 0-.304-.042-.522-.126-.654-.084-.132-.246-.198-.486-.198-.244 0-.492.066-.744.198zm.66 1.74c.268 0 .5-.116.696-.348v-.342c-.168-.12-.37-.18-.606-.18a.694.694 0 00-.414.12.373.373 0 00-.162.324.4.4 0 00.126.312.532.532 0 00.36.114zm4.086-.282l.15.378c-.26.236-.598.354-1.014.354-.44 0-.79-.128-1.05-.384-.264-.256-.396-.598-.396-1.026 0-.404.124-.74.372-1.008.244-.268.584-.402 1.02-.402.36 0 .658.116.894.348.24.228.36.524.36.888 0 .116-.01.224-.03.324h-2.076c.02.252.114.45.282.594.172.144.392.216.66.216.352 0 .628-.094.828-.282zm-.942-1.638a.879.879 0 00-.588.198.802.802 0 00-.27.522h1.638c-.012-.224-.088-.4-.228-.528-.136-.128-.32-.192-.552-.192zm2.524.09h-.99v-.48h2.46v.48h-.99v2.22h-.48v-2.22zm5.418 1.482l.228.348c-.232.3-.578.45-1.038.45-.432 0-.782-.128-1.05-.384-.264-.256-.396-.598-.396-1.026 0-.396.13-.73.39-1.002s.586-.408.978-.408c.472 0 .826.118 1.062.354l-.222.378a1.111 1.111 0 00-.774-.282.894.894 0 00-.654.276.927.927 0 00-.27.684c0 .292.092.524.276.696a.98.98 0 00.696.264c.312 0 .57-.116.774-.348zm2.588-1.962h.63l-1.182 1.29 1.296 1.41h-.666l-1.218-1.38 1.14-1.32zm-1.254 2.7h-.48v-2.7h.48v2.7zm2.578-.336a1.399 1.399 0 01-.396-1.014c0-.408.132-.744.396-1.008.268-.268.616-.402 1.044-.402.428 0 .774.134 1.038.402.268.264.402.6.402 1.008 0 .408-.134.746-.402 1.014-.264.264-.61.396-1.038.396-.424 0-.772-.132-1.044-.396zm.378-1.704c-.176.176-.264.406-.264.69 0 .284.086.514.258.69a.9.9 0 00.672.27.89.89 0 00.666-.264.954.954 0 00.264-.696.959.959 0 00-.264-.69.88.88 0 00-.666-.27.88.88 0 00-.666.27zm3.278 3.24h-.48v-3.9h.48v.318c.096-.112.228-.202.396-.27.168-.072.342-.108.522-.108.384 0 .686.128.906.384.228.252.342.58.342.984 0 .412-.13.758-.39 1.038-.256.276-.594.414-1.014.414-.324 0-.578-.062-.762-.186v1.326zm.78-3.51c-.32 0-.58.124-.78.372v1.338c.212.14.452.21.72.21.284 0 .51-.09.678-.27.172-.184.258-.422.258-.714 0-.284-.078-.51-.234-.678-.156-.172-.37-.258-.642-.258zm2.29 1.974a1.399 1.399 0 01-.396-1.014c0-.408.132-.744.396-1.008.268-.268.616-.402 1.044-.402.428 0 .774.134 1.038.402.268.264.402.6.402 1.008 0 .408-.134.746-.402 1.014-.264.264-.61.396-1.038.396-.424 0-.772-.132-1.044-.396zm.378-1.704c-.176.176-.264.406-.264.69 0 .284.086.514.258.69a.9.9 0 00.672.27.89.89 0 00.666-.264.954.954 0 00.264-.696.959.959 0 00-.264-.69.88.88 0 00-.666-.27.88.88 0 00-.666.27zm4.875 1.302l.228.348c-.232.3-.578.45-1.038.45-.432 0-.782-.128-1.05-.384-.264-.256-.396-.598-.396-1.026 0-.396.13-.73.39-1.002s.586-.408.978-.408c.472 0 .826.118 1.062.354l-.222.378a1.111 1.111 0 00-.774-.282.894.894 0 00-.654.276.927.927 0 00-.27.684c0 .292.092.524.276.696a.98.98 0 00.696.264c.312 0 .57-.116.774-.348zm1.467-1.482h-.99v-.48h2.46v.48h-.99v2.22h-.48v-2.22zm2.906 2.22h-.912v-2.7h.48v.81h.492c.368 0 .638.084.81.252.172.164.258.39.258.678 0 .272-.09.5-.27.684-.18.184-.466.276-.858.276zm-.03-1.44h-.402v.99h.396c.436 0 .654-.164.654-.492 0-.332-.216-.498-.648-.498zm-73.919 9.44v-2.7h.084c.036-.004.088-.006.156-.006a29.46 29.46 0 01.738-.018c.776 0 1.164.232 1.164.696 0 .16-.05.298-.15.414a.63.63 0 01-.39.204v.012c.42.076.63.288.63.636 0 .524-.414.786-1.242.786a43.513 43.513 0 01-.894-.024h-.096zm1.056-1.212h-.576v.828c.288.012.472.018.552.018.46 0 .69-.144.69-.432 0-.276-.222-.414-.666-.414zm-.042-1.122c-.116 0-.294.006-.534.018v.804h.606a.638.638 0 00.396-.114c.1-.076.15-.178.15-.306 0-.268-.206-.402-.618-.402zm2.431 3.534h-.48v-3.9h.48v.318c.096-.112.228-.202.396-.27.168-.072.342-.108.522-.108.384 0 .686.128.906.384.228.252.342.58.342.984 0 .412-.13.758-.39 1.038-.256.276-.594.414-1.014.414-.324 0-.578-.062-.762-.186v1.326zm.78-3.51c-.32 0-.58.124-.78.372v1.338c.212.14.452.21.72.21.284 0 .51-.09.678-.27.172-.184.258-.422.258-.714 0-.284-.078-.51-.234-.678-.156-.172-.37-.258-.642-.258zm2.218.18l-.126-.384a1.69 1.69 0 01.9-.246c.364 0 .628.09.792.27.164.18.246.458.246.834v1.656h-.456v-.348c-.212.26-.5.39-.864.39-.248 0-.448-.074-.6-.222-.152-.152-.228-.356-.228-.612a.76.76 0 01.282-.624c.188-.156.434-.234.738-.234.284 0 .508.058.672.174 0-.304-.042-.522-.126-.654-.084-.132-.246-.198-.486-.198-.244 0-.492.066-.744.198zm.66 1.74c.268 0 .5-.116.696-.348v-.342c-.168-.12-.37-.18-.606-.18a.694.694 0 00-.414.12.373.373 0 00-.162.324.4.4 0 00.126.312.532.532 0 00.36.114zm5.376.39h-3.42v-2.7h.48v2.25h.99v-2.25h.48v2.25h.99v-2.25h.48v2.25h.45v1.11h-.45v-.66zm3.104-.672l.15.378c-.26.236-.598.354-1.014.354-.44 0-.79-.128-1.05-.384-.264-.256-.396-.598-.396-1.026 0-.404.124-.74.372-1.008.244-.268.584-.402 1.02-.402.36 0 .658.116.894.348.24.228.36.524.36.888 0 .116-.01.224-.03.324h-2.076c.02.252.114.45.282.594.172.144.392.216.66.216.352 0 .628-.094.828-.282zm-.942-1.638a.879.879 0 00-.588.198.802.802 0 00-.27.522h1.638c-.012-.224-.088-.4-.228-.528-.136-.128-.32-.192-.552-.192zm4.389 2.31h-.48v-1.14h-1.5v1.14h-.48v-2.7h.48v1.11h1.5v-1.11h.48v2.7zm2.908-2.01l-1.56 2.01h-.48v-2.7h.48v2.01l1.56-2.01h.48v2.7h-.48v-2.01zm3.483 1.338l.15.378c-.26.236-.598.354-1.014.354-.44 0-.79-.128-1.05-.384-.264-.256-.396-.598-.396-1.026 0-.404.124-.74.372-1.008.244-.268.584-.402 1.02-.402.36 0 .658.116.894.348.24.228.36.524.36.888 0 .116-.01.224-.03.324h-2.076c.02.252.114.45.282.594.172.144.392.216.66.216.352 0 .628-.094.828-.282zm-.942-1.638a.879.879 0 00-.588.198.802.802 0 00-.27.522h1.638c-.012-.224-.088-.4-.228-.528-.136-.128-.32-.192-.552-.192zm5.707 2.31h-.48v-2.25h-1.47v2.25h-.48v-2.7h2.43v2.7zm1.349 1.2h-.48v-3.9h.48v.318c.096-.112.228-.202.396-.27.168-.072.342-.108.522-.108.384 0 .686.128.906.384.228.252.342.58.342.984 0 .412-.13.758-.39 1.038-.256.276-.594.414-1.014.414-.324 0-.578-.062-.762-.186v1.326zm.78-3.51c-.32 0-.58.124-.78.372v1.338c.212.14.452.21.72.21.284 0 .51-.09.678-.27.172-.184.258-.422.258-.714 0-.284-.078-.51-.234-.678-.156-.172-.37-.258-.642-.258zm4.114.3l-1.56 2.01h-.48v-2.7h.48v2.01l1.56-2.01h.48v2.7h-.48v-2.01zm1.832 2.01h-.48v-2.7h.438l1.038 1.338.984-1.338h.426v2.7h-.48v-1.968l-.936 1.254h-.018l-.972-1.254v1.968zm5.406-.672l.15.378c-.26.236-.598.354-1.014.354-.44 0-.79-.128-1.05-.384-.264-.256-.396-.598-.396-1.026 0-.404.124-.74.372-1.008.244-.268.584-.402 1.02-.402.36 0 .658.116.894.348.24.228.36.524.36.888 0 .116-.01.224-.03.324h-2.076c.02.252.114.45.282.594.172.144.392.216.66.216.352 0 .628-.094.828-.282zm-.942-1.638a.879.879 0 00-.588.198.802.802 0 00-.27.522h1.638c-.012-.224-.088-.4-.228-.528-.136-.128-.32-.192-.552-.192zm2.409 3.51h-.48v-3.9h.48v.318c.096-.112.228-.202.396-.27.168-.072.342-.108.522-.108.384 0 .686.128.906.384.228.252.342.58.342.984 0 .412-.13.758-.39 1.038-.256.276-.594.414-1.014.414-.324 0-.578-.062-.762-.186v1.326zm.78-3.51c-.32 0-.58.124-.78.372v1.338c.212.14.452.21.72.21.284 0 .51-.09.678-.27.172-.184.258-.422.258-.714 0-.284-.078-.51-.234-.678-.156-.172-.37-.258-.642-.258zm4.534 2.31h-.48v-1.14h-1.5v1.14h-.48v-2.7h.48v1.11h1.5v-1.11h.48v2.7zm1.084-.336a1.399 1.399 0 01-.396-1.014c0-.408.132-.744.396-1.008.268-.268.616-.402 1.044-.402.428 0 .774.134 1.038.402.268.264.402.6.402 1.008 0 .408-.134.746-.402 1.014-.264.264-.61.396-1.038.396-.424 0-.772-.132-1.044-.396zm.378-1.704c-.176.176-.264.406-.264.69 0 .284.086.514.258.69a.9.9 0 00.672.27.89.89 0 00.666-.264.954.954 0 00.264-.696.959.959 0 00-.264-.69.88.88 0 00-.666-.27.88.88 0 00-.666.27zm4.147 2.04v-2.7h.084c.036-.004.088-.006.156-.006a29.46 29.46 0 01.738-.018c.776 0 1.164.232 1.164.696 0 .16-.05.298-.15.414a.63.63 0 01-.39.204v.012c.42.076.63.288.63.636 0 .524-.414.786-1.242.786a43.513 43.513 0 01-.894-.024h-.096zm1.056-1.212h-.576v.828c.288.012.472.018.552.018.46 0 .69-.144.69-.432 0-.276-.222-.414-.666-.414zm-.042-1.122c-.116 0-.294.006-.534.018v.804h.606a.638.638 0 00.396-.114c.1-.076.15-.178.15-.306 0-.268-.206-.402-.618-.402zm3.328-.72l-.252-.39 1.008-.78h.336v4.224h-.48v-3.534l-.612.48zm4.866.954c0 .68-.114 1.208-.342 1.584-.224.376-.56.564-1.008.564a1.14 1.14 0 01-1.032-.576c-.228-.388-.342-.912-.342-1.572 0-.656.112-1.178.336-1.566.228-.388.57-.582 1.026-.582.46 0 .8.194 1.02.582.228.384.342.906.342 1.566zm-1.35 1.698c.292 0 .504-.14.636-.42.136-.28.204-.706.204-1.278 0-.568-.07-.992-.21-1.272-.136-.284-.35-.426-.642-.426-.568 0-.852.566-.852 1.698 0 1.132.288 1.698.864 1.698zm4.736-1.698c0 .68-.114 1.208-.342 1.584-.224.376-.56.564-1.008.564a1.14 1.14 0 01-1.032-.576c-.228-.388-.342-.912-.342-1.572 0-.656.112-1.178.336-1.566.228-.388.57-.582 1.026-.582.46 0 .8.194 1.02.582.228.384.342.906.342 1.566zm-1.35 1.698c.292 0 .504-.14.636-.42.136-.28.204-.706.204-1.278 0-.568-.07-.992-.21-1.272-.136-.284-.35-.426-.642-.426-.568 0-.852.566-.852 1.698 0 1.132.288 1.698.864 1.698zm3.943 1.602h-.48v-3.9h.48v.318c.096-.112.228-.202.396-.27.168-.072.342-.108.522-.108.384 0 .686.128.906.384.228.252.342.58.342.984 0 .412-.13.758-.39 1.038-.256.276-.594.414-1.014.414-.324 0-.578-.062-.762-.186v1.326zm.78-3.51c-.32 0-.58.124-.78.372v1.338c.212.14.452.21.72.21.284 0 .51-.09.678-.27.172-.184.258-.422.258-.714 0-.284-.078-.51-.234-.678-.156-.172-.37-.258-.642-.258zm2.218.18l-.126-.384a1.69 1.69 0 01.9-.246c.364 0 .628.09.792.27.164.18.246.458.246.834v1.656h-.456v-.348c-.212.26-.5.39-.864.39-.248 0-.448-.074-.6-.222-.152-.152-.228-.356-.228-.612a.76.76 0 01.282-.624c.188-.156.434-.234.738-.234.284 0 .508.058.672.174 0-.304-.042-.522-.126-.654-.084-.132-.246-.198-.486-.198-.244 0-.492.066-.744.198zm.66 1.74c.268 0 .5-.116.696-.348v-.342c-.168-.12-.37-.18-.606-.18a.694.694 0 00-.414.12.373.373 0 00-.162.324.4.4 0 00.126.312.532.532 0 00.36.114zm2.849.45a2.27 2.27 0 01-.648-.102c-.22-.072-.376-.16-.468-.264l.246-.36c.108.088.236.16.384.216.152.052.29.078.414.078.208 0 .378-.04.51-.12.132-.084.198-.192.198-.324a.287.287 0 00-.144-.258.7.7 0 00-.384-.09h-.456v-.39h.426a.513.513 0 00.336-.108.352.352 0 00.132-.276.32.32 0 00-.156-.282.726.726 0 00-.42-.108c-.284 0-.554.1-.81.3l-.186-.372c.108-.112.258-.2.45-.264.196-.064.402-.096.618-.096.32 0 .568.064.744.192.18.128.27.306.27.534 0 .312-.158.524-.474.636v.012c.176.02.314.09.414.21.1.116.15.258.15.426a.69.69 0 01-.318.594c-.208.144-.484.216-.828.216zm2.628-1.35h-.51v-2.91h.51v2.91zm-.588.966c0-.088.032-.162.096-.222a.34.34 0 01.252-.096c.084 0 .158.032.222.096a.305.305 0 01.096.222c0 .096-.03.178-.09.246a.299.299 0 01-.228.096.34.34 0 01-.252-.096.346.346 0 01-.096-.246z" fill="#848484"/><path d="M231.97 362.56l1.32-10.56h9.48v2.4h-7.38l-.78 5.67c.48-.14 1.04-.21 1.68-.21 1.94 0 3.53.6 4.77 1.8 1.24 1.18 1.86 2.75 1.86 4.71 0 2.1-.66 3.78-1.98 5.04-1.32 1.26-2.94 1.89-4.86 1.89a7.63 7.63 0 01-3.51-.84c-1.1-.56-1.94-1.34-2.52-2.34l1.38-1.77c.48.78 1.15 1.4 2.01 1.86.88.46 1.78.69 2.7.69 1.2 0 2.2-.42 3-1.26.82-.86 1.23-1.92 1.23-3.18 0-1.28-.47-2.34-1.41-3.18-.92-.84-2.15-1.26-3.69-1.26-1.26 0-2.36.18-3.3.54z" fill="#D9D9D9"/><path d="M228.753 335.961a.251.251 0 00.208.286.251.251 0 00.286-.208l-.494-.078zm6.039-36.644a1.334 1.334 0 10.415-2.635 1.334 1.334 0 00-.415 2.635zm-5.545 36.722l6-38-.494-.078-6 38 .494.078z" fill="#525252"/></g></svg>