<svg width="390" height="570" fill="none" xmlns="http://www.w3.org/2000/svg"><mask id="a" style="mask-type:alpha" maskUnits="userSpaceOnUse" x="0" y="0" width="390" height="570"><path fill="#D9D9D9" d="M0 0h390v570H0z"/></mask><g mask="url(#a)"><path fill="#C1C1C1" fill-opacity=".8" d="M218 19h150v63H218z"/><path fill="#fff" d="M214 15h150v63H214z"/><path stroke="#525252" stroke-width=".512" d="M210.256 11.256h149.488v62.488H210.256z"/><path d="M248.613 27.646h-2.511v-.82h5.893v.82h-2.511V34h-.871v-6.354zm3.779 8.404h-.82v-6.662h.82v.543a1.72 1.72 0 01.676-.46c.287-.124.584-.185.892-.185.656 0 1.171.218 1.547.656.39.43.584.99.584 1.68 0 .704-.222 1.295-.666 1.773-.437.472-1.014.707-1.732.707-.553 0-.987-.105-1.301-.317v2.265zm1.332-5.996a1.63 1.63 0 00-1.332.636v2.285c.362.24.772.359 1.23.359.485 0 .871-.154 1.158-.461.293-.315.44-.721.44-1.22 0-.485-.133-.871-.399-1.158-.267-.294-.632-.44-1.097-.44zm3.788.308l-.215-.656c.458-.28.97-.42 1.537-.42.622 0 1.073.153 1.353.46.28.308.42.783.42 1.425V34h-.778v-.594c-.363.444-.854.666-1.476.666-.424 0-.765-.127-1.025-.38-.26-.26-.389-.608-.389-1.045 0-.45.16-.806.481-1.066.321-.266.742-.4 1.261-.4.485 0 .867.1 1.148.298 0-.52-.072-.892-.216-1.117-.143-.226-.42-.338-.83-.338-.417 0-.84.112-1.271.338zm1.128 2.972c.458 0 .854-.198 1.189-.595v-.584c-.287-.205-.632-.307-1.036-.307-.28 0-.515.068-.707.205a.637.637 0 00-.276.553c0 .226.071.403.215.533.15.13.355.195.615.195zm7.542.666h-.82v-1.947H262.8V34h-.82v-4.612h.82v1.896h2.562v-1.896h.82V34zm5.029-1.26l.389.594c-.396.512-.987.768-1.773.768-.737 0-1.335-.218-1.793-.655-.451-.438-.676-1.022-.676-1.753 0-.676.222-1.247.666-1.711.444-.465 1.001-.697 1.67-.697.806 0 1.411.201 1.814.604l-.379.646c-.355-.321-.796-.482-1.322-.482-.431 0-.803.158-1.117.472-.308.307-.461.697-.461 1.168 0 .499.157.895.471 1.189.321.3.717.45 1.189.45.533 0 .973-.197 1.322-.594zm4.334 3.31h-.82v-1.947h-.113c-.772 0-1.384-.226-1.834-.677-.445-.458-.667-1.035-.667-1.732 0-.663.226-1.23.677-1.701.451-.471 1.055-.707 1.814-.707h.123v-2.46h.82v2.46h.133c.751 0 1.353.229 1.804.686.45.458.676 1.032.676 1.722 0 .717-.219 1.298-.656 1.742-.43.444-1.038.666-1.824.666h-.133v1.948zm-2.562-4.356c0 .499.146.899.44 1.2.301.293.707.44 1.22.44h.082v-3.28h-.133c-.499 0-.892.154-1.179.462-.287.3-.43.693-.43 1.178zm2.695-1.64h-.133v3.28h.092c.519 0 .922-.147 1.209-.44.294-.301.441-.701.441-1.2 0-.45-.144-.837-.431-1.158-.287-.321-.679-.482-1.178-.482zm4.025 3.372c-.45-.465-.676-1.042-.676-1.732 0-.697.226-1.27.676-1.722.458-.457 1.053-.686 1.784-.686.731 0 1.322.229 1.773.686.457.451.686 1.025.686 1.722 0 .697-.229 1.274-.686 1.732-.451.451-1.042.676-1.773.676-.725 0-1.319-.225-1.784-.676zm.646-2.91c-.301.3-.451.693-.451 1.178s.147.878.441 1.179c.3.307.683.46 1.148.46.464 0 .843-.15 1.137-.45.301-.308.451-.704.451-1.189 0-.471-.15-.864-.451-1.178-.294-.308-.673-.462-1.137-.462-.465 0-.844.154-1.138.462zm5.6 5.534h-.82v-6.662h.82v.543c.164-.19.39-.345.677-.46a2.22 2.22 0 01.891-.185c.656 0 1.172.218 1.548.656.389.43.584.99.584 1.68 0 .704-.222 1.295-.666 1.773-.438.472-1.015.707-1.732.707-.554 0-.988-.105-1.302-.317v2.265zm1.332-5.996c-.546 0-.99.212-1.332.636v2.285c.362.24.772.359 1.23.359.485 0 .871-.154 1.158-.461.294-.315.441-.721.441-1.22 0-.485-.134-.871-.4-1.158-.266-.294-.632-.44-1.097-.44zM291.644 34h-.82v-4.612h.748l1.773 2.286 1.681-2.286h.727V34h-.819v-3.361l-1.599 2.141h-.031l-1.66-2.142V34zm5.841-3.638l-.215-.656c.458-.28.97-.42 1.537-.42.622 0 1.073.153 1.353.46.28.308.42.783.42 1.425V34h-.779v-.594c-.362.444-.854.666-1.476.666-.423 0-.765-.127-1.024-.38-.26-.26-.39-.608-.39-1.045 0-.45.161-.806.482-1.066.321-.266.741-.4 1.26-.4.486 0 .868.1 1.148.298 0-.52-.071-.892-.215-1.117-.143-.226-.42-.338-.83-.338-.417 0-.84.112-1.271.338zm1.127 2.972c.458 0 .854-.198 1.189-.595v-.584c-.287-.205-.632-.307-1.035-.307-.28 0-.516.068-.707.205a.638.638 0 00-.277.553c0 .226.072.403.216.533.15.13.355.195.614.195zm4.448-3.126h-1.691v-.82h4.202v.82h-1.691V34h-.82v-3.792zm3.626 3.218c-.451-.465-.677-1.042-.677-1.732 0-.697.226-1.27.677-1.722.457-.457 1.052-.686 1.783-.686.731 0 1.322.229 1.773.686.457.451.686 1.025.686 1.722 0 .697-.229 1.274-.686 1.732-.451.451-1.042.676-1.773.676-.724 0-1.319-.225-1.783-.676zm.645-2.91c-.3.3-.451.693-.451 1.178s.147.878.441 1.179c.301.307.683.46 1.148.46.464 0 .844-.15 1.137-.45.301-.308.451-.704.451-1.189 0-.471-.15-.864-.451-1.178-.293-.308-.673-.462-1.137-.462-.465 0-.844.154-1.138.462zm5.6 5.534h-.82v-6.662h.82v.543c.164-.19.39-.345.677-.46a2.24 2.24 0 01.891-.185c.656 0 1.172.218 1.548.656.389.43.584.99.584 1.68 0 .704-.222 1.295-.666 1.773-.438.472-1.015.707-1.732.707-.554 0-.988-.105-1.302-.317v2.265zm1.332-5.996c-.546 0-.99.212-1.332.636v2.285c.362.24.772.359 1.23.359.485 0 .871-.154 1.158-.461.294-.315.441-.721.441-1.22 0-.485-.134-.871-.4-1.158-.266-.294-.632-.44-1.097-.44z" fill="#000"/><path d="M249.93 48h-.51v-3.72h-2.28V48h-.51v-4.2h3.3V48zm1.541 1.2h-.48v-3.9h.48v.318c.096-.112.228-.202.396-.27.168-.072.342-.108.522-.108.384 0 .686.128.906.384.228.252.342.58.342.984 0 .412-.13.758-.39 1.038-.256.276-.594.414-1.014.414-.324 0-.578-.062-.762-.186V49.2zm.78-3.51c-.32 0-.58.124-.78.372V47.4c.212.14.452.21.72.21.284 0 .51-.09.678-.27.172-.184.258-.422.258-.714 0-.284-.078-.51-.234-.678-.156-.172-.37-.258-.642-.258zm4.204 1.638l.15.378c-.26.236-.598.354-1.014.354-.44 0-.79-.128-1.05-.384-.264-.256-.396-.598-.396-1.026 0-.404.124-.74.372-1.008.244-.268.584-.402 1.02-.402.36 0 .658.116.894.348.24.228.36.524.36.888 0 .116-.01.224-.03.324h-2.076c.02.252.114.45.282.594.172.144.392.216.66.216.352 0 .628-.094.828-.282zm-.942-1.638a.879.879 0 00-.588.198.802.802 0 00-.27.522h1.638c-.012-.224-.088-.4-.228-.528-.136-.128-.32-.192-.552-.192zm2.11 1.974a1.399 1.399 0 01-.396-1.014c0-.408.132-.744.396-1.008.268-.268.616-.402 1.044-.402.428 0 .774.134 1.038.402.268.264.402.6.402 1.008 0 .408-.134.746-.402 1.014-.264.264-.61.396-1.038.396-.424 0-.772-.132-1.044-.396zm.378-1.704c-.176.176-.264.406-.264.69 0 .284.086.514.258.69a.9.9 0 00.672.27.89.89 0 00.666-.264.954.954 0 00.264-.696.959.959 0 00-.264-.69.88.88 0 00-.666-.27.88.88 0 00-.666.27zm4.886-2.22l.258.378a.728.728 0 01-.348.27 2.743 2.743 0 01-.504.12 2.065 2.065 0 00-.522.15c-.408.188-.636.622-.684 1.302h.012c.088-.188.23-.34.426-.456.2-.116.414-.174.642-.174.384 0 .688.122.912.366.228.244.342.57.342.978 0 .384-.13.712-.39.984-.256.268-.588.402-.996.402-.44 0-.788-.15-1.044-.45-.256-.296-.384-.706-.384-1.23 0-1.168.334-1.894 1.002-2.178.152-.068.328-.118.528-.15.156-.028.268-.05.336-.066a.92.92 0 00.216-.084.561.561 0 00.198-.162zm-1.77 2.73c0 .344.084.62.252.828a.802.802 0 00.654.312.83.83 0 00.636-.264.89.89 0 00.252-.648c0-.276-.078-.498-.234-.666-.152-.168-.362-.252-.63-.252a.927.927 0 00-.612.204.86.86 0 00-.318.486zm3.473 2.73h-.48v-3.9h.48v.318c.096-.112.228-.202.396-.27.168-.072.342-.108.522-.108.384 0 .686.128.906.384.228.252.342.58.342.984 0 .412-.13.758-.39 1.038-.256.276-.594.414-1.014.414-.324 0-.578-.062-.762-.186V49.2zm.78-3.51c-.32 0-.58.124-.78.372V47.4c.212.14.452.21.72.21.284 0 .51-.09.678-.27.172-.184.258-.422.258-.714 0-.284-.078-.51-.234-.678-.156-.172-.37-.258-.642-.258zm2.218.18l-.126-.384a1.69 1.69 0 01.9-.246c.364 0 .628.09.792.27.164.18.246.458.246.834V48h-.456v-.348c-.212.26-.5.39-.864.39-.248 0-.448-.074-.6-.222-.152-.152-.228-.356-.228-.612a.76.76 0 01.282-.624c.188-.156.434-.234.738-.234.284 0 .508.058.672.174 0-.304-.042-.522-.126-.654-.084-.132-.246-.198-.486-.198-.244 0-.492.066-.744.198zm.66 1.74c.268 0 .5-.116.696-.348v-.342c-.168-.12-.37-.18-.606-.18a.694.694 0 00-.414.12.373.373 0 00-.162.324.4.4 0 00.126.312.532.532 0 00.36.114zm2.849.45a2.27 2.27 0 01-.648-.102c-.22-.072-.376-.16-.468-.264l.246-.36c.108.088.236.16.384.216.152.052.29.078.414.078.208 0 .378-.04.51-.12.132-.084.198-.192.198-.324a.287.287 0 00-.144-.258.7.7 0 00-.384-.09h-.456v-.39h.426a.513.513 0 00.336-.108.352.352 0 00.132-.276.32.32 0 00-.156-.282.726.726 0 00-.42-.108c-.284 0-.554.1-.81.3l-.186-.372c.108-.112.258-.2.45-.264.196-.064.402-.096.618-.096.32 0 .568.064.744.192.18.128.27.306.27.534 0 .312-.158.524-.474.636v.012c.176.02.314.09.414.21.1.116.15.258.15.426a.69.69 0 01-.318.594c-.208.144-.484.216-.828.216zm3.786-2.76h.546l-1.08 2.7c-.196.476-.366.792-.51.948-.152.168-.326.252-.522.252a.892.892 0 01-.51-.168l.156-.366c.128.06.228.09.3.09a.398.398 0 00.3-.144c.092-.096.184-.252.276-.468l.06-.144-1.296-2.7h.576l.792 1.716c.016.028.07.164.162.408.036-.132.078-.27.126-.414l.624-1.71zm1.549 2.7h-.51v-2.7h.51v1.08h.588c.056-.344.206-.62.45-.828.248-.208.552-.312.912-.312.424 0 .764.134 1.02.402.26.268.39.604.39 1.008s-.132.742-.396 1.014c-.26.264-.598.396-1.014.396-.38 0-.692-.11-.936-.33a1.347 1.347 0 01-.432-.87h-.582V48zm1.35-2.022c-.16.172-.24.396-.24.672s.08.5.24.672c.16.172.366.258.618.258a.796.796 0 00.612-.252c.16-.172.24-.398.24-.678 0-.276-.078-.5-.234-.672a.794.794 0 00-.618-.258.806.806 0 00-.618.258zm3.241-.198h-.99v-.48h2.46v.48h-.99V48h-.48v-2.22zm5.773 2.22h-.48v-2.25h-1.47V48h-.48v-2.7h2.43V48zm2.998-.672l.15.378c-.26.236-.598.354-1.014.354-.44 0-.79-.128-1.05-.384-.264-.256-.396-.598-.396-1.026 0-.404.124-.74.372-1.008.244-.268.584-.402 1.02-.402.36 0 .658.116.894.348.24.228.36.524.36.888 0 .116-.01.224-.03.324h-2.076c.02.252.114.45.282.594.172.144.392.216.66.216.352 0 .628-.094.828-.282zm-.942-1.638a.879.879 0 00-.588.198.802.802 0 00-.27.522h1.638c-.012-.224-.088-.4-.228-.528-.136-.128-.32-.192-.552-.192zm2.41 3.51h-.48v-3.9h.48v.318c.096-.112.228-.202.396-.27.168-.072.342-.108.522-.108.384 0 .686.128.906.384.228.252.342.58.342.984 0 .412-.13.758-.39 1.038-.256.276-.594.414-1.014.414-.324 0-.578-.062-.762-.186V49.2zm.78-3.51c-.32 0-.58.124-.78.372V47.4c.212.14.452.21.72.21.284 0 .51-.09.678-.27.172-.184.258-.422.258-.714 0-.284-.078-.51-.234-.678-.156-.172-.37-.258-.642-.258zm4.204 1.638l.15.378c-.26.236-.598.354-1.014.354-.44 0-.79-.128-1.05-.384-.264-.256-.396-.598-.396-1.026 0-.404.124-.74.372-1.008.244-.268.584-.402 1.02-.402.36 0 .658.116.894.348.24.228.36.524.36.888 0 .116-.01.224-.03.324h-2.076c.02.252.114.45.282.594.172.144.392.216.66.216.352 0 .628-.094.828-.282zm-.942-1.638a.879.879 0 00-.588.198.802.802 0 00-.27.522h1.638c-.012-.224-.088-.4-.228-.528-.136-.128-.32-.192-.552-.192zm2.409 2.31h-.48v-2.7h.438l1.038 1.338.984-1.338h.426V48h-.48v-1.968l-.936 1.254h-.018l-.972-1.254V48zm5.406-.672l.15.378c-.26.236-.598.354-1.014.354-.44 0-.79-.128-1.05-.384-.264-.256-.396-.598-.396-1.026 0-.404.124-.74.372-1.008.244-.268.584-.402 1.02-.402.36 0 .658.116.894.348.24.228.36.524.36.888 0 .116-.01.224-.03.324h-2.076c.02.252.114.45.282.594.172.144.392.216.66.216.352 0 .628-.094.828-.282zm-.942-1.638a.879.879 0 00-.588.198.802.802 0 00-.27.522h1.638c-.012-.224-.088-.4-.228-.528-.136-.128-.32-.192-.552-.192zm4.389 2.31h-.48v-1.14h-1.5V48h-.48v-2.7h.48v1.11h1.5V45.3h.48V48zm3.328 0h-.48v-1.14h-1.5V48h-.48v-2.7h.48v1.11h1.5V45.3h.48V48zm1.084-.336a1.399 1.399 0 01-.396-1.014c0-.408.132-.744.396-1.008.268-.268.616-.402 1.044-.402.428 0 .774.134 1.038.402.268.264.402.6.402 1.008 0 .408-.134.746-.402 1.014-.264.264-.61.396-1.038.396-.424 0-.772-.132-1.044-.396zm.378-1.704c-.176.176-.264.406-.264.69 0 .284.086.514.258.69a.9.9 0 00.672.27.89.89 0 00.666-.264.954.954 0 00.264-.696.959.959 0 00-.264-.69.88.88 0 00-.666-.27.88.88 0 00-.666.27zm4.929 1.368l.15.378c-.26.236-.598.354-1.014.354-.44 0-.79-.128-1.05-.384-.264-.256-.396-.598-.396-1.026 0-.404.124-.74.372-1.008.244-.268.584-.402 1.02-.402.36 0 .658.116.894.348.24.228.36.524.36.888 0 .116-.01.224-.03.324h-2.076c.02.252.114.45.282.594.172.144.392.216.66.216.352 0 .628-.094.828-.282zm-.942-1.638a.879.879 0 00-.588.198.802.802 0 00-.27.522h1.638c-.012-.224-.088-.4-.228-.528-.136-.128-.32-.192-.552-.192zM321.08 48h-.48v-1.14h-1.5V48h-.48v-2.7h.48v1.11h1.5V45.3h.48V48zm1.012-2.13l-.126-.384a1.69 1.69 0 01.9-.246c.364 0 .628.09.792.27.164.18.246.458.246.834V48h-.456v-.348c-.212.26-.5.39-.864.39-.248 0-.448-.074-.6-.222-.152-.152-.228-.356-.228-.612a.76.76 0 01.282-.624c.188-.156.434-.234.738-.234.284 0 .508.058.672.174 0-.304-.042-.522-.126-.654-.084-.132-.246-.198-.486-.198-.244 0-.492.066-.744.198zm.66 1.74c.268 0 .5-.116.696-.348v-.342c-.168-.12-.37-.18-.606-.18a.694.694 0 00-.414.12.373.373 0 00-.162.324.4.4 0 00.126.312.532.532 0 00.36.114zm4.385.39h-.48v-2.25h-1.47V48h-.48v-2.7h2.43V48zm1.349 1.2h-.48v-3.9h.48v.318c.096-.112.228-.202.396-.27.168-.072.342-.108.522-.108.384 0 .686.128.906.384.228.252.342.58.342.984 0 .412-.13.758-.39 1.038-.256.276-.594.414-1.014.414-.324 0-.578-.062-.762-.186V49.2zm.78-3.51c-.32 0-.58.124-.78.372V47.4c.212.14.452.21.72.21.284 0 .51-.09.678-.27.172-.184.258-.422.258-.714 0-.284-.078-.51-.234-.678-.156-.172-.37-.258-.642-.258zm3.127-.39h.84V48h-.48v-.9h-.522l-.66.9h-.582l.78-1.02a.716.716 0 01-.414-.264.815.815 0 01-.168-.516c0-.276.1-.494.3-.654.2-.164.502-.246.906-.246zm-.696.912c0 .128.05.234.15.318.1.08.218.12.354.12h.552v-.9h-.438c-.204 0-.358.042-.462.126a.41.41 0 00-.156.336zm5.295-.912h.594l-.978 1.302 1.05 1.398h-.594l-1.002-1.398.93-1.302zm-1.05 2.7h-.48v-2.7h.48V48zm-2.178 0l1.032-1.398-.978-1.302h.6l.924 1.302-.99 1.398h-.588zm6.398-.672l.15.378c-.26.236-.598.354-1.014.354-.44 0-.79-.128-1.05-.384-.264-.256-.396-.598-.396-1.026 0-.404.124-.74.372-1.008.244-.268.584-.402 1.02-.402.36 0 .658.116.894.348.24.228.36.524.36.888 0 .116-.01.224-.03.324h-2.076c.02.252.114.45.282.594.172.144.392.216.66.216.352 0 .628-.094.828-.282zm-.942-1.638a.879.879 0 00-.588.198.802.802 0 00-.27.522H340c-.012-.224-.088-.4-.228-.528-.136-.128-.32-.192-.552-.192zm4.389 2.31h-.48v-1.14h-1.5V48h-.48v-2.7h.48v1.11h1.5V45.3h.48V48zm2.908-2.01l-1.56 2.01h-.48v-2.7h.48v2.01l1.56-2.01h.48V48h-.48v-2.01zM350 47.328l.15.378c-.26.236-.598.354-1.014.354-.44 0-.79-.128-1.05-.384-.264-.256-.396-.598-.396-1.026 0-.404.124-.74.372-1.008.244-.268.584-.402 1.02-.402.36 0 .658.116.894.348.24.228.36.524.36.888 0 .116-.01.224-.03.324h-2.077c.021.252.115.45.283.594.172.144.392.216.66.216.352 0 .628-.094.828-.282zm-.942-1.638a.879.879 0 00-.588.198.802.802 0 00-.27.522h1.638c-.012-.224-.088-.4-.228-.528-.136-.128-.32-.192-.552-.192zm1.821 2.034c0-.096.03-.172.09-.228a.34.34 0 01.252-.09c.128 0 .232.054.312.162.08.104.12.244.12.42 0 .216-.06.402-.18.558a.88.88 0 01-.48.33l-.132-.228a.525.525 0 00.384-.402c.028-.136.026-.236-.006-.3-.024.036-.068.054-.132.054a.216.216 0 01-.162-.078.311.311 0 01-.066-.198zM247.98 53.3h.48V56h-.48v-1.05a1.37 1.37 0 01-.75.198c-.64 0-.96-.344-.96-1.032V53.3h.51v.762c0 .424.194.636.582.636.252 0 .458-.056.618-.168V53.3zm1.995.48h-.99v-.48h2.46v.48h-.99V56h-.48v-2.22zm2.122 1.884a1.399 1.399 0 01-.396-1.014c0-.408.132-.744.396-1.008.268-.268.616-.402 1.044-.402.428 0 .774.134 1.038.402.268.264.402.6.402 1.008 0 .408-.134.746-.402 1.014-.264.264-.61.396-1.038.396-.424 0-.772-.132-1.044-.396zm.378-1.704c-.176.176-.264.406-.264.69 0 .284.086.514.258.69a.9.9 0 00.672.27.89.89 0 00.666-.264.954.954 0 00.264-.696.959.959 0 00-.264-.69.88.88 0 00-.666-.27.88.88 0 00-.666.27zm4.887-2.22l.258.378a.728.728 0 01-.348.27 2.743 2.743 0 01-.504.12 2.065 2.065 0 00-.522.15c-.408.188-.636.622-.684 1.302h.012c.088-.188.23-.34.426-.456.2-.116.414-.174.642-.174.384 0 .688.122.912.366.228.244.342.57.342.978 0 .384-.13.712-.39.984-.256.268-.588.402-.996.402-.44 0-.788-.15-1.044-.45-.256-.296-.384-.706-.384-1.23 0-1.168.334-1.894 1.002-2.178.152-.068.328-.118.528-.15.156-.028.268-.05.336-.066a.92.92 0 00.216-.084.561.561 0 00.198-.162zm-1.77 2.73c0 .344.084.62.252.828a.802.802 0 00.654.312.83.83 0 00.636-.264.89.89 0 00.252-.648c0-.276-.078-.498-.234-.666-.152-.168-.362-.252-.63-.252a.927.927 0 00-.612.204.86.86 0 00-.318.486zm3.862 1.53h-.87v-2.7h.48v.81h.444c.368 0 .638.084.81.252.172.164.258.39.258.678 0 .272-.09.5-.27.684-.172.184-.456.276-.852.276zm2.118 0h-.48v-2.7h.48V56zm-2.154-1.44h-.354v.99h.348c.228 0 .394-.04.498-.12.104-.08.156-.204.156-.372 0-.332-.216-.498-.648-.498zm4.58 1.104a1.399 1.399 0 01-.396-1.014c0-.408.132-.744.396-1.008.268-.268.616-.402 1.044-.402.428 0 .774.134 1.038.402.268.264.402.6.402 1.008 0 .408-.134.746-.402 1.014-.264.264-.61.396-1.038.396-.424 0-.772-.132-1.044-.396zm.378-1.704c-.176.176-.264.406-.264.69 0 .284.086.514.258.69a.9.9 0 00.672.27.89.89 0 00.666-.264.954.954 0 00.264-.696.959.959 0 00-.264-.69.88.88 0 00-.666-.27.88.88 0 00-.666.27zm5.258 2.04h-.48v-1.14h-1.5V56h-.48v-2.7h.48v1.11h1.5V53.3h.48V56zm1.084-.336a1.399 1.399 0 01-.396-1.014c0-.408.132-.744.396-1.008.268-.268.616-.402 1.044-.402.428 0 .774.134 1.038.402.268.264.402.6.402 1.008 0 .408-.134.746-.402 1.014-.264.264-.61.396-1.038.396-.424 0-.772-.132-1.044-.396zm.378-1.704c-.176.176-.264.406-.264.69 0 .284.086.514.258.69a.9.9 0 00.672.27.89.89 0 00.666-.264.954.954 0 00.264-.696.959.959 0 00-.264-.69.88.88 0 00-.666-.27.88.88 0 00-.666.27zm6.577 2.04h-.48v-2.25h-1.47V56h-.48v-2.7h2.43V56zm1.084-.336a1.399 1.399 0 01-.396-1.014c0-.408.132-.744.396-1.008.268-.268.616-.402 1.044-.402.428 0 .774.134 1.038.402.268.264.402.6.402 1.008 0 .408-.134.746-.402 1.014-.264.264-.61.396-1.038.396-.424 0-.772-.132-1.044-.396zm.378-1.704c-.176.176-.264.406-.264.69 0 .284.086.514.258.69a.9.9 0 00.672.27.89.89 0 00.666-.264.954.954 0 00.264-.696.959.959 0 00-.264-.69.88.88 0 00-.666-.27.88.88 0 00-.666.27zm4.875 1.302l.228.348c-.232.3-.578.45-1.038.45-.432 0-.782-.128-1.05-.384-.264-.256-.396-.598-.396-1.026 0-.396.13-.73.39-1.002s.586-.408.978-.408c.472 0 .826.118 1.062.354l-.222.378a1.111 1.111 0 00-.774-.282.894.894 0 00-.654.276.927.927 0 00-.27.684c0 .292.092.524.276.696a.98.98 0 00.696.264c.312 0 .57-.116.774-.348zm1.466-1.482h-.99v-.48h2.46v.48h-.99V56h-.48v-2.22zm3.973-.48h.546l-1.08 2.7c-.196.476-.366.792-.51.948-.152.168-.326.252-.522.252a.892.892 0 01-.51-.168l.156-.366c.128.06.228.09.3.09a.398.398 0 00.3-.144c.092-.096.184-.252.276-.468l.06-.144-1.296-2.7h.576l.792 1.716c.016.028.07.164.162.408.036-.132.078-.27.126-.414l.624-1.71zm3.47 2.7h-.48v-2.25h-1.47V56h-.48v-2.7h2.43V56zm1.012-2.13l-.126-.384a1.69 1.69 0 01.9-.246c.364 0 .628.09.792.27.164.18.246.458.246.834V56h-.456v-.348c-.212.26-.5.39-.864.39-.248 0-.448-.074-.6-.222-.152-.152-.228-.356-.228-.612a.76.76 0 01.282-.624c.188-.156.434-.234.738-.234.284 0 .508.058.672.174 0-.304-.042-.522-.126-.654-.084-.132-.246-.198-.486-.198-.244 0-.492.066-.744.198zm.66 1.74c.268 0 .5-.116.696-.348v-.342c-.168-.12-.37-.18-.606-.18a.694.694 0 00-.414.12.373.373 0 00-.162.324.4.4 0 00.126.312.532.532 0 00.36.114zm4.284.39h-.48v-2.22h-.948l-.03.456c-.032.372-.08.682-.144.93-.06.244-.14.428-.24.552a.837.837 0 01-.306.252c-.108.044-.24.066-.396.066l-.036-.468a.337.337 0 00.138-.018.48.48 0 00.156-.12c.06-.06.112-.14.156-.24.048-.1.09-.24.126-.42.04-.184.066-.394.078-.63l.048-.84h1.878V56zm1.082-.336a1.399 1.399 0 01-.396-1.014c0-.408.132-.744.396-1.008.268-.268.616-.402 1.044-.402.428 0 .774.134 1.038.402.268.264.402.6.402 1.008 0 .408-.134.746-.402 1.014-.264.264-.61.396-1.038.396-.424 0-.772-.132-1.044-.396zm.378-1.704c-.176.176-.264.406-.264.69 0 .284.086.514.258.69a.9.9 0 00.672.27.89.89 0 00.666-.264.954.954 0 00.264-.696.959.959 0 00-.264-.69.88.88 0 00-.666-.27.88.88 0 00-.666.27zm4.146 2.04v-2.7h.084c.036-.004.088-.006.156-.006a29.46 29.46 0 01.738-.018c.776 0 1.164.232 1.164.696 0 .16-.05.298-.15.414a.63.63 0 01-.39.204v.012c.42.076.63.288.63.636 0 .524-.414.786-1.242.786a43.513 43.513 0 01-.894-.024h-.096zm1.056-1.212h-.576v.828c.288.012.472.018.552.018.46 0 .69-.144.69-.432 0-.276-.222-.414-.666-.414zm-.042-1.122c-.116 0-.294.006-.534.018v.804h.606a.638.638 0 00.396-.114c.1-.076.15-.178.15-.306 0-.268-.206-.402-.618-.402zm5.05 1.158h-1.332v-.39h1.326a.813.813 0 00-.306-.552c-.164-.128-.374-.192-.63-.192-.332 0-.608.098-.828.294l-.204-.36c.116-.116.27-.208.462-.276a1.6 1.6 0 01.564-.108c.432 0 .778.128 1.038.384.268.256.402.598.402 1.026 0 .396-.13.73-.39 1.002s-.586.408-.978.408c-.488 0-.85-.114-1.086-.342l.228-.354c.184.164.46.246.828.246.252 0 .458-.068.618-.204a.893.893 0 00.288-.582zM313.951 56h-.48v-2.22h-.948l-.03.456c-.032.372-.08.682-.144.93-.06.244-.14.428-.24.552a.837.837 0 01-.306.252c-.108.044-.24.066-.396.066l-.036-.468a.337.337 0 00.138-.018.48.48 0 00.156-.12c.06-.06.112-.14.156-.24.048-.1.09-.24.126-.42.04-.184.066-.394.078-.63l.048-.84h1.878V56zm2.996-.672l.15.378c-.26.236-.598.354-1.014.354-.44 0-.79-.128-1.05-.384-.264-.256-.396-.598-.396-1.026 0-.404.124-.74.372-1.008.244-.268.584-.402 1.02-.402.36 0 .658.116.894.348.24.228.36.524.36.888 0 .116-.01.224-.03.324h-2.076c.02.252.114.45.282.594.172.144.392.216.66.216.352 0 .628-.094.828-.282zm-.942-1.638a.879.879 0 00-.588.198.802.802 0 00-.27.522h1.638c-.012-.224-.088-.4-.228-.528-.136-.128-.32-.192-.552-.192zm3.663-.39h.63l-1.182 1.29 1.296 1.41h-.666l-1.218-1.38 1.14-1.32zm-1.254 2.7h-.48v-2.7h.48V56zm3.156-2.22h-.99v-.48h2.46v.48h-.99V56h-.48v-2.22zm2.475 3.42h-.48v-3.9h.48v.318c.096-.112.228-.202.396-.27.168-.072.342-.108.522-.108.384 0 .686.128.906.384.228.252.342.58.342.984 0 .412-.13.758-.39 1.038-.256.276-.594.414-1.014.414-.324 0-.578-.062-.762-.186V57.2zm.78-3.51c-.32 0-.58.124-.78.372V55.4c.212.14.452.21.72.21.284 0 .51-.09.678-.27.172-.184.258-.422.258-.714 0-.284-.078-.51-.234-.678-.156-.172-.37-.258-.642-.258zm4.114.3l-1.56 2.01h-.48v-2.7h.48v2.01l1.56-2.01h.48V56h-.48v-2.01zm2.9-.69h.48V56h-.48v-1.05a1.37 1.37 0 01-.75.198c-.64 0-.96-.344-.96-1.032V53.3h.51v.762c0 .424.194.636.582.636.252 0 .458-.056.618-.168V53.3zm3.477 2.028l.15.378c-.26.236-.598.354-1.014.354-.44 0-.79-.128-1.05-.384-.264-.256-.396-.598-.396-1.026 0-.404.124-.74.372-1.008.244-.268.584-.402 1.02-.402.36 0 .658.116.894.348.24.228.36.524.36.888 0 .116-.01.224-.03.324h-2.076c.02.252.114.45.282.594.172.144.392.216.66.216.352 0 .628-.094.828-.282zm-.942-1.638a.879.879 0 00-.588.198.802.802 0 00-.27.522h1.638c-.012-.224-.088-.4-.228-.528-.136-.128-.32-.192-.552-.192zm3.97 1.572l.228.348c-.232.3-.578.45-1.038.45-.432 0-.782-.128-1.05-.384-.264-.256-.396-.598-.396-1.026 0-.396.13-.73.39-1.002s.586-.408.978-.408c.472 0 .826.118 1.062.354l-.222.378a1.111 1.111 0 00-.774-.282.894.894 0 00-.654.276.927.927 0 00-.27.684c0 .292.092.524.276.696a.98.98 0 00.696.264c.312 0 .57-.116.774-.348zm2.588-1.962h.63l-1.182 1.29 1.296 1.41h-.666l-1.218-1.38 1.14-1.32zm-1.254 2.7h-.48v-2.7h.48V56zm4.363-2.7h.546l-1.08 2.7c-.196.476-.366.792-.51.948-.152.168-.326.252-.522.252a.892.892 0 01-.51-.168l.156-.366c.128.06.228.09.3.09a.398.398 0 00.3-.144c.092-.096.184-.252.276-.468l.06-.144-1.296-2.7h.576l.792 1.716c.016.028.07.164.162.408.036-.132.078-.27.126-.414l.624-1.71zm1.549 2.7h-.51v-2.7h.51v1.08h.588c.056-.344.206-.62.45-.828.248-.208.552-.312.912-.312.424 0 .764.134 1.02.402.26.268.39.604.39 1.008s-.132.742-.396 1.014c-.26.264-.598.396-1.014.396-.38 0-.692-.11-.936-.33a1.347 1.347 0 01-.432-.87h-.582V56zm1.35-2.022c-.16.172-.24.396-.24.672s.08.5.24.672c.16.172.366.258.618.258a.796.796 0 00.612-.252c.16-.172.24-.398.24-.678 0-.276-.078-.5-.234-.672a.794.794 0 00-.618-.258.806.806 0 00-.618.258zm-98.432 9.284l.228.348c-.232.3-.578.45-1.038.45-.432 0-.782-.128-1.05-.384-.264-.256-.396-.598-.396-1.026 0-.396.13-.73.39-1.002s.586-.408.978-.408c.472 0 .826.118 1.062.354l-.222.378a1.111 1.111 0 00-.774-.282.894.894 0 00-.654.276.927.927 0 00-.27.684c0 .292.092.524.276.696a.98.98 0 00.696.264c.312 0 .57-.116.774-.348zm2.837.066l.15.378c-.26.236-.598.354-1.014.354-.44 0-.79-.128-1.05-.384-.264-.256-.396-.598-.396-1.026 0-.404.124-.74.372-1.008.244-.268.584-.402 1.02-.402.36 0 .658.116.894.348.24.228.36.524.36.888 0 .116-.01.224-.03.324h-2.076c.02.252.114.45.282.594.172.144.392.216.66.216.352 0 .628-.094.828-.282zm-.942-1.638a.879.879 0 00-.588.198.802.802 0 00-.27.522h1.638c-.012-.224-.088-.4-.228-.528-.136-.128-.32-.192-.552-.192zm2.525.09h-.99v-.48h2.46v.48h-.99V64h-.48v-2.22zm2.906 2.22h-.912v-2.7h.48v.81h.492c.368 0 .638.084.81.252.172.164.258.39.258.678 0 .272-.09.5-.27.684-.18.184-.466.276-.858.276zm-.03-1.44h-.402v.99h.396c.436 0 .654-.164.654-.492 0-.332-.216-.498-.648-.498zm5.225.702l.228.348c-.232.3-.578.45-1.038.45-.432 0-.782-.128-1.05-.384-.264-.256-.396-.598-.396-1.026 0-.396.13-.73.39-1.002s.586-.408.978-.408c.472 0 .826.118 1.062.354l-.222.378a1.111 1.111 0 00-.774-.282.894.894 0 00-.654.276.927.927 0 00-.27.684c0 .292.092.524.276.696a.98.98 0 00.696.264c.312 0 .57-.116.774-.348zm4.662.738h-.48v-1.14h-1.5V64h-.48v-2.7h.48v1.11h1.5V61.3h.48V64zm2.776-2.7h.546l-1.08 2.7c-.196.476-.366.792-.51.948-.152.168-.326.252-.522.252a.892.892 0 01-.51-.168l.156-.366c.128.06.228.09.3.09a.398.398 0 00.3-.144c.092-.096.184-.252.276-.468l.06-.144-1.296-2.7h.576l.792 1.716c.016.028.07.164.162.408.036-.132.078-.27.126-.414l.624-1.71zm3.872 0h.594l-.978 1.302 1.05 1.398h-.594l-1.002-1.398.93-1.302zm-1.05 2.7h-.48v-2.7h.48V64zm-2.178 0l1.032-1.398-.978-1.302h.6l.924 1.302-.99 1.398h-.588zm6.875 0h-.48v-1.14h-1.5V64h-.48v-2.7h.48v1.11h1.5V61.3h.48V64zm1.738 0h-.87v-2.7h.48v.81h.444c.368 0 .638.084.81.252.172.164.258.39.258.678 0 .272-.09.5-.27.684-.172.184-.456.276-.852.276zm2.118 0h-.48v-2.7h.48V64zm-2.154-1.44h-.354v.99h.348c.228 0 .394-.04.498-.12.104-.08.156-.204.156-.372 0-.332-.216-.498-.648-.498zm3.495 1.44h-.48v-2.7h.438l1.038 1.338.984-1.338h.426V64h-.48v-1.968l-.936 1.254h-.018l-.972-1.254V64zm5.316-2.01l-1.56 2.01h-.48v-2.7h.48v2.01l1.56-2.01h.48V64h-.48v-2.01zm4.543-.69h.558l-.966 1.302L291.66 64h-.588l-.792-1.092-.804 1.092h-.558l1.02-1.374-.96-1.326h.588l.732 1.02.744-1.02zm1.343.57l-.126-.384a1.69 1.69 0 01.9-.246c.364 0 .628.09.792.27.164.18.246.458.246.834V64h-.456v-.348c-.212.26-.5.39-.864.39-.248 0-.448-.074-.6-.222-.152-.152-.228-.356-.228-.612a.76.76 0 01.282-.624c.188-.156.434-.234.738-.234.284 0 .508.058.672.174 0-.304-.042-.522-.126-.654-.084-.132-.246-.198-.486-.198-.244 0-.492.066-.744.198zm.66 1.74c.268 0 .5-.116.696-.348v-.342c-.168-.12-.37-.18-.606-.18a.694.694 0 00-.414.12.373.373 0 00-.162.324.4.4 0 00.126.312.532.532 0 00.36.114zm2.435 1.59H295v-3.9h.48v.318c.096-.112.228-.202.396-.27.168-.072.342-.108.522-.108.384 0 .686.128.906.384.228.252.342.58.342.984 0 .412-.13.758-.39 1.038-.256.276-.594.414-1.014.414-.324 0-.578-.062-.762-.186V65.2zm.78-3.51c-.32 0-.58.124-.78.372V63.4c.212.14.452.21.72.21.284 0 .51-.09.678-.27.172-.184.258-.422.258-.714 0-.284-.078-.51-.234-.678-.156-.172-.37-.258-.642-.258zm2.218.18l-.126-.384a1.69 1.69 0 01.9-.246c.364 0 .628.09.792.27.164.18.246.458.246.834V64h-.456v-.348c-.212.26-.5.39-.864.39-.248 0-.448-.074-.6-.222-.152-.152-.228-.356-.228-.612a.76.76 0 01.282-.624c.188-.156.434-.234.738-.234.284 0 .508.058.672.174 0-.304-.042-.522-.126-.654-.084-.132-.246-.198-.486-.198-.244 0-.492.066-.744.198zm.66 1.74c.268 0 .5-.116.696-.348v-.342c-.168-.12-.37-.18-.606-.18a.694.694 0 00-.414.12.373.373 0 00-.162.324.4.4 0 00.126.312.532.532 0 00.36.114zm3.69-2.31h.63l-1.182 1.29 1.296 1.41h-.666l-1.218-1.38 1.14-1.32zm-1.254 2.7h-.48v-2.7h.48V64zm3.156-2.22h-.99v-.48h2.46v.48h-.99V64h-.48v-2.22zm4.037 1.548l.15.378c-.26.236-.598.354-1.014.354-.44 0-.79-.128-1.05-.384-.264-.256-.396-.598-.396-1.026 0-.404.124-.74.372-1.008.244-.268.584-.402 1.02-.402.36 0 .658.116.894.348.24.228.36.524.36.888 0 .116-.01.224-.03.324h-2.076c.02.252.114.45.282.594.172.144.392.216.66.216.352 0 .628-.094.828-.282zm-.942-1.638a.879.879 0 00-.588.198.802.802 0 00-.27.522h1.638c-.012-.224-.088-.4-.228-.528-.136-.128-.32-.192-.552-.192zm2.409 3.51h-.48v-3.9h.48v.318c.096-.112.228-.202.396-.27.168-.072.342-.108.522-.108.384 0 .686.128.906.384.228.252.342.58.342.984 0 .412-.13.758-.39 1.038-.256.276-.594.414-1.014.414-.324 0-.578-.062-.762-.186V65.2zm.78-3.51c-.32 0-.58.124-.78.372V63.4c.212.14.452.21.72.21.284 0 .51-.09.678-.27.172-.184.258-.422.258-.714 0-.284-.078-.51-.234-.678-.156-.172-.37-.258-.642-.258zm4.114.3l-1.56 2.01h-.48v-2.7h.48v2.01l1.56-2.01h.48V64h-.48v-2.01zm3.429 1.272l.228.348c-.232.3-.578.45-1.038.45-.432 0-.782-.128-1.05-.384-.264-.256-.396-.598-.396-1.026 0-.396.13-.73.39-1.002s.586-.408.978-.408c.472 0 .826.118 1.062.354l-.222.378a1.111 1.111 0 00-.774-.282.894.894 0 00-.654.276.927.927 0 00-.27.684c0 .292.092.524.276.696a.98.98 0 00.696.264c.312 0 .57-.116.774-.348zm1.466-1.482h-.99v-.48h2.46v.48h-.99V64h-.48v-2.22zm4.035.21l-1.56 2.01h-.48v-2.7h.48v2.01l1.56-2.01h.48V64h-.48v-2.01zm3.087-.69h.63l-1.182 1.29 1.296 1.41h-.666l-1.218-1.38 1.14-1.32zm-1.254 2.7h-.48v-2.7h.48V64zm2.652-2.13l-.126-.384a1.69 1.69 0 01.9-.246c.364 0 .628.09.792.27.164.18.246.458.246.834V64h-.456v-.348c-.212.26-.5.39-.864.39-.248 0-.448-.074-.6-.222-.152-.152-.228-.356-.228-.612a.76.76 0 01.282-.624c.188-.156.434-.234.738-.234.284 0 .508.058.672.174 0-.304-.042-.522-.126-.654-.084-.132-.246-.198-.486-.198-.244 0-.492.066-.744.198zm.66 1.74c.268 0 .5-.116.696-.348v-.342c-.168-.12-.37-.18-.606-.18a.694.694 0 00-.414.12.373.373 0 00-.162.324.4.4 0 00.126.312.532.532 0 00.36.114zm2.436.39h-.48v-2.7h.438l1.038 1.338.984-1.338h.426V64h-.48v-1.968l-.936 1.254h-.018l-.972-1.254V64zm5.315-2.01l-1.56 2.01h-.48v-2.7h.48v2.01l1.56-2.01h.48V64h-.48v-2.01z" fill="#848484"/><path d="M229.41 48.3c-1.48 0-2.78-.31-3.9-.93a5.795 5.795 0 01-2.46-2.67l1.38-1.71a5.31 5.31 0 002.04 2.16c.88.5 1.83.75 2.85.75 1.26 0 2.26-.35 3-1.05.76-.7 1.14-1.61 1.14-2.73 0-1.12-.4-2.01-1.2-2.67-.78-.66-1.81-.99-3.09-.99h-1.65v-2.4h1.5c.98 0 1.82-.34 2.52-1.02.74-.68 1.11-1.55 1.11-2.61 0-1.04-.31-1.85-.93-2.43-.6-.6-1.43-.9-2.49-.9-1.9 0-3.34.87-4.32 2.61l-1.35-1.65a5.264 5.264 0 012.25-2.46c1.04-.6 2.24-.9 3.6-.9 1.76 0 3.16.48 4.2 1.44 1.06.96 1.59 2.25 1.59 3.87 0 1.16-.28 2.18-.84 3.06-.56.88-1.37 1.54-2.43 1.98v.09c1.24.2 2.23.77 2.97 1.71.74.94 1.11 2.06 1.11 3.36 0 1.84-.62 3.32-1.86 4.44-1.22 1.1-2.8 1.65-4.74 1.65z" fill="#D9D9D9"/><path d="M292.242 73.939a.25.25 0 10-.484.122l.484-.122zm18.431 73.768a1.335 1.335 0 00.654 2.586 1.335 1.335 0 00-.654-2.586zm-18.915-73.646l19 75 .484-.122-19-75-.484.122z" fill="#525252"/></g></svg>