<svg width="1447" height="863" fill="none" xmlns="http://www.w3.org/2000/svg"><mask id="a" style="mask-type:alpha" maskUnits="userSpaceOnUse" x="0" y="0" width="1447" height="863"><path fill="#D9D9D9" d="M0 0h1447v863H0z"/></mask><g mask="url(#a)"><circle cx="750.5" cy="320.5" r="5.5" fill="#525252"/><path fill="#C1C1C1" fill-opacity=".8" d="M1069 247h269v129h-269z"/><path fill="#fff" d="M1062 240h269v129h-269z"/><path stroke="#525252" d="M1055.5 233.5h268v128h-268z"/><path d="M1140.8 273.66h-6.94v-1.6h6.92c-.17-1.44-.77-2.573-1.78-3.4-1.01-.84-2.31-1.26-3.88-1.26-1.39 0-2.57.38-3.54 1.14l-.66-1.28c1.09-.973 2.63-1.46 4.6-1.46 2.08 0 3.77.653 5.08 1.96 1.29 1.293 1.94 3.027 1.94 5.2 0 2.147-.65 3.893-1.96 5.24-1.29 1.333-3.03 2-5.22 2-1.89 0-3.45-.487-4.66-1.46l.74-1.42c1.13.853 2.43 1.28 3.88 1.28 1.49 0 2.74-.44 3.74-1.32 1.03-.907 1.61-2.113 1.74-3.62zm11.11 6.34h-1.6v-7.4h-3.16l-.1 1.52c-.1 1.24-.26 2.273-.48 3.1-.2.813-.46 1.427-.8 1.84-.32.4-.66.68-1.02.84-.36.147-.8.22-1.32.22l-.12-1.56c.15.013.3-.007.46-.06.16-.067.34-.2.52-.4.2-.2.38-.467.52-.8.16-.333.3-.8.42-1.4.14-.613.22-1.313.26-2.1l.16-2.8h6.26v9zm9.99-2.24l.5 1.26c-.87.787-1.99 1.18-3.38 1.18-1.47 0-2.63-.427-3.5-1.28-.88-.853-1.32-1.993-1.32-3.42 0-1.347.41-2.467 1.24-3.36.81-.893 1.95-1.34 3.4-1.34 1.2 0 2.19.387 2.98 1.16.8.76 1.2 1.747 1.2 2.96 0 .387-.03.747-.1 1.08H1156c.07.84.38 1.5.94 1.98.57.48 1.31.72 2.2.72 1.17 0 2.09-.313 2.76-.94zm-3.14-5.46c-.79 0-1.44.22-1.96.66-.51.44-.81 1.02-.9 1.74h5.46c-.04-.747-.29-1.333-.76-1.76-.45-.427-1.07-.64-1.84-.64zm12.21-1.3h2.1l-3.94 4.3 4.32 4.7h-2.22l-4.06-4.6 3.8-4.4zm-4.18 9h-1.6v-9h1.6v9zm10.52-7.4h-3.3V271h8.2v1.6h-3.3v7.4h-1.6v-7.4zm8.25 11.4h-1.6v-13h1.6v1.06c.32-.373.76-.673 1.32-.9.56-.24 1.14-.36 1.74-.36 1.28 0 2.29.427 3.02 1.28.76.84 1.14 1.933 1.14 3.28 0 1.373-.43 2.527-1.3 3.46-.85.92-1.98 1.38-3.38 1.38-1.08 0-1.93-.207-2.54-.62V284zm2.6-11.7c-1.07 0-1.93.413-2.6 1.24V278c.71.467 1.51.7 2.4.7.95 0 1.7-.3 2.26-.9.57-.613.86-1.407.86-2.38 0-.947-.26-1.7-.78-2.26-.52-.573-1.23-.86-2.14-.86zm7.63 6.58c-.88-.907-1.32-2.033-1.32-3.38 0-1.36.44-2.48 1.32-3.36.9-.893 2.06-1.34 3.48-1.34 1.43 0 2.58.447 3.46 1.34.9.88 1.34 2 1.34 3.36 0 1.36-.44 2.487-1.34 3.38-.88.88-2.03 1.32-3.46 1.32-1.41 0-2.57-.44-3.48-1.32zm1.26-5.68c-.58.587-.88 1.353-.88 2.3 0 .947.29 1.713.86 2.3.59.6 1.34.9 2.24.9.91 0 1.65-.293 2.22-.88.59-.6.88-1.373.88-2.32 0-.92-.29-1.687-.88-2.3-.57-.6-1.31-.9-2.22-.9-.9 0-1.64.3-2.22.9zm10.93 6.8h-1.6v-9h5.7v1.5h-4.1v7.5zm12.45-2.24l.5 1.26c-.86.787-1.99 1.18-3.38 1.18-1.46 0-2.63-.427-3.5-1.28-.88-.853-1.32-1.993-1.32-3.42 0-1.347.42-2.467 1.24-3.36.82-.893 1.95-1.34 3.4-1.34 1.2 0 2.2.387 2.98 1.16.8.76 1.2 1.747 1.2 2.96 0 .387-.03.747-.1 1.08h-6.92c.07.84.38 1.5.94 1.98.58.48 1.31.72 2.2.72 1.18 0 2.1-.313 2.76-.94zm-3.14-5.46c-.78 0-1.44.22-1.96.66-.5.44-.8 1.02-.9 1.74h5.46c-.04-.747-.29-1.333-.76-1.76-.45-.427-1.06-.64-1.84-.64zm14.64 7.7h-1.6v-3.8h-5v3.8h-1.6v-9h1.6v3.7h5V271h1.6v9zm9.99-2.24l.5 1.26c-.87.787-1.99 1.18-3.38 1.18-1.47 0-2.63-.427-3.5-1.28-.88-.853-1.32-1.993-1.32-3.42 0-1.347.41-2.467 1.24-3.36.81-.893 1.95-1.34 3.4-1.34 1.2 0 2.19.387 2.98 1.16.8.76 1.2 1.747 1.2 2.96 0 .387-.03.747-.1 1.08h-6.92c.07.84.38 1.5.94 1.98.57.48 1.31.72 2.2.72 1.17 0 2.09-.313 2.76-.94zm-3.14-5.46c-.79 0-1.44.22-1.96.66-.51.44-.81 1.02-.9 1.74h5.46c-.04-.747-.29-1.333-.76-1.76-.45-.427-1.07-.64-1.84-.64zm8.03 11.7h-1.6v-13h1.6v1.06c.32-.373.76-.673 1.32-.9.56-.24 1.14-.36 1.74-.36 1.28 0 2.29.427 3.02 1.28.76.84 1.14 1.933 1.14 3.28 0 1.373-.43 2.527-1.3 3.46-.85.92-1.98 1.38-3.38 1.38-1.08 0-1.93-.207-2.54-.62V284zm2.6-11.7c-1.07 0-1.93.413-2.6 1.24V278c.71.467 1.51.7 2.4.7.95 0 1.7-.3 2.26-.9.57-.613.86-1.407.86-2.38 0-.947-.26-1.7-.78-2.26-.52-.573-1.23-.86-2.14-.86zm7.39.6l-.42-1.28c.9-.547 1.9-.82 3-.82 1.22 0 2.1.3 2.64.9.55.6.82 1.527.82 2.78V280h-1.52v-1.16c-.7.867-1.66 1.3-2.88 1.3-.82 0-1.49-.247-2-.74-.5-.507-.76-1.187-.76-2.04 0-.88.32-1.573.94-2.08.63-.52 1.45-.78 2.46-.78.95 0 1.7.193 2.24.58 0-1.013-.14-1.74-.42-2.18-.28-.44-.82-.66-1.62-.66-.81 0-1.64.22-2.48.66zm2.2 5.8c.9 0 1.67-.387 2.32-1.16v-1.14c-.56-.4-1.23-.6-2.02-.6-.54 0-1 .133-1.38.4-.36.253-.54.613-.54 1.08 0 .44.14.787.42 1.04.3.253.7.38 1.2.38zm8.68-6.1h-3.3V271h8.2v1.6h-3.3v7.4h-1.6v-7.4zm7.08 6.28c-.88-.907-1.32-2.033-1.32-3.38 0-1.36.44-2.48 1.32-3.36.89-.893 2.05-1.34 3.48-1.34 1.42 0 2.58.447 3.46 1.34.89.88 1.34 2 1.34 3.36 0 1.36-.45 2.487-1.34 3.38-.88.88-2.04 1.32-3.46 1.32s-2.58-.44-3.48-1.32zm1.26-5.68c-.59.587-.88 1.353-.88 2.3 0 .947.28 1.713.86 2.3.58.6 1.33.9 2.24.9.9 0 1.64-.293 2.22-.88.58-.6.88-1.373.88-2.32 0-.92-.3-1.687-.88-2.3-.58-.6-1.32-.9-2.22-.9-.91 0-1.65.3-2.22.9zm10.93 10.8h-1.6v-13h1.6v1.06c.32-.373.76-.673 1.32-.9.56-.24 1.14-.36 1.74-.36 1.28 0 2.28.427 3.02 1.28.76.84 1.14 1.933 1.14 3.28 0 1.373-.44 2.527-1.3 3.46-.86.92-1.98 1.38-3.38 1.38-1.08 0-1.93-.207-2.54-.62V284zm2.6-11.7c-1.07 0-1.94.413-2.6 1.24V278c.7.467 1.5.7 2.4.7.94 0 1.7-.3 2.26-.9.57-.613.86-1.407.86-2.38 0-.947-.26-1.7-.78-2.26-.52-.573-1.24-.86-2.14-.86z" fill="#000"/><path d="M1137.26 297.28l-5.1 6.72h-.9v-8.4h1.02v6.72l5.1-6.72h.9v8.4h-1.02v-6.72zm4.1 6.72h-.96v-5.4h.88l2.08 2.676 1.96-2.676h.86v5.4h-.96v-3.936l-1.88 2.508h-.03l-1.95-2.508V304zm10.81-1.344l.3.756c-.52.472-1.19.708-2.02.708-.88 0-1.58-.256-2.1-.768-.53-.512-.8-1.196-.8-2.052 0-.808.25-1.48.75-2.016.49-.536 1.17-.804 2.04-.804.72 0 1.31.232 1.79.696.48.456.72 1.048.72 1.776 0 .232-.02.448-.06.648h-4.16c.04.504.23.9.57 1.188.34.288.78.432 1.32.432.7 0 1.25-.188 1.65-.564zm-1.88-3.276c-.47 0-.86.132-1.18.396-.3.264-.48.612-.54 1.044h3.28c-.02-.448-.18-.8-.46-1.056-.27-.256-.64-.384-1.1-.384zm8.78 4.62h-.96v-2.28h-3V304h-.96v-5.4h.96v2.22h3v-2.22h.96v5.4zm6.66 0h-.96v-2.28h-3V304h-.96v-5.4h.96v2.22h3v-2.22h.96v5.4zm2.16-.672c-.52-.544-.79-1.22-.79-2.028 0-.816.27-1.488.79-2.016.54-.536 1.24-.804 2.09-.804.86 0 1.55.268 2.08.804.53.528.8 1.2.8 2.016 0 .816-.27 1.492-.8 2.028-.53.528-1.22.792-2.08.792-.85 0-1.54-.264-2.09-.792zm.76-3.408c-.35.352-.53.812-.53 1.38 0 .568.17 1.028.52 1.38.35.36.8.54 1.34.54.55 0 .99-.176 1.33-.528.36-.36.53-.824.53-1.392 0-.552-.17-1.012-.53-1.38-.34-.36-.78-.54-1.33-.54-.54 0-.99.18-1.33.54zm10.08 4.2c-.41 0-.84-.068-1.3-.204-.44-.144-.75-.32-.93-.528l.49-.72c.22.176.47.32.77.432.3.104.58.156.83.156.41 0 .75-.08 1.02-.24.26-.168.39-.384.39-.648a.56.56 0 00-.29-.516c-.18-.12-.44-.18-.76-.18h-.92v-.78h.86c.27 0 .49-.072.67-.216a.72.72 0 00.26-.552c0-.24-.1-.428-.31-.564-.21-.144-.49-.216-.84-.216-.57 0-1.11.2-1.62.6l-.37-.744c.21-.224.51-.4.9-.528s.8-.192 1.23-.192c.64 0 1.14.128 1.49.384.36.256.54.612.54 1.068 0 .624-.31 1.048-.95 1.272v.024c.36.04.63.18.83.42.2.232.3.516.3.852 0 .496-.21.892-.63 1.188-.42.288-.97.432-1.66.432zm3.91 1.2h-.9v-2.22h.67c.2-.248.38-.648.53-1.2.15-.56.25-1.184.3-1.872l.09-1.428h3.68v4.5h.9v2.22h-.9V304h-4.37v1.32zm1.59-5.82l-.06.9c-.05.6-.15 1.148-.29 1.644-.15.496-.29.848-.45 1.056h2.62v-3.6h-1.82zm8.98 3.156l.3.756c-.52.472-1.19.708-2.02.708-.88 0-1.58-.256-2.1-.768-.53-.512-.8-1.196-.8-2.052 0-.808.25-1.48.75-2.016.49-.536 1.17-.804 2.04-.804.72 0 1.31.232 1.79.696.48.456.72 1.048.72 1.776 0 .232-.02.448-.06.648h-4.16c.04.504.23.9.57 1.188.34.288.78.432 1.32.432.7 0 1.25-.188 1.65-.564zm-1.88-3.276c-.47 0-.86.132-1.18.396-.3.264-.48.612-.54 1.044h3.28c-.02-.448-.18-.8-.46-1.056-.27-.256-.64-.384-1.1-.384zm7.94 3.144l.46.696c-.47.6-1.16.9-2.08.9-.86 0-1.56-.256-2.1-.768-.53-.512-.79-1.196-.79-2.052 0-.792.26-1.46.78-2.004s1.17-.816 1.95-.816c.95 0 1.66.236 2.13.708l-.45.756c-.41-.376-.93-.564-1.54-.564-.51 0-.94.184-1.31.552-.36.36-.54.816-.54 1.368 0 .584.18 1.048.55 1.392.38.352.84.528 1.39.528.63 0 1.14-.232 1.55-.696zm3.53 1.476h-1.82v-5.4h.96v1.62h.98c.74 0 1.28.168 1.62.504.35.328.52.78.52 1.356 0 .544-.18 1-.54 1.368-.36.368-.93.552-1.72.552zm-.06-2.88h-.8v1.98h.79c.87 0 1.31-.328 1.31-.984 0-.664-.43-.996-1.3-.996zm9.77-2.52h1.26l-2.37 2.58 2.6 2.82h-1.34l-2.43-2.76 2.28-2.64zM1210 304h-.96v-5.4h.96v5.4zm9.1-4.02l-3.12 4.02h-.96v-5.4h.96v4.02l3.12-4.02h.96v5.4h-.96v-4.02zm7.62 4.02h-.96v-2.28h-3V304h-.96v-5.4h.96v2.22h3v-2.22h.96v5.4zm6-1.344l.3.756c-.52.472-1.2.708-2.03.708-.88 0-1.58-.256-2.1-.768-.53-.512-.79-1.196-.79-2.052 0-.808.25-1.48.74-2.016s1.17-.804 2.04-.804c.72 0 1.32.232 1.79.696.48.456.72 1.048.72 1.776 0 .232-.02.448-.06.648h-4.15c.04.504.23.9.56 1.188.35.288.79.432 1.32.432.71 0 1.26-.188 1.66-.564zm-1.89-3.276c-.47 0-.86.132-1.17.396-.31.264-.49.612-.54 1.044h3.27c-.02-.448-.17-.8-.45-1.056-.27-.256-.64-.384-1.11-.384zm5.05.18h-1.98v-.96h4.92v.96h-1.98V304h-.96v-4.44zm8.07.42l-3.12 4.02h-.96v-5.4h.96v4.02l3.12-4.02h.96v5.4h-.96v-4.02zm5.8-1.38h.96v5.4h-.96v-2.1c-.41.264-.91.396-1.5.396-1.28 0-1.92-.688-1.92-2.064V298.6h1.02v1.524c0 .848.39 1.272 1.17 1.272.5 0 .91-.112 1.23-.336v-2.46zm6.96 4.056l.3.756c-.52.472-1.2.708-2.03.708-.88 0-1.58-.256-2.1-.768-.53-.512-.79-1.196-.79-2.052 0-.808.24-1.48.74-2.016.49-.536 1.17-.804 2.04-.804.72 0 1.32.232 1.79.696.48.456.72 1.048.72 1.776 0 .232-.02.448-.06.648h-4.15c.04.504.22.9.56 1.188.34.288.78.432 1.32.432.7 0 1.26-.188 1.66-.564zm-1.89-3.276c-.47 0-.86.132-1.17.396-.31.264-.49.612-.54 1.044h3.27c-.02-.448-.17-.8-.45-1.056s-.64-.384-1.11-.384zm7.94 3.144l.46.696c-.47.6-1.16.9-2.08.9-.86 0-1.56-.256-2.1-.768-.53-.512-.79-1.196-.79-2.052 0-.792.26-1.46.78-2.004s1.17-.816 1.96-.816c.94 0 1.65.236 2.12.708l-.44.756c-.42-.376-.94-.564-1.55-.564-.51 0-.94.184-1.31.552-.36.36-.54.816-.54 1.368 0 .584.18 1.048.55 1.392.38.352.84.528 1.39.528.63 0 1.14-.232 1.55-.696zm5.18-3.924h1.26l-2.37 2.58 2.6 2.82h-1.34l-2.43-2.76 2.28-2.64zm-2.51 5.4h-.96v-5.4h.96v5.4zm5.3-4.26l-.25-.768a3.4 3.4 0 011.8-.492c.73 0 1.26.18 1.59.54.32.36.49.916.49 1.668V304h-.91v-.696c-.43.52-1 .78-1.73.78-.5 0-.9-.148-1.2-.444-.31-.304-.46-.712-.46-1.224 0-.528.19-.944.57-1.248.37-.312.86-.468 1.47-.468.57 0 1.02.116 1.35.348 0-.608-.09-1.044-.26-1.308-.16-.264-.49-.396-.97-.396-.49 0-.98.132-1.49.396zm1.32 3.48c.54 0 1-.232 1.4-.696v-.684c-.34-.24-.74-.36-1.22-.36-.32 0-.6.08-.82.24a.741.741 0 00-.33.648c0 .264.09.472.25.624.18.152.42.228.72.228zm6.28-4.62h1.68v5.4h-.96v-1.8h-1.04l-1.32 1.8h-1.17l1.56-2.04a1.45 1.45 0 01-.83-.528 1.65 1.65 0 01-.33-1.032c0-.552.2-.988.6-1.308.4-.328 1-.492 1.81-.492zm-1.39 1.824c0 .256.1.468.3.636.2.16.43.24.71.24h1.1v-1.8h-.88c-.4 0-.71.084-.92.252a.813.813 0 00-.31.672zm-142.57 17.224h-2.67v-.78h2.66c-.08-.48-.28-.848-.62-1.104-.32-.256-.74-.384-1.26-.384-.66 0-1.21.196-1.65.588l-.41-.72c.23-.232.54-.416.92-.552.39-.144.76-.216 1.13-.216.87 0 1.56.256 2.08.768.53.512.8 1.196.8 2.052 0 .792-.26 1.46-.78 2.004s-1.17.816-1.95.816c-.98 0-1.7-.228-2.18-.684l.46-.708c.37.328.92.492 1.66.492.5 0 .91-.136 1.23-.408.32-.28.51-.668.58-1.164zm7.29 2.352h-.96v-2.28h-3V320h-.96v-5.4h.96v2.22h3v-2.22h.96v5.4zm5.99-1.344l.3.756c-.52.472-1.19.708-2.03.708-.88 0-1.58-.256-2.1-.768s-.79-1.196-.79-2.052c0-.808.25-1.48.75-2.016.48-.536 1.16-.804 2.04-.804.72 0 1.31.232 1.78.696.48.456.72 1.048.72 1.776 0 .232-.02.448-.06.648h-4.15c.04.504.23.9.57 1.188.34.288.78.432 1.32.432.7 0 1.25-.188 1.65-.564zm-1.88-3.276c-.47 0-.87.132-1.18.396-.3.264-.48.612-.54 1.044h3.28c-.03-.448-.18-.8-.46-1.056-.27-.256-.64-.384-1.1-.384zm4.82 7.02h-.96v-7.8h.96v.636c.19-.224.45-.404.79-.54.33-.144.68-.216 1.04-.216.77 0 1.37.256 1.81.768.46.504.69 1.16.69 1.968 0 .824-.26 1.516-.78 2.076-.51.552-1.19.828-2.03.828-.65 0-1.16-.124-1.52-.372v2.652zm1.56-7.02c-.64 0-1.16.248-1.56.744v2.676c.42.28.9.42 1.44.42.56 0 1.02-.18 1.35-.54.35-.368.52-.844.52-1.428 0-.568-.16-1.02-.47-1.356-.31-.344-.74-.516-1.28-.516zm5.1 4.62h-.96v-5.4h3.42v.9h-2.46v4.5zm7.47-4.02l-3.12 4.02h-.96v-5.4h.96v4.02l3.12-4.02h.96v5.4h-.96v-4.02zm5.07-1.38h1.68v5.4h-.96v-1.8h-1.04l-1.32 1.8h-1.17l1.56-2.04a1.45 1.45 0 01-.83-.528 1.65 1.65 0 01-.33-1.032c0-.552.2-.988.6-1.308.4-.328 1-.492 1.81-.492zm-1.39 1.824c0 .256.1.468.3.636.2.16.43.24.71.24h1.1v-1.8h-.88c-.4 0-.71.084-.92.252a.813.813 0 00-.31.672zm12.37 3.576h-.96v-4.5h-2.94v4.5h-.96v-5.4h4.86v5.4zm2.7 2.4h-.96v-7.8h.96v.636c.19-.224.45-.404.79-.54a2.62 2.62 0 011.04-.216c.77 0 1.38.256 1.82.768.45.504.68 1.16.68 1.968 0 .824-.26 1.516-.78 2.076-.51.552-1.19.828-2.03.828-.65 0-1.15-.124-1.52-.372v2.652zm1.56-7.02c-.64 0-1.16.248-1.56.744v2.676c.42.28.9.42 1.44.42.57 0 1.02-.18 1.35-.54.35-.368.52-.844.52-1.428 0-.568-.16-1.02-.47-1.356-.31-.344-.74-.516-1.28-.516zm8.41 3.276l.3.756c-.52.472-1.2.708-2.03.708-.88 0-1.58-.256-2.1-.768-.53-.512-.79-1.196-.79-2.052 0-.808.24-1.48.74-2.016.49-.536 1.17-.804 2.04-.804.72 0 1.32.232 1.79.696.48.456.72 1.048.72 1.776 0 .232-.02.448-.06.648h-4.15c.04.504.22.9.56 1.188.34.288.78.432 1.32.432.7 0 1.26-.188 1.66-.564zm-1.89-3.276c-.47 0-.86.132-1.17.396-.31.264-.49.612-.54 1.044h3.27c-.02-.448-.17-.8-.45-1.056s-.64-.384-1.11-.384zm4.22 3.948c-.53-.544-.79-1.22-.79-2.028 0-.816.26-1.488.79-2.016.54-.536 1.23-.804 2.09-.804.86 0 1.55.268 2.08.804.53.528.8 1.2.8 2.016 0 .816-.27 1.492-.8 2.028-.53.528-1.22.792-2.08.792-.85 0-1.54-.264-2.09-.792zm.76-3.408c-.35.352-.53.812-.53 1.38 0 .568.17 1.028.52 1.38.35.36.8.54 1.34.54s.99-.176 1.33-.528c.35-.36.53-.824.53-1.392 0-.552-.18-1.012-.53-1.38-.34-.36-.79-.54-1.33-.54s-.99.18-1.33.54zm9.77-4.44l.52.756c-.19.264-.43.444-.7.54-.29.104-.63.184-1.01.24-.36.056-.71.156-1.04.3-.82.376-1.27 1.244-1.37 2.604h.03c.17-.376.46-.68.85-.912.4-.232.83-.348 1.28-.348.77 0 1.38.244 1.83.732.45.488.68 1.14.68 1.956 0 .768-.26 1.424-.78 1.968-.51.536-1.18.804-1.99.804-.88 0-1.58-.3-2.09-.9-.51-.592-.77-1.412-.77-2.46 0-2.336.67-3.788 2.01-4.356.3-.136.65-.236 1.05-.3.31-.056.54-.1.67-.132.14-.032.28-.088.44-.168.16-.08.29-.188.39-.324zm-3.54 5.46c0 .688.17 1.24.51 1.656.33.416.77.624 1.3.624.52 0 .95-.176 1.28-.528.33-.344.5-.776.5-1.296 0-.552-.16-.996-.47-1.332-.3-.336-.72-.504-1.26-.504-.49 0-.89.136-1.22.408-.35.28-.56.604-.64.972zm6.95 5.46h-.96v-7.8h.96v.636c.19-.224.45-.404.79-.54.33-.144.68-.216 1.04-.216.77 0 1.37.256 1.81.768.46.504.69 1.16.69 1.968 0 .824-.26 1.516-.78 2.076-.51.552-1.19.828-2.03.828-.65 0-1.16-.124-1.52-.372v2.652zm1.56-7.02c-.64 0-1.16.248-1.56.744v2.676c.42.28.9.42 1.44.42.56 0 1.02-.18 1.35-.54.35-.368.52-.844.52-1.428 0-.568-.16-1.02-.47-1.356-.31-.344-.74-.516-1.28-.516zm4.43.36l-.25-.768a3.4 3.4 0 011.8-.492c.73 0 1.26.18 1.58.54.33.36.5.916.5 1.668V320h-.92v-.696c-.42.52-1 .78-1.72.78-.5 0-.9-.148-1.2-.444-.31-.304-.46-.712-.46-1.224 0-.528.19-.944.56-1.248.38-.312.87-.468 1.48-.468.57 0 1.02.116 1.34.348 0-.608-.08-1.044-.25-1.308-.17-.264-.49-.396-.97-.396-.49 0-.98.132-1.49.396zm1.32 3.48c.54 0 1-.232 1.39-.696v-.684c-.33-.24-.74-.36-1.21-.36-.33 0-.6.08-.83.24a.756.756 0 00-.32.648c0 .264.08.472.25.624.18.152.42.228.72.228zm5.7.9c-.41 0-.84-.068-1.29-.204-.44-.144-.76-.32-.94-.528l.49-.72c.22.176.47.32.77.432.3.104.58.156.83.156.41 0 .75-.08 1.02-.24.26-.168.39-.384.39-.648a.571.571 0 00-.28-.516c-.19-.12-.44-.18-.77-.18h-.91v-.78h.85c.27 0 .49-.072.67-.216a.688.688 0 00.26-.552c0-.24-.1-.428-.31-.564-.21-.144-.49-.216-.84-.216-.57 0-1.11.2-1.62.6l-.37-.744c.22-.224.52-.4.9-.528.39-.128.8-.192 1.24-.192.64 0 1.13.128 1.48.384.36.256.54.612.54 1.068 0 .624-.31 1.048-.94 1.272v.024c.35.04.62.18.82.42.2.232.3.516.3.852 0 .496-.21.892-.63 1.188-.42.288-.97.432-1.66.432zm7.57-5.52h1.1l-2.16 5.4c-.4.952-.74 1.584-1.02 1.896-.31.336-.66.504-1.05.504-.35 0-.69-.112-1.02-.336l.31-.732c.26.12.46.18.6.18.23 0 .43-.096.6-.288.19-.192.37-.504.56-.936l.12-.288-2.6-5.4h1.16l1.58 3.432c.03.056.14.328.32.816.08-.264.16-.54.26-.828l1.24-3.42zm6.13 4.056l.3.756c-.52.472-1.2.708-2.03.708-.88 0-1.58-.256-2.1-.768-.53-.512-.79-1.196-.79-2.052 0-.808.25-1.48.74-2.016s1.17-.804 2.04-.804c.72 0 1.32.232 1.79.696.48.456.72 1.048.72 1.776 0 .232-.02.448-.06.648h-4.15c.04.504.23.9.56 1.188.35.288.79.432 1.32.432.71 0 1.26-.188 1.66-.564zm-1.88-3.276c-.48 0-.87.132-1.18.396-.3.264-.48.612-.54 1.044h3.28c-.03-.448-.18-.8-.46-1.056-.27-.256-.64-.384-1.1-.384zm5.05.18h-1.98v-.96h4.92v.96h-1.98V320h-.96v-4.44zm7.96 2.964l.46.696c-.47.6-1.16.9-2.08.9-.86 0-1.56-.256-2.1-.768-.53-.512-.79-1.196-.79-2.052 0-.792.26-1.46.78-2.004s1.17-.816 1.96-.816c.94 0 1.65.236 2.12.708l-.44.756c-.42-.376-.94-.564-1.55-.564-.51 0-.94.184-1.31.552-.36.36-.54.816-.54 1.368 0 .584.18 1.048.55 1.392.38.352.84.528 1.39.528.63 0 1.14-.232 1.55-.696zm3.81-3.924h1.68v5.4h-.96v-1.8h-1.04l-1.32 1.8h-1.16l1.56-2.04a1.419 1.419 0 01-.83-.528c-.23-.288-.34-.632-.34-1.032 0-.552.2-.988.6-1.308.4-.328 1.01-.492 1.81-.492zm-1.39 1.824c0 .256.1.468.3.636.2.16.44.24.71.24h1.1v-1.8h-.87c-.41 0-.72.084-.93.252a.841.841 0 00-.31.672zM1130.86 336v-5.4h.17c.07-.008.18-.012.31-.012.14-.008.26-.012.38-.012.59-.016.96-.024 1.1-.024 1.55 0 2.33.464 2.33 1.392 0 .32-.1.596-.3.828-.2.224-.46.36-.78.408v.024c.84.152 1.26.576 1.26 1.272 0 1.048-.83 1.572-2.49 1.572-.08 0-.43-.008-1.05-.024a7.5 7.5 0 01-.4-.012c-.14 0-.25-.004-.33-.012h-.2zm2.12-2.424h-1.16v1.656c.58.024.95.036 1.11.036.92 0 1.38-.288 1.38-.864 0-.552-.45-.828-1.33-.828zm-.09-2.244c-.23 0-.59.012-1.07.036v1.608h1.22c.32 0 .59-.076.79-.228a.73.73 0 00.3-.612c0-.536-.41-.804-1.24-.804zm10.1 2.316h-2.66v-.78h2.65c-.07-.48-.27-.848-.61-1.104-.33-.256-.75-.384-1.26-.384-.66 0-1.22.196-1.66.588l-.4-.72c.23-.232.54-.416.92-.552.38-.144.76-.216 1.13-.216.86 0 1.55.256 2.07.768.54.512.81 1.196.81 2.052 0 .792-.26 1.46-.78 2.004s-1.17.816-1.96.816c-.97 0-1.7-.228-2.17-.684l.46-.708c.36.328.92.492 1.65.492.51 0 .92-.136 1.24-.408.32-.28.51-.668.57-1.164zm6.82 2.352h-.96v-4.44h-1.9l-.06.912c-.06.744-.16 1.364-.29 1.86-.12.488-.28.856-.48 1.104-.19.24-.39.408-.61.504-.22.088-.48.132-.79.132l-.07-.936c.08.008.18-.004.27-.036.1-.04.2-.12.31-.24.12-.12.23-.28.32-.48.09-.2.18-.48.25-.84.08-.368.13-.788.15-1.26l.1-1.68h3.76v5.4zm5.99-1.344l.3.756c-.52.472-1.2.708-2.03.708-.88 0-1.58-.256-2.1-.768-.53-.512-.79-1.196-.79-2.052 0-.808.24-1.48.74-2.016.49-.536 1.17-.804 2.04-.804.72 0 1.32.232 1.79.696.48.456.72 1.048.72 1.776 0 .232-.02.448-.06.648h-4.15c.04.504.22.9.56 1.188.34.288.78.432 1.32.432.7 0 1.26-.188 1.66-.564zm-1.89-3.276c-.47 0-.86.132-1.17.396-.31.264-.49.612-.54 1.044h3.27c-.02-.448-.17-.8-.45-1.056s-.64-.384-1.11-.384zm7.33-.78h1.26l-2.37 2.58 2.6 2.82h-1.34l-2.43-2.76 2.28-2.64zm-2.51 5.4h-.96v-5.4h.96v5.4zm6.31-4.44h-1.98v-.96h4.92v.96H1166V336h-.96v-4.44zm4.95 6.84h-.96v-7.8h.96v.636c.19-.224.46-.404.79-.54.34-.144.69-.216 1.05-.216.77 0 1.37.256 1.81.768.46.504.68 1.16.68 1.968 0 .824-.26 1.516-.78 2.076-.51.552-1.18.828-2.02.828-.65 0-1.16-.124-1.53-.372v2.652zm1.56-7.02c-.64 0-1.16.248-1.56.744v2.676c.43.28.91.42 1.44.42.57 0 1.02-.18 1.36-.54.34-.368.51-.844.51-1.428 0-.568-.15-1.02-.46-1.356-.32-.344-.74-.516-1.29-.516zm8.23.6l-3.12 4.02h-.96v-5.4h.96v4.02l3.12-4.02h.96v5.4h-.96v-4.02zm5.8-1.38h.96v5.4h-.96v-2.1c-.41.264-.91.396-1.5.396-1.28 0-1.92-.688-1.92-2.064V330.6h1.02v1.524c0 .848.39 1.272 1.17 1.272.5 0 .91-.112 1.23-.336v-2.46zm6.95 4.056l.3.756c-.52.472-1.19.708-2.02.708-.88 0-1.58-.256-2.1-.768-.53-.512-.8-1.196-.8-2.052 0-.808.25-1.48.75-2.016.49-.536 1.17-.804 2.04-.804.72 0 1.31.232 1.79.696.48.456.72 1.048.72 1.776 0 .232-.02.448-.06.648h-4.16c.04.504.23.9.57 1.188.34.288.78.432 1.32.432.7 0 1.25-.188 1.65-.564zm-1.88-3.276c-.47 0-.86.132-1.18.396-.3.264-.48.612-.54 1.044h3.28c-.02-.448-.18-.8-.46-1.056-.27-.256-.64-.384-1.1-.384zm7.94 3.144l.46.696c-.47.6-1.16.9-2.08.9-.86 0-1.56-.256-2.1-.768-.53-.512-.79-1.196-.79-2.052 0-.792.26-1.46.78-2.004s1.17-.816 1.95-.816c.95 0 1.66.236 2.13.708l-.45.756c-.41-.376-.93-.564-1.54-.564-.51 0-.94.184-1.31.552-.36.36-.54.816-.54 1.368 0 .584.18 1.048.55 1.392.38.352.84.528 1.39.528.63 0 1.14-.232 1.55-.696zm5.18-3.924h1.26l-2.37 2.58 2.59 2.82h-1.33l-2.43-2.76 2.28-2.64zm-2.51 5.4h-.96v-5.4h.96v5.4zm8.72-5.4h1.1l-2.16 5.4c-.4.952-.74 1.584-1.02 1.896-.31.336-.66.504-1.05.504-.35 0-.69-.112-1.02-.336l.31-.732c.26.12.46.18.6.18.23 0 .43-.096.6-.288.19-.192.37-.504.56-.936l.12-.288-2.6-5.4h1.16l1.58 3.432c.03.056.14.328.32.816.08-.264.16-.54.26-.828l1.24-3.42zm3.1 5.4h-1.02v-5.4h1.02v2.16h1.18c.11-.688.41-1.24.9-1.656.5-.416 1.1-.624 1.82-.624.85 0 1.53.268 2.04.804.52.536.78 1.208.78 2.016s-.26 1.484-.79 2.028c-.52.528-1.19.792-2.03.792-.76 0-1.38-.22-1.87-.66-.49-.44-.77-1.02-.86-1.74h-1.17V336zm2.7-4.044c-.32.344-.48.792-.48 1.344s.16 1 .48 1.344c.32.344.74.516 1.24.516s.91-.168 1.22-.504c.32-.344.48-.796.48-1.356 0-.552-.15-1-.46-1.344-.32-.344-.73-.516-1.24-.516-.5 0-.92.172-1.24.516zm5.14 3.396a.6.6 0 01.19-.444.68.68 0 01.49-.192c.17 0 .32.064.44.192.13.128.2.276.2.444 0 .192-.06.356-.18.492a.613.613 0 01-.46.192.68.68 0 01-.49-.192.682.682 0 01-.19-.492z" fill="#959595"/><path d="M750.006 320a.5.5 0 00-.006 1l.006-1zm-.006 1l305 1.949.01-1L750.006 320l-.006 1z" fill="#525252"/><path d="M1104.89 308h-4.8v-10.5h-19.38v-3.42l17.4-28.08h5.52l-16.62 26.7h13.08V281h4.8v11.7h5.82v4.8h-5.82V308z" fill="#999"/></g></svg>