<svg width="390" height="570" viewBox="0 0 390 570" fill="none" xmlns="http://www.w3.org/2000/svg">
<mask id="mask0_1207_55" style="mask-type:alpha" maskUnits="userSpaceOnUse" x="0" y="0" width="390" height="570">
<rect width="390" height="570" fill="#D9D9D9"/>
</mask>
<g mask="url(#mask0_1207_55)">
<rect x="102" y="97" width="139" height="55" fill="#C1C1C1" fill-opacity="0.8"/>
<rect x="98" y="93" width="139" height="55" fill="white"/>
<rect x="94.2562" y="89.2562" width="138.488" height="54.4876" stroke="#525252" stroke-width="0.512419"/>
<path d="M132.534 108.751H128.978V107.931H132.524C132.435 107.194 132.131 106.613 131.612 106.189C131.093 105.759 130.43 105.544 129.624 105.544C128.913 105.544 128.308 105.738 127.81 106.128L127.471 105.472C128.032 104.973 128.817 104.724 129.829 104.724C130.894 104.724 131.762 105.058 132.432 105.728C133.094 106.391 133.426 107.279 133.426 108.393C133.426 109.493 133.091 110.388 132.421 111.078C131.759 111.761 130.867 112.102 129.747 112.102C128.776 112.102 127.98 111.853 127.359 111.354L127.738 110.627C128.319 111.064 128.981 111.283 129.726 111.283C130.491 111.283 131.13 111.057 131.643 110.606C132.169 110.142 132.466 109.523 132.534 108.751ZM138.23 112H137.41V108.208H135.79L135.739 108.987C135.685 109.622 135.603 110.152 135.493 110.575C135.391 110.992 135.254 111.307 135.083 111.518C134.919 111.723 134.745 111.867 134.561 111.949C134.376 112.024 134.151 112.061 133.884 112.061L133.823 111.262C133.898 111.269 133.977 111.259 134.058 111.231C134.14 111.197 134.229 111.129 134.325 111.026C134.427 110.924 134.516 110.787 134.591 110.616C134.673 110.446 134.745 110.207 134.807 109.899C134.875 109.585 134.919 109.226 134.94 108.823L135.022 107.388H138.23V112ZM143.346 110.852L143.602 111.498C143.158 111.901 142.581 112.102 141.87 112.102C141.119 112.102 140.521 111.884 140.077 111.447C139.626 111.009 139.4 110.425 139.4 109.694C139.4 109.004 139.612 108.43 140.036 107.972C140.452 107.515 141.033 107.286 141.778 107.286C142.393 107.286 142.902 107.484 143.305 107.88C143.715 108.27 143.92 108.775 143.92 109.397C143.92 109.595 143.903 109.78 143.869 109.95H140.323C140.357 110.381 140.517 110.719 140.804 110.965C141.098 111.211 141.474 111.334 141.932 111.334C142.533 111.334 143.004 111.173 143.346 110.852ZM141.737 108.054C141.334 108.054 140.999 108.167 140.733 108.393C140.473 108.618 140.319 108.915 140.271 109.284H143.069C143.049 108.902 142.919 108.601 142.68 108.382C142.447 108.164 142.133 108.054 141.737 108.054ZM147.994 107.388H149.07L147.051 109.592L149.265 112H148.127L146.047 109.643L147.994 107.388ZM145.852 112H145.032V107.388H145.852V112ZM151.243 108.208H149.552V107.388H153.754V108.208H152.063V112H151.243V108.208ZM155.47 114.05H154.65V107.388H155.47V107.931C155.634 107.74 155.859 107.586 156.146 107.47C156.433 107.347 156.73 107.286 157.038 107.286C157.694 107.286 158.209 107.504 158.585 107.942C158.975 108.372 159.169 108.932 159.169 109.622C159.169 110.326 158.947 110.917 158.503 111.395C158.066 111.867 157.489 112.102 156.771 112.102C156.218 112.102 155.784 111.997 155.47 111.785V114.05ZM156.802 108.054C156.255 108.054 155.811 108.266 155.47 108.69V110.975C155.832 111.214 156.242 111.334 156.7 111.334C157.185 111.334 157.571 111.18 157.858 110.873C158.151 110.558 158.298 110.152 158.298 109.653C158.298 109.168 158.165 108.782 157.899 108.495C157.632 108.201 157.267 108.054 156.802 108.054ZM160.713 111.426C160.263 110.961 160.037 110.384 160.037 109.694C160.037 108.997 160.263 108.423 160.713 107.972C161.171 107.515 161.766 107.286 162.497 107.286C163.228 107.286 163.819 107.515 164.27 107.972C164.727 108.423 164.956 108.997 164.956 109.694C164.956 110.391 164.727 110.968 164.27 111.426C163.819 111.877 163.228 112.102 162.497 112.102C161.772 112.102 161.178 111.877 160.713 111.426ZM161.359 108.516C161.058 108.816 160.908 109.209 160.908 109.694C160.908 110.179 161.055 110.572 161.349 110.873C161.649 111.18 162.032 111.334 162.497 111.334C162.961 111.334 163.34 111.184 163.634 110.883C163.935 110.575 164.085 110.179 164.085 109.694C164.085 109.223 163.935 108.83 163.634 108.516C163.34 108.208 162.961 108.054 162.497 108.054C162.032 108.054 161.653 108.208 161.359 108.516ZM166.959 112H166.139V107.388H169.06V108.157H166.959V112ZM173.34 110.852L173.597 111.498C173.152 111.901 172.575 112.102 171.865 112.102C171.113 112.102 170.515 111.884 170.071 111.447C169.62 111.009 169.395 110.425 169.395 109.694C169.395 109.004 169.607 108.43 170.03 107.972C170.447 107.515 171.028 107.286 171.772 107.286C172.387 107.286 172.896 107.484 173.299 107.88C173.709 108.27 173.914 108.775 173.914 109.397C173.914 109.595 173.897 109.78 173.863 109.95H170.317C170.351 110.381 170.512 110.719 170.799 110.965C171.093 111.211 171.468 111.334 171.926 111.334C172.527 111.334 172.999 111.173 173.34 110.852ZM171.731 108.054C171.328 108.054 170.993 108.167 170.727 108.393C170.467 108.618 170.314 108.915 170.266 109.284H173.064C173.043 108.902 172.913 108.601 172.674 108.382C172.442 108.164 172.128 108.054 171.731 108.054ZM179.228 112H178.408V110.053H175.846V112H175.027V107.388H175.846V109.284H178.408V107.388H179.228V112ZM184.349 110.852L184.606 111.498C184.161 111.901 183.584 112.102 182.874 112.102C182.122 112.102 181.524 111.884 181.08 111.447C180.629 111.009 180.404 110.425 180.404 109.694C180.404 109.004 180.616 108.43 181.039 107.972C181.456 107.515 182.037 107.286 182.781 107.286C183.396 107.286 183.905 107.484 184.308 107.88C184.718 108.27 184.923 108.775 184.923 109.397C184.923 109.595 184.906 109.78 184.872 109.95H181.326C181.36 110.381 181.521 110.719 181.808 110.965C182.102 111.211 182.477 111.334 182.935 111.334C183.536 111.334 184.008 111.173 184.349 110.852ZM182.74 108.054C182.337 108.054 182.002 108.167 181.736 108.393C181.476 108.618 181.323 108.915 181.275 109.284H184.073C184.052 108.902 183.922 108.601 183.683 108.382C183.451 108.164 183.137 108.054 182.74 108.054ZM186.855 114.05H186.036V107.388H186.855V107.931C187.019 107.74 187.245 107.586 187.532 107.47C187.819 107.347 188.116 107.286 188.423 107.286C189.079 107.286 189.595 107.504 189.971 107.942C190.36 108.372 190.555 108.932 190.555 109.622C190.555 110.326 190.333 110.917 189.889 111.395C189.452 111.867 188.874 112.102 188.157 112.102C187.604 112.102 187.17 111.997 186.855 111.785V114.05ZM188.188 108.054C187.641 108.054 187.197 108.266 186.855 108.69V110.975C187.217 111.214 187.627 111.334 188.085 111.334C188.57 111.334 188.956 111.18 189.243 110.873C189.537 110.558 189.684 110.152 189.684 109.653C189.684 109.168 189.551 108.782 189.284 108.495C189.018 108.201 188.652 108.054 188.188 108.054ZM191.976 108.362L191.761 107.706C192.219 107.426 192.731 107.286 193.298 107.286C193.92 107.286 194.371 107.439 194.651 107.747C194.931 108.054 195.071 108.529 195.071 109.171V112H194.292V111.406C193.93 111.85 193.438 112.072 192.816 112.072C192.393 112.072 192.051 111.945 191.792 111.693C191.532 111.433 191.402 111.084 191.402 110.647C191.402 110.196 191.563 109.841 191.884 109.581C192.205 109.315 192.625 109.182 193.144 109.182C193.63 109.182 194.012 109.281 194.292 109.479C194.292 108.96 194.221 108.587 194.077 108.362C193.934 108.136 193.657 108.024 193.247 108.024C192.83 108.024 192.407 108.136 191.976 108.362ZM193.103 111.334C193.561 111.334 193.957 111.136 194.292 110.739V110.155C194.005 109.95 193.66 109.848 193.257 109.848C192.977 109.848 192.741 109.916 192.55 110.053C192.366 110.183 192.273 110.367 192.273 110.606C192.273 110.832 192.345 111.009 192.489 111.139C192.639 111.269 192.844 111.334 193.103 111.334ZM197.551 108.208H195.86V107.388H200.062V108.208H198.371V112H197.551V108.208ZM201.177 111.426C200.726 110.961 200.5 110.384 200.5 109.694C200.5 108.997 200.726 108.423 201.177 107.972C201.634 107.515 202.229 107.286 202.96 107.286C203.691 107.286 204.282 107.515 204.733 107.972C205.19 108.423 205.419 108.997 205.419 109.694C205.419 110.391 205.19 110.968 204.733 111.426C204.282 111.877 203.691 112.102 202.96 112.102C202.236 112.102 201.641 111.877 201.177 111.426ZM201.822 108.516C201.522 108.816 201.371 109.209 201.371 109.694C201.371 110.179 201.518 110.572 201.812 110.873C202.113 111.18 202.495 111.334 202.96 111.334C203.424 111.334 203.804 111.184 204.097 110.883C204.398 110.575 204.548 110.179 204.548 109.694C204.548 109.223 204.398 108.83 204.097 108.516C203.804 108.208 203.424 108.054 202.96 108.054C202.495 108.054 202.116 108.208 201.822 108.516ZM207.422 114.05H206.602V107.388H207.422V107.931C207.586 107.74 207.812 107.586 208.099 107.47C208.386 107.347 208.683 107.286 208.99 107.286C209.646 107.286 210.162 107.504 210.538 107.942C210.927 108.372 211.122 108.932 211.122 109.622C211.122 110.326 210.9 110.917 210.456 111.395C210.018 111.867 209.441 112.102 208.724 112.102C208.17 112.102 207.736 111.997 207.422 111.785V114.05ZM208.754 108.054C208.208 108.054 207.764 108.266 207.422 108.69V110.975C207.784 111.214 208.194 111.334 208.652 111.334C209.137 111.334 209.523 111.18 209.81 110.873C210.104 110.558 210.251 110.152 210.251 109.653C210.251 109.168 210.118 108.782 209.851 108.495C209.585 108.201 209.219 108.054 208.754 108.054Z" fill="black"/>
<path d="M130.63 122.64L128.08 126H127.63V121.8H128.14V125.16L130.69 121.8H131.14V126H130.63V122.64ZM132.682 126H132.202V123.3H132.64L133.678 124.638L134.662 123.3H135.088V126H134.608V124.032L133.672 125.286H133.654L132.682 124.032V126ZM138.087 125.328L138.237 125.706C137.977 125.942 137.639 126.06 137.223 126.06C136.783 126.06 136.433 125.932 136.173 125.676C135.909 125.42 135.777 125.078 135.777 124.65C135.777 124.246 135.901 123.91 136.149 123.642C136.393 123.374 136.733 123.24 137.169 123.24C137.529 123.24 137.827 123.356 138.063 123.588C138.303 123.816 138.423 124.112 138.423 124.476C138.423 124.592 138.413 124.7 138.393 124.8H136.317C136.337 125.052 136.431 125.25 136.599 125.394C136.771 125.538 136.991 125.61 137.259 125.61C137.611 125.61 137.887 125.516 138.087 125.328ZM137.145 123.69C136.909 123.69 136.713 123.756 136.557 123.888C136.405 124.02 136.315 124.194 136.287 124.41H137.925C137.913 124.186 137.837 124.01 137.697 123.882C137.561 123.754 137.377 123.69 137.145 123.69ZM141.535 126H141.055V124.86H139.555V126H139.075V123.3H139.555V124.41H141.055V123.3H141.535V126ZM144.863 126H144.383V124.86H142.883V126H142.403V123.3H142.883V124.41H144.383V123.3H144.863V126ZM145.947 125.664C145.683 125.392 145.551 125.054 145.551 124.65C145.551 124.242 145.683 123.906 145.947 123.642C146.215 123.374 146.563 123.24 146.991 123.24C147.419 123.24 147.765 123.374 148.029 123.642C148.297 123.906 148.431 124.242 148.431 124.65C148.431 125.058 148.297 125.396 148.029 125.664C147.765 125.928 147.419 126.06 146.991 126.06C146.567 126.06 146.219 125.928 145.947 125.664ZM146.325 123.96C146.149 124.136 146.061 124.366 146.061 124.65C146.061 124.934 146.147 125.164 146.319 125.34C146.495 125.52 146.719 125.61 146.991 125.61C147.263 125.61 147.485 125.522 147.657 125.346C147.833 125.166 147.921 124.934 147.921 124.65C147.921 124.374 147.833 124.144 147.657 123.96C147.485 123.78 147.263 123.69 146.991 123.69C146.719 123.69 146.497 123.78 146.325 123.96ZM151.365 126.06C151.161 126.06 150.945 126.026 150.717 125.958C150.497 125.886 150.341 125.798 150.249 125.694L150.495 125.334C150.603 125.422 150.731 125.494 150.879 125.55C151.031 125.602 151.169 125.628 151.293 125.628C151.501 125.628 151.671 125.588 151.803 125.508C151.935 125.424 152.001 125.316 152.001 125.184C152.001 125.072 151.953 124.986 151.857 124.926C151.765 124.866 151.637 124.836 151.473 124.836H151.017V124.446H151.443C151.579 124.446 151.691 124.41 151.779 124.338C151.867 124.262 151.911 124.17 151.911 124.062C151.911 123.942 151.859 123.848 151.755 123.78C151.651 123.708 151.511 123.672 151.335 123.672C151.051 123.672 150.781 123.772 150.525 123.972L150.339 123.6C150.447 123.488 150.597 123.4 150.789 123.336C150.985 123.272 151.191 123.24 151.407 123.24C151.727 123.24 151.975 123.304 152.151 123.432C152.331 123.56 152.421 123.738 152.421 123.966C152.421 124.278 152.263 124.49 151.947 124.602V124.614C152.123 124.634 152.261 124.704 152.361 124.824C152.461 124.94 152.511 125.082 152.511 125.25C152.511 125.498 152.405 125.696 152.193 125.844C151.985 125.988 151.709 126.06 151.365 126.06ZM153.321 126.66H152.871V125.55H153.207C153.307 125.426 153.395 125.226 153.471 124.95C153.547 124.67 153.597 124.358 153.621 124.014L153.663 123.3H155.505V125.55H155.955V126.66H155.505V126H153.321V126.66ZM154.113 123.75L154.083 124.2C154.059 124.5 154.011 124.774 153.939 125.022C153.867 125.27 153.793 125.446 153.717 125.55H155.025V123.75H154.113ZM158.607 125.328L158.757 125.706C158.497 125.942 158.159 126.06 157.743 126.06C157.303 126.06 156.953 125.932 156.693 125.676C156.429 125.42 156.297 125.078 156.297 124.65C156.297 124.246 156.421 123.91 156.669 123.642C156.913 123.374 157.253 123.24 157.689 123.24C158.049 123.24 158.347 123.356 158.583 123.588C158.823 123.816 158.943 124.112 158.943 124.476C158.943 124.592 158.933 124.7 158.913 124.8H156.837C156.857 125.052 156.951 125.25 157.119 125.394C157.291 125.538 157.511 125.61 157.779 125.61C158.131 125.61 158.407 125.516 158.607 125.328ZM157.665 123.69C157.429 123.69 157.233 123.756 157.077 123.888C156.925 124.02 156.835 124.194 156.807 124.41H158.445C158.433 124.186 158.357 124.01 158.217 123.882C158.081 123.754 157.897 123.69 157.665 123.69ZM161.635 125.262L161.863 125.61C161.631 125.91 161.285 126.06 160.825 126.06C160.393 126.06 160.043 125.932 159.775 125.676C159.511 125.42 159.379 125.078 159.379 124.65C159.379 124.254 159.509 123.92 159.769 123.648C160.029 123.376 160.355 123.24 160.747 123.24C161.219 123.24 161.573 123.358 161.809 123.594L161.587 123.972C161.379 123.784 161.121 123.69 160.813 123.69C160.561 123.69 160.343 123.782 160.159 123.966C159.979 124.146 159.889 124.374 159.889 124.65C159.889 124.942 159.981 125.174 160.165 125.346C160.353 125.522 160.585 125.61 160.861 125.61C161.173 125.61 161.431 125.494 161.635 125.262ZM163.401 126H162.489V123.3H162.969V124.11H163.461C163.829 124.11 164.099 124.194 164.271 124.362C164.443 124.526 164.529 124.752 164.529 125.04C164.529 125.312 164.439 125.54 164.259 125.724C164.079 125.908 163.793 126 163.401 126ZM163.371 124.56H162.969V125.55H163.365C163.801 125.55 164.019 125.386 164.019 125.058C164.019 124.726 163.803 124.56 163.371 124.56ZM168.254 123.3H168.884L167.702 124.59L168.998 126H168.332L167.114 124.62L168.254 123.3ZM167 126H166.52V123.3H167V126ZM171.548 123.99L169.988 126H169.508V123.3H169.988V125.31L171.548 123.3H172.028V126H171.548V123.99ZM175.361 126H174.881V124.86H173.381V126H172.901V123.3H173.381V124.41H174.881V123.3H175.361V126ZM178.359 125.328L178.509 125.706C178.249 125.942 177.911 126.06 177.495 126.06C177.055 126.06 176.705 125.932 176.445 125.676C176.181 125.42 176.049 125.078 176.049 124.65C176.049 124.246 176.173 123.91 176.421 123.642C176.665 123.374 177.005 123.24 177.441 123.24C177.801 123.24 178.099 123.356 178.335 123.588C178.575 123.816 178.695 124.112 178.695 124.476C178.695 124.592 178.685 124.7 178.665 124.8H176.589C176.609 125.052 176.703 125.25 176.871 125.394C177.043 125.538 177.263 125.61 177.531 125.61C177.883 125.61 178.159 125.516 178.359 125.328ZM177.417 123.69C177.181 123.69 176.985 123.756 176.829 123.888C176.677 124.02 176.587 124.194 176.559 124.41H178.197C178.185 124.186 178.109 124.01 177.969 123.882C177.833 123.754 177.649 123.69 177.417 123.69ZM179.941 123.78H178.951V123.3H181.411V123.78H180.421V126H179.941V123.78ZM183.976 123.99L182.416 126H181.936V123.3H182.416V125.31L183.976 123.3H184.456V126H183.976V123.99ZM186.876 123.3H187.356V126H186.876V124.95C186.668 125.082 186.418 125.148 186.126 125.148C185.486 125.148 185.166 124.804 185.166 124.116V123.3H185.676V124.062C185.676 124.486 185.87 124.698 186.258 124.698C186.51 124.698 186.716 124.642 186.876 124.53V123.3ZM190.353 125.328L190.503 125.706C190.243 125.942 189.905 126.06 189.489 126.06C189.049 126.06 188.699 125.932 188.439 125.676C188.175 125.42 188.043 125.078 188.043 124.65C188.043 124.246 188.167 123.91 188.415 123.642C188.659 123.374 188.999 123.24 189.435 123.24C189.795 123.24 190.093 123.356 190.329 123.588C190.569 123.816 190.689 124.112 190.689 124.476C190.689 124.592 190.679 124.7 190.659 124.8H188.583C188.603 125.052 188.697 125.25 188.865 125.394C189.037 125.538 189.257 125.61 189.525 125.61C189.877 125.61 190.153 125.516 190.353 125.328ZM189.411 123.69C189.175 123.69 188.979 123.756 188.823 123.888C188.671 124.02 188.581 124.194 188.553 124.41H190.191C190.179 124.186 190.103 124.01 189.963 123.882C189.827 123.754 189.643 123.69 189.411 123.69ZM193.381 125.262L193.609 125.61C193.377 125.91 193.031 126.06 192.571 126.06C192.139 126.06 191.789 125.932 191.521 125.676C191.257 125.42 191.125 125.078 191.125 124.65C191.125 124.254 191.255 123.92 191.515 123.648C191.775 123.376 192.101 123.24 192.493 123.24C192.965 123.24 193.319 123.358 193.555 123.594L193.333 123.972C193.125 123.784 192.867 123.69 192.559 123.69C192.307 123.69 192.089 123.782 191.905 123.966C191.725 124.146 191.635 124.374 191.635 124.65C191.635 124.942 191.727 125.174 191.911 125.346C192.099 125.522 192.331 125.61 192.607 125.61C192.919 125.61 193.177 125.494 193.381 125.262ZM195.969 123.3H196.599L195.417 124.59L196.713 126H196.047L194.829 124.62L195.969 123.3ZM194.715 126H194.235V123.3H194.715V126ZM197.367 123.87L197.241 123.486C197.509 123.322 197.809 123.24 198.141 123.24C198.505 123.24 198.769 123.33 198.933 123.51C199.097 123.69 199.179 123.968 199.179 124.344V126H198.723V125.652C198.511 125.912 198.223 126.042 197.859 126.042C197.611 126.042 197.411 125.968 197.259 125.82C197.107 125.668 197.031 125.464 197.031 125.208C197.031 124.944 197.125 124.736 197.313 124.584C197.501 124.428 197.747 124.35 198.051 124.35C198.335 124.35 198.559 124.408 198.723 124.524C198.723 124.22 198.681 124.002 198.597 123.87C198.513 123.738 198.351 123.672 198.111 123.672C197.867 123.672 197.619 123.738 197.367 123.87ZM198.027 125.61C198.295 125.61 198.527 125.494 198.723 125.262V124.92C198.555 124.8 198.353 124.74 198.117 124.74C197.953 124.74 197.815 124.78 197.703 124.86C197.595 124.936 197.541 125.044 197.541 125.184C197.541 125.316 197.583 125.42 197.667 125.496C197.755 125.572 197.875 125.61 198.027 125.61ZM201.165 123.3H202.005V126H201.525V125.1H201.003L200.343 126H199.761L200.541 124.98C200.377 124.944 200.239 124.856 200.127 124.716C200.015 124.572 199.959 124.4 199.959 124.2C199.959 123.924 200.059 123.706 200.259 123.546C200.459 123.382 200.761 123.3 201.165 123.3ZM200.469 124.212C200.469 124.34 200.519 124.446 200.619 124.53C200.719 124.61 200.837 124.65 200.973 124.65H201.525V123.75H201.087C200.883 123.75 200.729 123.792 200.625 123.876C200.521 123.96 200.469 124.072 200.469 124.212ZM205.977 124.824H204.645V124.434H205.971C205.935 124.194 205.833 124.01 205.665 123.882C205.501 123.754 205.291 123.69 205.035 123.69C204.703 123.69 204.427 123.788 204.207 123.984L204.003 123.624C204.119 123.508 204.273 123.416 204.465 123.348C204.657 123.276 204.845 123.24 205.029 123.24C205.461 123.24 205.807 123.368 206.067 123.624C206.335 123.88 206.469 124.222 206.469 124.65C206.469 125.046 206.339 125.38 206.079 125.652C205.819 125.924 205.493 126.06 205.101 126.06C204.613 126.06 204.251 125.946 204.015 125.718L204.243 125.364C204.427 125.528 204.703 125.61 205.071 125.61C205.323 125.61 205.529 125.542 205.689 125.406C205.849 125.266 205.945 125.072 205.977 124.824ZM209.621 126H209.141V124.86H207.641V126H207.161V123.3H207.641V124.41H209.141V123.3H209.621V126ZM212.619 125.328L212.769 125.706C212.509 125.942 212.171 126.06 211.755 126.06C211.315 126.06 210.965 125.932 210.705 125.676C210.441 125.42 210.309 125.078 210.309 124.65C210.309 124.246 210.433 123.91 210.681 123.642C210.925 123.374 211.265 123.24 211.701 123.24C212.061 123.24 212.359 123.356 212.595 123.588C212.835 123.816 212.955 124.112 212.955 124.476C212.955 124.592 212.945 124.7 212.925 124.8H210.849C210.869 125.052 210.963 125.25 211.131 125.394C211.303 125.538 211.523 125.61 211.791 125.61C212.143 125.61 212.419 125.516 212.619 125.328ZM211.677 123.69C211.441 123.69 211.245 123.756 211.089 123.888C210.937 124.02 210.847 124.194 210.819 124.41H212.457C212.445 124.186 212.369 124.01 212.229 123.882C212.093 123.754 211.909 123.69 211.677 123.69ZM214.086 127.2H213.606V123.3H214.086V123.618C214.182 123.506 214.314 123.416 214.482 123.348C214.65 123.276 214.824 123.24 215.004 123.24C215.388 123.24 215.69 123.368 215.91 123.624C216.138 123.876 216.252 124.204 216.252 124.608C216.252 125.02 216.122 125.366 215.862 125.646C215.606 125.922 215.268 126.06 214.848 126.06C214.524 126.06 214.27 125.998 214.086 125.874V127.2ZM214.866 123.69C214.546 123.69 214.286 123.814 214.086 124.062V125.4C214.298 125.54 214.538 125.61 214.806 125.61C215.09 125.61 215.316 125.52 215.484 125.34C215.656 125.156 215.742 124.918 215.742 124.626C215.742 124.342 215.664 124.116 215.508 123.948C215.352 123.776 215.138 123.69 214.866 123.69ZM217.42 126H216.94V123.3H218.65V123.75H217.42V126ZM221.154 123.99L219.594 126H219.114V123.3H219.594V125.31L221.154 123.3H221.634V126H221.154V123.99ZM223.688 123.3H224.528V126H224.048V125.1H223.526L222.866 126H222.284L223.064 124.98C222.9 124.944 222.762 124.856 222.65 124.716C222.538 124.572 222.482 124.4 222.482 124.2C222.482 123.924 222.582 123.706 222.782 123.546C222.982 123.382 223.284 123.3 223.688 123.3ZM222.992 124.212C222.992 124.34 223.042 124.446 223.142 124.53C223.242 124.61 223.36 124.65 223.496 124.65H224.048V123.75H223.61C223.406 123.75 223.252 123.792 223.148 123.876C223.044 123.96 222.992 124.072 222.992 124.212ZM129.862 134H129.382V131.75H127.912V134H127.432V131.3H129.862V134ZM131.211 135.2H130.731V131.3H131.211V131.618C131.307 131.506 131.439 131.416 131.607 131.348C131.775 131.276 131.949 131.24 132.129 131.24C132.513 131.24 132.815 131.368 133.035 131.624C133.263 131.876 133.377 132.204 133.377 132.608C133.377 133.02 133.247 133.366 132.987 133.646C132.731 133.922 132.393 134.06 131.973 134.06C131.649 134.06 131.395 133.998 131.211 133.874V135.2ZM131.991 131.69C131.671 131.69 131.411 131.814 131.211 132.062V133.4C131.423 133.54 131.663 133.61 131.931 133.61C132.215 133.61 132.441 133.52 132.609 133.34C132.781 133.156 132.867 132.918 132.867 132.626C132.867 132.342 132.789 132.116 132.633 131.948C132.477 131.776 132.263 131.69 131.991 131.69ZM136.195 133.328L136.345 133.706C136.085 133.942 135.747 134.06 135.331 134.06C134.891 134.06 134.541 133.932 134.281 133.676C134.017 133.42 133.885 133.078 133.885 132.65C133.885 132.246 134.009 131.91 134.257 131.642C134.501 131.374 134.841 131.24 135.277 131.24C135.637 131.24 135.935 131.356 136.171 131.588C136.411 131.816 136.531 132.112 136.531 132.476C136.531 132.592 136.521 132.7 136.501 132.8H134.425C134.445 133.052 134.539 133.25 134.707 133.394C134.879 133.538 135.099 133.61 135.367 133.61C135.719 133.61 135.995 133.516 136.195 133.328ZM135.253 131.69C135.017 131.69 134.821 131.756 134.665 131.888C134.513 132.02 134.423 132.194 134.395 132.41H136.033C136.021 132.186 135.945 132.01 135.805 131.882C135.669 131.754 135.485 131.69 135.253 131.69ZM137.363 133.664C137.099 133.392 136.967 133.054 136.967 132.65C136.967 132.242 137.099 131.906 137.363 131.642C137.631 131.374 137.979 131.24 138.407 131.24C138.835 131.24 139.181 131.374 139.445 131.642C139.713 131.906 139.847 132.242 139.847 132.65C139.847 133.058 139.713 133.396 139.445 133.664C139.181 133.928 138.835 134.06 138.407 134.06C137.983 134.06 137.635 133.928 137.363 133.664ZM137.741 131.96C137.565 132.136 137.477 132.366 137.477 132.65C137.477 132.934 137.563 133.164 137.735 133.34C137.911 133.52 138.135 133.61 138.407 133.61C138.679 133.61 138.901 133.522 139.073 133.346C139.249 133.166 139.337 132.934 139.337 132.65C139.337 132.374 139.249 132.144 139.073 131.96C138.901 131.78 138.679 131.69 138.407 131.69C138.135 131.69 137.913 131.78 137.741 131.96ZM142.627 129.74L142.885 130.118C142.789 130.25 142.673 130.34 142.537 130.388C142.389 130.44 142.221 130.48 142.033 130.508C141.849 130.536 141.675 130.586 141.511 130.658C141.103 130.846 140.875 131.28 140.827 131.96H140.839C140.927 131.772 141.069 131.62 141.265 131.504C141.465 131.388 141.679 131.33 141.907 131.33C142.291 131.33 142.595 131.452 142.819 131.696C143.047 131.94 143.161 132.266 143.161 132.674C143.161 133.058 143.031 133.386 142.771 133.658C142.515 133.926 142.183 134.06 141.775 134.06C141.335 134.06 140.987 133.91 140.731 133.61C140.475 133.314 140.347 132.904 140.347 132.38C140.347 131.212 140.681 130.486 141.349 130.202C141.501 130.134 141.677 130.084 141.877 130.052C142.033 130.024 142.145 130.002 142.213 129.986C142.281 129.97 142.353 129.942 142.429 129.902C142.509 129.862 142.575 129.808 142.627 129.74ZM140.857 132.47C140.857 132.814 140.941 133.09 141.109 133.298C141.277 133.506 141.495 133.61 141.763 133.61C142.023 133.61 142.235 133.522 142.399 133.346C142.567 133.174 142.651 132.958 142.651 132.698C142.651 132.422 142.573 132.2 142.417 132.032C142.265 131.864 142.055 131.78 141.787 131.78C141.543 131.78 141.339 131.848 141.175 131.984C141.003 132.124 140.897 132.286 140.857 132.47ZM144.33 135.2H143.85V131.3H144.33V131.618C144.426 131.506 144.558 131.416 144.726 131.348C144.894 131.276 145.068 131.24 145.248 131.24C145.632 131.24 145.934 131.368 146.154 131.624C146.382 131.876 146.496 132.204 146.496 132.608C146.496 133.02 146.366 133.366 146.106 133.646C145.85 133.922 145.512 134.06 145.092 134.06C144.768 134.06 144.514 133.998 144.33 133.874V135.2ZM145.11 131.69C144.79 131.69 144.53 131.814 144.33 132.062V133.4C144.542 133.54 144.782 133.61 145.05 133.61C145.334 133.61 145.56 133.52 145.728 133.34C145.9 133.156 145.986 132.918 145.986 132.626C145.986 132.342 145.908 132.116 145.752 131.948C145.596 131.776 145.382 131.69 145.11 131.69ZM147.328 131.87L147.202 131.486C147.47 131.322 147.77 131.24 148.102 131.24C148.466 131.24 148.73 131.33 148.894 131.51C149.058 131.69 149.14 131.968 149.14 132.344V134H148.684V133.652C148.472 133.912 148.184 134.042 147.82 134.042C147.572 134.042 147.372 133.968 147.22 133.82C147.068 133.668 146.992 133.464 146.992 133.208C146.992 132.944 147.086 132.736 147.274 132.584C147.462 132.428 147.708 132.35 148.012 132.35C148.296 132.35 148.52 132.408 148.684 132.524C148.684 132.22 148.642 132.002 148.558 131.87C148.474 131.738 148.312 131.672 148.072 131.672C147.828 131.672 147.58 131.738 147.328 131.87ZM147.988 133.61C148.256 133.61 148.488 133.494 148.684 133.262V132.92C148.516 132.8 148.314 132.74 148.078 132.74C147.914 132.74 147.776 132.78 147.664 132.86C147.556 132.936 147.502 133.044 147.502 133.184C147.502 133.316 147.544 133.42 147.628 133.496C147.716 133.572 147.836 133.61 147.988 133.61ZM150.838 134.06C150.634 134.06 150.418 134.026 150.19 133.958C149.97 133.886 149.814 133.798 149.722 133.694L149.968 133.334C150.076 133.422 150.204 133.494 150.352 133.55C150.504 133.602 150.642 133.628 150.766 133.628C150.974 133.628 151.144 133.588 151.276 133.508C151.408 133.424 151.474 133.316 151.474 133.184C151.474 133.072 151.426 132.986 151.33 132.926C151.238 132.866 151.11 132.836 150.946 132.836H150.49V132.446H150.916C151.052 132.446 151.164 132.41 151.252 132.338C151.34 132.262 151.384 132.17 151.384 132.062C151.384 131.942 151.332 131.848 151.228 131.78C151.124 131.708 150.984 131.672 150.808 131.672C150.524 131.672 150.254 131.772 149.998 131.972L149.812 131.6C149.92 131.488 150.07 131.4 150.262 131.336C150.458 131.272 150.664 131.24 150.88 131.24C151.2 131.24 151.448 131.304 151.624 131.432C151.804 131.56 151.894 131.738 151.894 131.966C151.894 132.278 151.736 132.49 151.42 132.602V132.614C151.596 132.634 151.734 132.704 151.834 132.824C151.934 132.94 151.984 133.082 151.984 133.25C151.984 133.498 151.878 133.696 151.666 133.844C151.458 133.988 151.182 134.06 150.838 134.06ZM154.623 131.3H155.169L154.089 134C153.893 134.476 153.723 134.792 153.579 134.948C153.427 135.116 153.253 135.2 153.057 135.2C152.881 135.2 152.711 135.144 152.547 135.032L152.703 134.666C152.831 134.726 152.931 134.756 153.003 134.756C153.115 134.756 153.215 134.708 153.303 134.612C153.395 134.516 153.487 134.36 153.579 134.144L153.639 134L152.343 131.3H152.919L153.711 133.016C153.727 133.044 153.781 133.18 153.873 133.424C153.909 133.292 153.951 133.154 153.999 133.01L154.623 131.3ZM157.687 133.328L157.837 133.706C157.577 133.942 157.239 134.06 156.823 134.06C156.383 134.06 156.033 133.932 155.773 133.676C155.509 133.42 155.377 133.078 155.377 132.65C155.377 132.246 155.501 131.91 155.749 131.642C155.993 131.374 156.333 131.24 156.769 131.24C157.129 131.24 157.427 131.356 157.663 131.588C157.903 131.816 158.023 132.112 158.023 132.476C158.023 132.592 158.013 132.7 157.993 132.8H155.917C155.937 133.052 156.031 133.25 156.199 133.394C156.371 133.538 156.591 133.61 156.859 133.61C157.211 133.61 157.487 133.516 157.687 133.328ZM156.745 131.69C156.509 131.69 156.313 131.756 156.157 131.888C156.005 132.02 155.915 132.194 155.887 132.41H157.525C157.513 132.186 157.437 132.01 157.297 131.882C157.161 131.754 156.977 131.69 156.745 131.69ZM159.269 131.78H158.279V131.3H160.739V131.78H159.749V134H159.269V131.78ZM163.252 133.262L163.48 133.61C163.248 133.91 162.902 134.06 162.442 134.06C162.01 134.06 161.66 133.932 161.392 133.676C161.128 133.42 160.996 133.078 160.996 132.65C160.996 132.254 161.126 131.92 161.386 131.648C161.646 131.376 161.972 131.24 162.364 131.24C162.836 131.24 163.19 131.358 163.426 131.594L163.204 131.972C162.996 131.784 162.738 131.69 162.43 131.69C162.178 131.69 161.96 131.782 161.776 131.966C161.596 132.146 161.506 132.374 161.506 132.65C161.506 132.942 161.598 133.174 161.782 133.346C161.97 133.522 162.202 133.61 162.478 133.61C162.79 133.61 163.048 133.494 163.252 133.262ZM165.159 131.3H165.999V134H165.519V133.1H164.997L164.337 134H163.755L164.535 132.98C164.371 132.944 164.233 132.856 164.121 132.716C164.009 132.572 163.953 132.4 163.953 132.2C163.953 131.924 164.053 131.706 164.253 131.546C164.453 131.382 164.755 131.3 165.159 131.3ZM164.463 132.212C164.463 132.34 164.513 132.446 164.613 132.53C164.713 132.61 164.831 132.65 164.967 132.65H165.519V131.75H165.081C164.877 131.75 164.723 131.792 164.619 131.876C164.515 131.96 164.463 132.072 164.463 132.212ZM168.219 134V131.3C168.239 131.3 168.267 131.3 168.303 131.3C168.339 131.296 168.391 131.294 168.459 131.294C168.527 131.29 168.589 131.288 168.645 131.288C168.941 131.28 169.125 131.276 169.197 131.276C169.973 131.276 170.361 131.508 170.361 131.972C170.361 132.132 170.311 132.27 170.211 132.386C170.111 132.498 169.981 132.566 169.821 132.59V132.602C170.241 132.678 170.451 132.89 170.451 133.238C170.451 133.762 170.037 134.024 169.209 134.024C169.169 134.024 168.993 134.02 168.681 134.012C168.621 134.012 168.555 134.01 168.483 134.006C168.411 134.006 168.355 134.004 168.315 134C168.275 134 168.243 134 168.219 134ZM169.275 132.788H168.699V133.616C168.987 133.628 169.171 133.634 169.251 133.634C169.711 133.634 169.941 133.49 169.941 133.202C169.941 132.926 169.719 132.788 169.275 132.788ZM169.233 131.666C169.117 131.666 168.939 131.672 168.699 131.684V132.488H169.305C169.469 132.488 169.601 132.45 169.701 132.374C169.801 132.298 169.851 132.196 169.851 132.068C169.851 131.8 169.645 131.666 169.233 131.666ZM174.284 132.824H172.952V132.434H174.278C174.242 132.194 174.14 132.01 173.972 131.882C173.808 131.754 173.598 131.69 173.342 131.69C173.01 131.69 172.734 131.788 172.514 131.984L172.31 131.624C172.426 131.508 172.58 131.416 172.772 131.348C172.964 131.276 173.152 131.24 173.336 131.24C173.768 131.24 174.114 131.368 174.374 131.624C174.642 131.88 174.776 132.222 174.776 132.65C174.776 133.046 174.646 133.38 174.386 133.652C174.126 133.924 173.8 134.06 173.408 134.06C172.92 134.06 172.558 133.946 172.322 133.718L172.55 133.364C172.734 133.528 173.01 133.61 173.378 133.61C173.63 133.61 173.836 133.542 173.996 133.406C174.156 133.266 174.252 133.072 174.284 132.824ZM177.69 134H177.21V131.78H176.262L176.232 132.236C176.2 132.608 176.152 132.918 176.088 133.166C176.028 133.41 175.948 133.594 175.848 133.718C175.752 133.838 175.65 133.922 175.542 133.97C175.434 134.014 175.302 134.036 175.146 134.036L175.11 133.568C175.154 133.572 175.2 133.566 175.248 133.55C175.296 133.53 175.348 133.49 175.404 133.43C175.464 133.37 175.516 133.29 175.56 133.19C175.608 133.09 175.65 132.95 175.686 132.77C175.726 132.586 175.752 132.376 175.764 132.14L175.812 131.3H177.69V134ZM180.685 133.328L180.835 133.706C180.575 133.942 180.237 134.06 179.821 134.06C179.381 134.06 179.031 133.932 178.771 133.676C178.507 133.42 178.375 133.078 178.375 132.65C178.375 132.246 178.499 131.91 178.747 131.642C178.991 131.374 179.331 131.24 179.767 131.24C180.127 131.24 180.425 131.356 180.661 131.588C180.901 131.816 181.021 132.112 181.021 132.476C181.021 132.592 181.011 132.7 180.991 132.8H178.915C178.935 133.052 179.029 133.25 179.197 133.394C179.369 133.538 179.589 133.61 179.857 133.61C180.209 133.61 180.485 133.516 180.685 133.328ZM179.743 131.69C179.507 131.69 179.311 131.756 179.155 131.888C179.003 132.02 178.913 132.194 178.885 132.41H180.523C180.511 132.186 180.435 132.01 180.295 131.882C180.159 131.754 179.975 131.69 179.743 131.69ZM183.406 131.3H184.036L182.854 132.59L184.15 134H183.484L182.266 132.62L183.406 131.3ZM182.152 134H181.672V131.3H182.152V134ZM185.309 131.78H184.319V131.3H186.779V131.78H185.789V134H185.309V131.78ZM187.783 135.2H187.303V131.3H187.783V131.618C187.879 131.506 188.011 131.416 188.179 131.348C188.347 131.276 188.521 131.24 188.701 131.24C189.085 131.24 189.387 131.368 189.607 131.624C189.835 131.876 189.949 132.204 189.949 132.608C189.949 133.02 189.819 133.366 189.559 133.646C189.303 133.922 188.965 134.06 188.545 134.06C188.221 134.06 187.967 133.998 187.783 133.874V135.2ZM188.563 131.69C188.243 131.69 187.983 131.814 187.783 132.062V133.4C187.995 133.54 188.235 133.61 188.503 133.61C188.787 133.61 189.013 133.52 189.181 133.34C189.353 133.156 189.439 132.918 189.439 132.626C189.439 132.342 189.361 132.116 189.205 131.948C189.049 131.776 188.835 131.69 188.563 131.69ZM192.677 131.99L191.117 134H190.637V131.3H191.117V133.31L192.677 131.3H193.157V134H192.677V131.99ZM195.578 131.3H196.058V134H195.578V132.95C195.37 133.082 195.12 133.148 194.828 133.148C194.188 133.148 193.868 132.804 193.868 132.116V131.3H194.378V132.062C194.378 132.486 194.572 132.698 194.96 132.698C195.212 132.698 195.418 132.642 195.578 132.53V131.3ZM199.054 133.328L199.204 133.706C198.944 133.942 198.606 134.06 198.19 134.06C197.75 134.06 197.4 133.932 197.14 133.676C196.876 133.42 196.744 133.078 196.744 132.65C196.744 132.246 196.868 131.91 197.116 131.642C197.36 131.374 197.7 131.24 198.136 131.24C198.496 131.24 198.794 131.356 199.03 131.588C199.27 131.816 199.39 132.112 199.39 132.476C199.39 132.592 199.38 132.7 199.36 132.8H197.284C197.304 133.052 197.398 133.25 197.566 133.394C197.738 133.538 197.958 133.61 198.226 133.61C198.578 133.61 198.854 133.516 199.054 133.328ZM198.112 131.69C197.876 131.69 197.68 131.756 197.524 131.888C197.372 132.02 197.282 132.194 197.254 132.41H198.892C198.88 132.186 198.804 132.01 198.664 131.882C198.528 131.754 198.344 131.69 198.112 131.69ZM202.082 133.262L202.31 133.61C202.078 133.91 201.732 134.06 201.272 134.06C200.84 134.06 200.49 133.932 200.222 133.676C199.958 133.42 199.826 133.078 199.826 132.65C199.826 132.254 199.956 131.92 200.216 131.648C200.476 131.376 200.802 131.24 201.194 131.24C201.666 131.24 202.02 131.358 202.256 131.594L202.034 131.972C201.826 131.784 201.568 131.69 201.26 131.69C201.008 131.69 200.79 131.782 200.606 131.966C200.426 132.146 200.336 132.374 200.336 132.65C200.336 132.942 200.428 133.174 200.612 133.346C200.8 133.522 201.032 133.61 201.308 133.61C201.62 133.61 201.878 133.494 202.082 133.262ZM204.67 131.3H205.3L204.118 132.59L205.414 134H204.748L203.53 132.62L204.67 131.3ZM203.416 134H202.936V131.3H203.416V134ZM207.779 131.3H208.325L207.245 134C207.049 134.476 206.879 134.792 206.735 134.948C206.583 135.116 206.409 135.2 206.213 135.2C206.037 135.2 205.867 135.144 205.703 135.032L205.859 134.666C205.987 134.726 206.087 134.756 206.159 134.756C206.271 134.756 206.371 134.708 206.459 134.612C206.551 134.516 206.643 134.36 206.735 134.144L206.795 134L205.499 131.3H206.075L206.867 133.016C206.883 133.044 206.937 133.18 207.029 133.424C207.065 133.292 207.107 133.154 207.155 133.01L207.779 131.3ZM209.329 134H208.819V131.3H209.329V132.38H209.917C209.973 132.036 210.123 131.76 210.367 131.552C210.615 131.344 210.919 131.24 211.279 131.24C211.703 131.24 212.043 131.374 212.299 131.642C212.559 131.91 212.689 132.246 212.689 132.65C212.689 133.054 212.557 133.392 212.293 133.664C212.033 133.928 211.695 134.06 211.279 134.06C210.899 134.06 210.587 133.95 210.343 133.73C210.099 133.51 209.955 133.22 209.911 132.86H209.329V134ZM210.679 131.978C210.519 132.15 210.439 132.374 210.439 132.65C210.439 132.926 210.519 133.15 210.679 133.322C210.839 133.494 211.045 133.58 211.297 133.58C211.549 133.58 211.753 133.496 211.909 133.328C212.069 133.156 212.149 132.93 212.149 132.65C212.149 132.374 212.071 132.15 211.915 131.978C211.759 131.806 211.553 131.72 211.297 131.72C211.045 131.72 210.839 131.806 210.679 131.978ZM213.245 133.676C213.245 133.592 213.277 133.518 213.341 133.454C213.409 133.39 213.491 133.358 213.587 133.358C213.671 133.358 213.745 133.39 213.809 133.454C213.873 133.518 213.905 133.592 213.905 133.676C213.905 133.772 213.875 133.854 213.815 133.922C213.755 133.986 213.679 134.018 213.587 134.018C213.491 134.018 213.409 133.986 213.341 133.922C213.277 133.854 213.245 133.772 213.245 133.676Z" fill="#848484"/>
<path d="M119.16 126H106.35V124.05C109.07 121.39 111.07 119.27 112.35 117.69C114.61 114.85 115.74 112.47 115.74 110.55C115.74 109.55 115.43 108.74 114.81 108.12C114.21 107.48 113.38 107.16 112.32 107.16C111.4 107.16 110.59 107.46 109.89 108.06C109.21 108.64 108.77 109.46 108.57 110.52L106.53 109.68C106.77 108.18 107.44 106.99 108.54 106.11C109.66 105.21 110.99 104.76 112.53 104.76C114.37 104.76 115.79 105.29 116.79 106.35C117.79 107.41 118.29 108.65 118.29 110.07C118.29 112.77 117 115.64 114.42 118.68C113.26 120.04 112.33 121.06 111.63 121.74C111.03 122.34 110.31 123.01 109.47 123.75H119.16V126Z" fill="#D9D9D9"/>
<path d="M199.15 143.8C199.039 143.717 198.882 143.74 198.8 143.85C198.717 143.961 198.74 144.118 198.85 144.2L199.15 143.8ZM280.932 205.202C280.491 205.792 280.612 206.628 281.202 207.068C281.792 207.509 282.628 207.388 283.068 206.798C283.509 206.208 283.388 205.372 282.798 204.932C282.208 204.491 281.372 204.612 280.932 205.202ZM198.85 144.2L281.85 206.2L282.15 205.8L199.15 143.8L198.85 144.2Z" fill="#525252"/>
</g>
</svg>
