<svg width="710" height="619" viewBox="0 0 710 619" fill="none" xmlns="http://www.w3.org/2000/svg">
<path d="M150 204.511C150 204.511 254.869 278.263 257.388 278.92C259.906 279.577 264.346 276.028 264.995 274.741C265.644 273.453 198.475 215.103 185.493 206.43C172.511 197.782 157.296 192 157.296 192L150 204.511Z" fill="#D6D6D6" stroke="#26144D" stroke-width="1.5" stroke-linecap="round" stroke-linejoin="round"/>
<path d="M129.677 259.26C128.238 261.013 125.888 262.634 122.122 262.886C118.165 263.15 115.622 261.794 114.027 260.233V257.291C115.598 258.864 118.153 260.233 122.122 259.956C125.804 259.704 128.13 258.155 129.569 256.45L129.677 259.26Z" fill="#D2233C" stroke="#26144D" stroke-width="1.5" stroke-linecap="round" stroke-linejoin="round"/>
<path d="M128.73 233.671C126.092 231.882 123.43 229.817 120.815 227.439C118.453 225.29 116.127 222.924 113.896 220.475L113.788 188.763L127.243 193.458L128.73 233.683V233.671Z" fill="#999999" stroke="#26144D" stroke-width="1.5" stroke-linecap="round" stroke-linejoin="round"/>
<path d="M129.581 256.462C128.13 258.167 125.816 259.716 122.134 259.968C118.165 260.245 115.622 258.876 114.027 257.303L113.896 220.487C116.126 222.937 118.441 225.29 120.815 227.452C123.429 229.829 126.103 231.895 128.73 233.684L129.569 256.474L129.581 256.462Z" fill="#D6D6D6" stroke="#26144D" stroke-width="1.5" stroke-linecap="round" stroke-linejoin="round"/>
<path d="M134.271 440.456C134.271 440.456 131.632 445.151 124.905 445.151C118.765 445.151 115.251 441.044 115.251 441.044L114.04 260.245C115.635 261.806 118.177 263.175 122.135 262.899C125.9 262.647 128.251 261.026 129.69 259.272L134.283 440.468L134.271 440.456Z" fill="#D6D6D6" stroke="#26144D" stroke-width="1.5" stroke-linecap="round" stroke-linejoin="round"/>
<path d="M133.91 197.168L123.741 201.947L78.3867 172.649L71.3594 155.646V155.634L133.91 197.168Z" fill="#999999" stroke="#26144D" stroke-width="1.5" stroke-linecap="round" stroke-linejoin="round"/>
<path d="M144.223 171.76L143.936 176.947L143.048 192.857L133.91 197.168L71.3594 155.634L76.9117 145.103L95.0558 137.046L102.935 141.441L104.35 145.739L104.422 145.98L144.223 171.76Z" fill="#D6D6D6" stroke="#26144D" stroke-width="1.5" stroke-linecap="round" stroke-linejoin="round"/>
<path d="M104.23 145.788L81.457 155.79L83.5077 149.642L102.671 141.297" fill="#999999"/>
<path d="M104.23 145.788L81.457 155.79L83.5077 149.642L102.671 141.297" stroke="#26144D" stroke-width="1.5" stroke-linecap="round" stroke-linejoin="round"/>
<path d="M144.224 171.76L143.936 176.947L138.084 185.388L128.418 186.121L81.457 155.79L104.35 145.739L104.422 145.979L144.224 171.76Z" fill="#EFEFEF" stroke="#26144D" stroke-width="1.5" stroke-linecap="round" stroke-linejoin="round"/>
<path d="M156.072 198.285C148.517 211.133 133.503 204.06 129.449 201.815C126.931 200.878 125.324 198.165 125.324 194.07C125.324 186.806 130.409 177.98 136.705 174.354C140.039 172.432 143.037 172.348 145.111 173.789C145.123 173.789 145.135 173.801 145.159 173.813C148.133 175.602 163.519 185.629 156.084 198.285H156.072Z" fill="#EFEFEF" stroke="#26144D" stroke-width="1.5" stroke-linecap="round" stroke-linejoin="round"/>
<path d="M124.294 199.48C124.294 199.48 123.768 196.22 124.123 194.866C124.479 193.512 127.762 190.834 128.985 190.063C130.207 189.291 138.182 195.827 137.997 198.898C137.826 201.968 128.459 206 128.459 206L124.294 199.464V199.48Z" fill="#D2233C" stroke="#26144D" stroke-width="1.5" stroke-linecap="round" stroke-linejoin="round"/>
<path d="M124.437 195C127.501 195.504 132.917 201.694 131.867 203.478C130.839 205.241 128.782 209.354 123.408 214.202C119.882 217.392 6.37321 298.438 5.34474 298.963C4.31628 299.487 1 294.346 1 293.066C1 291.785 75.2595 215.482 89.8679 207.025C104.455 198.568 124.437 195 124.437 195Z" fill="#EFEFEF" stroke="#26144D" stroke-width="1.5" stroke-linecap="round" stroke-linejoin="round"/>
<path d="M143.338 165C141.362 165.567 139.563 175.092 140.094 176.21C140.625 177.328 142.63 178.583 146.582 178.89C150.534 179.196 152.51 179.012 152.878 176.394C153.232 173.775 152.701 165.184 152.701 165.184L143.353 165H143.338Z" fill="#D2233C" stroke="#26144D" stroke-width="1.5" stroke-linecap="round" stroke-linejoin="round"/>
<path d="M190.862 1.26996C192.648 1.01753 195.484 0.491636 195.988 2.30072C196.492 4.1098 180.862 53.3757 168.047 100.349C155.231 147.322 152.164 167.327 152.164 167.327C152.164 167.327 145.756 169.388 142.164 166.296C138.572 163.204 139.706 147.911 143.698 132.933C154.979 90.5881 190.862 1.26996 190.862 1.26996Z" fill="#EFEFEF" stroke="#26144D" stroke-width="1.5" stroke-linecap="round" stroke-linejoin="round"/>
<path d="M365 288.511C365 288.511 469.869 362.263 472.388 362.92C474.906 363.577 479.346 360.028 479.995 358.741C480.644 357.453 413.475 299.103 400.493 290.43C387.511 281.782 372.296 276 372.296 276L365 288.511Z" fill="#D6D6D6" stroke="#26144D" stroke-width="1.5" stroke-linecap="round" stroke-linejoin="round"/>
<path d="M344.677 343.26C343.238 345.013 340.888 346.634 337.122 346.886C333.165 347.15 330.622 345.794 329.027 344.233V341.291C330.598 342.864 333.153 344.233 337.122 343.956C340.804 343.704 343.13 342.155 344.569 340.45L344.677 343.26Z" fill="#D2233C" stroke="#26144D" stroke-width="1.5" stroke-linecap="round" stroke-linejoin="round"/>
<path d="M343.73 317.671C341.092 315.882 338.43 313.817 335.815 311.439C333.453 309.29 331.127 306.924 328.896 304.475L328.788 272.763L342.243 277.458L343.73 317.683V317.671Z" fill="#999999" stroke="#26144D" stroke-width="1.5" stroke-linecap="round" stroke-linejoin="round"/>
<path d="M344.581 340.462C343.13 342.167 340.816 343.716 337.134 343.968C333.165 344.245 330.622 342.876 329.027 341.303L328.896 304.487C331.126 306.937 333.441 309.29 335.815 311.452C338.429 313.829 341.103 315.895 343.73 317.684L344.569 340.474L344.581 340.462Z" fill="#D6D6D6" stroke="#26144D" stroke-width="1.5" stroke-linecap="round" stroke-linejoin="round"/>
<path d="M349.271 524.456C349.271 524.456 346.632 529.151 339.905 529.151C333.765 529.151 330.251 525.044 330.251 525.044L329.04 344.245C330.635 345.806 333.177 347.175 337.135 346.899C340.9 346.647 343.251 345.026 344.69 343.272L349.283 524.468L349.271 524.456Z" fill="#D6D6D6" stroke="#26144D" stroke-width="1.5" stroke-linecap="round" stroke-linejoin="round"/>
<path d="M348.91 281.168L338.741 285.947L293.387 256.649L286.359 239.646V239.634L348.91 281.168Z" fill="#999999" stroke="#26144D" stroke-width="1.5" stroke-linecap="round" stroke-linejoin="round"/>
<path d="M359.223 255.76L358.936 260.947L358.048 276.857L348.91 281.168L286.359 239.634L291.912 229.103L310.056 221.046L317.935 225.441L319.35 229.739L319.422 229.98L359.223 255.76Z" fill="#D6D6D6" stroke="#26144D" stroke-width="1.5" stroke-linecap="round" stroke-linejoin="round"/>
<path d="M319.23 229.788L296.457 239.79L298.508 233.642L317.671 225.297" fill="#999999"/>
<path d="M319.23 229.788L296.457 239.79L298.508 233.642L317.671 225.297" stroke="#26144D" stroke-width="1.5" stroke-linecap="round" stroke-linejoin="round"/>
<path d="M359.224 255.76L358.936 260.947L353.084 269.388L343.418 270.121L296.457 239.79L319.35 229.739L319.422 229.979L359.224 255.76Z" fill="#EFEFEF" stroke="#26144D" stroke-width="1.5" stroke-linecap="round" stroke-linejoin="round"/>
<path d="M371.072 282.285C363.517 295.133 348.503 288.06 344.449 285.815C341.931 284.878 340.324 282.165 340.324 278.07C340.324 270.806 345.409 261.98 351.705 258.354C355.039 256.432 358.037 256.348 360.111 257.789C360.123 257.789 360.135 257.801 360.159 257.813C363.133 259.602 378.519 269.629 371.084 282.285H371.072Z" fill="#EFEFEF" stroke="#26144D" stroke-width="1.5" stroke-linecap="round" stroke-linejoin="round"/>
<path d="M339.294 283.48C339.294 283.48 338.768 280.22 339.123 278.866C339.479 277.512 342.762 274.834 343.985 274.063C345.207 273.291 353.182 279.827 352.997 282.898C352.826 285.968 343.459 290 343.459 290L339.294 283.464V283.48Z" fill="#D2233C" stroke="#26144D" stroke-width="1.5" stroke-linecap="round" stroke-linejoin="round"/>
<path d="M339.437 279C342.501 279.504 347.917 285.694 346.867 287.478C345.839 289.241 343.782 293.354 338.408 298.202C334.882 301.392 221.373 382.438 220.345 382.963C219.316 383.487 216 378.346 216 377.066C216 375.785 290.259 299.482 304.868 291.025C319.455 282.568 339.437 279 339.437 279Z" fill="#EFEFEF" stroke="#26144D" stroke-width="1.5" stroke-linecap="round" stroke-linejoin="round"/>
<path d="M358.338 249C356.362 249.567 354.563 259.092 355.094 260.21C355.625 261.328 357.63 262.583 361.582 262.89C365.534 263.196 367.51 263.012 367.878 260.394C368.232 257.775 367.701 249.184 367.701 249.184L358.353 249H358.338Z" fill="#D2233C" stroke="#26144D" stroke-width="1.5" stroke-linecap="round" stroke-linejoin="round"/>
<path d="M405.862 85.27C407.648 85.0175 410.484 84.4916 410.988 86.3007C411.492 88.1098 395.862 137.376 383.047 184.349C370.231 231.322 367.164 251.327 367.164 251.327C367.164 251.327 360.756 253.388 357.164 250.296C353.572 247.204 354.706 231.911 358.698 216.933C369.979 174.588 405.862 85.27 405.862 85.27Z" fill="#EFEFEF" stroke="#26144D" stroke-width="1.5" stroke-linecap="round" stroke-linejoin="round"/>
<path d="M594 377.511C594 377.511 698.869 451.263 701.388 451.92C703.906 452.577 708.346 449.028 708.995 447.741C709.644 446.453 642.475 388.103 629.493 379.43C616.511 370.782 601.296 365 601.296 365L594 377.511Z" fill="#D6D6D6" stroke="#26144D" stroke-width="1.5" stroke-linecap="round" stroke-linejoin="round"/>
<path d="M573.677 432.26C572.238 434.013 569.888 435.634 566.122 435.886C562.165 436.15 559.622 434.794 558.027 433.233V430.291C559.598 431.864 562.153 433.233 566.122 432.956C569.804 432.704 572.13 431.155 573.569 429.45L573.677 432.26Z" fill="#D2233C" stroke="#26144D" stroke-width="1.5" stroke-linecap="round" stroke-linejoin="round"/>
<path d="M572.73 406.671C570.092 404.882 567.43 402.817 564.815 400.439C562.453 398.29 560.127 395.924 557.896 393.475L557.788 361.763L571.243 366.458L572.73 406.683V406.671Z" fill="#999999" stroke="#26144D" stroke-width="1.5" stroke-linecap="round" stroke-linejoin="round"/>
<path d="M573.581 429.462C572.13 431.167 569.816 432.716 566.134 432.968C562.165 433.245 559.622 431.876 558.027 430.303L557.896 393.487C560.126 395.937 562.441 398.29 564.815 400.452C567.429 402.829 570.103 404.895 572.73 406.684L573.569 429.474L573.581 429.462Z" fill="#D6D6D6" stroke="#26144D" stroke-width="1.5" stroke-linecap="round" stroke-linejoin="round"/>
<path d="M578.271 613.456C578.271 613.456 575.632 618.151 568.905 618.151C562.765 618.151 559.251 614.044 559.251 614.044L558.04 433.245C559.635 434.806 562.177 436.175 566.135 435.899C569.9 435.647 572.251 434.026 573.69 432.272L578.283 613.468L578.271 613.456Z" fill="#D6D6D6" stroke="#26144D" stroke-width="1.5" stroke-linecap="round" stroke-linejoin="round"/>
<path d="M577.91 370.168L567.741 374.947L522.387 345.649L515.359 328.646V328.634L577.91 370.168Z" fill="#999999" stroke="#26144D" stroke-width="1.5" stroke-linecap="round" stroke-linejoin="round"/>
<path d="M588.223 344.76L587.936 349.947L587.048 365.857L577.91 370.168L515.359 328.634L520.912 318.103L539.056 310.046L546.935 314.441L548.35 318.739L548.422 318.98L588.223 344.76Z" fill="#D6D6D6" stroke="#26144D" stroke-width="1.5" stroke-linecap="round" stroke-linejoin="round"/>
<path d="M548.23 318.788L525.457 328.79L527.508 322.642L546.671 314.297" fill="#999999"/>
<path d="M548.23 318.788L525.457 328.79L527.508 322.642L546.671 314.297" stroke="#26144D" stroke-width="1.5" stroke-linecap="round" stroke-linejoin="round"/>
<path d="M588.224 344.76L587.936 349.947L582.084 358.388L572.418 359.121L525.457 328.79L548.35 318.739L548.422 318.979L588.224 344.76Z" fill="#EFEFEF" stroke="#26144D" stroke-width="1.5" stroke-linecap="round" stroke-linejoin="round"/>
<path d="M600.072 371.285C592.517 384.133 577.503 377.06 573.449 374.815C570.931 373.878 569.324 371.165 569.324 367.07C569.324 359.806 574.409 350.98 580.705 347.354C584.039 345.432 587.037 345.348 589.111 346.789C589.123 346.789 589.135 346.801 589.159 346.813C592.133 348.602 607.519 358.629 600.084 371.285H600.072Z" fill="#EFEFEF" stroke="#26144D" stroke-width="1.5" stroke-linecap="round" stroke-linejoin="round"/>
<path d="M568.294 372.48C568.294 372.48 567.768 369.22 568.123 367.866C568.479 366.512 571.762 363.834 572.985 363.063C574.207 362.291 582.182 368.827 581.997 371.898C581.826 374.968 572.459 379 572.459 379L568.294 372.464V372.48Z" fill="#D2233C" stroke="#26144D" stroke-width="1.5" stroke-linecap="round" stroke-linejoin="round"/>
<path d="M568.437 368C571.501 368.504 576.917 374.694 575.867 376.478C574.839 378.241 572.782 382.354 567.408 387.202C563.882 390.392 450.373 471.438 449.345 471.963C448.316 472.487 445 467.346 445 466.066C445 464.785 519.259 388.482 533.868 380.025C548.455 371.568 568.437 368 568.437 368Z" fill="#EFEFEF" stroke="#26144D" stroke-width="1.5" stroke-linecap="round" stroke-linejoin="round"/>
<path d="M587.338 338C585.362 338.567 583.563 348.092 584.094 349.21C584.625 350.328 586.63 351.583 590.582 351.89C594.534 352.196 596.51 352.012 596.878 349.394C597.232 346.775 596.701 338.184 596.701 338.184L587.353 338H587.338Z" fill="#D2233C" stroke="#26144D" stroke-width="1.5" stroke-linecap="round" stroke-linejoin="round"/>
<path d="M634.862 174.27C636.648 174.018 639.484 173.492 639.988 175.301C640.492 177.11 624.862 226.376 612.047 273.349C599.231 320.322 596.164 340.327 596.164 340.327C596.164 340.327 589.756 342.388 586.164 339.296C582.572 336.204 583.706 320.911 587.698 305.933C598.979 263.588 634.862 174.27 634.862 174.27Z" fill="#EFEFEF" stroke="#26144D" stroke-width="1.5" stroke-linecap="round" stroke-linejoin="round"/>
</svg>
