<svg width="390" height="769" fill="none" xmlns="http://www.w3.org/2000/svg"><mask id="a" style="mask-type:alpha" maskUnits="userSpaceOnUse" x="0" y="0" width="390" height="769"><path fill="#D9D9D9" d="M0 0h390v769H0z"/></mask><g mask="url(#a)"><mask id="b" style="mask-type:alpha" maskUnits="userSpaceOnUse" x="0" y="-1" width="390" height="770"><path fill="#D9D9D9" d="M0-1h390v770H0z"/></mask><g mask="url(#b)"><path d="M513.5 1212c-165.628 0-324.472-64.48-441.588-179.25C-45.205 917.977-111 762.312-111 600c0-162.313 65.795-317.977 182.912-432.749C189.028 52.478 347.872-12 513.5-12v1224z" fill="#8ED760"/></g><g clip-path="url(#clip0_1205_49)"><path d="M205.253 392.086s-82.789 57.558-84.798 58.061c-2.008.502-5.504-2.251-6.006-3.256-.502-1.005 52.524-46.553 62.78-53.307 10.256-6.754 22.259-11.267 22.259-11.267l5.756 9.759.009.01z" fill="#D6D6D6" stroke="#26144D" stroke-width="1.5" stroke-linecap="round" stroke-linejoin="round"/><path d="M234.861 489.743c2.463 2.985 6.47 5.768 12.912 6.193 6.759.454 11.105-1.874 13.828-4.541l.02-5.025c-2.714 2.677-7.069 5.025-13.848 4.551-6.287-.434-10.266-3.072-12.738-5.981l-.183 4.793.009.01z" fill="#4DA4FF" stroke="#26144D" stroke-width="1.5" stroke-linecap="round" stroke-linejoin="round"/><path d="M236.484 446.031a123.362 123.362 0 0013.539-10.658c4.047-3.672 8.016-7.71 11.821-11.894l.183-54.177-23.013 8.01-2.53 68.709v.01z" fill="#999" stroke="#26144D" stroke-width="1.5" stroke-linecap="round" stroke-linejoin="round"/><path d="M235.045 484.95c2.472 2.909 6.441 5.546 12.737 5.981 6.78.464 11.135-1.874 13.849-4.551l.212-62.892c-3.805 4.184-7.774 8.213-11.82 11.895a124.76 124.76 0 01-13.539 10.657l-1.439 38.92v-.01z" fill="#D6D6D6" stroke="#26144D" stroke-width="1.5" stroke-linecap="round" stroke-linejoin="round"/><path d="M227.01 799.265s4.5 8.01 16.011 8.01c10.507 0 16.504-7.014 16.504-7.014l2.076-308.856c-2.723 2.667-7.069 4.995-13.829 4.541-6.441-.435-10.458-3.208-12.911-6.194l-7.851 309.523v-.01z" fill="#D6D6D6" stroke="#26144D" stroke-width="1.5" stroke-linecap="round" stroke-linejoin="round"/><path d="M227.639 383.66l17.382 8.175 77.536-50.051 12.013-29.035-.009-.029-106.922 70.94z" fill="#999" stroke="#26144D" stroke-width="1.5" stroke-linecap="round" stroke-linejoin="round"/><path d="M210.004 340.277l.492 8.85 1.507 27.19 15.635 7.343 106.922-70.94-9.493-17.992-31.018-13.759-13.472 7.518-2.404 7.333-.136.416-68.033 44.041z" fill="#D6D6D6" stroke="#26144D" stroke-width="1.5" stroke-linecap="round" stroke-linejoin="round"/><path d="M278.375 295.897L317.312 313l-3.506-10.513-32.766-14.261" fill="#999"/><path d="M278.375 295.897L317.312 313l-3.506-10.513-32.766-14.261" stroke="#26144D" stroke-width="1.5" stroke-linecap="round" stroke-linejoin="round"/><path d="M210.004 340.277l.492 8.85 10.005 14.416 16.523 1.266L317.312 313l-39.139-17.18-.136.416-68.033 44.041z" fill="#EFEFEF" stroke="#26144D" stroke-width="1.5" stroke-linecap="round" stroke-linejoin="round"/><path d="M189.744 385.573c12.911 21.953 38.579 9.856 45.513 6.03 4.307-1.614 7.059-6.242 7.059-13.218 0-12.407-8.701-27.49-19.449-33.683-5.698-3.295-10.825-3.421-14.379-.957-.02.01-.048.02-.068.049-5.089 3.053-31.375 20.184-18.676 41.789v-.01z" fill="#EFEFEF" stroke="#26144D" stroke-width="1.5" stroke-linecap="round" stroke-linejoin="round"/><path d="M245.774 386.076s.753-4.252.251-6.01c-.502-1.749-5.253-5.257-7.001-6.262-1.748-1.004-13.259 7.508-13.008 11.508.251 4 13.761 9.257 13.761 9.257l6.007-8.513-.01.02z" fill="#4DA4FF" stroke="#26144D" stroke-width="1.5" stroke-linecap="round" stroke-linejoin="round"/><path d="M242.52 383.322c-3.003.503-8.276 6.551-7.262 8.281 1.014 1.729 3.013 5.739 8.267 10.493 3.447 3.121 114.309 82.342 115.304 82.835.995.493 4.249-4.502 4.249-5.759 0-1.256-72.533-75.829-86.797-84.091-14.253-8.261-33.77-11.759-33.77-11.759h.009z" fill="#EFEFEF" stroke="#26144D" stroke-width="1.5" stroke-linecap="round" stroke-linejoin="round"/><path d="M215.008 330.518c2.752.753 5.253 13.517 4.5 15.015-.753 1.497-3.525 3.179-9.01 3.594-5.485.416-8.247.164-8.749-3.343-.502-3.507.251-15.015.251-15.015l13.008-.251z" fill="#4DA4FF" stroke="#26144D" stroke-width="1.5" stroke-linecap="round" stroke-linejoin="round"/><path d="M165.235 175.099c-1.748-.251-4.5-.754-5.002 1.005-.502 1.759 14.756 49.8 27.261 95.599 12.506 45.799 15.51 65.317 15.51 65.317s6.257 2 9.753-1.005c3.496-3.005 2.395-17.923-1.497-32.533-11.009-41.296-46.025-128.383-46.025-128.383z" fill="#EFEFEF" stroke="#26144D" stroke-width="1.5" stroke-linecap="round" stroke-linejoin="round"/><path d="M256.908 573.969c-.753 40.475-.753 80.11-.888 120.518m1.343-181.526c0 10.213 0 19.818-.222 30.601" stroke="#fff" stroke-width="1.5" stroke-linecap="round" stroke-linejoin="round"/><path d="M121.17 416.396c-20.714-36.466-33.49-77.357-33.49-114.315m228.001 178.85c-16.59 42.234-59.747 54.254-110.369 25.006-19.701-11.382-38.271-27.702-54.582-47.007m-11.269-239.568c18.792-3.836 41.457.666 65.861 14.764 56.85 32.842 104.276 106.826 115.246 175.091M177.22 426.802c-8.788-9.604-16.62-20.706-23.013-32.513-11.192-20.658-18.019-43.471-18.019-64.187 0-32.62 16.928-50.891 41.187-49.278" stroke="#fff" stroke-width="1.86" stroke-linecap="round" stroke-linejoin="round"/><path d="M226.662 306.381c12.004 11.43 22.568 25.721 30.69 41.132 10.642 20.195 17.093 42.321 17.093 62.458 0 10.348-1.7 19.257-4.8 26.532-7.3 17.161-22.356 25.325-41.158 22.185M67.97 438.02c-31.067-56.592-50.072-119.349-50.072-176.25m187.424 324.789c-31.405-18.146-61.013-44.167-87.01-74.96m274.422-33.297c0 72.129-30.536 118.393-77.478 130.625M67.807 143.474c34.234-22.909 83.175-21.354 137.515 10.039" stroke="#fff" stroke-width="1.86" stroke-linecap="round" stroke-linejoin="round"/><path d="M242.211 233.643c60.182 53.51 104.469 142.597 104.469 218.05 0 50.736-20.028 84.506-51.443 96.314m-89.915-14.649C127.245 488.255 63.953 378.578 63.953 288.37c0-67.646 35.605-105.126 86.343-100.613m24.227 116.44l169.046-111.146m25.351 201.75l169.036-111.146M131.059 678.698l169.045-111.136m28.97-172.761L498.12 283.655M45.256 312.874l108.747-71.501m175.882-6.31l70.293-42.949" stroke="#fff" stroke-width="1.86" stroke-linecap="round" stroke-linejoin="round"/></g></g><defs><clipPath id="clip0_1205_49"><path fill="#fff" transform="translate(17 127)" d="M0 0h521.863v681H0z"/></clipPath></defs></svg>