<svg width="1447" height="863" viewBox="0 0 1447 863" fill="none" xmlns="http://www.w3.org/2000/svg">
<mask id="mask0_1324_81" style="mask-type:alpha" maskUnits="userSpaceOnUse" x="0" y="0" width="1447" height="863">
<rect width="1447" height="863" fill="#D9D9D9"/>
</mask>
<g mask="url(#mask0_1324_81)">
<g clip-path="url(#clip0_1324_81)">
<path d="M823.766 185.428C796.939 196.849 764.045 211.077 761.182 212.709C755.646 215.877 749.333 254.617 749.333 254.617C749.333 254.617 486.994 391.4 471.201 400.107C460.869 405.78 445.379 431.979 435.9 449.452L432.278 443.362C432.278 443.362 449.664 405.4 465.476 396.712C481.269 388.004 743.607 251.221 743.607 251.221C743.607 251.221 749.92 212.481 755.456 209.313C759.646 206.923 797.792 190.493 817.794 182.298C819.595 183.227 821.586 184.29 823.766 185.428Z" fill="#EFEFEF" stroke="#26144D" stroke-width="1.5" stroke-linecap="round" stroke-linejoin="round"/>
<path d="M900.077 389.029C900.077 390.603 580.842 560.871 576.102 563.489C571.363 566.126 519.206 559.809 519.206 559.809L506.086 567.34L435.899 449.452C445.379 431.98 460.869 405.78 471.201 400.108C486.994 391.4 749.332 254.617 749.332 254.617C749.332 254.617 755.646 215.878 761.182 212.709C764.045 211.078 796.939 196.849 823.766 185.429C858.765 203.755 939.626 246.213 941.692 248.281C944.327 250.918 901.12 308.382 899.015 311.55C896.911 314.699 900.077 387.435 900.077 389.029Z" fill="#999999" stroke="#26144D" stroke-width="1.5" stroke-linecap="round" stroke-linejoin="round"/>
<path d="M809.452 358.238L841.436 339.551L841.247 313.693L809.263 332.399L809.452 358.238Z" fill="#004DA7" stroke="#26144D" stroke-width="1.5" stroke-linecap="round" stroke-linejoin="round"/>
<path d="M809.263 332.399L841.247 313.693L811.993 296.809L780.009 315.495L809.263 332.399Z" fill="#248AFF" stroke="#26144D" stroke-width="1.5" stroke-linecap="round" stroke-linejoin="round"/>
<path d="M780.009 315.495L780.198 341.353L809.452 358.237L809.263 332.399L780.009 315.495Z" fill="#0069E8" stroke="#26144D" stroke-width="1.5" stroke-linecap="round" stroke-linejoin="round"/>
<path d="M849.305 381.269L881.289 362.582L881.099 336.725L849.115 355.411L849.305 381.269Z" fill="#004DA7" stroke="#26144D" stroke-width="1.5" stroke-linecap="round" stroke-linejoin="round"/>
<path d="M849.115 355.411L881.099 336.725L851.826 319.821L819.842 338.508L849.115 355.411Z" fill="#248AFF" stroke="#26144D" stroke-width="1.5" stroke-linecap="round" stroke-linejoin="round"/>
<path d="M819.842 338.508L820.05 364.366L849.304 381.269L849.115 355.411L819.842 338.508Z" fill="#0069E8" stroke="#26144D" stroke-width="1.5" stroke-linecap="round" stroke-linejoin="round"/>
<path d="M889.157 404.281L921.141 385.594L920.932 359.736L888.948 378.423L889.157 404.281Z" fill="#004DA7" stroke="#26144D" stroke-width="1.5" stroke-linecap="round" stroke-linejoin="round"/>
<path d="M888.948 378.423L920.932 359.736L891.678 342.833L859.694 361.539L888.948 378.423Z" fill="#248AFF" stroke="#26144D" stroke-width="1.5" stroke-linecap="round" stroke-linejoin="round"/>
<path d="M859.694 361.539L859.884 387.378L889.157 404.281L888.948 378.424L859.694 361.539Z" fill="#0069E8" stroke="#26144D" stroke-width="1.5" stroke-linecap="round" stroke-linejoin="round"/>
<path d="M809.452 323.16L841.436 304.473L841.247 215.289L809.263 233.976L809.452 323.16Z" fill="#004DA7" stroke="#26144D" stroke-width="1.5" stroke-linecap="round" stroke-linejoin="round"/>
<path d="M809.263 233.976L841.247 215.289L811.993 198.386L780.009 217.072L809.263 233.976Z" fill="#248AFF" stroke="#26144D" stroke-width="1.5" stroke-linecap="round" stroke-linejoin="round"/>
<path d="M780.009 217.072L780.198 306.256L809.452 323.16L809.263 233.976L780.009 217.072Z" fill="#0069E8" stroke="#26144D" stroke-width="1.5" stroke-linecap="round" stroke-linejoin="round"/>
<path d="M849.305 346.192L881.289 327.505L881.099 238.302L849.115 256.989L849.305 346.192Z" fill="#004DA7" stroke="#26144D" stroke-width="1.5" stroke-linecap="round" stroke-linejoin="round"/>
<path d="M849.115 256.988L881.099 238.301L851.826 221.397L819.842 240.084L849.115 256.988Z" fill="#248AFF" stroke="#26144D" stroke-width="1.5" stroke-linecap="round" stroke-linejoin="round"/>
<path d="M819.842 240.085L820.05 329.288L849.304 346.191L849.115 256.988L819.842 240.085Z" fill="#0069E8" stroke="#26144D" stroke-width="1.5" stroke-linecap="round" stroke-linejoin="round"/>
<path d="M889.157 369.204L921.141 350.517L920.932 261.333L888.948 280.02L889.157 369.204Z" fill="#004DA7" stroke="#26144D" stroke-width="1.5" stroke-linecap="round" stroke-linejoin="round"/>
<path d="M888.948 280.019L920.932 261.332L891.678 244.429L859.694 263.115L888.948 280.019Z" fill="#248AFF" stroke="#26144D" stroke-width="1.5" stroke-linecap="round" stroke-linejoin="round"/>
<path d="M859.694 263.116L859.884 352.3L889.157 369.204L888.948 280.02L859.694 263.116Z" fill="#0069E8" stroke="#26144D" stroke-width="1.5" stroke-linecap="round" stroke-linejoin="round"/>
<path d="M749.977 448.523L816.846 409.328L816.561 371.67L749.692 410.846L749.977 448.523Z" fill="#004DA7" stroke="#26144D" stroke-width="1.5" stroke-linecap="round" stroke-linejoin="round"/>
<path d="M749.693 410.846L816.562 371.67L750.717 332.665L683.848 371.841L749.693 410.846Z" fill="#248AFF" stroke="#26144D" stroke-width="1.5" stroke-linecap="round" stroke-linejoin="round"/>
<path d="M683.848 371.841L684.132 409.518L749.977 448.523L749.693 410.846L683.848 371.841Z" fill="#0069E8" stroke="#26144D" stroke-width="1.5" stroke-linecap="round" stroke-linejoin="round"/>
<path d="M700.076 396.541C703.887 398.912 707.11 404.509 707.243 409.024C707.299 411.699 706.276 413.387 704.607 413.824L627.747 458.122L617.736 440.668L694.597 396.37C695.81 395.156 697.782 395.118 700.076 396.522V396.541Z" fill="#EFEFEF" stroke="#26144D" stroke-width="1.5" stroke-linecap="round" stroke-linejoin="round"/>
<path d="M627.935 458.181C630.559 456.673 630.417 451.495 627.618 446.616C624.818 441.736 620.421 439.003 617.797 440.51C615.172 442.018 615.314 447.196 618.114 452.075C620.913 456.955 625.31 459.688 627.935 458.181Z" fill="white" stroke="#26144D" stroke-width="1.5" stroke-linecap="round" stroke-linejoin="round"/>
<path d="M732.478 416.688C736.289 419.06 739.512 424.656 739.645 429.172C739.702 431.846 738.678 433.535 737.01 433.971L660.149 478.269L650.139 460.816L726.999 416.518C728.212 415.304 730.184 415.266 732.478 416.669V416.688Z" fill="#EFEFEF" stroke="#26144D" stroke-width="1.5" stroke-linecap="round" stroke-linejoin="round"/>
<path d="M660.344 478.348C662.968 476.84 662.826 471.662 660.027 466.783C657.227 461.903 652.83 459.17 650.206 460.677C647.582 462.185 647.724 467.363 650.523 472.242C653.323 477.122 657.719 479.855 660.344 478.348Z" fill="white" stroke="#26144D" stroke-width="1.5" stroke-linecap="round" stroke-linejoin="round"/>
<path d="M518.41 886.134L520.325 574.606L653.779 550.36L664.32 976.266" fill="#D6D6D6"/>
<path d="M518.41 886.134L520.325 574.606L653.779 550.36L664.32 976.266" stroke="#26144D" stroke-width="1.5" stroke-linecap="round" stroke-linejoin="round"/>
<path d="M939.948 241.735C939.948 241.735 894.901 305.783 893.726 310.924C892.551 316.065 893.726 381.288 893.726 384.855C893.726 388.422 577.26 556.033 573.714 558.405C570.169 560.776 537.768 555.635 537.768 555.635L539.341 571.058L579.25 576.996L783.497 469.467L915.055 392.387L936.782 322.8L953.372 260.346L948.234 245.321L939.93 241.754L939.948 241.735Z" fill="#EFEFEF" stroke="#26144D" stroke-width="1.5" stroke-linecap="round" stroke-linejoin="round"/>
<path d="M985.394 296.296C986.19 303.411 933.237 402.232 927.72 410.143C922.184 418.054 597.432 591.205 594.266 593.577C591.1 595.948 520.78 592.002 520.78 592.002L506.087 567.34L519.207 559.808C519.207 559.808 571.363 566.125 576.103 563.488C580.843 560.87 900.077 390.603 900.077 389.028C900.077 387.454 896.854 314.661 899.016 311.549C904.4 303.809 942.717 247.673 941.939 246.876C939.797 244.732 856.149 202.445 823.217 185.201C822.269 184.707 818.648 182.734 817.795 182.298C824.222 179.661 828.772 177.878 829.739 177.688C833.682 176.91 947.456 239.364 951.419 240.938C955.362 242.532 984.597 289.182 985.394 296.296Z" fill="#EFEFEF" stroke="#26144D" stroke-width="1.5" stroke-linecap="round" stroke-linejoin="round"/>
<path d="M427.539 465.502C427.539 465.502 430.876 458.71 435.9 449.452" stroke="#26144D" stroke-width="1.5" stroke-linecap="round" stroke-linejoin="round"/>
<path d="M802.303 329.481C808.678 325.798 808.676 313.853 802.299 302.801C795.923 291.749 785.585 285.776 779.211 289.459C772.836 293.141 772.837 305.086 779.214 316.138C785.591 327.19 795.928 333.164 802.303 329.481Z" fill="#F01131" stroke="#26144D" stroke-width="1.5" stroke-linecap="round" stroke-linejoin="round"/>
<path d="M803.992 343.042C803.992 354.843 799.65 362.981 792.73 366.415L733.312 401.493L683.014 315.325L743.967 279.109V279.147C750.357 275.656 759.059 276.263 768.652 281.803C788.18 293.091 803.992 320.505 803.992 343.042Z" fill="#E20133" stroke="#26144D" stroke-width="1.5" stroke-linecap="round" stroke-linejoin="round"/>
<path d="M733.83 401.404C747.631 393.43 747.632 367.576 733.831 343.658C720.031 319.739 697.655 306.813 683.853 314.786C670.052 322.76 670.051 348.614 683.851 372.532C697.652 396.451 720.028 409.377 733.83 401.404Z" fill="#BD0037" stroke="#26144D" stroke-width="1.5" stroke-linecap="round" stroke-linejoin="round"/>
<path d="M679.753 336.706L684.512 348.108L706.144 399.975L712.495 409.613L722.411 403.769L722.259 364.423C722.146 352.433 713.595 337.939 703.168 332.039C700.172 330.351 697.366 329.554 694.863 329.554C692.361 329.554 690.389 330.294 688.702 331.659L679.753 336.687V336.706Z" fill="#E20133" stroke="#26144D" stroke-width="1.5" stroke-linecap="round" stroke-linejoin="round"/>
<path d="M706.144 399.975L684.512 348.107" stroke="#26144D" stroke-width="1.5" stroke-linecap="round" stroke-linejoin="round"/>
<path d="M674.975 387.967L712.495 409.632L712.343 370.286C712.229 358.296 703.679 343.802 693.251 337.902C682.824 332.002 674.463 336.934 674.557 348.924L674.975 387.948V387.967Z" fill="#BD0037" stroke="#26144D" stroke-width="1.5" stroke-linecap="round" stroke-linejoin="round"/>
<path d="M675.278 350.897L678.691 357.1L689.479 376.774L693.29 383.698L700.153 379.809C703.167 378.747 705.082 375.559 705.082 370.76C705.082 362.317 699.167 352.054 691.849 347.842C687.772 345.49 684.132 345.509 681.724 347.444L675.297 350.935L675.278 350.897Z" fill="#E20133" stroke="#26144D" stroke-width="1.5" stroke-linecap="round" stroke-linejoin="round"/>
<path d="M693.77 383.516C698.939 380.529 698.94 370.849 693.772 361.893C688.605 352.937 680.226 348.097 675.057 351.083C669.888 354.07 669.887 363.75 675.055 372.706C680.222 381.662 688.601 386.502 693.77 383.516Z" fill="#BD0037" stroke="#26144D" stroke-width="1.5" stroke-linecap="round" stroke-linejoin="round"/>
<path d="M682.312 360.154C686.123 362.526 689.346 368.122 689.479 372.637C689.536 375.312 688.512 377.001 686.844 377.437L609.983 421.735L599.973 404.282L676.833 359.983C678.047 358.769 680.018 358.731 682.312 360.135V360.154Z" fill="#EFEFEF" stroke="#26144D" stroke-width="1.5" stroke-linecap="round" stroke-linejoin="round"/>
<path d="M610.153 421.822C612.778 420.315 612.636 415.137 609.836 410.257C607.037 405.378 602.64 402.645 600.015 404.152C597.391 405.66 597.533 410.837 600.333 415.717C603.132 420.596 607.529 423.33 610.153 421.822Z" fill="white" stroke="#26144D" stroke-width="1.5" stroke-linecap="round" stroke-linejoin="round"/>
<path d="M646.839 510.843L569.41 466.109V370.873L646.839 415.607V510.843Z" fill="#999999" stroke="#26144D" stroke-width="1.5" stroke-linecap="round" stroke-linejoin="round"/>
<path d="M646.953 415.683L569.523 370.949L602.474 351.901L679.904 396.636L646.953 415.683Z" fill="#EFEFEF" stroke="#26144D" stroke-width="1.5" stroke-linecap="round" stroke-linejoin="round"/>
<path d="M679.734 491.91L646.764 510.957V415.721L679.734 396.674V491.91Z" fill="#D6D6D6" stroke="#26144D" stroke-width="1.4" stroke-linecap="round" stroke-linejoin="round"/>
<path d="M569.543 417.543L577.089 431.297L600.977 474.912L609.395 490.241L624.6 481.628C631.255 479.275 635.521 472.218 635.521 461.537C635.521 442.812 622.401 420.047 606.229 410.694C597.223 405.477 589.166 405.515 583.8 409.802H583.781L569.543 417.524V417.543Z" fill="#D6D6D6" stroke="#26144D" stroke-width="1.4" stroke-linecap="round" stroke-linejoin="round"/>
<path d="M610.486 489.813C621.937 483.214 621.954 461.767 610.525 441.91C599.096 422.054 580.548 411.307 569.098 417.906C557.647 424.506 557.629 445.952 569.058 465.809C580.488 485.665 599.035 496.412 610.486 489.813Z" fill="#999999" stroke="#26144D" stroke-width="1.5" stroke-linecap="round" stroke-linejoin="round"/>
<path d="M599.084 470.003C604.229 467.038 604.239 457.406 599.107 448.49C593.975 439.575 585.644 434.75 580.5 437.715C575.355 440.68 575.345 450.312 580.477 459.228C585.609 468.144 593.939 472.968 599.084 470.003Z" fill="#EFEFEF" stroke="#26144D" stroke-width="1.5" stroke-linecap="round" stroke-linejoin="round"/>
<path d="M562.831 435.963L568.367 446.056L585.904 478.061L592.085 489.311L603.233 482.993C608.125 481.267 611.234 476.088 611.234 468.253C611.234 454.517 601.603 437.823 589.734 430.955C583.117 427.123 577.202 427.161 573.278 430.291L562.831 435.963Z" fill="#D6D6D6" stroke="#26144D" stroke-width="1.4" stroke-linecap="round" stroke-linejoin="round"/>
<path d="M592.887 488.988C601.289 484.145 601.301 468.407 592.914 453.834C584.526 439.262 570.915 431.374 562.513 436.217C554.111 441.059 554.099 456.798 562.487 471.37C570.875 485.942 584.485 493.83 592.887 488.988Z" fill="#999999" stroke="#26144D" stroke-width="1.5" stroke-linecap="round" stroke-linejoin="round"/>
<path d="M584.522 474.455C588.297 472.28 588.302 465.21 584.534 458.664C580.766 452.117 574.652 448.574 570.877 450.75C567.103 452.925 567.097 459.995 570.865 466.541C574.633 473.088 580.748 476.631 584.522 474.455Z" fill="#EFEFEF" stroke="#26144D" stroke-width="1.5" stroke-linecap="round" stroke-linejoin="round"/>
<path d="M576.463 455.751C580.274 458.122 583.497 463.719 583.629 468.234C583.686 470.909 582.662 472.597 580.994 473.034L504.133 517.332L494.123 499.878L570.984 455.58C572.197 454.366 574.169 454.328 576.463 455.732V455.751Z" fill="#EFEFEF" stroke="#26144D" stroke-width="1.5" stroke-linecap="round" stroke-linejoin="round"/>
<path d="M504.304 517.414C506.928 515.907 506.786 510.729 503.987 505.849C501.187 500.97 496.79 498.236 494.166 499.744C491.542 501.251 491.684 506.429 494.483 511.309C497.283 516.188 501.679 518.922 504.304 517.414Z" fill="white" stroke="#26144D" stroke-width="1.5" stroke-linecap="round" stroke-linejoin="round"/>
<path d="M766.983 392.273L800.105 373.131V332.419L766.983 351.542V392.273Z" fill="#999999" stroke="#26144D" stroke-width="1.5" stroke-linecap="round" stroke-linejoin="round"/>
<path d="M766.945 351.58L800.048 332.438L785.962 324.299L752.84 343.422L766.945 351.58Z" fill="#EFEFEF" stroke="#26144D" stroke-width="1.5" stroke-linecap="round" stroke-linejoin="round"/>
<path d="M752.916 384.172L767.022 392.311V351.598L752.916 343.44V384.172Z" fill="#D6D6D6" stroke="#26144D" stroke-width="1.4" stroke-linecap="round" stroke-linejoin="round"/>
<path d="M654.195 421.811L673.003 410.94" stroke="#26144D" stroke-width="1.4" stroke-linecap="round" stroke-linejoin="round"/>
<path d="M654.195 428.925L673.003 418.055" stroke="#26144D" stroke-width="1.4" stroke-linecap="round" stroke-linejoin="round"/>
<path d="M654.195 435.641L673.003 424.771" stroke="#26144D" stroke-width="1.4" stroke-linecap="round" stroke-linejoin="round"/>
<path d="M654.195 442.755L673.003 431.885" stroke="#26144D" stroke-width="1.4" stroke-linecap="round" stroke-linejoin="round"/>
<path d="M654.195 449.471L673.003 438.601" stroke="#26144D" stroke-width="1.4" stroke-linecap="round" stroke-linejoin="round"/>
<path d="M654.195 456.585L673.003 445.715" stroke="#26144D" stroke-width="1.4" stroke-linecap="round" stroke-linejoin="round"/>
<path d="M654.195 463.32L673.003 452.449" stroke="#26144D" stroke-width="1.4" stroke-linecap="round" stroke-linejoin="round"/>
<path d="M654.195 470.434L673.003 459.563" stroke="#26144D" stroke-width="1.4" stroke-linecap="round" stroke-linejoin="round"/>
<path d="M355.627 599.383C355.627 599.383 53.7965 855.552 50.6304 860.295C47.4642 865.038 80.6617 861.358 85.9323 858.721C91.203 856.084 363.021 675.818 371.439 665.801C379.875 655.785 387.762 622.585 387.762 622.585L355.627 599.383Z" fill="#D6D6D6" stroke="#26144D" stroke-width="1.5" stroke-linecap="round" stroke-linejoin="round"/>
<path d="M272.832 -0.28162C288.909 41.626 318.144 123.051 341.938 218.287C354.451 268.352 361.769 307.073 366.016 336.156C355.968 294.912 339.928 241.014 314.542 179.282C256.072 36.9591 233.946 -2.57715 233.946 -2.57715" fill="#D6D6D6"/>
<path d="M272.832 -0.28162C288.909 41.626 318.144 123.051 341.938 218.287C354.451 268.352 361.769 307.073 366.016 336.156C355.968 294.912 339.928 241.014 314.542 179.282C256.072 36.9591 233.946 -2.57715 233.946 -2.57715" stroke="#26144D" stroke-width="1.5" stroke-linecap="round" stroke-linejoin="round"/>
<path d="M314.542 2.16605C314.542 2.16605 379.345 163.46 406.21 247.275C433.075 331.091 458.366 429.115 458.366 429.115L406.21 465.502L381.98 422.267C381.98 422.267 379.117 390.053 366.035 336.308V336.251C366.035 336.251 366.035 336.194 366.016 336.156C361.77 307.073 354.451 268.352 341.938 218.287C318.144 123.051 288.909 41.6264 272.832 -0.28125" fill="#EFEFEF"/>
<path d="M314.542 2.16605C314.542 2.16605 379.345 163.46 406.21 247.275C433.075 331.091 458.366 429.115 458.366 429.115L406.21 465.502L381.98 422.267C381.98 422.267 379.117 390.053 366.035 336.308V336.251C366.035 336.251 366.035 336.194 366.016 336.156C361.77 307.073 354.451 268.352 341.938 218.287C318.144 123.051 288.909 41.6264 272.832 -0.28125" stroke="#26144D" stroke-width="1.5" stroke-linecap="round" stroke-linejoin="round"/>
<path d="M422.002 448.106C422.002 448.106 295.052 529.284 339.302 607.825C383.553 686.366 531.567 612.037 531.567 612.037C531.567 612.037 564.462 569.465 520.514 498.19C478.899 430.728 422.002 448.106 422.002 448.106Z" fill="#EFEFEF" stroke="#26144D" stroke-width="1.5" stroke-linecap="round" stroke-linejoin="round"/>
<path d="M381.979 422.266L389.355 477.093C389.355 477.093 405.167 503.975 439.919 492.384C474.69 480.792 471.524 452.848 471.524 452.848L452.034 406.463C452.034 406.463 453.095 423.86 423.064 432.814C393.033 441.768 381.979 422.266 381.979 422.266Z" fill="#D2233C" stroke="#26144D" stroke-width="1.5" stroke-linecap="round" stroke-linejoin="round"/>
<path d="M515.244 626.796C515.244 626.796 546.849 653.678 725.426 789.665C904.002 925.651 1082.58 1050.58 1082.58 1050.58L1074.67 1009.47C1074.67 1009.47 967.212 881.372 806.021 753.297C644.83 625.203 546.849 576.181 546.849 576.181L515.244 626.777V626.796Z" fill="#EFEFEF" stroke="#26144D" stroke-width="1.5" stroke-linecap="round" stroke-linejoin="round"/>
<path d="M490.483 578.286C474.956 602.19 487.317 622.034 493.119 627.308C498.92 632.582 532.63 642.068 532.63 642.068C532.63 642.068 522.619 620.991 535.265 604.637C547.911 588.303 566.87 589.347 566.87 589.347C566.87 589.347 546.849 567.738 535.796 558.784C524.743 549.829 504.191 557.209 490.502 578.286H490.483Z" fill="#D2233C" stroke="#26144D" stroke-width="1.5" stroke-linecap="round" stroke-linejoin="round"/>
<path d="M366.017 336.155C366.017 336.155 366.035 336.212 366.035 336.25V336.306" stroke="#26144D" stroke-width="1.5" stroke-linecap="round" stroke-linejoin="round"/>
<path d="M337.729 92.8291C337.729 92.8291 368.955 165.356 391.46 237.258C418.856 324.753 434.649 388.004 434.649 388.004" stroke="white" stroke-width="1.5" stroke-linecap="round" stroke-linejoin="round"/>
<path d="M569.505 605.169C569.505 605.169 655.561 656.904 713.841 700.044C790.758 756.977 882.407 832.882 882.407 832.882" stroke="white" stroke-width="1.5" stroke-linecap="round" stroke-linejoin="round"/>
<path d="M365.561 515.928C346.507 537.574 332.743 566.202 342.374 595.228" stroke="white" stroke-width="1.5" stroke-linecap="round" stroke-linejoin="round"/>
<path d="M708.57 309.463L749.655 285.218" stroke="white" stroke-width="1.5" stroke-linecap="round" stroke-linejoin="round"/>
<path d="M521.045 488.685L565.296 463.908" stroke="white" stroke-width="1.5" stroke-linecap="round" stroke-linejoin="round"/>
</g>
</g>
<defs>
<clipPath id="clip0_1324_81">
<rect width="1035" height="1056" fill="white" transform="translate(49 -4)"/>
</clipPath>
</defs>
</svg>
