<svg width="1447" height="863" viewBox="0 0 1447 863" fill="none" xmlns="http://www.w3.org/2000/svg">
<mask id="mask0_1324_81" style="mask-type:alpha" maskUnits="userSpaceOnUse" x="0" y="0" width="1447" height="863">
<rect width="1447" height="863" fill="#D9D9D9"/>
</mask>
<g mask="url(#mask0_1324_81)">
<circle cx="669.5" cy="477.9" r="5.5" fill="#525252"/>
<rect x="994" y="584.004" width="301" height="129" fill="#C1C1C1" fill-opacity="0.8"/>
<rect x="987" y="577.004" width="301" height="129" fill="white"/>
<rect x="980.5" y="570.504" width="300" height="128" stroke="#525252"/>
<path d="M1058.8 611.624V617.004H1057.1V603.004C1057.66 603.004 1058.25 602.997 1058.88 602.984C1059.51 602.971 1060.13 602.964 1060.76 602.964C1062.6 602.964 1063.92 603.377 1064.72 604.204C1065.53 605.017 1065.94 606.051 1065.94 607.304C1065.94 608.517 1065.5 609.557 1064.62 610.424C1063.77 611.277 1062.53 611.704 1060.9 611.704C1060.05 611.704 1059.35 611.677 1058.8 611.624ZM1060.92 604.564C1060.68 604.564 1059.97 604.577 1058.8 604.604V610.004C1059.64 610.071 1060.32 610.104 1060.84 610.104C1061.87 610.104 1062.67 609.857 1063.26 609.364C1063.85 608.857 1064.14 608.164 1064.14 607.284C1064.14 606.417 1063.87 605.751 1063.32 605.284C1062.79 604.804 1061.99 604.564 1060.92 604.564ZM1074.36 614.764L1074.86 616.024C1073.99 616.811 1072.87 617.204 1071.48 617.204C1070.01 617.204 1068.85 616.777 1067.98 615.924C1067.1 615.071 1066.66 613.931 1066.66 612.504C1066.66 611.157 1067.07 610.037 1067.9 609.144C1068.71 608.251 1069.85 607.804 1071.3 607.804C1072.5 607.804 1073.49 608.191 1074.28 608.964C1075.08 609.724 1075.48 610.711 1075.48 611.924C1075.48 612.311 1075.45 612.671 1075.38 613.004H1068.46C1068.53 613.844 1068.84 614.504 1069.4 614.984C1069.97 615.464 1070.71 615.704 1071.6 615.704C1072.77 615.704 1073.69 615.391 1074.36 614.764ZM1071.22 609.304C1070.43 609.304 1069.78 609.524 1069.26 609.964C1068.75 610.404 1068.45 610.984 1068.36 611.704H1073.82C1073.78 610.957 1073.53 610.371 1073.06 609.944C1072.61 609.517 1071.99 609.304 1071.22 609.304ZM1077.56 619.204H1076.06V615.504H1077.18C1077.51 615.091 1077.81 614.424 1078.06 613.504C1078.31 612.571 1078.48 611.531 1078.56 610.384L1078.7 608.004H1084.84V615.504H1086.34V619.204H1084.84V617.004H1077.56V619.204ZM1080.2 609.504L1080.1 611.004C1080.02 612.004 1079.86 612.917 1079.62 613.744C1079.38 614.571 1079.13 615.157 1078.88 615.504H1083.24V609.504H1080.2ZM1094.44 608.004H1096.26L1092.66 617.004C1092.01 618.591 1091.44 619.644 1090.96 620.164C1090.45 620.724 1089.87 621.004 1089.22 621.004C1088.63 621.004 1088.07 620.817 1087.52 620.444L1088.04 619.224C1088.47 619.424 1088.8 619.524 1089.04 619.524C1089.41 619.524 1089.75 619.364 1090.04 619.044C1090.35 618.724 1090.65 618.204 1090.96 617.484L1091.16 617.004L1086.84 608.004H1088.76L1091.4 613.724C1091.45 613.817 1091.63 614.271 1091.94 615.084C1092.06 614.644 1092.2 614.184 1092.36 613.704L1094.44 608.004ZM1103.68 608.004H1105.78L1101.84 612.304L1106.16 617.004H1103.94L1099.88 612.404L1103.68 608.004ZM1099.5 617.004H1097.9V608.004H1099.5V617.004ZM1110.03 609.604H1106.73V608.004H1114.93V609.604H1111.63V617.004H1110.03V609.604ZM1117.1 615.884C1116.22 614.977 1115.78 613.851 1115.78 612.504C1115.78 611.144 1116.22 610.024 1117.1 609.144C1117.99 608.251 1119.15 607.804 1120.58 607.804C1122.01 607.804 1123.16 608.251 1124.04 609.144C1124.93 610.024 1125.38 611.144 1125.38 612.504C1125.38 613.864 1124.93 614.991 1124.04 615.884C1123.16 616.764 1122.01 617.204 1120.58 617.204C1119.17 617.204 1118.01 616.764 1117.1 615.884ZM1118.36 610.204C1117.77 610.791 1117.48 611.557 1117.48 612.504C1117.48 613.451 1117.77 614.217 1118.34 614.804C1118.93 615.404 1119.67 615.704 1120.58 615.704C1121.49 615.704 1122.23 615.411 1122.8 614.824C1123.39 614.224 1123.68 613.451 1123.68 612.504C1123.68 611.584 1123.39 610.817 1122.8 610.204C1122.23 609.604 1121.49 609.304 1120.58 609.304C1119.67 609.304 1118.93 609.604 1118.36 610.204ZM1129.29 621.004H1127.69V608.004H1129.29V609.064C1129.61 608.691 1130.05 608.391 1130.61 608.164C1131.17 607.924 1131.75 607.804 1132.35 607.804C1133.63 607.804 1134.64 608.231 1135.37 609.084C1136.13 609.924 1136.51 611.017 1136.51 612.364C1136.51 613.737 1136.08 614.891 1135.21 615.824C1134.36 616.744 1133.23 617.204 1131.83 617.204C1130.75 617.204 1129.9 616.997 1129.29 616.584V621.004ZM1131.89 609.304C1130.82 609.304 1129.96 609.717 1129.29 610.544V615.004C1130 615.471 1130.8 615.704 1131.69 615.704C1132.64 615.704 1133.39 615.404 1133.95 614.804C1134.52 614.191 1134.81 613.397 1134.81 612.424C1134.81 611.477 1134.55 610.724 1134.03 610.164C1133.51 609.591 1132.8 609.304 1131.89 609.304Z" fill="black"/>
<path d="M1062.1 639.42L1062.51 640.188C1062.23 640.476 1061.85 640.704 1061.37 640.872C1060.89 641.04 1060.39 641.124 1059.86 641.124C1058.6 641.124 1057.58 640.732 1056.78 639.948C1055.99 639.148 1055.6 638.1 1055.6 636.804C1055.6 635.556 1055.98 634.528 1056.73 633.72C1057.48 632.896 1058.5 632.484 1059.79 632.484C1060.85 632.484 1061.7 632.756 1062.34 633.3L1061.88 634.068C1061.32 633.652 1060.62 633.444 1059.8 633.444C1058.89 633.444 1058.14 633.756 1057.56 634.38C1056.97 634.996 1056.68 635.804 1056.68 636.804C1056.68 637.804 1056.98 638.616 1057.58 639.24C1058.2 639.856 1058.99 640.164 1059.96 640.164C1060.77 640.164 1061.49 639.916 1062.1 639.42ZM1068.23 641.004H1067.27V636.564H1065.37L1065.31 637.476C1065.25 638.22 1065.15 638.84 1065.03 639.336C1064.91 639.824 1064.75 640.192 1064.55 640.44C1064.35 640.68 1064.15 640.848 1063.93 640.944C1063.72 641.032 1063.45 641.076 1063.14 641.076L1063.07 640.14C1063.16 640.148 1063.25 640.136 1063.35 640.104C1063.44 640.064 1063.55 639.984 1063.66 639.864C1063.78 639.744 1063.88 639.584 1063.97 639.384C1064.07 639.184 1064.15 638.904 1064.22 638.544C1064.3 638.176 1064.35 637.756 1064.38 637.284L1064.47 635.604H1068.23V641.004ZM1070.39 640.332C1069.87 639.788 1069.6 639.112 1069.6 638.304C1069.6 637.488 1069.87 636.816 1070.39 636.288C1070.93 635.752 1071.63 635.484 1072.48 635.484C1073.34 635.484 1074.03 635.752 1074.56 636.288C1075.09 636.816 1075.36 637.488 1075.36 638.304C1075.36 639.12 1075.09 639.796 1074.56 640.332C1074.03 640.86 1073.34 641.124 1072.48 641.124C1071.63 641.124 1070.94 640.86 1070.39 640.332ZM1071.15 636.924C1070.8 637.276 1070.62 637.736 1070.62 638.304C1070.62 638.872 1070.79 639.332 1071.14 639.684C1071.49 640.044 1071.94 640.224 1072.48 640.224C1073.03 640.224 1073.47 640.048 1073.81 639.696C1074.17 639.336 1074.34 638.872 1074.34 638.304C1074.34 637.752 1074.17 637.292 1073.81 636.924C1073.47 636.564 1073.03 636.384 1072.48 636.384C1071.94 636.384 1071.49 636.564 1071.15 636.924ZM1082.23 635.604H1083.41L1081.46 638.208L1083.56 641.004H1082.37L1080.37 638.208L1082.23 635.604ZM1080.13 641.004H1079.17V635.604H1080.13V641.004ZM1075.77 641.004L1077.83 638.208L1075.88 635.604H1077.08L1078.93 638.208L1076.95 641.004H1075.77ZM1089.52 641.004H1088.56V638.724H1085.56V641.004H1084.6V635.604H1085.56V637.824H1088.56V635.604H1089.52V641.004ZM1092.99 641.004H1091.25V635.604H1092.21V637.224H1093.1C1093.84 637.224 1094.38 637.392 1094.72 637.728C1095.07 638.056 1095.24 638.508 1095.24 639.084C1095.24 639.628 1095.06 640.084 1094.7 640.452C1094.35 640.82 1093.79 641.004 1092.99 641.004ZM1097.23 641.004H1096.27V635.604H1097.23V641.004ZM1092.92 638.124H1092.21V640.104H1092.91C1093.37 640.104 1093.7 640.024 1093.91 639.864C1094.11 639.704 1094.22 639.456 1094.22 639.12C1094.22 638.456 1093.79 638.124 1092.92 638.124ZM1103.03 636.984L1099.91 641.004H1098.95V635.604H1099.91V639.624L1103.03 635.604H1103.99V641.004H1103.03V636.984ZM1099.72 632.844H1100.62C1100.67 633.476 1100.98 633.792 1101.55 633.792C1102.08 633.792 1102.37 633.476 1102.42 632.844H1103.32C1103.32 633.332 1103.15 633.736 1102.82 634.056C1102.49 634.368 1102.07 634.524 1101.55 634.524C1100.98 634.524 1100.53 634.372 1100.2 634.068C1099.88 633.756 1099.72 633.348 1099.72 632.844ZM1113.29 641.004H1112.33V636.504H1109.39V641.004H1108.43V635.604H1113.29V641.004ZM1119.29 639.66L1119.59 640.416C1119.07 640.888 1118.4 641.124 1117.56 641.124C1116.68 641.124 1115.98 640.868 1115.46 640.356C1114.94 639.844 1114.67 639.16 1114.67 638.304C1114.67 637.496 1114.92 636.824 1115.42 636.288C1115.9 635.752 1116.58 635.484 1117.46 635.484C1118.18 635.484 1118.77 635.716 1119.24 636.18C1119.72 636.636 1119.96 637.228 1119.96 637.956C1119.96 638.188 1119.94 638.404 1119.9 638.604H1115.75C1115.79 639.108 1115.98 639.504 1116.32 639.792C1116.66 640.08 1117.1 640.224 1117.64 640.224C1118.34 640.224 1118.89 640.036 1119.29 639.66ZM1117.41 636.384C1116.94 636.384 1116.54 636.516 1116.23 636.78C1115.93 637.044 1115.75 637.392 1115.69 637.824H1118.97C1118.94 637.376 1118.79 637.024 1118.51 636.768C1118.24 636.512 1117.87 636.384 1117.41 636.384ZM1122.23 643.404H1121.27V635.604H1122.23V636.24C1122.42 636.016 1122.68 635.836 1123.02 635.7C1123.35 635.556 1123.7 635.484 1124.06 635.484C1124.83 635.484 1125.43 635.74 1125.87 636.252C1126.33 636.756 1126.56 637.412 1126.56 638.22C1126.56 639.044 1126.3 639.736 1125.78 640.296C1125.27 640.848 1124.59 641.124 1123.75 641.124C1123.1 641.124 1122.59 641 1122.23 640.752V643.404ZM1123.79 636.384C1123.15 636.384 1122.63 636.632 1122.23 637.128V639.804C1122.65 640.084 1123.13 640.224 1123.67 640.224C1124.23 640.224 1124.69 640.044 1125.02 639.684C1125.37 639.316 1125.54 638.84 1125.54 638.256C1125.54 637.688 1125.38 637.236 1125.07 636.9C1124.76 636.556 1124.33 636.384 1123.79 636.384ZM1132.19 639.66L1132.49 640.416C1131.97 640.888 1131.3 641.124 1130.47 641.124C1129.59 641.124 1128.89 640.868 1128.37 640.356C1127.84 639.844 1127.57 639.16 1127.57 638.304C1127.57 637.496 1127.82 636.824 1128.32 636.288C1128.81 635.752 1129.49 635.484 1130.36 635.484C1131.08 635.484 1131.67 635.716 1132.15 636.18C1132.63 636.636 1132.87 637.228 1132.87 637.956C1132.87 638.188 1132.85 638.404 1132.81 638.604H1128.65C1128.69 639.108 1128.88 639.504 1129.22 639.792C1129.56 640.08 1130 640.224 1130.54 640.224C1131.24 640.224 1131.79 640.036 1132.19 639.66ZM1130.31 636.384C1129.84 636.384 1129.45 636.516 1129.13 636.78C1128.83 637.044 1128.65 637.392 1128.59 637.824H1131.87C1131.85 637.376 1131.69 637.024 1131.41 636.768C1131.14 636.512 1130.77 636.384 1130.31 636.384ZM1134.11 642.324H1133.21V640.104H1133.89C1134.09 639.856 1134.26 639.456 1134.41 638.904C1134.57 638.344 1134.67 637.72 1134.71 637.032L1134.8 635.604H1138.48V640.104H1139.38V642.324H1138.48V641.004H1134.11V642.324ZM1135.7 636.504L1135.64 637.404C1135.59 638.004 1135.49 638.552 1135.35 639.048C1135.21 639.544 1135.06 639.896 1134.91 640.104H1137.52V636.504H1135.7ZM1140.71 636.744L1140.46 635.976C1141 635.648 1141.6 635.484 1142.26 635.484C1142.99 635.484 1143.52 635.664 1143.85 636.024C1144.17 636.384 1144.34 636.94 1144.34 637.692V641.004H1143.43V640.308C1143 640.828 1142.43 641.088 1141.7 641.088C1141.2 641.088 1140.8 640.94 1140.5 640.644C1140.19 640.34 1140.04 639.932 1140.04 639.42C1140.04 638.892 1140.23 638.476 1140.61 638.172C1140.98 637.86 1141.47 637.704 1142.08 637.704C1142.65 637.704 1143.1 637.82 1143.43 638.052C1143.43 637.444 1143.34 637.008 1143.17 636.744C1143.01 636.48 1142.68 636.348 1142.2 636.348C1141.71 636.348 1141.22 636.48 1140.71 636.744ZM1142.03 640.224C1142.57 640.224 1143.03 639.992 1143.43 639.528V638.844C1143.09 638.604 1142.69 638.484 1142.21 638.484C1141.89 638.484 1141.61 638.564 1141.39 638.724C1141.17 638.876 1141.06 639.092 1141.06 639.372C1141.06 639.636 1141.15 639.844 1141.31 639.996C1141.49 640.148 1141.73 640.224 1142.03 640.224ZM1147.24 636.564H1145.26V635.604H1150.18V636.564H1148.2V641.004H1147.24V636.564ZM1151.49 640.332C1150.96 639.788 1150.7 639.112 1150.7 638.304C1150.7 637.488 1150.96 636.816 1151.49 636.288C1152.02 635.752 1152.72 635.484 1153.58 635.484C1154.43 635.484 1155.12 635.752 1155.65 636.288C1156.19 636.816 1156.46 637.488 1156.46 638.304C1156.46 639.12 1156.19 639.796 1155.65 640.332C1155.12 640.86 1154.43 641.124 1153.58 641.124C1152.73 641.124 1152.03 640.86 1151.49 640.332ZM1152.24 636.924C1151.89 637.276 1151.72 637.736 1151.72 638.304C1151.72 638.872 1151.89 639.332 1152.23 639.684C1152.58 640.044 1153.03 640.224 1153.58 640.224C1154.12 640.224 1154.56 640.048 1154.91 639.696C1155.26 639.336 1155.44 638.872 1155.44 638.304C1155.44 637.752 1155.26 637.292 1154.91 636.924C1154.56 636.564 1154.12 636.384 1153.58 636.384C1153.03 636.384 1152.59 636.564 1152.24 636.924ZM1160.94 635.604H1161.9V641.004H1160.94V638.904C1160.52 639.168 1160.02 639.3 1159.44 639.3C1158.16 639.3 1157.52 638.612 1157.52 637.236V635.604H1158.54V637.128C1158.54 637.976 1158.92 638.4 1159.7 638.4C1160.2 638.4 1160.62 638.288 1160.94 638.064V635.604ZM1168.55 641.004H1167.59V638.724H1164.59V641.004H1163.63V635.604H1164.59V637.824H1167.59V635.604H1168.55V641.004ZM1172.03 641.004H1170.29V635.604H1171.25V637.224H1172.13C1172.87 637.224 1173.41 637.392 1173.75 637.728C1174.1 638.056 1174.27 638.508 1174.27 639.084C1174.27 639.628 1174.09 640.084 1173.73 640.452C1173.39 640.82 1172.82 641.004 1172.03 641.004ZM1176.26 641.004H1175.3V635.604H1176.26V641.004ZM1171.95 638.124H1171.25V640.104H1171.94C1172.4 640.104 1172.73 640.024 1172.94 639.864C1173.15 639.704 1173.25 639.456 1173.25 639.12C1173.25 638.456 1172.82 638.124 1171.95 638.124ZM1182.07 636.984L1178.95 641.004H1177.99V635.604H1178.95V639.624L1182.07 635.604H1183.03V641.004H1182.07V636.984ZM1178.75 632.844H1179.65C1179.7 633.476 1180.01 633.792 1180.58 633.792C1181.11 633.792 1181.41 633.476 1181.45 632.844H1182.35C1182.35 633.332 1182.19 633.736 1181.85 634.056C1181.52 634.368 1181.1 634.524 1180.58 634.524C1180.01 634.524 1179.56 634.372 1179.23 634.068C1178.91 633.756 1178.75 633.348 1178.75 632.844ZM1188.43 641.004H1187.47V635.604H1188.34L1190.42 638.28L1192.39 635.604H1193.24V641.004H1192.28V637.068L1190.41 639.576H1190.37L1188.43 637.068V641.004ZM1199.24 639.66L1199.54 640.416C1199.02 640.888 1198.34 641.124 1197.51 641.124C1196.63 641.124 1195.93 640.868 1195.41 640.356C1194.88 639.844 1194.62 639.16 1194.62 638.304C1194.62 637.496 1194.87 636.824 1195.36 636.288C1195.85 635.752 1196.53 635.484 1197.4 635.484C1198.12 635.484 1198.72 635.716 1199.19 636.18C1199.67 636.636 1199.91 637.228 1199.91 637.956C1199.91 638.188 1199.89 638.404 1199.85 638.604H1195.7C1195.74 639.108 1195.93 639.504 1196.26 639.792C1196.61 640.08 1197.05 640.224 1197.58 640.224C1198.29 640.224 1198.84 640.036 1199.24 639.66ZM1197.35 636.384C1196.88 636.384 1196.49 636.516 1196.18 636.78C1195.87 637.044 1195.69 637.392 1195.64 637.824H1198.91C1198.89 637.376 1198.74 637.024 1198.46 636.768C1198.19 636.512 1197.82 636.384 1197.35 636.384ZM1204.64 635.604H1205.75L1203.82 638.208L1205.87 641.004H1204.7L1203.11 638.82L1201.51 641.004H1200.39L1202.43 638.256L1200.51 635.604H1201.69L1203.15 637.644L1204.64 635.604ZM1207.32 636.744L1207.07 635.976C1207.61 635.648 1208.21 635.484 1208.87 635.484C1209.6 635.484 1210.13 635.664 1210.46 636.024C1210.78 636.384 1210.95 636.94 1210.95 637.692V641.004H1210.04V640.308C1209.61 640.828 1209.04 641.088 1208.31 641.088C1207.81 641.088 1207.41 640.94 1207.11 640.644C1206.8 640.34 1206.65 639.932 1206.65 639.42C1206.65 638.892 1206.84 638.476 1207.22 638.172C1207.59 637.86 1208.08 637.704 1208.69 637.704C1209.26 637.704 1209.71 637.82 1210.04 638.052C1210.04 637.444 1209.95 637.008 1209.78 636.744C1209.62 636.48 1209.29 636.348 1208.81 636.348C1208.32 636.348 1207.83 636.48 1207.32 636.744ZM1208.64 640.224C1209.18 640.224 1209.64 639.992 1210.04 639.528V638.844C1209.7 638.604 1209.3 638.484 1208.82 638.484C1208.5 638.484 1208.22 638.564 1208 638.724C1207.78 638.876 1207.67 639.092 1207.67 639.372C1207.67 639.636 1207.76 639.844 1207.92 639.996C1208.1 640.148 1208.34 640.224 1208.64 640.224ZM1217.48 641.004H1216.52V638.724H1213.52V641.004H1212.56V635.604H1213.52V637.824H1216.52V635.604H1217.48V641.004ZM1223.29 636.984L1220.17 641.004H1219.21V635.604H1220.17V639.624L1223.29 635.604H1224.25V641.004H1223.29V636.984ZM1227.78 641.124C1227.38 641.124 1226.94 641.056 1226.49 640.92C1226.05 640.776 1225.74 640.6 1225.55 640.392L1226.04 639.672C1226.26 639.848 1226.52 639.992 1226.81 640.104C1227.12 640.208 1227.39 640.26 1227.64 640.26C1228.06 640.26 1228.4 640.18 1228.66 640.02C1228.92 639.852 1229.06 639.636 1229.06 639.372C1229.06 639.148 1228.96 638.976 1228.77 638.856C1228.58 638.736 1228.33 638.676 1228 638.676H1227.09V637.896H1227.94C1228.21 637.896 1228.44 637.824 1228.61 637.68C1228.79 637.528 1228.88 637.344 1228.88 637.128C1228.88 636.888 1228.77 636.7 1228.56 636.564C1228.36 636.42 1228.08 636.348 1227.72 636.348C1227.16 636.348 1226.62 636.548 1226.1 636.948L1225.73 636.204C1225.95 635.98 1226.25 635.804 1226.63 635.676C1227.02 635.548 1227.44 635.484 1227.87 635.484C1228.51 635.484 1229 635.612 1229.36 635.868C1229.72 636.124 1229.9 636.48 1229.9 636.936C1229.9 637.56 1229.58 637.984 1228.95 638.208V638.232C1229.3 638.272 1229.58 638.412 1229.78 638.652C1229.98 638.884 1230.08 639.168 1230.08 639.504C1230.08 640 1229.86 640.396 1229.44 640.692C1229.02 640.98 1228.47 641.124 1227.78 641.124ZM1232.5 641.004H1231.54V635.604H1232.42L1234.49 638.28L1236.46 635.604H1237.31V641.004H1236.35V637.068L1234.48 639.576H1234.44L1232.5 637.068V641.004ZM1238.84 640.452C1238.84 640.26 1238.9 640.108 1239.02 639.996C1239.14 639.876 1239.3 639.816 1239.52 639.816C1239.78 639.816 1239.98 639.924 1240.14 640.14C1240.3 640.348 1240.38 640.628 1240.38 640.98C1240.38 641.412 1240.26 641.784 1240.02 642.096C1239.79 642.416 1239.47 642.636 1239.06 642.756L1238.8 642.3C1239.22 642.172 1239.47 641.904 1239.57 641.496C1239.62 641.224 1239.62 641.024 1239.56 640.896C1239.51 640.968 1239.42 641.004 1239.29 641.004C1239.17 641.004 1239.06 640.952 1238.97 640.848C1238.88 640.736 1238.84 640.604 1238.84 640.452ZM1059.33 651.604H1060.59L1058.23 654.184L1060.82 657.004H1059.49L1057.05 654.244L1059.33 651.604ZM1056.82 657.004H1055.86V651.604H1056.82V657.004ZM1061.98 656.332C1061.45 655.788 1061.19 655.112 1061.19 654.304C1061.19 653.488 1061.45 652.816 1061.98 652.288C1062.52 651.752 1063.21 651.484 1064.07 651.484C1064.92 651.484 1065.62 651.752 1066.14 652.288C1066.68 652.816 1066.95 653.488 1066.95 654.304C1066.95 655.12 1066.68 655.796 1066.14 656.332C1065.62 656.86 1064.92 657.124 1064.07 657.124C1063.22 657.124 1062.52 656.86 1061.98 656.332ZM1062.74 652.924C1062.38 653.276 1062.21 653.736 1062.21 654.304C1062.21 654.872 1062.38 655.332 1062.72 655.684C1063.08 656.044 1063.52 656.224 1064.07 656.224C1064.61 656.224 1065.06 656.048 1065.4 655.696C1065.75 655.336 1065.93 654.872 1065.93 654.304C1065.93 653.752 1065.75 653.292 1065.4 652.924C1065.06 652.564 1064.61 652.384 1064.07 652.384C1063.52 652.384 1063.08 652.564 1062.74 652.924ZM1069.42 652.564H1067.44V651.604H1072.36V652.564H1070.38V657.004H1069.42V652.564ZM1073.66 656.332C1073.14 655.788 1072.87 655.112 1072.87 654.304C1072.87 653.488 1073.14 652.816 1073.66 652.288C1074.2 651.752 1074.9 651.484 1075.75 651.484C1076.61 651.484 1077.3 651.752 1077.83 652.288C1078.36 652.816 1078.63 653.488 1078.63 654.304C1078.63 655.12 1078.36 655.796 1077.83 656.332C1077.3 656.86 1076.61 657.124 1075.75 657.124C1074.9 657.124 1074.21 656.86 1073.66 656.332ZM1074.42 652.924C1074.07 653.276 1073.89 653.736 1073.89 654.304C1073.89 654.872 1074.06 655.332 1074.41 655.684C1074.76 656.044 1075.21 656.224 1075.75 656.224C1076.3 656.224 1076.74 656.048 1077.08 655.696C1077.44 655.336 1077.61 654.872 1077.61 654.304C1077.61 653.752 1077.44 653.292 1077.08 652.924C1076.74 652.564 1076.3 652.384 1075.75 652.384C1075.21 652.384 1074.76 652.564 1074.42 652.924ZM1080.98 659.404H1080.02V651.604H1080.98V652.24C1081.17 652.016 1081.43 651.836 1081.77 651.7C1082.1 651.556 1082.45 651.484 1082.81 651.484C1083.58 651.484 1084.18 651.74 1084.62 652.252C1085.08 652.756 1085.31 653.412 1085.31 654.22C1085.31 655.044 1085.05 655.736 1084.53 656.296C1084.02 656.848 1083.34 657.124 1082.5 657.124C1081.85 657.124 1081.34 657 1080.98 656.752V659.404ZM1082.54 652.384C1081.9 652.384 1081.38 652.632 1080.98 653.128V655.804C1081.4 656.084 1081.88 656.224 1082.42 656.224C1082.98 656.224 1083.44 656.044 1083.77 655.684C1084.12 655.316 1084.29 654.84 1084.29 654.256C1084.29 653.688 1084.13 653.236 1083.82 652.9C1083.51 652.556 1083.08 652.384 1082.54 652.384ZM1088.42 657.004H1086.68V651.604H1087.64V653.224H1088.53C1089.27 653.224 1089.81 653.392 1090.15 653.728C1090.5 654.056 1090.67 654.508 1090.67 655.084C1090.67 655.628 1090.49 656.084 1090.13 656.452C1089.78 656.82 1089.22 657.004 1088.42 657.004ZM1092.66 657.004H1091.7V651.604H1092.66V657.004ZM1088.35 654.124H1087.64V656.104H1088.34C1088.8 656.104 1089.13 656.024 1089.34 655.864C1089.54 655.704 1089.65 655.456 1089.65 655.12C1089.65 654.456 1089.22 654.124 1088.35 654.124ZM1098.46 652.984L1095.34 657.004H1094.38V651.604H1095.34V655.624L1098.46 651.604H1099.42V657.004H1098.46V652.984ZM1095.15 648.844H1096.05C1096.1 649.476 1096.41 649.792 1096.98 649.792C1097.51 649.792 1097.8 649.476 1097.85 648.844H1098.75C1098.75 649.332 1098.58 649.736 1098.25 650.056C1097.92 650.368 1097.5 650.524 1096.98 650.524C1096.41 650.524 1095.96 650.372 1095.63 650.068C1095.31 649.756 1095.15 649.348 1095.15 648.844ZM1108.72 657.004H1107.76V652.504H1104.82V657.004H1103.86V651.604H1108.72V657.004ZM1110.89 656.332C1110.37 655.788 1110.1 655.112 1110.1 654.304C1110.1 653.488 1110.37 652.816 1110.89 652.288C1111.43 651.752 1112.13 651.484 1112.98 651.484C1113.84 651.484 1114.53 651.752 1115.06 652.288C1115.59 652.816 1115.86 653.488 1115.86 654.304C1115.86 655.12 1115.59 655.796 1115.06 656.332C1114.53 656.86 1113.84 657.124 1112.98 657.124C1112.13 657.124 1111.44 656.86 1110.89 656.332ZM1111.65 652.924C1111.3 653.276 1111.12 653.736 1111.12 654.304C1111.12 654.872 1111.29 655.332 1111.64 655.684C1111.99 656.044 1112.44 656.224 1112.98 656.224C1113.53 656.224 1113.97 656.048 1114.31 655.696C1114.67 655.336 1114.84 654.872 1114.84 654.304C1114.84 653.752 1114.67 653.292 1114.31 652.924C1113.97 652.564 1113.53 652.384 1112.98 652.384C1112.44 652.384 1111.99 652.564 1111.65 652.924ZM1117.25 657.004V651.604C1117.29 651.604 1117.34 651.604 1117.41 651.604C1117.49 651.596 1117.59 651.592 1117.73 651.592C1117.86 651.584 1117.99 651.58 1118.1 651.58C1118.69 651.564 1119.06 651.556 1119.2 651.556C1120.75 651.556 1121.53 652.02 1121.53 652.948C1121.53 653.268 1121.43 653.544 1121.23 653.776C1121.03 654 1120.77 654.136 1120.45 654.184V654.208C1121.29 654.36 1121.71 654.784 1121.71 655.48C1121.71 656.528 1120.88 657.052 1119.23 657.052C1119.15 657.052 1118.79 657.044 1118.17 657.028C1118.05 657.028 1117.92 657.024 1117.77 657.016C1117.63 657.016 1117.52 657.012 1117.44 657.004C1117.36 657.004 1117.29 657.004 1117.25 657.004ZM1119.36 654.58H1118.21V656.236C1118.78 656.26 1119.15 656.272 1119.31 656.272C1120.23 656.272 1120.69 655.984 1120.69 655.408C1120.69 654.856 1120.25 654.58 1119.36 654.58ZM1119.27 652.336C1119.04 652.336 1118.69 652.348 1118.21 652.372V653.98H1119.42C1119.75 653.98 1120.01 653.904 1120.21 653.752C1120.41 653.6 1120.51 653.396 1120.51 653.14C1120.51 652.604 1120.1 652.336 1119.27 652.336ZM1124.92 657.004H1123.18V651.604H1124.14V653.224H1125.02C1125.76 653.224 1126.3 653.392 1126.64 653.728C1126.99 654.056 1127.16 654.508 1127.16 655.084C1127.16 655.628 1126.98 656.084 1126.62 656.452C1126.28 656.82 1125.71 657.004 1124.92 657.004ZM1129.15 657.004H1128.19V651.604H1129.15V657.004ZM1124.84 654.124H1124.14V656.104H1124.83C1125.29 656.104 1125.62 656.024 1125.83 655.864C1126.04 655.704 1126.14 655.456 1126.14 655.12C1126.14 654.456 1125.71 654.124 1124.84 654.124ZM1137.72 657.004H1130.88V651.604H1131.84V656.104H1133.82V651.604H1134.78V656.104H1136.76V651.604H1137.72V657.004ZM1139.74 652.744L1139.49 651.976C1140.03 651.648 1140.63 651.484 1141.29 651.484C1142.02 651.484 1142.55 651.664 1142.87 652.024C1143.2 652.384 1143.37 652.94 1143.37 653.692V657.004H1142.45V656.308C1142.03 656.828 1141.45 657.088 1140.73 657.088C1140.23 657.088 1139.83 656.94 1139.53 656.644C1139.22 656.34 1139.07 655.932 1139.07 655.42C1139.07 654.892 1139.26 654.476 1139.63 654.172C1140.01 653.86 1140.5 653.704 1141.11 653.704C1141.68 653.704 1142.13 653.82 1142.45 654.052C1142.45 653.444 1142.37 653.008 1142.2 652.744C1142.03 652.48 1141.71 652.348 1141.23 652.348C1140.74 652.348 1140.25 652.48 1139.74 652.744ZM1141.06 656.224C1141.6 656.224 1142.06 655.992 1142.45 655.528V654.844C1142.12 654.604 1141.71 654.484 1141.24 654.484C1140.91 654.484 1140.64 654.564 1140.41 654.724C1140.2 654.876 1140.09 655.092 1140.09 655.372C1140.09 655.636 1140.17 655.844 1140.34 655.996C1140.52 656.148 1140.76 656.224 1141.06 656.224ZM1149.23 655.66L1149.53 656.416C1149.01 656.888 1148.34 657.124 1147.51 657.124C1146.63 657.124 1145.93 656.868 1145.41 656.356C1144.88 655.844 1144.61 655.16 1144.61 654.304C1144.61 653.496 1144.86 652.824 1145.36 652.288C1145.85 651.752 1146.53 651.484 1147.4 651.484C1148.12 651.484 1148.71 651.716 1149.19 652.18C1149.67 652.636 1149.91 653.228 1149.91 653.956C1149.91 654.188 1149.89 654.404 1149.85 654.604H1145.69C1145.73 655.108 1145.92 655.504 1146.26 655.792C1146.6 656.08 1147.04 656.224 1147.58 656.224C1148.28 656.224 1148.83 656.036 1149.23 655.66ZM1147.35 652.384C1146.88 652.384 1146.49 652.516 1146.17 652.78C1145.87 653.044 1145.69 653.392 1145.63 653.824H1148.91C1148.89 653.376 1148.73 653.024 1148.45 652.768C1148.18 652.512 1147.81 652.384 1147.35 652.384ZM1152.4 652.564H1150.42V651.604H1155.34V652.564H1153.36V657.004H1152.4V652.564ZM1163.23 655.528L1163.69 656.224C1163.23 656.824 1162.53 657.124 1161.61 657.124C1160.75 657.124 1160.05 656.868 1159.51 656.356C1158.99 655.844 1158.72 655.16 1158.72 654.304C1158.72 653.512 1158.98 652.844 1159.5 652.3C1160.02 651.756 1160.67 651.484 1161.46 651.484C1162.4 651.484 1163.11 651.72 1163.58 652.192L1163.14 652.948C1162.72 652.572 1162.21 652.384 1161.59 652.384C1161.09 652.384 1160.65 652.568 1160.28 652.936C1159.92 653.296 1159.74 653.752 1159.74 654.304C1159.74 654.888 1159.93 655.352 1160.29 655.696C1160.67 656.048 1161.13 656.224 1161.69 656.224C1162.31 656.224 1162.83 655.992 1163.23 655.528ZM1168.41 651.604H1169.67L1167.31 654.184L1169.9 657.004H1168.57L1166.13 654.244L1168.41 651.604ZM1165.9 657.004H1164.94V651.604H1165.9V657.004ZM1171.06 656.332C1170.53 655.788 1170.27 655.112 1170.27 654.304C1170.27 653.488 1170.53 652.816 1171.06 652.288C1171.59 651.752 1172.29 651.484 1173.15 651.484C1174 651.484 1174.69 651.752 1175.22 652.288C1175.76 652.816 1176.03 653.488 1176.03 654.304C1176.03 655.12 1175.76 655.796 1175.22 656.332C1174.69 656.86 1174 657.124 1173.15 657.124C1172.3 657.124 1171.6 656.86 1171.06 656.332ZM1171.81 652.924C1171.46 653.276 1171.29 653.736 1171.29 654.304C1171.29 654.872 1171.46 655.332 1171.8 655.684C1172.15 656.044 1172.6 656.224 1173.15 656.224C1173.69 656.224 1174.13 656.048 1174.48 655.696C1174.83 655.336 1175.01 654.872 1175.01 654.304C1175.01 653.752 1174.83 653.292 1174.48 652.924C1174.13 652.564 1173.69 652.384 1173.15 652.384C1172.6 652.384 1172.16 652.564 1171.81 652.924ZM1178.37 659.404H1177.41V651.604H1178.37V652.24C1178.56 652.016 1178.83 651.836 1179.16 651.7C1179.5 651.556 1179.85 651.484 1180.21 651.484C1180.97 651.484 1181.58 651.74 1182.02 652.252C1182.47 652.756 1182.7 653.412 1182.7 654.22C1182.7 655.044 1182.44 655.736 1181.92 656.296C1181.41 656.848 1180.73 657.124 1179.89 657.124C1179.25 657.124 1178.74 657 1178.37 656.752V659.404ZM1179.93 652.384C1179.29 652.384 1178.77 652.632 1178.37 653.128V655.804C1178.79 656.084 1179.27 656.224 1179.81 656.224C1180.38 656.224 1180.83 656.044 1181.17 655.684C1181.51 655.316 1181.68 654.84 1181.68 654.256C1181.68 653.688 1181.53 653.236 1181.21 652.9C1180.9 652.556 1180.47 652.384 1179.93 652.384ZM1184.51 656.332C1183.98 655.788 1183.72 655.112 1183.72 654.304C1183.72 653.488 1183.98 652.816 1184.51 652.288C1185.05 651.752 1185.74 651.484 1186.6 651.484C1187.45 651.484 1188.15 651.752 1188.67 652.288C1189.21 652.816 1189.48 653.488 1189.48 654.304C1189.48 655.12 1189.21 655.796 1188.67 656.332C1188.15 656.86 1187.45 657.124 1186.6 657.124C1185.75 657.124 1185.05 656.86 1184.51 656.332ZM1185.27 652.924C1184.91 653.276 1184.74 653.736 1184.74 654.304C1184.74 654.872 1184.91 655.332 1185.25 655.684C1185.61 656.044 1186.05 656.224 1186.6 656.224C1187.14 656.224 1187.59 656.048 1187.93 655.696C1188.28 655.336 1188.46 654.872 1188.46 654.304C1188.46 653.752 1188.28 653.292 1187.93 652.924C1187.59 652.564 1187.14 652.384 1186.6 652.384C1186.05 652.384 1185.61 652.564 1185.27 652.924ZM1195.02 655.528L1195.47 656.224C1195.01 656.824 1194.32 657.124 1193.4 657.124C1192.53 657.124 1191.83 656.868 1191.3 656.356C1190.77 655.844 1190.5 655.16 1190.5 654.304C1190.5 653.512 1190.76 652.844 1191.28 652.3C1191.8 651.756 1192.46 651.484 1193.24 651.484C1194.18 651.484 1194.89 651.72 1195.36 652.192L1194.92 652.948C1194.5 652.572 1193.99 652.384 1193.37 652.384C1192.87 652.384 1192.43 652.568 1192.06 652.936C1191.7 653.296 1191.52 653.752 1191.52 654.304C1191.52 654.888 1191.71 655.352 1192.08 655.696C1192.45 656.048 1192.92 656.224 1193.47 656.224C1194.09 656.224 1194.61 655.992 1195.02 655.528ZM1197.95 652.564H1195.97V651.604H1200.89V652.564H1198.91V657.004H1197.95V652.564ZM1203.76 657.004H1201.94V651.604H1202.9V653.224H1203.88C1204.62 653.224 1205.16 653.392 1205.5 653.728C1205.85 654.056 1206.02 654.508 1206.02 655.084C1206.02 655.628 1205.84 656.084 1205.48 656.452C1205.12 656.82 1204.55 657.004 1203.76 657.004ZM1203.7 654.124H1202.9V656.104H1203.69C1204.56 656.104 1205 655.776 1205 655.12C1205 654.456 1204.57 654.124 1203.7 654.124ZM1210 657.004V651.604C1210.04 651.604 1210.1 651.604 1210.17 651.604C1210.24 651.596 1210.34 651.592 1210.48 651.592C1210.62 651.584 1210.74 651.58 1210.85 651.58C1211.44 651.564 1211.81 651.556 1211.96 651.556C1213.51 651.556 1214.28 652.02 1214.28 652.948C1214.28 653.268 1214.18 653.544 1213.98 653.776C1213.78 654 1213.52 654.136 1213.2 654.184V654.208C1214.04 654.36 1214.46 654.784 1214.46 655.48C1214.46 656.528 1213.64 657.052 1211.98 657.052C1211.9 657.052 1211.55 657.044 1210.92 657.028C1210.8 657.028 1210.67 657.024 1210.53 657.016C1210.38 657.016 1210.27 657.012 1210.19 657.004C1210.11 657.004 1210.05 657.004 1210 657.004ZM1212.11 654.58H1210.96V656.236C1211.54 656.26 1211.9 656.272 1212.06 656.272C1212.98 656.272 1213.44 655.984 1213.44 655.408C1213.44 654.856 1213 654.58 1212.11 654.58ZM1212.03 652.336C1211.8 652.336 1211.44 652.348 1210.96 652.372V653.98H1212.17C1212.5 653.98 1212.76 653.904 1212.96 653.752C1213.16 653.6 1213.26 653.396 1213.26 653.14C1213.26 652.604 1212.85 652.336 1212.03 652.336ZM1216.89 659.404H1215.93V651.604H1216.89V652.24C1217.08 652.016 1217.35 651.836 1217.68 651.7C1218.02 651.556 1218.37 651.484 1218.73 651.484C1219.49 651.484 1220.1 651.74 1220.54 652.252C1220.99 652.756 1221.22 653.412 1221.22 654.22C1221.22 655.044 1220.96 655.736 1220.44 656.296C1219.93 656.848 1219.25 657.124 1218.41 657.124C1217.77 657.124 1217.26 657 1216.89 656.752V659.404ZM1218.45 652.384C1217.81 652.384 1217.29 652.632 1216.89 653.128V655.804C1217.31 656.084 1217.79 656.224 1218.33 656.224C1218.9 656.224 1219.35 656.044 1219.69 655.684C1220.03 655.316 1220.2 654.84 1220.2 654.256C1220.2 653.688 1220.05 653.236 1219.73 652.9C1219.42 652.556 1218.99 652.384 1218.45 652.384ZM1222.89 652.744L1222.63 651.976C1223.17 651.648 1223.77 651.484 1224.43 651.484C1225.16 651.484 1225.69 651.664 1226.02 652.024C1226.35 652.384 1226.51 652.94 1226.51 653.692V657.004H1225.6V656.308C1225.17 656.828 1224.6 657.088 1223.87 657.088C1223.37 657.088 1222.97 656.94 1222.67 656.644C1222.37 656.34 1222.21 655.932 1222.21 655.42C1222.21 654.892 1222.4 654.476 1222.78 654.172C1223.15 653.86 1223.65 653.704 1224.25 653.704C1224.82 653.704 1225.27 653.82 1225.6 654.052C1225.6 653.444 1225.51 653.008 1225.35 652.744C1225.18 652.48 1224.85 652.348 1224.37 652.348C1223.89 652.348 1223.39 652.48 1222.89 652.744ZM1224.21 656.224C1224.74 656.224 1225.21 655.992 1225.6 655.528V654.844C1225.26 654.604 1224.86 654.484 1224.39 654.484C1224.06 654.484 1223.78 654.564 1223.56 654.724C1223.34 654.876 1223.23 655.092 1223.23 655.372C1223.23 655.636 1223.32 655.844 1223.49 655.996C1223.66 656.148 1223.9 656.224 1224.21 656.224ZM1234.96 657.004H1228.12V651.604H1229.08V656.104H1231.06V651.604H1232.02V656.104H1234V651.604H1234.96V656.104H1235.86V658.324H1234.96V657.004ZM1241.17 655.66L1241.47 656.416C1240.95 656.888 1240.27 657.124 1239.44 657.124C1238.56 657.124 1237.86 656.868 1237.34 656.356C1236.81 655.844 1236.55 655.16 1236.55 654.304C1236.55 653.496 1236.79 652.824 1237.29 652.288C1237.78 651.752 1238.46 651.484 1239.33 651.484C1240.05 651.484 1240.65 651.716 1241.12 652.18C1241.6 652.636 1241.84 653.228 1241.84 653.956C1241.84 654.188 1241.82 654.404 1241.78 654.604H1237.63C1237.67 655.108 1237.85 655.504 1238.19 655.792C1238.53 656.08 1238.97 656.224 1239.51 656.224C1240.21 656.224 1240.77 656.036 1241.17 655.66ZM1239.28 652.384C1238.81 652.384 1238.42 652.516 1238.11 652.78C1237.8 653.044 1237.62 653.392 1237.57 653.824H1240.84C1240.82 653.376 1240.67 653.024 1240.39 652.768C1240.11 652.512 1239.75 652.384 1239.28 652.384ZM1248.06 657.004H1247.1V654.724H1244.1V657.004H1243.14V651.604H1244.1V653.824H1247.1V651.604H1248.06V657.004ZM1253.88 652.984L1250.76 657.004H1249.8V651.604H1250.76V655.624L1253.88 651.604H1254.84V657.004H1253.88V652.984ZM1260.84 655.66L1261.14 656.416C1260.62 656.888 1259.95 657.124 1259.11 657.124C1258.23 657.124 1257.53 656.868 1257.01 656.356C1256.49 655.844 1256.22 655.16 1256.22 654.304C1256.22 653.496 1256.47 652.824 1256.97 652.288C1257.45 651.752 1258.13 651.484 1259.01 651.484C1259.73 651.484 1260.32 651.716 1260.79 652.18C1261.27 652.636 1261.51 653.228 1261.51 653.956C1261.51 654.188 1261.49 654.404 1261.45 654.604H1257.3C1257.34 655.108 1257.53 655.504 1257.87 655.792C1258.21 656.08 1258.65 656.224 1259.19 656.224C1259.89 656.224 1260.44 656.036 1260.84 655.66ZM1258.96 652.384C1258.49 652.384 1258.09 652.516 1257.78 652.78C1257.48 653.044 1257.3 653.392 1257.24 653.824H1260.52C1260.49 653.376 1260.34 653.024 1260.06 652.768C1259.79 652.512 1259.42 652.384 1258.96 652.384ZM1060.72 673.004H1059.76V668.504H1056.82V673.004H1055.86V667.604H1060.72V673.004ZM1063.42 675.404H1062.46V667.604H1063.42V668.24C1063.61 668.016 1063.88 667.836 1064.21 667.7C1064.55 667.556 1064.9 667.484 1065.26 667.484C1066.03 667.484 1066.63 667.74 1067.07 668.252C1067.53 668.756 1067.75 669.412 1067.75 670.22C1067.75 671.044 1067.49 671.736 1066.97 672.296C1066.46 672.848 1065.79 673.124 1064.95 673.124C1064.3 673.124 1063.79 673 1063.42 672.752V675.404ZM1064.98 668.384C1064.34 668.384 1063.82 668.632 1063.42 669.128V671.804C1063.85 672.084 1064.33 672.224 1064.86 672.224C1065.43 672.224 1065.88 672.044 1066.22 671.684C1066.56 671.316 1066.73 670.84 1066.73 670.256C1066.73 669.688 1066.58 669.236 1066.27 668.9C1065.95 668.556 1065.53 668.384 1064.98 668.384ZM1073.21 668.984L1070.09 673.004H1069.13V667.604H1070.09V671.624L1073.21 667.604H1074.17V673.004H1073.21V668.984ZM1076.87 673.004H1075.91V667.604H1076.79L1078.87 670.28L1080.83 667.604H1081.69V673.004H1080.73V669.068L1078.85 671.576H1078.82L1076.87 669.068V673.004ZM1087.69 671.66L1087.99 672.416C1087.47 672.888 1086.79 673.124 1085.96 673.124C1085.08 673.124 1084.38 672.868 1083.86 672.356C1083.33 671.844 1083.07 671.16 1083.07 670.304C1083.07 669.496 1083.31 668.824 1083.81 668.288C1084.3 667.752 1084.98 667.484 1085.85 667.484C1086.57 667.484 1087.17 667.716 1087.64 668.18C1088.12 668.636 1088.36 669.228 1088.36 669.956C1088.36 670.188 1088.34 670.404 1088.3 670.604H1084.15C1084.19 671.108 1084.37 671.504 1084.71 671.792C1085.05 672.08 1085.49 672.224 1086.03 672.224C1086.73 672.224 1087.29 672.036 1087.69 671.66ZM1085.8 668.384C1085.33 668.384 1084.94 668.516 1084.63 668.78C1084.32 669.044 1084.14 669.392 1084.09 669.824H1087.36C1087.34 669.376 1087.19 669.024 1086.91 668.768C1086.63 668.512 1086.27 668.384 1085.8 668.384ZM1090.62 675.404H1089.66V667.604H1090.62V668.24C1090.81 668.016 1091.08 667.836 1091.41 667.7C1091.75 667.556 1092.1 667.484 1092.46 667.484C1093.22 667.484 1093.83 667.74 1094.27 668.252C1094.72 668.756 1094.95 669.412 1094.95 670.22C1094.95 671.044 1094.69 671.736 1094.17 672.296C1093.66 672.848 1092.98 673.124 1092.14 673.124C1091.5 673.124 1090.99 673 1090.62 672.752V675.404ZM1092.18 668.384C1091.54 668.384 1091.02 668.632 1090.62 669.128V671.804C1091.04 672.084 1091.52 672.224 1092.06 672.224C1092.63 672.224 1093.08 672.044 1093.42 671.684C1093.76 671.316 1093.93 670.84 1093.93 670.256C1093.93 669.688 1093.78 669.236 1093.46 668.9C1093.15 668.556 1092.72 668.384 1092.18 668.384ZM1101.25 673.004H1100.29V670.724H1097.29V673.004H1096.33V667.604H1097.29V669.824H1100.29V667.604H1101.25V673.004ZM1103.42 672.332C1102.89 671.788 1102.63 671.112 1102.63 670.304C1102.63 669.488 1102.89 668.816 1103.42 668.288C1103.95 667.752 1104.65 667.484 1105.51 667.484C1106.36 667.484 1107.05 667.752 1107.58 668.288C1108.12 668.816 1108.39 669.488 1108.39 670.304C1108.39 671.12 1108.12 671.796 1107.58 672.332C1107.05 672.86 1106.36 673.124 1105.51 673.124C1104.66 673.124 1103.96 672.86 1103.42 672.332ZM1104.17 668.924C1103.82 669.276 1103.65 669.736 1103.65 670.304C1103.65 670.872 1103.82 671.332 1104.16 671.684C1104.51 672.044 1104.96 672.224 1105.51 672.224C1106.05 672.224 1106.49 672.048 1106.84 671.696C1107.19 671.336 1107.37 670.872 1107.37 670.304C1107.37 669.752 1107.19 669.292 1106.84 668.924C1106.49 668.564 1106.05 668.384 1105.51 668.384C1104.96 668.384 1104.52 668.564 1104.17 668.924ZM1112.47 673.004V667.604C1112.51 667.604 1112.56 667.604 1112.63 667.604C1112.71 667.596 1112.81 667.592 1112.95 667.592C1113.08 667.584 1113.21 667.58 1113.32 667.58C1113.91 667.564 1114.28 667.556 1114.42 667.556C1115.97 667.556 1116.75 668.02 1116.75 668.948C1116.75 669.268 1116.65 669.544 1116.45 669.776C1116.25 670 1115.99 670.136 1115.67 670.184V670.208C1116.51 670.36 1116.93 670.784 1116.93 671.48C1116.93 672.528 1116.1 673.052 1114.45 673.052C1114.37 673.052 1114.01 673.044 1113.39 673.028C1113.27 673.028 1113.14 673.024 1112.99 673.016C1112.85 673.016 1112.74 673.012 1112.66 673.004C1112.58 673.004 1112.51 673.004 1112.47 673.004ZM1114.58 670.58H1113.43V672.236C1114 672.26 1114.37 672.272 1114.53 672.272C1115.45 672.272 1115.91 671.984 1115.91 671.408C1115.91 670.856 1115.47 670.58 1114.58 670.58ZM1114.49 668.336C1114.26 668.336 1113.91 668.348 1113.43 668.372V669.98H1114.64C1114.97 669.98 1115.23 669.904 1115.43 669.752C1115.63 669.6 1115.73 669.396 1115.73 669.14C1115.73 668.604 1115.32 668.336 1114.49 668.336ZM1121.15 666.896L1120.65 666.116L1122.66 664.556H1123.33V673.004H1122.37V665.936L1121.15 666.896ZM1130.88 668.804C1130.88 670.164 1130.65 671.22 1130.2 671.972C1129.75 672.724 1129.08 673.1 1128.18 673.1C1127.28 673.1 1126.59 672.716 1126.12 671.948C1125.66 671.172 1125.43 670.124 1125.43 668.804C1125.43 667.492 1125.66 666.448 1126.11 665.672C1126.56 664.896 1127.25 664.508 1128.16 664.508C1129.08 664.508 1129.76 664.896 1130.2 665.672C1130.65 666.44 1130.88 667.484 1130.88 668.804ZM1128.18 672.2C1128.77 672.2 1129.19 671.92 1129.45 671.36C1129.73 670.8 1129.86 669.948 1129.86 668.804C1129.86 667.668 1129.72 666.82 1129.44 666.26C1129.17 665.692 1128.74 665.408 1128.16 665.408C1127.02 665.408 1126.45 666.54 1126.45 668.804C1126.45 671.068 1127.03 672.2 1128.18 672.2ZM1137.65 668.804C1137.65 670.164 1137.43 671.22 1136.97 671.972C1136.52 672.724 1135.85 673.1 1134.95 673.1C1134.05 673.1 1133.36 672.716 1132.89 671.948C1132.43 671.172 1132.21 670.124 1132.21 668.804C1132.21 667.492 1132.43 666.448 1132.88 665.672C1133.33 664.896 1134.02 664.508 1134.93 664.508C1135.85 664.508 1136.53 664.896 1136.97 665.672C1137.43 666.44 1137.65 667.484 1137.65 668.804ZM1134.95 672.2C1135.54 672.2 1135.96 671.92 1136.23 671.36C1136.5 670.8 1136.63 669.948 1136.63 668.804C1136.63 667.668 1136.49 666.82 1136.21 666.26C1135.94 665.692 1135.51 665.408 1134.93 665.408C1133.79 665.408 1133.23 666.54 1133.23 668.804C1133.23 671.068 1133.8 672.2 1134.95 672.2ZM1142.84 675.404H1141.88V667.604H1142.84V668.24C1143.03 668.016 1143.3 667.836 1143.63 667.7C1143.97 667.556 1144.32 667.484 1144.68 667.484C1145.44 667.484 1146.05 667.74 1146.49 668.252C1146.94 668.756 1147.17 669.412 1147.17 670.22C1147.17 671.044 1146.91 671.736 1146.39 672.296C1145.88 672.848 1145.2 673.124 1144.36 673.124C1143.72 673.124 1143.21 673 1142.84 672.752V675.404ZM1144.4 668.384C1143.76 668.384 1143.24 668.632 1142.84 669.128V671.804C1143.26 672.084 1143.74 672.224 1144.28 672.224C1144.85 672.224 1145.3 672.044 1145.64 671.684C1145.98 671.316 1146.15 670.84 1146.15 670.256C1146.15 669.688 1146 669.236 1145.68 668.9C1145.37 668.556 1144.94 668.384 1144.4 668.384ZM1148.84 668.744L1148.58 667.976C1149.12 667.648 1149.72 667.484 1150.38 667.484C1151.11 667.484 1151.64 667.664 1151.97 668.024C1152.3 668.384 1152.46 668.94 1152.46 669.692V673.004H1151.55V672.308C1151.12 672.828 1150.55 673.088 1149.82 673.088C1149.32 673.088 1148.92 672.94 1148.62 672.644C1148.32 672.34 1148.16 671.932 1148.16 671.42C1148.16 670.892 1148.35 670.476 1148.73 670.172C1149.1 669.86 1149.6 669.704 1150.2 669.704C1150.77 669.704 1151.22 669.82 1151.55 670.052C1151.55 669.444 1151.46 669.008 1151.3 668.744C1151.13 668.48 1150.8 668.348 1150.32 668.348C1149.84 668.348 1149.34 668.48 1148.84 668.744ZM1150.16 672.224C1150.69 672.224 1151.16 671.992 1151.55 671.528V670.844C1151.21 670.604 1150.81 670.484 1150.34 670.484C1150.01 670.484 1149.73 670.564 1149.51 670.724C1149.29 670.876 1149.18 671.092 1149.18 671.372C1149.18 671.636 1149.27 671.844 1149.44 671.996C1149.61 672.148 1149.85 672.224 1150.16 672.224ZM1155.86 673.124C1155.45 673.124 1155.02 673.056 1154.56 672.92C1154.12 672.776 1153.81 672.6 1153.62 672.392L1154.12 671.672C1154.33 671.848 1154.59 671.992 1154.88 672.104C1155.19 672.208 1155.46 672.26 1155.71 672.26C1156.13 672.26 1156.47 672.18 1156.73 672.02C1157 671.852 1157.13 671.636 1157.13 671.372C1157.13 671.148 1157.03 670.976 1156.84 670.856C1156.66 670.736 1156.4 670.676 1156.07 670.676H1155.16V669.896H1156.01C1156.28 669.896 1156.51 669.824 1156.68 669.68C1156.86 669.528 1156.95 669.344 1156.95 669.128C1156.95 668.888 1156.84 668.7 1156.64 668.564C1156.43 668.42 1156.15 668.348 1155.8 668.348C1155.23 668.348 1154.69 668.548 1154.18 668.948L1153.8 668.204C1154.02 667.98 1154.32 667.804 1154.7 667.676C1155.1 667.548 1155.51 667.484 1155.94 667.484C1156.58 667.484 1157.08 667.612 1157.43 667.868C1157.79 668.124 1157.97 668.48 1157.97 668.936C1157.97 669.56 1157.65 669.984 1157.02 670.208V670.232C1157.37 670.272 1157.65 670.412 1157.85 670.652C1158.05 670.884 1158.15 671.168 1158.15 671.504C1158.15 672 1157.94 672.396 1157.51 672.692C1157.1 672.98 1156.54 673.124 1155.86 673.124ZM1161.11 670.424H1160.09V664.604H1161.11V670.424ZM1159.93 672.356C1159.93 672.18 1160 672.032 1160.13 671.912C1160.25 671.784 1160.42 671.72 1160.63 671.72C1160.8 671.72 1160.95 671.784 1161.07 671.912C1161.2 672.04 1161.27 672.188 1161.27 672.356C1161.27 672.548 1161.21 672.712 1161.09 672.848C1160.97 672.976 1160.81 673.04 1160.63 673.04C1160.42 673.04 1160.25 672.976 1160.13 672.848C1160 672.712 1159.93 672.548 1159.93 672.356Z" fill="#959595"/>
<path d="M669.161 477.427C668.9 477.338 668.616 477.477 668.526 477.739C668.437 478 668.577 478.284 668.839 478.373L669.161 477.427ZM668.839 478.373L980.339 584.477L980.661 583.53L669.161 477.427L668.839 478.373Z" fill="#525252"/>
<path d="M1033.5 645.004H1007.88V641.104C1013.32 635.784 1017.32 631.544 1019.88 628.384C1024.4 622.704 1026.66 617.944 1026.66 614.104C1026.66 612.104 1026.04 610.484 1024.8 609.244C1023.6 607.964 1021.94 607.324 1019.82 607.324C1017.98 607.324 1016.36 607.924 1014.96 609.124C1013.6 610.284 1012.72 611.924 1012.32 614.044L1008.24 612.364C1008.72 609.364 1010.06 606.984 1012.26 605.224C1014.5 603.424 1017.16 602.524 1020.24 602.524C1023.92 602.524 1026.76 603.584 1028.76 605.704C1030.76 607.824 1031.76 610.304 1031.76 613.144C1031.76 618.544 1029.18 624.284 1024.02 630.364C1021.7 633.084 1019.84 635.124 1018.44 636.484C1017.24 637.684 1015.8 639.024 1014.12 640.504H1033.5V645.004Z" fill="#999999"/>
</g>
</svg>
