<svg width="1447" height="863" viewBox="0 0 1447 863" fill="none" xmlns="http://www.w3.org/2000/svg">
<mask id="mask0_1324_81" style="mask-type:alpha" maskUnits="userSpaceOnUse" x="0" y="0" width="1447" height="863">
<rect width="1447" height="863" fill="#D9D9D9"/>
</mask>
<g mask="url(#mask0_1324_81)">
<circle cx="750.5" cy="320.5" r="5.5" fill="#525252"/>
<rect x="1069" y="247" width="269" height="129" fill="#C1C1C1" fill-opacity="0.8"/>
<rect x="1062" y="240" width="269" height="129" fill="white"/>
<rect x="1055.5" y="233.5" width="268" height="128" stroke="#525252"/>
<path d="M1140.8 273.66H1133.86V272.06H1140.78C1140.61 270.62 1140.01 269.487 1139 268.66C1137.99 267.82 1136.69 267.4 1135.12 267.4C1133.73 267.4 1132.55 267.78 1131.58 268.54L1130.92 267.26C1132.01 266.287 1133.55 265.8 1135.52 265.8C1137.6 265.8 1139.29 266.453 1140.6 267.76C1141.89 269.053 1142.54 270.787 1142.54 272.96C1142.54 275.107 1141.89 276.853 1140.58 278.2C1139.29 279.533 1137.55 280.2 1135.36 280.2C1133.47 280.2 1131.91 279.713 1130.7 278.74L1131.44 277.32C1132.57 278.173 1133.87 278.6 1135.32 278.6C1136.81 278.6 1138.06 278.16 1139.06 277.28C1140.09 276.373 1140.67 275.167 1140.8 273.66ZM1151.91 280H1150.31V272.6H1147.15L1147.05 274.12C1146.95 275.36 1146.79 276.393 1146.57 277.22C1146.37 278.033 1146.11 278.647 1145.77 279.06C1145.45 279.46 1145.11 279.74 1144.75 279.9C1144.39 280.047 1143.95 280.12 1143.43 280.12L1143.31 278.56C1143.46 278.573 1143.61 278.553 1143.77 278.5C1143.93 278.433 1144.11 278.3 1144.29 278.1C1144.49 277.9 1144.67 277.633 1144.81 277.3C1144.97 276.967 1145.11 276.5 1145.23 275.9C1145.37 275.287 1145.45 274.587 1145.49 273.8L1145.65 271H1151.91V280ZM1161.9 277.76L1162.4 279.02C1161.53 279.807 1160.41 280.2 1159.02 280.2C1157.55 280.2 1156.39 279.773 1155.52 278.92C1154.64 278.067 1154.2 276.927 1154.2 275.5C1154.2 274.153 1154.61 273.033 1155.44 272.14C1156.25 271.247 1157.39 270.8 1158.84 270.8C1160.04 270.8 1161.03 271.187 1161.82 271.96C1162.62 272.72 1163.02 273.707 1163.02 274.92C1163.02 275.307 1162.99 275.667 1162.92 276H1156C1156.07 276.84 1156.38 277.5 1156.94 277.98C1157.51 278.46 1158.25 278.7 1159.14 278.7C1160.31 278.7 1161.23 278.387 1161.9 277.76ZM1158.76 272.3C1157.97 272.3 1157.32 272.52 1156.8 272.96C1156.29 273.4 1155.99 273.98 1155.9 274.7H1161.36C1161.32 273.953 1161.07 273.367 1160.6 272.94C1160.15 272.513 1159.53 272.3 1158.76 272.3ZM1170.97 271H1173.07L1169.13 275.3L1173.45 280H1171.23L1167.17 275.4L1170.97 271ZM1166.79 280H1165.19V271H1166.79V280ZM1177.31 272.6H1174.01V271H1182.21V272.6H1178.91V280H1177.31V272.6ZM1185.56 284H1183.96V271H1185.56V272.06C1185.88 271.687 1186.32 271.387 1186.88 271.16C1187.44 270.92 1188.02 270.8 1188.62 270.8C1189.9 270.8 1190.91 271.227 1191.64 272.08C1192.4 272.92 1192.78 274.013 1192.78 275.36C1192.78 276.733 1192.35 277.887 1191.48 278.82C1190.63 279.74 1189.5 280.2 1188.1 280.2C1187.02 280.2 1186.17 279.993 1185.56 279.58V284ZM1188.16 272.3C1187.09 272.3 1186.23 272.713 1185.56 273.54V278C1186.27 278.467 1187.07 278.7 1187.96 278.7C1188.91 278.7 1189.66 278.4 1190.22 277.8C1190.79 277.187 1191.08 276.393 1191.08 275.42C1191.08 274.473 1190.82 273.72 1190.3 273.16C1189.78 272.587 1189.07 272.3 1188.16 272.3ZM1195.79 278.88C1194.91 277.973 1194.47 276.847 1194.47 275.5C1194.47 274.14 1194.91 273.02 1195.79 272.14C1196.69 271.247 1197.85 270.8 1199.27 270.8C1200.7 270.8 1201.85 271.247 1202.73 272.14C1203.63 273.02 1204.07 274.14 1204.07 275.5C1204.07 276.86 1203.63 277.987 1202.73 278.88C1201.85 279.76 1200.7 280.2 1199.27 280.2C1197.86 280.2 1196.7 279.76 1195.79 278.88ZM1197.05 273.2C1196.47 273.787 1196.17 274.553 1196.17 275.5C1196.17 276.447 1196.46 277.213 1197.03 277.8C1197.62 278.4 1198.37 278.7 1199.27 278.7C1200.18 278.7 1200.92 278.407 1201.49 277.82C1202.08 277.22 1202.37 276.447 1202.37 275.5C1202.37 274.58 1202.08 273.813 1201.49 273.2C1200.92 272.6 1200.18 272.3 1199.27 272.3C1198.37 272.3 1197.63 272.6 1197.05 273.2ZM1207.98 280H1206.38V271H1212.08V272.5H1207.98V280ZM1220.43 277.76L1220.93 279.02C1220.07 279.807 1218.94 280.2 1217.55 280.2C1216.09 280.2 1214.92 279.773 1214.05 278.92C1213.17 278.067 1212.73 276.927 1212.73 275.5C1212.73 274.153 1213.15 273.033 1213.97 272.14C1214.79 271.247 1215.92 270.8 1217.37 270.8C1218.57 270.8 1219.57 271.187 1220.35 271.96C1221.15 272.72 1221.55 273.707 1221.55 274.92C1221.55 275.307 1221.52 275.667 1221.45 276H1214.53C1214.6 276.84 1214.91 277.5 1215.47 277.98C1216.05 278.46 1216.78 278.7 1217.67 278.7C1218.85 278.7 1219.77 278.387 1220.43 277.76ZM1217.29 272.3C1216.51 272.3 1215.85 272.52 1215.33 272.96C1214.83 273.4 1214.53 273.98 1214.43 274.7H1219.89C1219.85 273.953 1219.6 273.367 1219.13 272.94C1218.68 272.513 1218.07 272.3 1217.29 272.3ZM1231.93 280H1230.33V276.2H1225.33V280H1223.73V271H1225.33V274.7H1230.33V271H1231.93V280ZM1241.92 277.76L1242.42 279.02C1241.55 279.807 1240.43 280.2 1239.04 280.2C1237.57 280.2 1236.41 279.773 1235.54 278.92C1234.66 278.067 1234.22 276.927 1234.22 275.5C1234.22 274.153 1234.63 273.033 1235.46 272.14C1236.27 271.247 1237.41 270.8 1238.86 270.8C1240.06 270.8 1241.05 271.187 1241.84 271.96C1242.64 272.72 1243.04 273.707 1243.04 274.92C1243.04 275.307 1243.01 275.667 1242.94 276H1236.02C1236.09 276.84 1236.4 277.5 1236.96 277.98C1237.53 278.46 1238.27 278.7 1239.16 278.7C1240.33 278.7 1241.25 278.387 1241.92 277.76ZM1238.78 272.3C1237.99 272.3 1237.34 272.52 1236.82 272.96C1236.31 273.4 1236.01 273.98 1235.92 274.7H1241.38C1241.34 273.953 1241.09 273.367 1240.62 272.94C1240.17 272.513 1239.55 272.3 1238.78 272.3ZM1246.81 284H1245.21V271H1246.81V272.06C1247.13 271.687 1247.57 271.387 1248.13 271.16C1248.69 270.92 1249.27 270.8 1249.87 270.8C1251.15 270.8 1252.16 271.227 1252.89 272.08C1253.65 272.92 1254.03 274.013 1254.03 275.36C1254.03 276.733 1253.6 277.887 1252.73 278.82C1251.88 279.74 1250.75 280.2 1249.35 280.2C1248.27 280.2 1247.42 279.993 1246.81 279.58V284ZM1249.41 272.3C1248.34 272.3 1247.48 272.713 1246.81 273.54V278C1247.52 278.467 1248.32 278.7 1249.21 278.7C1250.16 278.7 1250.91 278.4 1251.47 277.8C1252.04 277.187 1252.33 276.393 1252.33 275.42C1252.33 274.473 1252.07 273.72 1251.55 273.16C1251.03 272.587 1250.32 272.3 1249.41 272.3ZM1256.8 272.9L1256.38 271.62C1257.28 271.073 1258.28 270.8 1259.38 270.8C1260.6 270.8 1261.48 271.1 1262.02 271.7C1262.57 272.3 1262.84 273.227 1262.84 274.48V280H1261.32V278.84C1260.62 279.707 1259.66 280.14 1258.44 280.14C1257.62 280.14 1256.95 279.893 1256.44 279.4C1255.94 278.893 1255.68 278.213 1255.68 277.36C1255.68 276.48 1256 275.787 1256.62 275.28C1257.25 274.76 1258.07 274.5 1259.08 274.5C1260.03 274.5 1260.78 274.693 1261.32 275.08C1261.32 274.067 1261.18 273.34 1260.9 272.9C1260.62 272.46 1260.08 272.24 1259.28 272.24C1258.47 272.24 1257.64 272.46 1256.8 272.9ZM1259 278.7C1259.9 278.7 1260.67 278.313 1261.32 277.54V276.4C1260.76 276 1260.09 275.8 1259.3 275.8C1258.76 275.8 1258.3 275.933 1257.92 276.2C1257.56 276.453 1257.38 276.813 1257.38 277.28C1257.38 277.72 1257.52 278.067 1257.8 278.32C1258.1 278.573 1258.5 278.7 1259 278.7ZM1267.68 272.6H1264.38V271H1272.58V272.6H1269.28V280H1267.68V272.6ZM1274.76 278.88C1273.88 277.973 1273.44 276.847 1273.44 275.5C1273.44 274.14 1273.88 273.02 1274.76 272.14C1275.65 271.247 1276.81 270.8 1278.24 270.8C1279.66 270.8 1280.82 271.247 1281.7 272.14C1282.59 273.02 1283.04 274.14 1283.04 275.5C1283.04 276.86 1282.59 277.987 1281.7 278.88C1280.82 279.76 1279.66 280.2 1278.24 280.2C1276.82 280.2 1275.66 279.76 1274.76 278.88ZM1276.02 273.2C1275.43 273.787 1275.14 274.553 1275.14 275.5C1275.14 276.447 1275.42 277.213 1276 277.8C1276.58 278.4 1277.33 278.7 1278.24 278.7C1279.14 278.7 1279.88 278.407 1280.46 277.82C1281.04 277.22 1281.34 276.447 1281.34 275.5C1281.34 274.58 1281.04 273.813 1280.46 273.2C1279.88 272.6 1279.14 272.3 1278.24 272.3C1277.33 272.3 1276.59 272.6 1276.02 273.2ZM1286.95 284H1285.35V271H1286.95V272.06C1287.27 271.687 1287.71 271.387 1288.27 271.16C1288.83 270.92 1289.41 270.8 1290.01 270.8C1291.29 270.8 1292.29 271.227 1293.03 272.08C1293.79 272.92 1294.17 274.013 1294.17 275.36C1294.17 276.733 1293.73 277.887 1292.87 278.82C1292.01 279.74 1290.89 280.2 1289.49 280.2C1288.41 280.2 1287.56 279.993 1286.95 279.58V284ZM1289.55 272.3C1288.48 272.3 1287.61 272.713 1286.95 273.54V278C1287.65 278.467 1288.45 278.7 1289.35 278.7C1290.29 278.7 1291.05 278.4 1291.61 277.8C1292.18 277.187 1292.47 276.393 1292.47 275.42C1292.47 274.473 1292.21 273.72 1291.69 273.16C1291.17 272.587 1290.45 272.3 1289.55 272.3Z" fill="black"/>
<path d="M1137.26 297.28L1132.16 304H1131.26V295.6H1132.28V302.32L1137.38 295.6H1138.28V304H1137.26V297.28ZM1141.36 304H1140.4V298.6H1141.28L1143.36 301.276L1145.32 298.6H1146.18V304H1145.22V300.064L1143.34 302.572H1143.31L1141.36 300.064V304ZM1152.17 302.656L1152.47 303.412C1151.95 303.884 1151.28 304.12 1150.45 304.12C1149.57 304.12 1148.87 303.864 1148.35 303.352C1147.82 302.84 1147.55 302.156 1147.55 301.3C1147.55 300.492 1147.8 299.82 1148.3 299.284C1148.79 298.748 1149.47 298.48 1150.34 298.48C1151.06 298.48 1151.65 298.712 1152.13 299.176C1152.61 299.632 1152.85 300.224 1152.85 300.952C1152.85 301.184 1152.83 301.4 1152.79 301.6H1148.63C1148.67 302.104 1148.86 302.5 1149.2 302.788C1149.54 303.076 1149.98 303.22 1150.52 303.22C1151.22 303.22 1151.77 303.032 1152.17 302.656ZM1150.29 299.38C1149.82 299.38 1149.43 299.512 1149.11 299.776C1148.81 300.04 1148.63 300.388 1148.57 300.82H1151.85C1151.83 300.372 1151.67 300.02 1151.39 299.764C1151.12 299.508 1150.75 299.38 1150.29 299.38ZM1159.07 304H1158.11V301.72H1155.11V304H1154.15V298.6H1155.11V300.82H1158.11V298.6H1159.07V304ZM1165.73 304H1164.77V301.72H1161.77V304H1160.81V298.6H1161.77V300.82H1164.77V298.6H1165.73V304ZM1167.89 303.328C1167.37 302.784 1167.1 302.108 1167.1 301.3C1167.1 300.484 1167.37 299.812 1167.89 299.284C1168.43 298.748 1169.13 298.48 1169.98 298.48C1170.84 298.48 1171.53 298.748 1172.06 299.284C1172.59 299.812 1172.86 300.484 1172.86 301.3C1172.86 302.116 1172.59 302.792 1172.06 303.328C1171.53 303.856 1170.84 304.12 1169.98 304.12C1169.13 304.12 1168.44 303.856 1167.89 303.328ZM1168.65 299.92C1168.3 300.272 1168.12 300.732 1168.12 301.3C1168.12 301.868 1168.29 302.328 1168.64 302.68C1168.99 303.04 1169.44 303.22 1169.98 303.22C1170.53 303.22 1170.97 303.044 1171.31 302.692C1171.67 302.332 1171.84 301.868 1171.84 301.3C1171.84 300.748 1171.67 300.288 1171.31 299.92C1170.97 299.56 1170.53 299.38 1169.98 299.38C1169.44 299.38 1168.99 299.56 1168.65 299.92ZM1178.73 304.12C1178.32 304.12 1177.89 304.052 1177.43 303.916C1176.99 303.772 1176.68 303.596 1176.5 303.388L1176.99 302.668C1177.21 302.844 1177.46 302.988 1177.76 303.1C1178.06 303.204 1178.34 303.256 1178.59 303.256C1179 303.256 1179.34 303.176 1179.61 303.016C1179.87 302.848 1180 302.632 1180 302.368C1180 302.144 1179.91 301.972 1179.71 301.852C1179.53 301.732 1179.27 301.672 1178.95 301.672H1178.03V300.892H1178.89C1179.16 300.892 1179.38 300.82 1179.56 300.676C1179.73 300.524 1179.82 300.34 1179.82 300.124C1179.82 299.884 1179.72 299.696 1179.51 299.56C1179.3 299.416 1179.02 299.344 1178.67 299.344C1178.1 299.344 1177.56 299.544 1177.05 299.944L1176.68 299.2C1176.89 298.976 1177.19 298.8 1177.58 298.672C1177.97 298.544 1178.38 298.48 1178.81 298.48C1179.45 298.48 1179.95 298.608 1180.3 298.864C1180.66 299.12 1180.84 299.476 1180.84 299.932C1180.84 300.556 1180.53 300.98 1179.89 301.204V301.228C1180.25 301.268 1180.52 301.408 1180.72 301.648C1180.92 301.88 1181.02 302.164 1181.02 302.5C1181.02 302.996 1180.81 303.392 1180.39 303.688C1179.97 303.976 1179.42 304.12 1178.73 304.12ZM1182.64 305.32H1181.74V303.1H1182.41C1182.61 302.852 1182.79 302.452 1182.94 301.9C1183.09 301.34 1183.19 300.716 1183.24 300.028L1183.33 298.6H1187.01V303.1H1187.91V305.32H1187.01V304H1182.64V305.32ZM1184.23 299.5L1184.17 300.4C1184.12 301 1184.02 301.548 1183.88 302.044C1183.73 302.54 1183.59 302.892 1183.43 303.1H1186.05V299.5H1184.23ZM1193.21 302.656L1193.51 303.412C1192.99 303.884 1192.32 304.12 1191.49 304.12C1190.61 304.12 1189.91 303.864 1189.39 303.352C1188.86 302.84 1188.59 302.156 1188.59 301.3C1188.59 300.492 1188.84 299.82 1189.34 299.284C1189.83 298.748 1190.51 298.48 1191.38 298.48C1192.1 298.48 1192.69 298.712 1193.17 299.176C1193.65 299.632 1193.89 300.224 1193.89 300.952C1193.89 301.184 1193.87 301.4 1193.83 301.6H1189.67C1189.71 302.104 1189.9 302.5 1190.24 302.788C1190.58 303.076 1191.02 303.22 1191.56 303.22C1192.26 303.22 1192.81 303.032 1193.21 302.656ZM1191.33 299.38C1190.86 299.38 1190.47 299.512 1190.15 299.776C1189.85 300.04 1189.67 300.388 1189.61 300.82H1192.89C1192.87 300.372 1192.71 300.02 1192.43 299.764C1192.16 299.508 1191.79 299.38 1191.33 299.38ZM1199.27 302.524L1199.73 303.22C1199.26 303.82 1198.57 304.12 1197.65 304.12C1196.79 304.12 1196.09 303.864 1195.55 303.352C1195.02 302.84 1194.76 302.156 1194.76 301.3C1194.76 300.508 1195.02 299.84 1195.54 299.296C1196.06 298.752 1196.71 298.48 1197.49 298.48C1198.44 298.48 1199.15 298.716 1199.62 299.188L1199.17 299.944C1198.76 299.568 1198.24 299.38 1197.63 299.38C1197.12 299.38 1196.69 299.564 1196.32 299.932C1195.96 300.292 1195.78 300.748 1195.78 301.3C1195.78 301.884 1195.96 302.348 1196.33 302.692C1196.71 303.044 1197.17 303.22 1197.72 303.22C1198.35 303.22 1198.86 302.988 1199.27 302.524ZM1202.8 304H1200.98V298.6H1201.94V300.22H1202.92C1203.66 300.22 1204.2 300.388 1204.54 300.724C1204.89 301.052 1205.06 301.504 1205.06 302.08C1205.06 302.624 1204.88 303.08 1204.52 303.448C1204.16 303.816 1203.59 304 1202.8 304ZM1202.74 301.12H1201.94V303.1H1202.73C1203.6 303.1 1204.04 302.772 1204.04 302.116C1204.04 301.452 1203.61 301.12 1202.74 301.12ZM1212.51 298.6H1213.77L1211.4 301.18L1214 304H1212.66L1210.23 301.24L1212.51 298.6ZM1210 304H1209.04V298.6H1210V304ZM1219.1 299.98L1215.98 304H1215.02V298.6H1215.98V302.62L1219.1 298.6H1220.06V304H1219.1V299.98ZM1226.72 304H1225.76V301.72H1222.76V304H1221.8V298.6H1222.76V300.82H1225.76V298.6H1226.72V304ZM1232.72 302.656L1233.02 303.412C1232.5 303.884 1231.82 304.12 1230.99 304.12C1230.11 304.12 1229.41 303.864 1228.89 303.352C1228.36 302.84 1228.1 302.156 1228.1 301.3C1228.1 300.492 1228.35 299.82 1228.84 299.284C1229.33 298.748 1230.01 298.48 1230.88 298.48C1231.6 298.48 1232.2 298.712 1232.67 299.176C1233.15 299.632 1233.39 300.224 1233.39 300.952C1233.39 301.184 1233.37 301.4 1233.33 301.6H1229.18C1229.22 302.104 1229.41 302.5 1229.74 302.788C1230.09 303.076 1230.53 303.22 1231.06 303.22C1231.77 303.22 1232.32 303.032 1232.72 302.656ZM1230.83 299.38C1230.36 299.38 1229.97 299.512 1229.66 299.776C1229.35 300.04 1229.17 300.388 1229.12 300.82H1232.39C1232.37 300.372 1232.22 300.02 1231.94 299.764C1231.67 299.508 1231.3 299.38 1230.83 299.38ZM1235.88 299.56H1233.9V298.6H1238.82V299.56H1236.84V304H1235.88V299.56ZM1243.95 299.98L1240.83 304H1239.87V298.6H1240.83V302.62L1243.95 298.6H1244.91V304H1243.95V299.98ZM1249.75 298.6H1250.71V304H1249.75V301.9C1249.34 302.164 1248.84 302.296 1248.25 302.296C1246.97 302.296 1246.33 301.608 1246.33 300.232V298.6H1247.35V300.124C1247.35 300.972 1247.74 301.396 1248.52 301.396C1249.02 301.396 1249.43 301.284 1249.75 301.06V298.6ZM1256.71 302.656L1257.01 303.412C1256.49 303.884 1255.81 304.12 1254.98 304.12C1254.1 304.12 1253.4 303.864 1252.88 303.352C1252.35 302.84 1252.09 302.156 1252.09 301.3C1252.09 300.492 1252.33 299.82 1252.83 299.284C1253.32 298.748 1254 298.48 1254.87 298.48C1255.59 298.48 1256.19 298.712 1256.66 299.176C1257.14 299.632 1257.38 300.224 1257.38 300.952C1257.38 301.184 1257.36 301.4 1257.32 301.6H1253.17C1253.21 302.104 1253.39 302.5 1253.73 302.788C1254.07 303.076 1254.51 303.22 1255.05 303.22C1255.75 303.22 1256.31 303.032 1256.71 302.656ZM1254.82 299.38C1254.35 299.38 1253.96 299.512 1253.65 299.776C1253.34 300.04 1253.16 300.388 1253.11 300.82H1256.38C1256.36 300.372 1256.21 300.02 1255.93 299.764C1255.65 299.508 1255.29 299.38 1254.82 299.38ZM1262.76 302.524L1263.22 303.22C1262.75 303.82 1262.06 304.12 1261.14 304.12C1260.28 304.12 1259.58 303.864 1259.04 303.352C1258.51 302.84 1258.25 302.156 1258.25 301.3C1258.25 300.508 1258.51 299.84 1259.03 299.296C1259.55 298.752 1260.2 298.48 1260.99 298.48C1261.93 298.48 1262.64 298.716 1263.11 299.188L1262.67 299.944C1262.25 299.568 1261.73 299.38 1261.12 299.38C1260.61 299.38 1260.18 299.564 1259.81 299.932C1259.45 300.292 1259.27 300.748 1259.27 301.3C1259.27 301.884 1259.45 302.348 1259.82 302.692C1260.2 303.044 1260.66 303.22 1261.21 303.22C1261.84 303.22 1262.35 302.988 1262.76 302.524ZM1267.94 298.6H1269.2L1266.83 301.18L1269.43 304H1268.09L1265.66 301.24L1267.94 298.6ZM1265.43 304H1264.47V298.6H1265.43V304ZM1270.73 299.74L1270.48 298.972C1271.02 298.644 1271.62 298.48 1272.28 298.48C1273.01 298.48 1273.54 298.66 1273.87 299.02C1274.19 299.38 1274.36 299.936 1274.36 300.688V304H1273.45V303.304C1273.02 303.824 1272.45 304.084 1271.72 304.084C1271.22 304.084 1270.82 303.936 1270.52 303.64C1270.21 303.336 1270.06 302.928 1270.06 302.416C1270.06 301.888 1270.25 301.472 1270.63 301.168C1271 300.856 1271.49 300.7 1272.1 300.7C1272.67 300.7 1273.12 300.816 1273.45 301.048C1273.45 300.44 1273.36 300.004 1273.19 299.74C1273.03 299.476 1272.7 299.344 1272.22 299.344C1271.73 299.344 1271.24 299.476 1270.73 299.74ZM1272.05 303.22C1272.59 303.22 1273.05 302.988 1273.45 302.524V301.84C1273.11 301.6 1272.71 301.48 1272.23 301.48C1271.91 301.48 1271.63 301.56 1271.41 301.72C1271.19 301.872 1271.08 302.088 1271.08 302.368C1271.08 302.632 1271.17 302.84 1271.33 302.992C1271.51 303.144 1271.75 303.22 1272.05 303.22ZM1278.33 298.6H1280.01V304H1279.05V302.2H1278.01L1276.69 304H1275.52L1277.08 301.96C1276.75 301.888 1276.48 301.712 1276.25 301.432C1276.03 301.144 1275.92 300.8 1275.92 300.4C1275.92 299.848 1276.12 299.412 1276.52 299.092C1276.92 298.764 1277.52 298.6 1278.33 298.6ZM1276.94 300.424C1276.94 300.68 1277.04 300.892 1277.24 301.06C1277.44 301.22 1277.67 301.3 1277.95 301.3H1279.05V299.5H1278.17C1277.77 299.5 1277.46 299.584 1277.25 299.752C1277.04 299.92 1276.94 300.144 1276.94 300.424ZM1134.37 317.648H1131.7V316.868H1134.36C1134.28 316.388 1134.08 316.02 1133.74 315.764C1133.42 315.508 1133 315.38 1132.48 315.38C1131.82 315.38 1131.27 315.576 1130.83 315.968L1130.42 315.248C1130.65 315.016 1130.96 314.832 1131.34 314.696C1131.73 314.552 1132.1 314.48 1132.47 314.48C1133.34 314.48 1134.03 314.736 1134.55 315.248C1135.08 315.76 1135.35 316.444 1135.35 317.3C1135.35 318.092 1135.09 318.76 1134.57 319.304C1134.05 319.848 1133.4 320.12 1132.62 320.12C1131.64 320.12 1130.92 319.892 1130.44 319.436L1130.9 318.728C1131.27 319.056 1131.82 319.22 1132.56 319.22C1133.06 319.22 1133.47 319.084 1133.79 318.812C1134.11 318.532 1134.3 318.144 1134.37 317.648ZM1141.66 320H1140.7V317.72H1137.7V320H1136.74V314.6H1137.7V316.82H1140.7V314.6H1141.66V320ZM1147.65 318.656L1147.95 319.412C1147.43 319.884 1146.76 320.12 1145.92 320.12C1145.04 320.12 1144.34 319.864 1143.82 319.352C1143.3 318.84 1143.03 318.156 1143.03 317.3C1143.03 316.492 1143.28 315.82 1143.78 315.284C1144.26 314.748 1144.94 314.48 1145.82 314.48C1146.54 314.48 1147.13 314.712 1147.6 315.176C1148.08 315.632 1148.32 316.224 1148.32 316.952C1148.32 317.184 1148.3 317.4 1148.26 317.6H1144.11C1144.15 318.104 1144.34 318.5 1144.68 318.788C1145.02 319.076 1145.46 319.22 1146 319.22C1146.7 319.22 1147.25 319.032 1147.65 318.656ZM1145.77 315.38C1145.3 315.38 1144.9 315.512 1144.59 315.776C1144.29 316.04 1144.11 316.388 1144.05 316.82H1147.33C1147.3 316.372 1147.15 316.02 1146.87 315.764C1146.6 315.508 1146.23 315.38 1145.77 315.38ZM1150.59 322.4H1149.63V314.6H1150.59V315.236C1150.78 315.012 1151.04 314.832 1151.38 314.696C1151.71 314.552 1152.06 314.48 1152.42 314.48C1153.19 314.48 1153.79 314.736 1154.23 315.248C1154.69 315.752 1154.92 316.408 1154.92 317.216C1154.92 318.04 1154.66 318.732 1154.14 319.292C1153.63 319.844 1152.95 320.12 1152.11 320.12C1151.46 320.12 1150.95 319.996 1150.59 319.748V322.4ZM1152.15 315.38C1151.51 315.38 1150.99 315.628 1150.59 316.124V318.8C1151.01 319.08 1151.49 319.22 1152.03 319.22C1152.59 319.22 1153.05 319.04 1153.38 318.68C1153.73 318.312 1153.9 317.836 1153.9 317.252C1153.9 316.684 1153.74 316.232 1153.43 315.896C1153.12 315.552 1152.69 315.38 1152.15 315.38ZM1157.25 320H1156.29V314.6H1159.71V315.5H1157.25V320ZM1164.72 315.98L1161.6 320H1160.64V314.6H1161.6V318.62L1164.72 314.6H1165.68V320H1164.72V315.98ZM1169.79 314.6H1171.47V320H1170.51V318.2H1169.47L1168.15 320H1166.98L1168.54 317.96C1168.21 317.888 1167.94 317.712 1167.71 317.432C1167.49 317.144 1167.38 316.8 1167.38 316.4C1167.38 315.848 1167.58 315.412 1167.98 315.092C1168.38 314.764 1168.98 314.6 1169.79 314.6ZM1168.4 316.424C1168.4 316.68 1168.5 316.892 1168.7 317.06C1168.9 317.22 1169.13 317.3 1169.41 317.3H1170.51V315.5H1169.63C1169.23 315.5 1168.92 315.584 1168.71 315.752C1168.5 315.92 1168.4 316.144 1168.4 316.424ZM1180.77 320H1179.81V315.5H1176.87V320H1175.91V314.6H1180.77V320ZM1183.47 322.4H1182.51V314.6H1183.47V315.236C1183.66 315.012 1183.92 314.832 1184.26 314.696C1184.6 314.552 1184.94 314.48 1185.3 314.48C1186.07 314.48 1186.68 314.736 1187.12 315.248C1187.57 315.752 1187.8 316.408 1187.8 317.216C1187.8 318.04 1187.54 318.732 1187.02 319.292C1186.51 319.844 1185.83 320.12 1184.99 320.12C1184.34 320.12 1183.84 319.996 1183.47 319.748V322.4ZM1185.03 315.38C1184.39 315.38 1183.87 315.628 1183.47 316.124V318.8C1183.89 319.08 1184.37 319.22 1184.91 319.22C1185.48 319.22 1185.93 319.04 1186.26 318.68C1186.61 318.312 1186.78 317.836 1186.78 317.252C1186.78 316.684 1186.62 316.232 1186.31 315.896C1186 315.552 1185.57 315.38 1185.03 315.38ZM1193.44 318.656L1193.74 319.412C1193.22 319.884 1192.54 320.12 1191.71 320.12C1190.83 320.12 1190.13 319.864 1189.61 319.352C1189.08 318.84 1188.82 318.156 1188.82 317.3C1188.82 316.492 1189.06 315.82 1189.56 315.284C1190.05 314.748 1190.73 314.48 1191.6 314.48C1192.32 314.48 1192.92 314.712 1193.39 315.176C1193.87 315.632 1194.11 316.224 1194.11 316.952C1194.11 317.184 1194.09 317.4 1194.05 317.6H1189.9C1189.94 318.104 1190.12 318.5 1190.46 318.788C1190.8 319.076 1191.24 319.22 1191.78 319.22C1192.48 319.22 1193.04 319.032 1193.44 318.656ZM1191.55 315.38C1191.08 315.38 1190.69 315.512 1190.38 315.776C1190.07 316.04 1189.89 316.388 1189.84 316.82H1193.11C1193.09 316.372 1192.94 316.02 1192.66 315.764C1192.38 315.508 1192.02 315.38 1191.55 315.38ZM1195.77 319.328C1195.24 318.784 1194.98 318.108 1194.98 317.3C1194.98 316.484 1195.24 315.812 1195.77 315.284C1196.31 314.748 1197 314.48 1197.86 314.48C1198.72 314.48 1199.41 314.748 1199.94 315.284C1200.47 315.812 1200.74 316.484 1200.74 317.3C1200.74 318.116 1200.47 318.792 1199.94 319.328C1199.41 319.856 1198.72 320.12 1197.86 320.12C1197.01 320.12 1196.32 319.856 1195.77 319.328ZM1196.53 315.92C1196.18 316.272 1196 316.732 1196 317.3C1196 317.868 1196.17 318.328 1196.52 318.68C1196.87 319.04 1197.32 319.22 1197.86 319.22C1198.4 319.22 1198.85 319.044 1199.19 318.692C1199.54 318.332 1199.72 317.868 1199.72 317.3C1199.72 316.748 1199.54 316.288 1199.19 315.92C1198.85 315.56 1198.4 315.38 1197.86 315.38C1197.32 315.38 1196.87 315.56 1196.53 315.92ZM1206.3 311.48L1206.82 312.236C1206.63 312.5 1206.39 312.68 1206.12 312.776C1205.83 312.88 1205.49 312.96 1205.11 313.016C1204.75 313.072 1204.4 313.172 1204.07 313.316C1203.25 313.692 1202.8 314.56 1202.7 315.92H1202.73C1202.9 315.544 1203.19 315.24 1203.58 315.008C1203.98 314.776 1204.41 314.66 1204.86 314.66C1205.63 314.66 1206.24 314.904 1206.69 315.392C1207.14 315.88 1207.37 316.532 1207.37 317.348C1207.37 318.116 1207.11 318.772 1206.59 319.316C1206.08 319.852 1205.41 320.12 1204.6 320.12C1203.72 320.12 1203.02 319.82 1202.51 319.22C1202 318.628 1201.74 317.808 1201.74 316.76C1201.74 314.424 1202.41 312.972 1203.75 312.404C1204.05 312.268 1204.4 312.168 1204.8 312.104C1205.11 312.048 1205.34 312.004 1205.47 311.972C1205.61 311.94 1205.75 311.884 1205.91 311.804C1206.07 311.724 1206.2 311.616 1206.3 311.48ZM1202.76 316.94C1202.76 317.628 1202.93 318.18 1203.27 318.596C1203.6 319.012 1204.04 319.22 1204.57 319.22C1205.09 319.22 1205.52 319.044 1205.85 318.692C1206.18 318.348 1206.35 317.916 1206.35 317.396C1206.35 316.844 1206.19 316.4 1205.88 316.064C1205.58 315.728 1205.16 315.56 1204.62 315.56C1204.13 315.56 1203.73 315.696 1203.4 315.968C1203.05 316.248 1202.84 316.572 1202.76 316.94ZM1209.71 322.4H1208.75V314.6H1209.71V315.236C1209.9 315.012 1210.16 314.832 1210.5 314.696C1210.83 314.552 1211.18 314.48 1211.54 314.48C1212.31 314.48 1212.91 314.736 1213.35 315.248C1213.81 315.752 1214.04 316.408 1214.04 317.216C1214.04 318.04 1213.78 318.732 1213.26 319.292C1212.75 319.844 1212.07 320.12 1211.23 320.12C1210.58 320.12 1210.07 319.996 1209.71 319.748V322.4ZM1211.27 315.38C1210.63 315.38 1210.11 315.628 1209.71 316.124V318.8C1210.13 319.08 1210.61 319.22 1211.15 319.22C1211.71 319.22 1212.17 319.04 1212.5 318.68C1212.85 318.312 1213.02 317.836 1213.02 317.252C1213.02 316.684 1212.86 316.232 1212.55 315.896C1212.24 315.552 1211.81 315.38 1211.27 315.38ZM1215.7 315.74L1215.45 314.972C1215.99 314.644 1216.59 314.48 1217.25 314.48C1217.98 314.48 1218.51 314.66 1218.83 315.02C1219.16 315.38 1219.33 315.936 1219.33 316.688V320H1218.41V319.304C1217.99 319.824 1217.41 320.084 1216.69 320.084C1216.19 320.084 1215.79 319.936 1215.49 319.64C1215.18 319.336 1215.03 318.928 1215.03 318.416C1215.03 317.888 1215.22 317.472 1215.59 317.168C1215.97 316.856 1216.46 316.7 1217.07 316.7C1217.64 316.7 1218.09 316.816 1218.41 317.048C1218.41 316.44 1218.33 316.004 1218.16 315.74C1217.99 315.476 1217.67 315.344 1217.19 315.344C1216.7 315.344 1216.21 315.476 1215.7 315.74ZM1217.02 319.22C1217.56 319.22 1218.02 318.988 1218.41 318.524V317.84C1218.08 317.6 1217.67 317.48 1217.2 317.48C1216.87 317.48 1216.6 317.56 1216.37 317.72C1216.16 317.872 1216.05 318.088 1216.05 318.368C1216.05 318.632 1216.13 318.84 1216.3 318.992C1216.48 319.144 1216.72 319.22 1217.02 319.22ZM1222.72 320.12C1222.31 320.12 1221.88 320.052 1221.43 319.916C1220.99 319.772 1220.67 319.596 1220.49 319.388L1220.98 318.668C1221.2 318.844 1221.45 318.988 1221.75 319.1C1222.05 319.204 1222.33 319.256 1222.58 319.256C1222.99 319.256 1223.33 319.176 1223.6 319.016C1223.86 318.848 1223.99 318.632 1223.99 318.368C1223.99 318.144 1223.9 317.972 1223.71 317.852C1223.52 317.732 1223.27 317.672 1222.94 317.672H1222.03V316.892H1222.88C1223.15 316.892 1223.37 316.82 1223.55 316.676C1223.73 316.524 1223.81 316.34 1223.81 316.124C1223.81 315.884 1223.71 315.696 1223.5 315.56C1223.29 315.416 1223.01 315.344 1222.66 315.344C1222.09 315.344 1221.55 315.544 1221.04 315.944L1220.67 315.2C1220.89 314.976 1221.19 314.8 1221.57 314.672C1221.96 314.544 1222.37 314.48 1222.81 314.48C1223.45 314.48 1223.94 314.608 1224.29 314.864C1224.65 315.12 1224.83 315.476 1224.83 315.932C1224.83 316.556 1224.52 316.98 1223.89 317.204V317.228C1224.24 317.268 1224.51 317.408 1224.71 317.648C1224.91 317.88 1225.01 318.164 1225.01 318.5C1225.01 318.996 1224.8 319.392 1224.38 319.688C1223.96 319.976 1223.41 320.12 1222.72 320.12ZM1230.29 314.6H1231.39L1229.23 320C1228.83 320.952 1228.49 321.584 1228.21 321.896C1227.9 322.232 1227.55 322.4 1227.16 322.4C1226.81 322.4 1226.47 322.288 1226.14 322.064L1226.45 321.332C1226.71 321.452 1226.91 321.512 1227.05 321.512C1227.28 321.512 1227.48 321.416 1227.65 321.224C1227.84 321.032 1228.02 320.72 1228.21 320.288L1228.33 320L1225.73 314.6H1226.89L1228.47 318.032C1228.5 318.088 1228.61 318.36 1228.79 318.848C1228.87 318.584 1228.95 318.308 1229.05 318.02L1230.29 314.6ZM1236.42 318.656L1236.72 319.412C1236.2 319.884 1235.52 320.12 1234.69 320.12C1233.81 320.12 1233.11 319.864 1232.59 319.352C1232.06 318.84 1231.8 318.156 1231.8 317.3C1231.8 316.492 1232.05 315.82 1232.54 315.284C1233.03 314.748 1233.71 314.48 1234.58 314.48C1235.3 314.48 1235.9 314.712 1236.37 315.176C1236.85 315.632 1237.09 316.224 1237.09 316.952C1237.09 317.184 1237.07 317.4 1237.03 317.6H1232.88C1232.92 318.104 1233.11 318.5 1233.44 318.788C1233.79 319.076 1234.23 319.22 1234.76 319.22C1235.47 319.22 1236.02 319.032 1236.42 318.656ZM1234.54 315.38C1234.06 315.38 1233.67 315.512 1233.36 315.776C1233.06 316.04 1232.88 316.388 1232.82 316.82H1236.1C1236.07 316.372 1235.92 316.02 1235.64 315.764C1235.37 315.508 1235 315.38 1234.54 315.38ZM1239.59 315.56H1237.61V314.6H1242.53V315.56H1240.55V320H1239.59V315.56ZM1247.55 318.524L1248.01 319.22C1247.54 319.82 1246.85 320.12 1245.93 320.12C1245.07 320.12 1244.37 319.864 1243.83 319.352C1243.3 318.84 1243.04 318.156 1243.04 317.3C1243.04 316.508 1243.3 315.84 1243.82 315.296C1244.34 314.752 1244.99 314.48 1245.78 314.48C1246.72 314.48 1247.43 314.716 1247.9 315.188L1247.46 315.944C1247.04 315.568 1246.52 315.38 1245.91 315.38C1245.4 315.38 1244.97 315.564 1244.6 315.932C1244.24 316.292 1244.06 316.748 1244.06 317.3C1244.06 317.884 1244.24 318.348 1244.61 318.692C1244.99 319.044 1245.45 319.22 1246 319.22C1246.63 319.22 1247.14 318.988 1247.55 318.524ZM1251.36 314.6H1253.04V320H1252.08V318.2H1251.04L1249.72 320H1248.56L1250.12 317.96C1249.79 317.888 1249.51 317.712 1249.29 317.432C1249.06 317.144 1248.95 316.8 1248.95 316.4C1248.95 315.848 1249.15 315.412 1249.55 315.092C1249.95 314.764 1250.56 314.6 1251.36 314.6ZM1249.97 316.424C1249.97 316.68 1250.07 316.892 1250.27 317.06C1250.47 317.22 1250.71 317.3 1250.98 317.3H1252.08V315.5H1251.21C1250.8 315.5 1250.49 315.584 1250.28 315.752C1250.08 315.92 1249.97 316.144 1249.97 316.424ZM1130.86 336V330.6C1130.9 330.6 1130.96 330.6 1131.03 330.6C1131.1 330.592 1131.21 330.588 1131.34 330.588C1131.48 330.58 1131.6 330.576 1131.72 330.576C1132.31 330.56 1132.68 330.552 1132.82 330.552C1134.37 330.552 1135.15 331.016 1135.15 331.944C1135.15 332.264 1135.05 332.54 1134.85 332.772C1134.65 332.996 1134.39 333.132 1134.07 333.18V333.204C1134.91 333.356 1135.33 333.78 1135.33 334.476C1135.33 335.524 1134.5 336.048 1132.84 336.048C1132.76 336.048 1132.41 336.04 1131.79 336.024C1131.67 336.024 1131.54 336.02 1131.39 336.012C1131.25 336.012 1131.14 336.008 1131.06 336C1130.98 336 1130.91 336 1130.86 336ZM1132.98 333.576H1131.82V335.232C1132.4 335.256 1132.77 335.268 1132.93 335.268C1133.85 335.268 1134.31 334.98 1134.31 334.404C1134.31 333.852 1133.86 333.576 1132.98 333.576ZM1132.89 331.332C1132.66 331.332 1132.3 331.344 1131.82 331.368V332.976H1133.04C1133.36 332.976 1133.63 332.9 1133.83 332.748C1134.03 332.596 1134.13 332.392 1134.13 332.136C1134.13 331.6 1133.72 331.332 1132.89 331.332ZM1142.99 333.648H1140.33V332.868H1142.98C1142.91 332.388 1142.71 332.02 1142.37 331.764C1142.04 331.508 1141.62 331.38 1141.11 331.38C1140.45 331.38 1139.89 331.576 1139.45 331.968L1139.05 331.248C1139.28 331.016 1139.59 330.832 1139.97 330.696C1140.35 330.552 1140.73 330.48 1141.1 330.48C1141.96 330.48 1142.65 330.736 1143.17 331.248C1143.71 331.76 1143.98 332.444 1143.98 333.3C1143.98 334.092 1143.72 334.76 1143.2 335.304C1142.68 335.848 1142.03 336.12 1141.24 336.12C1140.27 336.12 1139.54 335.892 1139.07 335.436L1139.53 334.728C1139.89 335.056 1140.45 335.22 1141.18 335.22C1141.69 335.22 1142.1 335.084 1142.42 334.812C1142.74 334.532 1142.93 334.144 1142.99 333.648ZM1149.81 336H1148.85V331.56H1146.95L1146.89 332.472C1146.83 333.216 1146.73 333.836 1146.6 334.332C1146.48 334.82 1146.32 335.188 1146.12 335.436C1145.93 335.676 1145.73 335.844 1145.51 335.94C1145.29 336.028 1145.03 336.072 1144.72 336.072L1144.65 335.136C1144.73 335.144 1144.83 335.132 1144.92 335.1C1145.02 335.06 1145.12 334.98 1145.23 334.86C1145.35 334.74 1145.46 334.58 1145.55 334.38C1145.64 334.18 1145.73 333.9 1145.8 333.54C1145.88 333.172 1145.93 332.752 1145.95 332.28L1146.05 330.6H1149.81V336ZM1155.8 334.656L1156.1 335.412C1155.58 335.884 1154.9 336.12 1154.07 336.12C1153.19 336.12 1152.49 335.864 1151.97 335.352C1151.44 334.84 1151.18 334.156 1151.18 333.3C1151.18 332.492 1151.42 331.82 1151.92 331.284C1152.41 330.748 1153.09 330.48 1153.96 330.48C1154.68 330.48 1155.28 330.712 1155.75 331.176C1156.23 331.632 1156.47 332.224 1156.47 332.952C1156.47 333.184 1156.45 333.4 1156.41 333.6H1152.26C1152.3 334.104 1152.48 334.5 1152.82 334.788C1153.16 335.076 1153.6 335.22 1154.14 335.22C1154.84 335.22 1155.4 335.032 1155.8 334.656ZM1153.91 331.38C1153.44 331.38 1153.05 331.512 1152.74 331.776C1152.43 332.04 1152.25 332.388 1152.2 332.82H1155.47C1155.45 332.372 1155.3 332.02 1155.02 331.764C1154.74 331.508 1154.38 331.38 1153.91 331.38ZM1161.24 330.6H1162.5L1160.13 333.18L1162.73 336H1161.39L1158.96 333.24L1161.24 330.6ZM1158.73 336H1157.77V330.6H1158.73V336ZM1165.04 331.56H1163.06V330.6H1167.98V331.56H1166V336H1165.04V331.56ZM1169.99 338.4H1169.03V330.6H1169.99V331.236C1170.18 331.012 1170.45 330.832 1170.78 330.696C1171.12 330.552 1171.47 330.48 1171.83 330.48C1172.6 330.48 1173.2 330.736 1173.64 331.248C1174.1 331.752 1174.32 332.408 1174.32 333.216C1174.32 334.04 1174.06 334.732 1173.54 335.292C1173.03 335.844 1172.36 336.12 1171.52 336.12C1170.87 336.12 1170.36 335.996 1169.99 335.748V338.4ZM1171.55 331.38C1170.91 331.38 1170.39 331.628 1169.99 332.124V334.8C1170.42 335.08 1170.9 335.22 1171.43 335.22C1172 335.22 1172.45 335.04 1172.79 334.68C1173.13 334.312 1173.3 333.836 1173.3 333.252C1173.3 332.684 1173.15 332.232 1172.84 331.896C1172.52 331.552 1172.1 331.38 1171.55 331.38ZM1179.78 331.98L1176.66 336H1175.7V330.6H1176.66V334.62L1179.78 330.6H1180.74V336H1179.78V331.98ZM1185.58 330.6H1186.54V336H1185.58V333.9C1185.17 334.164 1184.67 334.296 1184.08 334.296C1182.8 334.296 1182.16 333.608 1182.16 332.232V330.6H1183.18V332.124C1183.18 332.972 1183.57 333.396 1184.35 333.396C1184.85 333.396 1185.26 333.284 1185.58 333.06V330.6ZM1192.53 334.656L1192.83 335.412C1192.31 335.884 1191.64 336.12 1190.81 336.12C1189.93 336.12 1189.23 335.864 1188.71 335.352C1188.18 334.84 1187.91 334.156 1187.91 333.3C1187.91 332.492 1188.16 331.82 1188.66 331.284C1189.15 330.748 1189.83 330.48 1190.7 330.48C1191.42 330.48 1192.01 330.712 1192.49 331.176C1192.97 331.632 1193.21 332.224 1193.21 332.952C1193.21 333.184 1193.19 333.4 1193.15 333.6H1188.99C1189.03 334.104 1189.22 334.5 1189.56 334.788C1189.9 335.076 1190.34 335.22 1190.88 335.22C1191.58 335.22 1192.13 335.032 1192.53 334.656ZM1190.65 331.38C1190.18 331.38 1189.79 331.512 1189.47 331.776C1189.17 332.04 1188.99 332.388 1188.93 332.82H1192.21C1192.19 332.372 1192.03 332.02 1191.75 331.764C1191.48 331.508 1191.11 331.38 1190.65 331.38ZM1198.59 334.524L1199.05 335.22C1198.58 335.82 1197.89 336.12 1196.97 336.12C1196.11 336.12 1195.41 335.864 1194.87 335.352C1194.34 334.84 1194.08 334.156 1194.08 333.3C1194.08 332.508 1194.34 331.84 1194.86 331.296C1195.38 330.752 1196.03 330.48 1196.81 330.48C1197.76 330.48 1198.47 330.716 1198.94 331.188L1198.49 331.944C1198.08 331.568 1197.56 331.38 1196.95 331.38C1196.44 331.38 1196.01 331.564 1195.64 331.932C1195.28 332.292 1195.1 332.748 1195.1 333.3C1195.1 333.884 1195.28 334.348 1195.65 334.692C1196.03 335.044 1196.49 335.22 1197.04 335.22C1197.67 335.22 1198.18 334.988 1198.59 334.524ZM1203.77 330.6H1205.03L1202.66 333.18L1205.25 336H1203.92L1201.49 333.24L1203.77 330.6ZM1201.26 336H1200.3V330.6H1201.26V336ZM1209.98 330.6H1211.08L1208.92 336C1208.52 336.952 1208.18 337.584 1207.9 337.896C1207.59 338.232 1207.24 338.4 1206.85 338.4C1206.5 338.4 1206.16 338.288 1205.83 338.064L1206.14 337.332C1206.4 337.452 1206.6 337.512 1206.74 337.512C1206.97 337.512 1207.17 337.416 1207.34 337.224C1207.53 337.032 1207.71 336.72 1207.9 336.288L1208.02 336L1205.42 330.6H1206.58L1208.16 334.032C1208.19 334.088 1208.3 334.36 1208.48 334.848C1208.56 334.584 1208.64 334.308 1208.74 334.02L1209.98 330.6ZM1213.08 336H1212.06V330.6H1213.08V332.76H1214.26C1214.37 332.072 1214.67 331.52 1215.16 331.104C1215.66 330.688 1216.26 330.48 1216.98 330.48C1217.83 330.48 1218.51 330.748 1219.02 331.284C1219.54 331.82 1219.8 332.492 1219.8 333.3C1219.8 334.108 1219.54 334.784 1219.01 335.328C1218.49 335.856 1217.82 336.12 1216.98 336.12C1216.22 336.12 1215.6 335.9 1215.11 335.46C1214.62 335.02 1214.34 334.44 1214.25 333.72H1213.08V336ZM1215.78 331.956C1215.46 332.3 1215.3 332.748 1215.3 333.3C1215.3 333.852 1215.46 334.3 1215.78 334.644C1216.1 334.988 1216.52 335.16 1217.02 335.16C1217.52 335.16 1217.93 334.992 1218.24 334.656C1218.56 334.312 1218.72 333.86 1218.72 333.3C1218.72 332.748 1218.57 332.3 1218.26 331.956C1217.94 331.612 1217.53 331.44 1217.02 331.44C1216.52 331.44 1216.1 331.612 1215.78 331.956ZM1220.92 335.352C1220.92 335.184 1220.98 335.036 1221.11 334.908C1221.24 334.78 1221.41 334.716 1221.6 334.716C1221.77 334.716 1221.92 334.78 1222.04 334.908C1222.17 335.036 1222.24 335.184 1222.24 335.352C1222.24 335.544 1222.18 335.708 1222.06 335.844C1221.94 335.972 1221.78 336.036 1221.6 336.036C1221.41 336.036 1221.24 335.972 1221.11 335.844C1220.98 335.708 1220.92 335.544 1220.92 335.352Z" fill="#959595"/>
<path d="M750.006 320C749.73 319.998 749.505 320.221 749.503 320.497C749.501 320.773 749.724 320.998 750 321L750.006 320ZM750 321L1055 322.949L1055.01 321.949L750.006 320L750 321Z" fill="#525252"/>
<path d="M1104.89 308H1100.09V297.5H1080.71V294.08L1098.11 266H1103.63L1087.01 292.7H1100.09V281H1104.89V292.7H1110.71V297.5H1104.89V308Z" fill="#999999"/>
</g>
</svg>
