<svg width="390" height="570" viewBox="0 0 390 570" fill="none" xmlns="http://www.w3.org/2000/svg">
<mask id="mask0_1207_55" style="mask-type:alpha" maskUnits="userSpaceOnUse" x="0" y="0" width="390" height="570">
<rect width="390" height="570" fill="#D9D9D9"/>
</mask>
<g mask="url(#mask0_1207_55)">
<rect x="27" y="163" width="140" height="46" fill="#C1C1C1" fill-opacity="0.8"/>
<rect x="23" y="159" width="140" height="46" fill="white"/>
<rect x="19.2562" y="155.256" width="139.488" height="45.4876" stroke="#525252" stroke-width="0.512419"/>
<path d="M48.0761 177.99V170.836C49.0258 170.809 49.6817 170.795 50.0438 170.795C50.8226 170.795 51.4 170.953 51.7757 171.267C52.1583 171.574 52.3497 172.008 52.3497 172.568C52.3497 172.985 52.2403 173.334 52.0217 173.614C51.8031 173.894 51.5025 174.099 51.1198 174.229V174.249C51.5844 174.324 51.9465 174.509 52.2062 174.803C52.4726 175.096 52.6059 175.479 52.6059 175.95C52.6059 176.634 52.3736 177.153 51.909 177.508C51.4444 177.857 50.809 178.031 50.0028 178.031C49.2171 178.031 48.5748 178.017 48.0761 177.99ZM50.1053 174.731H48.9472V177.17C49.2273 177.197 49.5963 177.211 50.054 177.211C50.5938 177.211 51.0071 177.102 51.2941 176.883C51.5879 176.657 51.7347 176.33 51.7347 175.899C51.7347 175.523 51.5913 175.236 51.3043 175.038C51.0242 174.833 50.6245 174.731 50.1053 174.731ZM50.0233 171.615C49.8183 171.615 49.4596 171.626 48.9472 171.646V173.962H50.095C50.4981 173.962 50.8295 173.856 51.0891 173.644C51.3487 173.426 51.4785 173.132 51.4785 172.763C51.4785 171.998 50.9934 171.615 50.0233 171.615ZM55.5491 178H54.0631V173.388H54.8829V174.772H55.6413C56.2699 174.772 56.731 174.915 57.0248 175.202C57.3186 175.482 57.4655 175.868 57.4655 176.36C57.4655 176.825 57.3118 177.214 57.0043 177.529C56.7105 177.843 56.2255 178 55.5491 178ZM59.1667 178H58.3469V173.388H59.1667V178ZM55.4876 175.54H54.8829V177.231H55.4773C55.8668 177.231 56.1503 177.163 56.3279 177.026C56.5056 176.89 56.5944 176.678 56.5944 176.391C56.5944 175.824 56.2255 175.54 55.4876 175.54ZM64.1844 176.739L64.5738 177.334C64.1775 177.846 63.5865 178.102 62.8008 178.102C62.0629 178.102 61.4651 177.884 61.0074 177.447C60.5564 177.009 60.331 176.425 60.331 175.694C60.331 175.018 60.553 174.447 60.9971 173.983C61.4412 173.518 61.998 173.286 62.6676 173.286C63.4738 173.286 64.0785 173.487 64.4816 173.89L64.1024 174.536C63.7471 174.215 63.3064 174.054 62.7803 174.054C62.3499 174.054 61.9775 174.212 61.6633 174.526C61.3558 174.833 61.2021 175.223 61.2021 175.694C61.2021 176.193 61.3592 176.589 61.6735 176.883C61.9946 177.184 62.3909 177.334 62.8623 177.334C63.3952 177.334 63.8359 177.136 64.1844 176.739ZM65.7612 177.426C65.3103 176.961 65.0849 176.384 65.0849 175.694C65.0849 174.997 65.3103 174.423 65.7612 173.972C66.219 173.515 66.8134 173.286 67.5445 173.286C68.2755 173.286 68.8665 173.515 69.3174 173.972C69.7752 174.423 70.0041 174.997 70.0041 175.694C70.0041 176.391 69.7752 176.968 69.3174 177.426C68.8665 177.877 68.2755 178.102 67.5445 178.102C66.8202 178.102 66.2258 177.877 65.7612 177.426ZM66.4069 174.516C66.1063 174.816 65.956 175.209 65.956 175.694C65.956 176.179 66.1029 176.572 66.3966 176.873C66.6973 177.18 67.0799 177.334 67.5445 177.334C68.0091 177.334 68.3882 177.184 68.682 176.883C68.9827 176.575 69.133 176.179 69.133 175.694C69.133 175.223 68.9827 174.83 68.682 174.516C68.3882 174.208 68.0091 174.054 67.5445 174.054C67.0799 174.054 66.7007 174.208 66.4069 174.516ZM74.1488 173.388H75.2249L73.206 175.592L75.4196 178H74.2821L72.2016 175.643L74.1488 173.388ZM72.0069 178H71.187V173.388H72.0069V178ZM76.41 177.426C75.959 176.961 75.7336 176.384 75.7336 175.694C75.7336 174.997 75.959 174.423 76.41 173.972C76.8677 173.515 77.4621 173.286 78.1932 173.286C78.9242 173.286 79.5152 173.515 79.9661 173.972C80.4239 174.423 80.6528 174.997 80.6528 175.694C80.6528 176.391 80.4239 176.968 79.9661 177.426C79.5152 177.877 78.9242 178.102 78.1932 178.102C77.469 178.102 76.8745 177.877 76.41 177.426ZM77.0556 174.516C76.755 174.816 76.6047 175.209 76.6047 175.694C76.6047 176.179 76.7516 176.572 77.0454 176.873C77.346 177.18 77.7286 177.334 78.1932 177.334C78.6578 177.334 79.037 177.184 79.3307 176.883C79.6314 176.575 79.7817 176.179 79.7817 175.694C79.7817 175.223 79.6314 174.83 79.3307 174.516C79.037 174.208 78.6578 174.054 78.1932 174.054C77.7286 174.054 77.3494 174.208 77.0556 174.516ZM85.3817 176.739L85.7711 177.334C85.3749 177.846 84.7839 178.102 83.9982 178.102C83.2603 178.102 82.6624 177.884 82.2047 177.447C81.7538 177.009 81.5283 176.425 81.5283 175.694C81.5283 175.018 81.7503 174.447 82.1944 173.983C82.6385 173.518 83.1954 173.286 83.8649 173.286C84.6711 173.286 85.2758 173.487 85.6789 173.89L85.2997 174.536C84.9444 174.215 84.5037 174.054 83.9777 174.054C83.5472 174.054 83.1749 174.212 82.8606 174.526C82.5531 174.833 82.3994 175.223 82.3994 175.694C82.3994 176.193 82.5565 176.589 82.8708 176.883C83.1919 177.184 83.5882 177.334 84.0596 177.334C84.5926 177.334 85.0332 177.136 85.3817 176.739ZM89.8016 173.388H90.8777L88.8588 175.592L91.0724 178H89.9348L87.8544 175.643L89.8016 173.388ZM87.6597 178H86.8398V173.388H87.6597V178ZM92.0627 177.426C91.6118 176.961 91.3863 176.384 91.3863 175.694C91.3863 174.997 91.6118 174.423 92.0627 173.972C92.5205 173.515 93.1149 173.286 93.846 173.286C94.577 173.286 95.168 173.515 95.6189 173.972C96.0767 174.423 96.3056 174.997 96.3056 175.694C96.3056 176.391 96.0767 176.968 95.6189 177.426C95.168 177.877 94.577 178.102 93.846 178.102C93.1217 178.102 92.5273 177.877 92.0627 177.426ZM92.7084 174.516C92.4078 174.816 92.2575 175.209 92.2575 175.694C92.2575 176.179 92.4044 176.572 92.6981 176.873C92.9988 177.18 93.3814 177.334 93.846 177.334C94.3106 177.334 94.6897 177.184 94.9835 176.883C95.2841 176.575 95.4345 176.179 95.4345 175.694C95.4345 175.223 95.2841 174.83 94.9835 174.516C94.6897 174.208 94.3106 174.054 93.846 174.054C93.3814 174.054 93.0022 174.208 92.7084 174.516ZM98.3084 180.05H97.4885V173.388H98.3084V173.931C98.4724 173.74 98.6978 173.586 98.9848 173.47C99.2718 173.347 99.569 173.286 99.8764 173.286C100.532 173.286 101.048 173.504 101.424 173.942C101.813 174.372 102.008 174.932 102.008 175.622C102.008 176.326 101.786 176.917 101.342 177.395C100.905 177.867 100.327 178.102 99.6099 178.102C99.0565 178.102 98.6227 177.997 98.3084 177.785V180.05ZM99.6407 174.054C99.0941 174.054 98.65 174.266 98.3084 174.69V176.975C98.6705 177.214 99.0804 177.334 99.5382 177.334C100.023 177.334 100.409 177.18 100.696 176.873C100.99 176.558 101.137 176.152 101.137 175.653C101.137 175.168 101.004 174.782 100.737 174.495C100.471 174.201 100.105 174.054 99.6407 174.054ZM103.552 177.426C103.101 176.961 102.876 176.384 102.876 175.694C102.876 174.997 103.101 174.423 103.552 173.972C104.01 173.515 104.604 173.286 105.335 173.286C106.066 173.286 106.657 173.515 107.108 173.972C107.566 174.423 107.795 174.997 107.795 175.694C107.795 176.391 107.566 176.968 107.108 177.426C106.657 177.877 106.066 178.102 105.335 178.102C104.611 178.102 104.017 177.877 103.552 177.426ZM104.198 174.516C103.897 174.816 103.747 175.209 103.747 175.694C103.747 176.179 103.894 176.572 104.188 176.873C104.488 177.18 104.871 177.334 105.335 177.334C105.8 177.334 106.179 177.184 106.473 176.883C106.774 176.575 106.924 176.179 106.924 175.694C106.924 175.223 106.774 174.83 106.473 174.516C106.179 174.208 105.8 174.054 105.335 174.054C104.871 174.054 104.492 174.208 104.198 174.516ZM112.524 176.739L112.913 177.334C112.517 177.846 111.926 178.102 111.14 178.102C110.402 178.102 109.805 177.884 109.347 177.447C108.896 177.009 108.67 176.425 108.67 175.694C108.67 175.018 108.893 174.447 109.337 173.983C109.781 173.518 110.338 173.286 111.007 173.286C111.813 173.286 112.418 173.487 112.821 173.89L112.442 174.536C112.087 174.215 111.646 174.054 111.12 174.054C110.689 174.054 110.317 174.212 110.003 174.526C109.695 174.833 109.542 175.223 109.542 175.694C109.542 176.193 109.699 176.589 110.013 176.883C110.334 177.184 110.73 177.334 111.202 177.334C111.735 177.334 112.175 177.136 112.524 176.739ZM115.029 174.208H113.338V173.388H117.54V174.208H115.849V178H115.029V174.208ZM122.637 178H121.818V176.053H119.256V178H118.436V173.388H119.256V175.284H121.818V173.388H122.637V178ZM124.489 177.426C124.038 176.961 123.813 176.384 123.813 175.694C123.813 174.997 124.038 174.423 124.489 173.972C124.947 173.515 125.541 173.286 126.272 173.286C127.004 173.286 127.594 173.515 128.045 173.972C128.503 174.423 128.732 174.997 128.732 175.694C128.732 176.391 128.503 176.968 128.045 177.426C127.594 177.877 127.004 178.102 126.272 178.102C125.548 178.102 124.954 177.877 124.489 177.426ZM125.135 174.516C124.834 174.816 124.684 175.209 124.684 175.694C124.684 176.179 124.831 176.572 125.125 176.873C125.425 177.18 125.808 177.334 126.272 177.334C126.737 177.334 127.116 177.184 127.41 176.883C127.711 176.575 127.861 176.179 127.861 175.694C127.861 175.223 127.711 174.83 127.41 174.516C127.116 174.208 126.737 174.054 126.272 174.054C125.808 174.054 125.429 174.208 125.135 174.516ZM133.399 174.567L130.735 178H129.915V173.388H130.735V176.821L133.399 173.388H134.219V178H133.399V174.567ZM130.571 171.031H131.34C131.381 171.571 131.644 171.841 132.129 171.841C132.586 171.841 132.836 171.571 132.877 171.031H133.645C133.645 171.448 133.502 171.793 133.215 172.066C132.935 172.333 132.573 172.466 132.129 172.466C131.644 172.466 131.261 172.336 130.981 172.076C130.708 171.81 130.571 171.462 130.571 171.031ZM138.012 178V173.388C138.046 173.388 138.094 173.388 138.155 173.388C138.217 173.381 138.305 173.378 138.422 173.378C138.538 173.371 138.644 173.368 138.739 173.368C139.245 173.354 139.559 173.347 139.682 173.347C141.008 173.347 141.67 173.744 141.67 174.536C141.67 174.809 141.585 175.045 141.414 175.243C141.243 175.434 141.021 175.551 140.748 175.592V175.612C141.465 175.742 141.824 176.104 141.824 176.698C141.824 177.593 141.117 178.041 139.703 178.041C139.634 178.041 139.334 178.034 138.801 178.02C138.698 178.02 138.586 178.017 138.463 178.01C138.34 178.01 138.244 178.007 138.176 178C138.107 178 138.053 178 138.012 178ZM139.815 175.93H138.832V177.344C139.323 177.365 139.638 177.375 139.774 177.375C140.56 177.375 140.953 177.129 140.953 176.637C140.953 176.166 140.574 175.93 139.815 175.93ZM139.744 174.013C139.545 174.013 139.241 174.024 138.832 174.044V175.417H139.867C140.147 175.417 140.372 175.353 140.543 175.223C140.714 175.093 140.799 174.919 140.799 174.7C140.799 174.242 140.447 174.013 139.744 174.013ZM143.322 174.362L143.107 173.706C143.564 173.426 144.077 173.286 144.644 173.286C145.266 173.286 145.716 173.439 145.997 173.747C146.277 174.054 146.417 174.529 146.417 175.171V178H145.638V177.406C145.276 177.85 144.784 178.072 144.162 178.072C143.739 178.072 143.397 177.945 143.137 177.693C142.878 177.433 142.748 177.084 142.748 176.647C142.748 176.196 142.908 175.841 143.23 175.581C143.551 175.315 143.971 175.182 144.49 175.182C144.975 175.182 145.358 175.281 145.638 175.479C145.638 174.96 145.566 174.587 145.423 174.362C145.279 174.136 145.002 174.024 144.593 174.024C144.176 174.024 143.752 174.136 143.322 174.362ZM144.449 177.334C144.907 177.334 145.303 177.136 145.638 176.739V176.155C145.351 175.95 145.006 175.848 144.603 175.848C144.323 175.848 144.087 175.916 143.896 176.053C143.711 176.183 143.619 176.367 143.619 176.606C143.619 176.832 143.691 177.009 143.834 177.139C143.984 177.269 144.189 177.334 144.449 177.334ZM151.766 178H150.946V174.208H149.327L149.276 174.987C149.221 175.622 149.139 176.152 149.03 176.575C148.927 176.992 148.791 177.307 148.62 177.518C148.456 177.723 148.282 177.867 148.097 177.949C147.913 178.024 147.687 178.061 147.421 178.061L147.359 177.262C147.434 177.269 147.513 177.259 147.595 177.231C147.677 177.197 147.766 177.129 147.861 177.026C147.964 176.924 148.053 176.787 148.128 176.616C148.21 176.446 148.282 176.207 148.343 175.899C148.411 175.585 148.456 175.226 148.476 174.823L148.558 173.388H151.766V178Z" fill="black"/>
<path d="M50.552 191.208L50.756 191.592C50.616 191.736 50.426 191.85 50.186 191.934C49.946 192.018 49.694 192.06 49.43 192.06C48.802 192.06 48.288 191.864 47.888 191.472C47.496 191.072 47.3 190.548 47.3 189.9C47.3 189.276 47.488 188.762 47.864 188.358C48.24 187.946 48.75 187.74 49.394 187.74C49.926 187.74 50.352 187.876 50.672 188.148L50.438 188.532C50.158 188.324 49.812 188.22 49.4 188.22C48.944 188.22 48.57 188.376 48.278 188.688C47.986 188.996 47.84 189.4 47.84 189.9C47.84 190.4 47.99 190.806 48.29 191.118C48.598 191.426 48.994 191.58 49.478 191.58C49.886 191.58 50.244 191.456 50.552 191.208ZM51.4214 191.664C51.1574 191.392 51.0254 191.054 51.0254 190.65C51.0254 190.242 51.1574 189.906 51.4214 189.642C51.6894 189.374 52.0374 189.24 52.4654 189.24C52.8934 189.24 53.2394 189.374 53.5034 189.642C53.7714 189.906 53.9054 190.242 53.9054 190.65C53.9054 191.058 53.7714 191.396 53.5034 191.664C53.2394 191.928 52.8934 192.06 52.4654 192.06C52.0414 192.06 51.6934 191.928 51.4214 191.664ZM51.7994 189.96C51.6234 190.136 51.5354 190.366 51.5354 190.65C51.5354 190.934 51.6214 191.164 51.7934 191.34C51.9694 191.52 52.1934 191.61 52.4654 191.61C52.7374 191.61 52.9594 191.522 53.1314 191.346C53.3074 191.166 53.3954 190.934 53.3954 190.65C53.3954 190.374 53.3074 190.144 53.1314 189.96C52.9594 189.78 52.7374 189.69 52.4654 189.69C52.1934 189.69 51.9714 189.78 51.7994 189.96ZM56.728 191.328L56.878 191.706C56.618 191.942 56.28 192.06 55.864 192.06C55.424 192.06 55.074 191.932 54.814 191.676C54.55 191.42 54.418 191.078 54.418 190.65C54.418 190.246 54.542 189.91 54.79 189.642C55.034 189.374 55.374 189.24 55.81 189.24C56.17 189.24 56.468 189.356 56.704 189.588C56.944 189.816 57.064 190.112 57.064 190.476C57.064 190.592 57.054 190.7 57.034 190.8H54.958C54.978 191.052 55.072 191.25 55.24 191.394C55.412 191.538 55.632 191.61 55.9 191.61C56.252 191.61 56.528 191.516 56.728 191.328ZM55.786 189.69C55.55 189.69 55.354 189.756 55.198 189.888C55.046 190.02 54.956 190.194 54.928 190.41H56.566C56.554 190.186 56.478 190.01 56.338 189.882C56.202 189.754 56.018 189.69 55.786 189.69ZM57.6877 192.66H57.2377V191.55H57.5737C57.6737 191.426 57.7617 191.226 57.8377 190.95C57.9137 190.67 57.9637 190.358 57.9877 190.014L58.0297 189.3H59.8717V191.55H60.3217V192.66H59.8717V192H57.6877V192.66ZM58.4797 189.75L58.4497 190.2C58.4257 190.5 58.3777 190.774 58.3057 191.022C58.2337 191.27 58.1597 191.446 58.0837 191.55H59.3917V189.75H58.4797ZM62.8841 189.99L61.3241 192H60.8441V189.3H61.3241V191.31L62.8841 189.3H63.3641V192H62.8841V189.99ZM66.6967 192H66.2167V190.86H64.7167V192H64.2367V189.3H64.7167V190.41H66.2167V189.3H66.6967V192ZM69.6948 191.328L69.8448 191.706C69.5848 191.942 69.2468 192.06 68.8308 192.06C68.3908 192.06 68.0408 191.932 67.7808 191.676C67.5168 191.42 67.3848 191.078 67.3848 190.65C67.3848 190.246 67.5088 189.91 67.7568 189.642C68.0008 189.374 68.3408 189.24 68.7768 189.24C69.1368 189.24 69.4348 189.356 69.6708 189.588C69.9108 189.816 70.0308 190.112 70.0308 190.476C70.0308 190.592 70.0208 190.7 70.0008 190.8H67.9248C67.9448 191.052 68.0388 191.25 68.2068 191.394C68.3788 191.538 68.5988 191.61 68.8668 191.61C69.2188 191.61 69.4948 191.516 69.6948 191.328ZM68.7528 189.69C68.5168 189.69 68.3208 189.756 68.1648 189.888C68.0128 190.02 67.9228 190.194 67.8948 190.41H69.5328C69.5208 190.186 69.4448 190.01 69.3048 189.882C69.1688 189.754 68.9848 189.69 68.7528 189.69ZM73.142 192H72.662V190.86H71.162V192H70.682V189.3H71.162V190.41H72.662V189.3H73.142V192ZM77.4338 191.262L77.6618 191.61C77.4298 191.91 77.0838 192.06 76.6238 192.06C76.1918 192.06 75.8418 191.932 75.5738 191.676C75.3098 191.42 75.1778 191.078 75.1778 190.65C75.1778 190.254 75.3078 189.92 75.5678 189.648C75.8278 189.376 76.1538 189.24 76.5458 189.24C77.0178 189.24 77.3718 189.358 77.6078 189.594L77.3858 189.972C77.1778 189.784 76.9198 189.69 76.6118 189.69C76.3598 189.69 76.1418 189.782 75.9578 189.966C75.7778 190.146 75.6878 190.374 75.6878 190.65C75.6878 190.942 75.7798 191.174 75.9638 191.346C76.1518 191.522 76.3838 191.61 76.6598 191.61C76.9718 191.61 77.2298 191.494 77.4338 191.262ZM81.3871 190.824H80.0551V190.434H81.3811C81.3451 190.194 81.2431 190.01 81.0751 189.882C80.9111 189.754 80.7011 189.69 80.4451 189.69C80.1131 189.69 79.8371 189.788 79.6171 189.984L79.4131 189.624C79.5291 189.508 79.6831 189.416 79.8751 189.348C80.0671 189.276 80.2551 189.24 80.4391 189.24C80.8711 189.24 81.2171 189.368 81.4771 189.624C81.7451 189.88 81.8791 190.222 81.8791 190.65C81.8791 191.046 81.7491 191.38 81.4891 191.652C81.2291 191.924 80.9031 192.06 80.5111 192.06C80.0231 192.06 79.6611 191.946 79.4251 191.718L79.6531 191.364C79.8371 191.528 80.1131 191.61 80.4811 191.61C80.7331 191.61 80.9391 191.542 81.0991 191.406C81.2591 191.266 81.3551 191.072 81.3871 190.824ZM84.7932 192H84.3132V189.78H83.3652L83.3352 190.236C83.3032 190.608 83.2552 190.918 83.1912 191.166C83.1312 191.41 83.0512 191.594 82.9512 191.718C82.8552 191.838 82.7532 191.922 82.6452 191.97C82.5372 192.014 82.4052 192.036 82.2492 192.036L82.2132 191.568C82.2572 191.572 82.3032 191.566 82.3512 191.55C82.3992 191.53 82.4512 191.49 82.5072 191.43C82.5672 191.37 82.6192 191.29 82.6632 191.19C82.7112 191.09 82.7532 190.95 82.7892 190.77C82.8292 190.586 82.8552 190.376 82.8672 190.14L82.9152 189.3H84.7932V192ZM87.7886 191.328L87.9386 191.706C87.6786 191.942 87.3406 192.06 86.9246 192.06C86.4846 192.06 86.1346 191.932 85.8746 191.676C85.6106 191.42 85.4786 191.078 85.4786 190.65C85.4786 190.246 85.6026 189.91 85.8506 189.642C86.0946 189.374 86.4346 189.24 86.8706 189.24C87.2306 189.24 87.5286 189.356 87.7646 189.588C88.0046 189.816 88.1246 190.112 88.1246 190.476C88.1246 190.592 88.1146 190.7 88.0946 190.8H86.0186C86.0386 191.052 86.1326 191.25 86.3006 191.394C86.4726 191.538 86.6926 191.61 86.9606 191.61C87.3126 191.61 87.5886 191.516 87.7886 191.328ZM86.8466 189.69C86.6106 189.69 86.4146 189.756 86.2586 189.888C86.1066 190.02 86.0166 190.194 85.9886 190.41H87.6266C87.6146 190.186 87.5386 190.01 87.3986 189.882C87.2626 189.754 87.0786 189.69 86.8466 189.69ZM90.5098 189.3H91.1398L89.9578 190.59L91.2538 192H90.5878L89.3698 190.62L90.5098 189.3ZM89.2558 192H88.7758V189.3H89.2558V192ZM92.412 189.78H91.422V189.3H93.882V189.78H92.892V192H92.412V189.78ZM94.8866 193.2H94.4066V189.3H94.8866V189.618C94.9826 189.506 95.1146 189.416 95.2826 189.348C95.4506 189.276 95.6246 189.24 95.8046 189.24C96.1886 189.24 96.4906 189.368 96.7106 189.624C96.9386 189.876 97.0526 190.204 97.0526 190.608C97.0526 191.02 96.9226 191.366 96.6626 191.646C96.4066 191.922 96.0686 192.06 95.6486 192.06C95.3246 192.06 95.0706 191.998 94.8866 191.874V193.2ZM95.6666 189.69C95.3466 189.69 95.0866 189.814 94.8866 190.062V191.4C95.0986 191.54 95.3386 191.61 95.6066 191.61C95.8906 191.61 96.1166 191.52 96.2846 191.34C96.4566 191.156 96.5426 190.918 96.5426 190.626C96.5426 190.342 96.4646 190.116 96.3086 189.948C96.1526 189.776 95.9386 189.69 95.6666 189.69ZM97.9566 191.664C97.6926 191.392 97.5606 191.054 97.5606 190.65C97.5606 190.242 97.6926 189.906 97.9566 189.642C98.2246 189.374 98.5726 189.24 99.0006 189.24C99.4286 189.24 99.7746 189.374 100.039 189.642C100.307 189.906 100.441 190.242 100.441 190.65C100.441 191.058 100.307 191.396 100.039 191.664C99.7746 191.928 99.4286 192.06 99.0006 192.06C98.5766 192.06 98.2286 191.928 97.9566 191.664ZM98.3346 189.96C98.1586 190.136 98.0706 190.366 98.0706 190.65C98.0706 190.934 98.1566 191.164 98.3286 191.34C98.5046 191.52 98.7286 191.61 99.0006 191.61C99.2726 191.61 99.4946 191.522 99.6666 191.346C99.8426 191.166 99.9306 190.934 99.9306 190.65C99.9306 190.374 99.8426 190.144 99.6666 189.96C99.4946 189.78 99.2726 189.69 99.0006 189.69C98.7286 189.69 98.5066 189.78 98.3346 189.96ZM101.613 192H101.133V189.3H102.843V189.75H101.613V192ZM105.349 191.328L105.499 191.706C105.239 191.942 104.901 192.06 104.485 192.06C104.045 192.06 103.695 191.932 103.435 191.676C103.171 191.42 103.039 191.078 103.039 190.65C103.039 190.246 103.163 189.91 103.411 189.642C103.655 189.374 103.995 189.24 104.431 189.24C104.791 189.24 105.089 189.356 105.325 189.588C105.565 189.816 105.685 190.112 105.685 190.476C105.685 190.592 105.675 190.7 105.655 190.8H103.579C103.599 191.052 103.693 191.25 103.861 191.394C104.033 191.538 104.253 191.61 104.521 191.61C104.873 191.61 105.149 191.516 105.349 191.328ZM104.407 189.69C104.171 189.69 103.975 189.756 103.819 189.888C103.667 190.02 103.577 190.194 103.549 190.41H105.187C105.175 190.186 105.099 190.01 104.959 189.882C104.823 189.754 104.639 189.69 104.407 189.69ZM108.796 192H108.316V190.86H106.816V192H106.336V189.3H106.816V190.41H108.316V189.3H108.796V192ZM111.794 191.328L111.944 191.706C111.684 191.942 111.346 192.06 110.93 192.06C110.49 192.06 110.14 191.932 109.88 191.676C109.616 191.42 109.484 191.078 109.484 190.65C109.484 190.246 109.608 189.91 109.856 189.642C110.1 189.374 110.44 189.24 110.876 189.24C111.236 189.24 111.534 189.356 111.77 189.588C112.01 189.816 112.13 190.112 112.13 190.476C112.13 190.592 112.12 190.7 112.1 190.8H110.024C110.044 191.052 110.138 191.25 110.306 191.394C110.478 191.538 110.698 191.61 110.966 191.61C111.318 191.61 111.594 191.516 111.794 191.328ZM110.852 189.69C110.616 189.69 110.42 189.756 110.264 189.888C110.112 190.02 110.022 190.194 109.994 190.41H111.632C111.62 190.186 111.544 190.01 111.404 189.882C111.268 189.754 111.084 189.69 110.852 189.69ZM113.262 193.2H112.782V189.3H113.262V189.618C113.358 189.506 113.49 189.416 113.658 189.348C113.826 189.276 114 189.24 114.18 189.24C114.564 189.24 114.866 189.368 115.086 189.624C115.314 189.876 115.428 190.204 115.428 190.608C115.428 191.02 115.298 191.366 115.038 191.646C114.782 191.922 114.444 192.06 114.024 192.06C113.7 192.06 113.446 191.998 113.262 191.874V193.2ZM114.042 189.69C113.722 189.69 113.462 189.814 113.262 190.062V191.4C113.474 191.54 113.714 191.61 113.982 191.61C114.266 191.61 114.492 191.52 114.66 191.34C114.832 191.156 114.918 190.918 114.918 190.626C114.918 190.342 114.84 190.116 114.684 189.948C114.528 189.776 114.314 189.69 114.042 189.69ZM116.26 189.87L116.134 189.486C116.402 189.322 116.702 189.24 117.034 189.24C117.398 189.24 117.662 189.33 117.826 189.51C117.99 189.69 118.072 189.968 118.072 190.344V192H117.616V191.652C117.404 191.912 117.116 192.042 116.752 192.042C116.504 192.042 116.304 191.968 116.152 191.82C116 191.668 115.924 191.464 115.924 191.208C115.924 190.944 116.018 190.736 116.206 190.584C116.394 190.428 116.64 190.35 116.944 190.35C117.228 190.35 117.452 190.408 117.616 190.524C117.616 190.22 117.574 190.002 117.49 189.87C117.406 189.738 117.244 189.672 117.004 189.672C116.76 189.672 116.512 189.738 116.26 189.87ZM116.92 191.61C117.188 191.61 117.42 191.494 117.616 191.262V190.92C117.448 190.8 117.246 190.74 117.01 190.74C116.846 190.74 116.708 190.78 116.596 190.86C116.488 190.936 116.434 191.044 116.434 191.184C116.434 191.316 116.476 191.42 116.56 191.496C116.648 191.572 116.768 191.61 116.92 191.61ZM119.523 189.78H118.533V189.3H120.993V189.78H120.003V192H119.523V189.78ZM121.646 191.664C121.382 191.392 121.25 191.054 121.25 190.65C121.25 190.242 121.382 189.906 121.646 189.642C121.914 189.374 122.262 189.24 122.69 189.24C123.118 189.24 123.464 189.374 123.728 189.642C123.996 189.906 124.13 190.242 124.13 190.65C124.13 191.058 123.996 191.396 123.728 191.664C123.464 191.928 123.118 192.06 122.69 192.06C122.266 192.06 121.918 191.928 121.646 191.664ZM122.024 189.96C121.848 190.136 121.76 190.366 121.76 190.65C121.76 190.934 121.846 191.164 122.018 191.34C122.194 191.52 122.418 191.61 122.69 191.61C122.962 191.61 123.184 191.522 123.356 191.346C123.532 191.166 123.62 190.934 123.62 190.65C123.62 190.374 123.532 190.144 123.356 189.96C123.184 189.78 122.962 189.69 122.69 189.69C122.418 189.69 122.196 189.78 122.024 189.96ZM125.303 193.2H124.823V189.3H125.303V189.618C125.399 189.506 125.531 189.416 125.699 189.348C125.867 189.276 126.041 189.24 126.221 189.24C126.605 189.24 126.907 189.368 127.127 189.624C127.355 189.876 127.469 190.204 127.469 190.608C127.469 191.02 127.339 191.366 127.079 191.646C126.823 191.922 126.485 192.06 126.065 192.06C125.741 192.06 125.487 191.998 125.303 191.874V193.2ZM126.083 189.69C125.763 189.69 125.503 189.814 125.303 190.062V191.4C125.515 191.54 125.755 191.61 126.023 191.61C126.307 191.61 126.533 191.52 126.701 191.34C126.873 191.156 126.959 190.918 126.959 190.626C126.959 190.342 126.881 190.116 126.725 189.948C126.569 189.776 126.355 189.69 126.083 189.69ZM128.373 191.664C128.109 191.392 127.977 191.054 127.977 190.65C127.977 190.242 128.109 189.906 128.373 189.642C128.641 189.374 128.989 189.24 129.417 189.24C129.845 189.24 130.191 189.374 130.455 189.642C130.723 189.906 130.857 190.242 130.857 190.65C130.857 191.058 130.723 191.396 130.455 191.664C130.191 191.928 129.845 192.06 129.417 192.06C128.993 192.06 128.645 191.928 128.373 191.664ZM128.751 189.96C128.575 190.136 128.487 190.366 128.487 190.65C128.487 190.934 128.573 191.164 128.745 191.34C128.921 191.52 129.145 191.61 129.417 191.61C129.689 191.61 129.911 191.522 130.083 191.346C130.259 191.166 130.347 190.934 130.347 190.65C130.347 190.374 130.259 190.144 130.083 189.96C129.911 189.78 129.689 189.69 129.417 189.69C129.145 189.69 128.923 189.78 128.751 189.96ZM132.029 192H131.549V189.3H131.987L133.025 190.638L134.009 189.3H134.435V192H133.955V190.032L133.019 191.286H133.001L132.029 190.032V192ZM135.173 191.676C135.173 191.592 135.205 191.518 135.269 191.454C135.337 191.39 135.419 191.358 135.515 191.358C135.599 191.358 135.673 191.39 135.737 191.454C135.801 191.518 135.833 191.592 135.833 191.676C135.833 191.772 135.803 191.854 135.743 191.922C135.683 191.986 135.607 192.018 135.515 192.018C135.419 192.018 135.337 191.986 135.269 191.922C135.205 191.854 135.173 191.772 135.173 191.676Z" fill="#848484"/>
<path d="M31.31 175.73L30.05 173.78L35.09 169.88H36.77V191H34.37V173.33L31.31 175.73Z" fill="#D9D9D9"/>
<path d="M159.126 190.784C159.006 190.714 158.853 190.755 158.784 190.874C158.714 190.994 158.755 191.147 158.874 191.216L159.126 190.784ZM236.848 236.329C236.477 236.965 236.693 237.782 237.329 238.152C237.965 238.523 238.782 238.307 239.152 237.671C239.523 237.035 239.307 236.218 238.671 235.848C238.035 235.477 237.218 235.693 236.848 236.329ZM158.874 191.216L237.874 237.216L238.126 236.784L159.126 190.784L158.874 191.216Z" fill="#525252"/>
</g>
</svg>
