<svg width="1447" height="863" viewBox="0 0 1447 863" fill="none" xmlns="http://www.w3.org/2000/svg">
<mask id="mask0_1324_81" style="mask-type:alpha" maskUnits="userSpaceOnUse" x="0" y="0" width="1447" height="863">
<rect width="1447" height="863" fill="#D9D9D9"/>
</mask>
<g mask="url(#mask0_1324_81)">
<circle cx="665.5" cy="376.5" r="5.5" fill="#525252"/>
<rect x="1047" y="426" width="297" height="97" fill="#C1C1C1" fill-opacity="0.8"/>
<rect x="1040" y="419" width="297" height="97" fill="white"/>
<rect x="1033.5" y="412.5" width="298" height="96" stroke="#525252"/>
<path d="M1110.1 458.98V445.02C1111.95 444.967 1113.23 444.94 1113.94 444.94C1115.46 444.94 1116.59 445.247 1117.32 445.86C1118.07 446.46 1118.44 447.307 1118.44 448.4C1118.44 449.213 1118.23 449.893 1117.8 450.44C1117.37 450.987 1116.79 451.387 1116.04 451.64V451.68C1116.95 451.827 1117.65 452.187 1118.16 452.76C1118.68 453.333 1118.94 454.08 1118.94 455C1118.94 456.333 1118.49 457.347 1117.58 458.04C1116.67 458.72 1115.43 459.06 1113.86 459.06C1112.33 459.06 1111.07 459.033 1110.1 458.98ZM1114.06 452.62H1111.8V457.38C1112.35 457.433 1113.07 457.46 1113.96 457.46C1115.01 457.46 1115.82 457.247 1116.38 456.82C1116.95 456.38 1117.24 455.74 1117.24 454.9C1117.24 454.167 1116.96 453.607 1116.4 453.22C1115.85 452.82 1115.07 452.62 1114.06 452.62ZM1113.9 446.54C1113.5 446.54 1112.8 446.56 1111.8 446.6V451.12H1114.04C1114.83 451.12 1115.47 450.913 1115.98 450.5C1116.49 450.073 1116.74 449.5 1116.74 448.78C1116.74 447.287 1115.79 446.54 1113.9 446.54ZM1124.68 459H1121.78V450H1123.38V452.7H1124.86C1126.09 452.7 1126.99 452.98 1127.56 453.54C1128.14 454.087 1128.42 454.84 1128.42 455.8C1128.42 456.707 1128.12 457.467 1127.52 458.08C1126.95 458.693 1126 459 1124.68 459ZM1131.74 459H1130.14V450H1131.74V459ZM1124.56 454.2H1123.38V457.5H1124.54C1125.3 457.5 1125.86 457.367 1126.2 457.1C1126.55 456.833 1126.72 456.42 1126.72 455.86C1126.72 454.753 1126 454.2 1124.56 454.2ZM1141.54 456.54L1142.3 457.7C1141.52 458.7 1140.37 459.2 1138.84 459.2C1137.4 459.2 1136.23 458.773 1135.34 457.92C1134.46 457.067 1134.02 455.927 1134.02 454.5C1134.02 453.18 1134.45 452.067 1135.32 451.16C1136.18 450.253 1137.27 449.8 1138.58 449.8C1140.15 449.8 1141.33 450.193 1142.12 450.98L1141.38 452.24C1140.68 451.613 1139.82 451.3 1138.8 451.3C1137.96 451.3 1137.23 451.607 1136.62 452.22C1136.02 452.82 1135.72 453.58 1135.72 454.5C1135.72 455.473 1136.02 456.247 1136.64 456.82C1137.26 457.407 1138.04 457.7 1138.96 457.7C1140 457.7 1140.86 457.313 1141.54 456.54ZM1144.61 457.88C1143.73 456.973 1143.29 455.847 1143.29 454.5C1143.29 453.14 1143.73 452.02 1144.61 451.14C1145.51 450.247 1146.67 449.8 1148.09 449.8C1149.52 449.8 1150.67 450.247 1151.55 451.14C1152.45 452.02 1152.89 453.14 1152.89 454.5C1152.89 455.86 1152.45 456.987 1151.55 457.88C1150.67 458.76 1149.52 459.2 1148.09 459.2C1146.68 459.2 1145.52 458.76 1144.61 457.88ZM1145.87 452.2C1145.29 452.787 1144.99 453.553 1144.99 454.5C1144.99 455.447 1145.28 456.213 1145.85 456.8C1146.44 457.4 1147.19 457.7 1148.09 457.7C1149 457.7 1149.74 457.407 1150.31 456.82C1150.9 456.22 1151.19 455.447 1151.19 454.5C1151.19 453.58 1150.9 452.813 1150.31 452.2C1149.74 451.6 1149 451.3 1148.09 451.3C1147.19 451.3 1146.45 451.6 1145.87 452.2ZM1160.98 450H1163.08L1159.14 454.3L1163.46 459H1161.24L1157.18 454.4L1160.98 450ZM1156.8 459H1155.2V450H1156.8V459ZM1165.39 457.88C1164.51 456.973 1164.07 455.847 1164.07 454.5C1164.07 453.14 1164.51 452.02 1165.39 451.14C1166.29 450.247 1167.45 449.8 1168.87 449.8C1170.3 449.8 1171.45 450.247 1172.33 451.14C1173.23 452.02 1173.67 453.14 1173.67 454.5C1173.67 455.86 1173.23 456.987 1172.33 457.88C1171.45 458.76 1170.3 459.2 1168.87 459.2C1167.46 459.2 1166.3 458.76 1165.39 457.88ZM1166.65 452.2C1166.07 452.787 1165.77 453.553 1165.77 454.5C1165.77 455.447 1166.06 456.213 1166.63 456.8C1167.22 457.4 1167.97 457.7 1168.87 457.7C1169.78 457.7 1170.52 457.407 1171.09 456.82C1171.68 456.22 1171.97 455.447 1171.97 454.5C1171.97 453.58 1171.68 452.813 1171.09 452.2C1170.52 451.6 1169.78 451.3 1168.87 451.3C1167.97 451.3 1167.23 451.6 1166.65 452.2ZM1182.9 456.54L1183.66 457.7C1182.89 458.7 1181.74 459.2 1180.2 459.2C1178.76 459.2 1177.6 458.773 1176.7 457.92C1175.82 457.067 1175.38 455.927 1175.38 454.5C1175.38 453.18 1175.82 452.067 1176.68 451.16C1177.55 450.253 1178.64 449.8 1179.94 449.8C1181.52 449.8 1182.7 450.193 1183.48 450.98L1182.74 452.24C1182.05 451.613 1181.19 451.3 1180.16 451.3C1179.32 451.3 1178.6 451.607 1177.98 452.22C1177.38 452.82 1177.08 453.58 1177.08 454.5C1177.08 455.473 1177.39 456.247 1178 456.82C1178.63 457.407 1179.4 457.7 1180.32 457.7C1181.36 457.7 1182.22 457.313 1182.9 456.54ZM1191.53 450H1193.63L1189.69 454.3L1194.01 459H1191.79L1187.73 454.4L1191.53 450ZM1187.35 459H1185.75V450H1187.35V459ZM1195.94 457.88C1195.06 456.973 1194.62 455.847 1194.62 454.5C1194.62 453.14 1195.06 452.02 1195.94 451.14C1196.83 450.247 1197.99 449.8 1199.42 449.8C1200.85 449.8 1202 450.247 1202.88 451.14C1203.77 452.02 1204.22 453.14 1204.22 454.5C1204.22 455.86 1203.77 456.987 1202.88 457.88C1202 458.76 1200.85 459.2 1199.42 459.2C1198.01 459.2 1196.85 458.76 1195.94 457.88ZM1197.2 452.2C1196.61 452.787 1196.32 453.553 1196.32 454.5C1196.32 455.447 1196.61 456.213 1197.18 456.8C1197.77 457.4 1198.51 457.7 1199.42 457.7C1200.33 457.7 1201.07 457.407 1201.64 456.82C1202.23 456.22 1202.52 455.447 1202.52 454.5C1202.52 453.58 1202.23 452.813 1201.64 452.2C1201.07 451.6 1200.33 451.3 1199.42 451.3C1198.51 451.3 1197.77 451.6 1197.2 452.2ZM1208.13 463H1206.53V450H1208.13V451.06C1208.45 450.687 1208.89 450.387 1209.45 450.16C1210.01 449.92 1210.59 449.8 1211.19 449.8C1212.47 449.8 1213.48 450.227 1214.21 451.08C1214.97 451.92 1215.35 453.013 1215.35 454.36C1215.35 455.733 1214.92 456.887 1214.05 457.82C1213.2 458.74 1212.07 459.2 1210.67 459.2C1209.59 459.2 1208.74 458.993 1208.13 458.58V463ZM1210.73 451.3C1209.66 451.3 1208.8 451.713 1208.13 452.54V457C1208.84 457.467 1209.64 457.7 1210.53 457.7C1211.48 457.7 1212.23 457.4 1212.79 456.8C1213.36 456.187 1213.65 455.393 1213.65 454.42C1213.65 453.473 1213.39 452.72 1212.87 452.16C1212.35 451.587 1211.64 451.3 1210.73 451.3ZM1218.36 457.88C1217.48 456.973 1217.04 455.847 1217.04 454.5C1217.04 453.14 1217.48 452.02 1218.36 451.14C1219.26 450.247 1220.42 449.8 1221.84 449.8C1223.27 449.8 1224.42 450.247 1225.3 451.14C1226.2 452.02 1226.64 453.14 1226.64 454.5C1226.64 455.86 1226.2 456.987 1225.3 457.88C1224.42 458.76 1223.27 459.2 1221.84 459.2C1220.43 459.2 1219.27 458.76 1218.36 457.88ZM1219.62 452.2C1219.04 452.787 1218.74 453.553 1218.74 454.5C1218.74 455.447 1219.03 456.213 1219.6 456.8C1220.19 457.4 1220.94 457.7 1221.84 457.7C1222.75 457.7 1223.49 457.407 1224.06 456.82C1224.65 456.22 1224.94 455.447 1224.94 454.5C1224.94 453.58 1224.65 452.813 1224.06 452.2C1223.49 451.6 1222.75 451.3 1221.84 451.3C1220.94 451.3 1220.2 451.6 1219.62 452.2ZM1235.87 456.54L1236.63 457.7C1235.86 458.7 1234.71 459.2 1233.17 459.2C1231.73 459.2 1230.57 458.773 1229.67 457.92C1228.79 457.067 1228.35 455.927 1228.35 454.5C1228.35 453.18 1228.79 452.067 1229.65 451.16C1230.52 450.253 1231.61 449.8 1232.91 449.8C1234.49 449.8 1235.67 450.193 1236.45 450.98L1235.71 452.24C1235.02 451.613 1234.16 451.3 1233.13 451.3C1232.29 451.3 1231.57 451.607 1230.95 452.22C1230.35 452.82 1230.05 453.58 1230.05 454.5C1230.05 455.473 1230.36 456.247 1230.97 456.82C1231.6 457.407 1232.37 457.7 1233.29 457.7C1234.33 457.7 1235.19 457.313 1235.87 456.54ZM1240.76 451.6H1237.46V450H1245.66V451.6H1242.36V459H1240.76V451.6ZM1255.61 459H1254.01V455.2H1249.01V459H1247.41V450H1249.01V453.7H1254.01V450H1255.61V459ZM1259.22 457.88C1258.34 456.973 1257.9 455.847 1257.9 454.5C1257.9 453.14 1258.34 452.02 1259.22 451.14C1260.12 450.247 1261.28 449.8 1262.7 449.8C1264.13 449.8 1265.28 450.247 1266.16 451.14C1267.06 452.02 1267.5 453.14 1267.5 454.5C1267.5 455.86 1267.06 456.987 1266.16 457.88C1265.28 458.76 1264.13 459.2 1262.7 459.2C1261.29 459.2 1260.13 458.76 1259.22 457.88ZM1260.48 452.2C1259.9 452.787 1259.6 453.553 1259.6 454.5C1259.6 455.447 1259.89 456.213 1260.46 456.8C1261.05 457.4 1261.8 457.7 1262.7 457.7C1263.61 457.7 1264.35 457.407 1264.92 456.82C1265.51 456.22 1265.8 455.447 1265.8 454.5C1265.8 453.58 1265.51 452.813 1264.92 452.2C1264.35 451.6 1263.61 451.3 1262.7 451.3C1261.8 451.3 1261.06 451.6 1260.48 452.2ZM1276.61 452.3L1271.41 459H1269.81V450H1271.41V456.7L1276.61 450H1278.21V459H1276.61V452.3ZM1271.09 445.4H1272.59C1272.67 446.453 1273.18 446.98 1274.13 446.98C1275.02 446.98 1275.51 446.453 1275.59 445.4H1277.09C1277.09 446.213 1276.81 446.887 1276.25 447.42C1275.7 447.94 1275 448.2 1274.13 448.2C1273.18 448.2 1272.44 447.947 1271.89 447.44C1271.36 446.92 1271.09 446.24 1271.09 445.4ZM1285.61 459V450C1285.68 450 1285.77 450 1285.89 450C1286.01 449.987 1286.19 449.98 1286.41 449.98C1286.64 449.967 1286.85 449.96 1287.03 449.96C1288.02 449.933 1288.63 449.92 1288.87 449.92C1291.46 449.92 1292.75 450.693 1292.75 452.24C1292.75 452.773 1292.59 453.233 1292.25 453.62C1291.92 453.993 1291.49 454.22 1290.95 454.3V454.34C1292.35 454.593 1293.05 455.3 1293.05 456.46C1293.05 458.207 1291.67 459.08 1288.91 459.08C1288.78 459.08 1288.19 459.067 1287.15 459.04C1286.95 459.04 1286.73 459.033 1286.49 459.02C1286.25 459.02 1286.07 459.013 1285.93 459C1285.8 459 1285.69 459 1285.61 459ZM1289.13 454.96H1287.21V457.72C1288.17 457.76 1288.79 457.78 1289.05 457.78C1290.59 457.78 1291.35 457.3 1291.35 456.34C1291.35 455.42 1290.61 454.96 1289.13 454.96ZM1288.99 451.22C1288.61 451.22 1288.01 451.24 1287.21 451.28V453.96H1289.23C1289.78 453.96 1290.22 453.833 1290.55 453.58C1290.89 453.327 1291.05 452.987 1291.05 452.56C1291.05 451.667 1290.37 451.22 1288.99 451.22ZM1295.97 451.9L1295.55 450.62C1296.45 450.073 1297.45 449.8 1298.55 449.8C1299.77 449.8 1300.65 450.1 1301.19 450.7C1301.74 451.3 1302.01 452.227 1302.01 453.48V459H1300.49V457.84C1299.79 458.707 1298.83 459.14 1297.61 459.14C1296.79 459.14 1296.12 458.893 1295.61 458.4C1295.11 457.893 1294.85 457.213 1294.85 456.36C1294.85 455.48 1295.17 454.787 1295.79 454.28C1296.42 453.76 1297.24 453.5 1298.25 453.5C1299.2 453.5 1299.95 453.693 1300.49 454.08C1300.49 453.067 1300.35 452.34 1300.07 451.9C1299.79 451.46 1299.25 451.24 1298.45 451.24C1297.64 451.24 1296.81 451.46 1295.97 451.9ZM1298.17 457.7C1299.07 457.7 1299.84 457.313 1300.49 456.54V455.4C1299.93 455 1299.26 454.8 1298.47 454.8C1297.93 454.8 1297.47 454.933 1297.09 455.2C1296.73 455.453 1296.55 455.813 1296.55 456.28C1296.55 456.72 1296.69 457.067 1296.97 457.32C1297.27 457.573 1297.67 457.7 1298.17 457.7ZM1312.45 459H1310.85V451.6H1307.69L1307.59 453.12C1307.49 454.36 1307.33 455.393 1307.11 456.22C1306.91 457.033 1306.65 457.647 1306.31 458.06C1305.99 458.46 1305.65 458.74 1305.29 458.9C1304.93 459.047 1304.49 459.12 1303.97 459.12L1303.85 457.56C1304 457.573 1304.15 457.553 1304.31 457.5C1304.47 457.433 1304.65 457.3 1304.83 457.1C1305.03 456.9 1305.21 456.633 1305.35 456.3C1305.51 455.967 1305.65 455.5 1305.77 454.9C1305.91 454.287 1305.99 453.587 1306.03 452.8L1306.19 450H1312.45V459Z" fill="black"/>
<path d="M1115.1 481.416L1115.51 482.184C1115.23 482.472 1114.85 482.7 1114.37 482.868C1113.89 483.036 1113.39 483.12 1112.86 483.12C1111.6 483.12 1110.58 482.728 1109.78 481.944C1108.99 481.144 1108.6 480.096 1108.6 478.8C1108.6 477.552 1108.98 476.524 1109.73 475.716C1110.48 474.892 1111.5 474.48 1112.79 474.48C1113.85 474.48 1114.7 474.752 1115.34 475.296L1114.88 476.064C1114.32 475.648 1113.62 475.44 1112.8 475.44C1111.89 475.44 1111.14 475.752 1110.56 476.376C1109.97 476.992 1109.68 477.8 1109.68 478.8C1109.68 479.8 1109.98 480.612 1110.58 481.236C1111.2 481.852 1111.99 482.16 1112.96 482.16C1113.77 482.16 1114.49 481.912 1115.1 481.416ZM1116.84 482.328C1116.31 481.784 1116.05 481.108 1116.05 480.3C1116.05 479.484 1116.31 478.812 1116.84 478.284C1117.38 477.748 1118.07 477.48 1118.93 477.48C1119.79 477.48 1120.48 477.748 1121.01 478.284C1121.54 478.812 1121.81 479.484 1121.81 480.3C1121.81 481.116 1121.54 481.792 1121.01 482.328C1120.48 482.856 1119.79 483.12 1118.93 483.12C1118.08 483.12 1117.39 482.856 1116.84 482.328ZM1117.6 478.92C1117.25 479.272 1117.07 479.732 1117.07 480.3C1117.07 480.868 1117.24 481.328 1117.59 481.68C1117.94 482.04 1118.39 482.22 1118.93 482.22C1119.47 482.22 1119.92 482.044 1120.26 481.692C1120.61 481.332 1120.79 480.868 1120.79 480.3C1120.79 479.748 1120.61 479.288 1120.26 478.92C1119.92 478.56 1119.47 478.38 1118.93 478.38C1118.39 478.38 1117.94 478.56 1117.6 478.92ZM1127.46 481.656L1127.76 482.412C1127.24 482.884 1126.56 483.12 1125.73 483.12C1124.85 483.12 1124.15 482.864 1123.63 482.352C1123.1 481.84 1122.84 481.156 1122.84 480.3C1122.84 479.492 1123.08 478.82 1123.58 478.284C1124.07 477.748 1124.75 477.48 1125.62 477.48C1126.34 477.48 1126.94 477.712 1127.41 478.176C1127.89 478.632 1128.13 479.224 1128.13 479.952C1128.13 480.184 1128.11 480.4 1128.07 480.6H1123.92C1123.96 481.104 1124.14 481.5 1124.48 481.788C1124.82 482.076 1125.26 482.22 1125.8 482.22C1126.5 482.22 1127.06 482.032 1127.46 481.656ZM1125.57 478.38C1125.1 478.38 1124.71 478.512 1124.4 478.776C1124.09 479.04 1123.91 479.388 1123.86 479.82H1127.13C1127.11 479.372 1126.96 479.02 1126.68 478.764C1126.4 478.508 1126.04 478.38 1125.57 478.38ZM1129.38 484.32H1128.48V482.1H1129.15C1129.35 481.852 1129.52 481.452 1129.68 480.9C1129.83 480.34 1129.93 479.716 1129.98 479.028L1130.06 477.6H1133.74V482.1H1134.64V484.32H1133.74V483H1129.38V484.32ZM1130.96 478.5L1130.9 479.4C1130.85 480 1130.76 480.548 1130.61 481.044C1130.47 481.54 1130.32 481.892 1130.17 482.1H1132.78V478.5H1130.96ZM1139.77 478.98L1136.65 483H1135.69V477.6H1136.65V481.62L1139.77 477.6H1140.73V483H1139.77V478.98ZM1147.39 483H1146.43V480.72H1143.43V483H1142.47V477.6H1143.43V479.82H1146.43V477.6H1147.39V483ZM1153.39 481.656L1153.69 482.412C1153.17 482.884 1152.49 483.12 1151.66 483.12C1150.78 483.12 1150.08 482.864 1149.56 482.352C1149.03 481.84 1148.77 481.156 1148.77 480.3C1148.77 479.492 1149.02 478.82 1149.51 478.284C1150 477.748 1150.68 477.48 1151.55 477.48C1152.27 477.48 1152.87 477.712 1153.34 478.176C1153.82 478.632 1154.06 479.224 1154.06 479.952C1154.06 480.184 1154.04 480.4 1154 480.6H1149.85C1149.89 481.104 1150.08 481.5 1150.41 481.788C1150.76 482.076 1151.2 482.22 1151.73 482.22C1152.44 482.22 1152.99 482.032 1153.39 481.656ZM1151.51 478.38C1151.03 478.38 1150.64 478.512 1150.33 478.776C1150.03 479.04 1149.85 479.388 1149.79 479.82H1153.07C1153.04 479.372 1152.89 479.02 1152.61 478.764C1152.34 478.508 1151.97 478.38 1151.51 478.38ZM1160.28 483H1159.32V480.72H1156.32V483H1155.36V477.6H1156.32V479.82H1159.32V477.6H1160.28V483ZM1168.87 481.524L1169.32 482.22C1168.86 482.82 1168.17 483.12 1167.25 483.12C1166.38 483.12 1165.68 482.864 1165.15 482.352C1164.62 481.84 1164.36 481.156 1164.36 480.3C1164.36 479.508 1164.62 478.84 1165.14 478.296C1165.66 477.752 1166.31 477.48 1167.09 477.48C1168.04 477.48 1168.74 477.716 1169.22 478.188L1168.77 478.944C1168.36 478.568 1167.84 478.38 1167.22 478.38C1166.72 478.38 1166.28 478.564 1165.92 478.932C1165.56 479.292 1165.38 479.748 1165.38 480.3C1165.38 480.884 1165.56 481.348 1165.93 481.692C1166.3 482.044 1166.77 482.22 1167.32 482.22C1167.94 482.22 1168.46 481.988 1168.87 481.524ZM1176.77 480.648H1174.11V479.868H1176.76C1176.69 479.388 1176.49 479.02 1176.15 478.764C1175.82 478.508 1175.4 478.38 1174.89 478.38C1174.23 478.38 1173.67 478.576 1173.23 478.968L1172.83 478.248C1173.06 478.016 1173.37 477.832 1173.75 477.696C1174.13 477.552 1174.51 477.48 1174.88 477.48C1175.74 477.48 1176.43 477.736 1176.95 478.248C1177.49 478.76 1177.76 479.444 1177.76 480.3C1177.76 481.092 1177.5 481.76 1176.98 482.304C1176.46 482.848 1175.81 483.12 1175.02 483.12C1174.05 483.12 1173.32 482.892 1172.85 482.436L1173.31 481.728C1173.67 482.056 1174.23 482.22 1174.96 482.22C1175.47 482.22 1175.88 482.084 1176.2 481.812C1176.52 481.532 1176.71 481.144 1176.77 480.648ZM1183.59 483H1182.63V478.56H1180.73L1180.67 479.472C1180.61 480.216 1180.51 480.836 1180.38 481.332C1180.26 481.82 1180.1 482.188 1179.9 482.436C1179.71 482.676 1179.51 482.844 1179.29 482.94C1179.07 483.028 1178.81 483.072 1178.5 483.072L1178.43 482.136C1178.51 482.144 1178.61 482.132 1178.7 482.1C1178.8 482.06 1178.9 481.98 1179.01 481.86C1179.13 481.74 1179.24 481.58 1179.33 481.38C1179.42 481.18 1179.51 480.9 1179.58 480.54C1179.66 480.172 1179.71 479.752 1179.73 479.28L1179.83 477.6H1183.59V483ZM1189.58 481.656L1189.88 482.412C1189.36 482.884 1188.68 483.12 1187.85 483.12C1186.97 483.12 1186.27 482.864 1185.75 482.352C1185.22 481.84 1184.96 481.156 1184.96 480.3C1184.96 479.492 1185.21 478.82 1185.7 478.284C1186.19 477.748 1186.87 477.48 1187.74 477.48C1188.46 477.48 1189.06 477.712 1189.53 478.176C1190.01 478.632 1190.25 479.224 1190.25 479.952C1190.25 480.184 1190.23 480.4 1190.19 480.6H1186.04C1186.08 481.104 1186.27 481.5 1186.6 481.788C1186.95 482.076 1187.39 482.22 1187.92 482.22C1188.63 482.22 1189.18 482.032 1189.58 481.656ZM1187.69 478.38C1187.22 478.38 1186.83 478.512 1186.52 478.776C1186.21 479.04 1186.03 479.388 1185.98 479.82H1189.25C1189.23 479.372 1189.08 479.02 1188.8 478.764C1188.53 478.508 1188.16 478.38 1187.69 478.38ZM1195.02 477.6H1196.28L1193.92 480.18L1196.51 483H1195.18L1192.74 480.24L1195.02 477.6ZM1192.51 483H1191.55V477.6H1192.51V483ZM1198.82 478.56H1196.84V477.6H1201.76V478.56H1199.78V483H1198.82V478.56ZM1203.77 485.4H1202.81V477.6H1203.77V478.236C1203.97 478.012 1204.23 477.832 1204.57 477.696C1204.9 477.552 1205.25 477.48 1205.61 477.48C1206.38 477.48 1206.98 477.736 1207.42 478.248C1207.88 478.752 1208.11 479.408 1208.11 480.216C1208.11 481.04 1207.85 481.732 1207.33 482.292C1206.81 482.844 1206.14 483.12 1205.3 483.12C1204.65 483.12 1204.14 482.996 1203.77 482.748V485.4ZM1205.33 478.38C1204.69 478.38 1204.17 478.628 1203.77 479.124V481.8C1204.2 482.08 1204.68 482.22 1205.21 482.22C1205.78 482.22 1206.23 482.04 1206.57 481.68C1206.91 481.312 1207.09 480.836 1207.09 480.252C1207.09 479.684 1206.93 479.232 1206.62 478.896C1206.31 478.552 1205.88 478.38 1205.33 478.38ZM1209.91 482.328C1209.39 481.784 1209.12 481.108 1209.12 480.3C1209.12 479.484 1209.39 478.812 1209.91 478.284C1210.45 477.748 1211.15 477.48 1212 477.48C1212.86 477.48 1213.55 477.748 1214.08 478.284C1214.61 478.812 1214.88 479.484 1214.88 480.3C1214.88 481.116 1214.61 481.792 1214.08 482.328C1213.55 482.856 1212.86 483.12 1212 483.12C1211.15 483.12 1210.46 482.856 1209.91 482.328ZM1210.67 478.92C1210.32 479.272 1210.14 479.732 1210.14 480.3C1210.14 480.868 1210.31 481.328 1210.66 481.68C1211.01 482.04 1211.46 482.22 1212 482.22C1212.55 482.22 1212.99 482.044 1213.33 481.692C1213.69 481.332 1213.86 480.868 1213.86 480.3C1213.86 479.748 1213.69 479.288 1213.33 478.92C1212.99 478.56 1212.55 478.38 1212 478.38C1211.46 478.38 1211.01 478.56 1210.67 478.92ZM1217.23 483H1216.27V477.6H1219.69V478.5H1217.23V483ZM1224.7 481.656L1225 482.412C1224.48 482.884 1223.8 483.12 1222.97 483.12C1222.09 483.12 1221.39 482.864 1220.87 482.352C1220.34 481.84 1220.08 481.156 1220.08 480.3C1220.08 479.492 1220.33 478.82 1220.82 478.284C1221.31 477.748 1221.99 477.48 1222.86 477.48C1223.58 477.48 1224.18 477.712 1224.65 478.176C1225.13 478.632 1225.37 479.224 1225.37 479.952C1225.37 480.184 1225.35 480.4 1225.31 480.6H1221.16C1221.2 481.104 1221.39 481.5 1221.72 481.788C1222.07 482.076 1222.51 482.22 1223.04 482.22C1223.75 482.22 1224.3 482.032 1224.7 481.656ZM1222.81 478.38C1222.34 478.38 1221.95 478.512 1221.64 478.776C1221.33 479.04 1221.15 479.388 1221.1 479.82H1224.37C1224.35 479.372 1224.2 479.02 1223.92 478.764C1223.65 478.508 1223.28 478.38 1222.81 478.38ZM1231.59 483H1230.63V480.72H1227.63V483H1226.67V477.6H1227.63V479.82H1230.63V477.6H1231.59V483ZM1237.59 481.656L1237.89 482.412C1237.37 482.884 1236.69 483.12 1235.86 483.12C1234.98 483.12 1234.28 482.864 1233.76 482.352C1233.23 481.84 1232.97 481.156 1232.97 480.3C1232.97 479.492 1233.22 478.82 1233.71 478.284C1234.2 477.748 1234.88 477.48 1235.75 477.48C1236.47 477.48 1237.07 477.712 1237.54 478.176C1238.02 478.632 1238.26 479.224 1238.26 479.952C1238.26 480.184 1238.24 480.4 1238.2 480.6H1234.05C1234.09 481.104 1234.28 481.5 1234.61 481.788C1234.96 482.076 1235.4 482.22 1235.93 482.22C1236.64 482.22 1237.19 482.032 1237.59 481.656ZM1235.7 478.38C1235.23 478.38 1234.84 478.512 1234.53 478.776C1234.22 479.04 1234.04 479.388 1233.99 479.82H1237.26C1237.24 479.372 1237.09 479.02 1236.81 478.764C1236.54 478.508 1236.17 478.38 1235.7 478.38ZM1240.52 485.4H1239.56V477.6H1240.52V478.236C1240.72 478.012 1240.98 477.832 1241.32 477.696C1241.65 477.552 1242 477.48 1242.36 477.48C1243.13 477.48 1243.73 477.736 1244.17 478.248C1244.63 478.752 1244.86 479.408 1244.86 480.216C1244.86 481.04 1244.6 481.732 1244.08 482.292C1243.56 482.844 1242.89 483.12 1242.05 483.12C1241.4 483.12 1240.89 482.996 1240.52 482.748V485.4ZM1242.08 478.38C1241.44 478.38 1240.92 478.628 1240.52 479.124V481.8C1240.95 482.08 1241.43 482.22 1241.96 482.22C1242.53 482.22 1242.98 482.04 1243.32 481.68C1243.66 481.312 1243.84 480.836 1243.84 480.252C1243.84 479.684 1243.68 479.232 1243.37 478.896C1243.06 478.552 1242.63 478.38 1242.08 478.38ZM1246.52 478.74L1246.27 477.972C1246.8 477.644 1247.4 477.48 1248.07 477.48C1248.8 477.48 1249.32 477.66 1249.65 478.02C1249.98 478.38 1250.14 478.936 1250.14 479.688V483H1249.23V482.304C1248.81 482.824 1248.23 483.084 1247.5 483.084C1247.01 483.084 1246.61 482.936 1246.3 482.64C1246 482.336 1245.85 481.928 1245.85 481.416C1245.85 480.888 1246.04 480.472 1246.41 480.168C1246.79 479.856 1247.28 479.7 1247.89 479.7C1248.46 479.7 1248.9 479.816 1249.23 480.048C1249.23 479.44 1249.15 479.004 1248.98 478.74C1248.81 478.476 1248.49 478.344 1248.01 478.344C1247.52 478.344 1247.02 478.476 1246.52 478.74ZM1247.84 482.22C1248.38 482.22 1248.84 481.988 1249.23 481.524V480.84C1248.9 480.6 1248.49 480.48 1248.02 480.48C1247.69 480.48 1247.42 480.56 1247.19 480.72C1246.98 480.872 1246.87 481.088 1246.87 481.368C1246.87 481.632 1246.95 481.84 1247.12 481.992C1247.3 482.144 1247.54 482.22 1247.84 482.22ZM1253.05 478.56H1251.07V477.6H1255.99V478.56H1254.01V483H1253.05V478.56ZM1257.29 482.328C1256.76 481.784 1256.5 481.108 1256.5 480.3C1256.5 479.484 1256.76 478.812 1257.29 478.284C1257.83 477.748 1258.52 477.48 1259.38 477.48C1260.24 477.48 1260.93 477.748 1261.46 478.284C1261.99 478.812 1262.26 479.484 1262.26 480.3C1262.26 481.116 1261.99 481.792 1261.46 482.328C1260.93 482.856 1260.24 483.12 1259.38 483.12C1258.53 483.12 1257.84 482.856 1257.29 482.328ZM1258.05 478.92C1257.7 479.272 1257.52 479.732 1257.52 480.3C1257.52 480.868 1257.69 481.328 1258.04 481.68C1258.39 482.04 1258.84 482.22 1259.38 482.22C1259.92 482.22 1260.37 482.044 1260.71 481.692C1261.06 481.332 1261.24 480.868 1261.24 480.3C1261.24 479.748 1261.06 479.288 1260.71 478.92C1260.37 478.56 1259.92 478.38 1259.38 478.38C1258.84 478.38 1258.39 478.56 1258.05 478.92ZM1264.61 485.4H1263.65V477.6H1264.61V478.236C1264.8 478.012 1265.06 477.832 1265.4 477.696C1265.73 477.552 1266.08 477.48 1266.44 477.48C1267.21 477.48 1267.81 477.736 1268.25 478.248C1268.71 478.752 1268.94 479.408 1268.94 480.216C1268.94 481.04 1268.68 481.732 1268.16 482.292C1267.65 482.844 1266.97 483.12 1266.13 483.12C1265.48 483.12 1264.97 482.996 1264.61 482.748V485.4ZM1266.17 478.38C1265.53 478.38 1265.01 478.628 1264.61 479.124V481.8C1265.03 482.08 1265.51 482.22 1266.05 482.22C1266.61 482.22 1267.07 482.04 1267.4 481.68C1267.75 481.312 1267.92 480.836 1267.92 480.252C1267.92 479.684 1267.76 479.232 1267.45 478.896C1267.14 478.552 1266.71 478.38 1266.17 478.38ZM1270.75 482.328C1270.22 481.784 1269.95 481.108 1269.95 480.3C1269.95 479.484 1270.22 478.812 1270.75 478.284C1271.28 477.748 1271.98 477.48 1272.83 477.48C1273.69 477.48 1274.38 477.748 1274.91 478.284C1275.45 478.812 1275.71 479.484 1275.71 480.3C1275.71 481.116 1275.45 481.792 1274.91 482.328C1274.38 482.856 1273.69 483.12 1272.83 483.12C1271.99 483.12 1271.29 482.856 1270.75 482.328ZM1271.5 478.92C1271.15 479.272 1270.97 479.732 1270.97 480.3C1270.97 480.868 1271.15 481.328 1271.49 481.68C1271.84 482.04 1272.29 482.22 1272.83 482.22C1273.38 482.22 1273.82 482.044 1274.17 481.692C1274.52 481.332 1274.69 480.868 1274.69 480.3C1274.69 479.748 1274.52 479.288 1274.17 478.92C1273.82 478.56 1273.38 478.38 1272.83 478.38C1272.29 478.38 1271.85 478.56 1271.5 478.92ZM1278.06 483H1277.1V477.6H1277.97L1280.05 480.276L1282.02 477.6H1282.87V483H1281.91V479.064L1280.04 481.572H1280L1278.06 479.064V483ZM1284.35 482.352C1284.35 482.184 1284.41 482.036 1284.54 481.908C1284.67 481.78 1284.84 481.716 1285.03 481.716C1285.2 481.716 1285.35 481.78 1285.47 481.908C1285.6 482.036 1285.67 482.184 1285.67 482.352C1285.67 482.544 1285.61 482.708 1285.49 482.844C1285.37 482.972 1285.21 483.036 1285.03 483.036C1284.84 483.036 1284.67 482.972 1284.54 482.844C1284.41 482.708 1284.35 482.544 1284.35 482.352Z" fill="#959595"/>
<path d="M667.183 377.017C666.912 376.967 666.651 377.146 666.6 377.417C666.55 377.689 666.729 377.95 667 378L667.183 377.017ZM667 378L1033 446L1033.18 445.017L667.183 377.017L667 378Z" fill="#525252"/>
<path d="M1073.85 488.6C1070.89 488.6 1068.29 487.98 1066.05 486.74C1063.85 485.5 1062.21 483.72 1061.13 481.4L1063.89 477.98C1064.85 479.82 1066.21 481.26 1067.97 482.3C1069.73 483.3 1071.63 483.8 1073.67 483.8C1076.19 483.8 1078.19 483.1 1079.67 481.7C1081.19 480.3 1081.95 478.48 1081.95 476.24C1081.95 474 1081.15 472.22 1079.55 470.9C1077.99 469.58 1075.93 468.92 1073.37 468.92H1070.07V464.12H1073.07C1075.03 464.12 1076.71 463.44 1078.11 462.08C1079.59 460.72 1080.33 458.98 1080.33 456.86C1080.33 454.78 1079.71 453.16 1078.47 452C1077.27 450.8 1075.61 450.2 1073.49 450.2C1069.69 450.2 1066.81 451.94 1064.85 455.42L1062.15 452.12C1063.11 450 1064.61 448.36 1066.65 447.2C1068.73 446 1071.13 445.4 1073.85 445.4C1077.37 445.4 1080.17 446.36 1082.25 448.28C1084.37 450.2 1085.43 452.78 1085.43 456.02C1085.43 458.34 1084.87 460.38 1083.75 462.14C1082.63 463.9 1081.01 465.22 1078.89 466.1V466.28C1081.37 466.68 1083.35 467.82 1084.83 469.7C1086.31 471.58 1087.05 473.82 1087.05 476.42C1087.05 480.1 1085.81 483.06 1083.33 485.3C1080.89 487.5 1077.73 488.6 1073.85 488.6Z" fill="#999999"/>
</g>
</svg>
