<svg width="1447" height="863" viewBox="0 0 1447 863" fill="none" xmlns="http://www.w3.org/2000/svg">
<mask id="mask0_1324_81" style="mask-type:alpha" maskUnits="userSpaceOnUse" x="0" y="0" width="1447" height="863">
<rect width="1447" height="863" fill="#D9D9D9"/>
</mask>
<g mask="url(#mask0_1324_81)">
<circle cx="542.5" cy="482.5" r="5.5" fill="#525252"/>
<rect x="657" y="698" width="286" height="113" fill="#C1C1C1" fill-opacity="0.8"/>
<rect x="650" y="691" width="286" height="113" fill="white"/>
<rect x="643.5" y="684.5" width="285" height="112" stroke="#525252"/>
<path d="M720.86 755H719.84V747.56H715.28V755H714.26V746.6H720.86V755ZM727.241 753.656L727.541 754.412C727.021 754.884 726.345 755.12 725.513 755.12C724.633 755.12 723.933 754.864 723.413 754.352C722.885 753.84 722.621 753.156 722.621 752.3C722.621 751.492 722.869 750.82 723.365 750.284C723.853 749.748 724.533 749.48 725.405 749.48C726.125 749.48 726.721 749.712 727.193 750.176C727.673 750.632 727.913 751.224 727.913 751.952C727.913 752.184 727.893 752.4 727.853 752.6H723.701C723.741 753.104 723.929 753.5 724.265 753.788C724.609 754.076 725.049 754.22 725.585 754.22C726.289 754.22 726.841 754.032 727.241 753.656ZM725.357 750.38C724.885 750.38 724.493 750.512 724.181 750.776C723.877 751.04 723.697 751.388 723.641 751.82H726.917C726.893 751.372 726.741 751.02 726.461 750.764C726.189 750.508 725.821 750.38 725.357 750.38ZM730.176 757.4H729.216V749.6H730.176V750.236C730.368 750.012 730.632 749.832 730.968 749.696C731.304 749.552 731.652 749.48 732.012 749.48C732.78 749.48 733.384 749.736 733.824 750.248C734.28 750.752 734.508 751.408 734.508 752.216C734.508 753.04 734.248 753.732 733.728 754.292C733.216 754.844 732.54 755.12 731.7 755.12C731.052 755.12 730.544 754.996 730.176 754.748V757.4ZM731.736 750.38C731.096 750.38 730.576 750.628 730.176 751.124V753.8C730.6 754.08 731.08 754.22 731.616 754.22C732.184 754.22 732.636 754.04 732.972 753.68C733.316 753.312 733.488 752.836 733.488 752.252C733.488 751.684 733.332 751.232 733.02 750.896C732.708 750.552 732.28 750.38 731.736 750.38ZM740.144 753.656L740.444 754.412C739.924 754.884 739.248 755.12 738.416 755.12C737.536 755.12 736.836 754.864 736.316 754.352C735.788 753.84 735.524 753.156 735.524 752.3C735.524 751.492 735.772 750.82 736.268 750.284C736.756 749.748 737.436 749.48 738.308 749.48C739.028 749.48 739.624 749.712 740.096 750.176C740.576 750.632 740.816 751.224 740.816 751.952C740.816 752.184 740.796 752.4 740.756 752.6H736.604C736.644 753.104 736.832 753.5 737.168 753.788C737.512 754.076 737.952 754.22 738.488 754.22C739.192 754.22 739.744 754.032 740.144 753.656ZM738.26 750.38C737.788 750.38 737.396 750.512 737.084 750.776C736.78 751.04 736.6 751.388 736.544 751.82H739.82C739.796 751.372 739.644 751.02 739.364 750.764C739.092 750.508 738.724 750.38 738.26 750.38ZM742.063 756.32H741.163V754.1H741.835C742.035 753.852 742.211 753.452 742.363 752.9C742.515 752.34 742.615 751.716 742.663 751.028L742.747 749.6H746.431V754.1H747.331V756.32H746.431V755H742.063V756.32ZM743.647 750.5L743.587 751.4C743.539 752 743.443 752.548 743.299 753.044C743.155 753.54 743.007 753.892 742.855 754.1H745.471V750.5H743.647ZM748.664 750.74L748.412 749.972C748.948 749.644 749.548 749.48 750.212 749.48C750.94 749.48 751.468 749.66 751.796 750.02C752.124 750.38 752.288 750.936 752.288 751.688V755H751.376V754.304C750.952 754.824 750.376 755.084 749.648 755.084C749.152 755.084 748.752 754.936 748.448 754.64C748.144 754.336 747.992 753.928 747.992 753.416C747.992 752.888 748.18 752.472 748.556 752.168C748.932 751.856 749.424 751.7 750.032 751.7C750.6 751.7 751.048 751.816 751.376 752.048C751.376 751.44 751.292 751.004 751.124 750.74C750.956 750.476 750.632 750.344 750.152 750.344C749.664 750.344 749.168 750.476 748.664 750.74ZM749.984 754.22C750.52 754.22 750.984 753.988 751.376 753.524V752.84C751.04 752.6 750.636 752.48 750.164 752.48C749.836 752.48 749.56 752.56 749.336 752.72C749.12 752.872 749.012 753.088 749.012 753.368C749.012 753.632 749.096 753.84 749.264 753.992C749.44 754.144 749.68 754.22 749.984 754.22ZM758.155 753.656L758.455 754.412C757.935 754.884 757.259 755.12 756.427 755.12C755.547 755.12 754.847 754.864 754.327 754.352C753.799 753.84 753.535 753.156 753.535 752.3C753.535 751.492 753.783 750.82 754.279 750.284C754.767 749.748 755.447 749.48 756.319 749.48C757.039 749.48 757.635 749.712 758.107 750.176C758.587 750.632 758.827 751.224 758.827 751.952C758.827 752.184 758.807 752.4 758.767 752.6H754.615C754.655 753.104 754.843 753.5 755.179 753.788C755.523 754.076 755.963 754.22 756.499 754.22C757.203 754.22 757.755 754.032 758.155 753.656ZM756.271 750.38C755.799 750.38 755.407 750.512 755.095 750.776C754.791 751.04 754.611 751.388 754.555 751.82H757.831C757.807 751.372 757.655 751.02 757.375 750.764C757.103 750.508 756.735 750.38 756.271 750.38ZM761.32 750.56H759.34V749.6H764.26V750.56H762.28V755H761.32V750.56ZM771.509 752.648H768.845V751.868H771.497C771.425 751.388 771.221 751.02 770.885 750.764C770.557 750.508 770.137 750.38 769.625 750.38C768.961 750.38 768.409 750.576 767.969 750.968L767.561 750.248C767.793 750.016 768.101 749.832 768.485 749.696C768.869 749.552 769.245 749.48 769.613 749.48C770.477 749.48 771.169 749.736 771.689 750.248C772.225 750.76 772.493 751.444 772.493 752.3C772.493 753.092 772.233 753.76 771.713 754.304C771.193 754.848 770.541 755.12 769.757 755.12C768.781 755.12 768.057 754.892 767.585 754.436L768.041 753.728C768.409 754.056 768.961 754.22 769.697 754.22C770.201 754.22 770.613 754.084 770.933 753.812C771.253 753.532 771.445 753.144 771.509 752.648ZM778.796 755H777.836V752.72H774.836V755H773.876V749.6H774.836V751.82H777.836V749.6H778.796V755ZM784.792 753.656L785.092 754.412C784.572 754.884 783.896 755.12 783.064 755.12C782.184 755.12 781.484 754.864 780.964 754.352C780.436 753.84 780.172 753.156 780.172 752.3C780.172 751.492 780.42 750.82 780.916 750.284C781.404 749.748 782.084 749.48 782.956 749.48C783.676 749.48 784.272 749.712 784.744 750.176C785.224 750.632 785.464 751.224 785.464 751.952C785.464 752.184 785.444 752.4 785.404 752.6H781.252C781.292 753.104 781.48 753.5 781.816 753.788C782.16 754.076 782.6 754.22 783.136 754.22C783.84 754.22 784.392 754.032 784.792 753.656ZM782.908 750.38C782.436 750.38 782.044 750.512 781.732 750.776C781.428 751.04 781.248 751.388 781.192 751.82H784.468C784.444 751.372 784.292 751.02 784.012 750.764C783.74 750.508 783.372 750.38 782.908 750.38ZM787.726 757.4H786.766V749.6H787.726V750.236C787.918 750.012 788.182 749.832 788.518 749.696C788.854 749.552 789.202 749.48 789.562 749.48C790.33 749.48 790.934 749.736 791.374 750.248C791.83 750.752 792.058 751.408 792.058 752.216C792.058 753.04 791.798 753.732 791.278 754.292C790.766 754.844 790.09 755.12 789.25 755.12C788.602 755.12 788.094 754.996 787.726 754.748V757.4ZM789.286 750.38C788.646 750.38 788.126 750.628 787.726 751.124V753.8C788.15 754.08 788.63 754.22 789.166 754.22C789.734 754.22 790.186 754.04 790.522 753.68C790.866 753.312 791.038 752.836 791.038 752.252C791.038 751.684 790.882 751.232 790.57 750.896C790.258 750.552 789.83 750.38 789.286 750.38ZM794.394 755H793.434V749.6H796.854V750.5H794.394V755ZM801.862 750.98L798.742 755H797.782V749.6H798.742V753.62L801.862 749.6H802.822V755H801.862V750.98ZM805.587 755H804.567V749.6H805.587V751.76H806.763C806.875 751.072 807.175 750.52 807.663 750.104C808.159 749.688 808.767 749.48 809.487 749.48C810.335 749.48 811.015 749.748 811.527 750.284C812.047 750.82 812.307 751.492 812.307 752.3C812.307 753.108 812.043 753.784 811.515 754.328C810.995 754.856 810.319 755.12 809.487 755.12C808.727 755.12 808.103 754.9 807.615 754.46C807.127 754.02 806.839 753.44 806.751 752.72H805.587V755ZM808.287 750.956C807.967 751.3 807.807 751.748 807.807 752.3C807.807 752.852 807.967 753.3 808.287 753.644C808.607 753.988 809.019 754.16 809.523 754.16C810.027 754.16 810.435 753.992 810.747 753.656C811.067 753.312 811.227 752.86 811.227 752.3C811.227 751.748 811.071 751.3 810.759 750.956C810.447 750.612 810.035 750.44 809.523 750.44C809.019 750.44 808.607 750.612 808.287 750.956ZM816.38 755V749.6C816.42 749.6 816.476 749.6 816.548 749.6C816.62 749.592 816.724 749.588 816.86 749.588C816.996 749.58 817.12 749.576 817.232 749.576C817.824 749.56 818.192 749.552 818.336 749.552C819.888 749.552 820.664 750.016 820.664 750.944C820.664 751.264 820.564 751.54 820.364 751.772C820.164 751.996 819.904 752.132 819.584 752.18V752.204C820.424 752.356 820.844 752.78 820.844 753.476C820.844 754.524 820.016 755.048 818.36 755.048C818.28 755.048 817.928 755.04 817.304 755.024C817.184 755.024 817.052 755.02 816.908 755.012C816.764 755.012 816.652 755.008 816.572 755C816.492 755 816.428 755 816.38 755ZM818.492 752.576H817.34V754.232C817.916 754.256 818.284 754.268 818.444 754.268C819.364 754.268 819.824 753.98 819.824 753.404C819.824 752.852 819.38 752.576 818.492 752.576ZM818.408 750.332C818.176 750.332 817.82 750.344 817.34 750.368V751.976H818.552C818.88 751.976 819.144 751.9 819.344 751.748C819.544 751.596 819.644 751.392 819.644 751.136C819.644 750.6 819.232 750.332 818.408 750.332ZM823.269 757.4H822.309V749.6H823.269V750.236C823.461 750.012 823.725 749.832 824.061 749.696C824.397 749.552 824.745 749.48 825.105 749.48C825.873 749.48 826.477 749.736 826.917 750.248C827.373 750.752 827.601 751.408 827.601 752.216C827.601 753.04 827.341 753.732 826.821 754.292C826.309 754.844 825.633 755.12 824.793 755.12C824.145 755.12 823.637 754.996 823.269 754.748V757.4ZM824.829 750.38C824.189 750.38 823.669 750.628 823.269 751.124V753.8C823.693 754.08 824.173 754.22 824.709 754.22C825.277 754.22 825.729 754.04 826.065 753.68C826.409 753.312 826.581 752.836 826.581 752.252C826.581 751.684 826.425 751.232 826.113 750.896C825.801 750.552 825.373 750.38 824.829 750.38ZM829.265 750.74L829.013 749.972C829.549 749.644 830.149 749.48 830.813 749.48C831.541 749.48 832.069 749.66 832.397 750.02C832.725 750.38 832.889 750.936 832.889 751.688V755H831.977V754.304C831.553 754.824 830.977 755.084 830.249 755.084C829.753 755.084 829.353 754.936 829.049 754.64C828.745 754.336 828.593 753.928 828.593 753.416C828.593 752.888 828.781 752.472 829.157 752.168C829.533 751.856 830.025 751.7 830.633 751.7C831.201 751.7 831.649 751.816 831.977 752.048C831.977 751.44 831.893 751.004 831.725 750.74C831.557 750.476 831.233 750.344 830.753 750.344C830.265 750.344 829.769 750.476 829.265 750.74ZM830.585 754.22C831.121 754.22 831.585 753.988 831.977 753.524V752.84C831.641 752.6 831.237 752.48 830.765 752.48C830.437 752.48 830.161 752.56 829.937 752.72C829.721 752.872 829.613 753.088 829.613 753.368C829.613 753.632 829.697 753.84 829.865 753.992C830.041 754.144 830.281 754.22 830.585 754.22ZM841.337 755H834.497V749.6H835.457V754.1H837.437V749.6H838.397V754.1H840.377V749.6H841.337V754.1H842.237V756.32H841.337V755ZM847.546 753.656L847.846 754.412C847.326 754.884 846.65 755.12 845.818 755.12C844.938 755.12 844.238 754.864 843.718 754.352C843.19 753.84 842.926 753.156 842.926 752.3C842.926 751.492 843.174 750.82 843.67 750.284C844.158 749.748 844.838 749.48 845.71 749.48C846.43 749.48 847.026 749.712 847.498 750.176C847.978 750.632 848.218 751.224 848.218 751.952C848.218 752.184 848.198 752.4 848.158 752.6H844.006C844.046 753.104 844.234 753.5 844.57 753.788C844.914 754.076 845.354 754.22 845.89 754.22C846.594 754.22 847.146 754.032 847.546 753.656ZM845.662 750.38C845.19 750.38 844.798 750.512 844.486 750.776C844.182 751.04 844.002 751.388 843.946 751.82H847.222C847.198 751.372 847.046 751.02 846.766 750.764C846.494 750.508 846.126 750.38 845.662 750.38ZM854.44 755H853.48V752.72H850.48V755H849.52V749.6H850.48V751.82H853.48V749.6H854.44V755ZM860.257 750.98L857.137 755H856.177V749.6H857.137V753.62L860.257 749.6H861.217V755H860.257V750.98ZM865.326 749.6H867.006V755H866.046V753.2H865.002L863.682 755H862.518L864.078 752.96C863.75 752.888 863.474 752.712 863.25 752.432C863.026 752.144 862.914 751.8 862.914 751.4C862.914 750.848 863.114 750.412 863.514 750.092C863.914 749.764 864.518 749.6 865.326 749.6ZM863.934 751.424C863.934 751.68 864.034 751.892 864.234 752.06C864.434 752.22 864.67 752.3 864.942 752.3H866.046V750.5H865.17C864.762 750.5 864.454 750.584 864.246 750.752C864.038 750.92 863.934 751.144 863.934 751.424ZM872.406 757.4H871.446V749.6H872.406V750.236C872.598 750.012 872.862 749.832 873.198 749.696C873.534 749.552 873.882 749.48 874.242 749.48C875.01 749.48 875.614 749.736 876.054 750.248C876.51 750.752 876.738 751.408 876.738 752.216C876.738 753.04 876.478 753.732 875.958 754.292C875.446 754.844 874.77 755.12 873.93 755.12C873.282 755.12 872.774 754.996 872.406 754.748V757.4ZM873.966 750.38C873.326 750.38 872.806 750.628 872.406 751.124V753.8C872.83 754.08 873.31 754.22 873.846 754.22C874.414 754.22 874.866 754.04 875.202 753.68C875.546 753.312 875.718 752.836 875.718 752.252C875.718 751.684 875.562 751.232 875.25 750.896C874.938 750.552 874.51 750.38 873.966 750.38ZM878.546 754.328C878.018 753.784 877.754 753.108 877.754 752.3C877.754 751.484 878.018 750.812 878.546 750.284C879.082 749.748 879.778 749.48 880.634 749.48C881.49 749.48 882.182 749.748 882.71 750.284C883.246 750.812 883.514 751.484 883.514 752.3C883.514 753.116 883.246 753.792 882.71 754.328C882.182 754.856 881.49 755.12 880.634 755.12C879.786 755.12 879.09 754.856 878.546 754.328ZM879.302 750.92C878.95 751.272 878.774 751.732 878.774 752.3C878.774 752.868 878.946 753.328 879.29 753.68C879.642 754.04 880.09 754.22 880.634 754.22C881.178 754.22 881.622 754.044 881.966 753.692C882.318 753.332 882.494 752.868 882.494 752.3C882.494 751.748 882.318 751.288 881.966 750.92C881.622 750.56 881.178 750.38 880.634 750.38C880.09 750.38 879.646 750.56 879.302 750.92ZM885.984 750.56H884.004V749.6H888.924V750.56H886.944V755H885.984V750.56ZM890.23 754.328C889.702 753.784 889.438 753.108 889.438 752.3C889.438 751.484 889.702 750.812 890.23 750.284C890.766 749.748 891.462 749.48 892.318 749.48C893.174 749.48 893.866 749.748 894.394 750.284C894.93 750.812 895.198 751.484 895.198 752.3C895.198 753.116 894.93 753.792 894.394 754.328C893.866 754.856 893.174 755.12 892.318 755.12C891.47 755.12 890.774 754.856 890.23 754.328ZM890.986 750.92C890.634 751.272 890.458 751.732 890.458 752.3C890.458 752.868 890.63 753.328 890.974 753.68C891.326 754.04 891.774 754.22 892.318 754.22C892.862 754.22 893.306 754.044 893.65 753.692C894.002 753.332 894.178 752.868 894.178 752.3C894.178 751.748 894.002 751.288 893.65 750.92C893.306 750.56 892.862 750.38 892.318 750.38C891.774 750.38 891.33 750.56 890.986 750.92ZM897.543 757.4H896.583V749.6H897.543V750.236C897.735 750.012 897.999 749.832 898.335 749.696C898.671 749.552 899.019 749.48 899.379 749.48C900.147 749.48 900.751 749.736 901.191 750.248C901.647 750.752 901.875 751.408 901.875 752.216C901.875 753.04 901.615 753.732 901.095 754.292C900.583 754.844 899.907 755.12 899.067 755.12C898.419 755.12 897.911 754.996 897.543 754.748V757.4ZM899.103 750.38C898.463 750.38 897.943 750.628 897.543 751.124V753.8C897.967 754.08 898.447 754.22 898.983 754.22C899.551 754.22 900.003 754.04 900.339 753.68C900.683 753.312 900.855 752.836 900.855 752.252C900.855 751.684 900.699 751.232 900.387 750.896C900.075 750.552 899.647 750.38 899.103 750.38ZM903.539 750.74L903.287 749.972C903.823 749.644 904.423 749.48 905.087 749.48C905.815 749.48 906.343 749.66 906.671 750.02C906.999 750.38 907.163 750.936 907.163 751.688V755H906.251V754.304C905.827 754.824 905.251 755.084 904.523 755.084C904.027 755.084 903.627 754.936 903.323 754.64C903.019 754.336 902.867 753.928 902.867 753.416C902.867 752.888 903.055 752.472 903.431 752.168C903.807 751.856 904.299 751.7 904.907 751.7C905.475 751.7 905.923 751.816 906.251 752.048C906.251 751.44 906.167 751.004 905.999 750.74C905.831 750.476 905.507 750.344 905.027 750.344C904.539 750.344 904.043 750.476 903.539 750.74ZM904.859 754.22C905.395 754.22 905.859 753.988 906.251 753.524V752.84C905.915 752.6 905.511 752.48 905.039 752.48C904.711 752.48 904.435 752.56 904.211 752.72C903.995 752.872 903.887 753.088 903.887 753.368C903.887 753.632 903.971 753.84 904.139 753.992C904.315 754.144 904.555 754.22 904.859 754.22ZM713.864 771V765.6C713.904 765.6 713.96 765.6 714.032 765.6C714.104 765.592 714.208 765.588 714.344 765.588C714.48 765.58 714.604 765.576 714.716 765.576C715.308 765.56 715.676 765.552 715.82 765.552C717.372 765.552 718.148 766.016 718.148 766.944C718.148 767.264 718.048 767.54 717.848 767.772C717.648 767.996 717.388 768.132 717.068 768.18V768.204C717.908 768.356 718.328 768.78 718.328 769.476C718.328 770.524 717.5 771.048 715.844 771.048C715.764 771.048 715.412 771.04 714.788 771.024C714.668 771.024 714.536 771.02 714.392 771.012C714.248 771.012 714.136 771.008 714.056 771C713.976 771 713.912 771 713.864 771ZM715.976 768.576H714.824V770.232C715.4 770.256 715.768 770.268 715.928 770.268C716.848 770.268 717.308 769.98 717.308 769.404C717.308 768.852 716.864 768.576 715.976 768.576ZM715.892 766.332C715.66 766.332 715.304 766.344 714.824 766.368V767.976H716.036C716.364 767.976 716.628 767.9 716.828 767.748C717.028 767.596 717.128 767.392 717.128 767.136C717.128 766.6 716.716 766.332 715.892 766.332ZM723.449 771H722.489V765.6H725.909V766.5H723.449V771ZM727.093 770.328C726.565 769.784 726.301 769.108 726.301 768.3C726.301 767.484 726.565 766.812 727.093 766.284C727.629 765.748 728.325 765.48 729.181 765.48C730.037 765.48 730.729 765.748 731.257 766.284C731.793 766.812 732.061 767.484 732.061 768.3C732.061 769.116 731.793 769.792 731.257 770.328C730.729 770.856 730.037 771.12 729.181 771.12C728.333 771.12 727.637 770.856 727.093 770.328ZM727.849 766.92C727.497 767.272 727.321 767.732 727.321 768.3C727.321 768.868 727.493 769.328 727.837 769.68C728.189 770.04 728.637 770.22 729.181 770.22C729.725 770.22 730.169 770.044 730.513 769.692C730.865 769.332 731.041 768.868 731.041 768.3C731.041 767.748 730.865 767.288 730.513 766.92C730.169 766.56 729.725 766.38 729.181 766.38C728.637 766.38 728.193 766.56 727.849 766.92ZM738.366 771H737.406V768.72H734.406V771H733.446V765.6H734.406V767.82H737.406V765.6H738.366V771ZM740.258 772.32H739.358V770.1H740.03C740.23 769.852 740.406 769.452 740.558 768.9C740.71 768.34 740.81 767.716 740.858 767.028L740.942 765.6H744.626V770.1H745.526V772.32H744.626V771H740.258V772.32ZM741.842 766.5L741.782 767.4C741.734 768 741.638 768.548 741.494 769.044C741.35 769.54 741.202 769.892 741.05 770.1H743.666V766.5H741.842ZM747.003 770.328C746.475 769.784 746.211 769.108 746.211 768.3C746.211 767.484 746.475 766.812 747.003 766.284C747.539 765.748 748.235 765.48 749.091 765.48C749.947 765.48 750.639 765.748 751.167 766.284C751.703 766.812 751.971 767.484 751.971 768.3C751.971 769.116 751.703 769.792 751.167 770.328C750.639 770.856 749.947 771.12 749.091 771.12C748.243 771.12 747.547 770.856 747.003 770.328ZM747.759 766.92C747.407 767.272 747.231 767.732 747.231 768.3C747.231 768.868 747.403 769.328 747.747 769.68C748.099 770.04 748.547 770.22 749.091 770.22C749.635 770.22 750.079 770.044 750.423 769.692C750.775 769.332 750.951 768.868 750.951 768.3C750.951 767.748 750.775 767.288 750.423 766.92C750.079 766.56 749.635 766.38 749.091 766.38C748.547 766.38 748.103 766.56 747.759 766.92ZM757.801 771H756.841V766.56H754.945L754.885 767.472C754.821 768.216 754.725 768.836 754.597 769.332C754.477 769.82 754.317 770.188 754.117 770.436C753.925 770.676 753.721 770.844 753.505 770.94C753.289 771.028 753.025 771.072 752.713 771.072L752.641 770.136C752.729 770.144 752.821 770.132 752.917 770.1C753.013 770.06 753.117 769.98 753.229 769.86C753.349 769.74 753.453 769.58 753.541 769.38C753.637 769.18 753.721 768.9 753.793 768.54C753.873 768.172 753.925 767.752 753.949 767.28L754.045 765.6H757.801V771ZM763.348 765.6H764.44L762.28 771C761.888 771.952 761.548 772.584 761.26 772.896C760.956 773.232 760.608 773.4 760.216 773.4C759.864 773.4 759.524 773.288 759.196 773.064L759.508 772.332C759.764 772.452 759.964 772.512 760.108 772.512C760.332 772.512 760.532 772.416 760.708 772.224C760.892 772.032 761.076 771.72 761.26 771.288L761.38 771L758.788 765.6H759.94L761.524 769.032C761.556 769.088 761.664 769.36 761.848 769.848C761.92 769.584 762.004 769.308 762.1 769.02L763.348 765.6ZM764.694 770.352C764.694 770.184 764.758 770.036 764.886 769.908C765.022 769.78 765.186 769.716 765.378 769.716C765.546 769.716 765.694 769.78 765.822 769.908C765.95 770.036 766.014 770.184 766.014 770.352C766.014 770.544 765.954 770.708 765.834 770.844C765.714 770.972 765.562 771.036 765.378 771.036C765.186 771.036 765.022 770.972 764.886 770.844C764.758 770.708 764.694 770.544 764.694 770.352ZM775.874 769.416L776.282 770.184C776.002 770.472 775.622 770.7 775.142 770.868C774.662 771.036 774.158 771.12 773.63 771.12C772.374 771.12 771.346 770.728 770.546 769.944C769.762 769.144 769.37 768.096 769.37 766.8C769.37 765.552 769.746 764.524 770.498 763.716C771.25 762.892 772.27 762.48 773.558 762.48C774.622 762.48 775.474 762.752 776.114 763.296L775.646 764.064C775.086 763.648 774.394 763.44 773.57 763.44C772.658 763.44 771.91 763.752 771.326 764.376C770.742 764.992 770.45 765.8 770.45 766.8C770.45 767.8 770.75 768.612 771.35 769.236C771.966 769.852 772.758 770.16 773.726 770.16C774.542 770.16 775.258 769.912 775.874 769.416ZM777.612 770.328C777.084 769.784 776.82 769.108 776.82 768.3C776.82 767.484 777.084 766.812 777.612 766.284C778.148 765.748 778.844 765.48 779.7 765.48C780.556 765.48 781.248 765.748 781.776 766.284C782.312 766.812 782.58 767.484 782.58 768.3C782.58 769.116 782.312 769.792 781.776 770.328C781.248 770.856 780.556 771.12 779.7 771.12C778.852 771.12 778.156 770.856 777.612 770.328ZM778.368 766.92C778.016 767.272 777.84 767.732 777.84 768.3C777.84 768.868 778.012 769.328 778.356 769.68C778.708 770.04 779.156 770.22 779.7 770.22C780.244 770.22 780.688 770.044 781.032 769.692C781.384 769.332 781.56 768.868 781.56 768.3C781.56 767.748 781.384 767.288 781.032 766.92C780.688 766.56 780.244 766.38 779.7 766.38C779.156 766.38 778.712 766.56 778.368 766.92ZM788.226 769.656L788.526 770.412C788.006 770.884 787.33 771.12 786.498 771.12C785.618 771.12 784.918 770.864 784.398 770.352C783.87 769.84 783.606 769.156 783.606 768.3C783.606 767.492 783.854 766.82 784.35 766.284C784.838 765.748 785.518 765.48 786.39 765.48C787.11 765.48 787.706 765.712 788.178 766.176C788.658 766.632 788.898 767.224 788.898 767.952C788.898 768.184 788.878 768.4 788.838 768.6H784.686C784.726 769.104 784.914 769.5 785.25 769.788C785.594 770.076 786.034 770.22 786.57 770.22C787.274 770.22 787.826 770.032 788.226 769.656ZM786.342 766.38C785.87 766.38 785.478 766.512 785.166 766.776C784.862 767.04 784.682 767.388 784.626 767.82H787.902C787.878 767.372 787.726 767.02 787.446 766.764C787.174 766.508 786.806 766.38 786.342 766.38ZM790.145 772.32H789.245V770.1H789.917C790.117 769.852 790.293 769.452 790.445 768.9C790.597 768.34 790.697 767.716 790.745 767.028L790.829 765.6H794.513V770.1H795.413V772.32H794.513V771H790.145V772.32ZM791.729 766.5L791.669 767.4C791.621 768 791.525 768.548 791.381 769.044C791.237 769.54 791.089 769.892 790.937 770.1H793.553V766.5H791.729ZM800.538 766.98L797.418 771H796.458V765.6H797.418V769.62L800.538 765.6H801.498V771H800.538V766.98ZM808.163 771H807.203V768.72H804.203V771H803.243V765.6H804.203V767.82H807.203V765.6H808.163V771ZM814.159 769.656L814.459 770.412C813.939 770.884 813.263 771.12 812.431 771.12C811.551 771.12 810.851 770.864 810.331 770.352C809.803 769.84 809.539 769.156 809.539 768.3C809.539 767.492 809.787 766.82 810.283 766.284C810.771 765.748 811.451 765.48 812.323 765.48C813.043 765.48 813.639 765.712 814.111 766.176C814.591 766.632 814.831 767.224 814.831 767.952C814.831 768.184 814.811 768.4 814.771 768.6H810.619C810.659 769.104 810.847 769.5 811.183 769.788C811.527 770.076 811.967 770.22 812.503 770.22C813.207 770.22 813.759 770.032 814.159 769.656ZM812.275 766.38C811.803 766.38 811.411 766.512 811.099 766.776C810.795 767.04 810.615 767.388 810.559 767.82H813.835C813.811 767.372 813.659 767.02 813.379 766.764C813.107 766.508 812.739 766.38 812.275 766.38ZM821.054 771H820.094V768.72H817.094V771H816.134V765.6H817.094V767.82H820.094V765.6H821.054V771ZM829.637 769.524L830.093 770.22C829.629 770.82 828.937 771.12 828.017 771.12C827.153 771.12 826.453 770.864 825.917 770.352C825.389 769.84 825.125 769.156 825.125 768.3C825.125 767.508 825.385 766.84 825.905 766.296C826.425 765.752 827.077 765.48 827.861 765.48C828.805 765.48 829.513 765.716 829.985 766.188L829.541 766.944C829.125 766.568 828.609 766.38 827.993 766.38C827.489 766.38 827.053 766.564 826.685 766.932C826.325 767.292 826.145 767.748 826.145 768.3C826.145 768.884 826.329 769.348 826.697 769.692C827.073 770.044 827.537 770.22 828.089 770.22C828.713 770.22 829.229 769.988 829.637 769.524ZM835 773.4H834.04V765.6H835V766.236C835.192 766.012 835.456 765.832 835.792 765.696C836.128 765.552 836.476 765.48 836.836 765.48C837.604 765.48 838.208 765.736 838.648 766.248C839.104 766.752 839.332 767.408 839.332 768.216C839.332 769.04 839.072 769.732 838.552 770.292C838.04 770.844 837.364 771.12 836.524 771.12C835.876 771.12 835.368 770.996 835 770.748V773.4ZM836.56 766.38C835.92 766.38 835.4 766.628 835 767.124V769.8C835.424 770.08 835.904 770.22 836.44 770.22C837.008 770.22 837.46 770.04 837.796 769.68C838.14 769.312 838.312 768.836 838.312 768.252C838.312 767.684 838.156 767.232 837.844 766.896C837.532 766.552 837.104 766.38 836.56 766.38ZM844.968 769.656L845.268 770.412C844.748 770.884 844.072 771.12 843.24 771.12C842.36 771.12 841.66 770.864 841.14 770.352C840.612 769.84 840.348 769.156 840.348 768.3C840.348 767.492 840.596 766.82 841.092 766.284C841.58 765.748 842.26 765.48 843.132 765.48C843.852 765.48 844.448 765.712 844.92 766.176C845.4 766.632 845.64 767.224 845.64 767.952C845.64 768.184 845.62 768.4 845.58 768.6H841.428C841.468 769.104 841.656 769.5 841.992 769.788C842.336 770.076 842.776 770.22 843.312 770.22C844.016 770.22 844.568 770.032 844.968 769.656ZM843.084 766.38C842.612 766.38 842.22 766.512 841.908 766.776C841.604 767.04 841.424 767.388 841.368 767.82H844.644C844.62 767.372 844.468 767.02 844.188 766.764C843.916 766.508 843.548 766.38 843.084 766.38ZM846.887 772.32H845.987V770.1H846.659C846.859 769.852 847.035 769.452 847.187 768.9C847.339 768.34 847.439 767.716 847.487 767.028L847.571 765.6H851.255V770.1H852.155V772.32H851.255V771H846.887V772.32ZM848.471 766.5L848.411 767.4C848.363 768 848.267 768.548 848.123 769.044C847.979 769.54 847.831 769.892 847.679 770.1H850.295V766.5H848.471ZM857.016 765.6H858.108L855.948 771C855.556 771.952 855.216 772.584 854.928 772.896C854.624 773.232 854.276 773.4 853.884 773.4C853.532 773.4 853.192 773.288 852.864 773.064L853.176 772.332C853.432 772.452 853.632 772.512 853.776 772.512C854 772.512 854.2 772.416 854.376 772.224C854.56 772.032 854.744 771.72 854.928 771.288L855.048 771L852.456 765.6H853.608L855.192 769.032C855.224 769.088 855.332 769.36 855.516 769.848C855.588 769.584 855.672 769.308 855.768 769.02L857.016 765.6ZM862.562 765.6H863.822L861.458 768.18L864.05 771H862.718L860.282 768.24L862.562 765.6ZM860.054 771H859.094V765.6H860.054V771ZM866.367 766.56H864.387V765.6H869.307V766.56H867.327V771H866.367V766.56ZM870.612 770.328C870.084 769.784 869.82 769.108 869.82 768.3C869.82 767.484 870.084 766.812 870.612 766.284C871.148 765.748 871.844 765.48 872.7 765.48C873.556 765.48 874.248 765.748 874.776 766.284C875.312 766.812 875.58 767.484 875.58 768.3C875.58 769.116 875.312 769.792 874.776 770.328C874.248 770.856 873.556 771.12 872.7 771.12C871.852 771.12 871.156 770.856 870.612 770.328ZM871.368 766.92C871.016 767.272 870.84 767.732 870.84 768.3C870.84 768.868 871.012 769.328 871.356 769.68C871.708 770.04 872.156 770.22 872.7 770.22C873.244 770.22 873.688 770.044 874.032 769.692C874.384 769.332 874.56 768.868 874.56 768.3C874.56 767.748 874.384 767.288 874.032 766.92C873.688 766.56 873.244 766.38 872.7 766.38C872.156 766.38 871.712 766.56 871.368 766.92ZM877.926 773.4H876.966V765.6H877.926V766.236C878.118 766.012 878.382 765.832 878.718 765.696C879.054 765.552 879.402 765.48 879.762 765.48C880.53 765.48 881.134 765.736 881.574 766.248C882.03 766.752 882.258 767.408 882.258 768.216C882.258 769.04 881.998 769.732 881.478 770.292C880.966 770.844 880.29 771.12 879.45 771.12C878.802 771.12 878.294 770.996 877.926 770.748V773.4ZM879.486 766.38C878.846 766.38 878.326 766.628 877.926 767.124V769.8C878.35 770.08 878.83 770.22 879.366 770.22C879.934 770.22 880.386 770.04 880.722 769.68C881.066 769.312 881.238 768.836 881.238 768.252C881.238 767.684 881.082 767.232 880.77 766.896C880.458 766.552 880.03 766.38 879.486 766.38ZM884.066 770.328C883.538 769.784 883.274 769.108 883.274 768.3C883.274 767.484 883.538 766.812 884.066 766.284C884.602 765.748 885.298 765.48 886.154 765.48C887.01 765.48 887.702 765.748 888.23 766.284C888.766 766.812 889.034 767.484 889.034 768.3C889.034 769.116 888.766 769.792 888.23 770.328C887.702 770.856 887.01 771.12 886.154 771.12C885.306 771.12 884.61 770.856 884.066 770.328ZM884.822 766.92C884.47 767.272 884.294 767.732 884.294 768.3C884.294 768.868 884.466 769.328 884.81 769.68C885.162 770.04 885.61 770.22 886.154 770.22C886.698 770.22 887.142 770.044 887.486 769.692C887.838 769.332 888.014 768.868 888.014 768.3C888.014 767.748 887.838 767.288 887.486 766.92C887.142 766.56 886.698 766.38 886.154 766.38C885.61 766.38 885.166 766.56 884.822 766.92ZM891.379 771H890.419V765.6H891.295L893.371 768.276L895.339 765.6H896.191V771H895.231V767.064L893.359 769.572H893.323L891.379 767.064V771ZM897.666 770.352C897.666 770.184 897.73 770.036 897.858 769.908C897.994 769.78 898.158 769.716 898.35 769.716C898.518 769.716 898.666 769.78 898.794 769.908C898.922 770.036 898.986 770.184 898.986 770.352C898.986 770.544 898.926 770.708 898.806 770.844C898.686 770.972 898.534 771.036 898.35 771.036C898.158 771.036 897.994 770.972 897.858 770.844C897.73 770.708 897.666 770.544 897.666 770.352Z" fill="#959595"/>
<path d="M726.2 731H724.5V724.66H716.8V731H715.1V717H716.8V723.06H724.5V717H726.2V731ZM736.533 724.3L731.333 731H729.733V722H731.333V728.7L736.533 722H738.133V731H736.533V724.3ZM744.022 731.2C743.342 731.2 742.622 731.087 741.862 730.86C741.128 730.62 740.608 730.327 740.302 729.98L741.122 728.78C741.482 729.073 741.908 729.313 742.402 729.5C742.908 729.673 743.368 729.76 743.782 729.76C744.475 729.76 745.042 729.627 745.482 729.36C745.922 729.08 746.142 728.72 746.142 728.28C746.142 727.907 745.982 727.62 745.662 727.42C745.355 727.22 744.928 727.12 744.382 727.12H742.862V725.82H744.282C744.735 725.82 745.108 725.7 745.402 725.46C745.695 725.207 745.842 724.9 745.842 724.54C745.842 724.14 745.668 723.827 745.322 723.6C744.975 723.36 744.508 723.24 743.922 723.24C742.975 723.24 742.075 723.573 741.222 724.24L740.602 723C740.962 722.627 741.462 722.333 742.102 722.12C742.755 721.907 743.442 721.8 744.162 721.8C745.228 721.8 746.055 722.013 746.642 722.44C747.242 722.867 747.542 723.46 747.542 724.22C747.542 725.26 747.015 725.967 745.962 726.34V726.38C746.548 726.447 747.008 726.68 747.342 727.08C747.675 727.467 747.842 727.94 747.842 728.5C747.842 729.327 747.488 729.987 746.782 730.48C746.088 730.96 745.168 731.2 744.022 731.2ZM756.06 722H758.16L754.22 726.3L758.54 731H756.32L752.26 726.4L756.06 722ZM751.88 731H750.28V722H751.88V731ZM760.473 729.88C759.593 728.973 759.153 727.847 759.153 726.5C759.153 725.14 759.593 724.02 760.473 723.14C761.366 722.247 762.526 721.8 763.953 721.8C765.379 721.8 766.533 722.247 767.413 723.14C768.306 724.02 768.753 725.14 768.753 726.5C768.753 727.86 768.306 728.987 767.413 729.88C766.533 730.76 765.379 731.2 763.953 731.2C762.539 731.2 761.379 730.76 760.473 729.88ZM761.733 724.2C761.146 724.787 760.853 725.553 760.853 726.5C760.853 727.447 761.139 728.213 761.713 728.8C762.299 729.4 763.046 729.7 763.953 729.7C764.859 729.7 765.599 729.407 766.173 728.82C766.759 728.22 767.053 727.447 767.053 726.5C767.053 725.58 766.759 724.813 766.173 724.2C765.599 723.6 764.859 723.3 763.953 723.3C763.046 723.3 762.306 723.6 761.733 724.2ZM777.981 728.54L778.741 729.7C777.968 730.7 776.814 731.2 775.281 731.2C773.841 731.2 772.674 730.773 771.781 729.92C770.901 729.067 770.461 727.927 770.461 726.5C770.461 725.18 770.894 724.067 771.761 723.16C772.628 722.253 773.714 721.8 775.021 721.8C776.594 721.8 777.774 722.193 778.561 722.98L777.821 724.24C777.128 723.613 776.268 723.3 775.241 723.3C774.401 723.3 773.674 723.607 773.061 724.22C772.461 724.82 772.161 725.58 772.161 726.5C772.161 727.473 772.468 728.247 773.081 728.82C773.708 729.407 774.481 729.7 775.401 729.7C776.441 729.7 777.301 729.313 777.981 728.54ZM786.607 722H788.707L784.767 726.3L789.087 731H786.867L782.807 726.4L786.607 722ZM782.427 731H780.827V722H782.427V731ZM791.019 729.88C790.139 728.973 789.699 727.847 789.699 726.5C789.699 725.14 790.139 724.02 791.019 723.14C791.913 722.247 793.073 721.8 794.499 721.8C795.926 721.8 797.079 722.247 797.959 723.14C798.853 724.02 799.299 725.14 799.299 726.5C799.299 727.86 798.853 728.987 797.959 729.88C797.079 730.76 795.926 731.2 794.499 731.2C793.086 731.2 791.926 730.76 791.019 729.88ZM792.279 724.2C791.693 724.787 791.399 725.553 791.399 726.5C791.399 727.447 791.686 728.213 792.259 728.8C792.846 729.4 793.593 729.7 794.499 729.7C795.406 729.7 796.146 729.407 796.719 728.82C797.306 728.22 797.599 727.447 797.599 726.5C797.599 725.58 797.306 724.813 796.719 724.2C796.146 723.6 795.406 723.3 794.499 723.3C793.593 723.3 792.853 723.6 792.279 724.2ZM803.208 735H801.608V722H803.208V723.06C803.528 722.687 803.968 722.387 804.528 722.16C805.088 721.92 805.668 721.8 806.268 721.8C807.548 721.8 808.555 722.227 809.288 723.08C810.048 723.92 810.428 725.013 810.428 726.36C810.428 727.733 809.995 728.887 809.128 729.82C808.275 730.74 807.148 731.2 805.748 731.2C804.668 731.2 803.821 730.993 803.208 730.58V735ZM805.808 723.3C804.741 723.3 803.875 723.713 803.208 724.54V729C803.915 729.467 804.715 729.7 805.608 729.7C806.555 729.7 807.308 729.4 807.868 728.8C808.441 728.187 808.728 727.393 808.728 726.42C808.728 725.473 808.468 724.72 807.948 724.16C807.428 723.587 806.715 723.3 805.808 723.3ZM813.441 729.88C812.561 728.973 812.121 727.847 812.121 726.5C812.121 725.14 812.561 724.02 813.441 723.14C814.335 722.247 815.495 721.8 816.921 721.8C818.348 721.8 819.501 722.247 820.381 723.14C821.275 724.02 821.721 725.14 821.721 726.5C821.721 727.86 821.275 728.987 820.381 729.88C819.501 730.76 818.348 731.2 816.921 731.2C815.508 731.2 814.348 730.76 813.441 729.88ZM814.701 724.2C814.115 724.787 813.821 725.553 813.821 726.5C813.821 727.447 814.108 728.213 814.681 728.8C815.268 729.4 816.015 729.7 816.921 729.7C817.828 729.7 818.568 729.407 819.141 728.82C819.728 728.22 820.021 727.447 820.021 726.5C820.021 725.58 819.728 724.813 819.141 724.2C818.568 723.6 817.828 723.3 816.921 723.3C816.015 723.3 815.275 723.6 814.701 724.2ZM830.95 728.54L831.71 729.7C830.937 730.7 829.783 731.2 828.25 731.2C826.81 731.2 825.643 730.773 824.75 729.92C823.87 729.067 823.43 727.927 823.43 726.5C823.43 725.18 823.863 724.067 824.73 723.16C825.597 722.253 826.683 721.8 827.99 721.8C829.563 721.8 830.743 722.193 831.53 722.98L830.79 724.24C830.097 723.613 829.237 723.3 828.21 723.3C827.37 723.3 826.643 723.607 826.03 724.22C825.43 724.82 825.13 725.58 825.13 726.5C825.13 727.473 825.437 728.247 826.05 728.82C826.677 729.407 827.45 729.7 828.37 729.7C829.41 729.7 830.27 729.313 830.95 728.54ZM835.838 723.6H832.538V722H840.738V723.6H837.438V731H835.838V723.6ZM850.687 731H849.087V727.2H844.087V731H842.487V722H844.087V725.7H849.087V722H850.687V731ZM854.301 729.88C853.421 728.973 852.981 727.847 852.981 726.5C852.981 725.14 853.421 724.02 854.301 723.14C855.194 722.247 856.354 721.8 857.781 721.8C859.207 721.8 860.361 722.247 861.241 723.14C862.134 724.02 862.581 725.14 862.581 726.5C862.581 727.86 862.134 728.987 861.241 729.88C860.361 730.76 859.207 731.2 857.781 731.2C856.367 731.2 855.207 730.76 854.301 729.88ZM855.561 724.2C854.974 724.787 854.681 725.553 854.681 726.5C854.681 727.447 854.967 728.213 855.541 728.8C856.127 729.4 856.874 729.7 857.781 729.7C858.687 729.7 859.427 729.407 860.001 728.82C860.587 728.22 860.881 727.447 860.881 726.5C860.881 725.58 860.587 724.813 860.001 724.2C859.427 723.6 858.687 723.3 857.781 723.3C856.874 723.3 856.134 723.6 855.561 724.2ZM871.689 724.3L866.489 731H864.889V722H866.489V728.7L871.689 722H873.289V731H871.689V724.3ZM866.169 717.4H867.669C867.749 718.453 868.263 718.98 869.209 718.98C870.103 718.98 870.589 718.453 870.669 717.4H872.169C872.169 718.213 871.889 718.887 871.329 719.42C870.783 719.94 870.076 720.2 869.209 720.2C868.263 720.2 867.516 719.947 866.969 719.44C866.436 718.92 866.169 718.24 866.169 717.4ZM880.69 731V722C880.757 722 880.85 722 880.97 722C881.09 721.987 881.263 721.98 881.49 721.98C881.717 721.967 881.923 721.96 882.11 721.96C883.097 721.933 883.71 721.92 883.95 721.92C886.537 721.92 887.83 722.693 887.83 724.24C887.83 724.773 887.663 725.233 887.33 725.62C886.997 725.993 886.563 726.22 886.03 726.3V726.34C887.43 726.593 888.13 727.3 888.13 728.46C888.13 730.207 886.75 731.08 883.99 731.08C883.857 731.08 883.27 731.067 882.23 731.04C882.03 731.04 881.81 731.033 881.57 731.02C881.33 731.02 881.143 731.013 881.01 731C880.877 731 880.77 731 880.69 731ZM884.21 726.96H882.29V729.72C883.25 729.76 883.863 729.78 884.13 729.78C885.663 729.78 886.43 729.3 886.43 728.34C886.43 727.42 885.69 726.96 884.21 726.96ZM884.07 723.22C883.683 723.22 883.09 723.24 882.29 723.28V725.96H884.31C884.857 725.96 885.297 725.833 885.63 725.58C885.963 725.327 886.13 724.987 886.13 724.56C886.13 723.667 885.443 723.22 884.07 723.22ZM891.053 723.9L890.633 722.62C891.526 722.073 892.526 721.8 893.633 721.8C894.846 721.8 895.726 722.1 896.273 722.7C896.819 723.3 897.093 724.227 897.093 725.48V731H895.573V729.84C894.866 730.707 893.906 731.14 892.693 731.14C891.866 731.14 891.199 730.893 890.693 730.4C890.186 729.893 889.933 729.213 889.933 728.36C889.933 727.48 890.246 726.787 890.873 726.28C891.499 725.76 892.319 725.5 893.333 725.5C894.279 725.5 895.026 725.693 895.573 726.08C895.573 725.067 895.433 724.34 895.153 723.9C894.873 723.46 894.333 723.24 893.533 723.24C892.719 723.24 891.893 723.46 891.053 723.9ZM893.253 729.7C894.146 729.7 894.919 729.313 895.573 728.54V727.4C895.013 727 894.339 726.8 893.553 726.8C893.006 726.8 892.546 726.933 892.173 727.2C891.813 727.453 891.633 727.813 891.633 728.28C891.633 728.72 891.773 729.067 892.053 729.32C892.346 729.573 892.746 729.7 893.253 729.7ZM907.532 731H905.932V723.6H902.772L902.672 725.12C902.565 726.36 902.405 727.393 902.192 728.22C901.992 729.033 901.725 729.647 901.392 730.06C901.072 730.46 900.732 730.74 900.372 730.9C900.012 731.047 899.572 731.12 899.052 731.12L898.932 729.56C899.079 729.573 899.232 729.553 899.392 729.5C899.552 729.433 899.725 729.3 899.912 729.1C900.112 728.9 900.285 728.633 900.432 728.3C900.592 727.967 900.732 727.5 900.852 726.9C900.985 726.287 901.072 725.587 901.112 724.8L901.272 722H907.532V731Z" fill="black"/>
<path d="M542.709 482.295C542.514 482.099 542.198 482.098 542.002 482.293C541.806 482.488 541.805 482.804 542 483L542.709 482.295ZM542 483L743 685L743.709 684.295L542.709 482.295L542 483Z" fill="#525252"/>
<path d="M671.253 728.46L668.733 724.56L678.813 716.76H682.173V759H677.373V723.66L671.253 728.46Z" fill="#999999"/>
</g>
</svg>
