<svg width="769" height="873" viewBox="0 0 769 873" fill="none" xmlns="http://www.w3.org/2000/svg">
<mask id="mask0_1004_3" style="mask-type:alpha" maskUnits="userSpaceOnUse" x="0" y="0" width="769" height="873">
<rect width="769" height="873" fill="#D9D9D9"/>
</mask>
<g mask="url(#mask0_1004_3)">
<path d="M453.144 810.059L-342.487 349.854L-27.636 168.135L767.994 628.34L453.144 810.059Z" fill="#4DA4FF" stroke="#26144D" stroke-width="1.5" stroke-linecap="round" stroke-linejoin="round"/>
<path d="M452.635 871.541L-342.995 411.309V349.373L452.635 809.578V871.541Z" fill="#999999" stroke="#26144D" stroke-width="1.5" stroke-linecap="round" stroke-linejoin="round"/>
<path d="M767.78 690.276L452.903 871.995V810.059L767.78 628.34V690.276Z" fill="#D9D9D9" stroke="#26144D" stroke-width="1.5" stroke-linecap="round" stroke-linejoin="round"/>
<g style="mix-blend-mode:multiply" opacity="0.46">
<path d="M731 649L483.5 786.5L-132 424.064L396.5 454L731 649Z" fill="#B2B4B3"/>
</g>
<path d="M73.8115 432.676V541.704L282.362 421.279V165.161L176.98 226.014V373.05L73.8115 432.676Z" fill="#7D7D7B" stroke="#26144D" stroke-width="1.5" stroke-linecap="round" stroke-linejoin="round"/>
<path d="M-240.733 250.196V360.293L-217.001 374.011V329.786L-203.642 337.499L-152.791 366.885V411.111L-131.405 423.468V380.417L-118.073 388.13L-67.2217 417.516V460.567L73.7049 541.999V431.902L-240.733 250.196Z" fill="#D8D8D8" stroke="#26144D" stroke-width="1.5" stroke-linecap="round" stroke-linejoin="round"/>
<path d="M176.9 225.615L-137.539 43.9086L-31.9969 -16.998L282.441 164.708L176.9 225.615Z" fill="#D8D8D8" stroke="#26144D" stroke-width="1.5" stroke-linecap="round" stroke-linejoin="round"/>
<path d="M73.4383 432.142L-241 250.436L-135.458 189.529L178.98 371.235L73.4383 432.142Z" fill="#D8D8D8" stroke="#26144D" stroke-width="1.5" stroke-linecap="round" stroke-linejoin="round"/>
<path d="M146.048 355.381L62.319 390.772L-191.802 243.203L-150.684 215.766L-63.3817 233.194L146.048 355.381Z" fill="#565656" stroke="#26144D" stroke-width="1.5" stroke-linecap="round" stroke-linejoin="round"/>
<path d="M-137.378 153.738L177.06 335.47V225.374L-137.378 43.668V153.738Z" fill="#7D7D7B" stroke="#26144D" stroke-width="1.5" stroke-linecap="round" stroke-linejoin="round"/>
<path d="M162.714 340.915C162.154 338.7 146.048 235.81 146.048 235.81L-114.02 84.5039L-120.686 135.108L124.369 339.234L162.714 340.915Z" fill="#565656" stroke="#26144D" stroke-width="1.5" stroke-linecap="round" stroke-linejoin="round"/>
<path d="M169.674 485.015L232.764 333.683" stroke="#26144D" stroke-width="1.5" stroke-linecap="round" stroke-linejoin="round"/>
<path d="M234.204 149.761L57.8657 47.4316" stroke="white" stroke-width="1.5" stroke-linecap="round" stroke-linejoin="round"/>
<path d="M-87.0605 221.237C-87.0605 225.294 -85.9406 228.417 -84.0474 230.392L-80.3142 232.581L-26.5568 263.941C-22.9836 266.05 -19.0371 267.037 -15.1706 267.037C-7.41101 267.037 0.161942 263.034 4.37508 255.854C10.6681 245.072 7.06828 231.219 -3.70454 224.894L-57.3286 193.64L-61.7551 191.051C-64.3416 190.517 -67.4615 191.158 -70.8213 193.079C-79.7809 198.257 -87.0605 210.882 -87.0605 221.237Z" fill="white" stroke="#26144D" stroke-width="1.5" stroke-linecap="round" stroke-linejoin="round"/>
<path d="M-62.6353 261.192C-62.6353 263.861 -62.4219 266.343 -61.9686 268.638C-60.3687 277.499 -55.7556 283.398 -49.3026 285.667L-33.73 294.501C-35.7032 293.006 -37.4098 291.085 -38.7697 288.736C-41.1696 284.572 -42.5562 279.074 -42.5562 272.428C-42.5562 271.521 -42.5562 270.613 -42.4762 269.679C-42.1829 264.315 -41.0896 258.763 -39.303 253.238C-37.4365 247.553 -34.8766 241.922 -31.7834 236.61C-29.4368 232.634 -26.797 228.844 -23.9171 225.347C-20.2906 220.917 -16.2375 217.02 -11.9443 213.844C-10.2644 212.589 -8.55783 211.468 -6.82458 210.454C-4.90467 209.36 -3.03809 208.426 -1.19818 207.732C6.1348 204.822 12.7478 204.929 17.8676 207.652V207.572L0.535072 198.177H0.5084C-0.824867 197.082 -2.31812 196.255 -3.91805 195.641C-7.49121 194.227 -11.6244 193.96 -16.1841 194.947C-19.544 195.668 -23.1438 197.082 -26.8769 199.244C-29.1968 200.605 -31.4901 202.153 -33.6766 203.942C-36.8498 206.451 -39.8897 209.413 -42.6895 212.669C-47.3026 217.981 -51.3558 224.093 -54.5823 230.525C-56.7689 234.849 -58.5555 239.333 -59.8887 243.817C-61.6486 249.715 -62.6086 255.614 -62.6086 261.219L-62.6353 261.192Z" fill="#D8D8D8" stroke="#26144D" stroke-width="1.5" stroke-linecap="round" stroke-linejoin="round"/>
<path d="M-42.583 272.402C-42.583 282.811 -39.2498 290.391 -33.7568 294.475C-27.1971 299.359 -17.5709 299.279 -6.82473 293.06C12.9077 281.637 28.9336 253.879 28.9336 231.059C28.9336 219.316 24.6938 211.175 17.8674 207.599C11.4677 204.209 2.77482 204.876 -6.82473 210.428C-26.5571 221.824 -42.583 249.582 -42.583 272.402Z" fill="#7D7D7B" stroke="#26144D" stroke-width="1.5" stroke-linecap="round" stroke-linejoin="round"/>
<path d="M-27.7305 288.576C-27.7305 291.752 -27.4638 294.715 -26.9572 297.437C-25.0639 308.006 -19.5442 315.052 -11.8379 317.775L6.74789 328.317C4.40133 326.529 2.37476 324.261 0.748173 321.431C-2.13169 316.467 -3.75829 309.901 -3.75829 301.974C-3.75829 300.907 -3.75828 299.786 -3.65162 298.691C-3.30497 292.286 -1.99837 285.667 0.134861 279.048C2.34809 272.268 5.41461 265.542 9.09443 259.217C11.8943 254.466 15.0408 249.929 18.4806 245.792C22.8271 240.507 27.6535 235.863 32.7733 232.073C34.7732 230.578 36.8264 229.244 38.8797 228.016C41.1729 226.708 43.4128 225.614 45.5994 224.76C54.3456 221.29 62.2386 221.424 68.3449 224.653V224.573L47.6526 213.337H47.5993C45.9993 212.056 44.2394 211.041 42.3195 210.321C38.0797 208.639 33.12 208.319 27.6802 209.493C23.6537 210.374 19.3606 212.056 14.9342 214.618C12.161 216.219 9.44108 218.088 6.80121 220.223C3.01472 223.239 -0.611773 226.735 -3.97161 230.632C-9.46468 236.957 -14.3178 244.244 -18.1576 251.931C-20.7708 257.108 -22.904 262.446 -24.4773 267.784C-26.5839 274.804 -27.7305 281.877 -27.7305 288.549V288.576Z" fill="#D8D8D8" stroke="#26144D" stroke-width="1.5" stroke-linecap="round" stroke-linejoin="round"/>
<path d="M-3.78516 301.974C-3.78516 314.385 0.188 323.433 6.74769 328.317C14.5606 334.136 26.0534 334.029 38.8795 326.636C62.425 312.997 81.5441 279.902 81.5441 252.651C81.5441 238.639 76.4777 228.924 68.3447 224.653C60.7184 220.623 50.3456 221.397 38.9061 228.016C15.3606 241.628 -3.75849 274.724 -3.75849 301.947L-3.78516 301.974Z" fill="#7D7D7B" stroke="#26144D" stroke-width="1.5" stroke-linecap="round" stroke-linejoin="round"/>
<path d="M27.6802 209.493L32.7466 232.073C34.7465 230.578 36.7997 229.244 38.853 228.016C41.1462 226.708 43.3861 225.614 45.5727 224.76L42.3195 210.321C38.0797 208.639 33.1199 208.319 27.6802 209.493Z" fill="#D8D8D8" stroke="#26144D" stroke-width="1.5" stroke-linecap="round" stroke-linejoin="round"/>
<path d="M-3.97168 230.632L9.09437 259.217C11.8942 254.466 15.0407 249.929 18.4806 245.792L6.80114 220.223C3.01466 223.239 -0.61184 226.735 -3.97168 230.632Z" fill="#D8D8D8" stroke="#26144D" stroke-width="1.5" stroke-linecap="round" stroke-linejoin="round"/>
<path d="M-24.4775 267.785L-3.67853 298.692C-3.33187 292.286 -2.02528 285.667 0.107956 279.048L-18.1578 251.931C-20.771 257.109 -22.9043 262.447 -24.4775 267.785Z" fill="#D8D8D8" stroke="#26144D" stroke-width="1.5" stroke-linecap="round" stroke-linejoin="round"/>
<path d="M-26.957 297.438C-25.0638 308.007 -19.544 315.053 -11.8377 317.775L6.74804 328.318C4.40149 326.53 2.37492 324.261 0.748329 321.432L-26.9304 297.438H-26.957Z" fill="#D8D8D8" stroke="#26144D" stroke-width="1.5" stroke-linecap="round" stroke-linejoin="round"/>
<path d="M8.85449 321.992C8.85449 325.996 9.17448 329.733 9.84112 333.176C12.241 346.494 19.174 355.382 28.8802 358.798L52.2924 372.09C49.3326 369.848 46.7727 366.965 44.7195 363.415C41.093 357.143 39.0397 348.896 39.0397 338.887C39.0397 337.526 39.0664 336.138 39.1731 334.75C39.5997 326.69 41.253 318.336 43.9462 310.009C46.746 301.468 50.5858 292.98 55.2523 285C58.7721 279.021 62.7453 273.31 67.0917 268.078C72.5581 261.433 78.6378 255.561 85.0909 250.783C87.5974 248.888 90.184 247.207 92.7972 245.686C95.677 244.031 98.5036 242.643 101.25 241.575C112.29 237.198 122.209 237.358 129.915 241.442V241.335L103.837 227.189H103.783C101.783 225.561 99.5435 224.28 97.1436 223.373C91.7839 221.237 85.5442 220.837 78.6912 222.332C73.6247 223.426 68.2117 225.561 62.6119 228.791C59.1188 230.819 55.6789 233.168 52.3724 235.864C47.5993 239.654 43.0395 244.084 38.7997 248.968C31.8667 256.949 25.7604 266.13 20.9339 275.819C17.6541 282.331 14.9609 289.057 12.961 295.809C10.3211 304.671 8.85449 313.558 8.85449 321.992Z" fill="#D8D8D8" stroke="#26144D" stroke-width="1.5" stroke-linecap="round" stroke-linejoin="round"/>
<path d="M39.0132 338.887C39.0132 354.554 44.0263 365.924 52.2659 372.089C62.1054 379.402 76.6114 379.296 92.7706 369.981C122.449 352.792 146.528 311.076 146.528 276.752C146.528 259.084 140.128 246.859 129.889 241.468C120.263 236.37 107.197 237.385 92.7706 245.712C63.092 262.847 39.0132 304.59 39.0132 338.913V338.887Z" fill="#7D7D7B" stroke="#26144D" stroke-width="1.5" stroke-linecap="round" stroke-linejoin="round"/>
<path d="M78.6914 222.332L85.0911 250.783C87.5977 248.888 90.1842 247.207 92.7974 245.686C95.6773 244.031 98.5038 242.643 101.25 241.575L97.1439 223.373C91.7841 221.237 85.5444 220.837 78.6914 222.332Z" fill="#D8D8D8" stroke="#26144D" stroke-width="1.5" stroke-linecap="round" stroke-linejoin="round"/>
<path d="M38.7998 248.968L55.2523 285C58.7722 279.021 62.7453 273.309 67.0918 268.078L52.3725 235.863C47.5994 239.653 43.0396 244.084 38.7998 248.968Z" fill="#D8D8D8" stroke="#26144D" stroke-width="1.5" stroke-linecap="round" stroke-linejoin="round"/>
<path d="M12.9609 295.809L39.173 334.75C39.5997 326.69 41.2529 318.336 43.9461 310.008L20.9339 275.818C17.6541 282.331 14.9608 289.057 12.9609 295.809Z" fill="#D8D8D8" stroke="#26144D" stroke-width="1.5" stroke-linecap="round" stroke-linejoin="round"/>
<path d="M9.84131 333.176C12.2412 346.494 19.1742 355.382 28.8804 358.798L52.2926 372.09C49.3328 369.848 46.7729 366.965 44.7197 363.416L9.84131 333.176Z" fill="#D8D8D8" stroke="#26144D" stroke-width="1.5" stroke-linecap="round" stroke-linejoin="round"/>
<path d="M79.3579 317.615C79.3579 321.672 80.4778 324.795 82.3711 326.77L86.1043 328.959L139.862 360.319C143.435 362.428 147.381 363.415 151.248 363.415C159.007 363.415 166.58 359.412 170.794 352.232C177.087 341.449 173.487 327.597 162.714 321.272L109.09 290.018L104.663 287.429C102.077 286.895 98.957 287.536 95.5971 289.457C86.6376 294.635 79.3579 307.26 79.3579 317.615Z" fill="#D8D8D8" stroke="#26144D" stroke-width="1.5" stroke-linecap="round" stroke-linejoin="round"/>
<path d="M246.63 300.4L232.764 333.683L169.674 485.015L151.168 529.454L122.263 512.399L122.716 381.325C123.063 346.361 147.968 304.057 178.393 286.842C187.113 281.931 195.326 279.582 202.606 279.582C209.885 279.582 215.672 281.717 220.551 285.747L246.63 300.4Z" fill="#D8D8D8" stroke="#26144D" stroke-width="1.5" stroke-linecap="round" stroke-linejoin="round"/>
<path d="M260.603 466.252L151.168 529.454L151.621 398.379C151.941 363.415 176.873 321.112 207.299 303.897C237.724 286.681 262.123 301.094 261.803 336.058L260.603 466.252Z" fill="#7D7D7B" stroke="#26144D" stroke-width="1.5" stroke-linecap="round" stroke-linejoin="round"/>
<path d="M259.696 341.849L249.75 359.945L218.285 417.329L207.192 437.507L187.166 426.163C178.393 423.067 172.793 413.779 172.793 399.74C172.793 375.105 190.073 345.159 211.378 332.855C223.244 325.996 233.857 326.049 240.924 331.681H240.95L259.696 341.849Z" fill="#D8D8D8" stroke="#26144D" stroke-width="1.5" stroke-linecap="round" stroke-linejoin="round"/>
<path d="M260.307 405.324C275.372 379.205 275.375 350.976 260.313 342.272C245.25 333.567 220.827 347.684 205.761 373.803C190.696 399.921 190.693 428.151 205.755 436.855C220.817 445.559 245.241 431.442 260.307 405.324Z" fill="#7D7D7B" stroke="#26144D" stroke-width="1.5" stroke-linecap="round" stroke-linejoin="round"/>
<path d="M218.471 401.875C218.471 405.932 219.591 409.055 221.484 411.03L225.218 413.218L278.975 444.579C282.548 446.688 286.495 447.675 290.361 447.675C298.121 447.675 305.694 443.672 309.907 436.492C316.2 425.709 312.6 411.857 301.827 405.532L248.203 374.277L243.777 371.689C241.19 371.155 238.07 371.795 234.71 373.717C225.751 378.895 218.471 391.519 218.471 401.875Z" fill="white" stroke="#26144D" stroke-width="1.5" stroke-linecap="round" stroke-linejoin="round"/>
<path d="M262.293 482.644C243.645 471.881 243.644 436.986 262.289 404.703C280.935 372.42 311.167 354.974 329.815 365.737C348.463 376.499 348.465 411.394 329.819 443.677C311.174 475.96 280.941 493.406 262.293 482.644Z" fill="#F21131" stroke="#26144D" stroke-width="1.5" stroke-linecap="round" stroke-linejoin="round"/>
<path d="M257.318 522.297C257.318 556.78 269.993 580.545 290.263 590.595L464.054 693.083L611.157 441.301L432.847 335.472L432.767 335.606C414.155 325.395 388.724 327.159 360.673 343.358C303.58 376.318 257.318 456.431 257.318 522.297Z" fill="#E40133" stroke="#26144D" stroke-width="1.5" stroke-linecap="round" stroke-linejoin="round"/>
<path d="M462.587 692.779C422.235 669.49 422.237 593.968 462.592 524.096C502.948 454.224 568.375 416.461 608.728 439.75C649.081 463.039 649.078 538.561 608.723 608.433C568.367 678.305 502.94 716.068 462.587 692.779Z" fill="#BF0037" stroke="#26144D" stroke-width="1.5" stroke-linecap="round" stroke-linejoin="round"/>
<path d="M620.677 503.772L606.771 537.106L543.502 688.672L524.943 716.847L495.956 699.766L496.411 584.821C496.758 549.803 521.734 507.434 552.246 490.193C560.99 485.274 569.227 482.922 576.527 482.922C583.827 482.922 589.63 485.06 594.524 489.097L620.677 503.772Z" fill="#E40133" stroke="#26144D" stroke-width="1.5" stroke-linecap="round" stroke-linejoin="round"/>
<path d="M543.475 688.645L606.745 537.079" stroke="#26144D" stroke-width="1.5" stroke-linecap="round" stroke-linejoin="round"/>
<path d="M634.663 653.547L524.917 716.847L525.371 601.903C525.692 566.885 550.695 524.516 581.207 507.274C611.719 490.032 636.187 504.467 635.866 539.485L634.663 653.547Z" fill="#BF0037" stroke="#26144D" stroke-width="1.5" stroke-linecap="round" stroke-linejoin="round"/>
<path d="M633.753 545.259L623.779 563.383L592.224 620.855L581.1 641.064L561.017 629.703C552.22 626.602 546.604 617.3 546.604 603.239C546.604 578.566 563.932 548.574 585.298 536.251C597.198 529.381 607.841 529.434 614.928 535.075H614.954L633.753 545.259Z" fill="#E40133" stroke="#26144D" stroke-width="1.5" stroke-linecap="round" stroke-linejoin="round"/>
<path d="M579.658 640.441C564.553 631.723 564.556 603.45 579.664 577.291C594.772 551.132 619.265 536.994 634.37 545.711C649.476 554.429 649.473 582.702 634.364 608.861C619.256 635.02 594.763 649.159 579.658 640.441Z" fill="#BF0037" stroke="#26144D" stroke-width="1.5" stroke-linecap="round" stroke-linejoin="round"/>
<path d="M461.46 368.325V442.932C471.194 433.843 481.489 426.038 492.186 419.863C505.69 412.058 518.606 407.62 530.452 406.23V373.725L461.46 368.325Z" fill="#BF0037" stroke="#26144D" stroke-width="1.5" stroke-linecap="round" stroke-linejoin="round"/>
<path d="M378.241 361.829V394.495L461.433 442.958L461.46 442.932V368.325L378.241 361.829Z" fill="#F21131" stroke="#26144D" stroke-width="1.5" stroke-linecap="round" stroke-linejoin="round"/>
<path d="M530.452 373.725C518.606 375.115 505.69 379.552 492.186 387.358C481.489 393.533 471.167 401.365 461.46 410.453L378.241 361.99C378.241 361.99 392.815 347.127 415.011 336.916C437.66 326.517 452.154 327.266 452.154 327.266L530.425 373.698L530.452 373.725Z" fill="#F21131" stroke="#26144D" stroke-width="1.5" stroke-linecap="round" stroke-linejoin="round"/>
<path d="M251.461 632.724L326.979 612.488V541.009L251.461 632.724Z" fill="#7D7D7B" stroke="#26144D" stroke-width="1.5" stroke-linecap="round" stroke-linejoin="round"/>
<path d="M333.557 682.844L409.074 662.609V591.156L333.557 682.844Z" fill="#7D7D7B" stroke="#26144D" stroke-width="1.5" stroke-linecap="round" stroke-linejoin="round"/>
<path d="M326.979 541.009L294.916 522.431L222.955 614.146L251.274 632.216L326.979 541.009Z" fill="#D8D8D8" stroke="#26144D" stroke-width="1.5" stroke-linecap="round" stroke-linejoin="round"/>
<path d="M409.074 591.156L377.012 572.578L305.051 664.266L333.37 682.337L409.074 591.156Z" fill="#D8D8D8" stroke="#26144D" stroke-width="1.5" stroke-linecap="round" stroke-linejoin="round"/>
<path d="M305.364 433.293L416.85 497.635L402.637 522.243L291.151 457.901L305.364 433.293Z" fill="#BF0037" stroke="#26144D" stroke-width="1.5" stroke-linecap="round" stroke-linejoin="round"/>
<path d="M594.727 614.351C587.935 610.431 587.931 597.729 594.717 585.979C601.503 574.229 612.51 567.882 619.302 571.801C626.093 575.721 626.098 588.423 619.312 600.173C612.525 611.923 601.518 618.271 594.727 614.351Z" fill="#7D7D7B" stroke="#26144D" stroke-width="1.5" stroke-linecap="round" stroke-linejoin="round"/>
<path d="M508.07 369.983L453.464 337.691" stroke="white" stroke-width="1.5" stroke-linecap="round" stroke-linejoin="round"/>
</g>
</svg>
