<svg width="1447" height="2280" viewBox="0 0 1447 2280" fill="none" xmlns="http://www.w3.org/2000/svg">
<mask id="mask0_1016_8" style="mask-type:alpha" maskUnits="userSpaceOnUse" x="0" y="0" width="1447" height="2279">
<rect width="1447" height="2279" fill="#D9D9D9"/>
</mask>
<g mask="url(#mask0_1016_8)">
<path d="M647.941 1021.32C633.274 1021.32 621.379 1009.41 621.379 994.731V825.13C621.379 815.511 626.576 806.632 634.96 801.939C643.344 797.245 653.6 797.43 661.799 802.447L717.648 836.599L801.307 788.227L661.383 705.381C653.207 700.525 648.218 691.692 648.333 682.166C648.449 672.64 653.646 663.923 661.938 659.275L796.572 584.013V397.255C796.572 387.798 801.584 379.081 809.714 374.295C817.867 369.532 827.915 369.439 836.137 374.064L1051.77 495.478C1060.13 500.195 1065.31 509.051 1065.31 518.646V630.28L1245.14 731.439V443.754L1070.2 347.265C1061.73 342.595 1056.46 333.669 1056.46 323.981V135.143C1056.46 125.686 1061.47 116.946 1069.63 112.183C1077.78 107.42 1087.87 107.35 1096.07 111.998L1189.29 164.739V-28.6771C1189.29 -43.3597 1201.19 -55.2676 1215.86 -55.2676C1230.52 -55.2676 1242.42 -43.3597 1242.42 -28.6771V210.313C1242.42 219.77 1237.41 228.51 1229.25 233.273C1221.1 238.036 1211.01 238.106 1202.78 233.458L1109.59 180.717V308.305L1284.52 404.793C1293 409.464 1298.27 418.389 1298.27 428.077V776.92C1298.27 786.354 1293.26 795.094 1285.13 799.881C1276.97 804.644 1266.92 804.736 1258.7 800.112L1025.74 669.056C1017.38 664.339 1012.18 655.483 1012.18 645.864V534.208L849.672 442.69V599.597C849.672 609.239 844.475 618.118 836.068 622.812L728.181 683.137L867.457 765.591C875.587 770.4 880.553 779.163 880.507 788.62C880.461 798.077 875.403 806.794 867.226 811.511L730.537 890.519C722.106 895.375 711.712 895.259 703.397 890.173L674.503 872.484V994.684C674.503 1009.37 662.608 1021.27 647.941 1021.27V1021.32Z" fill="#FFE448" stroke="black" stroke-width="1.5" stroke-miterlimit="10"/>
<path d="M762.803 871.652C765.089 869.363 766.452 865.663 766.452 860.831C766.452 848.715 757.975 833.986 747.489 827.928C743.101 825.407 739.082 824.783 735.871 825.801" stroke="black" stroke-width="1.5" stroke-linecap="round" stroke-linejoin="round"/>
<path d="M780.15 862.01C782.437 859.72 783.8 856.021 783.8 851.188C783.8 839.072 775.323 824.344 764.837 818.286C760.448 815.765 756.429 815.141 753.219 816.158" stroke="black" stroke-width="1.5" stroke-linecap="round" stroke-linejoin="round"/>
<path d="M775.806 656.755C778.093 654.466 779.456 650.766 779.456 645.934C779.456 633.818 770.979 619.089 760.493 613.031C756.104 610.51 752.086 609.886 748.875 610.904" stroke="black" stroke-width="1.5" stroke-linecap="round" stroke-linejoin="round"/>
<path d="M1064.5 690.883C1062.21 688.594 1060.85 684.894 1060.85 680.062C1060.85 667.946 1069.33 653.217 1079.81 647.159C1084.2 644.639 1088.22 644.015 1091.43 645.032" stroke="black" stroke-width="1.5" stroke-linecap="round" stroke-linejoin="round"/>
<path d="M1112.4 370.619C1110.12 368.33 1108.75 364.63 1108.75 359.798C1108.75 347.682 1117.23 332.953 1127.72 326.895C1132.11 324.375 1136.12 323.75 1139.33 324.768" stroke="black" stroke-width="1.5" stroke-linecap="round" stroke-linejoin="round"/>
<path d="M1095.45 708.548C1093.16 706.259 1091.8 702.56 1091.8 697.727C1091.8 685.611 1100.28 670.882 1110.76 664.824C1115.15 662.304 1119.17 661.68 1122.38 662.697" stroke="black" stroke-width="1.5" stroke-linecap="round" stroke-linejoin="round"/>
<path d="M832.742 387.29C860.621 403.637 962.272 458.066 975.206 465.674" stroke="white" stroke-width="1.5" stroke-linecap="round" stroke-linejoin="round"/>
<path d="M726.609 694.236C753.702 710.629 781.165 726.352 808.535 742.237" stroke="white" stroke-width="1.5" stroke-linecap="round" stroke-linejoin="round"/>
<path d="M286.931 1126.27C282.265 1126.27 277.553 1125.04 273.257 1122.45L135.598 1039.59C127.606 1034.78 122.732 1026.13 122.732 1016.82V812.546C122.732 803.067 127.768 794.327 135.944 789.564L572.921 535.216L503.907 498.801L425.029 542.845C416.738 547.47 406.621 547.331 398.468 542.452L171.283 406.55C163.199 401.718 158.279 392.978 158.348 383.545C158.418 374.135 163.453 365.442 171.583 360.725L432.421 209.24L240.829 97.3831C232.675 92.6203 227.64 83.8808 227.64 74.4245V-12.3236C227.64 -27.0051 239.535 -38.9121 254.202 -38.9121C268.869 -38.9121 280.764 -27.0051 280.764 -12.3236V59.1187L498.617 186.328C506.794 191.09 511.806 199.853 511.806 209.332C511.806 218.812 506.748 227.551 498.571 232.291L237.272 384.054L412.557 488.882L490.603 445.3C498.456 440.907 507.972 440.815 515.917 445L640.088 510.523C648.634 515.032 654.062 523.817 654.247 533.482C654.455 543.146 649.396 552.163 641.035 557.018L175.856 827.805V1001.76L300.628 1076.88C313.192 1084.44 317.258 1100.79 309.705 1113.37C304.716 1121.67 295.939 1126.27 286.908 1126.27H286.931Z" fill="#007117" stroke="black" stroke-width="1.5" stroke-linecap="round" stroke-linejoin="round"/>
<path d="M204.982 810.373C207.269 808.084 208.632 804.384 208.632 799.552C208.632 787.437 200.155 772.709 189.669 766.652C185.28 764.132 181.261 763.507 178.051 764.525" stroke="black" stroke-width="1.5" stroke-linecap="round" stroke-linejoin="round"/>
<path d="M578.465 593.572C580.751 591.283 582.114 587.584 582.114 582.751C582.114 570.636 573.637 555.908 563.151 549.851C558.763 547.331 554.744 546.707 551.533 547.724" stroke="black" stroke-width="1.5" stroke-linecap="round" stroke-linejoin="round"/>
<path d="M266.582 367.13C268.868 364.841 270.231 361.142 270.231 356.309C270.231 344.194 261.754 329.467 251.268 323.409C246.88 320.889 242.861 320.265 239.65 321.282" stroke="black" stroke-width="1.5" stroke-linecap="round" stroke-linejoin="round"/>
<path d="M444.662 263.643C446.949 261.354 448.311 257.654 448.311 252.822C448.311 240.707 439.835 225.979 429.348 219.922C424.96 217.402 420.941 216.777 417.73 217.795" stroke="black" stroke-width="1.5" stroke-linecap="round" stroke-linejoin="round"/>
<path d="M544.882 563.77C504.415 588.254 251.338 734.237 210.271 758.883" stroke="white" stroke-width="1.5" stroke-linecap="round" stroke-linejoin="round"/>
<path d="M643.807 1486.62L104.253 1176.09L380.11 1016.93L919.663 1327.46L643.807 1486.62Z" fill="#4DA4FF" stroke="#26144D" stroke-width="1.5" stroke-linecap="round" stroke-linejoin="round"/>
<path d="M643.36 1540.48L103.807 1229.92V1175.67L643.36 1486.2V1540.48Z" fill="#999999" stroke="#26144D" stroke-width="1.5" stroke-linecap="round" stroke-linejoin="round"/>
<path d="M919.475 1381.71L643.618 1540.87V1486.62L919.475 1327.46V1381.71Z" fill="#D9D9D9" stroke="#26144D" stroke-width="1.5" stroke-linecap="round" stroke-linejoin="round"/>
<g style="mix-blend-mode:multiply" opacity="0.46">
<path d="M586.966 1412.71L676.818 1467.35L890.329 1346.35L780.961 1274.8L586.966 1412.71Z" fill="#B2B4B3"/>
</g>
<path d="M606.083 1424.2L212.658 1196.41V943.292L606.083 1171.06V1424.2Z" fill="#004DA9" stroke="#26144D" stroke-width="1.5" stroke-linecap="round" stroke-linejoin="round"/>
<path d="M606.131 1170.47L212.706 942.684L410.145 828.778L803.546 1056.57L606.131 1170.47Z" fill="#0069EA" stroke="#26144D" stroke-width="1.5" stroke-linecap="round" stroke-linejoin="round"/>
<path d="M803.732 1310.27L606.293 1424.18V1171.06L803.732 1057.13V1310.27Z" fill="#0069EA" stroke="#26144D" stroke-width="1.5" stroke-linecap="round" stroke-linejoin="round"/>
<path d="M533.476 1224.96V1352.79L414.245 1284V1156.17L423.523 1161.53L533.476 1224.96Z" stroke="#26144D" stroke-width="1.5" stroke-linecap="round" stroke-linejoin="round"/>
<path d="M533.476 1224.96V1342.54L423.522 1279.11V1161.53L533.476 1224.96Z" fill="#003C93" stroke="#26144D" stroke-width="1.5" stroke-linecap="round" stroke-linejoin="round"/>
<path d="M775.336 1202.99L763.153 1232.19L707.719 1364.94L691.459 1403.93L666.062 1388.97L666.46 1273.98C666.764 1243.31 688.647 1206.2 715.38 1191.1C723.042 1186.79 730.258 1184.73 736.654 1184.73C743.05 1184.73 748.134 1186.6 752.422 1190.14L775.336 1202.99Z" fill="#004DA9" stroke="#26144D" stroke-width="1.5" stroke-linecap="round" stroke-linejoin="round"/>
<path d="M763.152 1232.19L762.214 1333.55L707.718 1364.94L763.152 1232.19Z" stroke="#26144D" stroke-width="1.5" stroke-linecap="round" stroke-linejoin="round"/>
<path d="M787.591 1348.48L691.437 1403.93L691.835 1288.94C692.116 1258.27 714.023 1221.16 740.756 1206.06C767.489 1190.96 788.926 1203.6 788.645 1234.27L787.591 1348.48Z" fill="#0069EA" stroke="#26144D" stroke-width="1.5" stroke-linecap="round" stroke-linejoin="round"/>
<path d="M786.816 1239.36L778.077 1255.23L750.43 1305.57L740.684 1323.27L723.088 1313.32C715.38 1310.6 710.46 1302.45 710.46 1290.14C710.46 1268.53 725.642 1242.26 744.362 1231.47C754.788 1225.45 764.113 1225.5 770.322 1230.44H770.345L786.816 1239.36Z" fill="#004DA9" stroke="#26144D" stroke-width="1.5" stroke-linecap="round" stroke-linejoin="round"/>
<path d="M787.329 1295.03C800.566 1272.11 800.569 1247.35 787.334 1239.71C774.1 1232.08 752.64 1244.46 739.403 1267.37C726.166 1290.29 726.164 1315.05 739.398 1322.69C752.632 1330.32 774.092 1317.94 787.329 1295.03Z" fill="#0069EA" stroke="#26144D" stroke-width="1.5" stroke-linecap="round" stroke-linejoin="round"/>
<path d="M716.038 1108.1L342.036 883.191L371.463 844.02L718.92 1045.21L716.038 1108.1Z" stroke="#26144D" stroke-width="1.5" stroke-linecap="round" stroke-linejoin="round"/>
<path d="M716.037 1108.1L718.918 1045.21L777.867 1011.21L803.732 1057.13L716.037 1108.1Z" fill="#037BF4" stroke="#26144D" stroke-width="1.5" stroke-linecap="round" stroke-linejoin="round"/>
<path d="M718.918 1045.21L371.462 844.02L430.41 810L777.867 1011.21L718.918 1045.21Z" fill="#037BF4" stroke="#26144D" stroke-width="1.5" stroke-linecap="round" stroke-linejoin="round"/>
<path d="M260.127 970.03L377.672 900.75C377.672 900.75 259.518 884.806 258.534 885.133C257.55 885.461 245.835 926.107 245.835 926.107L260.103 970.03H260.127Z" fill="#004DA9" stroke="#26144D" stroke-width="1.5" stroke-linecap="round" stroke-linejoin="round"/>
<path d="M558.826 1142.75L575.25 1095.9L609.105 1115.43L606.294 1171.06L558.826 1142.75Z" fill="#004DA9" stroke="#26144D" stroke-width="1.5" stroke-linecap="round" stroke-linejoin="round"/>
<path d="M213.149 942.707L233.158 898.315L261.484 914.728L260.031 971.014L213.149 942.707Z" fill="#004DA9" stroke="#26144D" stroke-width="1.5" stroke-linecap="round" stroke-linejoin="round"/>
<path d="M676.721 1067.62V1075.93L609.01 1115.62L583.379 1056.87L242.6 861.065L314.902 818.405C324.11 812.693 337.02 813.278 351.288 821.519L626.161 980.099C654.042 996.184 676.721 1035.45 676.721 1067.62Z" fill="#037BF4" stroke="#26144D" stroke-width="1.5" stroke-linecap="round" stroke-linejoin="round"/>
<path d="M288.264 1209.67L286.506 1208.66C284.163 1207.3 282.266 1203.7 282.266 1200.58V1138.61C282.266 1135.49 284.163 1134.07 286.506 1135.4L288.264 1136.41C290.606 1137.77 292.504 1141.37 292.504 1144.48V1206.46C292.504 1209.57 290.606 1211 288.264 1209.67Z" fill="#003C93" stroke="#26144D" stroke-width="1.5" stroke-linecap="round" stroke-linejoin="round"/>
<path d="M306.867 1220.41L305.109 1219.41C302.766 1218.05 300.869 1214.44 300.869 1211.33V1149.35C300.869 1146.24 302.766 1144.81 305.109 1146.15L306.867 1147.15C309.209 1148.51 311.107 1152.12 311.107 1155.23V1217.21C311.107 1220.32 309.209 1221.75 306.867 1220.41Z" fill="#003C93" stroke="#26144D" stroke-width="1.5" stroke-linecap="round" stroke-linejoin="round"/>
<path d="M325.821 1231.32L324.064 1230.32C321.721 1228.96 319.823 1225.35 319.823 1222.24V1160.27C319.823 1157.15 321.721 1155.72 324.064 1157.06L325.821 1158.06C328.164 1159.42 330.062 1163.03 330.062 1166.14V1228.12C330.062 1231.23 328.164 1232.66 325.821 1231.32Z" fill="#003C93" stroke="#26144D" stroke-width="1.5" stroke-linecap="round" stroke-linejoin="round"/>
<path d="M345.221 1242.52L343.463 1241.51C341.12 1240.15 339.223 1236.55 339.223 1233.43V1171.46C339.223 1168.34 341.12 1166.92 343.463 1168.25L345.221 1169.26C347.563 1170.61 349.461 1174.22 349.461 1177.33V1239.31C349.461 1242.42 347.563 1243.85 345.221 1242.52Z" fill="#003C93" stroke="#26144D" stroke-width="1.5" stroke-linecap="round" stroke-linejoin="round"/>
<path d="M363.824 1253.26L362.066 1252.26C359.723 1250.9 357.826 1247.29 357.826 1244.18V1182.2C357.826 1179.09 359.723 1177.66 362.066 1179L363.824 1180C366.167 1181.36 368.064 1184.97 368.064 1188.08V1250.06C368.064 1253.17 366.167 1254.6 363.824 1253.26Z" fill="#003C93" stroke="#26144D" stroke-width="1.5" stroke-linecap="round" stroke-linejoin="round"/>
<path d="M382.753 1264.2L380.996 1263.19C378.653 1261.83 376.755 1258.23 376.755 1255.11V1193.14C376.755 1190.02 378.653 1188.6 380.996 1189.93L382.753 1190.94C385.096 1192.3 386.994 1195.9 386.994 1199.01V1260.99C386.994 1264.1 385.096 1265.53 382.753 1264.2Z" fill="#003C93" stroke="#26144D" stroke-width="1.5" stroke-linecap="round" stroke-linejoin="round"/>
<path d="M303.47 855.539L382.567 901.734" stroke="white" stroke-width="1.5" stroke-linecap="round" stroke-linejoin="round"/>
<path d="M432.355 820.419L651.091 948.561" stroke="white" stroke-width="1.5" stroke-linecap="round" stroke-linejoin="round"/>
<path d="M606.293 1171.06L609.105 1115.43L676.956 1074.43L716.036 1108.1L606.293 1171.06Z" fill="#037BF4" stroke="#26144D" stroke-width="1.5" stroke-linecap="round" stroke-linejoin="round"/>
<path d="M261.157 916.367L233.019 899.86V890.355C233.019 858.185 255.698 845.096 283.579 861.181L558.428 1019.76C586.309 1035.85 608.989 1075.11 608.989 1107.28V1115.59L574.805 1095.88V1087.57C574.805 1077.15 567.448 1064.41 558.405 1059.19L277.558 897.402C268.514 892.181 261.157 896.419 261.157 906.861V916.367Z" fill="#004DA9" stroke="#26144D" stroke-width="1.5" stroke-linecap="round" stroke-linejoin="round"/>
<path d="M1152 1471L1205.5 1500C1220.5 1508 1220.63 1520 1210 1534.5C1199 1549.5 1189 1554 1172 1544L1080.15 1492.13L754.206 1306.97L750.083 1304.63C750.083 1304.63 749.966 1304.56 749.895 1304.51C747.576 1302.2 746.193 1298.45 746.193 1293.56C746.193 1281.29 754.792 1266.37 765.429 1260.24C769.88 1257.69 773.957 1257.05 777.214 1258.08L780.517 1259.98L1120.41 1453.07C1128.84 1457.85 1140.5 1464.5 1152 1471Z" fill="#D2233C" stroke="#26144D" stroke-width="1.5" stroke-linecap="round" stroke-linejoin="round"/>
<path d="M807.298 1337.1C804.978 1334.79 803.596 1331.04 803.596 1326.15C803.596 1313.88 812.194 1298.96 822.831 1292.83C827.283 1290.28 831.359 1289.65 834.616 1290.68" stroke="#26144D" stroke-width="1.5" stroke-linecap="round" stroke-linejoin="round"/>
<path d="M1048.5 1474C1047.5 1472.5 1046.44 1469.7 1046.44 1464.8C1046.44 1452.53 1055.04 1437.62 1065.67 1431.48C1070.13 1428.93 1074.2 1428.3 1077.46 1429.33" stroke="#26144D" stroke-width="1.5" stroke-linecap="round" stroke-linejoin="round"/>
<path d="M835.976 1300.81C877.024 1325.61 919.196 1349.02 960.854 1373.98Z" fill="#FA6646"/>
<path d="M835.976 1300.81C877.024 1325.61 919.196 1349.02 960.854 1373.98" stroke="white" stroke-width="1.5" stroke-linecap="round" stroke-linejoin="round"/>
<path d="M1228.46 1689C1219.93 1689 1211.59 1684.95 1206.69 1677.54C1199.06 1666.01 1202.5 1651.8 1214.5 1644.5L1281 1606.5L1185 1552.5C1180 1546.26 1179.5 1536.5 1181 1526.48C1182.5 1516.45 1192 1498.06 1204.5 1499.5L1346.5 1579.5C1354.21 1583.88 1359.86 1594.19 1360 1602.78C1360.14 1611.38 1356.06 1621.2 1348.5 1625.81L1242.5 1686C1238.21 1688.61 1233.22 1689 1228.48 1689H1228.46Z" fill="#D2233C" stroke="#26144D" stroke-width="1.5" stroke-linecap="round" stroke-linejoin="round"/>
<path d="M885.831 2216.17L1507.48 1858.38L1189.65 1675L568 2032.78L885.831 2216.17Z" fill="#4DA4FF" stroke="#26144D" stroke-width="1.5" stroke-linecap="round" stroke-linejoin="round"/>
<path d="M886.346 2278.21L1508 1920.4V1857.9L886.346 2215.68V2278.21Z" fill="#D9D9D9" stroke="#26144D" stroke-width="1.5" stroke-linecap="round" stroke-linejoin="round"/>
<path d="M568.217 2095.29L886.049 2278.67V2216.17L568.217 2032.78V2095.29Z" fill="#999999" stroke="#26144D" stroke-width="1.5" stroke-linecap="round" stroke-linejoin="round"/>
<g style="mix-blend-mode:multiply" opacity="0.46">
<path d="M877 2094.61L983.543 2158L1377 1931.45L1288.58 1883L877 2094.61Z" fill="#B2B4B3"/>
</g>
<path d="M1205.01 1976.77L1189.83 1966.28V1936.53L1205.01 1927.75V1976.77Z" fill="#D8D8D8" stroke="#26144D" stroke-width="1.5" stroke-linecap="round" stroke-linejoin="round"/>
<path d="M1302.41 1920.46L1287.21 1910.55V1878.89L1302.41 1870.11V1920.46Z" fill="#D8D8D8" stroke="#26144D" stroke-width="1.5" stroke-linecap="round" stroke-linejoin="round"/>
<path d="M971.471 1987.25V2111.39L734.142 1974.28V1682.68L854.066 1751.96V1919.37L971.471 1987.25Z" fill="#7D7D7B" stroke="#26144D" stroke-width="1.5" stroke-linecap="round" stroke-linejoin="round"/>
<path d="M1329.42 1779.49V1904.84L1302.41 1920.46V1870.11L1287.21 1878.89L1229.34 1912.35V1962.7L1205.01 1976.77V1927.75L1189.83 1936.54L1131.97 1969.99V2019.01L971.592 2111.72V1986.37L1329.42 1779.49Z" fill="#D8D8D8" stroke="#26144D" stroke-width="1.5" stroke-linecap="round" stroke-linejoin="round"/>
<path d="M854.157 1751.5L1211.99 1544.62L1091.88 1475.28L734.051 1682.16L854.157 1751.5Z" fill="#D8D8D8" stroke="#26144D" stroke-width="1.5" stroke-linecap="round" stroke-linejoin="round"/>
<path d="M971.896 1986.64L1329.72 1779.76L1209.62 1710.42L851.79 1917.3L971.896 1986.64Z" fill="#D8D8D8" stroke="#26144D" stroke-width="1.5" stroke-linecap="round" stroke-linejoin="round"/>
<path d="M889.266 1899.25L984.549 1939.54L1273.74 1771.53L1226.95 1740.29L1127.6 1760.13L889.266 1899.25Z" fill="#565656" stroke="#26144D" stroke-width="1.5" stroke-linecap="round" stroke-linejoin="round"/>
<path d="M1189.83 1936.54V1966.28L1131.97 1999.74V1969.99L1189.83 1936.54Z" fill="#7D7D7B" stroke="#26144D" stroke-width="1.5" stroke-linecap="round" stroke-linejoin="round"/>
<path d="M1287.21 1878.89V1910.55L1229.34 1944.01V1912.35L1287.21 1878.89Z" fill="#7D7D7B" stroke="#26144D" stroke-width="1.5" stroke-linecap="round" stroke-linejoin="round"/>
<path d="M1211.8 1669.67L853.975 1876.58V1751.23L1211.8 1544.35V1669.67Z" fill="#7D7D7B" stroke="#26144D" stroke-width="1.5" stroke-linecap="round" stroke-linejoin="round"/>
<path d="M870.301 1882.78C870.938 1880.26 889.266 1763.11 889.266 1763.11L1185.22 1590.84L1192.81 1648.46L913.937 1880.86L870.301 1882.78Z" fill="#565656" stroke="#26144D" stroke-width="1.5" stroke-linecap="round" stroke-linejoin="round"/>
<path d="M1265.36 1709.51C1265.36 1712.55 1265.12 1715.37 1264.6 1717.99C1262.78 1728.07 1257.53 1734.79 1250.19 1737.37L1232.47 1747.43C1234.71 1745.73 1236.66 1743.54 1238.2 1740.87C1240.93 1736.13 1242.51 1729.87 1242.51 1722.3C1242.51 1721.27 1242.51 1720.23 1242.42 1719.17C1242.09 1713.06 1240.84 1706.74 1238.81 1700.45C1236.69 1693.98 1233.77 1687.57 1230.25 1681.52C1227.58 1676.99 1224.58 1672.68 1221.3 1668.7C1217.17 1663.65 1212.56 1659.22 1207.68 1655.6C1205.76 1654.17 1203.82 1652.9 1201.85 1651.74C1199.67 1650.49 1197.54 1649.43 1195.45 1648.64C1187.1 1645.33 1179.58 1645.45 1173.75 1648.55V1648.46L1193.47 1637.76H1193.51C1195.02 1636.52 1196.72 1635.57 1198.54 1634.88C1202.61 1633.27 1207.31 1632.96 1212.5 1634.09C1216.32 1634.91 1220.42 1636.52 1224.67 1638.98C1227.31 1640.53 1229.92 1642.29 1232.41 1644.33C1236.02 1647.18 1239.48 1650.56 1242.66 1654.26C1247.91 1660.31 1252.53 1667.27 1256.2 1674.59C1258.69 1679.52 1260.72 1684.62 1262.24 1689.73C1264.24 1696.44 1265.33 1703.16 1265.33 1709.54L1265.36 1709.51Z" fill="#D8D8D8" stroke="#26144D" stroke-width="1.5" stroke-linecap="round" stroke-linejoin="round"/>
<path d="M1242.51 1722.3C1242.51 1734.15 1238.72 1742.78 1232.47 1747.43C1225 1752.99 1214.05 1752.9 1201.82 1745.82C1179.36 1732.82 1161.13 1701.21 1161.13 1675.23C1161.13 1661.86 1165.95 1652.59 1173.72 1648.52C1181 1644.66 1190.9 1645.42 1201.82 1651.74C1224.28 1664.72 1242.51 1696.32 1242.51 1722.3Z" fill="#7D7D7B" stroke="#26144D" stroke-width="1.5" stroke-linecap="round" stroke-linejoin="round"/>
<path d="M1212.5 1634.06L1207.65 1655.6C1205.73 1654.17 1203.79 1652.9 1201.82 1651.74C1199.64 1650.5 1197.51 1649.43 1195.42 1648.64L1198.51 1634.85C1202.58 1633.23 1207.28 1632.93 1212.47 1634.06H1212.5Z" fill="#D8D8D8" stroke="#26144D" stroke-width="1.5" stroke-linecap="round" stroke-linejoin="round"/>
<path d="M1242.69 1654.23L1230.25 1681.52C1227.58 1676.99 1224.58 1672.68 1221.3 1668.7L1232.44 1644.3C1236.05 1647.15 1239.51 1650.53 1242.69 1654.23Z" fill="#D8D8D8" stroke="#26144D" stroke-width="1.5" stroke-linecap="round" stroke-linejoin="round"/>
<path d="M1262.24 1689.7L1242.39 1719.17C1242.06 1713.06 1240.81 1706.74 1238.78 1700.45L1256.2 1674.56C1258.69 1679.49 1260.72 1684.59 1262.24 1689.7Z" fill="#D8D8D8" stroke="#26144D" stroke-width="1.5" stroke-linecap="round" stroke-linejoin="round"/>
<path d="M1264.6 1717.99C1262.78 1728.08 1257.53 1734.79 1250.19 1737.37L1232.47 1747.43C1234.71 1745.73 1236.66 1743.54 1238.2 1740.87L1264.6 1717.99Z" fill="#D8D8D8" stroke="#26144D" stroke-width="1.5" stroke-linecap="round" stroke-linejoin="round"/>
<path d="M1239.66 1749.95C1239.66 1754.51 1239.3 1758.77 1238.54 1762.69C1235.81 1777.85 1227.92 1787.97 1216.87 1791.86L1190.23 1806.99C1193.6 1804.44 1196.51 1801.16 1198.85 1797.12C1202.97 1789.97 1205.31 1780.58 1205.31 1769.19C1205.31 1767.64 1205.28 1766.06 1205.16 1764.48C1204.67 1755.3 1202.79 1745.79 1199.73 1736.31C1196.54 1726.59 1192.17 1716.92 1186.86 1707.84C1182.85 1701.03 1178.33 1694.53 1173.39 1688.57C1167.17 1681 1160.25 1674.32 1152.9 1668.88C1150.05 1666.72 1147.11 1664.81 1144.13 1663.08C1140.86 1661.19 1137.64 1659.61 1134.51 1658.4C1121.95 1653.41 1110.66 1653.59 1101.89 1658.24V1658.12L1131.57 1642.02H1131.63C1133.91 1640.16 1136.46 1638.7 1139.19 1637.67C1145.29 1635.24 1152.39 1634.78 1160.19 1636.49C1165.95 1637.73 1172.11 1640.16 1178.48 1643.84C1182.46 1646.15 1186.37 1648.82 1190.14 1651.89C1195.57 1656.21 1200.76 1661.25 1205.58 1666.81C1213.47 1675.9 1220.42 1686.35 1225.91 1697.38C1229.65 1704.8 1232.71 1712.46 1234.99 1720.14C1237.99 1730.23 1239.66 1740.35 1239.66 1749.95Z" fill="#D8D8D8" stroke="#26144D" stroke-width="1.5" stroke-linecap="round" stroke-linejoin="round"/>
<path d="M1205.31 1769.16C1205.31 1787 1199.6 1799.94 1190.23 1806.96C1179.03 1815.29 1162.52 1815.17 1144.13 1804.56C1110.36 1784.99 1082.96 1737.49 1082.96 1698.42C1082.96 1678.3 1090.24 1664.38 1101.89 1658.24C1112.85 1652.44 1127.72 1653.59 1144.13 1663.07C1177.91 1682.58 1205.31 1730.11 1205.31 1769.19V1769.16Z" fill="#7D7D7B" stroke="#26144D" stroke-width="1.5" stroke-linecap="round" stroke-linejoin="round"/>
<path d="M1160.19 1636.49L1152.9 1668.88C1150.05 1666.72 1147.11 1664.81 1144.13 1663.08C1140.86 1661.19 1137.64 1659.61 1134.51 1658.4L1139.19 1637.67C1145.29 1635.24 1152.39 1634.78 1160.19 1636.49Z" fill="#D8D8D8" stroke="#26144D" stroke-width="1.5" stroke-linecap="round" stroke-linejoin="round"/>
<path d="M1205.58 1666.81L1186.86 1707.84C1182.85 1701.03 1178.33 1694.53 1173.39 1688.57L1190.14 1651.89C1195.57 1656.21 1200.76 1661.25 1205.58 1666.81Z" fill="#D8D8D8" stroke="#26144D" stroke-width="1.5" stroke-linecap="round" stroke-linejoin="round"/>
<path d="M1234.99 1720.14L1205.16 1764.48C1204.67 1755.3 1202.79 1745.79 1199.73 1736.31L1225.91 1697.38C1229.65 1704.8 1232.71 1712.46 1234.99 1720.14Z" fill="#D8D8D8" stroke="#26144D" stroke-width="1.5" stroke-linecap="round" stroke-linejoin="round"/>
<path d="M1238.54 1762.69C1235.81 1777.85 1227.92 1787.97 1216.87 1791.86L1190.23 1806.99C1193.6 1804.44 1196.51 1801.16 1198.85 1797.12L1238.54 1762.69Z" fill="#D8D8D8" stroke="#26144D" stroke-width="1.5" stroke-linecap="round" stroke-linejoin="round"/>
<path d="M862.38 2046.84L790.584 1874.54" stroke="#26144D" stroke-width="1.5" stroke-linecap="round" stroke-linejoin="round"/>
<path d="M788.946 1665.14L989.617 1548.63" stroke="white" stroke-width="1.5" stroke-linecap="round" stroke-linejoin="round"/>
<path d="M1154.54 1746.52C1154.54 1751.14 1153.27 1754.69 1151.11 1756.94L1146.87 1759.44L1085.69 1795.14C1081.62 1797.54 1077.13 1798.67 1072.73 1798.67C1063.9 1798.67 1055.28 1794.11 1050.49 1785.93C1043.33 1773.66 1047.42 1757.89 1059.68 1750.68L1120.71 1715.1L1125.75 1712.15C1128.69 1711.54 1132.24 1712.27 1136.06 1714.46C1146.26 1720.36 1154.54 1734.73 1154.54 1746.52Z" fill="white" stroke="#26144D" stroke-width="1.5" stroke-linecap="round" stroke-linejoin="round"/>
<path d="M1126.75 1792.01C1126.75 1795.05 1126.5 1797.88 1125.99 1800.49C1124.17 1810.58 1118.92 1817.29 1111.57 1819.88L1093.85 1829.93C1096.1 1828.23 1098.04 1826.05 1099.59 1823.37C1102.32 1818.63 1103.9 1812.37 1103.9 1804.8C1103.9 1803.77 1103.9 1802.74 1103.81 1801.67C1103.47 1795.57 1102.23 1789.25 1100.19 1782.96C1098.07 1776.48 1095.16 1770.07 1091.64 1764.02C1088.97 1759.5 1085.96 1755.18 1082.69 1751.2C1078.56 1746.16 1073.95 1741.72 1069.06 1738.1C1067.15 1736.67 1065.21 1735.4 1063.23 1734.24C1061.05 1733 1058.92 1731.93 1056.83 1731.14C1048.49 1727.83 1040.96 1727.95 1035.13 1731.05V1730.96L1054.86 1720.27H1054.89C1056.41 1719.02 1058.11 1718.08 1059.93 1717.38C1063.99 1715.77 1068.7 1715.46 1073.89 1716.59C1077.71 1717.41 1081.81 1719.02 1086.05 1721.48C1088.69 1723.03 1091.3 1724.79 1093.79 1726.83C1097.4 1729.69 1100.86 1733.06 1104.05 1736.77C1109.3 1742.81 1113.91 1749.77 1117.58 1757.1C1120.07 1762.02 1122.1 1767.12 1123.62 1772.23C1125.62 1778.94 1126.72 1785.66 1126.72 1792.04L1126.75 1792.01Z" fill="#D8D8D8" stroke="#26144D" stroke-width="1.5" stroke-linecap="round" stroke-linejoin="round"/>
<path d="M1103.93 1804.77C1103.93 1816.63 1100.13 1825.26 1093.88 1829.9C1086.42 1835.47 1075.46 1835.37 1063.23 1828.29C1040.78 1815.29 1022.54 1783.68 1022.54 1757.7C1022.54 1744.33 1027.37 1735.06 1035.13 1730.99C1042.42 1727.13 1052.31 1727.89 1063.23 1734.21C1085.69 1747.19 1103.93 1778.79 1103.93 1804.77Z" fill="#7D7D7B" stroke="#26144D" stroke-width="1.5" stroke-linecap="round" stroke-linejoin="round"/>
<path d="M1073.92 1716.56L1069.06 1738.1C1067.15 1736.67 1065.21 1735.4 1063.23 1734.24C1061.05 1733 1058.93 1731.93 1056.83 1731.14L1059.93 1717.35C1063.99 1715.74 1068.7 1715.43 1073.89 1716.56H1073.92Z" fill="#D8D8D8" stroke="#26144D" stroke-width="1.5" stroke-linecap="round" stroke-linejoin="round"/>
<path d="M1104.08 1736.71L1091.64 1763.99C1088.97 1759.47 1085.96 1755.15 1082.68 1751.17L1093.82 1726.77C1097.43 1729.63 1100.89 1733 1104.08 1736.71Z" fill="#D8D8D8" stroke="#26144D" stroke-width="1.5" stroke-linecap="round" stroke-linejoin="round"/>
<path d="M1123.65 1772.17L1103.81 1801.64C1103.47 1795.54 1102.23 1789.22 1100.19 1782.93L1117.61 1757.04C1120.1 1761.96 1122.13 1767.06 1123.65 1772.17Z" fill="#D8D8D8" stroke="#26144D" stroke-width="1.5" stroke-linecap="round" stroke-linejoin="round"/>
<path d="M1126.02 1800.46C1124.2 1810.55 1118.95 1817.26 1111.6 1819.85L1093.88 1829.9C1096.13 1828.2 1098.07 1826.02 1099.62 1823.34L1126.02 1800.46Z" fill="#D8D8D8" stroke="#26144D" stroke-width="1.5" stroke-linecap="round" stroke-linejoin="round"/>
<path d="M1087.02 1823.19C1087.02 1826.81 1086.72 1830.18 1086.14 1833.28C1083.99 1845.31 1077.71 1853.33 1068.94 1856.43L1047.79 1868.44C1050.46 1866.4 1052.76 1863.82 1054.62 1860.6C1057.89 1854.94 1059.74 1847.47 1059.74 1838.44C1059.74 1837.23 1059.74 1835.95 1059.62 1834.71C1059.23 1827.41 1057.74 1819.88 1055.31 1812.34C1052.8 1804.62 1049.31 1796.96 1045.12 1789.76C1041.93 1784.35 1038.35 1779.19 1034.44 1774.48C1029.49 1768.46 1024 1763.17 1018.17 1758.86C1015.9 1757.16 1013.56 1755.64 1011.22 1754.24C1008.61 1752.75 1006.06 1751.5 1003.58 1750.53C993.622 1746.58 984.64 1746.73 977.691 1750.41V1750.32L1001.24 1737.53H1001.3C1003.12 1736.07 1005.12 1734.91 1007.31 1734.09C1012.13 1732.18 1017.78 1731.81 1023.97 1733.15C1028.55 1734.15 1033.44 1736.07 1038.47 1738.98C1041.63 1740.81 1044.72 1742.93 1047.73 1745.37C1052.04 1748.8 1056.16 1752.78 1059.99 1757.22C1066.24 1764.42 1071.76 1772.71 1076.13 1781.47C1079.1 1787.36 1081.53 1793.44 1083.32 1799.52C1085.72 1807.51 1087.02 1815.56 1087.02 1823.16V1823.19Z" fill="#D8D8D8" stroke="#26144D" stroke-width="1.5" stroke-linecap="round" stroke-linejoin="round"/>
<path d="M1059.77 1838.44C1059.77 1852.57 1055.25 1862.88 1047.79 1868.44C1038.9 1875.06 1025.82 1874.94 1011.22 1866.52C984.428 1850.99 962.67 1813.31 962.67 1782.29C962.67 1766.33 968.436 1755.27 977.691 1750.41C986.37 1745.82 998.174 1746.7 1011.19 1754.24C1037.99 1769.74 1059.74 1807.42 1059.74 1838.41L1059.77 1838.44Z" fill="#7D7D7B" stroke="#26144D" stroke-width="1.5" stroke-linecap="round" stroke-linejoin="round"/>
<path d="M1023.97 1733.15L1018.2 1758.86C1015.93 1757.16 1013.59 1755.64 1011.25 1754.24C1008.64 1752.75 1006.09 1751.5 1003.61 1750.53L1007.31 1734.09C1012.13 1732.18 1017.78 1731.81 1023.97 1733.15Z" fill="#D8D8D8" stroke="#26144D" stroke-width="1.5" stroke-linecap="round" stroke-linejoin="round"/>
<path d="M1059.99 1757.22L1045.12 1789.76C1041.93 1784.35 1038.35 1779.19 1034.44 1774.48L1047.73 1745.37C1052.04 1748.8 1056.16 1752.78 1059.99 1757.22Z" fill="#D8D8D8" stroke="#26144D" stroke-width="1.5" stroke-linecap="round" stroke-linejoin="round"/>
<path d="M1083.32 1799.52L1059.65 1834.71C1059.26 1827.41 1057.77 1819.88 1055.34 1812.34L1076.13 1781.47C1079.1 1787.36 1081.53 1793.44 1083.32 1799.52Z" fill="#D8D8D8" stroke="#26144D" stroke-width="1.5" stroke-linecap="round" stroke-linejoin="round"/>
<path d="M1086.14 1833.28C1083.99 1845.31 1077.71 1853.33 1068.94 1856.43L1047.79 1868.44C1050.46 1866.4 1052.76 1863.82 1054.62 1860.6L1086.11 1833.28H1086.14Z" fill="#D8D8D8" stroke="#26144D" stroke-width="1.5" stroke-linecap="round" stroke-linejoin="round"/>
<path d="M1045.39 1861.23C1045.39 1865.79 1045.03 1870.05 1044.27 1873.97C1041.54 1889.13 1033.65 1899.25 1022.6 1903.14L995.959 1918.27C999.327 1915.72 1002.24 1912.44 1004.58 1908.4C1008.7 1901.25 1011.04 1891.87 1011.04 1880.47C1011.04 1878.92 1011.01 1877.34 1010.89 1875.76C1010.4 1866.58 1008.52 1857.07 1005.46 1847.59C1002.27 1837.87 997.901 1828.2 992.591 1819.12C988.585 1812.31 984.064 1805.81 979.118 1799.85C972.897 1792.28 965.978 1785.6 958.635 1780.16C955.782 1778 952.839 1776.09 949.865 1774.36C946.588 1772.47 943.371 1770.89 940.246 1769.68C927.683 1764.69 916.394 1764.87 907.625 1769.52V1769.4L937.302 1753.3H937.363C939.639 1751.44 942.188 1749.98 944.919 1748.95C951.018 1746.52 958.119 1746.06 965.917 1747.77C971.683 1749.01 977.843 1751.44 984.216 1755.12C988.191 1757.43 992.105 1760.1 995.868 1763.17C1001.3 1767.49 1006.49 1772.53 1011.31 1778.09C1019.2 1787.18 1026.15 1797.63 1031.64 1808.66C1035.38 1816.08 1038.44 1823.74 1040.72 1831.42C1043.72 1841.51 1045.39 1851.63 1045.39 1861.23Z" fill="#D8D8D8" stroke="#26144D" stroke-width="1.5" stroke-linecap="round" stroke-linejoin="round"/>
<path d="M1011.07 1880.47C1011.07 1898.31 1005.37 1911.25 995.989 1918.27C984.792 1926.6 968.284 1926.48 949.895 1915.87C916.121 1896.3 888.72 1848.81 888.72 1809.73C888.72 1789.61 896.002 1775.69 907.655 1769.55C918.61 1763.75 933.479 1764.9 949.895 1774.39C983.669 1793.89 1011.07 1841.42 1011.07 1880.5V1880.47Z" fill="#7D7D7B" stroke="#26144D" stroke-width="1.5" stroke-linecap="round" stroke-linejoin="round"/>
<path d="M965.917 1747.77L958.635 1780.16C955.782 1778 952.839 1776.09 949.865 1774.36C946.588 1772.47 943.371 1770.89 940.246 1769.68L944.919 1748.95C951.018 1746.52 958.119 1746.06 965.917 1747.77Z" fill="#D8D8D8" stroke="#26144D" stroke-width="1.5" stroke-linecap="round" stroke-linejoin="round"/>
<path d="M1011.31 1778.09L992.591 1819.12C988.585 1812.31 984.064 1805.81 979.117 1799.85L995.868 1763.17C1001.3 1767.49 1006.49 1772.53 1011.31 1778.09Z" fill="#D8D8D8" stroke="#26144D" stroke-width="1.5" stroke-linecap="round" stroke-linejoin="round"/>
<path d="M1040.72 1831.42L1010.89 1875.76C1010.4 1866.58 1008.52 1857.07 1005.46 1847.59L1031.64 1808.66C1035.38 1816.08 1038.44 1823.74 1040.72 1831.42Z" fill="#D8D8D8" stroke="#26144D" stroke-width="1.5" stroke-linecap="round" stroke-linejoin="round"/>
<path d="M1044.27 1873.97C1041.54 1889.13 1033.65 1899.25 1022.6 1903.14L995.959 1918.27C999.328 1915.72 1002.24 1912.44 1004.58 1908.4L1044.27 1873.97Z" fill="#D8D8D8" stroke="#26144D" stroke-width="1.5" stroke-linecap="round" stroke-linejoin="round"/>
<path d="M965.159 1856.25C965.159 1860.87 963.885 1864.43 961.73 1866.67L957.482 1869.17L896.306 1904.87C892.24 1907.27 887.749 1908.4 883.349 1908.4C874.519 1908.4 865.901 1903.84 861.106 1895.66C853.945 1883.39 858.041 1867.62 870.301 1860.41L931.324 1824.83L936.362 1821.88C939.305 1821.27 942.856 1822 946.679 1824.19C956.875 1830.09 965.159 1844.46 965.159 1856.25Z" fill="#D8D8D8" stroke="#26144D" stroke-width="1.5" stroke-linecap="round" stroke-linejoin="round"/>
<path d="M774.805 1836.65L790.584 1874.54L862.381 2046.84L883.44 2097.44L916.334 2078.02L915.818 1928.79C915.424 1888.98 887.081 1840.81 852.458 1821.21C842.535 1815.62 833.189 1812.95 824.904 1812.95C816.62 1812.95 810.035 1815.38 804.482 1819.97L774.805 1836.65Z" fill="#D8D8D8" stroke="#26144D" stroke-width="1.5" stroke-linecap="round" stroke-linejoin="round"/>
<path d="M758.904 2025.48L883.44 2097.44L882.924 1948.2C882.56 1908.4 854.187 1860.23 819.564 1840.63C784.94 1821.03 757.174 1837.44 757.538 1877.25L758.904 2025.48Z" fill="#7D7D7B" stroke="#26144D" stroke-width="1.5" stroke-linecap="round" stroke-linejoin="round"/>
<path d="M759.936 1883.84L771.254 1904.45L807.061 1969.78L819.685 1992.75L842.474 1979.84C852.458 1976.31 858.83 1965.74 858.83 1949.75C858.83 1921.71 839.166 1887.61 814.921 1873.6C801.417 1865.79 789.34 1865.85 781.299 1872.27H781.268L759.936 1883.84Z" fill="#D8D8D8" stroke="#26144D" stroke-width="1.5" stroke-linecap="round" stroke-linejoin="round"/>
<path d="M759.241 1956.11C742.096 1926.37 742.093 1894.23 759.234 1884.32C776.375 1874.41 804.168 1890.49 821.313 1920.22C838.458 1949.96 838.461 1982.1 821.32 1992.01C804.179 2001.92 776.385 1985.85 759.241 1956.11Z" fill="#7D7D7B" stroke="#26144D" stroke-width="1.5" stroke-linecap="round" stroke-linejoin="round"/>
<path d="M806.849 1952.18C806.849 1956.8 805.575 1960.36 803.42 1962.61L799.172 1965.1L737.996 2000.81C733.93 2003.21 729.439 2004.33 725.039 2004.33C716.209 2004.33 707.591 1999.77 702.796 1991.6C695.635 1979.32 699.731 1963.55 711.991 1956.35L773.014 1920.76L778.052 1917.82C780.995 1917.21 784.546 1917.94 788.369 1920.13C798.565 1926.02 806.849 1940.39 806.849 1952.18Z" fill="white" stroke="#26144D" stroke-width="1.5" stroke-linecap="round" stroke-linejoin="round"/>
<circle cx="1131.5" cy="1739.5" r="5.5" fill="#525252"/>
<circle cx="1010.5" cy="2061.5" r="5.5" fill="#525252"/>
<path d="M744.23 2009.23C744.23 2021.53 739.355 2029.67 731.697 2032.36L717.047 2040.7C722.217 2036.82 725.344 2029.67 725.344 2019.82C725.344 1998.25 710.275 1972.02 691.685 1961.24C682.648 1955.99 674.474 1955.37 668.441 1958.57V1958.49L684.766 1949.61C690.922 1944.66 700.18 1944.61 710.546 1950.62C729.136 1961.41 744.206 1987.64 744.206 2009.21L744.23 2009.23Z" fill="#D7D7D7" stroke="#26144D" stroke-width="1.5" stroke-linecap="round" stroke-linejoin="round"/>
<path d="M725.319 2019.85C725.319 2029.69 722.167 2036.84 717.021 2040.73C710.865 2045.33 701.78 2045.25 691.66 2039.39C673.069 2028.58 658 2002.36 658 1980.78C658 1969.67 662.014 1961.98 668.415 1958.59C674.448 1955.4 682.623 1956.02 691.66 1961.26C710.25 1972.05 725.319 1998.27 725.319 2019.85Z" fill="#7D7D7B" stroke="#26144D" stroke-width="1.5" stroke-linecap="round" stroke-linejoin="round"/>
<circle cx="927.5" cy="1806.5" r="5.5" fill="#525252"/>
<rect x="374" y="1875" width="199" height="82" fill="#C1C1C1" fill-opacity="0.8"/>
<rect x="367" y="1868" width="199" height="82" fill="white"/>
<rect x="360.5" y="1861.5" width="198" height="81" stroke="#525252"/>
<path d="M559 1902L928 1807" stroke="#525252" stroke-linecap="round"/>
<path d="M1011 2062L768 2209" stroke="#525252" stroke-linecap="round"/>
<rect x="583" y="2196" width="199" height="82" fill="#C1C1C1" fill-opacity="0.8"/>
<rect x="576" y="2189" width="199" height="82" fill="white"/>
<rect x="569.5" y="2182.5" width="198" height="81" stroke="#525252"/>
<rect x="1185" y="2089" width="199" height="82" fill="#C1C1C1" fill-opacity="0.8"/>
<rect x="1178" y="2082" width="199" height="82" fill="white"/>
<rect x="1171.5" y="2075.5" width="198" height="81" stroke="#525252"/>
<path d="M1295 2075L1132 1740" stroke="#525252" stroke-linecap="round"/>
</g>
</svg>
