<svg width="532" height="532" viewBox="0 0 532 532" fill="none" xmlns="http://www.w3.org/2000/svg">
<path d="M351.603 496.074L1.28516 294.669L180.392 191.459L530.71 392.843L351.603 496.074Z" fill="#4DA4FF" stroke="#26144D" stroke-width="1.5" stroke-linecap="round" stroke-linejoin="round"/>
<g style="mix-blend-mode:multiply" opacity="0.46">
<path d="M239.5 391.5L388 476L420.5 456.5L283 380.5L239.5 391.5Z" fill="#B2B4B3"/>
</g>
<path d="M351.296 530.996L1 329.59V294.406L351.296 495.79V530.996Z" fill="#999999" stroke="#26144D" stroke-width="1.5" stroke-linecap="round" stroke-linejoin="round"/>
<path d="M530.579 428.027L351.472 531.237V496.052L530.579 392.843V428.027Z" fill="#D9D9D9" stroke="#26144D" stroke-width="1.5" stroke-linecap="round" stroke-linejoin="round"/>
<path d="M248.494 213.178L269.989 252.237L397.224 186.576L397.048 186.248C400.097 184.693 402.027 181.103 402.027 175.87C402.027 165.82 394.943 153.56 386.213 148.546C381.607 145.897 377.462 145.765 374.588 147.714L374.479 147.539L248.516 213.178H248.494Z" fill="#D7D7D7" stroke="#26144D" stroke-width="1.5" stroke-linecap="round" stroke-linejoin="round"/>
<path d="M332.669 358.539C374.83 334.24 377.659 260.339 338.987 193.476C300.315 126.613 234.786 92.1081 192.625 116.407C150.464 140.705 147.635 214.606 186.307 281.469C224.979 348.332 290.508 382.838 332.669 358.539Z" fill="#0069E9" stroke="#26144D" stroke-width="1.5" stroke-linecap="round" stroke-linejoin="round"/>
<path d="M337.368 175.345C337.368 175.345 329.45 180.512 326.708 182.351C323.966 184.19 314.206 176.877 314.206 176.877L324.559 168.36L337.346 175.367L337.368 175.345Z" fill="#0069E9" stroke="#26144D" stroke-width="1.5" stroke-linecap="round" stroke-linejoin="round"/>
<path d="M325.239 157.413C325.239 157.413 317.014 164.703 314.272 167.155C311.53 169.608 302.077 164.112 302.077 164.112L312.123 153.165L325.217 157.413H325.239Z" fill="#0069E9" stroke="#26144D" stroke-width="1.5" stroke-linecap="round" stroke-linejoin="round"/>
<path d="M309.929 144.473C309.929 144.473 303.524 152.377 301.704 154.501C299.884 156.624 289.97 153.209 289.97 153.209L297.054 142.94L309.929 144.451V144.473Z" fill="#0069E9" stroke="#26144D" stroke-width="1.5" stroke-linecap="round" stroke-linejoin="round"/>
<path d="M294.62 129.65C294.62 129.65 290.365 138.78 289.137 141.824C287.908 144.867 276.635 143.947 276.635 143.947L280.89 129.65H294.598H294.62Z" fill="#0069E9" stroke="#26144D" stroke-width="1.5" stroke-linecap="round" stroke-linejoin="round"/>
<path d="M277.644 118.091C277.644 118.091 273.674 128.425 272.467 132.388C271.239 136.351 262.707 136.635 262.707 136.635L266.37 119.908L277.644 118.091Z" fill="#0069E9" stroke="#26144D" stroke-width="1.5" stroke-linecap="round" stroke-linejoin="round"/>
<path d="M259.329 110.778C259.329 110.778 257.289 121.66 256.785 125.776C256.302 129.892 247.946 131.709 247.946 131.709L248.56 114.588L259.329 110.778Z" fill="#0069E9" stroke="#26144D" stroke-width="1.5" stroke-linecap="round" stroke-linejoin="round"/>
<path d="M337.653 160.149C337.653 160.149 344.957 173.527 337.346 175.366C329.735 177.183 324.559 168.36 324.559 168.36C324.559 168.36 331.248 171.972 334.758 168.973C337.96 166.236 337.653 160.149 337.653 160.149Z" fill="#4DA5FF" stroke="#26144D" stroke-width="1.5" stroke-linecap="round" stroke-linejoin="round"/>
<path d="M323.418 143.423C323.418 143.423 331.819 153.013 325.239 157.413C319.229 161.442 312.145 153.166 312.145 153.166C312.145 153.166 317.167 155.071 321.291 152.246C324.997 149.707 323.418 143.423 323.418 143.423Z" fill="#4DA5FF" stroke="#26144D" stroke-width="1.5" stroke-linecap="round" stroke-linejoin="round"/>
<path d="M305.74 130.636C305.74 130.636 316.048 138.365 309.929 144.473C304.358 150.035 297.054 143.401 297.054 143.401C297.054 143.401 301.858 143.619 305.06 140.204C307.319 137.796 305.74 130.614 305.74 130.614V130.636Z" fill="#4DA5FF" stroke="#26144D" stroke-width="1.5" stroke-linecap="round" stroke-linejoin="round"/>
<path d="M288.215 118.397C288.215 118.397 299.73 123.105 294.62 129.651C289.751 135.891 280.912 129.651 280.912 129.651C280.912 129.651 286.768 130.177 289.444 126.301C291.659 123.083 288.215 118.397 288.215 118.397Z" fill="#4DA5FF" stroke="#26144D" stroke-width="1.5" stroke-linecap="round" stroke-linejoin="round"/>
<path d="M272.006 108.852C272.006 108.852 281.789 112.771 278.016 118.179C273.257 125.01 266.655 119.514 266.655 119.514C266.655 119.514 270.669 118.179 272.664 115.858C274.66 113.537 272.006 108.852 272.006 108.852Z" fill="#4DA5FF" stroke="#26144D" stroke-width="1.5" stroke-linecap="round" stroke-linejoin="round"/>
<path d="M252.135 102.699C252.135 102.699 262.466 104.801 259.724 110.8C256.259 118.375 248.801 114.127 248.801 114.127C248.801 114.127 252.508 112.091 254.065 109.442C255.622 106.793 252.157 102.677 252.157 102.677L252.135 102.699Z" fill="#4DA5FF" stroke="#26144D" stroke-width="1.5" stroke-linecap="round" stroke-linejoin="round"/>
<path d="M257.377 382.881C280.012 394.485 301.595 398.885 320.677 396.937C326.818 396.302 332.718 395.01 338.289 393.083C370.092 382.18 391.74 350.74 394.043 304.127C396.149 261.74 381.827 215.302 357.261 175.52L340.68 185.438L334.253 189.269L257.991 234.875L158.436 103.816L155.563 100.028C151.198 103.05 147.141 106.575 143.434 110.559C142.184 113.975 141.131 117.631 140.254 121.485C136.788 136.592 135.845 154.501 135.012 171.338C131.064 251.515 185.853 346.23 257.377 382.881Z" fill="#4DA5FF" stroke="#26144D" stroke-width="1.5" stroke-linecap="round" stroke-linejoin="round"/>
<path d="M240.006 391.551C278.038 411.059 313.132 410.205 338.289 393.083C360.42 378.02 374.83 350.324 376.694 312.797C378.756 270.848 364.763 224.935 340.68 185.438L334.253 189.269L257.991 234.875L158.436 103.816L155.563 100.028C151.198 103.05 147.141 106.575 143.434 110.559C128.519 126.564 119.11 150.166 117.641 180.008C113.693 260.163 168.482 354.9 240.006 391.551Z" fill="#0069E9" stroke="#26144D" stroke-width="1.5" stroke-linecap="round" stroke-linejoin="round"/>
<path d="M241.037 387.018C270.822 402.782 298.59 405.387 320.677 396.936C349.365 385.945 368.491 356.322 370.07 312.643C371.518 272.183 357.656 227.693 334.253 189.269L257.991 234.875L158.436 103.815C151.527 108.413 145.408 114.325 140.254 121.484C129.528 136.372 123.014 156.624 122.115 181.387C119.307 258.696 172.561 350.761 241.037 387.018Z" fill="#0054CE" stroke="#26144D" stroke-width="1.5" stroke-linecap="round" stroke-linejoin="round"/>
<path d="M139.223 204.77C139.771 236.605 151.132 270.804 169.359 300.514C180.589 318.818 194.407 335.435 209.914 348.769C218.862 356.476 228.381 363.11 238.295 368.321C295.453 398.404 343.772 370.554 346.251 306.097C347.61 270.585 334.758 231.394 313.373 198.312C310.763 194.239 308.021 190.276 305.148 186.423C288.961 164.638 269.024 146.378 247.222 134.906C228.337 124.944 210.396 121.331 194.78 123.302C163.13 127.221 140.933 153.954 139.266 197.107C139.179 199.647 139.135 202.209 139.223 204.77Z" fill="#7D7D7B" stroke="#26144D" stroke-width="1.5" stroke-linecap="round" stroke-linejoin="round"/>
<g style="mix-blend-mode:multiply">
<path d="M139.223 204.77C154.313 205.799 181.905 208.492 195.218 214.492C214.103 223.008 254.328 259.528 254.328 259.528C254.328 259.528 279.924 248.559 282.973 247.355C285.43 246.37 305.542 211.886 313.373 198.312C315.303 194.984 316.487 192.904 316.487 192.904L305.148 186.423L194.78 123.302C163.13 127.221 140.933 153.954 139.266 197.107C139.179 199.647 139.135 202.209 139.223 204.77Z" fill="#B5B5B5"/>
</g>
<g style="mix-blend-mode:multiply">
<path d="M169.359 300.514C180.589 318.818 194.407 335.436 209.913 348.769L250.073 283.24L207.896 226.774L169.359 300.514Z" fill="#B5B5B5"/>
</g>
<path d="M168.854 247.662L204.979 310.17L242.199 288.998C249.306 287.859 254.021 281.401 254.021 270.957C254.021 254.668 242.572 234.853 228.425 226.709C220.025 221.87 212.567 222.242 207.896 226.774L168.854 247.662Z" fill="#D7D7D7" stroke="#26144D" stroke-width="1.5" stroke-linecap="round" stroke-linejoin="round"/>
<path d="M204.775 310.587C214.773 304.825 214.776 286.147 204.782 268.869C194.789 251.59 178.583 242.254 168.585 248.016C158.588 253.777 158.585 272.455 168.578 289.734C178.572 307.013 194.778 316.349 204.775 310.587Z" fill="#7D7D7B" stroke="#26144D" stroke-width="1.5" stroke-linecap="round" stroke-linejoin="round"/>
<path d="M37.2329 330.685L60.0874 372.218L195.372 302.397L195.174 302.047C198.42 300.405 200.46 296.573 200.46 291.012C200.46 280.328 192.937 267.301 183.637 261.959C178.746 259.134 174.338 259.003 171.267 261.083L171.157 260.886L37.2329 330.685Z" fill="#D7D7D7" stroke="#26144D" stroke-width="1.5" stroke-linecap="round" stroke-linejoin="round"/>
<path d="M61.4437 371.874C68.0108 368.089 68.0121 355.819 61.4466 344.467C54.8811 333.116 44.2351 326.981 37.6681 330.766C31.101 334.551 31.0997 346.821 37.6652 358.173C44.2306 369.524 54.8766 375.658 61.4437 371.874Z" fill="#7D7D7B" stroke="#26144D" stroke-width="1.5" stroke-linecap="round" stroke-linejoin="round"/>
<path d="M176.334 267.432L72.7212 321.576" stroke="white" stroke-width="1.5" stroke-linecap="round" stroke-linejoin="round"/>
<path d="M222.021 230.321L191.556 246.151" stroke="white" stroke-width="1.5" stroke-linecap="round" stroke-linejoin="round"/>
<path d="M231.781 1L232.395 55.7357" stroke="white" stroke-width="1.5" stroke-linecap="round" stroke-linejoin="round"/>
<path d="M353.05 369.941L330.502 357.768" stroke="#26144D" stroke-width="1.5" stroke-linecap="round" stroke-linejoin="round"/>
<path d="M340.548 383.625L319.229 369.635" stroke="#26144D" stroke-width="1.5" stroke-linecap="round" stroke-linejoin="round"/>
<path d="M325.327 394.265L304.6 376.925" stroke="#26144D" stroke-width="1.5" stroke-linecap="round" stroke-linejoin="round"/>
<path d="M307.955 400.352L287.535 380.581" stroke="#26144D" stroke-width="1.5" stroke-linecap="round" stroke-linejoin="round"/>
<path d="M284.794 401.271L268.651 379.377" stroke="#26144D" stroke-width="1.5" stroke-linecap="round" stroke-linejoin="round"/>
<path d="M261.04 396.105L252.201 374.802" stroke="#26144D" stroke-width="1.5" stroke-linecap="round" stroke-linejoin="round"/>
<path d="M241.037 387.018L238.273 368.32" stroke="#26144D" stroke-width="1.5" stroke-linecap="round" stroke-linejoin="round"/>
<path d="M225.07 377.845L224.17 360.198" stroke="#26144D" stroke-width="1.5" stroke-linecap="round" stroke-linejoin="round"/>
<path d="M211.054 366.898L211.668 351.09" stroke="#26144D" stroke-width="1.5" stroke-linecap="round" stroke-linejoin="round"/>
<path d="M197.96 355.031L200.087 340.428" stroke="#26144D" stroke-width="1.5" stroke-linecap="round" stroke-linejoin="round"/>
<path d="M185.458 342.858L189.121 327.356" stroke="#26144D" stroke-width="1.5" stroke-linecap="round" stroke-linejoin="round"/>
<path d="M173.877 329.174L179.361 316.716" stroke="#26144D" stroke-width="1.5" stroke-linecap="round" stroke-linejoin="round"/>
<path d="M361.889 352.907L337.807 344.696" stroke="#26144D" stroke-width="1.5" stroke-linecap="round" stroke-linejoin="round"/>
<path d="M367.065 334.056L342.697 331.013" stroke="#26144D" stroke-width="1.5" stroke-linecap="round" stroke-linejoin="round"/>
<path d="M342.083 204.464L322.584 212.696" stroke="#26144D" stroke-width="1.5" stroke-linecap="round" stroke-linejoin="round"/>
<path d="M350.001 220.293L329.582 226.686" stroke="#26144D" stroke-width="1.5" stroke-linecap="round" stroke-linejoin="round"/>
<path d="M354.87 234.284L335.372 239.451" stroke="#26144D" stroke-width="1.5" stroke-linecap="round" stroke-linejoin="round"/>
<path d="M360.069 248.888L339.035 253.135" stroke="#26144D" stroke-width="1.5" stroke-linecap="round" stroke-linejoin="round"/>
<path d="M364.324 264.389L343.29 267.125" stroke="#26144D" stroke-width="1.5" stroke-linecap="round" stroke-linejoin="round"/>
<path d="M367.679 282.342L345.439 283.546" stroke="#26144D" stroke-width="1.5" stroke-linecap="round" stroke-linejoin="round"/>
<path d="M369.807 298.762L346.646 298.149" stroke="#26144D" stroke-width="1.5" stroke-linecap="round" stroke-linejoin="round"/>
<path d="M369.193 316.41L346.053 313.673" stroke="#26144D" stroke-width="1.5" stroke-linecap="round" stroke-linejoin="round"/>
<path d="M149.509 261.958L139.464 268.351" stroke="#26144D" stroke-width="1.5" stroke-linecap="round" stroke-linejoin="round"/>
<path d="M146.461 252.237L136.108 259.222" stroke="#26144D" stroke-width="1.5" stroke-linecap="round" stroke-linejoin="round"/>
<path d="M143.412 242.188L132.445 247.968" stroke="#26144D" stroke-width="1.5" stroke-linecap="round" stroke-linejoin="round"/>
<path d="M141.898 231.854L129.396 236.714" stroke="#26144D" stroke-width="1.5" stroke-linecap="round" stroke-linejoin="round"/>
<path d="M139.749 220.906L125.734 225.46" stroke="#26144D" stroke-width="1.5" stroke-linecap="round" stroke-linejoin="round"/>
<path d="M139.464 209.652L124.527 212.696" stroke="#26144D" stroke-width="1.5" stroke-linecap="round" stroke-linejoin="round"/>
<path d="M139.267 197.129L122.093 198.99" stroke="#26144D" stroke-width="1.5" stroke-linecap="round" stroke-linejoin="round"/>
<path d="M140.363 186.532L122.707 186.839" stroke="#26144D" stroke-width="1.5" stroke-linecap="round" stroke-linejoin="round"/>
<path d="M224.324 52.8453L223.402 110.34L174.645 115.507L170.697 50.415L224.324 52.8453Z" fill="#C1C1C1" stroke="#26144D" stroke-width="1.5" stroke-linecap="round" stroke-linejoin="round"/>
<path d="M240.774 135.584L232.549 141.67L230.706 155.354L201.469 148.042L196.578 110.34L239.545 106.07L240.774 135.584Z" fill="#E0C379" stroke="#26144D" stroke-width="1.3" stroke-linecap="round" stroke-linejoin="round"/>
<path d="M232.856 136.504L233.426 154.61V155.048L233.47 156.033L273.103 149.202C272.994 149.158 272.884 149.093 272.774 149.027C272.16 148.677 271.678 148.348 271.458 148.086C271.305 147.954 271.239 147.845 271.239 147.757C271.239 146.838 273.389 137.117 273.389 137.117C273.389 137.117 261.808 129.497 247.178 131.928C233.141 134.27 232.856 136.328 232.856 136.504Z" fill="#FFE89F" stroke="#26144D" stroke-width="1.3" stroke-linecap="round" stroke-linejoin="round"/>
<path d="M233.47 156.033V156.274L267.291 171.775L277.643 151.413C277.643 151.413 274.989 150.253 273.103 149.202L233.47 156.033Z" fill="#E0C379" stroke="#26144D" stroke-width="1.3" stroke-linecap="round" stroke-linejoin="round"/>
<path d="M233.47 156.033L228.513 156.887" stroke="#26144D" stroke-width="1.3" stroke-linecap="round" stroke-linejoin="round"/>
<path d="M231.014 61.0557V85.3802C231.014 85.3802 239.853 84.1541 240.774 89.3431C241.695 94.532 242.002 110.033 242.002 110.033L220.069 112.157L220.683 63.1794L231.035 61.0557H231.014Z" fill="#D7D7D7" stroke="#26144D" stroke-width="1.5" stroke-linecap="round" stroke-linejoin="round"/>
<path d="M303.24 177.862C303.24 177.862 282.82 193.67 277.95 194.589C273.081 195.509 176.18 154.742 176.18 154.742L177.408 111.544C177.408 111.544 180.764 108.501 201.184 107.581C221.604 106.662 228.601 109.399 228.601 109.399L228.294 116.689C228.294 116.689 224.411 115.157 214.892 114.872C207.501 114.653 202.237 115.091 202.237 115.091L207.72 149.312C207.72 149.312 211.602 148.852 218.687 149.531C223.731 150.013 229.5 151.961 229.5 151.961L230.114 133.701L235.597 136.438L236.211 154.391C236.211 154.391 242.221 156.822 247.705 159.34C254.394 162.405 260.579 166.871 260.579 166.871C260.579 166.871 262.4 153.8 265.449 151.064C268.497 148.327 303.24 177.84 303.24 177.84V177.862Z" fill="#EFD489" stroke="#26144D" stroke-width="1.3" stroke-linecap="round" stroke-linejoin="round"/>
<path d="M195.372 115.813L201.469 148.042L176.18 154.742L166.573 119.01L195.372 115.813Z" fill="#E0C379" stroke="#26144D" stroke-width="1.3" stroke-linecap="round" stroke-linejoin="round"/>
<path d="M265.448 151.085C264.023 153.493 276.415 159.908 287.689 171.775C298.962 183.642 305.52 193.822 305.52 193.822L326.094 181.058C326.094 181.058 318.79 165.097 302.932 155.661C287.097 146.224 269.418 144.407 265.448 151.107V151.085Z" fill="#FFECB8" stroke="#26144D" stroke-width="1.3" stroke-linecap="round" stroke-linejoin="round"/>
<path d="M273.367 137.095C273.367 137.095 263.606 133.438 251.433 133.745C239.26 134.051 235.598 136.482 235.598 136.482L230.114 133.745C230.114 133.745 233.821 130.461 248.407 128.884C268.059 126.761 273.389 137.095 273.389 137.095H273.367Z" fill="#FFECB8" stroke="#26144D" stroke-width="1.3" stroke-linecap="round" stroke-linejoin="round"/>
<path d="M247.924 105.326V114.894L228.271 116.733L226.912 98.2545L236.957 98.0137L237.878 106.465L247.924 105.326Z" fill="#FFECB8" stroke="#26144D" stroke-width="1.3" stroke-linecap="round" stroke-linejoin="round"/>
<path d="M277.95 194.589C277.95 194.589 259.965 170.264 231.934 161.441C203.904 152.618 191.095 158.704 191.095 158.704L253.868 206.762L277.928 194.589H277.95Z" fill="#C1C1C1" stroke="#26144D" stroke-width="1.5" stroke-linecap="round" stroke-linejoin="round"/>
<path d="M305.52 193.823L294.554 179.679C294.554 179.679 266.216 194.742 260.733 197.479C255.249 200.216 250.687 199.296 241.541 189.269C232.395 179.241 220.068 170.111 207.259 162.361C194.45 154.61 182.585 150.494 182.585 150.494L178.022 65.1719L163.854 68.3684L169.337 160.084L215.506 184.255L248.867 218.476L265.777 216.659L305.542 193.845L305.52 193.823Z" fill="#D7D7D7" stroke="#26144D" stroke-width="1.5" stroke-linecap="round" stroke-linejoin="round"/>
<path d="M326.094 181.058C326.094 181.058 267.137 212.542 260.733 214.36C254.328 216.177 251.126 215.739 242.002 204.332C232.856 192.925 222.81 182.898 209.102 172.388C195.394 161.901 173.899 153.691 173.899 153.691L169.337 72.4846C169.337 72.4846 195.394 74.7617 218.248 71.1053C241.103 67.449 241.103 61.9754 241.103 61.9754V3.87793H154.855L160.673 102.13C160.673 102.13 144.223 108.982 128.673 114.456C113.122 119.93 114.504 150.494 121.369 164.178C128.234 177.862 146.965 190.188 161.134 186.532C175.303 182.876 190.393 178.781 210.045 193.823C229.697 208.886 236.562 219.373 239.304 223.928C242.046 228.482 250.271 228.482 258.496 224.847C266.721 221.191 289.575 208.886 289.575 208.886L304.665 197.939L316.553 192.925L326.16 181.058H326.094Z" fill="#7D7D7B" stroke="#26144D" stroke-width="1.5" stroke-linecap="round" stroke-linejoin="round"/>
</svg>
