<svg width="525" height="458" viewBox="0 0 525 458" fill="none" xmlns="http://www.w3.org/2000/svg">
<path d="M177.812 421.979L523.65 221.86L346.838 119.281L1 319.414L177.812 421.979Z" fill="#4DA4FF" stroke="#26144D" stroke-width="1.5" stroke-linecap="round" stroke-linejoin="round"/>
<path d="M178.1 456.68L523.951 256.56V221.585L178.1 421.718V456.68Z" fill="#D9D9D9" stroke="#26144D" stroke-width="1.5" stroke-linecap="round" stroke-linejoin="round"/>
<path d="M1.12305 354.362L177.949 456.94V421.965L1.12305 319.4V354.362Z" fill="#999999" stroke="#26144D" stroke-width="1.5" stroke-linecap="round" stroke-linejoin="round"/>
<g style="mix-blend-mode:multiply" opacity="0.46">
<path d="M178.475 354.471L235.475 388.471L445.975 266.957L398.671 240.971L178.475 354.471Z" fill="#B2B4B3"/>
</g>
<g clip-path="url(#clip0_813_22983)">
<path d="M347.003 294.716L338.163 288.583V271.179L347.003 266.041V294.716Z" fill="#D8D8D8" stroke="#26144D" stroke-width="1.5" stroke-linecap="round" stroke-linejoin="round"/>
<path d="M403.761 261.775L394.902 255.979V237.455L403.761 232.317V261.775Z" fill="#D8D8D8" stroke="#26144D" stroke-width="1.5" stroke-linecap="round" stroke-linejoin="round"/>
<path d="M210.928 300.85V373.471L72.6419 293.259V122.665L142.519 163.198V261.134L210.928 300.85Z" fill="#7D7D7B" stroke="#26144D" stroke-width="1.5" stroke-linecap="round" stroke-linejoin="round"/>
<path d="M419.497 179.305V252.637L403.761 261.775V232.317L394.902 237.455L361.184 257.028V286.486L347.004 294.717V266.041L338.163 271.179L304.444 290.752V319.427L210.999 373.667V300.334L419.497 179.305Z" fill="#D8D8D8" stroke="#26144D" stroke-width="1.5" stroke-linecap="round" stroke-linejoin="round"/>
<path d="M142.572 162.931L351.07 41.9014L281.088 1.33301L72.589 122.363L142.572 162.931Z" fill="#D8D8D8" stroke="#26144D" stroke-width="1.5" stroke-linecap="round" stroke-linejoin="round"/>
<path d="M211.175 300.495L419.674 179.465L349.691 138.896L141.193 259.926L211.175 300.495Z" fill="#D8D8D8" stroke="#26144D" stroke-width="1.5" stroke-linecap="round" stroke-linejoin="round"/>
<path d="M163.029 249.366L218.548 272.939L387.052 174.646L359.787 156.371L301.898 167.98L163.029 249.366Z" fill="#565656" stroke="#26144D" stroke-width="1.5" stroke-linecap="round" stroke-linejoin="round"/>
<path d="M338.163 271.179V288.583L304.445 308.156V290.752L338.163 271.179Z" fill="#7D7D7B" stroke="#26144D" stroke-width="1.5" stroke-linecap="round" stroke-linejoin="round"/>
<path d="M394.902 237.455V255.979L361.184 275.552V257.028L394.902 237.455Z" fill="#7D7D7B" stroke="#26144D" stroke-width="1.5" stroke-linecap="round" stroke-linejoin="round"/>
<path d="M350.964 115.057L142.466 236.104V162.772L350.964 41.7422V115.057Z" fill="#7D7D7B" stroke="#26144D" stroke-width="1.5" stroke-linecap="round" stroke-linejoin="round"/>
<path d="M151.978 239.73C152.349 238.255 163.029 169.722 163.029 169.722L335.475 68.9414L339.896 102.648L177.404 238.611L151.978 239.73Z" fill="#565656" stroke="#26144D" stroke-width="1.5" stroke-linecap="round" stroke-linejoin="round"/>
<path d="M382.172 138.362C382.172 140.14 382.03 141.794 381.73 143.322C380.669 149.225 377.61 153.153 373.331 154.664L363.005 160.549C364.314 159.553 365.445 158.273 366.347 156.709C367.938 153.936 368.858 150.273 368.858 145.847C368.858 145.242 368.858 144.638 368.805 144.016C368.61 140.442 367.885 136.745 366.701 133.065C365.463 129.278 363.766 125.527 361.715 121.989C360.159 119.34 358.408 116.816 356.499 114.487C354.094 111.536 351.406 108.941 348.56 106.825C347.446 105.989 346.314 105.243 345.165 104.567C343.892 103.838 342.654 103.216 341.434 102.754C336.572 100.816 332.187 100.887 328.792 102.701V102.647L340.285 96.3896H340.302C341.186 95.6607 342.177 95.1096 343.238 94.7007C345.607 93.7585 348.347 93.5807 351.371 94.2385C353.599 94.7185 355.986 95.6607 358.461 97.1007C359.999 98.0074 361.52 99.0385 362.97 100.23C365.074 101.901 367.09 103.874 368.946 106.043C372.005 109.581 374.693 113.652 376.832 117.936C378.282 120.816 379.467 123.803 380.351 126.789C381.518 130.718 382.154 134.647 382.154 138.38L382.172 138.362Z" fill="#D8D8D8" stroke="#26144D" stroke-width="1.5" stroke-linecap="round" stroke-linejoin="round"/>
<path d="M368.858 145.847C368.858 152.78 366.648 157.829 363.005 160.549C358.656 163.802 352.273 163.749 345.147 159.606C332.063 151.998 321.437 133.509 321.437 118.309C321.437 110.487 324.248 105.065 328.774 102.683C333.018 100.425 338.782 100.869 345.147 104.567C358.231 112.158 368.858 130.647 368.858 145.847Z" fill="#7D7D7B" stroke="#26144D" stroke-width="1.5" stroke-linecap="round" stroke-linejoin="round"/>
<path d="M351.371 94.2209L348.542 106.825C347.428 105.99 346.297 105.243 345.147 104.567C343.874 103.839 342.637 103.216 341.416 102.754L343.22 94.6832C345.589 93.7409 348.33 93.5632 351.353 94.2209H351.371Z" fill="#D8D8D8" stroke="#26144D" stroke-width="1.5" stroke-linecap="round" stroke-linejoin="round"/>
<path d="M368.964 106.025L361.715 121.989C360.159 119.341 358.408 116.816 356.499 114.487L362.988 100.212C365.092 101.883 367.107 103.856 368.964 106.025Z" fill="#D8D8D8" stroke="#26144D" stroke-width="1.5" stroke-linecap="round" stroke-linejoin="round"/>
<path d="M380.351 126.771L368.787 144.015C368.592 140.442 367.868 136.744 366.683 133.064L376.832 117.918C378.282 120.798 379.467 123.785 380.351 126.771Z" fill="#D8D8D8" stroke="#26144D" stroke-width="1.5" stroke-linecap="round" stroke-linejoin="round"/>
<path d="M381.73 143.322C380.669 149.224 377.61 153.153 373.331 154.664L363.005 160.549C364.314 159.553 365.445 158.273 366.347 156.709L381.73 143.322Z" fill="#D8D8D8" stroke="#26144D" stroke-width="1.5" stroke-linecap="round" stroke-linejoin="round"/>
<path d="M367.196 162.025C367.196 164.692 366.984 167.18 366.542 169.474C364.95 178.345 360.353 184.265 353.917 186.54L338.393 195.393C340.356 193.9 342.053 191.98 343.414 189.616C345.819 185.438 347.181 179.945 347.181 173.278C347.181 172.371 347.163 171.447 347.092 170.523C346.809 165.154 345.713 159.589 343.927 154.043C342.071 148.354 339.524 142.701 336.43 137.385C334.096 133.403 331.462 129.599 328.58 126.114C324.955 121.688 320.924 117.777 316.645 114.594C314.983 113.332 313.268 112.212 311.535 111.199C309.625 110.097 307.751 109.172 305.93 108.461C298.61 105.546 292.032 105.652 286.922 108.372V108.301L304.215 98.879H304.25C305.576 97.7946 307.062 96.9412 308.653 96.3368C312.207 94.9146 316.344 94.6479 320.888 95.6435C324.248 96.3724 327.837 97.7946 331.55 99.9457C333.866 101.297 336.147 102.861 338.34 104.657C341.505 107.181 344.528 110.132 347.34 113.385C351.937 118.701 355.986 124.816 359.186 131.27C361.361 135.607 363.147 140.087 364.473 144.585C366.223 150.487 367.196 156.407 367.196 162.025Z" fill="#D8D8D8" stroke="#26144D" stroke-width="1.5" stroke-linecap="round" stroke-linejoin="round"/>
<path d="M347.181 173.26C347.181 183.696 343.857 191.269 338.393 195.375C331.869 200.247 322.25 200.175 311.535 193.971C291.856 182.522 275.889 154.736 275.889 131.874C275.889 120.105 280.133 111.963 286.923 108.372C293.306 104.977 301.969 105.652 311.535 111.199C331.214 122.612 347.181 150.416 347.181 173.278V173.26Z" fill="#7D7D7B" stroke="#26144D" stroke-width="1.5" stroke-linecap="round" stroke-linejoin="round"/>
<path d="M320.888 95.6435L316.645 114.594C314.983 113.332 313.268 112.212 311.535 111.199C309.625 110.097 307.751 109.172 305.93 108.461L308.653 96.3368C312.207 94.9146 316.344 94.6479 320.888 95.6435Z" fill="#D8D8D8" stroke="#26144D" stroke-width="1.5" stroke-linecap="round" stroke-linejoin="round"/>
<path d="M347.34 113.385L336.43 137.385C334.097 133.403 331.462 129.598 328.58 126.114L338.34 104.656C341.505 107.181 344.529 110.132 347.34 113.385Z" fill="#D8D8D8" stroke="#26144D" stroke-width="1.5" stroke-linecap="round" stroke-linejoin="round"/>
<path d="M364.473 144.585L347.092 170.522C346.809 165.154 345.713 159.589 343.927 154.043L359.186 131.27C361.361 135.607 363.147 140.087 364.473 144.585Z" fill="#D8D8D8" stroke="#26144D" stroke-width="1.5" stroke-linecap="round" stroke-linejoin="round"/>
<path d="M366.542 169.474C364.95 178.345 360.353 184.265 353.917 186.54L338.393 195.393C340.355 193.9 342.053 191.98 343.414 189.616L366.542 169.474Z" fill="#D8D8D8" stroke="#26144D" stroke-width="1.5" stroke-linecap="round" stroke-linejoin="round"/>
<path d="M147.363 335.712L105.529 234.913" stroke="#26144D" stroke-width="1.5" stroke-linecap="round" stroke-linejoin="round"/>
<path d="M104.575 112.407L221.501 44.248" stroke="white" stroke-width="1.5" stroke-linecap="round" stroke-linejoin="round"/>
<path d="M317.6 160.016C317.6 162.718 316.857 164.798 315.602 166.114L313.126 167.571L277.481 188.46C275.111 189.864 272.494 190.522 269.931 190.522C264.785 190.522 259.764 187.856 256.97 183.073C252.797 175.891 255.184 166.665 262.328 162.451L297.885 141.634L300.82 139.909C302.535 139.554 304.604 139.981 306.832 141.261C312.773 144.709 317.6 153.118 317.6 160.016Z" fill="white" stroke="#26144D" stroke-width="1.5" stroke-linecap="round" stroke-linejoin="round"/>
<path d="M301.403 186.629C301.403 188.407 301.262 190.06 300.961 191.589C299.9 197.491 296.842 201.42 292.563 202.931L282.237 208.815C283.545 207.82 284.677 206.54 285.579 204.975C287.17 202.202 288.089 198.54 288.089 194.113C288.089 193.509 288.089 192.905 288.036 192.282C287.842 188.709 287.117 185.011 285.932 181.331C284.694 177.545 282.997 173.794 280.946 170.256C279.39 167.607 277.64 165.083 275.73 162.754C273.325 159.803 270.638 157.207 267.791 155.092C266.677 154.256 265.546 153.509 264.396 152.834C263.123 152.105 261.885 151.483 260.665 151.021C255.803 149.083 251.418 149.154 248.023 150.967V150.914L259.516 144.656H259.534C260.418 143.927 261.408 143.376 262.469 142.967C264.838 142.025 267.579 141.847 270.602 142.505C272.83 142.985 275.217 143.927 277.693 145.367C279.231 146.274 280.751 147.305 282.201 148.496C284.305 150.167 286.321 152.141 288.178 154.309C291.237 157.847 293.924 161.918 296.064 166.203C297.513 169.083 298.698 172.069 299.582 175.056C300.749 178.985 301.386 182.914 301.386 186.647L301.403 186.629Z" fill="#D8D8D8" stroke="#26144D" stroke-width="1.5" stroke-linecap="round" stroke-linejoin="round"/>
<path d="M288.107 194.096C288.107 201.029 285.897 206.078 282.254 208.798C277.905 212.051 271.522 211.998 264.396 207.855C251.312 200.247 240.686 181.758 240.686 166.558C240.686 158.736 243.497 153.314 248.023 150.932C252.267 148.674 258.031 149.118 264.396 152.816C277.48 160.407 288.107 178.896 288.107 194.096Z" fill="#7D7D7B" stroke="#26144D" stroke-width="1.5" stroke-linecap="round" stroke-linejoin="round"/>
<path d="M270.62 142.488L267.791 155.092C266.677 154.256 265.546 153.51 264.396 152.834C263.123 152.105 261.886 151.483 260.666 151.021L262.469 142.95C264.838 142.008 267.579 141.83 270.602 142.488H270.62Z" fill="#D8D8D8" stroke="#26144D" stroke-width="1.5" stroke-linecap="round" stroke-linejoin="round"/>
<path d="M288.195 154.274L280.946 170.238C279.39 167.59 277.64 165.065 275.73 162.736L282.219 148.461C284.323 150.132 286.339 152.105 288.195 154.274Z" fill="#D8D8D8" stroke="#26144D" stroke-width="1.5" stroke-linecap="round" stroke-linejoin="round"/>
<path d="M299.6 175.02L288.036 192.264C287.842 188.691 287.117 184.993 285.932 181.313L296.081 166.167C297.531 169.047 298.716 172.034 299.6 175.02Z" fill="#D8D8D8" stroke="#26144D" stroke-width="1.5" stroke-linecap="round" stroke-linejoin="round"/>
<path d="M300.979 191.571C299.918 197.473 296.859 201.402 292.58 202.913L282.254 208.798C283.563 207.802 284.694 206.522 285.596 204.958L300.979 191.571Z" fill="#D8D8D8" stroke="#26144D" stroke-width="1.5" stroke-linecap="round" stroke-linejoin="round"/>
<path d="M278.258 204.869C278.258 206.984 278.081 208.958 277.746 210.771C276.49 217.811 272.83 222.504 267.72 224.318L255.396 231.34C256.952 230.149 258.296 228.638 259.375 226.753C261.284 223.447 262.363 219.073 262.363 213.793C262.363 213.082 262.363 212.336 262.292 211.607C262.062 207.34 261.196 202.931 259.781 198.522C258.314 194.007 256.28 189.527 253.84 185.314C251.984 182.149 249.897 179.127 247.617 176.372C244.734 172.852 241.534 169.758 238.139 167.234C236.813 166.238 235.452 165.349 234.09 164.532C232.57 163.661 231.084 162.932 229.635 162.363C223.835 160.052 218.601 160.141 214.552 162.292V162.238L228.273 154.754H228.308C229.369 153.901 230.536 153.225 231.809 152.745C234.621 151.625 237.909 151.412 241.516 152.194C244.186 152.781 247.033 153.901 249.968 155.607C251.807 156.674 253.611 157.918 255.361 159.341C257.872 161.349 260.276 163.678 262.504 166.274C266.147 170.487 269.365 175.34 271.911 180.46C273.643 183.909 275.058 187.465 276.101 191.02C277.498 195.696 278.258 200.407 278.258 204.851V204.869Z" fill="#D8D8D8" stroke="#26144D" stroke-width="1.5" stroke-linecap="round" stroke-linejoin="round"/>
<path d="M262.38 213.793C262.38 222.06 259.746 228.086 255.396 231.339C250.216 235.215 242.595 235.144 234.09 230.219C218.478 221.135 205.8 199.091 205.8 180.94C205.8 171.607 209.159 165.136 214.552 162.291C219.609 159.607 226.487 160.123 234.073 164.531C249.685 173.598 262.363 195.642 262.363 213.775L262.38 213.793Z" fill="#7D7D7B" stroke="#26144D" stroke-width="1.5" stroke-linecap="round" stroke-linejoin="round"/>
<path d="M241.517 152.194L238.157 167.234C236.831 166.238 235.47 165.349 234.108 164.532C232.588 163.661 231.102 162.932 229.652 162.363L231.81 152.745C234.621 151.625 237.91 151.412 241.517 152.194Z" fill="#D8D8D8" stroke="#26144D" stroke-width="1.5" stroke-linecap="round" stroke-linejoin="round"/>
<path d="M262.504 166.274L253.841 185.314C251.984 182.149 249.898 179.127 247.617 176.372L255.361 159.341C257.872 161.35 260.277 163.679 262.504 166.274Z" fill="#D8D8D8" stroke="#26144D" stroke-width="1.5" stroke-linecap="round" stroke-linejoin="round"/>
<path d="M276.101 191.02L262.31 211.606C262.08 207.34 261.213 202.931 259.799 198.522L271.911 180.46C273.643 183.909 275.058 187.464 276.101 191.02Z" fill="#D8D8D8" stroke="#26144D" stroke-width="1.5" stroke-linecap="round" stroke-linejoin="round"/>
<path d="M277.746 210.771C276.49 217.811 272.83 222.505 267.72 224.318L255.396 231.34C256.952 230.149 258.296 228.638 259.375 226.754L277.728 210.771H277.746Z" fill="#D8D8D8" stroke="#26144D" stroke-width="1.5" stroke-linecap="round" stroke-linejoin="round"/>
<path d="M254 227.126C254 229.793 253.787 232.282 253.345 234.575C251.754 243.446 247.157 249.366 240.721 251.642L225.197 260.495C227.159 259.002 228.857 257.082 230.218 254.717C232.623 250.54 233.984 245.046 233.984 238.38C233.984 237.473 233.967 236.549 233.896 235.624C233.613 230.255 232.517 224.691 230.731 219.144C228.874 213.456 226.328 207.802 223.234 202.487C220.9 198.505 218.265 194.7 215.383 191.216C211.759 186.789 207.727 182.878 203.449 179.696C201.786 178.434 200.071 177.314 198.339 176.3C196.429 175.198 194.555 174.274 192.734 173.563C185.414 170.647 178.836 170.754 173.726 173.474V173.403L191.019 163.981H191.054C192.38 162.896 193.865 162.043 195.457 161.438C199.011 160.016 203.148 159.749 207.692 160.745C211.052 161.474 214.641 162.896 218.354 165.047C220.67 166.398 222.951 167.963 225.144 169.758C228.309 172.283 231.332 175.234 234.143 178.487C238.74 183.803 242.79 189.918 245.99 196.371C248.165 200.709 249.95 205.189 251.277 209.687C253.027 215.589 254 221.509 254 227.126Z" fill="#D8D8D8" stroke="#26144D" stroke-width="1.5" stroke-linecap="round" stroke-linejoin="round"/>
<path d="M234.002 238.379C234.002 248.815 230.678 256.388 225.214 260.495C218.69 265.366 209.071 265.295 198.356 259.09C178.677 247.641 162.711 219.855 162.711 196.993C162.711 185.224 166.954 177.082 173.744 173.491C180.127 170.096 188.791 170.771 198.356 176.318C218.036 187.731 234.002 215.535 234.002 238.397V238.379Z" fill="#7D7D7B" stroke="#26144D" stroke-width="1.5" stroke-linecap="round" stroke-linejoin="round"/>
<path d="M207.692 160.745L203.448 179.696C201.786 178.434 200.071 177.314 198.338 176.3C196.429 175.198 194.555 174.274 192.733 173.563L195.456 161.438C199.01 160.016 203.148 159.749 207.692 160.745Z" fill="#D8D8D8" stroke="#26144D" stroke-width="1.5" stroke-linecap="round" stroke-linejoin="round"/>
<path d="M234.144 178.487L223.234 202.486C220.9 198.504 218.266 194.7 215.384 191.215L225.144 169.758C228.309 172.282 231.332 175.233 234.144 178.487Z" fill="#D8D8D8" stroke="#26144D" stroke-width="1.5" stroke-linecap="round" stroke-linejoin="round"/>
<path d="M251.276 209.686L233.896 235.624C233.613 230.255 232.516 224.691 230.731 219.144L245.99 196.371C248.164 200.709 249.95 205.189 251.276 209.686Z" fill="#D8D8D8" stroke="#26144D" stroke-width="1.5" stroke-linecap="round" stroke-linejoin="round"/>
<path d="M253.345 234.575C251.754 243.446 247.157 249.366 240.721 251.642L225.197 260.495C227.159 259.002 228.857 257.082 230.218 254.717L253.345 234.575Z" fill="#D8D8D8" stroke="#26144D" stroke-width="1.5" stroke-linecap="round" stroke-linejoin="round"/>
<path d="M207.25 224.21C207.25 226.912 206.507 228.992 205.252 230.308L202.777 231.766L167.131 252.654C164.762 254.059 162.145 254.717 159.581 254.717C154.436 254.717 149.414 252.05 146.621 247.268C142.448 240.086 144.835 230.859 151.978 226.646L187.535 205.828L190.47 204.104C192.185 203.748 194.254 204.175 196.482 205.455C202.423 208.904 207.25 217.313 207.25 224.21Z" fill="#D8D8D8" stroke="#26144D" stroke-width="1.5" stroke-linecap="round" stroke-linejoin="round"/>
<path d="M96.335 212.744L105.529 234.913L147.363 335.712L159.634 365.312L178.801 353.952L178.5 266.646C178.27 243.357 161.756 215.18 141.582 203.713C135.8 200.442 130.354 198.878 125.527 198.878C120.7 198.878 116.863 200.3 113.627 202.985L96.335 212.744Z" fill="#D8D8D8" stroke="#26144D" stroke-width="1.5" stroke-linecap="round" stroke-linejoin="round"/>
<path d="M87.07 323.214L159.634 365.311L159.334 278.005C159.122 254.717 142.589 226.539 122.415 215.073C102.241 203.606 86.0622 213.206 86.2744 236.495L87.07 323.214Z" fill="#7D7D7B" stroke="#26144D" stroke-width="1.5" stroke-linecap="round" stroke-linejoin="round"/>
<path d="M87.6714 240.353L94.2665 252.406L115.131 290.628L122.486 304.068L135.765 296.512C141.582 294.45 145.295 288.264 145.295 278.913C145.295 262.504 133.837 242.558 119.71 234.362C111.842 229.793 104.805 229.829 100.119 233.58H100.101L87.6714 240.353Z" fill="#D8D8D8" stroke="#26144D" stroke-width="1.5" stroke-linecap="round" stroke-linejoin="round"/>
<path d="M87.2663 282.631C77.2766 265.234 77.2748 246.431 87.2624 240.634C97.2499 234.836 113.445 244.239 123.434 261.636C133.424 279.033 133.426 297.836 123.438 303.633C113.451 309.431 97.256 300.028 87.2663 282.631Z" fill="#7D7D7B" stroke="#26144D" stroke-width="1.5" stroke-linecap="round" stroke-linejoin="round"/>
<path d="M115.006 280.334C115.006 283.036 114.264 285.116 113.008 286.432L110.533 287.89L74.8874 308.778C72.5181 310.183 69.9012 310.841 67.3374 310.841C62.1921 310.841 57.1706 308.174 54.377 303.392C50.2042 296.21 52.5912 286.983 59.7344 282.77L95.2916 261.952L98.2267 260.228C99.9418 259.872 102.011 260.299 104.238 261.579C110.179 265.028 115.006 273.437 115.006 280.334Z" fill="white" stroke="#26144D" stroke-width="1.5" stroke-linecap="round" stroke-linejoin="round"/>
</g>
<path d="M84.1446 308.324C84.1446 315.146 81.4396 319.662 77.1907 321.158L69.0619 325.784C71.9309 323.629 73.6659 319.662 73.6659 314.199C73.6659 302.229 65.3049 287.679 54.9901 281.694C49.9762 278.784 45.4404 278.441 42.0933 280.212V280.17L51.1511 275.243C54.5666 272.497 59.7035 272.47 65.4551 275.805C75.7699 281.79 84.131 296.34 84.131 308.31L84.1446 308.324Z" fill="#D7D7D7" stroke="#26144D" stroke-width="1.5" stroke-linecap="round" stroke-linejoin="round"/>
<path d="M73.6525 314.213C73.6525 319.676 71.9037 323.643 69.0484 325.798C65.6329 328.351 60.5917 328.31 54.9766 325.057C44.6619 319.058 36.3008 304.508 36.3008 292.538C36.3008 286.375 38.5277 282.106 42.0798 280.226C45.4269 278.455 49.9627 278.798 54.9766 281.708C65.2914 287.693 73.6525 302.243 73.6525 314.213Z" fill="#7D7D7B" stroke="#26144D" stroke-width="1.5" stroke-linecap="round" stroke-linejoin="round"/>
<defs>
<clipPath id="clip0_813_22983">
<rect width="370" height="375" fill="white" transform="matrix(-1 0 0 1 421 0)"/>
</clipPath>
</defs>
</svg>
