<svg width="1447" height="1024" fill="none" xmlns="http://www.w3.org/2000/svg"><mask id="a" style="mask-type:alpha" maskUnits="userSpaceOnUse" x="0" y="0" width="1447" height="1024"><path fill="#D9D9D9" d="M0 0h1447v1024H0z"/></mask><g mask="url(#a)"><path d="M274.336 717.507c109.476-144.846 127.735-219.973 127.735-219.973l-59.026-17.172-587.113 745.728s13.597 13.24 32.191 3.22c18.593-10.02 367.699-355.01 486.213-511.828v.025z" fill="#EFEFEF" stroke="#26144D" stroke-width="1.5" stroke-linecap="round" stroke-linejoin="round"/><path d="M365.554 392.362l-34.355 97.654s8.447 16.349 28.612 27.549c25.752 14.314 41.153 6.797 41.153 6.797l57.969-63.31-93.379-68.664v-.026z" fill="#D2233C" stroke="#26144D" stroke-width="1.5" stroke-linecap="round" stroke-linejoin="round"/><path d="M546.956 253.952s-174.939-112.664-241.484-10.736c-70.95 108.674 114.832 203.882 114.832 203.882l126.652-193.146z" fill="#EFEFEF" stroke="#26144D" stroke-width="1.5" stroke-linecap="round" stroke-linejoin="round"/><path d="M879.682 289.379c-196.829 44.18-345.603 31.126-345.603 31.126l-6.438-61.172L1559.07-13.213s-11.46 38.619-21.48 51.492c-10.02 12.873-184.6 144.846-657.934 251.074l.026.026z" fill="#D6D6D6" stroke="#26144D" stroke-width="1.5" stroke-linecap="round" stroke-linejoin="round"/><path d="M454.658-80.821c36.131 157.204 15.013 269.328 15.013 269.328l-81.559 13.954-268.344-1036.53s51.505 12.873 67.627 28.964c16.095 16.091 212.512 486.083 267.237 724.284h.026z" fill="#EFEFEF" stroke="#26144D" stroke-width="1.5" stroke-linecap="round" stroke-linejoin="round"/><path d="M380.592 179.907s5.357 57.954 8.576 79.401c1.597 10.684 28.019 17.764 53.669 13.954 25.65-3.81 50.99-18.717 49.368-33.264-3.219-28.964-18.259-74.045-18.259-74.045s-17.177 17.173-49.368 20.391-44.012-6.437-44.012-6.437h.026zm237.777 478.127c-16.302 12.127-44.347 26.055-86.813 26.055-40.252 0-65.773-12.538-80.761-24.149l.463-24.845c15.452 10.453 39.737 20.519 75.817 20.519 44.964 0 73.756-15.627 89.594-28.14l1.725 30.56h-.025z" fill="#D2233C" stroke="#26144D" stroke-width="1.5" stroke-linecap="round" stroke-linejoin="round"/><path d="M527.049 655.614c-36.08 0-60.339-10.066-75.817-20.519l3.889-208.748 152.869 47.965 8.627 153.162c-15.812 12.513-44.629 28.14-89.594 28.14h.026z" fill="#D6D6D6" stroke="#26144D" stroke-width="1.5" stroke-linecap="round" stroke-linejoin="round"/><path d="M441.42 1195.69l9.374-535.776c14.988 11.612 40.535 24.15 80.761 24.15 42.466 0 70.511-13.955 86.813-26.055l30.543 537.681" fill="#D6D6D6"/><path d="M441.42 1195.69l9.374-535.776c14.988 11.612 40.535 24.15 80.761 24.15 42.466 0 70.511-13.955 86.813-26.055l30.543 537.681" stroke="#26144D" stroke-width="1.5" stroke-linecap="round" stroke-linejoin="round"/><path d="M932.245 608.062c-7.211 9.294-109.063 66.398-124.206 69.616 1.88-34.756 4.61-95.852.773-99.662 0 0 32.86-13.594 64.408-32.182 21.297-12.564 45.376-28.166 63.867-40.499.309.335.489.618.54.799 3.219 10.71 2.138 92.273-5.382 101.928z" fill="#D6D6D6" stroke="#26144D" stroke-width="1.5" stroke-linecap="round" stroke-linejoin="round"/><path d="M937.086 505.335c-18.491 12.333-42.569 27.935-63.867 40.498-31.547 18.589-64.408 32.183-64.408 32.183-4.61-4.609-319-199.814-406.766-254.267 8.576-13.98 138.447-84.807 143.83-79.426 5.253 5.252 375.012 242.398 391.211 261.012z" fill="#EFEFEF" stroke="#26144D" stroke-width="1.5" stroke-linecap="round" stroke-linejoin="round"/><path d="M808.039 677.678c-.592.129-1.056.181-1.365.129-8.576-1.081-404.629-222.11-404.629-222.11-6.438-7.518-8.576-117.916 0-131.947 87.766 54.452 402.157 249.657 406.766 254.266 3.838 3.81 1.108 64.905-.772 99.662z" fill="#999" stroke="#26144D" stroke-width="1.5" stroke-linecap="round" stroke-linejoin="round"/><path d="M862.583 302.38v172.627c0 5.689-5.769 10.298-12.876 10.298-7.108 0-12.877-4.609-12.877-10.298V302.38c0-1.879 1.236-3.733 3.76-5.149 5.048-2.858 13.185-2.858 18.207 0 2.524 1.416 3.786 3.27 3.786 5.149z" fill="#D6D6D6" stroke="#26144D" stroke-width="1.5" stroke-linecap="round" stroke-linejoin="round"/><path d="M862.583 302.38c0 1.854-1.262 3.734-3.786 5.15-5.022 2.832-13.159 2.832-18.207 0-2.524-1.416-3.76-3.296-3.76-5.15 0-1.853 1.236-3.733 3.76-5.149 5.048-2.858 13.185-2.858 18.207 0 2.524 1.416 3.786 3.27 3.786 5.149z" stroke="#26144D" stroke-width="1.4" stroke-linecap="round" stroke-linejoin="round"/><path d="M782.362 409.535v114.543c0 5.69-5.768 10.299-12.876 10.299s-12.877-4.609-12.877-10.299V409.535c0-1.88 1.236-3.733 3.76-5.149 5.048-2.858 13.186-2.858 18.208 0 2.523 1.416 3.785 3.269 3.785 5.149z" fill="#D6D6D6" stroke="#26144D" stroke-width="1.5" stroke-linecap="round" stroke-linejoin="round"/><path d="M782.362 409.535c0 1.853-1.262 3.733-3.785 5.149-5.022 2.832-13.16 2.832-18.208 0-2.524-1.416-3.76-3.296-3.76-5.149 0-1.854 1.236-3.733 3.76-5.149 5.048-2.858 13.186-2.858 18.208 0 2.523 1.416 3.785 3.269 3.785 5.149z" stroke="#26144D" stroke-width="1.4" stroke-linecap="round" stroke-linejoin="round"/><path d="M811.103 564.705l-35.667-20.596V511.9l35.667 20.597v32.208z" fill="#999" stroke="#26144D" stroke-width="1.5" stroke-linecap="round" stroke-linejoin="round"/><path d="M888.233 520.165l-76.692 44.257V532.24l76.692-44.283v32.208z" fill="#D6D6D6" stroke="#26144D" stroke-width="1.5" stroke-linecap="round" stroke-linejoin="round"/><path d="M810.613 532.369l76.667-44.258-35.694-20.596-76.666 44.257 35.693 20.597z" fill="#EFEFEF" stroke="#26144D" stroke-width="1.5" stroke-linecap="round" stroke-linejoin="round"/><path d="M849.63 644.647l-2.652 1.545c-1.417.823-2.576-.052-2.576-1.957v-60.76c0-1.906 1.159-4.12 2.576-4.944l2.652-1.544c1.417-.824 2.575.051 2.575 1.956v60.761c0 1.905-1.158 4.119-2.575 4.943zm14.473-8.368l-2.653 1.545c-1.416.824-2.575-.052-2.575-1.957v-60.76c0-1.905 1.159-4.119 2.575-4.943l2.653-1.545c1.416-.824 2.575.051 2.575 1.957v60.76c0 1.905-1.159 4.119-2.575 4.943zm15.193-8.754l-2.652 1.545c-1.417.824-2.576-.051-2.576-1.957v-60.76c0-1.905 1.159-4.119 2.576-4.943l2.652-1.545c1.417-.824 2.575.052 2.575 1.957v60.76c0 1.905-1.158 4.119-2.575 4.943zm14.938-8.65l-2.653 1.545c-1.416.824-2.575-.052-2.575-1.957v-60.76c0-1.906 1.159-4.12 2.575-4.944l2.653-1.544c1.416-.824 2.575.051 2.575 1.956v60.761c0 1.905-1.159 4.119-2.575 4.943zm14.24-8.213l-2.653 1.545c-1.416.824-2.575-.052-2.575-1.957v-60.76c0-1.905 1.159-4.12 2.575-4.944l2.653-1.544c1.416-.824 2.575.051 2.575 1.956v60.761c0 1.905-1.159 4.119-2.575 4.943z" stroke="#26144D" stroke-width="1.3" stroke-linecap="round" stroke-linejoin="round"/><path d="M806.854 217.471c6.912 0 12.516-6.409 12.516-14.315s-5.604-14.315-12.516-14.315c-6.913 0-12.516 6.409-12.516 14.315s5.603 14.315 12.516 14.315z" fill="#D6D6D6" stroke="#26144D" stroke-width="1.5" stroke-linecap="round" stroke-linejoin="round"/><path d="M850.145 198.161v103.73" stroke="#26144D" stroke-width="2" stroke-linecap="round" stroke-linejoin="round"/><path d="M812.957 204.598l35.771-1.442m18.594-22.167l-17.177 22.167m34.354 15.756l-35.05-15.756" stroke="#26144D" stroke-width="1.5" stroke-linecap="round" stroke-linejoin="round"/><path d="M866.909 193.862c6.486 0 11.744-7.055 11.744-15.757s-5.258-15.756-11.744-15.756c-6.485 0-11.743 7.054-11.743 15.756s5.258 15.757 11.743 15.757z" fill="#999" stroke="#26144D" stroke-width="1.5" stroke-linecap="round" stroke-linejoin="round"/><path d="M889.52 236.059c5.931 0 10.739-6.882 10.739-15.37 0-8.489-4.808-15.371-10.739-15.371-5.931 0-10.739 6.882-10.739 15.371 0 8.488 4.808 15.37 10.739 15.37z" fill="#D6D6D6" stroke="#26144D" stroke-width="1.5" stroke-linecap="round" stroke-linejoin="round"/><path d="M770.182 354.284v54.71" stroke="#26144D" stroke-width="2" stroke-linecap="round" stroke-linejoin="round"/><path d="M853.183 362.858l-64.408 10.736 63.687 37.202s1.777-48.994.721-47.938z" fill="#999" stroke="#26144D" stroke-width="1.5" stroke-linecap="round" stroke-linejoin="round"/><path d="M857.123 413.835l-162.062-94.591" stroke="#26144D" stroke-width="1.5" stroke-linecap="round" stroke-linejoin="round"/><path d="M466.53 690.757c1.725 76.903-3.425 156.716-3.657 233.104m5.718-364.819c-.335 18.099-.335 38.696-.902 57.67m-165.102-61.944L89.379 828.009m197.834-1066.55l95.517 372.672m-71.541 118.74s-15.735 22.888-10.018 58.649" stroke="#fff" stroke-width="1.5" stroke-linecap="round" stroke-linejoin="round"/></g></svg>