<svg width="390" height="561" fill="none" xmlns="http://www.w3.org/2000/svg"><mask id="a" style="mask-type:alpha" maskUnits="userSpaceOnUse" x="0" y="0" width="390" height="561"><path fill="#D9D9D9" d="M0 0h390v561H0z"/></mask><g mask="url(#a)"><path d="M65.464 360.9c44.867-59.364 52.35-90.153 52.35-90.153l-24.19-7.039L-147 569.339s5.573 5.424 13.193 1.319c7.621-4.104 150.698-145.497 199.27-209.768v.01z" fill="#EFEFEF" stroke="#26144D" stroke-width="1.5" stroke-linecap="round" stroke-linejoin="round"/><path d="M102.849 227.642l-14.08 40.023s3.462 6.7 11.727 11.29c10.554 5.867 16.866 2.786 16.866 2.786l23.758-25.947-38.271-28.141v-.011z" fill="#D2233C" stroke="#26144D" stroke-width="1.5" stroke-linecap="round" stroke-linejoin="round"/><path d="M177.193 170.915s-71.697-46.174-98.97-4.4c-29.078 44.539 47.063 83.559 47.063 83.559l51.907-79.159z" fill="#EFEFEF" stroke="#26144D" stroke-width="1.5" stroke-linecap="round" stroke-linejoin="round"/><path d="M313.56 185.434c-80.668 18.107-141.642 12.757-141.642 12.757l-2.639-25.07L592.001 61.42s-4.697 15.828-8.803 21.103c-4.106 5.276-75.655 59.364-269.648 102.901l.01.01z" fill="#D6D6D6" stroke="#26144D" stroke-width="1.5" stroke-linecap="round" stroke-linejoin="round"/><path d="M139.367 33.712c14.808 64.429 6.153 110.382 6.153 110.382l-33.426 5.719L2.115-275s21.11 5.276 27.716 11.871c6.597 6.595 87.097 199.216 109.525 296.84h.011z" fill="#EFEFEF" stroke="#26144D" stroke-width="1.5" stroke-linecap="round" stroke-linejoin="round"/><path d="M109.013 140.57s2.195 23.752 3.514 32.541c.655 4.379 11.484 7.281 21.996 5.719 10.512-1.561 20.898-7.671 20.233-13.633-1.319-11.87-7.483-30.346-7.483-30.346s-7.04 7.038-20.233 8.357c-13.193 1.319-18.038-2.638-18.038-2.638h.011zm97.451 195.955c-6.681 4.97-18.175 10.679-35.58 10.679-16.497 0-26.956-5.139-33.099-9.898l.19-10.182c6.333 4.284 16.286 8.41 31.073 8.41 18.428 0 30.228-6.405 36.719-11.534l.707 12.525h-.01z" fill="#D2233C" stroke="#26144D" stroke-width="1.5" stroke-linecap="round" stroke-linejoin="round"/><path d="M169.036 335.534c-14.787 0-24.73-4.126-31.073-8.41l1.594-85.553 62.652 19.658 3.535 62.772c-6.48 5.128-18.291 11.533-36.719 11.533h.011z" fill="#D6D6D6" stroke="#26144D" stroke-width="1.5" stroke-linecap="round" stroke-linejoin="round"/><path d="M133.939 556.877l3.842-219.581c6.143 4.759 16.613 9.897 33.099 9.897 17.405 0 28.899-5.719 35.58-10.678l12.518 220.362" fill="#D6D6D6"/><path d="M133.939 556.877l3.842-219.581c6.143 4.759 16.613 9.897 33.099 9.897 17.405 0 28.899-5.719 35.58-10.678l12.518 220.362" stroke="#26144D" stroke-width="1.5" stroke-linecap="round" stroke-linejoin="round"/><path d="M335.104 316.044c-2.955 3.809-44.699 27.213-50.905 28.532.771-14.245 1.889-39.284.317-40.846 0 0 13.467-5.571 26.397-13.19 8.728-5.149 18.597-11.543 26.175-16.598.127.138.201.254.222.327 1.319 4.39.876 37.818-2.206 41.775z" fill="#D6D6D6" stroke="#26144D" stroke-width="1.5" stroke-linecap="round" stroke-linejoin="round"/><path d="M337.085 273.943c-7.579 5.055-17.447 11.449-26.176 16.598-12.929 7.619-26.397 13.19-26.397 13.19-1.889-1.889-130.739-81.892-166.709-104.209 3.514-5.73 56.741-34.757 58.947-32.552 2.153 2.152 153.696 99.344 160.335 106.973z" fill="#EFEFEF" stroke="#26144D" stroke-width="1.5" stroke-linecap="round" stroke-linejoin="round"/><path d="M284.196 344.577c-.242.052-.432.073-.559.052-3.515-.443-165.834-91.029-165.834-91.029-2.638-3.082-3.514-48.327 0-54.078 35.97 22.317 164.821 102.32 166.71 104.209 1.573 1.561.454 26.601-.317 40.846z" fill="#999" stroke="#26144D" stroke-width="1.5" stroke-linecap="round" stroke-linejoin="round"/><path d="M306.551 190.764v70.749c0 2.332-2.365 4.221-5.278 4.221-2.913 0-5.277-1.889-5.277-4.221v-70.749c0-.771.507-1.53 1.541-2.111 2.069-1.171 5.404-1.171 7.462 0 1.034.581 1.552 1.34 1.552 2.111z" fill="#D6D6D6" stroke="#26144D" stroke-width="1.5" stroke-linecap="round" stroke-linejoin="round"/><path d="M306.551 190.764c0 .759-.518 1.53-1.552 2.11-2.058 1.161-5.393 1.161-7.462 0-1.034-.58-1.541-1.351-1.541-2.11 0-.76.507-1.53 1.541-2.111 2.069-1.171 5.404-1.171 7.462 0 1.034.581 1.552 1.34 1.552 2.111z" stroke="#26144D" stroke-width="1.4" stroke-linecap="round" stroke-linejoin="round"/><path d="M273.674 234.68v46.945c0 2.332-2.365 4.221-5.278 4.221-2.913 0-5.277-1.889-5.277-4.221V234.68c0-.77.507-1.53 1.541-2.11 2.069-1.171 5.404-1.171 7.462 0 1.035.58 1.552 1.34 1.552 2.11z" fill="#D6D6D6" stroke="#26144D" stroke-width="1.5" stroke-linecap="round" stroke-linejoin="round"/><path d="M273.674 234.68c0 .76-.517 1.53-1.552 2.111-2.058 1.16-5.393 1.16-7.462 0-1.034-.581-1.541-1.351-1.541-2.111 0-.76.507-1.53 1.541-2.11 2.069-1.171 5.404-1.171 7.462 0 1.035.58 1.552 1.34 1.552 2.11z" stroke="#26144D" stroke-width="1.4" stroke-linecap="round" stroke-linejoin="round"/><path d="M285.452 298.275l-14.618-8.441v-13.201l14.618 8.442v13.2z" fill="#999" stroke="#26144D" stroke-width="1.5" stroke-linecap="round" stroke-linejoin="round"/><path d="M317.06 280.021l-31.431 18.138v-13.19l31.431-18.149v13.201z" fill="#D6D6D6" stroke="#26144D" stroke-width="1.5" stroke-linecap="round" stroke-linejoin="round"/><path d="M285.252 285.022l31.421-18.138-14.629-8.442-31.421 18.139 14.629 8.441z" fill="#EFEFEF" stroke="#26144D" stroke-width="1.5" stroke-linecap="round" stroke-linejoin="round"/><path d="M301.242 331.039l-1.087.633c-.58.338-1.055-.021-1.055-.802v-24.902c0-.781.475-1.688 1.055-2.026l1.087-.633c.581-.338 1.056.021 1.056.802v24.902c0 .781-.475 1.688-1.056 2.026zm5.93-3.43l-1.087.633c-.581.338-1.056-.021-1.056-.801v-24.903c0-.78.475-1.688 1.056-2.025l1.087-.634c.58-.337 1.055.022 1.055.802v24.902c0 .781-.475 1.689-1.055 2.026zm6.226-3.587l-1.087.633c-.58.337-1.055-.022-1.055-.802v-24.902c0-.781.475-1.689 1.055-2.026l1.087-.633c.581-.338 1.056.021 1.056.801v24.903c0 .78-.475 1.688-1.056 2.026zm6.125-3.545l-1.087.633c-.58.337-1.055-.021-1.055-.802v-24.902c0-.781.475-1.689 1.055-2.026l1.087-.633c.581-.338 1.056.021 1.056.802v24.902c0 .78-.475 1.688-1.056 2.026zm5.838-3.367l-1.087.633c-.58.338-1.055-.021-1.055-.801v-24.903c0-.78.475-1.688 1.055-2.026l1.087-.633c.581-.337 1.056.022 1.056.802v24.902c0 .781-.475 1.689-1.056 2.026z" stroke="#26144D" stroke-width="1.3" stroke-linecap="round" stroke-linejoin="round"/><path d="M283.71 155.965c2.833 0 5.129-2.627 5.129-5.867s-2.296-5.867-5.129-5.867c-2.833 0-5.13 2.627-5.13 5.867s2.297 5.867 5.13 5.867z" fill="#D6D6D6" stroke="#26144D" stroke-width="1.5" stroke-linecap="round" stroke-linejoin="round"/><path d="M301.449 148.051v42.513" stroke="#26144D" stroke-width="2" stroke-linecap="round" stroke-linejoin="round"/><path d="M286.211 150.689l14.66-.591m7.618-9.085l-7.04 9.085m14.084 6.457l-14.365-6.457" stroke="#26144D" stroke-width="1.5" stroke-linecap="round" stroke-linejoin="round"/><path d="M308.323 146.289c2.658 0 4.813-2.891 4.813-6.458 0-3.566-2.155-6.457-4.813-6.457s-4.813 2.891-4.813 6.457c0 3.567 2.155 6.458 4.813 6.458z" fill="#999" stroke="#26144D" stroke-width="1.5" stroke-linecap="round" stroke-linejoin="round"/><path d="M317.591 163.583c2.43 0 4.401-2.821 4.401-6.3 0-3.479-1.971-6.299-4.401-6.299-2.431 0-4.402 2.82-4.402 6.299 0 3.479 1.971 6.3 4.402 6.3z" fill="#D6D6D6" stroke="#26144D" stroke-width="1.5" stroke-linecap="round" stroke-linejoin="round"/><path d="M268.682 212.036v22.422" stroke="#26144D" stroke-width="2" stroke-linecap="round" stroke-linejoin="round"/><path d="M302.702 215.551l-26.397 4.4 26.101 15.247s.728-20.08.296-19.647z" fill="#999" stroke="#26144D" stroke-width="1.5" stroke-linecap="round" stroke-linejoin="round"/><path d="M304.316 236.443l-66.42-38.767" stroke="#26144D" stroke-width="1.5" stroke-linecap="round" stroke-linejoin="round"/><path d="M144.231 349.937c.707 31.518-1.404 64.228-1.499 95.535m2.346-149.517c-.137 7.417-.137 15.859-.369 23.635m-67.666-25.387l-87.38 111.985M70.742-30.928l39.147 152.736M80.57 170.473s-6.45 9.38-4.106 24.036" stroke="#fff" stroke-width="1.5" stroke-linecap="round" stroke-linejoin="round"/></g></svg>