<svg width="1440" height="1262" viewBox="0 0 1440 1262" fill="none" xmlns="http://www.w3.org/2000/svg">
<path d="M751.766 1226.04L1.12695 805.023L689.342 419.02L1440 840.035L751.766 1226.04Z" fill="#E9E9E9" stroke="#26144D" stroke-width="1.5" stroke-linecap="round" stroke-linejoin="round"/>
<path d="M1440 875.757L1439.96 840.309L752.004 1225.8L752.04 1261.23L1440 875.757Z" fill="#B2B4B3" stroke="#26144D" stroke-width="1.5" stroke-linecap="round" stroke-linejoin="round"/>
<path d="M751.639 1261.07L1 840.035V804.605L751.639 1225.62V1261.07Z" fill="#7D7D7B" stroke="#26144D" stroke-width="1.5" stroke-linecap="round" stroke-linejoin="round"/>
<g style="mix-blend-mode:multiply">
<path d="M861.665 821.029C936.694 864.334 937.113 934.595 862.556 977.937C788.018 1021.26 666.716 1021.22 591.686 977.937C516.621 934.613 516.239 864.371 590.777 821.047C665.352 777.723 786.599 777.723 861.665 821.047V821.029Z" fill="#E9E9E9"/>
</g>
<g style="mix-blend-mode:multiply">
<path d="M567.858 980.429L631.446 1017.3L567.858 1054.18L504.287 1017.3L567.858 980.429Z" fill="#E9E9E9"/>
</g>
<g style="mix-blend-mode:multiply">
<path d="M877.16 994.833L940.731 1031.7L877.16 1068.59L813.572 1031.7L877.16 994.833Z" fill="#E9E9E9"/>
</g>
<g style="mix-blend-mode:multiply">
<path d="M875.633 788.654L939.222 825.521L875.633 862.407L812.063 825.521L875.633 788.654Z" fill="#E9E9E9"/>
</g>
<path d="M837.327 673.433L621.879 549.209V346.631L837.327 470.855V673.433Z" fill="#E40133" stroke="#26144D" stroke-width="1.5" stroke-linecap="round" stroke-linejoin="round"/>
<path d="M837.636 470.728L622.188 346.522L723.773 287.866L939.222 412.09L837.636 470.728Z" fill="#E9E9E9" stroke="#26144D" stroke-width="1.5" stroke-linecap="round" stroke-linejoin="round"/>
<path d="M837.472 673.397L939.057 614.74V412.163L837.472 470.801V673.397Z" fill="#D8D8D8" stroke="#26144D" stroke-width="1.5" stroke-linecap="round" stroke-linejoin="round"/>
<path d="M669.133 440.354L836.744 537.114" stroke="#26144D" stroke-width="1.5" stroke-linecap="round" stroke-linejoin="round"/>
<path d="M790.653 481.768L767.954 468.673C766.462 467.8 765.243 465.49 765.243 463.489V462.47C765.243 460.47 766.462 459.56 767.954 460.415L790.653 473.511C792.145 474.384 793.363 476.693 793.363 478.694V479.713C793.363 481.713 792.145 482.623 790.653 481.768Z" fill="white" stroke="#26144D" stroke-width="1.5" stroke-linecap="round" stroke-linejoin="round"/>
<path d="M669.133 504.521L836.744 601.281" stroke="#26144D" stroke-width="1.5" stroke-linecap="round" stroke-linejoin="round"/>
<path d="M790.653 545.935L767.954 532.84C766.462 531.967 765.243 529.657 765.243 527.656V526.637C765.243 524.637 766.462 523.727 767.954 524.582L790.653 537.678C792.145 538.551 793.363 540.86 793.363 542.861V543.88C793.363 545.88 792.145 546.79 790.653 545.935Z" fill="white" stroke="#26144D" stroke-width="1.5" stroke-linecap="round" stroke-linejoin="round"/>
<path d="M790.653 612.14L767.954 599.044C766.462 598.171 765.243 595.861 765.243 593.861V592.842C765.243 590.841 766.462 589.932 767.954 590.787L790.653 603.882C792.145 604.755 793.363 607.065 793.363 609.066V610.084C793.363 612.085 792.145 612.994 790.653 612.14Z" fill="white" stroke="#26144D" stroke-width="1.5" stroke-linecap="round" stroke-linejoin="round"/>
<path d="M852.297 382.079L767.155 332.699C762.28 329.88 756.278 329.825 751.367 332.59L699.419 361.836C696.636 363.4 696.618 367.401 699.365 369.002L784.507 418.382C789.382 421.201 795.384 421.256 800.295 418.491L852.243 389.245C855.026 387.681 855.044 383.68 852.297 382.079Z" fill="white"/>
<path d="M852.297 382.079L767.155 332.699C762.28 329.88 756.278 329.825 751.367 332.59L699.419 361.836C696.636 363.4 696.618 367.401 699.365 369.002L784.507 418.382C789.382 421.201 795.384 421.256 800.295 418.491L852.243 389.245C855.026 387.681 855.044 383.68 852.297 382.079Z" stroke="#26144D" stroke-width="1.5" stroke-linecap="round" stroke-linejoin="round"/>
<path d="M784.506 418.4L699.364 369.02C696.599 367.419 696.617 363.418 699.418 361.854L751.366 332.608C756.277 329.843 762.279 329.879 767.154 332.717L852.296 382.097C855.061 383.698 855.043 387.699 852.242 389.263L800.294 418.509C795.383 421.274 789.381 421.238 784.506 418.4Z" fill="#B2B4B3"/>
<path d="M784.506 418.4L699.364 369.02C696.599 367.419 696.617 363.418 699.418 361.854L751.366 332.608C756.277 329.843 762.279 329.879 767.154 332.717L852.296 382.097C855.061 383.698 855.043 387.699 852.242 389.263L800.294 418.509C795.383 421.274 789.381 421.238 784.506 418.4Z" stroke="#26144D" stroke-width="1.5" stroke-linecap="round" stroke-linejoin="round"/>
<path d="M699.364 369.02L715.188 378.205L751.366 357.835C756.277 355.07 762.28 355.107 767.154 357.944L836.472 398.139L852.26 389.264C855.043 387.7 855.061 383.698 852.315 382.098L767.173 332.717C762.298 329.898 756.295 329.844 751.384 332.608L699.437 361.854C696.654 363.419 696.636 367.42 699.382 369.02H699.364Z" fill="#7D7D7B" stroke="#26144D" stroke-width="1.5" stroke-linecap="round" stroke-linejoin="round"/>
<path d="M790.908 385.407C790.908 388.081 787.525 390.264 783.378 390.264C779.231 390.264 775.847 388.081 775.847 385.407C775.847 382.734 779.231 380.551 783.378 380.551C787.525 380.551 790.908 382.734 790.908 385.407Z" fill="white"/>
<path d="M790.908 385.407C790.908 388.081 787.525 390.264 783.378 390.264C779.231 390.264 775.847 388.081 775.847 385.407C775.847 382.734 779.231 380.551 783.378 380.551C787.525 380.551 790.908 382.734 790.908 385.407Z" stroke="#26144D" stroke-width="1.5" stroke-linecap="round" stroke-linejoin="round"/>
<path d="M758.132 351.05V335.372" stroke="white" stroke-width="1.5" stroke-linecap="round" stroke-linejoin="round"/>
<path d="M813.136 348.831L800.367 341.429L785.962 311.164L799.549 320.531L813.136 348.831Z" fill="white"/>
<path d="M813.136 348.831L800.367 341.429L785.962 311.164L799.549 320.531L813.136 348.831Z" stroke="#26144D" stroke-width="1.5" stroke-linecap="round" stroke-linejoin="round"/>
<path d="M813.137 348.832L819.54 345.976L804.443 312.965L777.378 325.897V330.716L799.55 320.531L813.137 348.832Z" fill="white"/>
<path d="M813.137 348.832L819.54 345.976L804.443 312.965L777.378 325.897V330.716L799.55 320.531L813.137 348.832Z" stroke="#26144D" stroke-width="1.5" stroke-linecap="round" stroke-linejoin="round"/>
<path d="M804.442 312.965L791.509 305.489L765.208 319.476L777.376 325.896L804.442 312.965Z" fill="white"/>
<path d="M804.442 312.965L791.509 305.489L765.208 319.476L777.376 325.896L804.442 312.965Z" stroke="#26144D" stroke-width="1.5" stroke-linecap="round" stroke-linejoin="round"/>
<path d="M777.376 330.716V325.896L765.208 319.476V324.769L777.376 330.716Z" fill="white"/>
<path d="M777.376 330.716V325.896L765.208 319.476V324.769L777.376 330.716Z" stroke="#26144D" stroke-width="1.5" stroke-linecap="round" stroke-linejoin="round"/>
<path d="M827.38 474.856L730.342 418.764" stroke="white" stroke-width="1.5" stroke-linecap="round" stroke-linejoin="round"/>
<path d="M827.38 539.532L730.342 483.44" stroke="white" stroke-width="1.5" stroke-linecap="round" stroke-linejoin="round"/>
<path d="M827.38 603.208L730.342 547.117" stroke="white" stroke-width="1.5" stroke-linecap="round" stroke-linejoin="round"/>
<path d="M555.854 705.389L724.556 608.01V405.433L555.854 502.811V705.389Z" fill="#E40133" stroke="#26144D" stroke-width="1.5" stroke-linecap="round" stroke-linejoin="round"/>
<path d="M555.545 502.702L724.23 405.305L622.663 346.667L453.96 444.045L555.545 502.702Z" fill="#E9E9E9" stroke="#26144D" stroke-width="1.5" stroke-linecap="round" stroke-linejoin="round"/>
<path d="M555.71 705.352L454.125 646.714V444.136L555.71 502.774V705.352Z" fill="white" stroke="#26144D" stroke-width="1.5" stroke-linecap="round" stroke-linejoin="round"/>
<path d="M724.048 472.31L556.437 569.07" stroke="#26144D" stroke-width="1.5" stroke-linecap="round" stroke-linejoin="round"/>
<path d="M627.301 494.644L650.001 481.549C651.492 480.676 652.711 478.366 652.711 476.365V475.347C652.711 473.346 651.492 472.437 650.001 473.292L627.301 486.387C625.81 487.26 624.591 489.57 624.591 491.571V492.589C624.591 494.59 625.81 495.499 627.301 494.644Z" fill="white" stroke="#26144D" stroke-width="1.5" stroke-linecap="round" stroke-linejoin="round"/>
<path d="M724.048 536.495L556.437 633.255" stroke="#26144D" stroke-width="1.5" stroke-linecap="round" stroke-linejoin="round"/>
<path d="M627.301 562.468L650.001 549.372C651.492 548.499 652.711 546.189 652.711 544.189V543.17C652.711 541.169 651.492 540.26 650.001 541.115L627.301 554.21C625.81 555.083 624.591 557.393 624.591 559.394V560.412C624.591 562.413 625.81 563.322 627.301 562.468Z" fill="white" stroke="#26144D" stroke-width="1.5" stroke-linecap="round" stroke-linejoin="round"/>
<path d="M627.301 628.053L650.001 614.958C651.492 614.085 652.711 611.775 652.711 609.774V608.756C652.711 606.755 651.492 605.846 650.001 606.7L627.301 619.796C625.81 620.669 624.591 622.979 624.591 624.979V625.998C624.591 627.999 625.81 628.908 627.301 628.053Z" fill="white" stroke="#26144D" stroke-width="1.5" stroke-linecap="round" stroke-linejoin="round"/>
<path d="M561.547 639.093L711.133 552.173" stroke="white" stroke-width="1.5" stroke-linecap="round" stroke-linejoin="round"/>
<path d="M561.547 574.399L711.133 487.479" stroke="white" stroke-width="1.5" stroke-linecap="round" stroke-linejoin="round"/>
<path d="M561.547 507.194L711.133 420.273" stroke="white" stroke-width="1.5" stroke-linecap="round" stroke-linejoin="round"/>
<path d="M606.092 397.939V397.848V386.208L605.419 386.353C605.292 386.244 605.165 386.153 605.001 386.062C603.564 385.225 601.218 385.225 599.781 386.062C599.581 386.189 599.399 386.317 599.253 386.444L598.708 386.189V397.83C598.708 398.394 599.053 398.939 599.799 399.376C601.236 400.212 603.582 400.212 605.019 399.376C605.692 398.976 606.056 398.466 606.092 397.957V397.939Z" fill="#7D7D7B" stroke="#26144D" stroke-width="1.5" stroke-linecap="round" stroke-linejoin="round"/>
<path d="M605.019 387.754C603.582 388.59 601.254 388.572 599.799 387.754C598.362 386.917 598.344 385.571 599.799 384.734C601.236 383.898 603.564 383.916 605.019 384.734C606.456 385.571 606.474 386.917 605.019 387.754Z" fill="white" stroke="#26144D" stroke-width="1.5" stroke-linecap="round" stroke-linejoin="round"/>
<path d="M628.973 390.391V390.3V378.66L628.3 378.805C628.173 378.696 628.046 378.605 627.882 378.514C626.445 377.678 624.099 377.678 622.662 378.514C622.462 378.642 622.28 378.769 622.134 378.896L621.589 378.642V390.282C621.589 390.846 621.934 391.391 622.68 391.828C624.117 392.664 626.463 392.664 627.9 391.828C628.573 391.428 628.937 390.918 628.973 390.409V390.391Z" fill="#7D7D7B" stroke="#26144D" stroke-width="1.5" stroke-linecap="round" stroke-linejoin="round"/>
<path d="M627.9 380.187C626.463 381.024 624.135 381.006 622.68 380.187C621.243 379.351 621.225 378.005 622.68 377.168C624.117 376.331 626.445 376.35 627.9 377.168C629.337 378.005 629.355 379.351 627.9 380.187Z" fill="white" stroke="#26144D" stroke-width="1.5" stroke-linecap="round" stroke-linejoin="round"/>
<path d="M583.902 390.391V390.3V378.66L583.229 378.805C583.101 378.696 582.974 378.605 582.81 378.514C581.373 377.678 579.027 377.678 577.59 378.514C577.39 378.642 577.208 378.769 577.062 378.896L576.517 378.642V390.282C576.517 390.846 576.862 391.391 577.608 391.828C579.045 392.664 581.391 392.664 582.828 391.828C583.501 391.428 583.865 390.918 583.902 390.409V390.391Z" fill="#7D7D7B" stroke="#26144D" stroke-width="1.5" stroke-linecap="round" stroke-linejoin="round"/>
<path d="M582.828 380.187C581.391 381.024 579.063 381.006 577.608 380.187C576.171 379.351 576.153 378.005 577.608 377.168C579.045 376.331 581.373 376.35 582.828 377.168C584.265 378.005 584.283 379.351 582.828 380.187Z" fill="white" stroke="#26144D" stroke-width="1.5" stroke-linecap="round" stroke-linejoin="round"/>
<path d="M631.031 310.327L635.614 313L628.248 313.491L631.031 310.327Z" fill="white" stroke="#26144D" stroke-width="1.5" stroke-linecap="round" stroke-linejoin="round"/>
<path d="M634.031 330.315C633.867 337.081 631.885 342.956 628.12 347.739C625.319 351.304 622.427 353.123 622.154 353.305V355.16C619.953 357.088 618.334 358.07 618.043 358.234V350.904C618.316 350.74 621.19 348.921 623.991 345.338C627.756 340.555 629.739 334.68 629.902 327.914C629.993 324.349 629.502 321.694 628.429 319.984C629.248 320.021 630.066 320.221 630.794 320.621C633.049 321.912 634.14 325.168 634.013 330.315H634.031Z" fill="white" stroke="#26144D" stroke-width="1.5" stroke-linecap="round" stroke-linejoin="round"/>
<path d="M636.287 324.423C635.996 336.427 631.085 345.011 626.992 350.086C625.283 352.214 623.591 353.887 622.154 355.142V353.287C622.427 353.105 625.319 351.286 628.12 347.721C631.885 342.92 633.868 337.063 634.031 330.297C634.159 325.15 633.067 321.895 630.812 320.603C630.084 320.185 629.266 320.003 628.447 319.967C627.974 319.185 627.392 318.603 626.683 318.202C625.282 317.402 623.609 317.438 622.118 317.766C619.935 318.221 618.134 319.294 618.098 319.312L617.916 312.091C618.243 311.891 625.828 307.344 631.212 310.418C631.94 310.836 632.576 311.346 633.14 311.982C635.377 314.456 636.432 318.621 636.305 324.423H636.287Z" fill="white" stroke="#26144D" stroke-width="1.5" stroke-linecap="round" stroke-linejoin="round"/>
<path d="M640.417 326.823C640.126 338.827 635.215 347.412 631.122 352.468C626.793 357.834 622.628 360.344 622.173 360.598V355.124V353.269C622.446 353.087 625.338 351.268 628.139 347.703C631.904 342.902 633.887 337.045 634.05 330.279C634.178 325.132 633.086 321.876 630.831 320.585C630.103 320.167 629.285 319.985 628.466 319.948C625.465 319.803 622.282 321.694 622.228 321.713L622.137 317.766L622.046 314.474C622.319 314.31 628.103 310.854 633.141 311.964C633.905 312.127 634.633 312.4 635.342 312.8C638.889 314.819 640.599 319.53 640.417 326.805V326.823Z" fill="#7D7D7B" stroke="#26144D" stroke-width="1.5" stroke-linecap="round" stroke-linejoin="round"/>
<path d="M617.916 312.109L622.045 314.492L622.209 321.731L618.098 319.33L617.916 312.109Z" fill="white" stroke="#26144D" stroke-width="1.5" stroke-linecap="round" stroke-linejoin="round"/>
<path d="M622.154 353.305L622.172 360.617L618.043 358.216V350.886L622.154 353.305Z" fill="white" stroke="#26144D" stroke-width="1.5" stroke-linecap="round" stroke-linejoin="round"/>
<path d="M629.903 378.678C629.957 382.715 627.32 386.735 621.99 389.827C611.386 395.938 594.161 395.92 583.484 389.772C577.955 386.571 575.281 382.352 575.481 378.205C574.881 374.185 570.97 345.594 580.174 319.73H625.119C635.068 347.631 629.884 378.696 629.884 378.696L629.903 378.678Z" fill="white" stroke="#26144D" stroke-width="1.5" stroke-linecap="round" stroke-linejoin="round"/>
<path d="M618.826 331.116C609.968 336.227 595.562 336.209 586.649 331.062C577.737 325.915 577.682 317.603 586.54 312.492C595.398 307.381 609.804 307.399 618.716 312.546C627.629 317.694 627.684 326.006 618.826 331.116Z" fill="white" stroke="#26144D" stroke-width="1.5" stroke-linecap="round" stroke-linejoin="round"/>
<path d="M618.917 312.437C627.811 317.584 627.775 325.933 618.808 331.098C609.84 336.263 595.38 336.3 586.468 331.153C577.573 326.005 577.61 317.657 586.577 312.492C595.526 307.326 610.004 307.29 618.917 312.437Z" fill="#248CFF" stroke="#26144D" stroke-width="1.5" stroke-linecap="round" stroke-linejoin="round"/>
<path d="M592.688 339.301C592.688 339.301 586.94 379.842 581.702 376.641C575.827 373.039 568.442 347.649 568.442 347.649" fill="#E9E9E9"/>
<path d="M592.688 339.301C592.688 339.301 586.94 379.842 581.702 376.641C575.827 373.039 568.442 347.649 568.442 347.649" stroke="#26144D" stroke-width="1.5" stroke-linecap="round" stroke-linejoin="round"/>
<path d="M592.688 339.301C592.688 339.301 571.28 349.341 568.424 347.631C565.568 345.922 579.992 332.462 579.992 332.462L592.688 339.283V339.301Z" fill="#7D7D7B" stroke="#26144D" stroke-width="1.5" stroke-linecap="round" stroke-linejoin="round"/>
<path d="M613.003 315.839C618.66 319.094 618.624 324.405 612.931 327.697C607.237 330.989 598.052 331.007 592.395 327.734C586.738 324.478 586.775 319.167 592.468 315.875C598.161 312.583 607.347 312.565 613.003 315.839Z" stroke="white" stroke-width="1.5" stroke-linecap="round" stroke-linejoin="round"/>
<path d="M836.344 284.846L644.979 174.372V42.6187L836.344 153.092V284.846Z" fill="#E40133" stroke="#26144D" stroke-width="1.5" stroke-linecap="round" stroke-linejoin="round"/>
<path d="M836.344 153.42L644.979 42.946L718.044 0.768066L909.391 111.242L836.344 153.42Z" fill="white" stroke="#26144D" stroke-width="1.5" stroke-linecap="round" stroke-linejoin="round"/>
<path d="M909.537 242.668L836.472 284.846V153.092L909.537 110.915V242.668Z" fill="#D8D8D8" stroke="#26144D" stroke-width="1.5" stroke-linecap="round" stroke-linejoin="round"/>
<path d="M735.778 95.0361V225.499" stroke="#26144D" stroke-width="1.5" stroke-linecap="round" stroke-linejoin="round"/>
<path d="M750.293 227.081L748.22 225.881C747.147 225.262 746.274 223.589 746.274 222.152V202.873C746.274 201.436 747.147 200.781 748.22 201.4L750.293 202.6C751.367 203.219 752.24 204.892 752.24 206.329V225.608C752.24 227.045 751.367 227.7 750.293 227.081Z" fill="white" stroke="#26144D" stroke-width="1.5" stroke-linecap="round" stroke-linejoin="round"/>
<path d="M725.046 212.185L722.973 210.985C721.9 210.366 721.027 208.693 721.027 207.256V187.977C721.027 186.54 721.9 185.885 722.973 186.504L725.046 187.704C726.12 188.323 726.993 189.996 726.993 191.433V210.712C726.993 212.149 726.12 212.804 725.046 212.185Z" fill="white" stroke="#26144D" stroke-width="1.5" stroke-linecap="round" stroke-linejoin="round"/>
<path d="M741.455 190.451V105.949" stroke="white" stroke-width="1.5" stroke-linecap="round" stroke-linejoin="round"/>
<path d="M650.491 138.906V54.4043" stroke="white" stroke-width="1.5" stroke-linecap="round" stroke-linejoin="round"/>
<path d="M947.915 190.851L1107.2 281.009L1007.27 336.41L847.985 246.252L947.915 190.851Z" fill="white" stroke="#26144D" stroke-width="1.5" stroke-linecap="round" stroke-linejoin="round"/>
<path d="M1007.27 336.41V747.804L1109.78 689.402L1107.2 281.009L1007.27 336.41Z" fill="#D8D8D8" stroke="#26144D" stroke-width="1.5" stroke-linecap="round" stroke-linejoin="round"/>
<path d="M1007.27 336.41L847.985 246.252V654.645L1007.27 747.804V336.41Z" fill="white" stroke="#26144D" stroke-width="1.5" stroke-linecap="round" stroke-linejoin="round"/>
<path d="M999.116 341.411L856.133 260.493V627.09L999.116 710.7V341.411Z" fill="#248CFF" stroke="#26144D" stroke-width="1.5" stroke-linecap="round" stroke-linejoin="round"/>
<path d="M848.057 506.049L1007.34 596.207L996.807 603.155L837.526 512.997L848.057 506.049Z" fill="white" stroke="#26144D" stroke-width="1.5" stroke-linecap="round" stroke-linejoin="round"/>
<path d="M1007.37 747.258L996.807 754.152V603.155L1007.34 596.207L1007.37 747.258Z" fill="white" stroke="#26144D" stroke-width="1.5" stroke-linecap="round" stroke-linejoin="round"/>
<path d="M996.807 603.154V754.006L837.526 664.357V512.997L996.807 603.154Z" fill="#E9E9E9" stroke="#26144D" stroke-width="1.5" stroke-linecap="round" stroke-linejoin="round"/>
<path d="M847.913 249.925L986.949 340.047L975.781 345.103L835.454 254.945L847.913 249.925Z" fill="white" stroke="#26144D" stroke-width="1.5" stroke-linecap="round" stroke-linejoin="round"/>
<path d="M986.985 593.533L975.781 599.644V345.121L986.949 340.047L986.985 593.533Z" fill="#D8D8D8" stroke="#26144D" stroke-width="1.5" stroke-linecap="round" stroke-linejoin="round"/>
<path d="M975.781 345.121V599.153L835.435 509.013V254.945L975.781 345.121Z" fill="#E9E9E9" stroke="#26144D" stroke-width="1.5" stroke-linecap="round" stroke-linejoin="round"/>
<path d="M843.549 498.1V276.752" stroke="white" stroke-width="1.5" stroke-linecap="round" stroke-linejoin="round"/>
<path d="M844.058 527.401V648.187" stroke="white" stroke-width="1.5" stroke-linecap="round" stroke-linejoin="round"/>
<path d="M957.758 427.349V555.701" stroke="#26144D" stroke-width="1.5" stroke-linecap="round" stroke-linejoin="round"/>
<path d="M578.48 463.598V468.727L542.648 446.865V441.736L571.114 459.105L578.48 463.598Z" fill="#565656" stroke="#26144D" stroke-width="1.5" stroke-linecap="round" stroke-linejoin="round"/>
<path d="M595.905 452.867L578.48 463.598L571.113 459.106L588.211 448.175L595.905 452.867Z" fill="#565656" stroke="#26144D" stroke-width="1.5" stroke-linecap="round" stroke-linejoin="round"/>
<path d="M588.211 448.174L571.114 459.105L542.648 441.736L560.073 431.023L588.211 448.174Z" fill="#248CFF" stroke="#26144D" stroke-width="1.5" stroke-linecap="round" stroke-linejoin="round"/>
<path d="M595.906 452.867V457.996L578.481 468.727V463.598L595.906 452.867Z" fill="#565656" stroke="#26144D" stroke-width="1.5" stroke-linecap="round" stroke-linejoin="round"/>
<path d="M560.293 435.934L551.126 441.626L569.951 453.176" stroke="white" stroke-width="1.5" stroke-linecap="round" stroke-linejoin="round"/>
<path d="M1264.24 419.765L1185.46 374.295V244.669L1264.24 290.157V419.765Z" fill="#D8D8D8" stroke="#26144D" stroke-width="1.5" stroke-linecap="round" stroke-linejoin="round"/>
<path d="M1255.8 403.996L1193.89 368.238V259.656L1255.8 295.395V403.996Z" fill="#B2B4B3" stroke="#26144D" stroke-width="1.5" stroke-linecap="round" stroke-linejoin="round"/>
<path d="M1007.67 748.385L1118.76 812.516V609.411L1007.67 545.28V748.385Z" fill="#E40133" stroke="#26144D" stroke-width="1.5" stroke-linecap="round" stroke-linejoin="round"/>
<path d="M1118.65 812.662L1220.49 753.86V550.755L1118.65 609.538V812.662Z" fill="white" stroke="#26144D" stroke-width="1.5" stroke-linecap="round" stroke-linejoin="round"/>
<path d="M1118.71 609.466L1007.61 545.335L1109.45 486.533L1220.55 550.682L1118.71 609.466Z" fill="white" stroke="#26144D" stroke-width="1.5" stroke-linecap="round" stroke-linejoin="round"/>
<path d="M1007.63 555.466L1118.73 619.597" stroke="#26144D" stroke-width="1.5" stroke-linecap="round" stroke-linejoin="round"/>
<path d="M1007.63 614.358L1118.73 678.507" stroke="#26144D" stroke-width="1.5" stroke-linecap="round" stroke-linejoin="round"/>
<path d="M1007.63 681.236L1118.73 745.385" stroke="#26144D" stroke-width="1.5" stroke-linecap="round" stroke-linejoin="round"/>
<path d="M1012.34 625.943L1109.38 682.544" stroke="white" stroke-width="1.5" stroke-linecap="round" stroke-linejoin="round"/>
<path d="M1012.34 566.814L1109.38 623.415" stroke="white" stroke-width="1.5" stroke-linecap="round" stroke-linejoin="round"/>
<path d="M1012.34 692.147L1109.38 748.748" stroke="white" stroke-width="1.5" stroke-linecap="round" stroke-linejoin="round"/>
<path d="M1118.33 812.552L1250.49 887.851V685.255L1118.33 609.975V812.552Z" fill="white" stroke="#26144D" stroke-width="1.5" stroke-linecap="round" stroke-linejoin="round"/>
<path d="M1250.36 887.978L1351.95 829.321V626.744L1250.36 685.382V887.978Z" fill="#D8D8D8" stroke="#26144D" stroke-width="1.5" stroke-linecap="round" stroke-linejoin="round"/>
<path d="M1250.43 685.309L1118.29 610.029L1219.86 551.391L1352 626.671L1250.43 685.309Z" fill="white" stroke="#26144D" stroke-width="1.5" stroke-linecap="round" stroke-linejoin="round"/>
<path d="M1214.95 797.402L1228.57 805.259C1231.59 807.005 1234.03 805.15 1234.03 801.13V788.29C1234.03 784.27 1231.59 779.614 1228.57 777.868L1214.95 770.011V797.402Z" fill="white" stroke="#26144D" stroke-width="1.5" stroke-linecap="round" stroke-linejoin="round"/>
<path d="M1189.64 686.599C1193.4 684.429 1193.4 677.395 1189.64 670.888C1185.88 664.381 1179.79 660.865 1176.03 663.035C1172.27 665.204 1172.27 672.238 1176.03 678.745C1179.79 685.252 1185.88 688.768 1189.64 686.599Z" fill="#666666" stroke="#26144D" stroke-width="1.5" stroke-linecap="round" stroke-linejoin="round"/>
<path d="M1153.76 668.886L1133.72 657.318C1131.66 656.136 1129.99 652.953 1129.99 650.207V639.767C1129.99 637.02 1131.66 635.765 1133.72 636.948L1153.76 648.515C1155.82 649.697 1157.49 652.88 1157.49 655.627V666.067C1157.49 668.813 1155.82 670.068 1153.76 668.886Z" fill="#D8D8D8" stroke="#26144D" stroke-width="1.5" stroke-linecap="round" stroke-linejoin="round"/>
<path d="M1231.48 711.718L1211.44 700.151C1209.38 698.968 1207.71 695.786 1207.71 693.039V682.599C1207.71 679.853 1209.38 678.598 1211.44 679.78L1231.48 691.348C1233.54 692.53 1235.21 695.713 1235.21 698.459V708.899C1235.21 711.645 1233.54 712.9 1231.48 711.718Z" fill="#D8D8D8" stroke="#26144D" stroke-width="1.5" stroke-linecap="round" stroke-linejoin="round"/>
<path d="M1234.52 866.716L1214.48 855.149C1212.42 853.966 1210.75 850.784 1210.75 848.037V837.597C1210.75 834.851 1212.42 833.596 1214.48 834.778L1234.52 846.346C1236.58 847.528 1238.25 850.711 1238.25 853.457V863.897C1238.25 866.644 1236.58 867.898 1234.52 866.716Z" fill="white" stroke="#26144D" stroke-width="1.5" stroke-linecap="round" stroke-linejoin="round"/>
<path d="M1185.52 677.088L1180.13 673.996V658.5L1185.52 661.592V677.088Z" fill="#666666" stroke="#26144D" stroke-width="1.5" stroke-linecap="round" stroke-linejoin="round"/>
<path d="M1250.43 736.999L1118.29 661.719" stroke="#26144D" stroke-width="1.5" stroke-linecap="round" stroke-linejoin="round"/>
<path d="M1208.41 814.943C1224.78 805.496 1224.78 774.861 1208.41 746.52C1192.05 718.178 1165.52 702.86 1149.15 712.308C1132.79 721.755 1132.79 752.389 1149.15 780.731C1165.52 809.073 1192.05 824.39 1208.41 814.943Z" fill="#D8D8D8" stroke="#26144D" stroke-width="1.5" stroke-linecap="round" stroke-linejoin="round"/>
<path d="M1210.69 782.015C1210.69 784.634 1210.46 787.035 1210 789.235C1206.96 804.168 1194.16 809.278 1178.81 800.421C1161.18 790.254 1146.9 765.518 1146.9 745.184C1146.9 728.742 1156.22 720.212 1169.09 722.922C1172.15 723.54 1175.42 724.813 1178.81 726.76C1196.41 736.945 1210.69 761.662 1210.69 782.015Z" fill="#666666" stroke="#26144D" stroke-width="1.5" stroke-linecap="round" stroke-linejoin="round"/>
<path d="M1209.16 783.143C1209.16 785.762 1208.93 788.162 1208.47 790.363C1203.51 792.964 1196.8 792.437 1189.41 788.162C1174.13 779.359 1161.75 757.916 1161.75 740.273C1161.75 732.889 1163.93 727.342 1167.57 724.05C1170.62 724.668 1173.9 725.941 1177.28 727.887C1194.89 738.073 1209.16 762.79 1209.16 783.143Z" fill="#909090"/>
<path d="M1186.45 796.438C1168.84 786.271 1154.54 761.535 1154.54 741.201" stroke="white" stroke-width="1.5" stroke-linecap="round" stroke-linejoin="round"/>
<path d="M877.165 861.369V729.361L869.49 724.923V856.931L877.165 861.369Z" fill="white" stroke="#26144D" stroke-width="1.5" stroke-linecap="round" stroke-linejoin="round"/>
<path d="M884.822 724.923V856.931L877.164 861.369V729.361L884.822 724.923Z" fill="#B2B4B3" stroke="#26144D" stroke-width="1.5" stroke-linecap="round" stroke-linejoin="round"/>
<path d="M929.221 830.595V698.587L921.564 694.149V826.157L929.221 830.595Z" fill="white" stroke="#26144D" stroke-width="1.5" stroke-linecap="round" stroke-linejoin="round"/>
<path d="M936.88 694.149V826.157L929.222 830.595V698.587L936.88 694.149Z" fill="#B2B4B3" stroke="#26144D" stroke-width="1.5" stroke-linecap="round" stroke-linejoin="round"/>
<path d="M825.089 830.595V698.587L817.432 694.149V826.157L825.089 830.595Z" fill="white" stroke="#26144D" stroke-width="1.5" stroke-linecap="round" stroke-linejoin="round"/>
<path d="M832.747 694.149V826.157L825.089 830.595V698.587L832.747 694.149Z" fill="#B2B4B3" stroke="#26144D" stroke-width="1.5" stroke-linecap="round" stroke-linejoin="round"/>
<path d="M877.163 738.073V728.561L813.574 691.694V701.188L877.163 738.073Z" fill="#004DA9" stroke="#26144D" stroke-width="1.5" stroke-linecap="round" stroke-linejoin="round"/>
<path d="M877.163 654.809L940.733 691.694L877.163 728.561L813.574 691.694L877.163 654.809Z" fill="#0069EA" stroke="#26144D" stroke-width="1.5" stroke-linecap="round" stroke-linejoin="round"/>
<path d="M940.733 691.694V701.188L877.162 738.073V728.561L940.733 691.694Z" fill="#0069EA" stroke="#26144D" stroke-width="1.5" stroke-linecap="round" stroke-linejoin="round"/>
<path d="M824.469 691.966L877.908 661.647" stroke="white" stroke-width="1.5" stroke-linecap="round" stroke-linejoin="round"/>
<path d="M387.805 803.241L556.489 705.844V503.266L387.805 600.645V803.241Z" fill="white" stroke="#26144D" stroke-width="1.5" stroke-linecap="round" stroke-linejoin="round"/>
<path d="M387.478 600.535L556.181 503.139L454.595 444.5L285.911 541.897L387.478 600.535Z" fill="#B2B4B3" stroke="#26144D" stroke-width="1.5" stroke-linecap="round" stroke-linejoin="round"/>
<path d="M387.642 803.186L286.057 744.548V541.97L387.642 600.608V803.186Z" fill="white" stroke="#26144D" stroke-width="1.5" stroke-linecap="round" stroke-linejoin="round"/>
<path d="M417.926 766.391L526.368 703.788C529.06 702.242 531.225 698.077 531.225 694.494V598.043C531.225 594.46 529.042 592.823 526.368 594.369L417.926 656.972C415.234 658.518 413.069 662.683 413.069 666.266V762.717C413.069 766.3 415.252 767.937 417.926 766.391Z" fill="#666666" stroke="#26144D" stroke-width="1.5" stroke-linecap="round" stroke-linejoin="round"/>
<path d="M535.994 557.027C540.102 549.911 540.097 542.217 535.982 539.841C531.867 537.465 525.201 541.308 521.092 548.424C516.984 555.54 516.989 563.234 521.104 565.61C525.219 567.986 531.885 564.143 535.994 557.027Z" fill="#7D7D7B" stroke="#26144D" stroke-width="1.5" stroke-linecap="round" stroke-linejoin="round"/>
<path d="M517.2 563.413L539.9 550.318C541.392 549.445 542.61 547.135 542.61 545.134V544.116C542.61 542.115 541.392 541.206 539.9 542.061L517.2 555.156C515.709 556.029 514.49 558.339 514.49 560.34V561.358C514.49 563.359 515.709 564.268 517.2 563.413Z" fill="#7D7D7B" stroke="#26144D" stroke-width="1.5" stroke-linecap="round" stroke-linejoin="round"/>
<path d="M500.589 577.458C504.697 570.342 504.692 562.647 500.577 560.272C496.462 557.896 489.796 561.739 485.687 568.855C481.579 575.971 481.584 583.665 485.699 586.041C489.814 588.416 496.48 584.574 500.589 577.458Z" fill="#7D7D7B" stroke="#26144D" stroke-width="1.5" stroke-linecap="round" stroke-linejoin="round"/>
<path d="M481.806 583.857L504.506 570.762C505.997 569.889 507.216 567.579 507.216 565.578V564.56C507.216 562.559 505.997 561.65 504.506 562.505L481.806 575.6C480.314 576.473 479.096 578.783 479.096 580.783V581.802C479.096 583.803 480.314 584.712 481.806 583.857Z" fill="#7D7D7B" stroke="#26144D" stroke-width="1.5" stroke-linecap="round" stroke-linejoin="round"/>
<path d="M464.809 598.125C468.917 591.009 468.912 583.315 464.797 580.939C460.682 578.564 454.016 582.406 449.907 589.522C445.798 596.638 445.804 604.333 449.918 606.708C454.033 609.084 460.7 605.241 464.809 598.125Z" fill="#7D7D7B" stroke="#26144D" stroke-width="1.5" stroke-linecap="round" stroke-linejoin="round"/>
<path d="M446.01 604.519L468.71 591.424C470.201 590.551 471.42 588.241 471.42 586.24V585.221C471.42 583.221 470.201 582.311 468.71 583.166L446.01 596.262C444.519 597.135 443.3 599.444 443.3 601.445V602.464C443.3 604.464 444.519 605.374 446.01 604.519Z" fill="#7D7D7B" stroke="#26144D" stroke-width="1.5" stroke-linecap="round" stroke-linejoin="round"/>
<path d="M429.519 618.498C433.628 611.382 433.623 603.687 429.508 601.312C425.393 598.936 418.726 602.779 414.618 609.895C410.509 617.011 410.514 624.705 414.629 627.081C418.744 629.456 425.411 625.614 429.519 618.498Z" fill="#7D7D7B" stroke="#26144D" stroke-width="1.5" stroke-linecap="round" stroke-linejoin="round"/>
<path d="M410.722 624.889L433.421 611.794C434.913 610.921 436.132 608.611 436.132 606.611V605.592C436.132 603.591 434.913 602.682 433.421 603.537L410.722 616.632C409.23 617.505 408.011 619.815 408.011 621.816V622.834C408.011 624.835 409.23 625.744 410.722 624.889Z" fill="#7D7D7B" stroke="#26144D" stroke-width="1.5" stroke-linecap="round" stroke-linejoin="round"/>
<path d="M555.98 560.049L388.387 656.809" stroke="#26144D" stroke-width="1.5" stroke-linecap="round" stroke-linejoin="round"/>
<path d="M460.87 651.934L483.57 638.839C485.062 637.966 486.28 635.656 486.28 633.655V632.637C486.28 630.636 485.062 629.727 483.57 630.582L460.87 643.677C459.379 644.55 458.16 646.86 458.16 648.861V649.879C458.16 651.88 459.379 652.789 460.87 651.934Z" fill="#B2B4B3" stroke="#26144D" stroke-width="1.5" stroke-linecap="round" stroke-linejoin="round"/>
<path d="M308.774 528.929L410.359 587.567" stroke="#26144D" stroke-width="1.5" stroke-linecap="round" stroke-linejoin="round"/>
<path d="M432.914 456.941L534.481 515.579" stroke="#26144D" stroke-width="1.5" stroke-linecap="round" stroke-linejoin="round"/>
<path d="M470.803 533.167C484.856 533.167 496.249 526.588 496.249 518.471C496.249 510.355 484.856 503.775 470.803 503.775C456.749 503.775 445.356 510.355 445.356 518.471C445.356 526.588 456.749 533.167 470.803 533.167Z" fill="#7D7D7B" stroke="#26144D" stroke-width="1.5" stroke-linecap="round" stroke-linejoin="round"/>
<path d="M419.509 562.796C433.562 562.796 444.955 556.216 444.955 548.1C444.955 539.983 433.562 533.404 419.509 533.404C405.455 533.404 394.062 539.983 394.062 548.1C394.062 556.216 405.455 562.796 419.509 562.796Z" fill="white" stroke="#26144D" stroke-width="1.5" stroke-linecap="round" stroke-linejoin="round"/>
<path d="M425.076 506.776C439.13 506.776 450.522 500.197 450.522 492.08C450.522 483.964 439.13 477.384 425.076 477.384C411.022 477.384 399.63 483.964 399.63 492.08C399.63 500.197 411.022 506.776 425.076 506.776Z" fill="#7D7D7B" stroke="#26144D" stroke-width="1.5" stroke-linecap="round" stroke-linejoin="round"/>
<path d="M373.781 536.386C387.835 536.386 399.227 529.807 399.227 521.691C399.227 513.574 387.835 506.995 373.781 506.995C359.727 506.995 348.335 513.574 348.335 521.691C348.335 529.807 359.727 536.386 373.781 536.386Z" fill="#7D7D7B" stroke="#26144D" stroke-width="1.5" stroke-linecap="round" stroke-linejoin="round"/>
<path d="M418.528 759.352V670.922" stroke="white" stroke-width="1.5" stroke-linecap="round" stroke-linejoin="round"/>
<path d="M408.414 580.473L325.546 532.966" stroke="white" stroke-width="1.5" stroke-linecap="round" stroke-linejoin="round"/>
<path d="M451.886 461.706L534.264 509.722" stroke="white" stroke-width="1.5" stroke-linecap="round" stroke-linejoin="round"/>
<path d="M525.17 695.695V636.056" stroke="white" stroke-width="1.5" stroke-linecap="round" stroke-linejoin="round"/>
<path d="M451.358 504.939C451.14 504.939 450.94 504.83 450.831 504.63C450.667 504.339 450.758 503.975 451.049 503.794L454.323 501.902C454.814 501.611 455.105 501.265 455.105 500.92C455.105 500.574 454.814 500.229 454.323 499.938L448.448 496.555C447.193 495.827 445.083 495.827 443.828 496.555L440.554 498.446C440.263 498.61 439.899 498.519 439.717 498.228C439.553 497.937 439.644 497.573 439.935 497.391L443.209 495.5C444.846 494.554 447.411 494.554 449.048 495.5L454.923 498.883C455.814 499.392 456.306 500.12 456.306 500.92C456.306 501.72 455.814 502.429 454.923 502.957L451.649 504.848C451.558 504.903 451.449 504.921 451.34 504.921L451.358 504.939Z" fill="white" stroke="#26144D" stroke-width="1.5" stroke-linecap="round" stroke-linejoin="round"/>
<path d="M388.862 508.741V547.535C388.934 552.064 391.954 556.557 397.938 560.012C410.034 566.997 429.641 566.997 441.719 560.012C447.83 556.484 450.868 551.846 450.795 547.208V508.413L388.88 508.741H388.862Z" fill="white" stroke="#26144D" stroke-width="1.5" stroke-linecap="round" stroke-linejoin="round"/>
<path d="M419.819 526.455C436.917 526.455 450.777 518.451 450.777 508.577C450.777 498.702 436.917 490.698 419.819 490.698C402.722 490.698 388.862 498.702 388.862 508.577C388.862 518.451 402.722 526.455 419.819 526.455Z" fill="white" stroke="#26144D" stroke-width="1.5" stroke-linecap="round" stroke-linejoin="round"/>
<path d="M442.264 505.085C429.86 498.046 409.761 498.046 397.374 505.085C393.336 507.376 390.626 510.141 389.225 513.069C390.626 515.998 393.336 518.762 397.374 521.054C409.779 528.093 429.878 528.093 442.264 521.054C446.302 518.762 449.013 515.998 450.413 513.069C449.013 510.141 446.302 507.376 442.264 505.085Z" fill="white" stroke="#26144D" stroke-width="1.5" stroke-linecap="round" stroke-linejoin="round"/>
<path d="M402.466 537.059C402.12 537.059 401.866 536.786 401.866 536.459V534.076L399.501 535.44C397.864 536.386 395.3 536.386 393.663 535.44L387.788 532.057C386.896 531.548 386.405 530.82 386.405 530.02C386.405 529.22 386.896 528.511 387.788 527.983L391.062 526.092C391.243 525.982 391.48 525.982 391.662 526.092C391.844 526.201 391.971 526.401 391.971 526.619V530.111C391.971 530.457 391.698 530.711 391.371 530.711C391.043 530.711 390.77 530.439 390.77 530.111V527.674L388.406 529.038C387.915 529.329 387.624 529.675 387.624 530.02C387.624 530.366 387.915 530.711 388.406 531.002L394.281 534.385C395.536 535.113 397.646 535.113 398.901 534.385L402.175 532.494C402.357 532.385 402.593 532.385 402.775 532.494C402.957 532.603 403.084 532.803 403.084 533.021V536.459C403.084 536.804 402.812 537.059 402.484 537.059H402.466Z" fill="white" stroke="#26144D" stroke-width="1.5" stroke-linecap="round" stroke-linejoin="round"/>
<path d="M387.642 803.713L276.835 867.68V665.102L387.642 601.135V803.713Z" fill="#E40133" stroke="#26144D" stroke-width="1.5" stroke-linecap="round" stroke-linejoin="round"/>
<path d="M276.943 867.808L175.376 809.17V606.592L276.943 665.23V867.808Z" fill="white" stroke="#26144D" stroke-width="1.5" stroke-linecap="round" stroke-linejoin="round"/>
<path d="M276.889 665.157L387.696 601.19L286.129 542.552L175.304 606.519L276.889 665.157Z" fill="#E9E9E9" stroke="#26144D" stroke-width="1.5" stroke-linecap="round" stroke-linejoin="round"/>
<path d="M327.691 667.54L293.715 687.146C292.532 687.819 291.586 687.11 291.586 685.546V683.818C291.586 682.254 292.532 680.435 293.715 679.744L327.691 660.137C328.874 659.464 329.82 660.174 329.82 661.738V663.466C329.82 665.03 328.874 666.849 327.691 667.54Z" fill="white" stroke="#26144D" stroke-width="1.5" stroke-linecap="round" stroke-linejoin="round"/>
<path d="M387.679 611.303L276.872 675.27" stroke="#26144D" stroke-width="1.5" stroke-linecap="round" stroke-linejoin="round"/>
<path d="M284.094 703.77V853.857" stroke="white" stroke-width="1.5" stroke-linecap="round" stroke-linejoin="round"/>
<path d="M726.576 828.066L726.048 1016.71L738.726 1009.35L739.272 820.682L726.576 828.066Z" fill="#B2B4B3" stroke="#26144D" stroke-width="1.5" stroke-linecap="round" stroke-linejoin="round"/>
<path d="M713.807 820.682L713.28 1009.35L726.048 1016.71L726.576 828.066L713.807 820.682Z" fill="white" stroke="#26144D" stroke-width="1.5" stroke-linecap="round" stroke-linejoin="round"/>
<path d="M739.272 820.682L726.503 813.334L713.808 820.682L726.576 828.066L739.272 820.682Z" fill="white" stroke="#26144D" stroke-width="1.5" stroke-linecap="round" stroke-linejoin="round"/>
<path d="M560.402 713.974L559.875 902.638L572.552 895.253L573.098 706.607L560.402 713.974Z" fill="#B2B4B3" stroke="#26144D" stroke-width="1.5" stroke-linecap="round" stroke-linejoin="round"/>
<path d="M547.633 706.607L547.106 895.253L559.875 902.638L560.402 713.974L547.633 706.607Z" fill="white" stroke="#26144D" stroke-width="1.5" stroke-linecap="round" stroke-linejoin="round"/>
<path d="M573.098 706.607L560.33 699.241L547.634 706.607L560.403 713.973L573.098 706.607Z" fill="white" stroke="#26144D" stroke-width="1.5" stroke-linecap="round" stroke-linejoin="round"/>
<path d="M891.332 722.14L890.786 910.804L903.482 903.419L904.01 714.773L891.332 722.14Z" fill="#B2B4B3" stroke="#26144D" stroke-width="1.5" stroke-linecap="round" stroke-linejoin="round"/>
<path d="M878.563 714.773L878.018 903.419L890.786 910.804L891.332 722.14L878.563 714.773Z" fill="white" stroke="#26144D" stroke-width="1.5" stroke-linecap="round" stroke-linejoin="round"/>
<path d="M878.563 714.773L878.018 903.419L890.786 910.804L891.332 722.14L878.563 714.773Z" fill="white" stroke="#26144D" stroke-width="1.5" stroke-linecap="round" stroke-linejoin="round"/>
<path d="M904.01 714.774L891.241 707.408L878.564 714.774L891.332 722.14L904.01 714.774Z" fill="white" stroke="#26144D" stroke-width="1.5" stroke-linecap="round" stroke-linejoin="round"/>
<path d="M917.105 744.002C916.941 744.02 916.778 744.057 916.614 744.093C912.885 769.083 894.605 793.455 861.683 812.589C787.145 855.913 665.843 855.895 590.814 812.589C557.146 793.146 538.52 768.301 534.919 742.911C534.883 742.911 534.846 742.911 534.81 742.911C534.61 742.856 534.428 742.802 534.228 742.747V749.822C534.119 778.395 552.999 807.023 590.759 828.831C665.788 872.155 787.072 872.155 861.629 828.831C898.661 807.314 917.214 779.141 917.287 750.932V744.02C917.287 744.02 917.123 744.02 917.105 744.02V744.002Z" fill="#B2B4B3" stroke="#26144D" stroke-width="1.5" stroke-linecap="round" stroke-linejoin="round"/>
<path d="M860.793 665.339C935.822 708.645 936.24 778.905 861.684 822.247C787.146 865.57 665.844 865.534 590.814 822.247C515.748 778.923 515.366 708.681 589.905 665.357C664.479 622.033 785.727 622.033 860.793 665.357V665.339Z" fill="white" stroke="#26144D" stroke-width="1.5" stroke-linecap="round" stroke-linejoin="round"/>
<path d="M567.862 1052.4V920.39L560.204 915.934V1047.96L567.862 1052.4Z" fill="white" stroke="#26144D" stroke-width="1.5" stroke-linecap="round" stroke-linejoin="round"/>
<path d="M575.537 915.934V1047.96L567.861 1052.4V920.39L575.537 915.934Z" fill="#B2B4B3" stroke="#26144D" stroke-width="1.5" stroke-linecap="round" stroke-linejoin="round"/>
<path d="M619.936 1021.62V889.615L612.278 885.159V1017.19L619.936 1021.62Z" fill="white" stroke="#26144D" stroke-width="1.5" stroke-linecap="round" stroke-linejoin="round"/>
<path d="M627.594 885.159V1017.19L619.936 1021.62V889.615L627.594 885.159Z" fill="#B2B4B3" stroke="#26144D" stroke-width="1.5" stroke-linecap="round" stroke-linejoin="round"/>
<path d="M515.804 1021.62V889.615L508.146 885.159V1017.19L515.804 1021.62Z" fill="white" stroke="#26144D" stroke-width="1.5" stroke-linecap="round" stroke-linejoin="round"/>
<path d="M523.461 885.159V1017.19L515.803 1021.62V889.615L523.461 885.159Z" fill="#B2B4B3" stroke="#26144D" stroke-width="1.5" stroke-linecap="round" stroke-linejoin="round"/>
<path d="M567.859 929.083V919.589L504.289 882.704V892.216L567.859 929.083Z" fill="#004DA9" stroke="#26144D" stroke-width="1.5" stroke-linecap="round" stroke-linejoin="round"/>
<path d="M567.859 845.837L631.447 882.704L567.859 919.589L504.289 882.704L567.859 845.837Z" fill="#0069EA" stroke="#26144D" stroke-width="1.5" stroke-linecap="round" stroke-linejoin="round"/>
<path d="M631.447 882.704V892.216L567.858 929.083V919.589L631.447 882.704Z" fill="#0069EA" stroke="#26144D" stroke-width="1.5" stroke-linecap="round" stroke-linejoin="round"/>
<path d="M515.566 882.794L569.005 852.475" stroke="white" stroke-width="1.5" stroke-linecap="round" stroke-linejoin="round"/>
<path d="M866.16 1072.11V940.088L858.502 935.65V1067.66L866.16 1072.11Z" fill="white" stroke="#26144D" stroke-width="1.5" stroke-linecap="round" stroke-linejoin="round"/>
<path d="M873.817 935.65V1067.66L866.16 1072.11V940.088L873.817 935.65Z" fill="#B2B4B3" stroke="#26144D" stroke-width="1.5" stroke-linecap="round" stroke-linejoin="round"/>
<path d="M918.234 1041.34V909.313L910.577 904.875V1036.88L918.234 1041.34Z" fill="white" stroke="#26144D" stroke-width="1.5" stroke-linecap="round" stroke-linejoin="round"/>
<path d="M925.892 904.875V1036.88L918.235 1041.34V909.313L925.892 904.875Z" fill="#B2B4B3" stroke="#26144D" stroke-width="1.5" stroke-linecap="round" stroke-linejoin="round"/>
<path d="M814.102 1041.34V909.313L806.445 904.875V1036.88L814.102 1041.34Z" fill="white" stroke="#26144D" stroke-width="1.5" stroke-linecap="round" stroke-linejoin="round"/>
<path d="M821.759 904.875V1036.88L814.102 1041.34V909.313L821.759 904.875Z" fill="#B2B4B3" stroke="#26144D" stroke-width="1.5" stroke-linecap="round" stroke-linejoin="round"/>
<path d="M866.158 948.799V939.287L802.588 902.42V911.914L866.158 948.799Z" fill="#004DA9" stroke="#26144D" stroke-width="1.5" stroke-linecap="round" stroke-linejoin="round"/>
<path d="M866.158 865.553L929.747 902.42L866.158 939.287L802.588 902.42L866.158 865.553Z" fill="#0069EA" stroke="#26144D" stroke-width="1.5" stroke-linecap="round" stroke-linejoin="round"/>
<path d="M929.745 902.42V911.914L866.156 948.799V939.287L929.745 902.42Z" fill="#0069EA" stroke="#26144D" stroke-width="1.5" stroke-linecap="round" stroke-linejoin="round"/>
<path d="M814.61 903.074L868.049 872.755" stroke="white" stroke-width="1.5" stroke-linecap="round" stroke-linejoin="round"/>
<path d="M368.707 422.511L288.912 376.132L288.876 365.055L368.689 411.435L368.707 422.511Z" fill="#004DA9" stroke="#26144D" stroke-width="1.5" stroke-linecap="round" stroke-linejoin="round"/>
<path d="M368.689 411.434L288.876 365.055L417.399 290.848L497.194 337.228L368.689 411.434Z" fill="#248CFF" stroke="#26144D" stroke-width="1.5" stroke-linecap="round" stroke-linejoin="round"/>
<path d="M497.193 337.228L497.229 348.304L368.706 422.511L368.688 411.435L497.193 337.228Z" fill="#0069EA" stroke="#26144D" stroke-width="1.5" stroke-linecap="round" stroke-linejoin="round"/>
<path d="M352.191 214.986L380.33 379.951L321.925 345.957L322.343 198.289L352.191 214.986Z" fill="#004DA9" stroke="#26144D" stroke-width="1.5" stroke-linecap="round" stroke-linejoin="round"/>
<path d="M410.686 181.265L438.825 346.23L380.329 379.951L352.191 214.986L410.686 181.265Z" fill="#0069EA" stroke="#26144D" stroke-width="1.5" stroke-linecap="round" stroke-linejoin="round"/>
<path d="M380.839 164.569L410.687 181.265L352.192 214.986L322.344 198.289L380.839 164.569Z" fill="#248CFF" stroke="#26144D" stroke-width="1.5" stroke-linecap="round" stroke-linejoin="round"/>
<path d="M330.603 198.435L380.131 170.625" stroke="white" stroke-width="1.5" stroke-linecap="round" stroke-linejoin="round"/>
<path d="M327.057 234.302V341.447" stroke="white" stroke-width="1.5" stroke-linecap="round" stroke-linejoin="round"/>
<path d="M368.999 405.614L486.754 337.391" stroke="white" stroke-width="1.5" stroke-linecap="round" stroke-linejoin="round"/>
<path d="M497.596 304.78V291.994L631.957 214.077V226.863L497.596 304.78Z" fill="#B2B4B3" stroke="#26144D" stroke-width="1.5" stroke-linecap="round" stroke-linejoin="round"/>
<path d="M631.958 214.077L585.958 187.304L451.596 265.24L497.596 291.994L631.958 214.077Z" fill="#D8D8D8" stroke="#26144D" stroke-width="1.5" stroke-linecap="round" stroke-linejoin="round"/>
<path d="M497.596 304.78V291.994L451.596 265.24V278.026L497.596 304.78Z" fill="#7D7D7B" stroke="#26144D" stroke-width="1.5" stroke-linecap="round" stroke-linejoin="round"/>
<path d="M483.007 239.522V266.585C483.043 268.95 484.626 271.296 487.736 273.097C494.048 276.734 504.288 276.734 510.599 273.097C513.801 271.26 515.365 268.823 515.329 266.404V239.34L483.007 239.504V239.522Z" fill="white" stroke="#26144D" stroke-width="1.5" stroke-linecap="round" stroke-linejoin="round"/>
<path d="M499.177 248.78C508.107 248.78 515.347 244.602 515.347 239.449C515.347 234.296 508.107 230.119 499.177 230.119C490.246 230.119 483.007 234.296 483.007 239.449C483.007 244.602 490.246 248.78 499.177 248.78Z" fill="white" stroke="#26144D" stroke-width="1.5" stroke-linecap="round" stroke-linejoin="round"/>
<path d="M563.165 190.45V217.514C563.202 219.879 564.784 222.225 567.894 224.025C574.206 227.663 584.446 227.663 590.758 224.025C593.959 222.188 595.523 219.751 595.487 217.332V190.269L563.165 190.432V190.45Z" fill="white" stroke="#26144D" stroke-width="1.5" stroke-linecap="round" stroke-linejoin="round"/>
<path d="M579.335 199.69C588.265 199.69 595.505 195.513 595.505 190.36C595.505 185.207 588.265 181.029 579.335 181.029C570.405 181.029 563.165 185.207 563.165 190.36C563.165 195.513 570.405 199.69 579.335 199.69Z" fill="white" stroke="#26144D" stroke-width="1.5" stroke-linecap="round" stroke-linejoin="round"/>
<path d="M497.596 253.235V240.449L631.957 162.532V175.318L497.596 253.235Z" fill="#B2B4B3" stroke="#26144D" stroke-width="1.5" stroke-linecap="round" stroke-linejoin="round"/>
<path d="M631.958 162.532L585.958 135.759L451.596 213.695L497.596 240.449L631.958 162.532Z" fill="#D8D8D8" stroke="#26144D" stroke-width="1.5" stroke-linecap="round" stroke-linejoin="round"/>
<path d="M497.596 253.236V240.449L451.596 213.695V226.481L497.596 253.236Z" fill="#7D7D7B" stroke="#26144D" stroke-width="1.5" stroke-linecap="round" stroke-linejoin="round"/>
<path d="M555.398 139.67V166.733C555.435 169.098 557.017 171.444 560.128 173.245C566.439 176.882 576.68 176.882 582.991 173.245C586.192 171.408 587.757 168.971 587.72 166.552V139.488L555.398 139.651V139.67Z" fill="white" stroke="#26144D" stroke-width="1.5" stroke-linecap="round" stroke-linejoin="round"/>
<path d="M571.568 148.909C580.499 148.909 587.738 144.732 587.738 139.579C587.738 134.426 580.499 130.249 571.568 130.249C562.638 130.249 555.398 134.426 555.398 139.579C555.398 144.732 562.638 148.909 571.568 148.909Z" fill="#E9E9E9" stroke="#26144D" stroke-width="1.5" stroke-linecap="round" stroke-linejoin="round"/>
<path d="M523.896 148.346V181.775C523.95 184.685 525.897 187.595 529.753 189.814C537.556 194.325 550.197 194.325 558 189.814C561.947 187.541 563.893 184.54 563.857 181.557V148.127L523.914 148.346H523.896Z" fill="white" stroke="#26144D" stroke-width="1.5" stroke-linecap="round" stroke-linejoin="round"/>
<path d="M543.867 159.767C554.897 159.767 563.838 154.605 563.838 148.236C563.838 141.868 554.897 136.705 543.867 136.705C532.837 136.705 523.896 141.868 523.896 148.236C523.896 154.605 532.837 159.767 543.867 159.767Z" fill="#E9E9E9" stroke="#26144D" stroke-width="1.5" stroke-linecap="round" stroke-linejoin="round"/>
<path d="M486.992 175.281V202.345C487.029 204.71 488.611 207.056 491.722 208.857C498.033 212.494 508.273 212.494 514.585 208.857C517.786 207.02 519.351 204.582 519.314 202.163V175.1L486.992 175.263V175.281Z" fill="white" stroke="#26144D" stroke-width="1.5" stroke-linecap="round" stroke-linejoin="round"/>
<path d="M503.144 184.539C512.074 184.539 519.314 180.362 519.314 175.209C519.314 170.056 512.074 165.878 503.144 165.878C494.213 165.878 486.974 170.056 486.974 175.209C486.974 180.362 494.213 184.539 503.144 184.539Z" fill="#E9E9E9" stroke="#26144D" stroke-width="1.5" stroke-linecap="round" stroke-linejoin="round"/>
<path d="M675.919 721.867C675.864 705.862 698.473 692.821 726.411 692.712C754.349 692.621 777.049 705.516 777.104 721.503C777.176 737.491 754.568 750.55 726.611 750.659C698.691 750.75 675.991 737.854 675.937 721.867H675.919Z" fill="#E9E9E9" stroke="#26144D" stroke-width="1.5" stroke-linecap="round" stroke-linejoin="round"/>
<path d="M728.812 702.424C728.812 711.245 721.664 718.393 712.842 718.393C704.021 718.393 696.872 711.245 696.872 702.424C696.872 693.603 704.021 686.455 712.842 686.455C721.664 686.455 728.812 693.603 728.812 702.424Z" fill="#FFBF33" stroke="#26144D" stroke-width="1.5" stroke-linecap="round" stroke-linejoin="round"/>
<path d="M713.225 719.175C713.225 727.978 706.077 735.144 697.255 735.144C688.433 735.144 681.285 727.996 681.285 719.175C681.285 710.354 688.433 703.206 697.255 703.206C706.077 703.206 713.225 710.354 713.225 719.175Z" fill="#FFBF33" stroke="#26144D" stroke-width="1.5" stroke-linecap="round" stroke-linejoin="round"/>
<path d="M758.406 705.153C758.406 713.974 751.258 721.122 742.436 721.122C733.615 721.122 726.466 713.974 726.466 705.153C726.466 696.331 733.615 689.184 742.436 689.184C751.258 689.184 758.406 696.331 758.406 705.153Z" fill="#FFBF33" stroke="#26144D" stroke-width="1.5" stroke-linecap="round" stroke-linejoin="round"/>
<path d="M736.598 728.524C736.598 737.327 729.449 744.493 720.628 744.493C711.806 744.493 704.658 737.345 704.658 728.524C704.658 719.703 711.806 712.555 720.628 712.555C729.449 712.555 736.598 719.703 736.598 728.524Z" fill="#FFBF33" stroke="#26144D" stroke-width="1.5" stroke-linecap="round" stroke-linejoin="round"/>
<path d="M766.953 717.611C766.953 726.432 759.805 733.58 750.983 733.58C742.161 733.58 735.013 726.432 735.013 717.611C735.013 708.79 742.161 701.642 750.983 701.642C759.805 701.642 766.953 708.79 766.953 717.611Z" fill="#FFBF33" stroke="#26144D" stroke-width="1.5" stroke-linecap="round" stroke-linejoin="round"/>
<path d="M616.659 795.838L576.244 772.503L616.659 749.167L657.075 772.503L616.659 795.838Z" fill="#D8D8D8" stroke="#26144D" stroke-width="1.5" stroke-linecap="round" stroke-linejoin="round"/>
<path d="M601.127 795.565C601.091 785.125 617.643 776.613 638.123 776.54C658.604 776.486 675.229 784.889 675.265 795.31C675.32 805.75 658.75 814.262 638.269 814.335C617.806 814.408 601.182 805.987 601.127 795.565Z" fill="#E9E9E9" stroke="#26144D" stroke-width="1.5" stroke-linecap="round" stroke-linejoin="round"/>
<path d="M618.297 795.511C618.279 789.909 627.155 785.344 638.142 785.307C649.128 785.271 658.04 789.782 658.077 795.384C658.095 800.985 649.219 805.551 638.232 805.587C627.246 805.623 618.334 801.113 618.316 795.511H618.297Z" fill="white" stroke="#26144D" stroke-width="1.5" stroke-linecap="round" stroke-linejoin="round"/>
<path d="M806.17 804.931L765.754 781.596L806.17 758.261L846.604 781.596L806.17 804.931Z" fill="white" stroke="#26144D" stroke-width="1.5" stroke-linecap="round" stroke-linejoin="round"/>
<path d="M779.632 805.695L739.216 782.36L779.632 759.006L820.066 782.36L779.632 805.695Z" fill="#D8D8D8" stroke="#26144D" stroke-width="1.5" stroke-linecap="round" stroke-linejoin="round"/>
<path d="M753.239 803.131C753.202 792.691 769.754 784.179 790.235 784.106C810.716 784.052 827.34 792.455 827.377 802.876C827.431 813.316 810.861 821.828 790.38 821.901C769.918 821.974 753.293 813.553 753.239 803.131Z" fill="#E9E9E9" stroke="#26144D" stroke-width="1.5" stroke-linecap="round" stroke-linejoin="round"/>
<path d="M770.41 803.076C770.392 797.474 779.268 792.909 790.254 792.873C801.24 792.836 810.153 797.347 810.189 802.949C810.207 808.551 801.331 813.116 790.345 813.152C779.359 813.189 770.446 808.678 770.428 803.076H770.41Z" fill="white" stroke="#26144D" stroke-width="1.5" stroke-linecap="round" stroke-linejoin="round"/>
<path d="M799.349 707.153L758.933 683.818L799.349 660.465L839.765 683.818L799.349 707.153Z" fill="#D8D8D8" stroke="#26144D" stroke-width="1.5" stroke-linecap="round" stroke-linejoin="round"/>
<path d="M787.599 695.003C787.562 684.564 804.114 676.052 824.595 675.979C845.076 675.924 861.7 684.327 861.737 694.749C861.791 705.189 845.221 713.701 824.741 713.773C804.278 713.846 787.653 705.425 787.599 695.003Z" fill="#E9E9E9" stroke="#26144D" stroke-width="1.5" stroke-linecap="round" stroke-linejoin="round"/>
<path d="M804.787 694.931C804.768 689.329 813.645 684.764 824.631 684.727C835.617 684.691 844.529 689.202 844.566 694.803C844.584 700.405 835.708 704.971 824.722 705.007C813.736 705.043 804.823 700.533 804.805 694.931H804.787Z" fill="white" stroke="#26144D" stroke-width="1.5" stroke-linecap="round" stroke-linejoin="round"/>
</svg>
