<svg width="1440" height="1305" viewBox="0 0 1440 1305" fill="none" xmlns="http://www.w3.org/2000/svg">
<path d="M751.766 1269.04L1.12695 848.023L689.342 462.02L1440 883.035L751.766 1269.04Z" fill="#E9E9E9" stroke="#26144D" stroke-width="1.5" stroke-linecap="round" stroke-linejoin="round"/>
<path d="M1440 918.757L1439.96 883.309L752.004 1268.8L752.04 1304.23L1440 918.757Z" fill="#B2B4B3" stroke="#26144D" stroke-width="1.5" stroke-linecap="round" stroke-linejoin="round"/>
<path d="M751.639 1304.07L1 883.035V847.605L751.639 1268.62V1304.07Z" fill="#7D7D7B" stroke="#26144D" stroke-width="1.5" stroke-linecap="round" stroke-linejoin="round"/>
<g style="mix-blend-mode:multiply">
<path d="M861.665 864.029C936.694 907.334 937.113 977.595 862.556 1020.94C788.018 1064.26 666.716 1064.22 591.686 1020.94C516.621 977.613 516.239 907.371 590.777 864.047C665.352 820.723 786.599 820.723 861.665 864.047V864.029Z" fill="#E9E9E9"/>
</g>
<g style="mix-blend-mode:multiply">
<path d="M567.858 1023.43L631.446 1060.3L567.858 1097.18L504.287 1060.3L567.858 1023.43Z" fill="#E9E9E9"/>
</g>
<g style="mix-blend-mode:multiply">
<path d="M877.16 1037.83L940.731 1074.7L877.16 1111.59L813.572 1074.7L877.16 1037.83Z" fill="#E9E9E9"/>
</g>
<g style="mix-blend-mode:multiply">
<path d="M875.633 831.654L939.222 868.521L875.633 905.407L812.063 868.521L875.633 831.654Z" fill="#E9E9E9"/>
</g>
<path d="M837.327 716.433L621.879 592.209V389.631L837.327 513.855V716.433Z" fill="#E40133" stroke="#26144D" stroke-width="1.5" stroke-linecap="round" stroke-linejoin="round"/>
<path d="M837.636 513.728L622.188 389.522L723.773 330.866L939.222 455.09L837.636 513.728Z" fill="#E9E9E9" stroke="#26144D" stroke-width="1.5" stroke-linecap="round" stroke-linejoin="round"/>
<path d="M837.472 716.397L939.057 657.74V455.163L837.472 513.801V716.397Z" fill="#D8D8D8" stroke="#26144D" stroke-width="1.5" stroke-linecap="round" stroke-linejoin="round"/>
<path d="M669.133 483.354L836.744 580.114" stroke="#26144D" stroke-width="1.5" stroke-linecap="round" stroke-linejoin="round"/>
<path d="M790.653 524.768L767.954 511.673C766.462 510.8 765.243 508.49 765.243 506.489V505.47C765.243 503.47 766.462 502.56 767.954 503.415L790.653 516.511C792.145 517.384 793.363 519.693 793.363 521.694V522.713C793.363 524.713 792.145 525.623 790.653 524.768Z" fill="white" stroke="#26144D" stroke-width="1.5" stroke-linecap="round" stroke-linejoin="round"/>
<path d="M669.133 547.521L836.744 644.281" stroke="#26144D" stroke-width="1.5" stroke-linecap="round" stroke-linejoin="round"/>
<path d="M790.653 588.935L767.954 575.84C766.462 574.967 765.243 572.657 765.243 570.656V569.637C765.243 567.637 766.462 566.727 767.954 567.582L790.653 580.678C792.145 581.551 793.363 583.86 793.363 585.861V586.88C793.363 588.88 792.145 589.79 790.653 588.935Z" fill="white" stroke="#26144D" stroke-width="1.5" stroke-linecap="round" stroke-linejoin="round"/>
<path d="M790.653 655.14L767.954 642.044C766.462 641.171 765.243 638.861 765.243 636.861V635.842C765.243 633.841 766.462 632.932 767.954 633.787L790.653 646.882C792.145 647.755 793.363 650.065 793.363 652.066V653.084C793.363 655.085 792.145 655.994 790.653 655.14Z" fill="white" stroke="#26144D" stroke-width="1.5" stroke-linecap="round" stroke-linejoin="round"/>
<path d="M852.297 425.079L767.155 375.699C762.28 372.88 756.278 372.825 751.367 375.59L699.419 404.836C696.636 406.4 696.618 410.401 699.365 412.002L784.507 461.382C789.382 464.201 795.384 464.256 800.295 461.491L852.243 432.245C855.026 430.681 855.044 426.68 852.297 425.079Z" fill="white"/>
<path d="M852.297 425.079L767.155 375.699C762.28 372.88 756.278 372.825 751.367 375.59L699.419 404.836C696.636 406.4 696.618 410.401 699.365 412.002L784.507 461.382C789.382 464.201 795.384 464.256 800.295 461.491L852.243 432.245C855.026 430.681 855.044 426.68 852.297 425.079Z" stroke="#26144D" stroke-width="1.5" stroke-linecap="round" stroke-linejoin="round"/>
<path d="M784.506 461.4L699.364 412.02C696.599 410.419 696.617 406.418 699.418 404.854L751.366 375.608C756.277 372.843 762.279 372.879 767.154 375.717L852.296 425.097C855.061 426.698 855.043 430.699 852.242 432.263L800.294 461.509C795.383 464.274 789.381 464.238 784.506 461.4Z" fill="#B2B4B3"/>
<path d="M784.506 461.4L699.364 412.02C696.599 410.419 696.617 406.418 699.418 404.854L751.366 375.608C756.277 372.843 762.279 372.879 767.154 375.717L852.296 425.097C855.061 426.698 855.043 430.699 852.242 432.263L800.294 461.509C795.383 464.274 789.381 464.238 784.506 461.4Z" stroke="#26144D" stroke-width="1.5" stroke-linecap="round" stroke-linejoin="round"/>
<path d="M699.364 412.02L715.188 421.205L751.366 400.835C756.277 398.07 762.28 398.107 767.154 400.944L836.472 441.139L852.26 432.264C855.043 430.7 855.061 426.698 852.315 425.098L767.173 375.717C762.298 372.898 756.295 372.844 751.384 375.608L699.437 404.854C696.654 406.419 696.636 410.42 699.382 412.02H699.364Z" fill="#7D7D7B" stroke="#26144D" stroke-width="1.5" stroke-linecap="round" stroke-linejoin="round"/>
<path d="M790.908 428.407C790.908 431.081 787.525 433.264 783.378 433.264C779.231 433.264 775.847 431.081 775.847 428.407C775.847 425.734 779.231 423.551 783.378 423.551C787.525 423.551 790.908 425.734 790.908 428.407Z" fill="white"/>
<path d="M790.908 428.407C790.908 431.081 787.525 433.264 783.378 433.264C779.231 433.264 775.847 431.081 775.847 428.407C775.847 425.734 779.231 423.551 783.378 423.551C787.525 423.551 790.908 425.734 790.908 428.407Z" stroke="#26144D" stroke-width="1.5" stroke-linecap="round" stroke-linejoin="round"/>
<path d="M758.132 394.05V378.372" stroke="white" stroke-width="1.5" stroke-linecap="round" stroke-linejoin="round"/>
<path d="M813.136 391.831L800.367 384.429L785.962 354.164L799.549 363.531L813.136 391.831Z" fill="white"/>
<path d="M813.136 391.831L800.367 384.429L785.962 354.164L799.549 363.531L813.136 391.831Z" stroke="#26144D" stroke-width="1.5" stroke-linecap="round" stroke-linejoin="round"/>
<path d="M813.137 391.832L819.54 388.976L804.443 355.965L777.378 368.897V373.716L799.55 363.531L813.137 391.832Z" fill="white"/>
<path d="M813.137 391.832L819.54 388.976L804.443 355.965L777.378 368.897V373.716L799.55 363.531L813.137 391.832Z" stroke="#26144D" stroke-width="1.5" stroke-linecap="round" stroke-linejoin="round"/>
<path d="M804.442 355.965L791.509 348.489L765.208 362.476L777.376 368.896L804.442 355.965Z" fill="white"/>
<path d="M804.442 355.965L791.509 348.489L765.208 362.476L777.376 368.896L804.442 355.965Z" stroke="#26144D" stroke-width="1.5" stroke-linecap="round" stroke-linejoin="round"/>
<path d="M777.376 373.716V368.896L765.208 362.476V367.769L777.376 373.716Z" fill="white"/>
<path d="M777.376 373.716V368.896L765.208 362.476V367.769L777.376 373.716Z" stroke="#26144D" stroke-width="1.5" stroke-linecap="round" stroke-linejoin="round"/>
<path d="M827.38 517.856L730.342 461.764" stroke="white" stroke-width="1.5" stroke-linecap="round" stroke-linejoin="round"/>
<path d="M827.38 582.532L730.342 526.44" stroke="white" stroke-width="1.5" stroke-linecap="round" stroke-linejoin="round"/>
<path d="M827.38 646.208L730.342 590.117" stroke="white" stroke-width="1.5" stroke-linecap="round" stroke-linejoin="round"/>
<path d="M555.854 748.389L724.556 651.01V448.433L555.854 545.811V748.389Z" fill="#E40133" stroke="#26144D" stroke-width="1.5" stroke-linecap="round" stroke-linejoin="round"/>
<path d="M555.545 545.702L724.23 448.305L622.663 389.667L453.96 487.045L555.545 545.702Z" fill="#E9E9E9" stroke="#26144D" stroke-width="1.5" stroke-linecap="round" stroke-linejoin="round"/>
<path d="M555.71 748.352L454.125 689.714V487.136L555.71 545.774V748.352Z" fill="white" stroke="#26144D" stroke-width="1.5" stroke-linecap="round" stroke-linejoin="round"/>
<path d="M724.048 515.31L556.437 612.07" stroke="#26144D" stroke-width="1.5" stroke-linecap="round" stroke-linejoin="round"/>
<path d="M627.301 537.644L650.001 524.549C651.492 523.676 652.711 521.366 652.711 519.365V518.347C652.711 516.346 651.492 515.437 650.001 516.292L627.301 529.387C625.81 530.26 624.591 532.57 624.591 534.571V535.589C624.591 537.59 625.81 538.499 627.301 537.644Z" fill="white" stroke="#26144D" stroke-width="1.5" stroke-linecap="round" stroke-linejoin="round"/>
<path d="M724.048 579.495L556.437 676.255" stroke="#26144D" stroke-width="1.5" stroke-linecap="round" stroke-linejoin="round"/>
<path d="M627.301 605.468L650.001 592.372C651.492 591.499 652.711 589.189 652.711 587.189V586.17C652.711 584.169 651.492 583.26 650.001 584.115L627.301 597.21C625.81 598.083 624.591 600.393 624.591 602.394V603.412C624.591 605.413 625.81 606.322 627.301 605.468Z" fill="white" stroke="#26144D" stroke-width="1.5" stroke-linecap="round" stroke-linejoin="round"/>
<path d="M627.301 671.053L650.001 657.958C651.492 657.085 652.711 654.775 652.711 652.774V651.756C652.711 649.755 651.492 648.846 650.001 649.7L627.301 662.796C625.81 663.669 624.591 665.979 624.591 667.979V668.998C624.591 670.999 625.81 671.908 627.301 671.053Z" fill="white" stroke="#26144D" stroke-width="1.5" stroke-linecap="round" stroke-linejoin="round"/>
<path d="M561.547 682.093L711.133 595.173" stroke="white" stroke-width="1.5" stroke-linecap="round" stroke-linejoin="round"/>
<path d="M561.547 617.399L711.133 530.479" stroke="white" stroke-width="1.5" stroke-linecap="round" stroke-linejoin="round"/>
<path d="M561.547 550.194L711.133 463.273" stroke="white" stroke-width="1.5" stroke-linecap="round" stroke-linejoin="round"/>
<path d="M606.092 440.939V440.848V429.208L605.419 429.353C605.292 429.244 605.165 429.153 605.001 429.062C603.564 428.225 601.218 428.225 599.781 429.062C599.581 429.189 599.399 429.317 599.253 429.444L598.708 429.189V440.83C598.708 441.394 599.053 441.939 599.799 442.376C601.236 443.212 603.582 443.212 605.019 442.376C605.692 441.976 606.056 441.466 606.092 440.957V440.939Z" fill="#7D7D7B" stroke="#26144D" stroke-width="1.5" stroke-linecap="round" stroke-linejoin="round"/>
<path d="M605.019 430.754C603.582 431.59 601.254 431.572 599.799 430.754C598.362 429.917 598.344 428.571 599.799 427.734C601.236 426.898 603.564 426.916 605.019 427.734C606.456 428.571 606.474 429.917 605.019 430.754Z" fill="white" stroke="#26144D" stroke-width="1.5" stroke-linecap="round" stroke-linejoin="round"/>
<path d="M628.973 433.391V433.3V421.66L628.3 421.805C628.173 421.696 628.046 421.605 627.882 421.514C626.445 420.678 624.099 420.678 622.662 421.514C622.462 421.642 622.28 421.769 622.134 421.896L621.589 421.642V433.282C621.589 433.846 621.934 434.391 622.68 434.828C624.117 435.664 626.463 435.664 627.9 434.828C628.573 434.428 628.937 433.918 628.973 433.409V433.391Z" fill="#7D7D7B" stroke="#26144D" stroke-width="1.5" stroke-linecap="round" stroke-linejoin="round"/>
<path d="M627.9 423.187C626.463 424.024 624.135 424.006 622.68 423.187C621.243 422.351 621.225 421.005 622.68 420.168C624.117 419.331 626.445 419.35 627.9 420.168C629.337 421.005 629.355 422.351 627.9 423.187Z" fill="white" stroke="#26144D" stroke-width="1.5" stroke-linecap="round" stroke-linejoin="round"/>
<path d="M583.902 433.391V433.3V421.66L583.229 421.805C583.101 421.696 582.974 421.605 582.81 421.514C581.373 420.678 579.027 420.678 577.59 421.514C577.39 421.642 577.208 421.769 577.062 421.896L576.517 421.642V433.282C576.517 433.846 576.862 434.391 577.608 434.828C579.045 435.664 581.391 435.664 582.828 434.828C583.501 434.428 583.865 433.918 583.902 433.409V433.391Z" fill="#7D7D7B" stroke="#26144D" stroke-width="1.5" stroke-linecap="round" stroke-linejoin="round"/>
<path d="M582.828 423.187C581.391 424.024 579.063 424.006 577.608 423.187C576.171 422.351 576.153 421.005 577.608 420.168C579.045 419.331 581.373 419.35 582.828 420.168C584.265 421.005 584.283 422.351 582.828 423.187Z" fill="white" stroke="#26144D" stroke-width="1.5" stroke-linecap="round" stroke-linejoin="round"/>
<path d="M631.031 353.327L635.614 356L628.248 356.491L631.031 353.327Z" fill="white" stroke="#26144D" stroke-width="1.5" stroke-linecap="round" stroke-linejoin="round"/>
<path d="M634.031 373.315C633.867 380.081 631.885 385.956 628.12 390.739C625.319 394.304 622.427 396.123 622.154 396.305V398.16C619.953 400.088 618.334 401.07 618.043 401.234V393.904C618.316 393.74 621.19 391.921 623.991 388.338C627.756 383.555 629.739 377.68 629.902 370.914C629.993 367.349 629.502 364.694 628.429 362.984C629.248 363.021 630.066 363.221 630.794 363.621C633.049 364.912 634.14 368.168 634.013 373.315H634.031Z" fill="white" stroke="#26144D" stroke-width="1.5" stroke-linecap="round" stroke-linejoin="round"/>
<path d="M636.287 367.423C635.996 379.427 631.085 388.011 626.992 393.086C625.283 395.214 623.591 396.887 622.154 398.142V396.287C622.427 396.105 625.319 394.286 628.12 390.721C631.885 385.92 633.868 380.063 634.031 373.297C634.159 368.15 633.067 364.895 630.812 363.603C630.084 363.185 629.266 363.003 628.447 362.967C627.974 362.185 627.392 361.603 626.683 361.202C625.282 360.402 623.609 360.438 622.118 360.766C619.935 361.221 618.134 362.294 618.098 362.312L617.916 355.091C618.243 354.891 625.828 350.344 631.212 353.418C631.94 353.836 632.576 354.346 633.14 354.982C635.377 357.456 636.432 361.621 636.305 367.423H636.287Z" fill="white" stroke="#26144D" stroke-width="1.5" stroke-linecap="round" stroke-linejoin="round"/>
<path d="M640.417 369.823C640.126 381.827 635.215 390.412 631.122 395.468C626.793 400.834 622.628 403.344 622.173 403.598V398.124V396.269C622.446 396.087 625.338 394.268 628.139 390.703C631.904 385.902 633.887 380.045 634.05 373.279C634.178 368.132 633.086 364.876 630.831 363.585C630.103 363.167 629.285 362.985 628.466 362.948C625.465 362.803 622.282 364.694 622.228 364.713L622.137 360.766L622.046 357.474C622.319 357.31 628.103 353.854 633.141 354.964C633.905 355.127 634.633 355.4 635.342 355.8C638.889 357.819 640.599 362.53 640.417 369.805V369.823Z" fill="#7D7D7B" stroke="#26144D" stroke-width="1.5" stroke-linecap="round" stroke-linejoin="round"/>
<path d="M617.916 355.109L622.045 357.492L622.209 364.731L618.098 362.33L617.916 355.109Z" fill="white" stroke="#26144D" stroke-width="1.5" stroke-linecap="round" stroke-linejoin="round"/>
<path d="M622.154 396.305L622.172 403.617L618.043 401.216V393.886L622.154 396.305Z" fill="white" stroke="#26144D" stroke-width="1.5" stroke-linecap="round" stroke-linejoin="round"/>
<path d="M629.903 421.678C629.957 425.715 627.32 429.735 621.99 432.827C611.386 438.938 594.161 438.92 583.484 432.772C577.955 429.571 575.281 425.352 575.481 421.205C574.881 417.185 570.97 388.594 580.174 362.73H625.119C635.068 390.631 629.884 421.696 629.884 421.696L629.903 421.678Z" fill="white" stroke="#26144D" stroke-width="1.5" stroke-linecap="round" stroke-linejoin="round"/>
<path d="M618.826 374.116C609.968 379.227 595.562 379.209 586.649 374.062C577.737 368.915 577.682 360.603 586.54 355.492C595.398 350.381 609.804 350.399 618.716 355.546C627.629 360.694 627.684 369.006 618.826 374.116Z" fill="white" stroke="#26144D" stroke-width="1.5" stroke-linecap="round" stroke-linejoin="round"/>
<path d="M618.917 355.437C627.811 360.584 627.775 368.933 618.808 374.098C609.84 379.263 595.38 379.3 586.468 374.153C577.573 369.005 577.61 360.657 586.577 355.492C595.526 350.326 610.004 350.29 618.917 355.437Z" fill="#248CFF" stroke="#26144D" stroke-width="1.5" stroke-linecap="round" stroke-linejoin="round"/>
<path d="M592.688 382.301C592.688 382.301 586.94 422.842 581.702 419.641C575.827 416.039 568.442 390.649 568.442 390.649" fill="#E9E9E9"/>
<path d="M592.688 382.301C592.688 382.301 586.94 422.842 581.702 419.641C575.827 416.039 568.442 390.649 568.442 390.649" stroke="#26144D" stroke-width="1.5" stroke-linecap="round" stroke-linejoin="round"/>
<path d="M592.688 382.301C592.688 382.301 571.28 392.341 568.424 390.631C565.568 388.922 579.992 375.462 579.992 375.462L592.688 382.283V382.301Z" fill="#7D7D7B" stroke="#26144D" stroke-width="1.5" stroke-linecap="round" stroke-linejoin="round"/>
<path d="M613.003 358.839C618.66 362.094 618.624 367.405 612.931 370.697C607.237 373.989 598.052 374.007 592.395 370.734C586.738 367.478 586.775 362.167 592.468 358.875C598.161 355.583 607.347 355.565 613.003 358.839Z" stroke="white" stroke-width="1.5" stroke-linecap="round" stroke-linejoin="round"/>
<path d="M836.344 327.846L644.979 217.372V85.6187L836.344 196.092V327.846Z" fill="#E40133" stroke="#26144D" stroke-width="1.5" stroke-linecap="round" stroke-linejoin="round"/>
<path d="M836.344 196.42L644.979 85.946L718.044 43.7681L909.391 154.242L836.344 196.42Z" fill="white" stroke="#26144D" stroke-width="1.5" stroke-linecap="round" stroke-linejoin="round"/>
<path d="M909.537 285.668L836.472 327.846V196.092L909.537 153.915V285.668Z" fill="#D8D8D8" stroke="#26144D" stroke-width="1.5" stroke-linecap="round" stroke-linejoin="round"/>
<path d="M735.778 138.036V268.499" stroke="#26144D" stroke-width="1.5" stroke-linecap="round" stroke-linejoin="round"/>
<path d="M750.293 270.081L748.22 268.881C747.147 268.262 746.274 266.589 746.274 265.152V245.873C746.274 244.436 747.147 243.781 748.22 244.4L750.293 245.6C751.367 246.219 752.24 247.892 752.24 249.329V268.608C752.24 270.045 751.367 270.7 750.293 270.081Z" fill="white" stroke="#26144D" stroke-width="1.5" stroke-linecap="round" stroke-linejoin="round"/>
<path d="M725.046 255.185L722.973 253.985C721.9 253.366 721.027 251.693 721.027 250.256V230.977C721.027 229.54 721.9 228.885 722.973 229.504L725.046 230.704C726.12 231.323 726.993 232.996 726.993 234.433V253.712C726.993 255.149 726.12 255.804 725.046 255.185Z" fill="white" stroke="#26144D" stroke-width="1.5" stroke-linecap="round" stroke-linejoin="round"/>
<path d="M741.455 233.451V148.949" stroke="white" stroke-width="1.5" stroke-linecap="round" stroke-linejoin="round"/>
<path d="M650.491 181.906V97.4043" stroke="white" stroke-width="1.5" stroke-linecap="round" stroke-linejoin="round"/>
<path d="M947.915 233.851L1107.2 324.009L1007.27 379.41L847.985 289.252L947.915 233.851Z" fill="white" stroke="#26144D" stroke-width="1.5" stroke-linecap="round" stroke-linejoin="round"/>
<path d="M1007.27 379.41V790.804L1109.78 732.402L1107.2 324.009L1007.27 379.41Z" fill="#D8D8D8" stroke="#26144D" stroke-width="1.5" stroke-linecap="round" stroke-linejoin="round"/>
<path d="M1007.27 379.41L847.985 289.252V697.645L1007.27 790.804V379.41Z" fill="white" stroke="#26144D" stroke-width="1.5" stroke-linecap="round" stroke-linejoin="round"/>
<path d="M999.116 384.411L856.133 303.493V670.09L999.116 753.7V384.411Z" fill="#248CFF" stroke="#26144D" stroke-width="1.5" stroke-linecap="round" stroke-linejoin="round"/>
<path d="M848.057 549.049L1007.34 639.207L996.807 646.155L837.526 555.997L848.057 549.049Z" fill="white" stroke="#26144D" stroke-width="1.5" stroke-linecap="round" stroke-linejoin="round"/>
<path d="M1007.37 790.258L996.807 797.152V646.155L1007.34 639.207L1007.37 790.258Z" fill="white" stroke="#26144D" stroke-width="1.5" stroke-linecap="round" stroke-linejoin="round"/>
<path d="M996.807 646.154V797.006L837.526 707.357V555.997L996.807 646.154Z" fill="#E9E9E9" stroke="#26144D" stroke-width="1.5" stroke-linecap="round" stroke-linejoin="round"/>
<path d="M847.913 292.925L986.949 383.047L975.781 388.103L835.454 297.945L847.913 292.925Z" fill="white" stroke="#26144D" stroke-width="1.5" stroke-linecap="round" stroke-linejoin="round"/>
<path d="M986.985 636.533L975.781 642.644V388.121L986.949 383.047L986.985 636.533Z" fill="#D8D8D8" stroke="#26144D" stroke-width="1.5" stroke-linecap="round" stroke-linejoin="round"/>
<path d="M975.781 388.121V642.153L835.435 552.013V297.945L975.781 388.121Z" fill="#E9E9E9" stroke="#26144D" stroke-width="1.5" stroke-linecap="round" stroke-linejoin="round"/>
<path d="M843.549 541.1V319.752" stroke="white" stroke-width="1.5" stroke-linecap="round" stroke-linejoin="round"/>
<path d="M844.058 570.401V691.187" stroke="white" stroke-width="1.5" stroke-linecap="round" stroke-linejoin="round"/>
<path d="M957.758 470.349V598.701" stroke="#26144D" stroke-width="1.5" stroke-linecap="round" stroke-linejoin="round"/>
<path d="M578.48 506.598V511.727L542.648 489.865V484.736L571.114 502.105L578.48 506.598Z" fill="#565656" stroke="#26144D" stroke-width="1.5" stroke-linecap="round" stroke-linejoin="round"/>
<path d="M595.905 495.867L578.48 506.598L571.113 502.106L588.211 491.175L595.905 495.867Z" fill="#565656" stroke="#26144D" stroke-width="1.5" stroke-linecap="round" stroke-linejoin="round"/>
<path d="M588.211 491.174L571.114 502.105L542.648 484.736L560.073 474.023L588.211 491.174Z" fill="#248CFF" stroke="#26144D" stroke-width="1.5" stroke-linecap="round" stroke-linejoin="round"/>
<path d="M595.906 495.867V500.996L578.481 511.727V506.598L595.906 495.867Z" fill="#565656" stroke="#26144D" stroke-width="1.5" stroke-linecap="round" stroke-linejoin="round"/>
<path d="M560.293 478.934L551.126 484.626L569.951 496.176" stroke="white" stroke-width="1.5" stroke-linecap="round" stroke-linejoin="round"/>
<path d="M1264.24 462.765L1185.46 417.295V287.669L1264.24 333.157V462.765Z" fill="#D8D8D8" stroke="#26144D" stroke-width="1.5" stroke-linecap="round" stroke-linejoin="round"/>
<path d="M1255.8 446.996L1193.89 411.238V302.656L1255.8 338.395V446.996Z" fill="#B2B4B3" stroke="#26144D" stroke-width="1.5" stroke-linecap="round" stroke-linejoin="round"/>
<path d="M1007.67 791.385L1118.76 855.516V652.411L1007.67 588.28V791.385Z" fill="#E40133" stroke="#26144D" stroke-width="1.5" stroke-linecap="round" stroke-linejoin="round"/>
<path d="M1118.65 855.662L1220.49 796.86V593.755L1118.65 652.538V855.662Z" fill="white" stroke="#26144D" stroke-width="1.5" stroke-linecap="round" stroke-linejoin="round"/>
<path d="M1118.71 652.466L1007.61 588.335L1109.45 529.533L1220.55 593.682L1118.71 652.466Z" fill="white" stroke="#26144D" stroke-width="1.5" stroke-linecap="round" stroke-linejoin="round"/>
<path d="M1007.63 598.466L1118.73 662.597" stroke="#26144D" stroke-width="1.5" stroke-linecap="round" stroke-linejoin="round"/>
<path d="M1007.63 657.358L1118.73 721.507" stroke="#26144D" stroke-width="1.5" stroke-linecap="round" stroke-linejoin="round"/>
<path d="M1007.63 724.236L1118.73 788.385" stroke="#26144D" stroke-width="1.5" stroke-linecap="round" stroke-linejoin="round"/>
<path d="M1012.34 668.943L1109.38 725.544" stroke="white" stroke-width="1.5" stroke-linecap="round" stroke-linejoin="round"/>
<path d="M1012.34 609.814L1109.38 666.415" stroke="white" stroke-width="1.5" stroke-linecap="round" stroke-linejoin="round"/>
<path d="M1012.34 735.147L1109.38 791.748" stroke="white" stroke-width="1.5" stroke-linecap="round" stroke-linejoin="round"/>
<path d="M1118.33 855.552L1250.49 930.851V728.255L1118.33 652.975V855.552Z" fill="white" stroke="#26144D" stroke-width="1.5" stroke-linecap="round" stroke-linejoin="round"/>
<path d="M1250.36 930.978L1351.95 872.321V669.744L1250.36 728.382V930.978Z" fill="#D8D8D8" stroke="#26144D" stroke-width="1.5" stroke-linecap="round" stroke-linejoin="round"/>
<path d="M1250.43 728.309L1118.29 653.029L1219.86 594.391L1352 669.671L1250.43 728.309Z" fill="white" stroke="#26144D" stroke-width="1.5" stroke-linecap="round" stroke-linejoin="round"/>
<path d="M1214.95 840.402L1228.57 848.259C1231.59 850.005 1234.03 848.15 1234.03 844.13V831.29C1234.03 827.27 1231.59 822.614 1228.57 820.868L1214.95 813.011V840.402Z" fill="white" stroke="#26144D" stroke-width="1.5" stroke-linecap="round" stroke-linejoin="round"/>
<path d="M1189.64 729.599C1193.4 727.429 1193.4 720.395 1189.64 713.888C1185.88 707.381 1179.79 703.865 1176.03 706.035C1172.27 708.204 1172.27 715.238 1176.03 721.745C1179.79 728.252 1185.88 731.768 1189.64 729.599Z" fill="#666666" stroke="#26144D" stroke-width="1.5" stroke-linecap="round" stroke-linejoin="round"/>
<path d="M1153.76 711.886L1133.72 700.318C1131.66 699.136 1129.99 695.953 1129.99 693.207V682.767C1129.99 680.02 1131.66 678.765 1133.72 679.948L1153.76 691.515C1155.82 692.697 1157.49 695.88 1157.49 698.627V709.067C1157.49 711.813 1155.82 713.068 1153.76 711.886Z" fill="#D8D8D8" stroke="#26144D" stroke-width="1.5" stroke-linecap="round" stroke-linejoin="round"/>
<path d="M1231.48 754.718L1211.44 743.151C1209.38 741.968 1207.71 738.786 1207.71 736.039V725.599C1207.71 722.853 1209.38 721.598 1211.44 722.78L1231.48 734.348C1233.54 735.53 1235.21 738.713 1235.21 741.459V751.899C1235.21 754.645 1233.54 755.9 1231.48 754.718Z" fill="#D8D8D8" stroke="#26144D" stroke-width="1.5" stroke-linecap="round" stroke-linejoin="round"/>
<path d="M1234.52 909.716L1214.48 898.149C1212.42 896.966 1210.75 893.784 1210.75 891.037V880.597C1210.75 877.851 1212.42 876.596 1214.48 877.778L1234.52 889.346C1236.58 890.528 1238.25 893.711 1238.25 896.457V906.897C1238.25 909.644 1236.58 910.898 1234.52 909.716Z" fill="white" stroke="#26144D" stroke-width="1.5" stroke-linecap="round" stroke-linejoin="round"/>
<path d="M1185.52 720.088L1180.13 716.996V701.5L1185.52 704.592V720.088Z" fill="#666666" stroke="#26144D" stroke-width="1.5" stroke-linecap="round" stroke-linejoin="round"/>
<path d="M1250.43 779.999L1118.29 704.719" stroke="#26144D" stroke-width="1.5" stroke-linecap="round" stroke-linejoin="round"/>
<path d="M1208.41 857.943C1224.78 848.496 1224.78 817.861 1208.41 789.52C1192.05 761.178 1165.52 745.86 1149.15 755.308C1132.79 764.755 1132.79 795.389 1149.15 823.731C1165.52 852.073 1192.05 867.39 1208.41 857.943Z" fill="#D8D8D8" stroke="#26144D" stroke-width="1.5" stroke-linecap="round" stroke-linejoin="round"/>
<path d="M1210.69 825.015C1210.69 827.634 1210.46 830.035 1210 832.235C1206.96 847.168 1194.16 852.278 1178.81 843.421C1161.18 833.254 1146.9 808.518 1146.9 788.184C1146.9 771.742 1156.22 763.212 1169.09 765.922C1172.15 766.54 1175.42 767.813 1178.81 769.76C1196.41 779.945 1210.69 804.662 1210.69 825.015Z" fill="#666666" stroke="#26144D" stroke-width="1.5" stroke-linecap="round" stroke-linejoin="round"/>
<path d="M1209.16 826.143C1209.16 828.762 1208.93 831.162 1208.47 833.363C1203.51 835.964 1196.8 835.437 1189.41 831.162C1174.13 822.359 1161.75 800.916 1161.75 783.273C1161.75 775.889 1163.93 770.342 1167.57 767.05C1170.62 767.668 1173.9 768.941 1177.28 770.887C1194.89 781.073 1209.16 805.79 1209.16 826.143Z" fill="#909090"/>
<path d="M1186.45 839.438C1168.84 829.271 1154.54 804.535 1154.54 784.201" stroke="white" stroke-width="1.5" stroke-linecap="round" stroke-linejoin="round"/>
<path d="M877.165 904.369V772.361L869.49 767.923V899.931L877.165 904.369Z" fill="white" stroke="#26144D" stroke-width="1.5" stroke-linecap="round" stroke-linejoin="round"/>
<path d="M884.822 767.923V899.931L877.164 904.369V772.361L884.822 767.923Z" fill="#B2B4B3" stroke="#26144D" stroke-width="1.5" stroke-linecap="round" stroke-linejoin="round"/>
<path d="M929.221 873.595V741.587L921.564 737.149V869.157L929.221 873.595Z" fill="white" stroke="#26144D" stroke-width="1.5" stroke-linecap="round" stroke-linejoin="round"/>
<path d="M936.88 737.149V869.157L929.222 873.595V741.587L936.88 737.149Z" fill="#B2B4B3" stroke="#26144D" stroke-width="1.5" stroke-linecap="round" stroke-linejoin="round"/>
<path d="M825.089 873.595V741.587L817.432 737.149V869.157L825.089 873.595Z" fill="white" stroke="#26144D" stroke-width="1.5" stroke-linecap="round" stroke-linejoin="round"/>
<path d="M832.747 737.149V869.157L825.089 873.595V741.587L832.747 737.149Z" fill="#B2B4B3" stroke="#26144D" stroke-width="1.5" stroke-linecap="round" stroke-linejoin="round"/>
<path d="M877.163 781.073V771.561L813.574 734.694V744.188L877.163 781.073Z" fill="#004DA9" stroke="#26144D" stroke-width="1.5" stroke-linecap="round" stroke-linejoin="round"/>
<path d="M877.163 697.809L940.733 734.694L877.163 771.561L813.574 734.694L877.163 697.809Z" fill="#0069EA" stroke="#26144D" stroke-width="1.5" stroke-linecap="round" stroke-linejoin="round"/>
<path d="M940.733 734.694V744.188L877.162 781.073V771.561L940.733 734.694Z" fill="#0069EA" stroke="#26144D" stroke-width="1.5" stroke-linecap="round" stroke-linejoin="round"/>
<path d="M824.469 734.966L877.908 704.647" stroke="white" stroke-width="1.5" stroke-linecap="round" stroke-linejoin="round"/>
<path d="M387.805 846.241L556.489 748.844V546.266L387.805 643.645V846.241Z" fill="white" stroke="#26144D" stroke-width="1.5" stroke-linecap="round" stroke-linejoin="round"/>
<path d="M387.478 643.535L556.181 546.139L454.595 487.5L285.911 584.897L387.478 643.535Z" fill="#B2B4B3" stroke="#26144D" stroke-width="1.5" stroke-linecap="round" stroke-linejoin="round"/>
<path d="M387.642 846.186L286.057 787.548V584.97L387.642 643.608V846.186Z" fill="white" stroke="#26144D" stroke-width="1.5" stroke-linecap="round" stroke-linejoin="round"/>
<path d="M417.926 809.391L526.368 746.788C529.06 745.242 531.225 741.077 531.225 737.494V641.043C531.225 637.46 529.042 635.823 526.368 637.369L417.926 699.972C415.234 701.518 413.069 705.683 413.069 709.266V805.717C413.069 809.3 415.252 810.937 417.926 809.391Z" fill="#666666" stroke="#26144D" stroke-width="1.5" stroke-linecap="round" stroke-linejoin="round"/>
<path d="M535.994 600.027C540.102 592.911 540.097 585.217 535.982 582.841C531.867 580.465 525.201 584.308 521.092 591.424C516.984 598.54 516.989 606.234 521.104 608.61C525.219 610.986 531.885 607.143 535.994 600.027Z" fill="#7D7D7B" stroke="#26144D" stroke-width="1.5" stroke-linecap="round" stroke-linejoin="round"/>
<path d="M517.2 606.413L539.9 593.318C541.392 592.445 542.61 590.135 542.61 588.134V587.116C542.61 585.115 541.392 584.206 539.9 585.061L517.2 598.156C515.709 599.029 514.49 601.339 514.49 603.34V604.358C514.49 606.359 515.709 607.268 517.2 606.413Z" fill="#7D7D7B" stroke="#26144D" stroke-width="1.5" stroke-linecap="round" stroke-linejoin="round"/>
<path d="M500.589 620.458C504.697 613.342 504.692 605.647 500.577 603.272C496.462 600.896 489.796 604.739 485.687 611.855C481.579 618.971 481.584 626.665 485.699 629.041C489.814 631.416 496.48 627.574 500.589 620.458Z" fill="#7D7D7B" stroke="#26144D" stroke-width="1.5" stroke-linecap="round" stroke-linejoin="round"/>
<path d="M481.806 626.857L504.506 613.762C505.997 612.889 507.216 610.579 507.216 608.578V607.56C507.216 605.559 505.997 604.65 504.506 605.505L481.806 618.6C480.314 619.473 479.096 621.783 479.096 623.783V624.802C479.096 626.803 480.314 627.712 481.806 626.857Z" fill="#7D7D7B" stroke="#26144D" stroke-width="1.5" stroke-linecap="round" stroke-linejoin="round"/>
<path d="M464.809 641.125C468.917 634.009 468.912 626.315 464.797 623.939C460.682 621.564 454.016 625.406 449.907 632.522C445.798 639.638 445.804 647.333 449.918 649.708C454.033 652.084 460.7 648.241 464.809 641.125Z" fill="#7D7D7B" stroke="#26144D" stroke-width="1.5" stroke-linecap="round" stroke-linejoin="round"/>
<path d="M446.01 647.519L468.71 634.424C470.201 633.551 471.42 631.241 471.42 629.24V628.221C471.42 626.221 470.201 625.311 468.71 626.166L446.01 639.262C444.519 640.135 443.3 642.444 443.3 644.445V645.464C443.3 647.464 444.519 648.374 446.01 647.519Z" fill="#7D7D7B" stroke="#26144D" stroke-width="1.5" stroke-linecap="round" stroke-linejoin="round"/>
<path d="M429.519 661.498C433.628 654.382 433.623 646.687 429.508 644.312C425.393 641.936 418.726 645.779 414.618 652.895C410.509 660.011 410.514 667.705 414.629 670.081C418.744 672.456 425.411 668.614 429.519 661.498Z" fill="#7D7D7B" stroke="#26144D" stroke-width="1.5" stroke-linecap="round" stroke-linejoin="round"/>
<path d="M410.722 667.889L433.421 654.794C434.913 653.921 436.132 651.611 436.132 649.611V648.592C436.132 646.591 434.913 645.682 433.421 646.537L410.722 659.632C409.23 660.505 408.011 662.815 408.011 664.816V665.834C408.011 667.835 409.23 668.744 410.722 667.889Z" fill="#7D7D7B" stroke="#26144D" stroke-width="1.5" stroke-linecap="round" stroke-linejoin="round"/>
<path d="M555.98 603.049L388.387 699.809" stroke="#26144D" stroke-width="1.5" stroke-linecap="round" stroke-linejoin="round"/>
<path d="M460.87 694.934L483.57 681.839C485.062 680.966 486.28 678.656 486.28 676.655V675.637C486.28 673.636 485.062 672.727 483.57 673.582L460.87 686.677C459.379 687.55 458.16 689.86 458.16 691.861V692.879C458.16 694.88 459.379 695.789 460.87 694.934Z" fill="#B2B4B3" stroke="#26144D" stroke-width="1.5" stroke-linecap="round" stroke-linejoin="round"/>
<path d="M308.774 571.929L410.359 630.567" stroke="#26144D" stroke-width="1.5" stroke-linecap="round" stroke-linejoin="round"/>
<path d="M432.914 499.941L534.481 558.579" stroke="#26144D" stroke-width="1.5" stroke-linecap="round" stroke-linejoin="round"/>
<path d="M470.803 576.167C484.856 576.167 496.249 569.588 496.249 561.471C496.249 553.355 484.856 546.775 470.803 546.775C456.749 546.775 445.356 553.355 445.356 561.471C445.356 569.588 456.749 576.167 470.803 576.167Z" fill="#7D7D7B" stroke="#26144D" stroke-width="1.5" stroke-linecap="round" stroke-linejoin="round"/>
<path d="M419.509 605.796C433.562 605.796 444.955 599.216 444.955 591.1C444.955 582.983 433.562 576.404 419.509 576.404C405.455 576.404 394.062 582.983 394.062 591.1C394.062 599.216 405.455 605.796 419.509 605.796Z" fill="white" stroke="#26144D" stroke-width="1.5" stroke-linecap="round" stroke-linejoin="round"/>
<path d="M425.076 549.776C439.13 549.776 450.522 543.197 450.522 535.08C450.522 526.964 439.13 520.384 425.076 520.384C411.022 520.384 399.63 526.964 399.63 535.08C399.63 543.197 411.022 549.776 425.076 549.776Z" fill="#7D7D7B" stroke="#26144D" stroke-width="1.5" stroke-linecap="round" stroke-linejoin="round"/>
<path d="M373.781 579.386C387.835 579.386 399.227 572.807 399.227 564.691C399.227 556.574 387.835 549.995 373.781 549.995C359.727 549.995 348.335 556.574 348.335 564.691C348.335 572.807 359.727 579.386 373.781 579.386Z" fill="#7D7D7B" stroke="#26144D" stroke-width="1.5" stroke-linecap="round" stroke-linejoin="round"/>
<path d="M418.528 802.352V713.922" stroke="white" stroke-width="1.5" stroke-linecap="round" stroke-linejoin="round"/>
<path d="M408.414 623.473L325.546 575.966" stroke="white" stroke-width="1.5" stroke-linecap="round" stroke-linejoin="round"/>
<path d="M451.886 504.706L534.264 552.722" stroke="white" stroke-width="1.5" stroke-linecap="round" stroke-linejoin="round"/>
<path d="M525.17 738.695V679.056" stroke="white" stroke-width="1.5" stroke-linecap="round" stroke-linejoin="round"/>
<path d="M451.358 547.939C451.14 547.939 450.94 547.83 450.831 547.63C450.667 547.339 450.758 546.975 451.049 546.794L454.323 544.902C454.814 544.611 455.105 544.265 455.105 543.92C455.105 543.574 454.814 543.229 454.323 542.938L448.448 539.555C447.193 538.827 445.083 538.827 443.828 539.555L440.554 541.446C440.263 541.61 439.899 541.519 439.717 541.228C439.553 540.937 439.644 540.573 439.935 540.391L443.209 538.5C444.846 537.554 447.411 537.554 449.048 538.5L454.923 541.883C455.814 542.392 456.306 543.12 456.306 543.92C456.306 544.72 455.814 545.429 454.923 545.957L451.649 547.848C451.558 547.903 451.449 547.921 451.34 547.921L451.358 547.939Z" fill="white" stroke="#26144D" stroke-width="1.5" stroke-linecap="round" stroke-linejoin="round"/>
<path d="M388.862 551.741V590.535C388.934 595.064 391.954 599.557 397.938 603.012C410.034 609.997 429.641 609.997 441.719 603.012C447.83 599.484 450.868 594.846 450.795 590.208V551.413L388.88 551.741H388.862Z" fill="white" stroke="#26144D" stroke-width="1.5" stroke-linecap="round" stroke-linejoin="round"/>
<path d="M419.819 569.455C436.917 569.455 450.777 561.451 450.777 551.577C450.777 541.702 436.917 533.698 419.819 533.698C402.722 533.698 388.862 541.702 388.862 551.577C388.862 561.451 402.722 569.455 419.819 569.455Z" fill="white" stroke="#26144D" stroke-width="1.5" stroke-linecap="round" stroke-linejoin="round"/>
<path d="M442.264 548.085C429.86 541.046 409.761 541.046 397.374 548.085C393.336 550.376 390.626 553.141 389.225 556.069C390.626 558.998 393.336 561.762 397.374 564.054C409.779 571.093 429.878 571.093 442.264 564.054C446.302 561.762 449.013 558.998 450.413 556.069C449.013 553.141 446.302 550.376 442.264 548.085Z" fill="white" stroke="#26144D" stroke-width="1.5" stroke-linecap="round" stroke-linejoin="round"/>
<path d="M402.466 580.059C402.12 580.059 401.866 579.786 401.866 579.459V577.076L399.501 578.44C397.864 579.386 395.3 579.386 393.663 578.44L387.788 575.057C386.896 574.548 386.405 573.82 386.405 573.02C386.405 572.22 386.896 571.511 387.788 570.983L391.062 569.092C391.243 568.982 391.48 568.982 391.662 569.092C391.844 569.201 391.971 569.401 391.971 569.619V573.111C391.971 573.457 391.698 573.711 391.371 573.711C391.043 573.711 390.77 573.439 390.77 573.111V570.674L388.406 572.038C387.915 572.329 387.624 572.675 387.624 573.02C387.624 573.366 387.915 573.711 388.406 574.002L394.281 577.385C395.536 578.113 397.646 578.113 398.901 577.385L402.175 575.494C402.357 575.385 402.593 575.385 402.775 575.494C402.957 575.603 403.084 575.803 403.084 576.021V579.459C403.084 579.804 402.812 580.059 402.484 580.059H402.466Z" fill="white" stroke="#26144D" stroke-width="1.5" stroke-linecap="round" stroke-linejoin="round"/>
<path d="M387.642 846.713L276.835 910.68V708.102L387.642 644.135V846.713Z" fill="#E40133" stroke="#26144D" stroke-width="1.5" stroke-linecap="round" stroke-linejoin="round"/>
<path d="M276.943 910.808L175.376 852.17V649.592L276.943 708.23V910.808Z" fill="white" stroke="#26144D" stroke-width="1.5" stroke-linecap="round" stroke-linejoin="round"/>
<path d="M276.889 708.157L387.696 644.19L286.129 585.552L175.304 649.519L276.889 708.157Z" fill="#E9E9E9" stroke="#26144D" stroke-width="1.5" stroke-linecap="round" stroke-linejoin="round"/>
<path d="M327.691 710.54L293.715 730.146C292.532 730.819 291.586 730.11 291.586 728.546V726.818C291.586 725.254 292.532 723.435 293.715 722.744L327.691 703.137C328.874 702.464 329.82 703.174 329.82 704.738V706.466C329.82 708.03 328.874 709.849 327.691 710.54Z" fill="white" stroke="#26144D" stroke-width="1.5" stroke-linecap="round" stroke-linejoin="round"/>
<path d="M387.679 654.303L276.872 718.27" stroke="#26144D" stroke-width="1.5" stroke-linecap="round" stroke-linejoin="round"/>
<path d="M284.094 746.77V896.857" stroke="white" stroke-width="1.5" stroke-linecap="round" stroke-linejoin="round"/>
<path d="M726.576 871.066L726.048 1059.71L738.726 1052.35L739.272 863.682L726.576 871.066Z" fill="#B2B4B3" stroke="#26144D" stroke-width="1.5" stroke-linecap="round" stroke-linejoin="round"/>
<path d="M713.807 863.682L713.28 1052.35L726.048 1059.71L726.576 871.066L713.807 863.682Z" fill="white" stroke="#26144D" stroke-width="1.5" stroke-linecap="round" stroke-linejoin="round"/>
<path d="M739.272 863.682L726.503 856.334L713.808 863.682L726.576 871.066L739.272 863.682Z" fill="white" stroke="#26144D" stroke-width="1.5" stroke-linecap="round" stroke-linejoin="round"/>
<path d="M560.402 756.974L559.875 945.638L572.552 938.253L573.098 749.607L560.402 756.974Z" fill="#B2B4B3" stroke="#26144D" stroke-width="1.5" stroke-linecap="round" stroke-linejoin="round"/>
<path d="M547.633 749.607L547.106 938.253L559.875 945.638L560.402 756.974L547.633 749.607Z" fill="white" stroke="#26144D" stroke-width="1.5" stroke-linecap="round" stroke-linejoin="round"/>
<path d="M573.098 749.607L560.33 742.241L547.634 749.607L560.403 756.973L573.098 749.607Z" fill="white" stroke="#26144D" stroke-width="1.5" stroke-linecap="round" stroke-linejoin="round"/>
<path d="M891.332 765.14L890.786 953.804L903.482 946.419L904.01 757.773L891.332 765.14Z" fill="#B2B4B3" stroke="#26144D" stroke-width="1.5" stroke-linecap="round" stroke-linejoin="round"/>
<path d="M878.563 757.773L878.018 946.419L890.786 953.804L891.332 765.14L878.563 757.773Z" fill="white" stroke="#26144D" stroke-width="1.5" stroke-linecap="round" stroke-linejoin="round"/>
<path d="M878.563 757.773L878.018 946.419L890.786 953.804L891.332 765.14L878.563 757.773Z" fill="white" stroke="#26144D" stroke-width="1.5" stroke-linecap="round" stroke-linejoin="round"/>
<path d="M904.01 757.774L891.241 750.408L878.564 757.774L891.332 765.14L904.01 757.774Z" fill="white" stroke="#26144D" stroke-width="1.5" stroke-linecap="round" stroke-linejoin="round"/>
<path d="M917.105 787.002C916.941 787.02 916.778 787.057 916.614 787.093C912.885 812.083 894.605 836.455 861.683 855.589C787.145 898.913 665.843 898.895 590.814 855.589C557.146 836.146 538.52 811.301 534.919 785.911C534.883 785.911 534.846 785.911 534.81 785.911C534.61 785.856 534.428 785.802 534.228 785.747V792.822C534.119 821.395 552.999 850.023 590.759 871.831C665.788 915.155 787.072 915.155 861.629 871.831C898.661 850.314 917.214 822.141 917.287 793.932V787.02C917.287 787.02 917.123 787.02 917.105 787.02V787.002Z" fill="#B2B4B3" stroke="#26144D" stroke-width="1.5" stroke-linecap="round" stroke-linejoin="round"/>
<path d="M860.793 708.339C935.822 751.645 936.24 821.905 861.684 865.247C787.146 908.57 665.844 908.534 590.814 865.247C515.748 821.923 515.366 751.681 589.905 708.357C664.479 665.033 785.727 665.033 860.793 708.357V708.339Z" fill="white" stroke="#26144D" stroke-width="1.5" stroke-linecap="round" stroke-linejoin="round"/>
<path d="M567.862 1095.4V963.39L560.204 958.934V1090.96L567.862 1095.4Z" fill="white" stroke="#26144D" stroke-width="1.5" stroke-linecap="round" stroke-linejoin="round"/>
<path d="M575.537 958.934V1090.96L567.861 1095.4V963.39L575.537 958.934Z" fill="#B2B4B3" stroke="#26144D" stroke-width="1.5" stroke-linecap="round" stroke-linejoin="round"/>
<path d="M619.936 1064.62V932.615L612.278 928.159V1060.19L619.936 1064.62Z" fill="white" stroke="#26144D" stroke-width="1.5" stroke-linecap="round" stroke-linejoin="round"/>
<path d="M627.594 928.159V1060.19L619.936 1064.62V932.615L627.594 928.159Z" fill="#B2B4B3" stroke="#26144D" stroke-width="1.5" stroke-linecap="round" stroke-linejoin="round"/>
<path d="M515.804 1064.62V932.615L508.146 928.159V1060.19L515.804 1064.62Z" fill="white" stroke="#26144D" stroke-width="1.5" stroke-linecap="round" stroke-linejoin="round"/>
<path d="M523.461 928.159V1060.19L515.803 1064.62V932.615L523.461 928.159Z" fill="#B2B4B3" stroke="#26144D" stroke-width="1.5" stroke-linecap="round" stroke-linejoin="round"/>
<path d="M567.859 972.083V962.589L504.289 925.704V935.216L567.859 972.083Z" fill="#004DA9" stroke="#26144D" stroke-width="1.5" stroke-linecap="round" stroke-linejoin="round"/>
<path d="M567.859 888.837L631.447 925.704L567.859 962.589L504.289 925.704L567.859 888.837Z" fill="#0069EA" stroke="#26144D" stroke-width="1.5" stroke-linecap="round" stroke-linejoin="round"/>
<path d="M631.447 925.704V935.216L567.858 972.083V962.589L631.447 925.704Z" fill="#0069EA" stroke="#26144D" stroke-width="1.5" stroke-linecap="round" stroke-linejoin="round"/>
<path d="M515.566 925.794L569.005 895.475" stroke="white" stroke-width="1.5" stroke-linecap="round" stroke-linejoin="round"/>
<path d="M866.16 1115.11V983.088L858.502 978.65V1110.66L866.16 1115.11Z" fill="white" stroke="#26144D" stroke-width="1.5" stroke-linecap="round" stroke-linejoin="round"/>
<path d="M873.817 978.65V1110.66L866.16 1115.11V983.088L873.817 978.65Z" fill="#B2B4B3" stroke="#26144D" stroke-width="1.5" stroke-linecap="round" stroke-linejoin="round"/>
<path d="M918.234 1084.34V952.313L910.577 947.875V1079.88L918.234 1084.34Z" fill="white" stroke="#26144D" stroke-width="1.5" stroke-linecap="round" stroke-linejoin="round"/>
<path d="M925.892 947.875V1079.88L918.235 1084.34V952.313L925.892 947.875Z" fill="#B2B4B3" stroke="#26144D" stroke-width="1.5" stroke-linecap="round" stroke-linejoin="round"/>
<path d="M814.102 1084.34V952.313L806.445 947.875V1079.88L814.102 1084.34Z" fill="white" stroke="#26144D" stroke-width="1.5" stroke-linecap="round" stroke-linejoin="round"/>
<path d="M821.759 947.875V1079.88L814.102 1084.34V952.313L821.759 947.875Z" fill="#B2B4B3" stroke="#26144D" stroke-width="1.5" stroke-linecap="round" stroke-linejoin="round"/>
<path d="M866.158 991.799V982.287L802.588 945.42V954.914L866.158 991.799Z" fill="#004DA9" stroke="#26144D" stroke-width="1.5" stroke-linecap="round" stroke-linejoin="round"/>
<path d="M866.158 908.553L929.747 945.42L866.158 982.287L802.588 945.42L866.158 908.553Z" fill="#0069EA" stroke="#26144D" stroke-width="1.5" stroke-linecap="round" stroke-linejoin="round"/>
<path d="M929.745 945.42V954.914L866.156 991.799V982.287L929.745 945.42Z" fill="#0069EA" stroke="#26144D" stroke-width="1.5" stroke-linecap="round" stroke-linejoin="round"/>
<path d="M814.61 946.074L868.049 915.755" stroke="white" stroke-width="1.5" stroke-linecap="round" stroke-linejoin="round"/>
<path d="M368.707 465.511L288.912 419.132L288.876 408.055L368.689 454.435L368.707 465.511Z" fill="#004DA9" stroke="#26144D" stroke-width="1.5" stroke-linecap="round" stroke-linejoin="round"/>
<path d="M368.689 454.434L288.876 408.055L417.399 333.848L497.194 380.228L368.689 454.434Z" fill="#248CFF" stroke="#26144D" stroke-width="1.5" stroke-linecap="round" stroke-linejoin="round"/>
<path d="M497.193 380.228L497.229 391.304L368.706 465.511L368.688 454.435L497.193 380.228Z" fill="#0069EA" stroke="#26144D" stroke-width="1.5" stroke-linecap="round" stroke-linejoin="round"/>
<path d="M352.191 257.986L380.33 422.951L321.925 388.957L322.343 241.289L352.191 257.986Z" fill="#004DA9" stroke="#26144D" stroke-width="1.5" stroke-linecap="round" stroke-linejoin="round"/>
<path d="M410.686 224.265L438.825 389.23L380.329 422.951L352.191 257.986L410.686 224.265Z" fill="#0069EA" stroke="#26144D" stroke-width="1.5" stroke-linecap="round" stroke-linejoin="round"/>
<path d="M380.839 207.569L410.687 224.265L352.192 257.986L322.344 241.289L380.839 207.569Z" fill="#248CFF" stroke="#26144D" stroke-width="1.5" stroke-linecap="round" stroke-linejoin="round"/>
<path d="M330.603 241.435L380.131 213.625" stroke="white" stroke-width="1.5" stroke-linecap="round" stroke-linejoin="round"/>
<path d="M327.057 277.302V384.447" stroke="white" stroke-width="1.5" stroke-linecap="round" stroke-linejoin="round"/>
<path d="M368.999 448.614L486.754 380.391" stroke="white" stroke-width="1.5" stroke-linecap="round" stroke-linejoin="round"/>
<path d="M497.596 347.78V334.994L631.957 257.077V269.863L497.596 347.78Z" fill="#B2B4B3" stroke="#26144D" stroke-width="1.5" stroke-linecap="round" stroke-linejoin="round"/>
<path d="M631.958 257.077L585.958 230.304L451.596 308.24L497.596 334.994L631.958 257.077Z" fill="#D8D8D8" stroke="#26144D" stroke-width="1.5" stroke-linecap="round" stroke-linejoin="round"/>
<path d="M497.596 347.78V334.994L451.596 308.24V321.026L497.596 347.78Z" fill="#7D7D7B" stroke="#26144D" stroke-width="1.5" stroke-linecap="round" stroke-linejoin="round"/>
<path d="M483.007 282.522V309.585C483.043 311.95 484.626 314.296 487.736 316.097C494.048 319.734 504.288 319.734 510.599 316.097C513.801 314.26 515.365 311.823 515.329 309.404V282.34L483.007 282.504V282.522Z" fill="white" stroke="#26144D" stroke-width="1.5" stroke-linecap="round" stroke-linejoin="round"/>
<path d="M499.177 291.78C508.107 291.78 515.347 287.602 515.347 282.449C515.347 277.296 508.107 273.119 499.177 273.119C490.246 273.119 483.007 277.296 483.007 282.449C483.007 287.602 490.246 291.78 499.177 291.78Z" fill="white" stroke="#26144D" stroke-width="1.5" stroke-linecap="round" stroke-linejoin="round"/>
<path d="M563.165 233.45V260.514C563.202 262.879 564.784 265.225 567.894 267.025C574.206 270.663 584.446 270.663 590.758 267.025C593.959 265.188 595.523 262.751 595.487 260.332V233.269L563.165 233.432V233.45Z" fill="white" stroke="#26144D" stroke-width="1.5" stroke-linecap="round" stroke-linejoin="round"/>
<path d="M579.335 242.69C588.265 242.69 595.505 238.513 595.505 233.36C595.505 228.207 588.265 224.029 579.335 224.029C570.405 224.029 563.165 228.207 563.165 233.36C563.165 238.513 570.405 242.69 579.335 242.69Z" fill="white" stroke="#26144D" stroke-width="1.5" stroke-linecap="round" stroke-linejoin="round"/>
<path d="M497.596 296.235V283.449L631.957 205.532V218.318L497.596 296.235Z" fill="#B2B4B3" stroke="#26144D" stroke-width="1.5" stroke-linecap="round" stroke-linejoin="round"/>
<path d="M631.958 205.532L585.958 178.759L451.596 256.695L497.596 283.449L631.958 205.532Z" fill="#D8D8D8" stroke="#26144D" stroke-width="1.5" stroke-linecap="round" stroke-linejoin="round"/>
<path d="M497.596 296.236V283.449L451.596 256.695V269.481L497.596 296.236Z" fill="#7D7D7B" stroke="#26144D" stroke-width="1.5" stroke-linecap="round" stroke-linejoin="round"/>
<path d="M555.398 182.67V209.733C555.435 212.098 557.017 214.444 560.128 216.245C566.439 219.882 576.68 219.882 582.991 216.245C586.192 214.408 587.757 211.971 587.72 209.552V182.488L555.398 182.651V182.67Z" fill="white" stroke="#26144D" stroke-width="1.5" stroke-linecap="round" stroke-linejoin="round"/>
<path d="M571.568 191.909C580.499 191.909 587.738 187.732 587.738 182.579C587.738 177.426 580.499 173.249 571.568 173.249C562.638 173.249 555.398 177.426 555.398 182.579C555.398 187.732 562.638 191.909 571.568 191.909Z" fill="#E9E9E9" stroke="#26144D" stroke-width="1.5" stroke-linecap="round" stroke-linejoin="round"/>
<path d="M523.896 191.346V224.775C523.95 227.685 525.897 230.595 529.753 232.814C537.556 237.325 550.197 237.325 558 232.814C561.947 230.541 563.893 227.54 563.857 224.557V191.127L523.914 191.346H523.896Z" fill="white" stroke="#26144D" stroke-width="1.5" stroke-linecap="round" stroke-linejoin="round"/>
<path d="M543.867 202.767C554.897 202.767 563.838 197.605 563.838 191.236C563.838 184.868 554.897 179.705 543.867 179.705C532.837 179.705 523.896 184.868 523.896 191.236C523.896 197.605 532.837 202.767 543.867 202.767Z" fill="#E9E9E9" stroke="#26144D" stroke-width="1.5" stroke-linecap="round" stroke-linejoin="round"/>
<path d="M486.992 218.281V245.345C487.029 247.71 488.611 250.056 491.722 251.857C498.033 255.494 508.273 255.494 514.585 251.857C517.786 250.02 519.351 247.582 519.314 245.163V218.1L486.992 218.263V218.281Z" fill="white" stroke="#26144D" stroke-width="1.5" stroke-linecap="round" stroke-linejoin="round"/>
<path d="M503.144 227.539C512.074 227.539 519.314 223.362 519.314 218.209C519.314 213.056 512.074 208.878 503.144 208.878C494.213 208.878 486.974 213.056 486.974 218.209C486.974 223.362 494.213 227.539 503.144 227.539Z" fill="#E9E9E9" stroke="#26144D" stroke-width="1.5" stroke-linecap="round" stroke-linejoin="round"/>
<path d="M675.919 764.867C675.864 748.862 698.473 735.821 726.411 735.712C754.349 735.621 777.049 748.516 777.104 764.503C777.176 780.491 754.568 793.55 726.611 793.659C698.691 793.75 675.991 780.854 675.937 764.867H675.919Z" fill="#E9E9E9" stroke="#26144D" stroke-width="1.5" stroke-linecap="round" stroke-linejoin="round"/>
<path d="M728.812 745.424C728.812 754.245 721.664 761.393 712.842 761.393C704.021 761.393 696.872 754.245 696.872 745.424C696.872 736.603 704.021 729.455 712.842 729.455C721.664 729.455 728.812 736.603 728.812 745.424Z" fill="#FFBF33" stroke="#26144D" stroke-width="1.5" stroke-linecap="round" stroke-linejoin="round"/>
<path d="M713.225 762.175C713.225 770.978 706.077 778.144 697.255 778.144C688.433 778.144 681.285 770.996 681.285 762.175C681.285 753.354 688.433 746.206 697.255 746.206C706.077 746.206 713.225 753.354 713.225 762.175Z" fill="#FFBF33" stroke="#26144D" stroke-width="1.5" stroke-linecap="round" stroke-linejoin="round"/>
<path d="M758.406 748.153C758.406 756.974 751.258 764.122 742.436 764.122C733.615 764.122 726.466 756.974 726.466 748.153C726.466 739.331 733.615 732.184 742.436 732.184C751.258 732.184 758.406 739.331 758.406 748.153Z" fill="#FFBF33" stroke="#26144D" stroke-width="1.5" stroke-linecap="round" stroke-linejoin="round"/>
<path d="M736.598 771.524C736.598 780.327 729.449 787.493 720.628 787.493C711.806 787.493 704.658 780.345 704.658 771.524C704.658 762.703 711.806 755.555 720.628 755.555C729.449 755.555 736.598 762.703 736.598 771.524Z" fill="#FFBF33" stroke="#26144D" stroke-width="1.5" stroke-linecap="round" stroke-linejoin="round"/>
<path d="M766.953 760.611C766.953 769.432 759.805 776.58 750.983 776.58C742.161 776.58 735.013 769.432 735.013 760.611C735.013 751.79 742.161 744.642 750.983 744.642C759.805 744.642 766.953 751.79 766.953 760.611Z" fill="#FFBF33" stroke="#26144D" stroke-width="1.5" stroke-linecap="round" stroke-linejoin="round"/>
<path d="M616.659 838.838L576.244 815.503L616.659 792.167L657.075 815.503L616.659 838.838Z" fill="#D8D8D8" stroke="#26144D" stroke-width="1.5" stroke-linecap="round" stroke-linejoin="round"/>
<path d="M601.127 838.565C601.091 828.125 617.643 819.613 638.123 819.54C658.604 819.486 675.229 827.889 675.265 838.31C675.32 848.75 658.75 857.262 638.269 857.335C617.806 857.408 601.182 848.987 601.127 838.565Z" fill="#E9E9E9" stroke="#26144D" stroke-width="1.5" stroke-linecap="round" stroke-linejoin="round"/>
<path d="M618.297 838.511C618.279 832.909 627.155 828.344 638.142 828.307C649.128 828.271 658.04 832.782 658.077 838.384C658.095 843.985 649.219 848.551 638.232 848.587C627.246 848.623 618.334 844.113 618.316 838.511H618.297Z" fill="white" stroke="#26144D" stroke-width="1.5" stroke-linecap="round" stroke-linejoin="round"/>
<path d="M806.17 847.931L765.754 824.596L806.17 801.261L846.604 824.596L806.17 847.931Z" fill="white" stroke="#26144D" stroke-width="1.5" stroke-linecap="round" stroke-linejoin="round"/>
<path d="M779.632 848.695L739.216 825.36L779.632 802.006L820.066 825.36L779.632 848.695Z" fill="#D8D8D8" stroke="#26144D" stroke-width="1.5" stroke-linecap="round" stroke-linejoin="round"/>
<path d="M753.239 846.131C753.202 835.691 769.754 827.179 790.235 827.106C810.716 827.052 827.34 835.455 827.377 845.876C827.431 856.316 810.861 864.828 790.38 864.901C769.918 864.974 753.293 856.553 753.239 846.131Z" fill="#E9E9E9" stroke="#26144D" stroke-width="1.5" stroke-linecap="round" stroke-linejoin="round"/>
<path d="M770.41 846.076C770.392 840.474 779.268 835.909 790.254 835.873C801.24 835.836 810.153 840.347 810.189 845.949C810.207 851.551 801.331 856.116 790.345 856.152C779.359 856.189 770.446 851.678 770.428 846.076H770.41Z" fill="white" stroke="#26144D" stroke-width="1.5" stroke-linecap="round" stroke-linejoin="round"/>
<path d="M799.349 750.153L758.933 726.818L799.349 703.465L839.765 726.818L799.349 750.153Z" fill="#D8D8D8" stroke="#26144D" stroke-width="1.5" stroke-linecap="round" stroke-linejoin="round"/>
<path d="M787.599 738.003C787.562 727.564 804.114 719.052 824.595 718.979C845.076 718.924 861.7 727.327 861.737 737.749C861.791 748.189 845.221 756.701 824.741 756.773C804.278 756.846 787.653 748.425 787.599 738.003Z" fill="#E9E9E9" stroke="#26144D" stroke-width="1.5" stroke-linecap="round" stroke-linejoin="round"/>
<path d="M804.787 737.931C804.768 732.329 813.645 727.764 824.631 727.727C835.617 727.691 844.529 732.202 844.566 737.803C844.584 743.405 835.708 747.971 824.722 748.007C813.736 748.043 804.823 743.533 804.805 737.931H804.787Z" fill="white" stroke="#26144D" stroke-width="1.5" stroke-linecap="round" stroke-linejoin="round"/>
<path d="M751 1304.5L0 883.5V0H1442V918L751 1304.5Z" fill="black" fill-opacity="0.4"/>
</svg>
