<svg width="390" height="356" viewBox="0 0 390 356" fill="none" xmlns="http://www.w3.org/2000/svg">
<mask id="mask0_1211_89" style="mask-type:alpha" maskUnits="userSpaceOnUse" x="0" y="0" width="390" height="356">
<rect width="390" height="356" fill="#D9D9D9"/>
</mask>
<g mask="url(#mask0_1211_89)">
<path d="M241.151 329.943L21.1849 203.065L148.502 129.473L368.468 256.338L241.151 329.943Z" fill="#8ED760" stroke="#26144D" stroke-width="1.5" stroke-linecap="round" stroke-linejoin="round"/>
<path d="M240.942 354.839L20.9766 227.973V202.882L240.942 329.747V354.839Z" fill="#956054" stroke="#26144D" stroke-width="1.5" stroke-linecap="round" stroke-linejoin="round"/>
<path d="M368.377 281.417L241.06 355.022V329.93L368.377 256.325V281.417Z" fill="#A9776B" stroke="#26144D" stroke-width="1.5" stroke-linecap="round" stroke-linejoin="round"/>
<path d="M83.9188 197.783V204.63" stroke="#5FAE2C" stroke-width="1.5" stroke-linecap="round" stroke-linejoin="round"/>
<path d="M199.606 197.326V204.173" stroke="#5FAE2C" stroke-width="1.5" stroke-linecap="round" stroke-linejoin="round"/>
<path d="M164.925 167.162V174.022" stroke="#5FAE2C" stroke-width="1.5" stroke-linecap="round" stroke-linejoin="round"/>
<path d="M90.7691 201.213V208.06" stroke="#5FAE2C" stroke-width="1.5" stroke-linecap="round" stroke-linejoin="round"/>
<path d="M112.44 171.505V178.365" stroke="#5FAE2C" stroke-width="1.5" stroke-linecap="round" stroke-linejoin="round"/>
<path d="M106.514 168.988V175.848" stroke="#5FAE2C" stroke-width="1.5" stroke-linecap="round" stroke-linejoin="round"/>
<path d="M193.224 193.44V200.3" stroke="#5FAE2C" stroke-width="1.5" stroke-linecap="round" stroke-linejoin="round"/>
<path d="M187.286 198.005V204.865" stroke="#5FAE2C" stroke-width="1.5" stroke-linecap="round" stroke-linejoin="round"/>
<path d="M138.461 227.256V234.116" stroke="#5FAE2C" stroke-width="1.5" stroke-linecap="round" stroke-linejoin="round"/>
<path d="M132.301 222.457V229.317" stroke="#5FAE2C" stroke-width="1.5" stroke-linecap="round" stroke-linejoin="round"/>
<path d="M126.141 227.491V234.338" stroke="#5FAE2C" stroke-width="1.5" stroke-linecap="round" stroke-linejoin="round"/>
<path d="M158.543 171.271V178.13" stroke="#5FAE2C" stroke-width="1.5" stroke-linecap="round" stroke-linejoin="round"/>
<path d="M171.775 171.961V178.821" stroke="#5FAE2C" stroke-width="1.5" stroke-linecap="round" stroke-linejoin="round"/>
<path d="M77.3029 201.669V208.516" stroke="#5FAE2C" stroke-width="1.5" stroke-linecap="round" stroke-linejoin="round"/>
<path d="M100.81 171.727V178.586" stroke="#5FAE2C" stroke-width="1.5" stroke-linecap="round" stroke-linejoin="round"/>
<path d="M193.198 259.377V266.237" stroke="#5FAE2C" stroke-width="1.5" stroke-linecap="round" stroke-linejoin="round"/>
<path d="M308.886 258.92V265.78" stroke="#5FAE2C" stroke-width="1.5" stroke-linecap="round" stroke-linejoin="round"/>
<path d="M274.204 228.756V235.616" stroke="#5FAE2C" stroke-width="1.5" stroke-linecap="round" stroke-linejoin="round"/>
<path d="M200.049 262.807V269.666" stroke="#5FAE2C" stroke-width="1.5" stroke-linecap="round" stroke-linejoin="round"/>
<path d="M221.72 233.099V239.958" stroke="#5FAE2C" stroke-width="1.5" stroke-linecap="round" stroke-linejoin="round"/>
<path d="M215.794 230.595V237.441" stroke="#5FAE2C" stroke-width="1.5" stroke-linecap="round" stroke-linejoin="round"/>
<path d="M302.504 255.034V261.894" stroke="#5FAE2C" stroke-width="1.5" stroke-linecap="round" stroke-linejoin="round"/>
<path d="M296.565 259.611V266.458" stroke="#5FAE2C" stroke-width="1.5" stroke-linecap="round" stroke-linejoin="round"/>
<path d="M247.741 288.85V295.709" stroke="#5FAE2C" stroke-width="1.5" stroke-linecap="round" stroke-linejoin="round"/>
<path d="M241.58 284.051V290.91" stroke="#5FAE2C" stroke-width="1.5" stroke-linecap="round" stroke-linejoin="round"/>
<path d="M235.42 289.085V295.945" stroke="#5FAE2C" stroke-width="1.5" stroke-linecap="round" stroke-linejoin="round"/>
<path d="M267.823 232.877V239.724" stroke="#5FAE2C" stroke-width="1.5" stroke-linecap="round" stroke-linejoin="round"/>
<path d="M281.054 233.555V240.414" stroke="#5FAE2C" stroke-width="1.5" stroke-linecap="round" stroke-linejoin="round"/>
<path d="M186.582 263.263V270.122" stroke="#5FAE2C" stroke-width="1.5" stroke-linecap="round" stroke-linejoin="round"/>
<path d="M210.09 233.333V240.18" stroke="#5FAE2C" stroke-width="1.5" stroke-linecap="round" stroke-linejoin="round"/>
<path d="M221.251 210.994C221.251 210.994 187.5 197 158.5 181C131 164 110 148 110 148" stroke="#6CA3FF" stroke-width="2" stroke-linecap="round" stroke-linejoin="round"/>
<path d="M96.2511 138.994C96.2511 138.994 62.5 125 33.5 109C6 92 -15 76 -15 76" stroke="#6CA3FF" stroke-width="2" stroke-linecap="round" stroke-linejoin="round"/>
<path d="M231.019 185.72C231.019 185.72 193.29 169.692 165.615 150.117C138.11 130.673 103.5 105 103.5 105" stroke="#6CA3FF" stroke-width="2" stroke-linecap="round" stroke-linejoin="round"/>
<path d="M107.519 109.72C107.519 109.72 67.6748 94.075 40 74.5C12.4945 55.0555 -20 29 -20 29" stroke="#6CA3FF" stroke-width="2" stroke-linecap="round" stroke-linejoin="round"/>
<path d="M286.212 164.098C286.212 164.098 251 149.764 225 137C197.5 123.5 162.5 92.5 162.5 92.5" stroke="#6CA3FF" stroke-width="2" stroke-linecap="round" stroke-linejoin="round"/>
<path d="M162.712 92.5977C162.712 92.5977 126.648 79.8701 101.5 65.5C66.5 45.5 -8.5 -3.5 -8.5 -3.5" stroke="#6CA3FF" stroke-width="2" stroke-linecap="round" stroke-linejoin="round"/>
<path d="M297.334 188.132C297.334 188.132 263 175 227 158.5C190.5 139 166.5 105.5 166.5 105.5" stroke="#6CA3FF" stroke-width="2" stroke-linecap="round" stroke-linejoin="round"/>
<path d="M166.834 114.632C166.834 114.632 125 101 88.5 81.5C52 62 -7 17.5 -7 17.5" stroke="#6CA3FF" stroke-width="2" stroke-linecap="round" stroke-linejoin="round"/>
<path d="M220.274 213.093C221.98 214.019 224.741 214.019 226.46 213.093C227.463 212.533 227.88 211.776 227.684 211.059V200.887H219.05V211.059C218.855 211.789 219.271 212.533 220.274 213.093Z" fill="white" stroke="#26144D" stroke-width="1.5" stroke-linecap="round" stroke-linejoin="round"/>
<path d="M219.076 207.707C218.881 208.437 219.297 209.181 220.3 209.741C221.993 210.667 224.741 210.667 226.447 209.741C227.45 209.181 227.854 208.424 227.671 207.707" stroke="#26144D" stroke-width="1.5" stroke-linecap="round" stroke-linejoin="round"/>
<path d="M219.076 204.355C218.881 205.086 219.297 205.829 220.3 206.39C221.993 207.316 224.741 207.316 226.447 206.39C227.45 205.829 227.854 205.073 227.671 204.355" stroke="#26144D" stroke-width="1.5" stroke-linecap="round" stroke-linejoin="round"/>
<path d="M223.295 203.338C225.748 203.338 227.736 202.264 227.736 200.939C227.736 199.613 225.748 198.539 223.295 198.539C220.843 198.539 218.854 199.613 218.854 200.939C218.854 202.264 220.843 203.338 223.295 203.338Z" fill="white" stroke="#26144D" stroke-width="1.5" stroke-linecap="round" stroke-linejoin="round"/>
<path d="M236.176 221.883C237.882 222.809 240.643 222.809 242.362 221.883C243.365 221.323 243.781 220.566 243.586 219.849V209.677H234.951V219.849C234.756 220.579 235.173 221.323 236.176 221.883Z" fill="white" stroke="#26144D" stroke-width="1.5" stroke-linecap="round" stroke-linejoin="round"/>
<path d="M234.964 216.51C234.769 217.24 235.186 217.983 236.189 218.544C237.882 219.47 240.63 219.47 242.336 218.544C243.339 217.983 243.742 217.227 243.56 216.51" stroke="#26144D" stroke-width="1.5" stroke-linecap="round" stroke-linejoin="round"/>
<path d="M234.964 213.158C234.769 213.889 235.186 214.632 236.189 215.193C237.882 216.119 240.63 216.119 242.336 215.193C243.339 214.632 243.742 213.875 243.56 213.158" stroke="#26144D" stroke-width="1.5" stroke-linecap="round" stroke-linejoin="round"/>
<path d="M239.197 212.128C241.65 212.128 243.638 211.054 243.638 209.729C243.638 208.403 241.65 207.329 239.197 207.329C236.744 207.329 234.756 208.403 234.756 209.729C234.756 211.054 236.744 212.128 239.197 212.128Z" fill="white" stroke="#26144D" stroke-width="1.5" stroke-linecap="round" stroke-linejoin="round"/>
<path d="M294.039 188.797C295.745 189.723 298.506 189.723 300.225 188.797C301.228 188.237 301.644 187.48 301.449 186.763V176.591H292.815V186.763C292.619 187.493 293.036 188.237 294.039 188.797Z" fill="white" stroke="#26144D" stroke-width="1.5" stroke-linecap="round" stroke-linejoin="round"/>
<path d="M292.828 183.411C292.632 184.141 293.049 184.885 294.052 185.446C295.745 186.372 298.493 186.372 300.199 185.446C301.202 184.885 301.605 184.128 301.423 183.411" stroke="#26144D" stroke-width="1.5" stroke-linecap="round" stroke-linejoin="round"/>
<path d="M292.828 180.06C292.632 180.79 293.049 181.533 294.052 182.094C295.745 183.02 298.493 183.02 300.199 182.094C301.202 181.533 301.605 180.777 301.423 180.06" stroke="#26144D" stroke-width="1.5" stroke-linecap="round" stroke-linejoin="round"/>
<path d="M297.06 179.042C299.513 179.042 301.501 177.968 301.501 176.643C301.501 175.318 299.513 174.243 297.06 174.243C294.608 174.243 292.619 175.318 292.619 176.643C292.619 177.968 294.608 179.042 297.06 179.042Z" fill="white" stroke="#26144D" stroke-width="1.5" stroke-linecap="round" stroke-linejoin="round"/>
<path d="M230.471 185.772C232.177 186.698 234.938 186.698 236.658 185.772C237.66 185.211 238.077 184.455 237.882 183.738V173.565H229.247V183.738C229.052 184.468 229.469 185.211 230.471 185.772Z" fill="white" stroke="#26144D" stroke-width="1.5" stroke-linecap="round" stroke-linejoin="round"/>
<path d="M229.273 180.398C229.078 181.129 229.495 181.872 230.497 182.433C232.19 183.359 234.938 183.359 236.645 182.433C237.647 181.872 238.051 181.116 237.869 180.398" stroke="#26144D" stroke-width="1.5" stroke-linecap="round" stroke-linejoin="round"/>
<path d="M229.273 177.047C229.078 177.777 229.495 178.521 230.497 179.081C232.19 180.007 234.938 180.007 236.645 179.081C237.647 178.521 238.051 177.764 237.869 177.047" stroke="#26144D" stroke-width="1.5" stroke-linecap="round" stroke-linejoin="round"/>
<path d="M233.506 176.017C235.959 176.017 237.947 174.943 237.947 173.617C237.947 172.292 235.959 171.218 233.506 171.218C231.053 171.218 229.065 172.292 229.065 173.617C229.065 174.943 231.053 176.017 233.506 176.017Z" fill="white" stroke="#26144D" stroke-width="1.5" stroke-linecap="round" stroke-linejoin="round"/>
<path d="M283.464 164.985C285.17 165.911 287.931 165.911 289.65 164.985C290.653 164.424 291.069 163.668 290.874 162.951V152.778H282.24V162.951C282.044 163.681 282.461 164.424 283.464 164.985Z" fill="white" stroke="#26144D" stroke-width="1.5" stroke-linecap="round" stroke-linejoin="round"/>
<path d="M282.266 159.611C282.07 160.342 282.487 161.085 283.49 161.646C285.183 162.572 287.931 162.572 289.637 161.646C290.64 161.085 291.043 160.329 290.861 159.611" stroke="#26144D" stroke-width="1.5" stroke-linecap="round" stroke-linejoin="round"/>
<path d="M282.266 156.26C282.07 156.99 282.487 157.733 283.49 158.294C285.183 159.22 287.931 159.22 289.637 158.294C290.64 157.733 291.043 156.977 290.861 156.26" stroke="#26144D" stroke-width="1.5" stroke-linecap="round" stroke-linejoin="round"/>
<path d="M286.485 155.23C288.938 155.23 290.926 154.156 290.926 152.83C290.926 151.505 288.938 150.431 286.485 150.431C284.032 150.431 282.044 151.505 282.044 152.83C282.044 154.156 284.032 155.23 286.485 155.23Z" fill="white" stroke="#26144D" stroke-width="1.5" stroke-linecap="round" stroke-linejoin="round"/>
<path d="M261.142 292.593L260.035 228.365L271.365 222.966L287.54 279.004" stroke="#26144D" stroke-width="1.5" stroke-linecap="round" stroke-linejoin="round"/>
<path d="M234.235 277.752L249.994 222.183V153.756L260.035 123.317L270.492 153.065V222.966L259.891 217.71L249.994 222.183L260.035 228.365V124.726" stroke="#26144D" stroke-width="1.5" stroke-linecap="round" stroke-linejoin="round"/>
<path d="M287.267 279.005L261.142 271.323L234.274 277.883" stroke="#26144D" stroke-width="1.5" stroke-linecap="round" stroke-linejoin="round"/>
<path d="M243.573 246.049L260.725 255.543L277.46 247.17L261.142 271.323L243.573 246.049Z" stroke="#26144D" stroke-width="1.5" stroke-linecap="round" stroke-linejoin="round"/>
<path d="M247.753 233.49L260.725 240.754L274.256 234.886L260.725 255.543L247.753 233.49Z" stroke="#26144D" stroke-width="1.5" stroke-linecap="round" stroke-linejoin="round"/>
<path d="M293.349 175.404L238.976 206.534L260.035 184.755L269.932 178.899L293.349 175.404Z" stroke="#26144D" stroke-width="1.5" stroke-linecap="round" stroke-linejoin="round"/>
<path d="M282.474 169.171L228.101 200.313L249.147 178.535L259.058 172.666L282.474 169.171Z" stroke="#26144D" stroke-width="1.5" stroke-linecap="round" stroke-linejoin="round"/>
<path d="M284.427 155.438L246.23 176.526L259.748 159.35L270.492 153.064L284.427 155.438Z" stroke="#26144D" stroke-width="1.5" stroke-linecap="round" stroke-linejoin="round"/>
<path d="M273.696 150.691L235.485 171.779L249.017 154.603L259.748 148.317L273.696 150.691Z" stroke="#26144D" stroke-width="1.5" stroke-linecap="round" stroke-linejoin="round"/>
<path d="M281.497 261.555L261.142 292.593L240.369 259.312L261.142 271.323L281.367 260.577" stroke="#26144D" stroke-width="1.5" stroke-linecap="round" stroke-linejoin="round"/>
<path d="M270.909 223.853L260.165 239.776L250.554 223.996" stroke="#26144D" stroke-width="1.5" stroke-linecap="round" stroke-linejoin="round"/>
<path d="M259.748 159.351L249.994 153.756" stroke="#26144D" stroke-width="1.5" stroke-linecap="round" stroke-linejoin="round"/>
<path d="M238.976 206.534L228.244 200.392" stroke="#26144D" stroke-width="1.5" stroke-linecap="round" stroke-linejoin="round"/>
<path d="M293.349 175.405L282.474 169.536" stroke="#26144D" stroke-width="1.5" stroke-linecap="round" stroke-linejoin="round"/>
<path d="M246.23 176.525L235.485 171.778" stroke="#26144D" stroke-width="1.5" stroke-linecap="round" stroke-linejoin="round"/>
<path d="M284.427 155.438L273.696 150.691" stroke="#26144D" stroke-width="1.5" stroke-linecap="round" stroke-linejoin="round"/>
<path d="M269.932 178.899L261.142 173.174" stroke="#26144D" stroke-width="1.5" stroke-linecap="round" stroke-linejoin="round"/>
<path d="M260.035 184.755L250.267 178.756" stroke="#26144D" stroke-width="1.5" stroke-linecap="round" stroke-linejoin="round"/>
<path d="M269.789 205.986L260.582 210.029L250.554 203.743" stroke="#26144D" stroke-width="1.5" stroke-linecap="round" stroke-linejoin="round"/>
<path d="M92.4196 141.776C94.1256 142.702 96.8866 142.702 98.6057 141.776C99.6085 141.215 100.025 140.459 99.8299 139.742V129.569H91.1954V139.742C91 140.472 91.4168 141.215 92.4196 141.776Z" fill="white" stroke="#26144D" stroke-width="1.5" stroke-linecap="round" stroke-linejoin="round"/>
<path d="M91.2214 136.39C91.026 137.12 91.4428 137.863 92.4456 138.424C94.1386 139.35 96.8866 139.35 98.5927 138.424C99.5955 137.863 99.9992 137.107 99.8169 136.39" stroke="#26144D" stroke-width="1.5" stroke-linecap="round" stroke-linejoin="round"/>
<path d="M91.2214 133.038C91.026 133.768 91.4428 134.512 92.4456 135.073C94.1386 135.998 96.8866 135.998 98.5927 135.073C99.5955 134.512 99.9992 133.755 99.8169 133.038" stroke="#26144D" stroke-width="1.5" stroke-linecap="round" stroke-linejoin="round"/>
<path d="M95.441 132.021C97.8937 132.021 99.882 130.947 99.882 129.621C99.882 128.296 97.8937 127.222 95.441 127.222C92.9883 127.222 91 128.296 91 129.621C91 130.947 92.9883 132.021 95.441 132.021Z" fill="white" stroke="#26144D" stroke-width="1.5" stroke-linecap="round" stroke-linejoin="round"/>
<path d="M108.321 150.566C110.027 151.492 112.788 151.492 114.507 150.566C115.51 150.005 115.927 149.249 115.731 148.532V138.359H107.097V148.532C106.902 149.262 107.318 150.005 108.321 150.566Z" fill="white" stroke="#26144D" stroke-width="1.5" stroke-linecap="round" stroke-linejoin="round"/>
<path d="M107.11 145.192C106.915 145.923 107.331 146.666 108.334 147.227C110.027 148.153 112.775 148.153 114.481 147.227C115.484 146.666 115.888 145.91 115.705 145.192" stroke="#26144D" stroke-width="1.5" stroke-linecap="round" stroke-linejoin="round"/>
<path d="M107.11 141.841C106.915 142.571 107.331 143.314 108.334 143.875C110.027 144.801 112.775 144.801 114.481 143.875C115.484 143.314 115.888 142.558 115.705 141.841" stroke="#26144D" stroke-width="1.5" stroke-linecap="round" stroke-linejoin="round"/>
<path d="M111.343 140.811C113.795 140.811 115.784 139.737 115.784 138.411C115.784 137.086 113.795 136.012 111.343 136.012C108.89 136.012 106.902 137.086 106.902 138.411C106.902 139.737 108.89 140.811 111.343 140.811Z" fill="white" stroke="#26144D" stroke-width="1.5" stroke-linecap="round" stroke-linejoin="round"/>
<path d="M166.184 117.48C167.89 118.406 170.651 118.406 172.37 117.48C173.373 116.919 173.79 116.163 173.595 115.446V105.273H164.96V115.446C164.765 116.176 165.181 116.919 166.184 117.48Z" fill="white" stroke="#26144D" stroke-width="1.5" stroke-linecap="round" stroke-linejoin="round"/>
<path d="M164.973 112.094C164.778 112.824 165.194 113.567 166.197 114.128C167.89 115.054 170.638 115.054 172.344 114.128C173.347 113.567 173.751 112.811 173.569 112.094" stroke="#26144D" stroke-width="1.5" stroke-linecap="round" stroke-linejoin="round"/>
<path d="M164.973 108.742C164.778 109.472 165.194 110.216 166.197 110.777C167.89 111.703 170.638 111.703 172.344 110.777C173.347 110.216 173.751 109.459 173.569 108.742" stroke="#26144D" stroke-width="1.5" stroke-linecap="round" stroke-linejoin="round"/>
<path d="M169.206 107.725C171.658 107.725 173.647 106.651 173.647 105.325C173.647 104 171.658 102.926 169.206 102.926C166.753 102.926 164.765 104 164.765 105.325C164.765 106.651 166.753 107.725 169.206 107.725Z" fill="white" stroke="#26144D" stroke-width="1.5" stroke-linecap="round" stroke-linejoin="round"/>
<path d="M102.617 114.455C104.323 115.381 107.084 115.381 108.803 114.455C109.806 113.894 110.223 113.138 110.027 112.42V102.248H101.393V112.42C101.197 113.151 101.614 113.894 102.617 114.455Z" fill="white" stroke="#26144D" stroke-width="1.5" stroke-linecap="round" stroke-linejoin="round"/>
<path d="M101.419 109.081C101.223 109.811 101.64 110.555 102.643 111.115C104.336 112.041 107.084 112.041 108.79 111.115C109.793 110.555 110.197 109.798 110.014 109.081" stroke="#26144D" stroke-width="1.5" stroke-linecap="round" stroke-linejoin="round"/>
<path d="M101.419 105.729C101.223 106.46 101.64 107.203 102.643 107.764C104.336 108.69 107.084 108.69 108.79 107.764C109.793 107.203 110.197 106.447 110.014 105.729" stroke="#26144D" stroke-width="1.5" stroke-linecap="round" stroke-linejoin="round"/>
<path d="M105.651 104.7C108.104 104.7 110.092 103.625 110.092 102.3C110.092 100.975 108.104 99.9004 105.651 99.9004C103.199 99.9004 101.21 100.975 101.21 102.3C101.21 103.625 103.199 104.7 105.651 104.7Z" fill="white" stroke="#26144D" stroke-width="1.5" stroke-linecap="round" stroke-linejoin="round"/>
<path d="M155.609 93.6676C157.315 94.5935 160.076 94.5935 161.795 93.6676C162.798 93.1068 163.215 92.3504 163.02 91.6331V81.4609H154.385V91.6331C154.19 92.3634 154.606 93.1068 155.609 93.6676Z" fill="white" stroke="#26144D" stroke-width="1.5" stroke-linecap="round" stroke-linejoin="round"/>
<path d="M154.411 88.2939C154.216 89.0243 154.632 89.7676 155.635 90.3284C157.328 91.2543 160.076 91.2543 161.782 90.3284C162.785 89.7676 163.189 89.0112 163.007 88.2939" stroke="#26144D" stroke-width="1.5" stroke-linecap="round" stroke-linejoin="round"/>
<path d="M154.411 84.9424C154.216 85.6727 154.632 86.416 155.635 86.9768C157.328 87.9027 160.076 87.9027 161.782 86.9768C162.785 86.416 163.189 85.6597 163.007 84.9424" stroke="#26144D" stroke-width="1.5" stroke-linecap="round" stroke-linejoin="round"/>
<path d="M158.631 83.9125C161.083 83.9125 163.072 82.8381 163.072 81.5129C163.072 80.1876 161.083 79.1133 158.631 79.1133C156.178 79.1133 154.19 80.1876 154.19 81.5129C154.19 82.8381 156.178 83.9125 158.631 83.9125Z" fill="white" stroke="#26144D" stroke-width="1.5" stroke-linecap="round" stroke-linejoin="round"/>
<path d="M133.287 221.276L132.18 157.048L143.51 151.648L159.686 207.687" stroke="#26144D" stroke-width="1.5" stroke-linecap="round" stroke-linejoin="round"/>
<path d="M106.381 206.435L122.139 150.866V82.4383L132.18 52L142.638 81.7472V151.648L132.037 146.393L122.139 150.866L132.18 157.047V53.4085" stroke="#26144D" stroke-width="1.5" stroke-linecap="round" stroke-linejoin="round"/>
<path d="M159.412 207.687L133.287 200.006L106.42 206.566" stroke="#26144D" stroke-width="1.5" stroke-linecap="round" stroke-linejoin="round"/>
<path d="M115.718 174.731L132.87 184.225L149.605 175.853L133.287 200.005L115.718 174.731Z" stroke="#26144D" stroke-width="1.5" stroke-linecap="round" stroke-linejoin="round"/>
<path d="M119.899 162.173L132.87 169.437L146.402 163.568L132.87 184.226L119.899 162.173Z" stroke="#26144D" stroke-width="1.5" stroke-linecap="round" stroke-linejoin="round"/>
<path d="M165.494 104.087L111.121 135.216L132.18 113.438L142.078 107.582L165.494 104.087Z" stroke="#26144D" stroke-width="1.5" stroke-linecap="round" stroke-linejoin="round"/>
<path d="M154.619 97.8535L100.247 128.996L121.293 107.217L131.203 101.349L154.619 97.8535Z" stroke="#26144D" stroke-width="1.5" stroke-linecap="round" stroke-linejoin="round"/>
<path d="M156.573 84.1206L118.375 105.208L131.894 88.033L142.638 81.7471L156.573 84.1206Z" stroke="#26144D" stroke-width="1.5" stroke-linecap="round" stroke-linejoin="round"/>
<path d="M145.842 79.3735L107.631 100.461L121.162 83.2859L131.894 77L145.842 79.3735Z" stroke="#26144D" stroke-width="1.5" stroke-linecap="round" stroke-linejoin="round"/>
<path d="M153.643 190.237L133.287 221.275L112.515 187.994L133.287 200.005L153.512 189.259" stroke="#26144D" stroke-width="1.5" stroke-linecap="round" stroke-linejoin="round"/>
<path d="M143.055 152.535L132.31 168.459L122.699 152.679" stroke="#26144D" stroke-width="1.5" stroke-linecap="round" stroke-linejoin="round"/>
<path d="M131.894 88.0332L122.139 82.4385" stroke="#26144D" stroke-width="1.5" stroke-linecap="round" stroke-linejoin="round"/>
<path d="M111.121 135.217L100.39 129.074" stroke="#26144D" stroke-width="1.5" stroke-linecap="round" stroke-linejoin="round"/>
<path d="M165.494 104.087L154.619 98.2188" stroke="#26144D" stroke-width="1.5" stroke-linecap="round" stroke-linejoin="round"/>
<path d="M118.375 105.208L107.631 100.461" stroke="#26144D" stroke-width="1.5" stroke-linecap="round" stroke-linejoin="round"/>
<path d="M156.573 84.121L145.842 79.374" stroke="#26144D" stroke-width="1.5" stroke-linecap="round" stroke-linejoin="round"/>
<path d="M142.078 107.582L133.287 101.856" stroke="#26144D" stroke-width="1.5" stroke-linecap="round" stroke-linejoin="round"/>
<path d="M132.18 113.437L122.413 107.438" stroke="#26144D" stroke-width="1.5" stroke-linecap="round" stroke-linejoin="round"/>
<path d="M141.935 134.669L132.727 138.712L122.699 132.426" stroke="#26144D" stroke-width="1.5" stroke-linecap="round" stroke-linejoin="round"/>
<path d="M242.153 222.131C242.153 222.131 273.865 241.98 307.557 252.021C341.249 262.063 407 266.5 407 266.5" stroke="#6CA3FF" stroke-width="2" stroke-linecap="round" stroke-linejoin="round"/>
<path d="M298.896 189.463C298.896 189.463 331.247 210.838 365.902 222.105C400.557 233.373 436.697 238.211 436.697 238.211" stroke="#6CA3FF" stroke-width="2" stroke-linecap="round" stroke-linejoin="round"/>
<path d="M234.509 186.307C234.509 186.307 269.789 210.381 307.779 223.357C344.804 235.994 395.5 246 395.5 246" stroke="#6CA3FF" stroke-width="2" stroke-linecap="round" stroke-linejoin="round"/>
<path d="M287.423 166.197C287.423 166.197 321.18 189.241 357.541 201.656C392.965 213.759 431.905 219.745 431.905 219.745" stroke="#6CA3FF" stroke-width="2" stroke-linecap="round" stroke-linejoin="round"/>
<g style="mix-blend-mode:multiply" opacity="0.46">
<path d="M106 207.116L280.481 307L307 291.753L134.327 191L106 207.116Z" fill="#B2B4B3"/>
</g>
</g>
</svg>
