<svg width="353" height="493" viewBox="0 0 353 493" fill="none" xmlns="http://www.w3.org/2000/svg">
<mask id="mask0_1211_85" style="mask-type:alpha" maskUnits="userSpaceOnUse" x="0" y="0" width="353" height="493">
<rect width="353" height="493" fill="#D9D9D9"/>
</mask>
<g mask="url(#mask0_1211_85)">
<path d="M210.237 471.801L318.399 409.151L210.237 346.489L102.074 409.151L210.237 471.801Z" fill="#8ED760" stroke="#26144D" stroke-width="1.5" stroke-linecap="round" stroke-linejoin="round"/>
<path d="M210.416 493L318.579 430.338V408.982L210.416 471.644V493Z" fill="#956054" stroke="#26144D" stroke-width="1.5" stroke-linecap="round" stroke-linejoin="round"/>
<path d="M102.152 430.507L210.315 493.157V471.801L102.152 409.14V430.507Z" fill="#A9776B" stroke="#26144D" stroke-width="1.5" stroke-linecap="round" stroke-linejoin="round"/>
<path d="M265.954 412.243V418.653" stroke="#5FAE2C" stroke-width="1.5" stroke-linecap="round" stroke-linejoin="round"/>
<path d="M157.993 411.815V418.226" stroke="#5FAE2C" stroke-width="1.5" stroke-linecap="round" stroke-linejoin="round"/>
<path d="M190.353 383.611V390.021" stroke="#5FAE2C" stroke-width="1.5" stroke-linecap="round" stroke-linejoin="round"/>
<path d="M259.565 415.448V421.858" stroke="#5FAE2C" stroke-width="1.5" stroke-linecap="round" stroke-linejoin="round"/>
<path d="M239.334 387.671V394.081" stroke="#5FAE2C" stroke-width="1.5" stroke-linecap="round" stroke-linejoin="round"/>
<path d="M244.871 385.32V391.73" stroke="#5FAE2C" stroke-width="1.5" stroke-linecap="round" stroke-linejoin="round"/>
<path d="M163.945 408.184V414.594" stroke="#5FAE2C" stroke-width="1.5" stroke-linecap="round" stroke-linejoin="round"/>
<path d="M169.482 412.457V418.867" stroke="#5FAE2C" stroke-width="1.5" stroke-linecap="round" stroke-linejoin="round"/>
<path d="M215.056 439.795V446.205" stroke="#5FAE2C" stroke-width="1.5" stroke-linecap="round" stroke-linejoin="round"/>
<path d="M220.806 435.309V441.719" stroke="#5FAE2C" stroke-width="1.5" stroke-linecap="round" stroke-linejoin="round"/>
<path d="M226.556 440.009V446.419" stroke="#5FAE2C" stroke-width="1.5" stroke-linecap="round" stroke-linejoin="round"/>
<path d="M196.316 387.457V393.867" stroke="#5FAE2C" stroke-width="1.5" stroke-linecap="round" stroke-linejoin="round"/>
<path d="M183.964 388.099V394.509" stroke="#5FAE2C" stroke-width="1.5" stroke-linecap="round" stroke-linejoin="round"/>
<path d="M272.13 415.875V422.285" stroke="#5FAE2C" stroke-width="1.5" stroke-linecap="round" stroke-linejoin="round"/>
<path d="M250.195 387.885V394.295" stroke="#5FAE2C" stroke-width="1.5" stroke-linecap="round" stroke-linejoin="round"/>
<g style="mix-blend-mode:multiply" opacity="0.46">
<path d="M198 442L229 460L295 422L262.5 404.5L198 442Z" fill="#B2B4B3"/>
</g>
<path d="M71.4185 364.527L143.008 323.064L71.4297 281.59L-0.159348 323.064L71.4185 364.527Z" fill="#8ED760" stroke="#26144D" stroke-width="1.5" stroke-linecap="round" stroke-linejoin="round"/>
<path d="M71.5418 378.551L143.131 337.088V322.952L71.5418 364.415V378.551Z" fill="#956054" stroke="#26144D" stroke-width="1.5" stroke-linecap="round" stroke-linejoin="round"/>
<path d="M-0.114502 337.189L71.4746 378.664V364.528L-0.114502 323.053V337.189Z" fill="#A9776B" stroke="#26144D" stroke-width="1.5" stroke-linecap="round" stroke-linejoin="round"/>
<path d="M107.689 322.221V326.91" stroke="#5FAE2C" stroke-width="1.5" stroke-linecap="round" stroke-linejoin="round"/>
<path d="M28.7476 321.906V326.595" stroke="#5FAE2C" stroke-width="1.5" stroke-linecap="round" stroke-linejoin="round"/>
<path d="M52.42 301.292V305.971" stroke="#5FAE2C" stroke-width="1.5" stroke-linecap="round" stroke-linejoin="round"/>
<path d="M103.027 324.56V329.25" stroke="#5FAE2C" stroke-width="1.5" stroke-linecap="round" stroke-linejoin="round"/>
<path d="M88.2314 304.25V308.939" stroke="#5FAE2C" stroke-width="1.5" stroke-linecap="round" stroke-linejoin="round"/>
<path d="M92.2776 302.541V307.219" stroke="#5FAE2C" stroke-width="1.5" stroke-linecap="round" stroke-linejoin="round"/>
<path d="M33.1077 319.252V323.941" stroke="#5FAE2C" stroke-width="1.5" stroke-linecap="round" stroke-linejoin="round"/>
<path d="M37.154 322.378V327.068" stroke="#5FAE2C" stroke-width="1.5" stroke-linecap="round" stroke-linejoin="round"/>
<path d="M70.477 342.373V347.063" stroke="#5FAE2C" stroke-width="1.5" stroke-linecap="round" stroke-linejoin="round"/>
<path d="M74.6802 339.089V343.779" stroke="#5FAE2C" stroke-width="1.5" stroke-linecap="round" stroke-linejoin="round"/>
<path d="M78.8835 342.531V347.22" stroke="#5FAE2C" stroke-width="1.5" stroke-linecap="round" stroke-linejoin="round"/>
<path d="M56.7802 304.104V308.782" stroke="#5FAE2C" stroke-width="1.5" stroke-linecap="round" stroke-linejoin="round"/>
<path d="M47.7461 304.565V309.254" stroke="#5FAE2C" stroke-width="1.5" stroke-linecap="round" stroke-linejoin="round"/>
<path d="M112.206 324.875V329.564" stroke="#5FAE2C" stroke-width="1.5" stroke-linecap="round" stroke-linejoin="round"/>
<path d="M96.167 304.408V309.097" stroke="#5FAE2C" stroke-width="1.5" stroke-linecap="round" stroke-linejoin="round"/>
<path d="M172.329 304.531L243.907 263.068L172.329 221.604L100.74 263.068L172.329 304.531Z" fill="#8ED760" stroke="#26144D" stroke-width="1.5" stroke-linecap="round" stroke-linejoin="round"/>
<path d="M172.441 318.565L244.03 277.091V262.955L172.441 304.429V318.565Z" fill="#956054" stroke="#26144D" stroke-width="1.5" stroke-linecap="round" stroke-linejoin="round"/>
<path d="M100.796 277.204L172.374 318.667V304.531L100.796 263.068V277.204Z" fill="#A9776B" stroke="#26144D" stroke-width="1.5" stroke-linecap="round" stroke-linejoin="round"/>
<path d="M209.06 263.011V267.701" stroke="#5FAE2C" stroke-width="1.5" stroke-linecap="round" stroke-linejoin="round"/>
<path d="M130.118 262.696V267.386" stroke="#5FAE2C" stroke-width="1.5" stroke-linecap="round" stroke-linejoin="round"/>
<path d="M153.779 242.072V246.761" stroke="#5FAE2C" stroke-width="1.5" stroke-linecap="round" stroke-linejoin="round"/>
<path d="M204.386 265.351V270.04" stroke="#5FAE2C" stroke-width="1.5" stroke-linecap="round" stroke-linejoin="round"/>
<path d="M189.602 245.041V249.73" stroke="#5FAE2C" stroke-width="1.5" stroke-linecap="round" stroke-linejoin="round"/>
<path d="M193.648 243.32V248.009" stroke="#5FAE2C" stroke-width="1.5" stroke-linecap="round" stroke-linejoin="round"/>
<path d="M134.478 260.042V264.732" stroke="#5FAE2C" stroke-width="1.5" stroke-linecap="round" stroke-linejoin="round"/>
<path d="M138.524 263.169V267.858" stroke="#5FAE2C" stroke-width="1.5" stroke-linecap="round" stroke-linejoin="round"/>
<path d="M171.847 283.164V287.854" stroke="#5FAE2C" stroke-width="1.5" stroke-linecap="round" stroke-linejoin="round"/>
<path d="M176.05 279.88V284.569" stroke="#5FAE2C" stroke-width="1.5" stroke-linecap="round" stroke-linejoin="round"/>
<path d="M180.254 283.321V288.011" stroke="#5FAE2C" stroke-width="1.5" stroke-linecap="round" stroke-linejoin="round"/>
<path d="M158.139 244.883V249.573" stroke="#5FAE2C" stroke-width="1.5" stroke-linecap="round" stroke-linejoin="round"/>
<path d="M149.116 245.355V250.045" stroke="#5FAE2C" stroke-width="1.5" stroke-linecap="round" stroke-linejoin="round"/>
<path d="M213.577 265.666V270.355" stroke="#5FAE2C" stroke-width="1.5" stroke-linecap="round" stroke-linejoin="round"/>
<path d="M197.537 245.198V249.888" stroke="#5FAE2C" stroke-width="1.5" stroke-linecap="round" stroke-linejoin="round"/>
<path d="M276.031 237.979L347.609 196.515L276.031 155.052L204.442 196.515L276.031 237.979Z" fill="#8ED760" stroke="#26144D" stroke-width="1.5" stroke-linecap="round" stroke-linejoin="round"/>
<path d="M276.143 252.013L347.732 210.539V196.403L276.143 237.877V252.013Z" fill="#956054" stroke="#26144D" stroke-width="1.5" stroke-linecap="round" stroke-linejoin="round"/>
<path d="M204.498 210.652L276.087 252.115V237.979L204.498 196.516V210.652Z" fill="#A9776B" stroke="#26144D" stroke-width="1.5" stroke-linecap="round" stroke-linejoin="round"/>
<g style="mix-blend-mode:multiply" opacity="0.46">
<path d="M67.0001 326.5L100.099 346.999L108.965 341.995L75.1823 322L67.0001 326.5Z" fill="#B2B4B3"/>
</g>
<g style="mix-blend-mode:multiply" opacity="0.46">
<path d="M168 266L202.088 286.988L210.965 281.995L177.171 262L168 266Z" fill="#B2B4B3"/>
</g>
<g style="mix-blend-mode:multiply" opacity="0.46">
<path d="M272 200.5L305.088 220.999L313.965 215.995L280.182 196L272 200.5Z" fill="#B2B4B3"/>
</g>
<path d="M312.503 196.639V201.329" stroke="#5FAE2C" stroke-width="2" stroke-linecap="round" stroke-linejoin="round"/>
<path d="M233.55 196.324V201.014" stroke="#5FAE2C" stroke-width="2" stroke-linecap="round" stroke-linejoin="round"/>
<path d="M257.223 175.7V180.389" stroke="#5FAE2C" stroke-width="2" stroke-linecap="round" stroke-linejoin="round"/>
<path d="M307.83 198.979V203.668" stroke="#5FAE2C" stroke-width="2" stroke-linecap="round" stroke-linejoin="round"/>
<path d="M293.034 178.668V183.358" stroke="#5FAE2C" stroke-width="2" stroke-linecap="round" stroke-linejoin="round"/>
<path d="M297.081 176.948V181.637" stroke="#5FAE2C" stroke-width="2" stroke-linecap="round" stroke-linejoin="round"/>
<path d="M237.911 193.67V198.36" stroke="#5FAE2C" stroke-width="2" stroke-linecap="round" stroke-linejoin="round"/>
<path d="M241.968 196.797V201.475" stroke="#5FAE2C" stroke-width="2" stroke-linecap="round" stroke-linejoin="round"/>
<path d="M275.28 216.792V221.481" stroke="#5FAE2C" stroke-width="2" stroke-linecap="round" stroke-linejoin="round"/>
<path d="M279.494 213.508V218.197" stroke="#5FAE2C" stroke-width="2" stroke-linecap="round" stroke-linejoin="round"/>
<path d="M283.697 216.949V221.639" stroke="#5FAE2C" stroke-width="2" stroke-linecap="round" stroke-linejoin="round"/>
<path d="M261.583 178.511V183.201" stroke="#5FAE2C" stroke-width="2" stroke-linecap="round" stroke-linejoin="round"/>
<path d="M252.549 178.983V183.673" stroke="#5FAE2C" stroke-width="2" stroke-linecap="round" stroke-linejoin="round"/>
<path d="M317.021 199.293V203.983" stroke="#5FAE2C" stroke-width="2" stroke-linecap="round" stroke-linejoin="round"/>
<path d="M300.981 178.826V183.516" stroke="#5FAE2C" stroke-width="2" stroke-linecap="round" stroke-linejoin="round"/>
<path d="M273.083 200.058C275 201.093 278.127 201.093 280.055 200.058C281.187 199.439 281.658 198.596 281.433 197.786V85.7222H271.693V197.786C271.48 198.596 271.94 199.428 273.072 200.058H273.083Z" fill="#B2B4B3" stroke="#26144D" stroke-width="2" stroke-linecap="round" stroke-linejoin="round"/>
<path d="M276.569 88.455C273.851 88.455 271.648 87.2617 271.648 85.7898C271.648 84.3178 273.851 83.1245 276.569 83.1245C279.286 83.1245 281.489 84.3178 281.489 85.7898C281.489 87.2617 279.286 88.455 276.569 88.455Z" fill="white" stroke="#26144D" stroke-width="2" stroke-linecap="round" stroke-linejoin="round"/>
<path d="M296.475 117.874C297.45 118.403 299.031 118.403 300.006 117.874C300.578 117.559 300.813 117.132 300.712 116.727V110.992H295.78V116.727C295.668 117.132 295.904 117.559 296.486 117.874H296.475Z" fill="#7D7D7B" stroke="#26144D" stroke-width="2" stroke-linecap="round" stroke-linejoin="round"/>
<path d="M298.235 112.375C296.855 112.375 295.736 111.771 295.736 111.025C295.736 110.28 296.855 109.676 298.235 109.676C299.615 109.676 300.735 110.28 300.735 111.025C300.735 111.771 299.615 112.375 298.235 112.375Z" fill="#7D7D7B" stroke="#26144D" stroke-width="2" stroke-linecap="round" stroke-linejoin="round"/>
<path d="M254.992 95.9786C255.968 96.5072 257.548 96.5072 258.523 95.9786C259.095 95.6637 259.33 95.2364 259.229 94.8315V89.0962H254.297V94.8315C254.185 95.2364 254.421 95.6637 255.004 95.9786H254.992Z" fill="#7D7D7B" stroke="#26144D" stroke-width="2" stroke-linecap="round" stroke-linejoin="round"/>
<path d="M256.763 90.4793C255.383 90.4793 254.264 89.8751 254.264 89.1298C254.264 88.3845 255.383 87.7803 256.763 87.7803C258.144 87.7803 259.263 88.3845 259.263 89.1298C259.263 89.8751 258.144 90.4793 256.763 90.4793Z" fill="#7D7D7B" stroke="#26144D" stroke-width="2" stroke-linecap="round" stroke-linejoin="round"/>
<path d="M264.307 100.837C265.282 101.366 266.862 101.366 267.837 100.837C268.409 100.522 268.644 100.095 268.544 99.6899V93.9546H263.612V99.6899C263.5 100.095 263.735 100.522 264.318 100.837H264.307Z" fill="#7D7D7B" stroke="#26144D" stroke-width="2" stroke-linecap="round" stroke-linejoin="round"/>
<path d="M266.066 95.3377C264.686 95.3377 263.567 94.7335 263.567 93.9882C263.567 93.2429 264.686 92.6387 266.066 92.6387C267.447 92.6387 268.566 93.2429 268.566 93.9882C268.566 94.7335 267.447 95.3377 266.066 95.3377Z" fill="#7D7D7B" stroke="#26144D" stroke-width="2" stroke-linecap="round" stroke-linejoin="round"/>
<path d="M285.894 112.487C286.87 113.016 288.45 113.016 289.425 112.487C289.997 112.173 290.232 111.745 290.131 111.34V105.605H285.199V111.34C285.087 111.745 285.323 112.173 285.906 112.487H285.894Z" fill="#7D7D7B" stroke="#26144D" stroke-width="2" stroke-linecap="round" stroke-linejoin="round"/>
<path d="M287.665 106.999C286.285 106.999 285.166 106.395 285.166 105.65C285.166 104.904 286.285 104.3 287.665 104.3C289.046 104.3 290.165 104.904 290.165 105.65C290.165 106.395 289.046 106.999 287.665 106.999Z" fill="#7D7D7B" stroke="#26144D" stroke-width="2" stroke-linecap="round" stroke-linejoin="round"/>
<path d="M250.33 97.0581C249.489 97.5417 248.85 98.7337 248.906 99.7121C248.951 100.297 249.22 100.668 249.612 100.769L298.639 127.163L300.622 123.452L251.607 97.0581C251.294 96.7882 250.834 96.7657 250.33 97.0581Z" fill="white" stroke="#26144D" stroke-width="2" stroke-linecap="round" stroke-linejoin="round"/>
<path d="M298.602 127.193C297.958 126.846 297.887 125.722 298.443 124.683C298.999 123.643 299.972 123.08 300.615 123.427C301.259 123.773 301.33 124.897 300.774 125.937C300.218 126.977 299.246 127.539 298.602 127.193Z" fill="#B2B4B3" stroke="#26144D" stroke-width="2" stroke-linecap="round" stroke-linejoin="round"/>
<path d="M298 118.211L296.374 120.404" stroke="#26144D" stroke-width="2" stroke-linecap="round" stroke-linejoin="round"/>
<path d="M284.986 115.018L286.601 112.836" stroke="#26144D" stroke-width="2" stroke-linecap="round" stroke-linejoin="round"/>
<path d="M263.365 103.198L264.99 101.017" stroke="#26144D" stroke-width="2" stroke-linecap="round" stroke-linejoin="round"/>
<path d="M254.208 98.3287L255.822 96.1357" stroke="#26144D" stroke-width="2" stroke-linecap="round" stroke-linejoin="round"/>
<path d="M230.065 353.496C230.065 353.496 266.817 376.302 308.547 380.992C335.649 384.039 372.312 381.981 372.312 381.981" stroke="#6CA3FF" stroke-width="2" stroke-linecap="round" stroke-linejoin="round"/>
<path d="M248.749 343.183C248.749 343.183 277.084 360.682 306.675 368.182C334.461 375.222 374.879 379.428 374.879 379.428" stroke="#6CA3FF" stroke-width="2" stroke-linecap="round" stroke-linejoin="round"/>
<path d="M295.466 121.495C295.466 121.495 270.998 145.685 247.729 159.922C224.46 174.159 196.428 181.48 196.428 181.48" stroke="#6CA3FF" stroke-width="2" stroke-linecap="round" stroke-linejoin="round"/>
<path d="M254.353 98.0591C254.353 98.0591 229.885 122.249 206.616 136.486C183.347 150.723 155.315 158.044 155.315 158.044" stroke="#6CA3FF" stroke-width="2" stroke-linecap="round" stroke-linejoin="round"/>
<path d="M262.771 102.749C262.771 102.749 238.303 126.938 215.034 141.175C191.765 155.412 163.732 162.733 163.732 162.733" stroke="#6CA3FF" stroke-width="2" stroke-linecap="round" stroke-linejoin="round"/>
<path d="M285.278 114.928C285.278 114.928 260.81 139.117 237.541 153.355C214.272 167.592 186.239 174.913 186.239 174.913" stroke="#6CA3FF" stroke-width="2" stroke-linecap="round" stroke-linejoin="round"/>
<path d="M169.224 265.43C171.141 266.465 174.268 266.465 176.196 265.43C177.328 264.811 177.799 263.968 177.575 263.158V151.105H167.835V263.17C167.622 263.979 168.081 264.811 169.213 265.441L169.224 265.43Z" fill="#B2B4B3" stroke="#26144D" stroke-width="2" stroke-linecap="round" stroke-linejoin="round"/>
<path d="M172.699 153.838C169.982 153.838 167.779 152.645 167.779 151.173C167.779 149.701 169.982 148.508 172.699 148.508C175.417 148.508 177.62 149.701 177.62 151.173C177.62 152.645 175.417 153.838 172.699 153.838Z" fill="white" stroke="#26144D" stroke-width="2" stroke-linecap="round" stroke-linejoin="round"/>
<path d="M192.617 183.257C193.592 183.786 195.172 183.786 196.147 183.257C196.719 182.943 196.954 182.515 196.854 182.11V176.375H191.922V182.11C191.81 182.515 192.045 182.943 192.628 183.257H192.617Z" fill="#7D7D7B" stroke="#26144D" stroke-width="2" stroke-linecap="round" stroke-linejoin="round"/>
<path d="M194.377 177.758C192.996 177.758 191.877 177.154 191.877 176.409C191.877 175.663 192.996 175.059 194.377 175.059C195.757 175.059 196.876 175.663 196.876 176.409C196.876 177.154 195.757 177.758 194.377 177.758Z" fill="#7D7D7B" stroke="#26144D" stroke-width="2" stroke-linecap="round" stroke-linejoin="round"/>
<path d="M151.134 161.362C152.109 161.89 153.689 161.89 154.665 161.362C155.236 161.047 155.472 160.62 155.371 160.215V154.479H150.439V160.215C150.327 160.62 150.562 161.047 151.145 161.362H151.134Z" fill="#7D7D7B" stroke="#26144D" stroke-width="2" stroke-linecap="round" stroke-linejoin="round"/>
<path d="M152.894 155.863C151.513 155.863 150.394 155.258 150.394 154.513C150.394 153.768 151.513 153.164 152.894 153.164C154.274 153.164 155.393 153.768 155.393 154.513C155.393 155.258 154.274 155.863 152.894 155.863Z" fill="#7D7D7B" stroke="#26144D" stroke-width="2" stroke-linecap="round" stroke-linejoin="round"/>
<path d="M160.437 166.22C161.412 166.749 162.993 166.749 163.968 166.22C164.539 165.905 164.775 165.478 164.674 165.073V159.338H159.742V165.073C159.63 165.478 159.865 165.905 160.448 166.22H160.437Z" fill="#7D7D7B" stroke="#26144D" stroke-width="2" stroke-linecap="round" stroke-linejoin="round"/>
<path d="M162.208 160.721C160.827 160.721 159.708 160.117 159.708 159.371C159.708 158.626 160.827 158.022 162.208 158.022C163.588 158.022 164.707 158.626 164.707 159.371C164.707 160.117 163.588 160.721 162.208 160.721Z" fill="#7D7D7B" stroke="#26144D" stroke-width="2" stroke-linecap="round" stroke-linejoin="round"/>
<path d="M182.036 177.871C183.011 178.399 184.591 178.399 185.567 177.871C186.138 177.556 186.374 177.128 186.273 176.724V170.988H181.341V176.724C181.229 177.128 181.464 177.556 182.047 177.871H182.036Z" fill="#7D7D7B" stroke="#26144D" stroke-width="2" stroke-linecap="round" stroke-linejoin="round"/>
<path d="M183.807 172.383C182.426 172.383 181.307 171.778 181.307 171.033C181.307 170.288 182.426 169.684 183.807 169.684C185.187 169.684 186.306 170.288 186.306 171.033C186.306 171.778 185.187 172.383 183.807 172.383Z" fill="#7D7D7B" stroke="#26144D" stroke-width="2" stroke-linecap="round" stroke-linejoin="round"/>
<path d="M146.471 162.441C145.63 162.925 144.992 164.117 145.048 165.095C145.092 165.68 145.361 166.051 145.754 166.153L194.78 192.546L196.764 188.835L147.738 162.441C147.424 162.172 146.964 162.149 146.46 162.441H146.471Z" fill="white" stroke="#26144D" stroke-width="2" stroke-linecap="round" stroke-linejoin="round"/>
<path d="M194.742 192.565C194.099 192.218 194.028 191.095 194.584 190.055C195.14 189.015 196.112 188.453 196.756 188.799C197.399 189.145 197.471 190.269 196.915 191.309C196.359 192.349 195.386 192.911 194.742 192.565Z" fill="#B2B4B3" stroke="#26144D" stroke-width="2" stroke-linecap="round" stroke-linejoin="round"/>
<path d="M192.516 185.788L194.141 183.595" stroke="#26144D" stroke-width="2" stroke-linecap="round" stroke-linejoin="round"/>
<path d="M181.117 180.401L182.742 178.219" stroke="#26144D" stroke-width="2" stroke-linecap="round" stroke-linejoin="round"/>
<path d="M159.507 168.582L161.132 166.4" stroke="#26144D" stroke-width="2" stroke-linecap="round" stroke-linejoin="round"/>
<path d="M150.349 163.701L151.963 161.519" stroke="#26144D" stroke-width="2" stroke-linecap="round" stroke-linejoin="round"/>
<path d="M192.46 183.594C192.46 183.594 167.991 207.784 144.723 222.021C120.983 236.551 93.4209 243.579 93.4209 243.579" stroke="#6CA3FF" stroke-width="2" stroke-linecap="round" stroke-linejoin="round"/>
<path d="M151.358 160.158C151.358 160.158 126.89 184.348 103.621 198.585C79.881 213.115 52.3191 220.143 52.3191 220.143" stroke="#6CA3FF" stroke-width="2" stroke-linecap="round" stroke-linejoin="round"/>
<path d="M159.764 164.848C159.764 164.848 135.296 189.037 112.027 203.274C88.2874 217.804 60.7256 224.833 60.7256 224.833" stroke="#6CA3FF" stroke-width="2" stroke-linecap="round" stroke-linejoin="round"/>
<path d="M182.271 177.027C182.271 177.027 157.803 201.217 134.534 215.454C110.794 229.983 83.2323 237.012 83.2323 237.012" stroke="#6CA3FF" stroke-width="2" stroke-linecap="round" stroke-linejoin="round"/>
<path d="M67.5404 325.662C69.457 326.697 72.5842 326.697 74.5121 325.662C75.6442 325.043 76.1149 324.2 75.8908 323.39V211.326H66.1505V323.39C65.9375 324.2 66.3971 325.032 67.5292 325.662H67.5404Z" fill="#B2B4B3" stroke="#26144D" stroke-width="2" stroke-linecap="round" stroke-linejoin="round"/>
<path d="M71.0262 214.059C68.3087 214.059 66.1057 212.866 66.1057 211.394C66.1057 209.922 68.3087 208.729 71.0262 208.729C73.7438 208.729 75.9468 209.922 75.9468 211.394C75.9468 212.866 73.7438 214.059 71.0262 214.059Z" fill="white" stroke="#26144D" stroke-width="2" stroke-linecap="round" stroke-linejoin="round"/>
<path d="M90.9326 243.478C91.9078 244.007 93.4882 244.007 94.4633 243.478C95.035 243.163 95.2703 242.736 95.1695 242.331V236.596H90.2377V242.331C90.1256 242.736 90.361 243.163 90.9438 243.478H90.9326Z" fill="#7D7D7B" stroke="#26144D" stroke-width="2" stroke-linecap="round" stroke-linejoin="round"/>
<path d="M92.6924 237.979C91.312 237.979 90.1929 237.375 90.1929 236.629C90.1929 235.884 91.312 235.28 92.6924 235.28C94.0729 235.28 95.1919 235.884 95.1919 236.629C95.1919 237.375 94.0729 237.979 92.6924 237.979Z" fill="#7D7D7B" stroke="#26144D" stroke-width="2" stroke-linecap="round" stroke-linejoin="round"/>
<path d="M49.4498 221.583C50.4249 222.111 52.0053 222.111 52.9804 221.583C53.5521 221.268 53.7875 220.84 53.6866 220.436V214.7H48.7548V220.436C48.6427 220.84 48.8781 221.268 49.461 221.583H49.4498Z" fill="#7D7D7B" stroke="#26144D" stroke-width="2" stroke-linecap="round" stroke-linejoin="round"/>
<path d="M51.2207 216.094C49.8403 216.094 48.7212 215.49 48.7212 214.745C48.7212 214 49.8403 213.396 51.2207 213.396C52.6011 213.396 53.7202 214 53.7202 214.745C53.7202 215.49 52.6011 216.094 51.2207 216.094Z" fill="#7D7D7B" stroke="#26144D" stroke-width="2" stroke-linecap="round" stroke-linejoin="round"/>
<path d="M58.7641 226.441C59.7392 226.97 61.3196 226.97 62.2948 226.441C62.8664 226.126 63.1018 225.699 63.0009 225.294V219.559H58.0692V225.294C57.9571 225.699 58.1925 226.126 58.7753 226.441H58.7641Z" fill="#7D7D7B" stroke="#26144D" stroke-width="2" stroke-linecap="round" stroke-linejoin="round"/>
<path d="M60.5239 220.953C59.1434 220.953 58.0243 220.349 58.0243 219.603C58.0243 218.858 59.1434 218.254 60.5239 218.254C61.9043 218.254 63.0233 218.858 63.0233 219.603C63.0233 220.349 61.9043 220.953 60.5239 220.953Z" fill="#7D7D7B" stroke="#26144D" stroke-width="2" stroke-linecap="round" stroke-linejoin="round"/>
<path d="M80.363 238.103C81.3381 238.631 82.9185 238.631 83.8937 238.103C84.4653 237.788 84.7007 237.36 84.5998 236.956V231.22H79.668V236.956C79.556 237.36 79.7913 237.788 80.3742 238.103H80.363Z" fill="#7D7D7B" stroke="#26144D" stroke-width="2" stroke-linecap="round" stroke-linejoin="round"/>
<path d="M82.1227 232.603C80.7423 232.603 79.6232 231.999 79.6232 231.254C79.6232 230.508 80.7423 229.904 82.1227 229.904C83.5032 229.904 84.6223 230.508 84.6223 231.254C84.6223 231.999 83.5032 232.603 82.1227 232.603Z" fill="#7D7D7B" stroke="#26144D" stroke-width="2" stroke-linecap="round" stroke-linejoin="round"/>
<path d="M44.7982 222.662C43.9576 223.146 43.3187 224.338 43.3747 225.316C43.4195 225.901 43.6886 226.272 44.0809 226.373L93.1071 252.767L95.091 249.056L46.0648 222.662C45.7509 222.392 45.2914 222.37 44.787 222.662H44.7982Z" fill="white" stroke="#26144D" stroke-width="2" stroke-linecap="round" stroke-linejoin="round"/>
<path d="M93.0655 252.807C92.4218 252.461 92.3507 251.337 92.9066 250.297C93.4626 249.257 94.4352 248.695 95.0788 249.041C95.7225 249.388 95.7936 250.511 95.2377 251.551C94.6817 252.591 93.7092 253.153 93.0655 252.807Z" fill="#B2B4B3" stroke="#26144D" stroke-width="2" stroke-linecap="round" stroke-linejoin="round"/>
<path d="M90.8318 246.008L92.457 243.827" stroke="#26144D" stroke-width="2" stroke-linecap="round" stroke-linejoin="round"/>
<path d="M79.4439 240.633L81.0579 238.44" stroke="#26144D" stroke-width="2" stroke-linecap="round" stroke-linejoin="round"/>
<path d="M57.8226 228.802L59.4478 226.621" stroke="#26144D" stroke-width="2" stroke-linecap="round" stroke-linejoin="round"/>
<path d="M48.6651 223.933L50.2904 221.751" stroke="#26144D" stroke-width="2" stroke-linecap="round" stroke-linejoin="round"/>
<path d="M91.0896 245.693L243.616 342.238" stroke="#6CA3FF" stroke-width="2" stroke-linecap="round" stroke-linejoin="round"/>
<path d="M79.4102 240.768L226.097 352.09" stroke="#6CA3FF" stroke-width="2" stroke-linecap="round" stroke-linejoin="round"/>
<path d="M58.3942 228.825L208.813 361.457" stroke="#6CA3FF" stroke-width="2" stroke-linecap="round" stroke-linejoin="round"/>
<path d="M48.8221 224.372L192.931 370.836" stroke="#6CA3FF" stroke-width="2" stroke-linecap="round" stroke-linejoin="round"/>
<path d="M197.851 441.381L261.751 404.36V357.949L197.851 394.959V441.381Z" fill="#004DA9" stroke="#26144D" stroke-width="1.5" stroke-linecap="round" stroke-linejoin="round"/>
<path d="M206.527 430.045L253.064 403.089V373.097L206.527 400.053V430.045Z" fill="#248CFF" stroke="#26144D" stroke-width="1.5" stroke-linecap="round" stroke-linejoin="round"/>
<path d="M249.175 404.888V375.964" stroke="#26144D" stroke-width="1.5" stroke-linecap="round" stroke-linejoin="round"/>
<path d="M244.524 407.588V378.652" stroke="#26144D" stroke-width="1.5" stroke-linecap="round" stroke-linejoin="round"/>
<path d="M240.343 410.005V381.081" stroke="#26144D" stroke-width="1.5" stroke-linecap="round" stroke-linejoin="round"/>
<path d="M236.274 412.356V383.432" stroke="#26144D" stroke-width="1.5" stroke-linecap="round" stroke-linejoin="round"/>
<path d="M232.093 414.774V385.85" stroke="#26144D" stroke-width="1.5" stroke-linecap="round" stroke-linejoin="round"/>
<path d="M227.8 417.27V388.346" stroke="#26144D" stroke-width="1.5" stroke-linecap="round" stroke-linejoin="round"/>
<path d="M223.317 419.857V390.933" stroke="#26144D" stroke-width="1.5" stroke-linecap="round" stroke-linejoin="round"/>
<path d="M218.789 422.488V393.563" stroke="#26144D" stroke-width="1.5" stroke-linecap="round" stroke-linejoin="round"/>
<path d="M214.608 424.906V395.981" stroke="#26144D" stroke-width="1.5" stroke-linecap="round" stroke-linejoin="round"/>
<path d="M210.427 427.335V398.411" stroke="#26144D" stroke-width="1.5" stroke-linecap="round" stroke-linejoin="round"/>
<path d="M179.817 431.035L197.795 441.448V395.026L179.817 384.612V431.035Z" fill="#0069EA" stroke="#26144D" stroke-width="1.5" stroke-linecap="round" stroke-linejoin="round"/>
<path d="M183.672 426.964L194.309 433.116V403.123L183.672 396.972V426.964Z" fill="#248CFF" stroke="#26144D" stroke-width="1.5" stroke-linecap="round" stroke-linejoin="round"/>
<path d="M191.07 430.787V401.863" stroke="#26144D" stroke-width="1.5" stroke-linecap="round" stroke-linejoin="round"/>
<path d="M187.225 428.561V399.637" stroke="#26144D" stroke-width="1.5" stroke-linecap="round" stroke-linejoin="round"/>
<path d="M201.864 396.634L269.384 357.522L241.228 341.215L173.708 380.328L201.864 396.634Z" fill="#D8D8D8" stroke="#26144D" stroke-width="1.5" stroke-linecap="round" stroke-linejoin="round"/>
<g style="mix-blend-mode:multiply" opacity="0.46">
<path d="M249.22 358.174L192 390.045L181.957 384.422L237.776 353.023L249.22 358.174Z" fill="#B2B4B3"/>
</g>
<path d="M173.786 386.502L201.942 402.808V396.814L173.786 380.508V386.502Z" fill="#B2B4B3" stroke="#26144D" stroke-width="1.5" stroke-linecap="round" stroke-linejoin="round"/>
<path d="M201.886 402.865L269.395 363.752V357.758L201.886 396.871V402.865Z" fill="#7D7D7B" stroke="#26144D" stroke-width="1.5" stroke-linecap="round" stroke-linejoin="round"/>
<path d="M207.995 376.83C209.956 377.899 213.128 377.899 215.101 376.83C216.256 376.189 216.726 375.312 216.513 374.48V362.773H206.594V374.48C206.381 375.312 206.84 376.178 208.006 376.83H207.995Z" fill="white" stroke="#26144D" stroke-width="1.5" stroke-linecap="round" stroke-linejoin="round"/>
<path d="M206.616 371.601C206.403 372.433 206.863 373.299 208.017 373.951C209.968 375.02 213.128 375.02 215.079 373.951C216.233 373.31 216.693 372.433 216.48 371.601" fill="white"/>
<path d="M206.616 371.601C206.403 372.433 206.863 373.299 208.017 373.951C209.968 375.02 213.128 375.02 215.079 373.951C216.233 373.31 216.693 372.433 216.48 371.601" stroke="#26144D" stroke-width="1.5" stroke-linecap="round" stroke-linejoin="round"/>
<path d="M206.616 368.587C206.403 369.42 206.863 370.286 208.017 370.938C209.968 372.006 213.128 372.006 215.079 370.938C216.233 370.297 216.693 369.42 216.48 368.587" fill="white"/>
<path d="M206.616 368.587C206.403 369.42 206.863 370.286 208.017 370.938C209.968 372.006 213.128 372.006 215.079 370.938C216.233 370.297 216.693 369.42 216.48 368.587" stroke="#26144D" stroke-width="1.5" stroke-linecap="round" stroke-linejoin="round"/>
<path d="M206.583 365.708C206.37 366.541 206.829 367.407 207.984 368.059C209.934 369.127 213.095 369.127 215.045 368.059C216.2 367.418 216.659 366.541 216.446 365.708" fill="white"/>
<path d="M206.583 365.708C206.37 366.541 206.829 367.407 207.984 368.059C209.934 369.127 213.095 369.127 215.045 368.059C216.2 367.418 216.659 366.541 216.446 365.708" stroke="#26144D" stroke-width="1.5" stroke-linecap="round" stroke-linejoin="round"/>
<path d="M211.47 365.596C208.653 365.596 206.37 364.362 206.37 362.841C206.37 361.319 208.653 360.085 211.47 360.085C214.286 360.085 216.569 361.319 216.569 362.841C216.569 364.362 214.286 365.596 211.47 365.596Z" fill="white" stroke="#26144D" stroke-width="1.5" stroke-linecap="round" stroke-linejoin="round"/>
<path d="M209.979 362.942C210.696 363.336 211.873 363.336 212.602 362.942C213.028 362.706 213.207 362.391 213.117 362.087V357.836H209.452V362.087C209.374 362.391 209.542 362.706 209.968 362.942H209.979Z" fill="white" stroke="#26144D" stroke-width="1.5" stroke-linecap="round" stroke-linejoin="round"/>
<path d="M211.29 358.86C210.269 358.86 209.441 358.412 209.441 357.859C209.441 357.306 210.269 356.858 211.29 356.858C212.312 356.858 213.14 357.306 213.14 357.859C213.14 358.412 212.312 358.86 211.29 358.86Z" fill="white" stroke="#26144D" stroke-width="1.5" stroke-linecap="round" stroke-linejoin="round"/>
<path d="M211.201 360.097C208.384 360.097 206.101 358.863 206.101 357.342C206.101 355.82 208.384 354.586 211.201 354.586C214.017 354.586 216.3 355.82 216.3 357.342C216.3 358.863 214.017 360.097 211.201 360.097Z" fill="#E40133" stroke="#26144D" stroke-width="1.5" stroke-linecap="round" stroke-linejoin="round"/>
<path d="M191.417 385.737C193.379 386.805 196.551 386.805 198.524 385.737C199.678 385.096 200.149 384.219 199.936 383.387V371.68H190.016V383.387C189.803 384.219 190.263 385.085 191.429 385.737H191.417Z" fill="white" stroke="#26144D" stroke-width="1.5" stroke-linecap="round" stroke-linejoin="round"/>
<path d="M190.028 380.508C189.815 381.34 190.274 382.206 191.429 382.858C193.379 383.927 196.54 383.927 198.49 382.858C199.644 382.217 200.104 381.34 199.891 380.508" fill="white"/>
<path d="M190.028 380.508C189.815 381.34 190.274 382.206 191.429 382.858C193.379 383.927 196.54 383.927 198.49 382.858C199.644 382.217 200.104 381.34 199.891 380.508" stroke="#26144D" stroke-width="1.5" stroke-linecap="round" stroke-linejoin="round"/>
<path d="M190.028 377.494C189.815 378.326 190.274 379.192 191.429 379.845C193.379 380.913 196.54 380.913 198.49 379.845C199.644 379.203 200.104 378.326 199.891 377.494" fill="white"/>
<path d="M190.028 377.494C189.815 378.326 190.274 379.192 191.429 379.845C193.379 380.913 196.54 380.913 198.49 379.845C199.644 379.203 200.104 378.326 199.891 377.494" stroke="#26144D" stroke-width="1.5" stroke-linecap="round" stroke-linejoin="round"/>
<path d="M190.005 374.615C189.792 375.447 190.252 376.313 191.406 376.966C193.356 378.034 196.517 378.034 198.468 376.966C199.622 376.325 200.082 375.447 199.869 374.615" fill="white"/>
<path d="M190.005 374.615C189.792 375.447 190.252 376.313 191.406 376.966C193.356 378.034 196.517 378.034 198.468 376.966C199.622 376.325 200.082 375.447 199.869 374.615" stroke="#26144D" stroke-width="1.5" stroke-linecap="round" stroke-linejoin="round"/>
<path d="M194.892 374.503C192.075 374.503 189.792 373.269 189.792 371.747C189.792 370.226 192.075 368.992 194.892 368.992C197.709 368.992 199.992 370.226 199.992 371.747C199.992 373.269 197.709 374.503 194.892 374.503Z" fill="white" stroke="#26144D" stroke-width="1.5" stroke-linecap="round" stroke-linejoin="round"/>
<path d="M193.401 371.849C194.119 372.242 195.296 372.242 196.024 371.849C196.45 371.613 196.629 371.298 196.54 370.994V366.743H192.874V370.994C192.796 371.298 192.964 371.613 193.39 371.849H193.401Z" fill="white" stroke="#26144D" stroke-width="1.5" stroke-linecap="round" stroke-linejoin="round"/>
<path d="M194.713 367.755C193.691 367.755 192.863 367.307 192.863 366.754C192.863 366.202 193.691 365.753 194.713 365.753C195.734 365.753 196.562 366.202 196.562 366.754C196.562 367.307 195.734 367.755 194.713 367.755Z" fill="white" stroke="#26144D" stroke-width="1.5" stroke-linecap="round" stroke-linejoin="round"/>
<path d="M194.623 369.004C191.806 369.004 189.523 367.77 189.523 366.248C189.523 364.727 191.806 363.493 194.623 363.493C197.44 363.493 199.723 364.727 199.723 366.248C199.723 367.77 197.44 369.004 194.623 369.004Z" fill="#E40133" stroke="#26144D" stroke-width="1.5" stroke-linecap="round" stroke-linejoin="round"/>
<path d="M243.347 356.757C245.308 357.825 248.48 357.825 250.453 356.757C251.607 356.116 252.078 355.239 251.865 354.407V342.7H241.946V354.407C241.733 355.239 242.192 356.105 243.358 356.757H243.347Z" fill="white" stroke="#26144D" stroke-width="1.5" stroke-linecap="round" stroke-linejoin="round"/>
<path d="M241.957 351.527C241.744 352.36 242.203 353.225 243.358 353.878C245.308 354.946 248.469 354.946 250.419 353.878C251.574 353.237 252.033 352.36 251.82 351.527" fill="white"/>
<path d="M241.957 351.527C241.744 352.36 242.203 353.225 243.358 353.878C245.308 354.946 248.469 354.946 250.419 353.878C251.574 353.237 252.033 352.36 251.82 351.527" stroke="#26144D" stroke-width="1.5" stroke-linecap="round" stroke-linejoin="round"/>
<path d="M241.957 348.502C241.744 349.335 242.203 350.201 243.358 350.853C245.308 351.921 248.469 351.921 250.419 350.853C251.574 350.212 252.033 349.335 251.82 348.502" fill="white"/>
<path d="M241.957 348.502C241.744 349.335 242.203 350.201 243.358 350.853C245.308 351.921 248.469 351.921 250.419 350.853C251.574 350.212 252.033 349.335 251.82 348.502" stroke="#26144D" stroke-width="1.5" stroke-linecap="round" stroke-linejoin="round"/>
<path d="M241.934 345.635C241.721 346.467 242.181 347.333 243.335 347.985C245.286 349.053 248.447 349.053 250.397 347.985C251.551 347.344 252.011 346.467 251.798 345.635" fill="white"/>
<path d="M241.934 345.635C241.721 346.467 242.181 347.333 243.335 347.985C245.286 349.053 248.447 349.053 250.397 347.985C251.551 347.344 252.011 346.467 251.798 345.635" stroke="#26144D" stroke-width="1.5" stroke-linecap="round" stroke-linejoin="round"/>
<path d="M246.821 345.522C244.005 345.522 241.721 344.289 241.721 342.767C241.721 341.245 244.005 340.012 246.821 340.012C249.638 340.012 251.921 341.245 251.921 342.767C251.921 344.289 249.638 345.522 246.821 345.522Z" fill="white" stroke="#26144D" stroke-width="1.5" stroke-linecap="round" stroke-linejoin="round"/>
<path d="M245.319 342.857C246.037 343.251 247.214 343.251 247.942 342.857C248.368 342.621 248.547 342.306 248.458 342.002V337.751H244.793V342.002C244.714 342.306 244.882 342.621 245.308 342.857H245.319Z" fill="white" stroke="#26144D" stroke-width="1.5" stroke-linecap="round" stroke-linejoin="round"/>
<path d="M246.631 338.775C245.609 338.775 244.781 338.327 244.781 337.774C244.781 337.221 245.609 336.773 246.631 336.773C247.652 336.773 248.48 337.221 248.48 337.774C248.48 338.327 247.652 338.775 246.631 338.775Z" fill="white" stroke="#26144D" stroke-width="1.5" stroke-linecap="round" stroke-linejoin="round"/>
<path d="M246.552 340.023C243.736 340.023 241.452 338.79 241.452 337.268C241.452 335.746 243.736 334.513 246.552 334.513C249.369 334.513 251.652 335.746 251.652 337.268C251.652 338.79 249.369 340.023 246.552 340.023Z" fill="#E40133" stroke="#26144D" stroke-width="1.5" stroke-linecap="round" stroke-linejoin="round"/>
<path d="M225.133 366.821C227.094 367.89 230.266 367.89 232.239 366.821C233.393 366.18 233.864 365.303 233.651 364.471V352.764H223.732V364.471C223.519 365.303 223.978 366.169 225.144 366.821H225.133Z" fill="white" stroke="#26144D" stroke-width="1.5" stroke-linecap="round" stroke-linejoin="round"/>
<path d="M223.754 361.592C223.541 362.424 224.001 363.29 225.155 363.943C227.105 365.011 230.266 365.011 232.217 363.943C233.371 363.302 233.831 362.424 233.618 361.592" fill="white"/>
<path d="M223.754 361.592C223.541 362.424 224.001 363.29 225.155 363.943C227.105 365.011 230.266 365.011 232.217 363.943C233.371 363.302 233.831 362.424 233.618 361.592" stroke="#26144D" stroke-width="1.5" stroke-linecap="round" stroke-linejoin="round"/>
<path d="M223.754 358.579C223.541 359.411 224.001 360.277 225.155 360.929C227.105 361.997 230.266 361.997 232.217 360.929C233.371 360.288 233.831 359.411 233.618 358.579" fill="white"/>
<path d="M223.754 358.579C223.541 359.411 224.001 360.277 225.155 360.929C227.105 361.997 230.266 361.997 232.217 360.929C233.371 360.288 233.831 359.411 233.618 358.579" stroke="#26144D" stroke-width="1.5" stroke-linecap="round" stroke-linejoin="round"/>
<path d="M223.72 355.711C223.508 356.543 223.967 357.409 225.122 358.061C227.072 359.13 230.233 359.13 232.183 358.061C233.337 357.42 233.797 356.543 233.584 355.711" fill="white"/>
<path d="M223.72 355.711C223.508 356.543 223.967 357.409 225.122 358.061C227.072 359.13 230.233 359.13 232.183 358.061C233.337 357.42 233.797 356.543 233.584 355.711" stroke="#26144D" stroke-width="1.5" stroke-linecap="round" stroke-linejoin="round"/>
<path d="M228.607 355.598C225.791 355.598 223.508 354.365 223.508 352.843C223.508 351.321 225.791 350.088 228.607 350.088C231.424 350.088 233.707 351.321 233.707 352.843C233.707 354.365 231.424 355.598 228.607 355.598Z" fill="white" stroke="#26144D" stroke-width="1.5" stroke-linecap="round" stroke-linejoin="round"/>
<path d="M227.117 352.933C227.834 353.327 229.011 353.327 229.739 352.933C230.165 352.697 230.345 352.382 230.255 352.079V347.828H226.59V352.079C226.511 352.382 226.68 352.697 227.105 352.933H227.117Z" fill="white" stroke="#26144D" stroke-width="1.5" stroke-linecap="round" stroke-linejoin="round"/>
<path d="M228.428 348.851C227.407 348.851 226.579 348.403 226.579 347.85C226.579 347.297 227.407 346.849 228.428 346.849C229.449 346.849 230.277 347.297 230.277 347.85C230.277 348.403 229.449 348.851 228.428 348.851Z" fill="white" stroke="#26144D" stroke-width="1.5" stroke-linecap="round" stroke-linejoin="round"/>
<path d="M228.338 350.099C225.522 350.099 223.239 348.866 223.239 347.344C223.239 345.822 225.522 344.589 228.338 344.589C231.155 344.589 233.438 345.822 233.438 347.344C233.438 348.866 231.155 350.099 228.338 350.099Z" fill="#E40133" stroke="#26144D" stroke-width="1.5" stroke-linecap="round" stroke-linejoin="round"/>
<path d="M254.589 352.314L263.231 357.24L211.066 386.918" stroke="white" stroke-width="1.5" stroke-linecap="round" stroke-linejoin="round"/>
<path d="M258.568 374.345V402.932" stroke="white" stroke-width="1.5" stroke-linecap="round" stroke-linejoin="round"/>
<path d="M196.125 371.927C196.125 371.927 232.911 397.196 266.817 410.05C294.85 420.678 373.5 410.05 373.5 410.05" stroke="#6CA3FF" stroke-width="2" stroke-linecap="round" stroke-linejoin="round"/>
<path d="M213.252 363.178C213.252 363.178 244.703 381.61 274.91 389.111C303.29 396.151 371.5 398 371.5 398" stroke="#6CA3FF" stroke-width="2" stroke-linecap="round" stroke-linejoin="round"/>
<path d="M42.7683 9.99216C35.3686 12.5795 -7.51327 164.796 160 100C327.513 35.205 419.097 10.0347 292 110" stroke="#26144D" stroke-width="2" stroke-linecap="round" stroke-linejoin="round"/>
<path d="M26.9458 0.190337C16.0699 9.935 -31.0187 179.968 148 113.5C327.019 47.0323 340 53.9997 267.5 98.9997" stroke="#26144D" stroke-width="2" stroke-linecap="round" stroke-linejoin="round"/>
<path d="M61.3607 110.841L57.3279 120.361L51.2587 114.5L52.8271 123.236L44.7014 125.374L53.3282 129.074L50.3625 138.922L57.9227 132.16L64.8434 137.258L63.4258 128.257L72.6946 122.257L62.6639 121.997L61.3607 110.841Z" fill="#FFBF33"/>
</g>
</svg>
