<svg width="390" height="495" viewBox="0 0 390 495" fill="none" xmlns="http://www.w3.org/2000/svg">
<mask id="mask0_1112_4" style="mask-type:alpha" maskUnits="userSpaceOnUse" x="0" y="0" width="390" height="495">
<rect width="390" height="495" fill="#D9D9D9"/>
</mask>
<g mask="url(#mask0_1112_4)">
<path d="M231.237 472.801L339.399 410.151L231.237 347.489L123.074 410.151L231.237 472.801Z" fill="#8ED760" stroke="#26144D" stroke-width="1.5" stroke-linecap="round" stroke-linejoin="round"/>
<path d="M231.416 494L339.579 431.338V409.982L231.416 472.644V494Z" fill="#956054" stroke="#26144D" stroke-width="1.5" stroke-linecap="round" stroke-linejoin="round"/>
<path d="M123.152 431.507L231.315 494.157V472.801L123.152 410.14V431.507Z" fill="#A9776B" stroke="#26144D" stroke-width="1.5" stroke-linecap="round" stroke-linejoin="round"/>
<path d="M286.954 413.243V419.653" stroke="#5FAE2C" stroke-width="1.5" stroke-linecap="round" stroke-linejoin="round"/>
<path d="M178.993 412.815V419.226" stroke="#5FAE2C" stroke-width="1.5" stroke-linecap="round" stroke-linejoin="round"/>
<path d="M211.353 384.611V391.021" stroke="#5FAE2C" stroke-width="1.5" stroke-linecap="round" stroke-linejoin="round"/>
<path d="M280.565 416.448V422.858" stroke="#5FAE2C" stroke-width="1.5" stroke-linecap="round" stroke-linejoin="round"/>
<path d="M260.334 388.671V395.081" stroke="#5FAE2C" stroke-width="1.5" stroke-linecap="round" stroke-linejoin="round"/>
<path d="M265.871 386.32V392.73" stroke="#5FAE2C" stroke-width="1.5" stroke-linecap="round" stroke-linejoin="round"/>
<path d="M184.945 409.184V415.594" stroke="#5FAE2C" stroke-width="1.5" stroke-linecap="round" stroke-linejoin="round"/>
<path d="M190.482 413.457V419.867" stroke="#5FAE2C" stroke-width="1.5" stroke-linecap="round" stroke-linejoin="round"/>
<path d="M236.056 440.795V447.205" stroke="#5FAE2C" stroke-width="1.5" stroke-linecap="round" stroke-linejoin="round"/>
<path d="M241.806 436.309V442.719" stroke="#5FAE2C" stroke-width="1.5" stroke-linecap="round" stroke-linejoin="round"/>
<path d="M247.556 441.009V447.419" stroke="#5FAE2C" stroke-width="1.5" stroke-linecap="round" stroke-linejoin="round"/>
<path d="M217.316 388.457V394.867" stroke="#5FAE2C" stroke-width="1.5" stroke-linecap="round" stroke-linejoin="round"/>
<path d="M204.964 389.099V395.509" stroke="#5FAE2C" stroke-width="1.5" stroke-linecap="round" stroke-linejoin="round"/>
<path d="M293.13 416.875V423.285" stroke="#5FAE2C" stroke-width="1.5" stroke-linecap="round" stroke-linejoin="round"/>
<path d="M271.195 388.885V395.295" stroke="#5FAE2C" stroke-width="1.5" stroke-linecap="round" stroke-linejoin="round"/>
<g style="mix-blend-mode:multiply" opacity="0.46">
<path d="M219 443L250 461L316 423L283.5 405.5L219 443Z" fill="#B2B4B3"/>
</g>
<path d="M92.4185 365.527L164.008 324.064L92.4297 282.59L20.8407 324.064L92.4185 365.527Z" fill="#8ED760" stroke="#26144D" stroke-width="1.5" stroke-linecap="round" stroke-linejoin="round"/>
<path d="M92.5418 379.551L164.131 338.088V323.952L92.5418 365.415V379.551Z" fill="#956054" stroke="#26144D" stroke-width="1.5" stroke-linecap="round" stroke-linejoin="round"/>
<path d="M20.8855 338.189L92.4746 379.664V365.528L20.8855 324.053V338.189Z" fill="#A9776B" stroke="#26144D" stroke-width="1.5" stroke-linecap="round" stroke-linejoin="round"/>
<path d="M128.689 323.221V327.91" stroke="#5FAE2C" stroke-width="1.5" stroke-linecap="round" stroke-linejoin="round"/>
<path d="M49.7476 322.906V327.595" stroke="#5FAE2C" stroke-width="1.5" stroke-linecap="round" stroke-linejoin="round"/>
<path d="M73.42 302.292V306.971" stroke="#5FAE2C" stroke-width="1.5" stroke-linecap="round" stroke-linejoin="round"/>
<path d="M124.027 325.56V330.25" stroke="#5FAE2C" stroke-width="1.5" stroke-linecap="round" stroke-linejoin="round"/>
<path d="M109.231 305.25V309.939" stroke="#5FAE2C" stroke-width="1.5" stroke-linecap="round" stroke-linejoin="round"/>
<path d="M113.278 303.541V308.219" stroke="#5FAE2C" stroke-width="1.5" stroke-linecap="round" stroke-linejoin="round"/>
<path d="M54.1077 320.252V324.941" stroke="#5FAE2C" stroke-width="1.5" stroke-linecap="round" stroke-linejoin="round"/>
<path d="M58.154 323.378V328.068" stroke="#5FAE2C" stroke-width="1.5" stroke-linecap="round" stroke-linejoin="round"/>
<path d="M91.477 343.373V348.063" stroke="#5FAE2C" stroke-width="1.5" stroke-linecap="round" stroke-linejoin="round"/>
<path d="M95.6802 340.089V344.779" stroke="#5FAE2C" stroke-width="1.5" stroke-linecap="round" stroke-linejoin="round"/>
<path d="M99.8835 343.531V348.22" stroke="#5FAE2C" stroke-width="1.5" stroke-linecap="round" stroke-linejoin="round"/>
<path d="M77.7802 305.104V309.782" stroke="#5FAE2C" stroke-width="1.5" stroke-linecap="round" stroke-linejoin="round"/>
<path d="M68.7461 305.565V310.254" stroke="#5FAE2C" stroke-width="1.5" stroke-linecap="round" stroke-linejoin="round"/>
<path d="M133.206 325.875V330.564" stroke="#5FAE2C" stroke-width="1.5" stroke-linecap="round" stroke-linejoin="round"/>
<path d="M117.167 305.408V310.097" stroke="#5FAE2C" stroke-width="1.5" stroke-linecap="round" stroke-linejoin="round"/>
<path d="M193.329 305.531L264.907 264.068L193.329 222.604L121.74 264.068L193.329 305.531Z" fill="#8ED760" stroke="#26144D" stroke-width="1.5" stroke-linecap="round" stroke-linejoin="round"/>
<path d="M193.441 319.565L265.03 278.091V263.955L193.441 305.429V319.565Z" fill="#956054" stroke="#26144D" stroke-width="1.5" stroke-linecap="round" stroke-linejoin="round"/>
<path d="M121.796 278.204L193.374 319.667V305.531L121.796 264.068V278.204Z" fill="#A9776B" stroke="#26144D" stroke-width="1.5" stroke-linecap="round" stroke-linejoin="round"/>
<path d="M230.06 264.011V268.701" stroke="#5FAE2C" stroke-width="1.5" stroke-linecap="round" stroke-linejoin="round"/>
<path d="M151.118 263.696V268.386" stroke="#5FAE2C" stroke-width="1.5" stroke-linecap="round" stroke-linejoin="round"/>
<path d="M174.779 243.072V247.761" stroke="#5FAE2C" stroke-width="1.5" stroke-linecap="round" stroke-linejoin="round"/>
<path d="M225.386 266.351V271.04" stroke="#5FAE2C" stroke-width="1.5" stroke-linecap="round" stroke-linejoin="round"/>
<path d="M210.602 246.041V250.73" stroke="#5FAE2C" stroke-width="1.5" stroke-linecap="round" stroke-linejoin="round"/>
<path d="M214.648 244.32V249.009" stroke="#5FAE2C" stroke-width="1.5" stroke-linecap="round" stroke-linejoin="round"/>
<path d="M155.478 261.042V265.732" stroke="#5FAE2C" stroke-width="1.5" stroke-linecap="round" stroke-linejoin="round"/>
<path d="M159.524 264.169V268.858" stroke="#5FAE2C" stroke-width="1.5" stroke-linecap="round" stroke-linejoin="round"/>
<path d="M192.847 284.164V288.854" stroke="#5FAE2C" stroke-width="1.5" stroke-linecap="round" stroke-linejoin="round"/>
<path d="M197.05 280.88V285.569" stroke="#5FAE2C" stroke-width="1.5" stroke-linecap="round" stroke-linejoin="round"/>
<path d="M201.254 284.321V289.011" stroke="#5FAE2C" stroke-width="1.5" stroke-linecap="round" stroke-linejoin="round"/>
<path d="M179.139 245.883V250.573" stroke="#5FAE2C" stroke-width="1.5" stroke-linecap="round" stroke-linejoin="round"/>
<path d="M170.116 246.355V251.045" stroke="#5FAE2C" stroke-width="1.5" stroke-linecap="round" stroke-linejoin="round"/>
<path d="M234.577 266.666V271.355" stroke="#5FAE2C" stroke-width="1.5" stroke-linecap="round" stroke-linejoin="round"/>
<path d="M218.537 246.198V250.888" stroke="#5FAE2C" stroke-width="1.5" stroke-linecap="round" stroke-linejoin="round"/>
<path d="M297.031 238.979L368.609 197.515L297.031 156.052L225.442 197.515L297.031 238.979Z" fill="#8ED760" stroke="#26144D" stroke-width="1.5" stroke-linecap="round" stroke-linejoin="round"/>
<path d="M297.143 253.013L368.732 211.539V197.403L297.143 238.877V253.013Z" fill="#956054" stroke="#26144D" stroke-width="1.5" stroke-linecap="round" stroke-linejoin="round"/>
<path d="M225.498 211.652L297.087 253.115V238.979L225.498 197.516V211.652Z" fill="#A9776B" stroke="#26144D" stroke-width="1.5" stroke-linecap="round" stroke-linejoin="round"/>
<g style="mix-blend-mode:multiply" opacity="0.46">
<path d="M88.0001 327.5L121.099 347.999L129.965 342.995L96.1823 323L88.0001 327.5Z" fill="#B2B4B3"/>
</g>
<g style="mix-blend-mode:multiply" opacity="0.46">
<path d="M189 267L223.088 287.988L231.965 282.995L198.171 263L189 267Z" fill="#B2B4B3"/>
</g>
<g style="mix-blend-mode:multiply" opacity="0.46">
<path d="M293 201.5L326.088 221.999L334.965 216.995L301.182 197L293 201.5Z" fill="#B2B4B3"/>
</g>
<path d="M333.503 197.639V202.329" stroke="#5FAE2C" stroke-width="2" stroke-linecap="round" stroke-linejoin="round"/>
<path d="M254.55 197.324V202.014" stroke="#5FAE2C" stroke-width="2" stroke-linecap="round" stroke-linejoin="round"/>
<path d="M278.223 176.7V181.389" stroke="#5FAE2C" stroke-width="2" stroke-linecap="round" stroke-linejoin="round"/>
<path d="M328.83 199.979V204.668" stroke="#5FAE2C" stroke-width="2" stroke-linecap="round" stroke-linejoin="round"/>
<path d="M314.034 179.668V184.358" stroke="#5FAE2C" stroke-width="2" stroke-linecap="round" stroke-linejoin="round"/>
<path d="M318.081 177.948V182.637" stroke="#5FAE2C" stroke-width="2" stroke-linecap="round" stroke-linejoin="round"/>
<path d="M258.911 194.67V199.36" stroke="#5FAE2C" stroke-width="2" stroke-linecap="round" stroke-linejoin="round"/>
<path d="M262.968 197.797V202.475" stroke="#5FAE2C" stroke-width="2" stroke-linecap="round" stroke-linejoin="round"/>
<path d="M296.28 217.792V222.481" stroke="#5FAE2C" stroke-width="2" stroke-linecap="round" stroke-linejoin="round"/>
<path d="M300.494 214.508V219.197" stroke="#5FAE2C" stroke-width="2" stroke-linecap="round" stroke-linejoin="round"/>
<path d="M304.697 217.949V222.639" stroke="#5FAE2C" stroke-width="2" stroke-linecap="round" stroke-linejoin="round"/>
<path d="M282.583 179.511V184.201" stroke="#5FAE2C" stroke-width="2" stroke-linecap="round" stroke-linejoin="round"/>
<path d="M273.549 179.983V184.673" stroke="#5FAE2C" stroke-width="2" stroke-linecap="round" stroke-linejoin="round"/>
<path d="M338.021 200.293V204.983" stroke="#5FAE2C" stroke-width="2" stroke-linecap="round" stroke-linejoin="round"/>
<path d="M321.981 179.826V184.516" stroke="#5FAE2C" stroke-width="2" stroke-linecap="round" stroke-linejoin="round"/>
<path d="M294.083 201.058C296 202.093 299.127 202.093 301.055 201.058C302.187 200.439 302.658 199.596 302.433 198.786V86.7222H292.693V198.786C292.48 199.596 292.94 200.428 294.072 201.058H294.083Z" fill="#B2B4B3" stroke="#26144D" stroke-width="2" stroke-linecap="round" stroke-linejoin="round"/>
<path d="M297.569 89.455C294.851 89.455 292.648 88.2617 292.648 86.7898C292.648 85.3178 294.851 84.1245 297.569 84.1245C300.286 84.1245 302.489 85.3178 302.489 86.7898C302.489 88.2617 300.286 89.455 297.569 89.455Z" fill="white" stroke="#26144D" stroke-width="2" stroke-linecap="round" stroke-linejoin="round"/>
<path d="M317.475 118.874C318.45 119.403 320.031 119.403 321.006 118.874C321.578 118.559 321.813 118.132 321.712 117.727V111.992H316.78V117.727C316.668 118.132 316.904 118.559 317.486 118.874H317.475Z" fill="#7D7D7B" stroke="#26144D" stroke-width="2" stroke-linecap="round" stroke-linejoin="round"/>
<path d="M319.235 113.375C317.855 113.375 316.736 112.771 316.736 112.025C316.736 111.28 317.855 110.676 319.235 110.676C320.615 110.676 321.735 111.28 321.735 112.025C321.735 112.771 320.615 113.375 319.235 113.375Z" fill="#7D7D7B" stroke="#26144D" stroke-width="2" stroke-linecap="round" stroke-linejoin="round"/>
<path d="M275.992 96.9786C276.968 97.5072 278.548 97.5072 279.523 96.9786C280.095 96.6637 280.33 96.2364 280.229 95.8315V90.0962H275.297V95.8315C275.185 96.2364 275.421 96.6637 276.004 96.9786H275.992Z" fill="#7D7D7B" stroke="#26144D" stroke-width="2" stroke-linecap="round" stroke-linejoin="round"/>
<path d="M277.763 91.4793C276.383 91.4793 275.264 90.8751 275.264 90.1298C275.264 89.3845 276.383 88.7803 277.763 88.7803C279.144 88.7803 280.263 89.3845 280.263 90.1298C280.263 90.8751 279.144 91.4793 277.763 91.4793Z" fill="#7D7D7B" stroke="#26144D" stroke-width="2" stroke-linecap="round" stroke-linejoin="round"/>
<path d="M285.307 101.837C286.282 102.366 287.862 102.366 288.837 101.837C289.409 101.522 289.644 101.095 289.544 100.69V94.9546H284.612V100.69C284.5 101.095 284.735 101.522 285.318 101.837H285.307Z" fill="#7D7D7B" stroke="#26144D" stroke-width="2" stroke-linecap="round" stroke-linejoin="round"/>
<path d="M287.066 96.3377C285.686 96.3377 284.567 95.7335 284.567 94.9882C284.567 94.2429 285.686 93.6387 287.066 93.6387C288.447 93.6387 289.566 94.2429 289.566 94.9882C289.566 95.7335 288.447 96.3377 287.066 96.3377Z" fill="#7D7D7B" stroke="#26144D" stroke-width="2" stroke-linecap="round" stroke-linejoin="round"/>
<path d="M306.894 113.487C307.87 114.016 309.45 114.016 310.425 113.487C310.997 113.173 311.232 112.745 311.131 112.34V106.605H306.199V112.34C306.087 112.745 306.323 113.173 306.906 113.487H306.894Z" fill="#7D7D7B" stroke="#26144D" stroke-width="2" stroke-linecap="round" stroke-linejoin="round"/>
<path d="M308.665 107.999C307.285 107.999 306.166 107.395 306.166 106.65C306.166 105.904 307.285 105.3 308.665 105.3C310.046 105.3 311.165 105.904 311.165 106.65C311.165 107.395 310.046 107.999 308.665 107.999Z" fill="#7D7D7B" stroke="#26144D" stroke-width="2" stroke-linecap="round" stroke-linejoin="round"/>
<path d="M271.33 98.0581C270.489 98.5417 269.85 99.7337 269.906 100.712C269.951 101.297 270.22 101.668 270.612 101.769L319.639 128.163L321.622 124.452L272.607 98.0581C272.294 97.7882 271.834 97.7657 271.33 98.0581Z" fill="white" stroke="#26144D" stroke-width="2" stroke-linecap="round" stroke-linejoin="round"/>
<path d="M319.602 128.193C318.958 127.846 318.887 126.722 319.443 125.683C319.999 124.643 320.972 124.08 321.615 124.427C322.259 124.773 322.33 125.897 321.774 126.937C321.218 127.977 320.246 128.539 319.602 128.193Z" fill="#B2B4B3" stroke="#26144D" stroke-width="2" stroke-linecap="round" stroke-linejoin="round"/>
<path d="M319 119.211L317.374 121.404" stroke="#26144D" stroke-width="2" stroke-linecap="round" stroke-linejoin="round"/>
<path d="M305.986 116.018L307.601 113.836" stroke="#26144D" stroke-width="2" stroke-linecap="round" stroke-linejoin="round"/>
<path d="M284.365 104.198L285.99 102.017" stroke="#26144D" stroke-width="2" stroke-linecap="round" stroke-linejoin="round"/>
<path d="M275.208 99.3287L276.822 97.1357" stroke="#26144D" stroke-width="2" stroke-linecap="round" stroke-linejoin="round"/>
<path d="M251.065 354.496C251.065 354.496 287.817 377.302 329.547 381.992C356.649 385.039 393.312 382.981 393.312 382.981" stroke="#6CA3FF" stroke-width="2" stroke-linecap="round" stroke-linejoin="round"/>
<path d="M269.749 344.183C269.749 344.183 298.084 361.682 327.675 369.182C355.461 376.222 395.879 380.428 395.879 380.428" stroke="#6CA3FF" stroke-width="2" stroke-linecap="round" stroke-linejoin="round"/>
<path d="M316.466 122.495C316.466 122.495 291.998 146.685 268.729 160.922C245.46 175.159 217.428 182.48 217.428 182.48" stroke="#6CA3FF" stroke-width="2" stroke-linecap="round" stroke-linejoin="round"/>
<path d="M275.353 99.0591C275.353 99.0591 250.885 123.249 227.616 137.486C204.347 151.723 176.315 159.044 176.315 159.044" stroke="#6CA3FF" stroke-width="2" stroke-linecap="round" stroke-linejoin="round"/>
<path d="M283.771 103.749C283.771 103.749 259.303 127.938 236.034 142.175C212.765 156.412 184.732 163.733 184.732 163.733" stroke="#6CA3FF" stroke-width="2" stroke-linecap="round" stroke-linejoin="round"/>
<path d="M306.278 115.928C306.278 115.928 281.81 140.117 258.541 154.355C235.272 168.592 207.239 175.913 207.239 175.913" stroke="#6CA3FF" stroke-width="2" stroke-linecap="round" stroke-linejoin="round"/>
<path d="M190.224 266.43C192.141 267.465 195.268 267.465 197.196 266.43C198.328 265.811 198.799 264.968 198.575 264.158V152.105H188.835V264.17C188.622 264.979 189.081 265.811 190.213 266.441L190.224 266.43Z" fill="#B2B4B3" stroke="#26144D" stroke-width="2" stroke-linecap="round" stroke-linejoin="round"/>
<path d="M193.699 154.838C190.982 154.838 188.779 153.645 188.779 152.173C188.779 150.701 190.982 149.508 193.699 149.508C196.417 149.508 198.62 150.701 198.62 152.173C198.62 153.645 196.417 154.838 193.699 154.838Z" fill="white" stroke="#26144D" stroke-width="2" stroke-linecap="round" stroke-linejoin="round"/>
<path d="M213.617 184.257C214.592 184.786 216.172 184.786 217.147 184.257C217.719 183.943 217.954 183.515 217.854 183.11V177.375H212.922V183.11C212.81 183.515 213.045 183.943 213.628 184.257H213.617Z" fill="#7D7D7B" stroke="#26144D" stroke-width="2" stroke-linecap="round" stroke-linejoin="round"/>
<path d="M215.377 178.758C213.996 178.758 212.877 178.154 212.877 177.409C212.877 176.663 213.996 176.059 215.377 176.059C216.757 176.059 217.876 176.663 217.876 177.409C217.876 178.154 216.757 178.758 215.377 178.758Z" fill="#7D7D7B" stroke="#26144D" stroke-width="2" stroke-linecap="round" stroke-linejoin="round"/>
<path d="M172.134 162.362C173.109 162.89 174.689 162.89 175.665 162.362C176.236 162.047 176.472 161.62 176.371 161.215V155.479H171.439V161.215C171.327 161.62 171.562 162.047 172.145 162.362H172.134Z" fill="#7D7D7B" stroke="#26144D" stroke-width="2" stroke-linecap="round" stroke-linejoin="round"/>
<path d="M173.894 156.863C172.513 156.863 171.394 156.258 171.394 155.513C171.394 154.768 172.513 154.164 173.894 154.164C175.274 154.164 176.393 154.768 176.393 155.513C176.393 156.258 175.274 156.863 173.894 156.863Z" fill="#7D7D7B" stroke="#26144D" stroke-width="2" stroke-linecap="round" stroke-linejoin="round"/>
<path d="M181.437 167.22C182.412 167.749 183.993 167.749 184.968 167.22C185.539 166.905 185.775 166.478 185.674 166.073V160.338H180.742V166.073C180.63 166.478 180.865 166.905 181.448 167.22H181.437Z" fill="#7D7D7B" stroke="#26144D" stroke-width="2" stroke-linecap="round" stroke-linejoin="round"/>
<path d="M183.208 161.721C181.827 161.721 180.708 161.117 180.708 160.371C180.708 159.626 181.827 159.022 183.208 159.022C184.588 159.022 185.707 159.626 185.707 160.371C185.707 161.117 184.588 161.721 183.208 161.721Z" fill="#7D7D7B" stroke="#26144D" stroke-width="2" stroke-linecap="round" stroke-linejoin="round"/>
<path d="M203.036 178.871C204.011 179.399 205.591 179.399 206.567 178.871C207.138 178.556 207.374 178.128 207.273 177.724V171.988H202.341V177.724C202.229 178.128 202.464 178.556 203.047 178.871H203.036Z" fill="#7D7D7B" stroke="#26144D" stroke-width="2" stroke-linecap="round" stroke-linejoin="round"/>
<path d="M204.807 173.383C203.426 173.383 202.307 172.778 202.307 172.033C202.307 171.288 203.426 170.684 204.807 170.684C206.187 170.684 207.306 171.288 207.306 172.033C207.306 172.778 206.187 173.383 204.807 173.383Z" fill="#7D7D7B" stroke="#26144D" stroke-width="2" stroke-linecap="round" stroke-linejoin="round"/>
<path d="M167.471 163.441C166.63 163.925 165.992 165.117 166.048 166.095C166.092 166.68 166.361 167.051 166.754 167.153L215.78 193.546L217.764 189.835L168.738 163.441C168.424 163.172 167.964 163.149 167.46 163.441H167.471Z" fill="white" stroke="#26144D" stroke-width="2" stroke-linecap="round" stroke-linejoin="round"/>
<path d="M215.742 193.565C215.099 193.218 215.028 192.095 215.584 191.055C216.14 190.015 217.112 189.453 217.756 189.799C218.399 190.145 218.471 191.269 217.915 192.309C217.359 193.349 216.386 193.911 215.742 193.565Z" fill="#B2B4B3" stroke="#26144D" stroke-width="2" stroke-linecap="round" stroke-linejoin="round"/>
<path d="M213.516 186.788L215.141 184.595" stroke="#26144D" stroke-width="2" stroke-linecap="round" stroke-linejoin="round"/>
<path d="M202.117 181.401L203.742 179.219" stroke="#26144D" stroke-width="2" stroke-linecap="round" stroke-linejoin="round"/>
<path d="M180.507 169.582L182.132 167.4" stroke="#26144D" stroke-width="2" stroke-linecap="round" stroke-linejoin="round"/>
<path d="M171.349 164.701L172.963 162.519" stroke="#26144D" stroke-width="2" stroke-linecap="round" stroke-linejoin="round"/>
<path d="M213.46 184.594C213.46 184.594 188.991 208.784 165.723 223.021C141.983 237.551 114.421 244.579 114.421 244.579" stroke="#6CA3FF" stroke-width="2" stroke-linecap="round" stroke-linejoin="round"/>
<path d="M172.358 161.158C172.358 161.158 147.89 185.348 124.621 199.585C100.881 214.115 73.3191 221.143 73.3191 221.143" stroke="#6CA3FF" stroke-width="2" stroke-linecap="round" stroke-linejoin="round"/>
<path d="M180.764 165.848C180.764 165.848 156.296 190.037 133.027 204.274C109.287 218.804 81.7256 225.833 81.7256 225.833" stroke="#6CA3FF" stroke-width="2" stroke-linecap="round" stroke-linejoin="round"/>
<path d="M203.271 178.027C203.271 178.027 178.803 202.217 155.534 216.454C131.794 230.983 104.232 238.012 104.232 238.012" stroke="#6CA3FF" stroke-width="2" stroke-linecap="round" stroke-linejoin="round"/>
<path d="M88.5404 326.662C90.457 327.697 93.5842 327.697 95.5121 326.662C96.6442 326.043 97.1149 325.2 96.8908 324.39V212.326H87.1505V324.39C86.9375 325.2 87.3971 326.032 88.5292 326.662H88.5404Z" fill="#B2B4B3" stroke="#26144D" stroke-width="2" stroke-linecap="round" stroke-linejoin="round"/>
<path d="M92.0262 215.059C89.3087 215.059 87.1057 213.866 87.1057 212.394C87.1057 210.922 89.3087 209.729 92.0262 209.729C94.7438 209.729 96.9468 210.922 96.9468 212.394C96.9468 213.866 94.7438 215.059 92.0262 215.059Z" fill="white" stroke="#26144D" stroke-width="2" stroke-linecap="round" stroke-linejoin="round"/>
<path d="M111.933 244.478C112.908 245.007 114.488 245.007 115.463 244.478C116.035 244.163 116.27 243.736 116.169 243.331V237.596H111.238V243.331C111.126 243.736 111.361 244.163 111.944 244.478H111.933Z" fill="#7D7D7B" stroke="#26144D" stroke-width="2" stroke-linecap="round" stroke-linejoin="round"/>
<path d="M113.692 238.979C112.312 238.979 111.193 238.375 111.193 237.629C111.193 236.884 112.312 236.28 113.692 236.28C115.073 236.28 116.192 236.884 116.192 237.629C116.192 238.375 115.073 238.979 113.692 238.979Z" fill="#7D7D7B" stroke="#26144D" stroke-width="2" stroke-linecap="round" stroke-linejoin="round"/>
<path d="M70.4498 222.583C71.4249 223.111 73.0053 223.111 73.9804 222.583C74.5521 222.268 74.7875 221.84 74.6866 221.436V215.7H69.7548V221.436C69.6427 221.84 69.8781 222.268 70.461 222.583H70.4498Z" fill="#7D7D7B" stroke="#26144D" stroke-width="2" stroke-linecap="round" stroke-linejoin="round"/>
<path d="M72.2207 217.094C70.8403 217.094 69.7212 216.49 69.7212 215.745C69.7212 215 70.8403 214.396 72.2207 214.396C73.6011 214.396 74.7202 215 74.7202 215.745C74.7202 216.49 73.6011 217.094 72.2207 217.094Z" fill="#7D7D7B" stroke="#26144D" stroke-width="2" stroke-linecap="round" stroke-linejoin="round"/>
<path d="M79.7641 227.441C80.7392 227.97 82.3196 227.97 83.2948 227.441C83.8664 227.126 84.1018 226.699 84.0009 226.294V220.559H79.0692V226.294C78.9571 226.699 79.1925 227.126 79.7753 227.441H79.7641Z" fill="#7D7D7B" stroke="#26144D" stroke-width="2" stroke-linecap="round" stroke-linejoin="round"/>
<path d="M81.5239 221.953C80.1434 221.953 79.0243 221.349 79.0243 220.603C79.0243 219.858 80.1434 219.254 81.5239 219.254C82.9043 219.254 84.0233 219.858 84.0233 220.603C84.0233 221.349 82.9043 221.953 81.5239 221.953Z" fill="#7D7D7B" stroke="#26144D" stroke-width="2" stroke-linecap="round" stroke-linejoin="round"/>
<path d="M101.363 239.103C102.338 239.631 103.919 239.631 104.894 239.103C105.465 238.788 105.701 238.36 105.6 237.956V232.22H100.668V237.956C100.556 238.36 100.791 238.788 101.374 239.103H101.363Z" fill="#7D7D7B" stroke="#26144D" stroke-width="2" stroke-linecap="round" stroke-linejoin="round"/>
<path d="M103.123 233.603C101.742 233.603 100.623 232.999 100.623 232.254C100.623 231.508 101.742 230.904 103.123 230.904C104.503 230.904 105.622 231.508 105.622 232.254C105.622 232.999 104.503 233.603 103.123 233.603Z" fill="#7D7D7B" stroke="#26144D" stroke-width="2" stroke-linecap="round" stroke-linejoin="round"/>
<path d="M65.7982 223.662C64.9576 224.146 64.3187 225.338 64.3747 226.316C64.4195 226.901 64.6886 227.272 65.0809 227.373L114.107 253.767L116.091 250.056L67.0648 223.662C66.7509 223.392 66.2914 223.37 65.787 223.662H65.7982Z" fill="white" stroke="#26144D" stroke-width="2" stroke-linecap="round" stroke-linejoin="round"/>
<path d="M114.065 253.807C113.422 253.461 113.351 252.337 113.907 251.297C114.463 250.257 115.435 249.695 116.079 250.041C116.723 250.388 116.794 251.511 116.238 252.551C115.682 253.591 114.709 254.153 114.065 253.807Z" fill="#B2B4B3" stroke="#26144D" stroke-width="2" stroke-linecap="round" stroke-linejoin="round"/>
<path d="M111.832 247.008L113.457 244.827" stroke="#26144D" stroke-width="2" stroke-linecap="round" stroke-linejoin="round"/>
<path d="M100.444 241.633L102.058 239.44" stroke="#26144D" stroke-width="2" stroke-linecap="round" stroke-linejoin="round"/>
<path d="M78.8226 229.802L80.4478 227.621" stroke="#26144D" stroke-width="2" stroke-linecap="round" stroke-linejoin="round"/>
<path d="M69.6651 224.933L71.2904 222.751" stroke="#26144D" stroke-width="2" stroke-linecap="round" stroke-linejoin="round"/>
<path d="M112.09 246.693L264.616 343.238" stroke="#6CA3FF" stroke-width="2" stroke-linecap="round" stroke-linejoin="round"/>
<path d="M100.41 241.768L247.097 353.09" stroke="#6CA3FF" stroke-width="2" stroke-linecap="round" stroke-linejoin="round"/>
<path d="M79.3942 229.825L229.813 362.457" stroke="#6CA3FF" stroke-width="2" stroke-linecap="round" stroke-linejoin="round"/>
<path d="M69.8221 225.372L213.931 371.836" stroke="#6CA3FF" stroke-width="2" stroke-linecap="round" stroke-linejoin="round"/>
<path d="M218.851 442.381L282.751 405.36V358.949L218.851 395.959V442.381Z" fill="#004DA9" stroke="#26144D" stroke-width="1.5" stroke-linecap="round" stroke-linejoin="round"/>
<path d="M227.527 431.045L274.064 404.089V374.097L227.527 401.053V431.045Z" fill="#248CFF" stroke="#26144D" stroke-width="1.5" stroke-linecap="round" stroke-linejoin="round"/>
<path d="M270.175 405.888V376.964" stroke="#26144D" stroke-width="1.5" stroke-linecap="round" stroke-linejoin="round"/>
<path d="M265.524 408.588V379.652" stroke="#26144D" stroke-width="1.5" stroke-linecap="round" stroke-linejoin="round"/>
<path d="M261.343 411.005V382.081" stroke="#26144D" stroke-width="1.5" stroke-linecap="round" stroke-linejoin="round"/>
<path d="M257.274 413.356V384.432" stroke="#26144D" stroke-width="1.5" stroke-linecap="round" stroke-linejoin="round"/>
<path d="M253.093 415.774V386.85" stroke="#26144D" stroke-width="1.5" stroke-linecap="round" stroke-linejoin="round"/>
<path d="M248.8 418.27V389.346" stroke="#26144D" stroke-width="1.5" stroke-linecap="round" stroke-linejoin="round"/>
<path d="M244.317 420.857V391.933" stroke="#26144D" stroke-width="1.5" stroke-linecap="round" stroke-linejoin="round"/>
<path d="M239.789 423.488V394.563" stroke="#26144D" stroke-width="1.5" stroke-linecap="round" stroke-linejoin="round"/>
<path d="M235.608 425.906V396.981" stroke="#26144D" stroke-width="1.5" stroke-linecap="round" stroke-linejoin="round"/>
<path d="M231.427 428.335V399.411" stroke="#26144D" stroke-width="1.5" stroke-linecap="round" stroke-linejoin="round"/>
<path d="M200.817 432.035L218.795 442.448V396.026L200.817 385.612V432.035Z" fill="#0069EA" stroke="#26144D" stroke-width="1.5" stroke-linecap="round" stroke-linejoin="round"/>
<path d="M204.672 427.964L215.309 434.116V404.123L204.672 397.972V427.964Z" fill="#248CFF" stroke="#26144D" stroke-width="1.5" stroke-linecap="round" stroke-linejoin="round"/>
<path d="M212.07 431.787V402.863" stroke="#26144D" stroke-width="1.5" stroke-linecap="round" stroke-linejoin="round"/>
<path d="M208.225 429.561V400.637" stroke="#26144D" stroke-width="1.5" stroke-linecap="round" stroke-linejoin="round"/>
<path d="M222.864 397.634L290.384 358.522L262.228 342.215L194.708 381.328L222.864 397.634Z" fill="#D8D8D8" stroke="#26144D" stroke-width="1.5" stroke-linecap="round" stroke-linejoin="round"/>
<g style="mix-blend-mode:multiply" opacity="0.46">
<path d="M270.22 359.174L213 391.045L202.957 385.422L258.776 354.023L270.22 359.174Z" fill="#B2B4B3"/>
</g>
<path d="M194.786 387.502L222.942 403.808V397.814L194.786 381.508V387.502Z" fill="#B2B4B3" stroke="#26144D" stroke-width="1.5" stroke-linecap="round" stroke-linejoin="round"/>
<path d="M222.886 403.865L290.395 364.752V358.758L222.886 397.871V403.865Z" fill="#7D7D7B" stroke="#26144D" stroke-width="1.5" stroke-linecap="round" stroke-linejoin="round"/>
<path d="M228.995 377.83C230.956 378.899 234.128 378.899 236.101 377.83C237.256 377.189 237.726 376.312 237.513 375.48V363.773H227.594V375.48C227.381 376.312 227.84 377.178 229.006 377.83H228.995Z" fill="white" stroke="#26144D" stroke-width="1.5" stroke-linecap="round" stroke-linejoin="round"/>
<path d="M227.616 372.601C227.403 373.433 227.863 374.299 229.017 374.951C230.968 376.02 234.128 376.02 236.079 374.951C237.233 374.31 237.693 373.433 237.48 372.601" fill="white"/>
<path d="M227.616 372.601C227.403 373.433 227.863 374.299 229.017 374.951C230.968 376.02 234.128 376.02 236.079 374.951C237.233 374.31 237.693 373.433 237.48 372.601" stroke="#26144D" stroke-width="1.5" stroke-linecap="round" stroke-linejoin="round"/>
<path d="M227.616 369.587C227.403 370.42 227.863 371.286 229.017 371.938C230.968 373.006 234.128 373.006 236.079 371.938C237.233 371.297 237.693 370.42 237.48 369.587" fill="white"/>
<path d="M227.616 369.587C227.403 370.42 227.863 371.286 229.017 371.938C230.968 373.006 234.128 373.006 236.079 371.938C237.233 371.297 237.693 370.42 237.48 369.587" stroke="#26144D" stroke-width="1.5" stroke-linecap="round" stroke-linejoin="round"/>
<path d="M227.583 366.708C227.37 367.541 227.829 368.407 228.984 369.059C230.934 370.127 234.095 370.127 236.045 369.059C237.2 368.418 237.659 367.541 237.446 366.708" fill="white"/>
<path d="M227.583 366.708C227.37 367.541 227.829 368.407 228.984 369.059C230.934 370.127 234.095 370.127 236.045 369.059C237.2 368.418 237.659 367.541 237.446 366.708" stroke="#26144D" stroke-width="1.5" stroke-linecap="round" stroke-linejoin="round"/>
<path d="M232.47 366.596C229.653 366.596 227.37 365.362 227.37 363.841C227.37 362.319 229.653 361.085 232.47 361.085C235.286 361.085 237.569 362.319 237.569 363.841C237.569 365.362 235.286 366.596 232.47 366.596Z" fill="white" stroke="#26144D" stroke-width="1.5" stroke-linecap="round" stroke-linejoin="round"/>
<path d="M230.979 363.942C231.696 364.336 232.873 364.336 233.602 363.942C234.028 363.706 234.207 363.391 234.117 363.087V358.836H230.452V363.087C230.374 363.391 230.542 363.706 230.968 363.942H230.979Z" fill="white" stroke="#26144D" stroke-width="1.5" stroke-linecap="round" stroke-linejoin="round"/>
<path d="M232.29 359.86C231.269 359.86 230.441 359.412 230.441 358.859C230.441 358.306 231.269 357.858 232.29 357.858C233.312 357.858 234.14 358.306 234.14 358.859C234.14 359.412 233.312 359.86 232.29 359.86Z" fill="white" stroke="#26144D" stroke-width="1.5" stroke-linecap="round" stroke-linejoin="round"/>
<path d="M232.201 361.097C229.384 361.097 227.101 359.863 227.101 358.342C227.101 356.82 229.384 355.586 232.201 355.586C235.017 355.586 237.3 356.82 237.3 358.342C237.3 359.863 235.017 361.097 232.201 361.097Z" fill="#E40133" stroke="#26144D" stroke-width="1.5" stroke-linecap="round" stroke-linejoin="round"/>
<path d="M212.417 386.737C214.379 387.805 217.551 387.805 219.524 386.737C220.678 386.096 221.149 385.219 220.936 384.387V372.68H211.016V384.387C210.803 385.219 211.263 386.085 212.429 386.737H212.417Z" fill="white" stroke="#26144D" stroke-width="1.5" stroke-linecap="round" stroke-linejoin="round"/>
<path d="M211.028 381.508C210.815 382.34 211.274 383.206 212.429 383.858C214.379 384.927 217.54 384.927 219.49 383.858C220.644 383.217 221.104 382.34 220.891 381.508" fill="white"/>
<path d="M211.028 381.508C210.815 382.34 211.274 383.206 212.429 383.858C214.379 384.927 217.54 384.927 219.49 383.858C220.644 383.217 221.104 382.34 220.891 381.508" stroke="#26144D" stroke-width="1.5" stroke-linecap="round" stroke-linejoin="round"/>
<path d="M211.028 378.494C210.815 379.326 211.274 380.192 212.429 380.845C214.379 381.913 217.54 381.913 219.49 380.845C220.644 380.203 221.104 379.326 220.891 378.494" fill="white"/>
<path d="M211.028 378.494C210.815 379.326 211.274 380.192 212.429 380.845C214.379 381.913 217.54 381.913 219.49 380.845C220.644 380.203 221.104 379.326 220.891 378.494" stroke="#26144D" stroke-width="1.5" stroke-linecap="round" stroke-linejoin="round"/>
<path d="M211.005 375.615C210.792 376.447 211.252 377.313 212.406 377.966C214.356 379.034 217.517 379.034 219.468 377.966C220.622 377.325 221.082 376.447 220.869 375.615" fill="white"/>
<path d="M211.005 375.615C210.792 376.447 211.252 377.313 212.406 377.966C214.356 379.034 217.517 379.034 219.468 377.966C220.622 377.325 221.082 376.447 220.869 375.615" stroke="#26144D" stroke-width="1.5" stroke-linecap="round" stroke-linejoin="round"/>
<path d="M215.892 375.503C213.075 375.503 210.792 374.269 210.792 372.747C210.792 371.226 213.075 369.992 215.892 369.992C218.709 369.992 220.992 371.226 220.992 372.747C220.992 374.269 218.709 375.503 215.892 375.503Z" fill="white" stroke="#26144D" stroke-width="1.5" stroke-linecap="round" stroke-linejoin="round"/>
<path d="M214.401 372.849C215.119 373.242 216.296 373.242 217.024 372.849C217.45 372.613 217.629 372.298 217.54 371.994V367.743H213.874V371.994C213.796 372.298 213.964 372.613 214.39 372.849H214.401Z" fill="white" stroke="#26144D" stroke-width="1.5" stroke-linecap="round" stroke-linejoin="round"/>
<path d="M215.713 368.755C214.691 368.755 213.863 368.307 213.863 367.754C213.863 367.202 214.691 366.753 215.713 366.753C216.734 366.753 217.562 367.202 217.562 367.754C217.562 368.307 216.734 368.755 215.713 368.755Z" fill="white" stroke="#26144D" stroke-width="1.5" stroke-linecap="round" stroke-linejoin="round"/>
<path d="M215.623 370.004C212.806 370.004 210.523 368.77 210.523 367.248C210.523 365.727 212.806 364.493 215.623 364.493C218.44 364.493 220.723 365.727 220.723 367.248C220.723 368.77 218.44 370.004 215.623 370.004Z" fill="#E40133" stroke="#26144D" stroke-width="1.5" stroke-linecap="round" stroke-linejoin="round"/>
<path d="M264.347 357.757C266.308 358.825 269.48 358.825 271.453 357.757C272.607 357.116 273.078 356.239 272.865 355.407V343.7H262.946V355.407C262.733 356.239 263.192 357.105 264.358 357.757H264.347Z" fill="white" stroke="#26144D" stroke-width="1.5" stroke-linecap="round" stroke-linejoin="round"/>
<path d="M262.957 352.527C262.744 353.36 263.203 354.225 264.358 354.878C266.308 355.946 269.469 355.946 271.419 354.878C272.574 354.237 273.033 353.36 272.82 352.527" fill="white"/>
<path d="M262.957 352.527C262.744 353.36 263.203 354.225 264.358 354.878C266.308 355.946 269.469 355.946 271.419 354.878C272.574 354.237 273.033 353.36 272.82 352.527" stroke="#26144D" stroke-width="1.5" stroke-linecap="round" stroke-linejoin="round"/>
<path d="M262.957 349.502C262.744 350.335 263.203 351.201 264.358 351.853C266.308 352.921 269.469 352.921 271.419 351.853C272.574 351.212 273.033 350.335 272.82 349.502" fill="white"/>
<path d="M262.957 349.502C262.744 350.335 263.203 351.201 264.358 351.853C266.308 352.921 269.469 352.921 271.419 351.853C272.574 351.212 273.033 350.335 272.82 349.502" stroke="#26144D" stroke-width="1.5" stroke-linecap="round" stroke-linejoin="round"/>
<path d="M262.934 346.635C262.721 347.467 263.181 348.333 264.335 348.985C266.286 350.053 269.447 350.053 271.397 348.985C272.551 348.344 273.011 347.467 272.798 346.635" fill="white"/>
<path d="M262.934 346.635C262.721 347.467 263.181 348.333 264.335 348.985C266.286 350.053 269.447 350.053 271.397 348.985C272.551 348.344 273.011 347.467 272.798 346.635" stroke="#26144D" stroke-width="1.5" stroke-linecap="round" stroke-linejoin="round"/>
<path d="M267.821 346.522C265.005 346.522 262.721 345.289 262.721 343.767C262.721 342.245 265.005 341.012 267.821 341.012C270.638 341.012 272.921 342.245 272.921 343.767C272.921 345.289 270.638 346.522 267.821 346.522Z" fill="white" stroke="#26144D" stroke-width="1.5" stroke-linecap="round" stroke-linejoin="round"/>
<path d="M266.319 343.857C267.037 344.251 268.214 344.251 268.942 343.857C269.368 343.621 269.547 343.306 269.458 343.002V338.751H265.793V343.002C265.714 343.306 265.882 343.621 266.308 343.857H266.319Z" fill="white" stroke="#26144D" stroke-width="1.5" stroke-linecap="round" stroke-linejoin="round"/>
<path d="M267.631 339.775C266.609 339.775 265.781 339.327 265.781 338.774C265.781 338.221 266.609 337.773 267.631 337.773C268.652 337.773 269.48 338.221 269.48 338.774C269.48 339.327 268.652 339.775 267.631 339.775Z" fill="white" stroke="#26144D" stroke-width="1.5" stroke-linecap="round" stroke-linejoin="round"/>
<path d="M267.552 341.023C264.736 341.023 262.452 339.79 262.452 338.268C262.452 336.746 264.736 335.513 267.552 335.513C270.369 335.513 272.652 336.746 272.652 338.268C272.652 339.79 270.369 341.023 267.552 341.023Z" fill="#E40133" stroke="#26144D" stroke-width="1.5" stroke-linecap="round" stroke-linejoin="round"/>
<path d="M246.133 367.821C248.094 368.89 251.266 368.89 253.239 367.821C254.393 367.18 254.864 366.303 254.651 365.471V353.764H244.732V365.471C244.519 366.303 244.978 367.169 246.144 367.821H246.133Z" fill="white" stroke="#26144D" stroke-width="1.5" stroke-linecap="round" stroke-linejoin="round"/>
<path d="M244.754 362.592C244.541 363.424 245.001 364.29 246.155 364.943C248.105 366.011 251.266 366.011 253.217 364.943C254.371 364.302 254.831 363.424 254.618 362.592" fill="white"/>
<path d="M244.754 362.592C244.541 363.424 245.001 364.29 246.155 364.943C248.105 366.011 251.266 366.011 253.217 364.943C254.371 364.302 254.831 363.424 254.618 362.592" stroke="#26144D" stroke-width="1.5" stroke-linecap="round" stroke-linejoin="round"/>
<path d="M244.754 359.579C244.541 360.411 245.001 361.277 246.155 361.929C248.105 362.997 251.266 362.997 253.217 361.929C254.371 361.288 254.831 360.411 254.618 359.579" fill="white"/>
<path d="M244.754 359.579C244.541 360.411 245.001 361.277 246.155 361.929C248.105 362.997 251.266 362.997 253.217 361.929C254.371 361.288 254.831 360.411 254.618 359.579" stroke="#26144D" stroke-width="1.5" stroke-linecap="round" stroke-linejoin="round"/>
<path d="M244.72 356.711C244.508 357.543 244.967 358.409 246.122 359.061C248.072 360.13 251.233 360.13 253.183 359.061C254.337 358.42 254.797 357.543 254.584 356.711" fill="white"/>
<path d="M244.72 356.711C244.508 357.543 244.967 358.409 246.122 359.061C248.072 360.13 251.233 360.13 253.183 359.061C254.337 358.42 254.797 357.543 254.584 356.711" stroke="#26144D" stroke-width="1.5" stroke-linecap="round" stroke-linejoin="round"/>
<path d="M249.607 356.598C246.791 356.598 244.508 355.365 244.508 353.843C244.508 352.321 246.791 351.088 249.607 351.088C252.424 351.088 254.707 352.321 254.707 353.843C254.707 355.365 252.424 356.598 249.607 356.598Z" fill="white" stroke="#26144D" stroke-width="1.5" stroke-linecap="round" stroke-linejoin="round"/>
<path d="M248.117 353.933C248.834 354.327 250.011 354.327 250.739 353.933C251.165 353.697 251.345 353.382 251.255 353.079V348.828H247.59V353.079C247.511 353.382 247.68 353.697 248.105 353.933H248.117Z" fill="white" stroke="#26144D" stroke-width="1.5" stroke-linecap="round" stroke-linejoin="round"/>
<path d="M249.428 349.851C248.407 349.851 247.579 349.403 247.579 348.85C247.579 348.297 248.407 347.849 249.428 347.849C250.449 347.849 251.277 348.297 251.277 348.85C251.277 349.403 250.449 349.851 249.428 349.851Z" fill="white" stroke="#26144D" stroke-width="1.5" stroke-linecap="round" stroke-linejoin="round"/>
<path d="M249.338 351.099C246.522 351.099 244.239 349.866 244.239 348.344C244.239 346.822 246.522 345.589 249.338 345.589C252.155 345.589 254.438 346.822 254.438 348.344C254.438 349.866 252.155 351.099 249.338 351.099Z" fill="#E40133" stroke="#26144D" stroke-width="1.5" stroke-linecap="round" stroke-linejoin="round"/>
<path d="M275.589 353.314L284.231 358.24L232.066 387.918" stroke="white" stroke-width="1.5" stroke-linecap="round" stroke-linejoin="round"/>
<path d="M279.568 375.345V403.932" stroke="white" stroke-width="1.5" stroke-linecap="round" stroke-linejoin="round"/>
<path d="M217.125 372.927C217.125 372.927 253.911 398.196 287.817 411.05C315.85 421.678 394.5 411.05 394.5 411.05" stroke="#6CA3FF" stroke-width="2" stroke-linecap="round" stroke-linejoin="round"/>
<path d="M234.252 364.178C234.252 364.178 265.703 382.61 295.91 390.111C324.29 397.151 392.5 399 392.5 399" stroke="#6CA3FF" stroke-width="2" stroke-linecap="round" stroke-linejoin="round"/>
<path d="M63.7683 10.9922C56.3686 13.5795 13.4867 165.796 181 101C348.513 36.205 440.097 11.0347 313 111" stroke="#26144D" stroke-width="2" stroke-linecap="round" stroke-linejoin="round"/>
<path d="M47.9458 1.19034C37.0699 10.935 -10.0187 180.968 169 114.5C348.019 48.0323 361 54.9997 288.5 99.9997" stroke="#26144D" stroke-width="2" stroke-linecap="round" stroke-linejoin="round"/>
<path d="M82.3607 111.841L78.3279 121.361L72.2587 115.5L73.8271 124.236L65.7014 126.374L74.3282 130.074L71.3625 139.922L78.9227 133.16L85.8434 138.258L84.4258 129.257L93.6946 123.257L83.6639 122.997L82.3607 111.841Z" fill="#FFBF33"/>
</g>
</svg>
