<svg width="769" height="873" fill="none" xmlns="http://www.w3.org/2000/svg"><mask id="a" style="mask-type:alpha" maskUnits="userSpaceOnUse" x="0" y="0" width="769" height="873"><path fill="#D9D9D9" d="M0 0h769v873H0z"/></mask><g mask="url(#a)"><path d="M453.144 810.059l-795.631-460.205 314.851-181.719 795.63 460.205-314.85 181.719z" fill="#4DA4FF" stroke="#26144D" stroke-width="1.5" stroke-linecap="round" stroke-linejoin="round"/><path d="M452.635 871.541l-795.63-460.232v-61.936l795.63 460.205v61.963z" fill="#999" stroke="#26144D" stroke-width="1.5" stroke-linecap="round" stroke-linejoin="round"/><path d="M767.78 690.276L452.903 871.995v-61.936L767.78 628.34v61.936z" fill="#D9D9D9" stroke="#26144D" stroke-width="1.5" stroke-linecap="round" stroke-linejoin="round"/><path d="M731 649L483.5 786.5-132 424.064 396.5 454 731 649z" fill="#B2B4B3" opacity=".46"/><path d="M73.811 432.676v109.028l208.551-120.425V165.161L176.98 226.014V373.05L73.812 432.676z" fill="#7D7D7B" stroke="#26144D" stroke-width="1.5" stroke-linecap="round" stroke-linejoin="round"/><path d="M-240.733 250.196v110.097l23.732 13.718v-44.225l13.359 7.713 50.851 29.386v44.226l21.386 12.357v-43.051l13.332 7.713 50.851 29.386v43.051l140.927 81.432V431.902l-314.438-181.706zM176.9 225.615L-137.539 43.909l105.542-60.907 314.438 181.706L176.9 225.615z" fill="#D8D8D8" stroke="#26144D" stroke-width="1.5" stroke-linecap="round" stroke-linejoin="round"/><path d="M73.438 432.142L-241 250.436l105.542-60.907L178.98 371.235 73.438 432.142z" fill="#D8D8D8" stroke="#26144D" stroke-width="1.5" stroke-linecap="round" stroke-linejoin="round"/><path d="M146.048 355.381l-83.729 35.391-254.121-147.569 41.118-27.437 87.302 17.428 209.43 122.187z" fill="#565656" stroke="#26144D" stroke-width="1.5" stroke-linecap="round" stroke-linejoin="round"/><path d="M-137.378 153.738L177.06 335.47V225.374L-137.378 43.668v110.07z" fill="#7D7D7B" stroke="#26144D" stroke-width="1.5" stroke-linecap="round" stroke-linejoin="round"/><path d="M162.714 340.915c-.56-2.215-16.666-105.105-16.666-105.105L-114.02 84.504l-6.666 50.604 245.055 204.126 38.345 1.681z" fill="#565656" stroke="#26144D" stroke-width="1.5" stroke-linecap="round" stroke-linejoin="round"/><path d="M169.674 485.015l63.09-151.332" stroke="#26144D" stroke-width="1.5" stroke-linecap="round" stroke-linejoin="round"/><path d="M234.204 149.761L57.866 47.431" stroke="#fff" stroke-width="1.5" stroke-linecap="round" stroke-linejoin="round"/><path d="M-87.06 221.237c0 4.057 1.12 7.18 3.013 9.155l3.733 2.189 53.757 31.36a22.364 22.364 0 0011.386 3.096c7.76 0 15.333-4.003 19.546-11.183 6.293-10.782 2.693-24.635-8.08-30.96l-53.624-31.254-4.426-2.589c-2.587-.534-5.706.107-9.066 2.028-8.96 5.178-16.24 17.803-16.24 28.158z" fill="#fff" stroke="#26144D" stroke-width="1.5" stroke-linecap="round" stroke-linejoin="round"/><path d="M-62.635 261.192c0 2.669.213 5.151.666 7.446 1.6 8.861 6.213 14.76 12.666 17.029l15.573 8.834c-1.973-1.495-3.68-3.416-5.04-5.765-2.4-4.164-3.786-9.662-3.786-16.308 0-.907 0-1.815.08-2.749.293-5.364 1.386-10.916 3.173-16.441 1.866-5.685 4.426-11.316 7.52-16.628a88.553 88.553 0 017.866-11.263c3.626-4.43 7.68-8.327 11.973-11.503a54.586 54.586 0 015.12-3.39c1.92-1.094 3.786-2.028 5.626-2.722 7.333-2.91 13.946-2.803 19.066-.08v-.08L.535 198.177H.508c-1.333-1.095-2.826-1.922-4.426-2.536-3.573-1.414-7.706-1.681-12.266-.694-3.36.721-6.96 2.135-10.693 4.297-2.32 1.361-4.613 2.909-6.8 4.698-3.173 2.509-6.213 5.471-9.013 8.727-4.613 5.312-8.666 11.424-11.892 17.856a80.302 80.302 0 00-5.307 13.292c-1.76 5.898-2.72 11.797-2.72 17.402l-.026-.027z" fill="#D8D8D8" stroke="#26144D" stroke-width="1.5" stroke-linecap="round" stroke-linejoin="round"/><path d="M-42.583 272.402c0 10.409 3.333 17.989 8.826 22.073 6.56 4.884 16.186 4.804 26.932-1.415 19.733-11.423 35.759-39.181 35.759-62.001 0-11.743-4.24-19.884-11.067-23.46-6.4-3.39-15.092-2.723-24.692 2.829-19.732 11.396-35.758 39.154-35.758 61.974z" fill="#7D7D7B" stroke="#26144D" stroke-width="1.5" stroke-linecap="round" stroke-linejoin="round"/><path d="M-27.73 288.576c0 3.176.266 6.139.773 8.861 1.893 10.569 7.413 17.615 15.12 20.338l18.585 10.542c-2.347-1.788-4.373-4.056-6-6.886-2.88-4.964-4.506-11.53-4.506-19.457 0-1.067 0-2.188.106-3.283.347-6.405 1.654-13.024 3.787-19.643 2.213-6.78 5.28-13.506 8.96-19.831 2.8-4.751 5.946-9.288 9.386-13.425 4.346-5.285 9.172-9.929 14.292-13.719 2-1.495 4.053-2.829 6.107-4.057 2.293-1.308 4.533-2.402 6.72-3.256 8.746-3.47 16.639-3.336 22.745-.107v-.08l-20.692-11.236h-.054a19.205 19.205 0 00-5.28-3.016c-4.24-1.682-9.199-2.002-14.639-.828-4.026.881-8.32 2.563-12.746 5.125a63.186 63.186 0 00-8.133 5.605c-3.786 3.016-7.413 6.512-10.773 10.409-5.493 6.325-10.346 13.612-14.186 21.299-2.613 5.177-4.746 10.515-6.32 15.853-2.106 7.02-3.252 14.093-3.252 20.765v.027z" fill="#D8D8D8" stroke="#26144D" stroke-width="1.5" stroke-linecap="round" stroke-linejoin="round"/><path d="M-3.785 301.974c0 12.411 3.973 21.459 10.533 26.343 7.813 5.819 19.305 5.712 32.132-1.681 23.545-13.639 42.664-46.734 42.664-73.985 0-14.012-5.066-23.727-13.2-27.998-7.626-4.03-17.998-3.256-29.438 3.363-23.545 13.612-42.664 46.708-42.664 73.931l-.027.027z" fill="#7D7D7B" stroke="#26144D" stroke-width="1.5" stroke-linecap="round" stroke-linejoin="round"/><path d="M27.68 209.493l5.067 22.58c2-1.495 4.053-2.829 6.106-4.057 2.293-1.308 4.533-2.402 6.72-3.256l-3.254-14.439c-4.24-1.682-9.2-2.002-14.639-.828zm-31.652 21.139l13.066 28.585c2.8-4.751 5.947-9.288 9.387-13.425L6.8 220.223c-3.786 3.016-7.413 6.512-10.773 10.409zm-20.505 37.153l20.798 30.907c.347-6.406 1.654-13.025 3.787-19.644l-18.266-27.117c-2.613 5.178-4.746 10.516-6.32 15.854zm-2.48 29.653c1.893 10.569 7.413 17.615 15.12 20.337l18.585 10.543c-2.347-1.788-4.373-4.057-6-6.886l-27.678-23.994h-.027zm35.811 24.554c0 4.004.32 7.741.987 11.184 2.4 13.318 9.333 22.206 19.04 25.622l23.411 13.292c-2.96-2.242-5.52-5.125-7.573-8.675-3.626-6.272-5.68-14.519-5.68-24.528 0-1.361.027-2.749.134-4.137.427-8.06 2.08-16.414 4.773-24.741 2.8-8.541 6.64-17.029 11.306-25.009 3.52-5.979 7.493-11.69 11.84-16.922 5.466-6.645 11.546-12.517 17.999-17.295 2.506-1.895 5.093-3.576 7.706-5.097 2.88-1.655 5.707-3.043 8.453-4.111 11.04-4.377 20.959-4.217 28.665-.133v-.107l-26.078-14.146h-.054c-2-1.628-4.24-2.909-6.64-3.816-5.36-2.136-11.599-2.536-18.452-1.041-5.066 1.094-10.48 3.229-16.08 6.459a78.844 78.844 0 00-10.239 7.073c-4.773 3.79-9.333 8.22-13.572 13.104-6.933 7.981-13.04 17.162-17.866 26.851-3.28 6.512-5.973 13.238-7.973 19.99-2.64 8.862-4.107 17.749-4.107 26.183z" fill="#D8D8D8" stroke="#26144D" stroke-width="1.5" stroke-linecap="round" stroke-linejoin="round"/><path d="M39.013 338.887c0 15.667 5.013 27.037 13.253 33.202 9.84 7.313 24.345 7.207 40.505-2.108 29.678-17.189 53.757-58.905 53.757-93.229 0-17.668-6.4-29.893-16.639-35.284-9.626-5.098-22.692-4.083-37.118 4.244-29.679 17.135-53.758 58.878-53.758 93.201v-.026z" fill="#7D7D7B" stroke="#26144D" stroke-width="1.5" stroke-linecap="round" stroke-linejoin="round"/><path d="M78.691 222.332l6.4 28.451a76.814 76.814 0 017.706-5.097c2.88-1.655 5.707-3.043 8.453-4.111l-4.106-18.202c-5.36-2.136-11.6-2.536-18.453-1.041zM38.8 248.968L55.252 285c3.52-5.979 7.493-11.691 11.84-16.922l-14.72-32.215c-4.773 3.79-9.332 8.221-13.572 13.105zm-25.84 46.841l26.213 38.941c.427-8.06 2.08-16.414 4.773-24.742l-23.012-34.19c-3.28 6.513-5.973 13.239-7.973 19.991zm-3.119 37.367c2.4 13.318 9.333 22.206 19.04 25.622l23.412 13.292c-2.96-2.242-5.52-5.125-7.573-8.674l-34.88-30.24zm69.517-15.561c0 4.057 1.12 7.18 3.013 9.155l3.733 2.189 53.758 31.36a22.361 22.361 0 0011.386 3.096c7.759 0 15.332-4.003 19.546-11.183 6.293-10.783 2.693-24.635-8.08-30.96l-53.624-31.254-4.427-2.589c-2.586-.534-5.706.107-9.066 2.028-8.96 5.178-16.24 17.803-16.24 28.158z" fill="#D8D8D8" stroke="#26144D" stroke-width="1.5" stroke-linecap="round" stroke-linejoin="round"/><path d="M246.63 300.4l-13.866 33.283-63.09 151.332-18.506 44.439-28.905-17.055.453-131.074c.347-34.964 25.252-77.268 55.677-94.483 8.72-4.911 16.933-7.26 24.213-7.26 7.279 0 13.066 2.135 17.945 6.165L246.63 300.4z" fill="#D8D8D8" stroke="#26144D" stroke-width="1.5" stroke-linecap="round" stroke-linejoin="round"/><path d="M260.603 466.252l-109.435 63.202.453-131.075c.32-34.964 25.252-77.267 55.678-94.482 30.425-17.216 54.824-2.803 54.504 32.161l-1.2 130.194z" fill="#7D7D7B" stroke="#26144D" stroke-width="1.5" stroke-linecap="round" stroke-linejoin="round"/><path d="M259.696 341.849l-9.946 18.096-31.465 57.384-11.093 20.178-20.026-11.344c-8.773-3.096-14.373-12.384-14.373-26.423 0-24.635 17.28-54.581 38.585-66.885 11.866-6.859 22.479-6.806 29.546-1.174h.026l18.746 10.168z" fill="#D8D8D8" stroke="#26144D" stroke-width="1.5" stroke-linecap="round" stroke-linejoin="round"/><path d="M260.307 405.324c15.065-26.119 15.068-54.348.006-63.052-15.063-8.705-39.486 5.412-54.552 31.531-15.065 26.118-15.068 54.348-.006 63.052s39.486-5.413 54.552-31.531z" fill="#7D7D7B" stroke="#26144D" stroke-width="1.5" stroke-linecap="round" stroke-linejoin="round"/><path d="M218.471 401.875c0 4.057 1.12 7.18 3.013 9.155l3.734 2.188 53.757 31.361a22.364 22.364 0 0011.386 3.096c7.76 0 15.333-4.003 19.546-11.183 6.293-10.783 2.693-24.635-8.08-30.96l-53.624-31.255-4.426-2.588c-2.587-.534-5.707.106-9.067 2.028-8.959 5.178-16.239 17.802-16.239 28.158z" fill="#fff" stroke="#26144D" stroke-width="1.5" stroke-linecap="round" stroke-linejoin="round"/><path d="M262.293 482.644c-18.648-10.763-18.649-45.658-.004-77.941 18.646-32.283 48.878-49.729 67.526-38.966 18.648 10.762 18.65 45.657.004 77.94-18.645 32.283-48.878 49.729-67.526 38.967z" fill="#F21131" stroke="#26144D" stroke-width="1.5" stroke-linecap="round" stroke-linejoin="round"/><path d="M257.318 522.297c0 34.483 12.675 58.248 32.945 68.298l173.791 102.488 147.103-251.782-178.31-105.829-.08.134c-18.612-10.211-44.043-8.447-72.094 7.752-57.093 32.96-103.355 113.073-103.355 178.939z" fill="#E40133" stroke="#26144D" stroke-width="1.5" stroke-linecap="round" stroke-linejoin="round"/><path d="M462.587 692.779c-40.352-23.289-40.35-98.811.005-168.683 40.356-69.872 105.783-107.635 146.136-84.346 40.353 23.289 40.35 98.811-.005 168.683-40.356 69.872-105.783 107.635-146.136 84.346z" fill="#BF0037" stroke="#26144D" stroke-width="1.5" stroke-linecap="round" stroke-linejoin="round"/><path d="M620.677 503.772l-13.906 33.334-63.269 151.566-18.559 28.175-28.987-17.081.455-114.945c.347-35.018 25.323-77.387 55.835-94.628 8.744-4.919 16.981-7.271 24.281-7.271 7.3 0 13.103 2.138 17.997 6.175l26.153 14.675z" fill="#E40133" stroke="#26144D" stroke-width="1.5" stroke-linecap="round" stroke-linejoin="round"/><path d="M543.475 688.645l63.27-151.566" stroke="#26144D" stroke-width="1.5" stroke-linecap="round" stroke-linejoin="round"/><path d="M634.663 653.547l-109.746 63.3.454-114.944c.321-35.018 25.324-77.387 55.836-94.629 30.512-17.242 54.98-2.807 54.659 32.211l-1.203 114.062z" fill="#BF0037" stroke="#26144D" stroke-width="1.5" stroke-linecap="round" stroke-linejoin="round"/><path d="M633.753 545.259l-9.974 18.124-31.555 57.472-11.124 20.209-20.083-11.361c-8.797-3.101-14.413-12.403-14.413-26.464 0-24.673 17.328-54.665 38.694-66.988 11.9-6.87 22.543-6.817 29.63-1.176h.026l18.799 10.184z" fill="#E40133" stroke="#26144D" stroke-width="1.5" stroke-linecap="round" stroke-linejoin="round"/><path d="M579.658 640.441c-15.105-8.718-15.102-36.991.006-63.15s39.601-40.297 54.706-31.58c15.106 8.718 15.103 36.991-.006 63.15-15.108 26.159-39.601 40.298-54.706 31.58zM461.46 368.325v74.607c9.734-9.089 20.029-16.894 30.726-23.069 13.504-7.805 26.42-12.243 38.266-13.633v-32.505l-68.992-5.4z" fill="#BF0037" stroke="#26144D" stroke-width="1.5" stroke-linecap="round" stroke-linejoin="round"/><path d="M378.241 361.829v32.666l83.192 48.463.027-.026v-74.607l-83.219-6.496z" fill="#F21131" stroke="#26144D" stroke-width="1.5" stroke-linecap="round" stroke-linejoin="round"/><path d="M530.452 373.725c-11.846 1.39-24.762 5.827-38.266 13.633-10.697 6.175-21.019 14.007-30.726 23.095l-83.219-48.463s14.574-14.863 36.77-25.074c22.649-10.399 37.143-9.65 37.143-9.65l78.271 46.432.027.027z" fill="#F21131" stroke="#26144D" stroke-width="1.5" stroke-linecap="round" stroke-linejoin="round"/><path d="M251.461 632.724l75.518-20.236v-71.479l-75.518 91.715zm82.096 50.12l75.517-20.235v-71.453l-75.517 91.688z" fill="#7D7D7B" stroke="#26144D" stroke-width="1.5" stroke-linecap="round" stroke-linejoin="round"/><path d="M326.979 541.009l-32.063-18.578-71.961 91.715 28.319 18.07 75.705-91.207zm82.095 50.147l-32.062-18.578-71.961 91.688 28.319 18.071 75.704-91.181z" fill="#D8D8D8" stroke="#26144D" stroke-width="1.5" stroke-linecap="round" stroke-linejoin="round"/><path d="M305.364 433.293l111.486 64.342-14.213 24.608-111.486-64.342 14.213-24.608z" fill="#BF0037" stroke="#26144D" stroke-width="1.5" stroke-linecap="round" stroke-linejoin="round"/><path d="M594.727 614.351c-6.792-3.92-6.796-16.622-.01-28.372 6.786-11.75 17.793-18.097 24.585-14.178 6.791 3.92 6.796 16.622.01 28.372-6.787 11.75-17.794 18.098-24.585 14.178z" fill="#7D7D7B" stroke="#26144D" stroke-width="1.5" stroke-linecap="round" stroke-linejoin="round"/><path d="M508.07 369.983l-54.606-32.292" stroke="#fff" stroke-width="1.5" stroke-linecap="round" stroke-linejoin="round"/></g></svg>