<svg width="390" height="793" viewBox="0 0 390 793" fill="none" xmlns="http://www.w3.org/2000/svg">
<mask id="mask0_1024_22" style="mask-type:alpha" maskUnits="userSpaceOnUse" x="0" y="0" width="390" height="793">
<rect width="390" height="793" fill="#D9D9D9"/>
</mask>
<g mask="url(#mask0_1024_22)">
<rect x="34.5552" y="-21.7011" width="92.3001" height="16.8551" rx="8.42756" transform="rotate(29.9054 34.5552 -21.7011)" fill="#007117" stroke="black"/>
<rect x="94.5" y="97.5" width="78" height="17" rx="8.5" transform="rotate(-90 94.5 97.5)" fill="#007117" stroke="black"/>
<rect x="-0.18414" y="0.68271" width="90.2127" height="16.8551" rx="8.42756" transform="matrix(-0.86685 0.498569 0.498569 0.86685 105.632 76.9942)" fill="#007117" stroke="black"/>
<rect x="36.1568" y="114.817" width="76.2642" height="16.8551" rx="8.42756" transform="rotate(29.9054 36.1568 114.817)" fill="#007117" stroke="black"/>
<rect x="-0.18414" y="0.68271" width="61.3059" height="16.8551" rx="8.42756" transform="matrix(-0.86685 0.498569 0.498569 0.86685 133.325 121.911)" fill="#007117" stroke="black"/>
<rect x="128.086" y="122.683" width="58.6985" height="16.8551" rx="8.42756" transform="rotate(29.9054 128.086 122.683)" fill="#007117" stroke="black"/>
<rect x="-0.18414" y="0.68271" width="111.912" height="16.8551" rx="8.42756" transform="matrix(-0.86685 0.498569 0.498569 0.86685 170.121 143.183)" fill="#007117" stroke="black"/>
<rect x="23.5742" y="328.843" width="84.4685" height="16.8316" rx="8.41578" transform="rotate(-90 23.5742 328.843)" fill="#007117" stroke="black"/>
<rect x="82.0865" y="191.683" width="58.6985" height="16.8551" rx="8.42756" transform="rotate(29.9054 82.0865 191.683)" fill="#007117" stroke="black"/>
<rect x="29.0865" y="240.683" width="120.074" height="16.8551" rx="8.42756" transform="rotate(29.9054 29.0865 240.683)" fill="#007117" stroke="black"/>
<rect x="29.086" y="309.427" width="48.6971" height="16.8551" rx="8.42756" transform="rotate(29.9054 29.086 309.427)" fill="#007117" stroke="black"/>
<rect x="113.5" y="311.5" width="95" height="17" rx="8.5" transform="rotate(-90 113.5 311.5)" fill="#007117" stroke="black"/>
<rect x="51.5" y="578.5" width="250" height="17" rx="8.5" transform="rotate(-90 51.5 578.5)" fill="#007117" stroke="black"/>
<rect x="57.0865" y="559.683" width="48.6971" height="16.8551" rx="8.42756" transform="rotate(29.9054 57.0865 559.683)" fill="#007117" stroke="black"/>
<rect x="252.5" y="132.5" width="82" height="15" rx="7.5" transform="rotate(-90 252.5 132.5)" fill="#FFE448" stroke="black"/>
<rect x="297.569" y="95.271" width="69.0415" height="15.447" rx="7.7235" transform="rotate(-90 297.569 95.271)" fill="#FFE448" stroke="black"/>
<rect x="-0.18414" y="0.68271" width="54.1904" height="15.4687" rx="7.73437" transform="matrix(-0.86685 0.498569 0.498569 0.86685 262.094 47.1827)" fill="#FFE448" stroke="black"/>
<rect x="302.562" y="77.359" width="76.9482" height="15.4687" rx="7.73437" transform="rotate(29.9054 302.562 77.359)" fill="#FFE448" stroke="black"/>
<rect x="218.499" y="202.5" width="132" height="15" rx="7.5" transform="rotate(-90 218.499 202.5)" fill="#FFE448" stroke="black"/>
<rect x="224.394" y="185.683" width="54.6124" height="15.4687" rx="7.73437" transform="rotate(29.9054 224.394 185.683)" fill="#FFE448" stroke="black"/>
<rect x="-0.18414" y="0.68271" width="110.058" height="15.4687" rx="7.73437" transform="matrix(-0.86685 0.498569 0.498569 0.86685 263.589 204.841)" fill="#FFE448" stroke="black"/>
<rect x="257.906" y="114.945" width="50.0621" height="15.4687" rx="7.73437" transform="rotate(29.9054 257.906 114.945)" fill="#FFE448" stroke="black"/>
<rect x="302.573" y="23.2721" width="54.3176" height="15.4687" rx="7.73437" transform="rotate(29.9054 302.573 23.2721)" fill="#FFE448" stroke="black"/>
<rect x="331.881" y="60.6758" width="70.1758" height="15.447" rx="7.7235" transform="rotate(-90 331.881 60.6758)" fill="#FFE448" stroke="black"/>
<rect x="306.499" y="554.5" width="230" height="15" rx="7.5" transform="rotate(-90 306.499 554.5)" fill="#FFE448" stroke="black"/>
<rect x="-0.18414" y="0.68271" width="81.8375" height="15.4687" rx="7.73437" transform="matrix(-0.86685 0.498569 0.498569 0.86685 316.123 320.931)" fill="#FFE448" stroke="black"/>
<rect x="-0.18414" y="0.68271" width="110.058" height="15.4687" rx="7.73437" transform="matrix(-0.86685 0.498569 0.498569 0.86685 315.587 536.183)" fill="#FFE448" stroke="black"/>
<rect x="171.499" y="328.5" width="73" height="15" rx="7.5" transform="rotate(-90 171.499 328.5)" fill="#FFE448" stroke="black"/>
<rect x="283.389" y="186.864" width="52.311" height="15.447" rx="7.7235" transform="rotate(-90 283.389 186.864)" fill="#FFE448" stroke="black"/>
<rect x="177.394" y="310.683" width="103.058" height="15.4687" rx="7.73437" transform="rotate(29.9054 177.394 310.683)" fill="#FFE448" stroke="black"/>
<rect x="289.016" y="169.331" width="92.756" height="15.4687" rx="7.73437" transform="rotate(29.9054 289.016 169.331)" fill="#FFE448" stroke="black"/>
<rect x="351.447" y="225.712" width="114.413" height="15.447" rx="7.7235" transform="rotate(-90 351.447 225.712)" fill="#FFE448" stroke="black"/>
<path d="M244.42 771.15L26.1807 645.545L137.76 581.166L356 706.771L244.42 771.15Z" fill="#4DA4FF" stroke="black" stroke-width="1.5" stroke-linecap="round" stroke-linejoin="round"/>
<path d="M244.24 792.932L26 667.318V645.375L244.24 770.98V792.932Z" fill="#999999" stroke="black" stroke-width="1.5" stroke-linecap="round" stroke-linejoin="round"/>
<path d="M355.924 728.714L244.345 793.093V771.15L355.924 706.771V728.714Z" fill="#D9D9D9" stroke="black" stroke-width="1.5" stroke-linecap="round" stroke-linejoin="round"/>
<g style="mix-blend-mode:multiply" opacity="0.46">
<path d="M221.429 741.252L257.773 763.356L344.134 714.413L299.897 685.472L221.429 741.252Z" fill="#B2B4B3"/>
</g>
<path d="M228.958 745.982L69.9844 653.938V551.658L228.958 643.692V745.982Z" fill="#004DA9" stroke="black" stroke-width="1.5" stroke-linecap="round" stroke-linejoin="round"/>
<path d="M228.976 643.456L70.0029 551.412L149.783 505.385L308.747 597.429L228.976 643.456Z" fill="#0069EA" stroke="black" stroke-width="1.5" stroke-linecap="round" stroke-linejoin="round"/>
<path d="M308.822 699.947L229.042 745.973V643.693L308.822 597.657V699.947Z" fill="#0069EA" stroke="black" stroke-width="1.5" stroke-linecap="round" stroke-linejoin="round"/>
<path d="M199.62 665.471V717.127L151.441 689.331V637.675L155.19 639.842L199.62 665.471Z" stroke="black" stroke-width="1.5" stroke-linecap="round" stroke-linejoin="round"/>
<path d="M199.618 665.472V712.984L155.188 687.354V639.842L199.618 665.472Z" fill="#003C93" stroke="black" stroke-width="1.5" stroke-linecap="round" stroke-linejoin="round"/>
<path d="M297.35 656.597L292.427 668.395L270.028 722.037L263.457 737.79L253.195 731.744L253.356 685.282C253.479 672.889 262.321 657.893 273.123 651.791C276.219 650.05 279.135 649.218 281.719 649.218C284.304 649.218 286.358 649.975 288.091 651.403L297.35 656.597Z" fill="#004DA9" stroke="black" stroke-width="1.5" stroke-linecap="round" stroke-linejoin="round"/>
<path d="M292.425 668.395L292.047 709.35L270.026 722.037L292.425 668.395Z" stroke="black" stroke-width="1.5" stroke-linecap="round" stroke-linejoin="round"/>
<path d="M302.301 715.386L263.447 737.789L263.608 691.327C263.722 678.934 272.574 663.938 283.376 657.836C294.178 651.734 302.84 656.843 302.727 669.237L302.301 715.386Z" fill="#0069EA" stroke="black" stroke-width="1.5" stroke-linecap="round" stroke-linejoin="round"/>
<path d="M301.987 671.29L298.456 677.705L287.284 698.045L283.346 705.198L276.236 701.177C273.121 700.079 271.133 696.787 271.133 691.811C271.133 683.078 277.268 672.463 284.832 668.102C289.045 665.67 292.813 665.689 295.322 667.686H295.331L301.987 671.29Z" fill="#004DA9" stroke="black" stroke-width="1.5" stroke-linecap="round" stroke-linejoin="round"/>
<path d="M302.195 693.785C307.544 684.527 307.544 674.52 302.197 671.435C296.849 668.349 288.178 673.353 282.829 682.612C277.48 691.87 277.479 701.876 282.827 704.962C288.175 708.047 296.846 703.043 302.195 693.785Z" fill="#0069EA" stroke="black" stroke-width="1.5" stroke-linecap="round" stroke-linejoin="round"/>
<path d="M273.387 618.253L122.262 527.372L134.153 511.544L274.552 592.841L273.387 618.253Z" stroke="black" stroke-width="1.5" stroke-linecap="round" stroke-linejoin="round"/>
<path d="M273.387 618.253L274.551 592.841L298.371 579.104L308.822 597.657L273.387 618.253Z" fill="#037BF4" stroke="black" stroke-width="1.5" stroke-linecap="round" stroke-linejoin="round"/>
<path d="M274.552 592.841L134.154 511.544L157.973 497.798L298.372 579.104L274.552 592.841Z" fill="#037BF4" stroke="black" stroke-width="1.5" stroke-linecap="round" stroke-linejoin="round"/>
<path d="M89.1671 562.462L136.664 534.468C136.664 534.468 88.9209 528.025 88.5233 528.157C88.1257 528.29 83.3921 544.714 83.3921 544.714L89.1576 562.462H89.1671Z" fill="#004DA9" stroke="black" stroke-width="1.5" stroke-linecap="round" stroke-linejoin="round"/>
<path d="M209.861 632.254L216.498 613.323L230.178 621.214L229.042 643.692L209.861 632.254Z" fill="#004DA9" stroke="black" stroke-width="1.5" stroke-linecap="round" stroke-linejoin="round"/>
<path d="M70.1812 551.422L78.2661 533.484L89.712 540.116L89.125 562.86L70.1812 551.422Z" fill="#004DA9" stroke="black" stroke-width="1.5" stroke-linecap="round" stroke-linejoin="round"/>
<path d="M257.502 601.895V605.253L230.142 621.289L219.784 597.552L82.084 518.432L111.3 501.194C115.02 498.886 120.237 499.122 126.002 502.452L237.072 566.53C248.338 573.03 257.502 588.896 257.502 601.895Z" fill="#037BF4" stroke="black" stroke-width="1.5" stroke-linecap="round" stroke-linejoin="round"/>
<path d="M100.535 659.294L99.8249 658.887C98.8782 658.338 98.1113 656.881 98.1113 655.623V630.58C98.1113 629.322 98.8782 628.745 99.8249 629.284L100.535 629.691C101.482 630.24 102.248 631.697 102.248 632.955V657.997C102.248 659.256 101.482 659.833 100.535 659.294Z" fill="#003C93" stroke="black" stroke-width="1.5" stroke-linecap="round" stroke-linejoin="round"/>
<path d="M108.053 663.636L107.343 663.23C106.397 662.681 105.63 661.224 105.63 659.966V634.923C105.63 633.665 106.397 633.088 107.343 633.627L108.053 634.034C109 634.582 109.767 636.039 109.767 637.298V662.34C109.767 663.599 109 664.176 108.053 663.636Z" fill="#003C93" stroke="black" stroke-width="1.5" stroke-linecap="round" stroke-linejoin="round"/>
<path d="M115.712 668.045L115.002 667.638C114.055 667.089 113.289 665.632 113.289 664.374V639.331C113.289 638.073 114.055 637.496 115.002 638.035L115.712 638.442C116.659 638.991 117.426 640.447 117.426 641.706V666.748C117.426 668.007 116.659 668.584 115.712 668.045Z" fill="#003C93" stroke="black" stroke-width="1.5" stroke-linecap="round" stroke-linejoin="round"/>
<path d="M123.551 672.567L122.841 672.16C121.894 671.612 121.127 670.155 121.127 668.896V643.854C121.127 642.595 121.894 642.018 122.841 642.557L123.551 642.964C124.497 643.513 125.264 644.97 125.264 646.228V671.271C125.264 672.529 124.497 673.106 123.551 672.567Z" fill="#003C93" stroke="black" stroke-width="1.5" stroke-linecap="round" stroke-linejoin="round"/>
<path d="M131.068 676.91L130.358 676.503C129.411 675.954 128.644 674.497 128.644 673.239V648.196C128.644 646.938 129.411 646.361 130.358 646.9L131.068 647.307C132.014 647.856 132.781 649.313 132.781 650.571V675.614C132.781 676.872 132.014 677.449 131.068 676.91Z" fill="#003C93" stroke="black" stroke-width="1.5" stroke-linecap="round" stroke-linejoin="round"/>
<path d="M138.715 681.328L138.005 680.921C137.058 680.372 136.292 678.915 136.292 677.657V652.614C136.292 651.356 137.058 650.779 138.005 651.318L138.715 651.725C139.662 652.274 140.429 653.731 140.429 654.989V680.032C140.429 681.29 139.662 681.867 138.715 681.328Z" fill="#003C93" stroke="black" stroke-width="1.5" stroke-linecap="round" stroke-linejoin="round"/>
<path d="M106.68 516.199L138.641 534.865" stroke="white" stroke-width="1.5" stroke-linecap="round" stroke-linejoin="round"/>
<path d="M158.759 502.008L247.145 553.787" stroke="white" stroke-width="1.5" stroke-linecap="round" stroke-linejoin="round"/>
<path d="M229.042 643.693L230.178 621.214L257.595 604.648L273.386 618.253L229.042 643.693Z" fill="#037BF4" stroke="black" stroke-width="1.5" stroke-linecap="round" stroke-linejoin="round"/>
<path d="M89.5815 540.778L78.2114 534.108V530.267C78.2114 517.268 87.3757 511.98 98.6417 518.479L209.701 582.557C220.967 589.057 230.132 604.922 230.132 617.921V621.28L216.319 613.314V609.955C216.319 605.745 213.346 600.599 209.692 598.489L96.2086 533.115C92.5542 531.005 89.5815 532.718 89.5815 536.937V540.778Z" fill="#004DA9" stroke="black" stroke-width="1.5" stroke-linecap="round" stroke-linejoin="round"/>
<path d="M412.001 751.539V810.469C412.001 815.228 408.138 819.088 403.376 819.088C398.614 819.088 394.751 815.228 394.751 810.469V756.553L290.416 697.286L289.096 696.536C289.096 696.536 289.059 696.514 289.036 696.499C288.294 695.757 287.851 694.558 287.851 692.992C287.851 689.064 290.603 684.29 294.008 682.327C295.433 681.51 296.738 681.307 297.781 681.637L298.838 682.244L407.636 744.052C410.336 745.581 412.001 748.444 412.001 751.539Z" fill="#D2233C" stroke="black" stroke-width="1.5" stroke-linecap="round" stroke-linejoin="round"/>
<path d="M307.411 706.932C306.668 706.19 306.226 704.991 306.226 703.424C306.226 699.497 308.978 694.723 312.383 692.759C313.808 691.942 315.113 691.74 316.155 692.07" stroke="black" stroke-width="1.5" stroke-linecap="round" stroke-linejoin="round"/>
<path d="M385.144 751.314C384.401 750.572 383.959 749.373 383.959 747.807C383.959 743.88 386.711 739.106 390.116 737.142C391.541 736.325 392.846 736.123 393.889 736.453" stroke="black" stroke-width="1.5" stroke-linecap="round" stroke-linejoin="round"/>
<path d="M316.59 695.315C329.73 703.252 343.229 710.746 356.564 718.736" stroke="white" stroke-width="1.5" stroke-linecap="round" stroke-linejoin="round"/>
</g>
</svg>
