<svg width="352" height="292" fill="none" xmlns="http://www.w3.org/2000/svg"><path d="M125.483 49.846c-.109-6.371-4.584-14.335-9.984-17.792-3.225-2.01-6.016-1.991-7.773-.29l-52.765 29.81 13.934 24.87 52.765-29.81c2.355-.598 3.841-2.969 3.805-6.77l.018-.018z" fill="#248CFF" stroke="#000" stroke-width="1.5" stroke-linecap="round" stroke-linejoin="round"/><path d="M55.33 77.712c-3.898-6.951-4.013-14.29-.259-16.39 3.755-2.1 9.957 1.833 13.855 8.784 3.897 6.951 4.012 14.289.258 16.39-3.754 2.1-9.957-1.833-13.854-8.784z" fill="#0069EA" stroke="#000" stroke-width="1.5" stroke-linecap="round" stroke-linejoin="round"/><path d="M175.854 256.62l174.855-100.853L175.854 54.932.999 155.767 175.854 256.62z" fill="#8ED760" stroke="#000" stroke-width="1.5" stroke-linecap="round" stroke-linejoin="round"/><path d="M176.145 290.739L351 189.886v-34.372L176.145 256.367v34.372z" fill="#956054" stroke="#000" stroke-width="1.5" stroke-linecap="round" stroke-linejoin="round"/><path d="M1.127 190.139L175.98 290.993v-34.372L1.127 155.768v34.371z" fill="#A9776B" stroke="#000" stroke-width="1.5" stroke-linecap="round" stroke-linejoin="round"/><path d="M283.811 146.103v11.077m-243.927-7.295v11.077m232.819-9.321v11.077M50.248 143.604v11.078m9.622-3.693v11.077M171.741 218.9v11.078m9.984-18.842v11.095m9.983-2.951v11.077m102.812-77.974v11.077" stroke="#5FAE2C" stroke-width="1.5" stroke-linecap="round" stroke-linejoin="round"/><path d="M191.582 108.272l19.606-11.421-.127-54.572L191.455 53.7l.127 54.572z" fill="#fff" stroke="#000" stroke-width="1.5" stroke-linecap="round" stroke-linejoin="round"/><path d="M191.458 53.7l19.605-11.42-17.938-10.336-19.588 11.421L191.458 53.7z" fill="#248CFF" stroke="#000" stroke-width="1.5" stroke-linecap="round" stroke-linejoin="round"/><path d="M204.539 42.587L192.471 35.8" stroke="#fff" stroke-width="1.5" stroke-linecap="round" stroke-linejoin="round"/><path d="M173.536 43.366l.109 54.572 17.938 10.335-.126-54.572-17.921-10.335z" fill="#fff" stroke="#000" stroke-width="1.5" stroke-linecap="round" stroke-linejoin="round"/><path d="M216.008 122.354l19.587-11.421-.108-54.572-19.606 11.44.127 54.553z" fill="#004DA9" stroke="#000" stroke-width="1.5" stroke-linecap="round" stroke-linejoin="round"/><path d="M215.882 67.8l19.605-11.438-17.938-10.336-19.606 11.421 17.939 10.354z" fill="#248CFF" stroke="#000" stroke-width="1.5" stroke-linecap="round" stroke-linejoin="round"/><path d="M229 56.831l-12.085-6.787" stroke="#fff" stroke-width="1.5" stroke-linecap="round" stroke-linejoin="round"/><path d="M197.943 57.447l.127 54.572 17.938 10.335-.127-54.553-17.938-10.354z" fill="#fff" stroke="#000" stroke-width="1.5" stroke-linecap="round" stroke-linejoin="round"/><path d="M95.5 172l113 65.5L309 180l-50.212-31L95.5 172z" fill="#B2B4B3" opacity=".46"/><path d="M240.417 136.436l19.605-11.421-.127-54.572-19.587 11.44.109 54.553z" fill="#004DA9" stroke="#000" stroke-width="1.5" stroke-linecap="round" stroke-linejoin="round"/><path d="M240.308 81.883l19.587-11.44-17.92-10.335-19.606 11.422 17.939 10.353z" fill="#248CFF" stroke="#000" stroke-width="1.5" stroke-linecap="round" stroke-linejoin="round"/><path d="M222.369 71.53l.127 54.571 17.92 10.335-.109-54.554-17.938-10.353z" fill="#fff" stroke="#000" stroke-width="1.5" stroke-linecap="round" stroke-linejoin="round"/><path d="M186.618 201.705l74.798-43.151V85.412l-74.798 43.151v73.142z" fill="#004DA9" stroke="#000" stroke-width="1.5" stroke-linecap="round" stroke-linejoin="round"/><path d="M79.168 139.73l107.45 61.974v-73.142L79.168 66.588v73.142z" fill="#0069EA" stroke="#000" stroke-width="1.5" stroke-linecap="round" stroke-linejoin="round"/><path d="M186.618 128.562l74.798-43.15-107.45-61.957-74.798 43.132 107.45 61.975z" fill="#248CFF" stroke="#000" stroke-width="1.5" stroke-linecap="round" stroke-linejoin="round"/><path d="M212.328 100.887l-34.5 20.996-16.996-9.05 33.902-19.692 17.594 7.746zm-31.09-21.104l-38.268 22.372-16.363-9.557 34.736-20.363 19.895 7.548zm-35.499-17.865l-35.75 20.616-16.616-9.05 34.79-19.33 17.576 7.764z" fill="#B2B4B3" opacity=".46"/><path d="M243.913 109.448l-35.243 19.856m35.243-10.805l-35.243 19.856m35.243-10.299l-35.243 19.855m35.243-10.552l-35.243 19.856" stroke="#000" stroke-width="1.5" stroke-linecap="round" stroke-linejoin="round"/><path d="M96.436 172.202l19.606-11.44-.127-54.553-19.606 11.421.127 54.572z" fill="#004DA9" stroke="#000" stroke-width="1.5" stroke-linecap="round" stroke-linejoin="round"/><path d="M96.31 117.63l19.605-11.421-17.938-10.353-19.588 11.439 17.92 10.335z" fill="#248CFF" stroke="#000" stroke-width="1.5" stroke-linecap="round" stroke-linejoin="round"/><path d="M78.39 107.295l.109 54.571 17.939 10.336-.127-54.572-17.92-10.335z" fill="#0069EA" stroke="#000" stroke-width="1.5" stroke-linecap="round" stroke-linejoin="round"/><path d="M120.862 186.283l19.587-11.421-.108-54.572-19.606 11.421.127 54.572z" fill="#004DA9" stroke="#000" stroke-width="1.5" stroke-linecap="round" stroke-linejoin="round"/><path d="M120.736 131.712l19.605-11.421-17.938-10.353-19.606 11.439 17.939 10.335z" fill="#248CFF" stroke="#000" stroke-width="1.5" stroke-linecap="round" stroke-linejoin="round"/><path d="M102.797 121.377l.126 54.571 17.939 10.336-.127-54.572-17.938-10.335z" fill="#0069EA" stroke="#000" stroke-width="1.5" stroke-linecap="round" stroke-linejoin="round"/><path d="M145.27 200.365l19.606-11.421-.127-54.572-19.587 11.421.108 54.572z" fill="#004DA9" stroke="#000" stroke-width="1.5" stroke-linecap="round" stroke-linejoin="round"/><path d="M145.162 145.793l19.587-11.421-17.92-10.335-19.606 11.421 17.939 10.335z" fill="#248CFF" stroke="#000" stroke-width="1.5" stroke-linecap="round" stroke-linejoin="round"/><path d="M127.223 135.459l.127 54.572 17.92 10.335-.109-54.572-17.938-10.335z" fill="#0069EA" stroke="#000" stroke-width="1.5" stroke-linecap="round" stroke-linejoin="round"/><path d="M209.195 202.085l53.979-31.259-.127-24.109-53.978 31.259.126 24.109z" fill="#004DA9" stroke="#000" stroke-width="1.5" stroke-linecap="round" stroke-linejoin="round"/><path d="M209.069 177.976l53.978-31.259-11.016-6.353-53.979 31.259 11.017 6.353z" fill="#248CFF" stroke="#000" stroke-width="1.5" stroke-linecap="round" stroke-linejoin="round"/><path d="M198.051 171.622l.127 24.109 11.017 6.353-.127-24.109-11.017-6.353z" fill="#0069EA" stroke="#000" stroke-width="1.5" stroke-linecap="round" stroke-linejoin="round"/><path d="M133.165 60.615c4.476 1.865 11.361 1.14 15.384-1.61 2.355-1.648 3.189-3.639 2.519-5.376l-2.646-25.231-21.49 2.244 2.646 25.231c-.29 1.846.924 3.62 3.587 4.742z" fill="#fff" stroke="#000" stroke-width="1.5" stroke-linecap="round" stroke-linejoin="round"/><path d="M128.998 49.666c-.29 1.846.924 3.62 3.569 4.742 4.458 1.864 11.307 1.14 15.293-1.593 2.356-1.647 3.171-3.638 2.501-5.375" fill="#fff"/><path d="M128.998 49.666c-.29 1.846.924 3.62 3.569 4.742 4.458 1.864 11.307 1.14 15.293-1.593 2.356-1.647 3.171-3.638 2.501-5.375" stroke="#000" stroke-width="1.5" stroke-linecap="round" stroke-linejoin="round"/><path d="M128.308 43.15c-.29 1.845.924 3.62 3.57 4.741 4.457 1.865 11.306 1.14 15.293-1.592 2.355-1.648 3.171-3.639 2.5-5.376" fill="#fff"/><path d="M128.308 43.15c-.29 1.845.924 3.62 3.57 4.741 4.457 1.865 11.306 1.14 15.293-1.592 2.355-1.648 3.171-3.639 2.5-5.376" stroke="#000" stroke-width="1.5" stroke-linecap="round" stroke-linejoin="round"/><path d="M127.602 36.977c-.29 1.847.924 3.62 3.569 4.742 4.458 1.865 11.307 1.14 15.293-1.592 2.356-1.647 3.171-3.638 2.501-5.376" fill="#fff"/><path d="M127.602 36.977c-.29 1.847.924 3.62 3.569 4.742 4.458 1.865 11.307 1.14 15.293-1.592 2.356-1.647 3.171-3.638 2.501-5.376" stroke="#000" stroke-width="1.5" stroke-linecap="round" stroke-linejoin="round"/><path d="M126.323 29.038c-.344-3.28 4.315-6.457 10.406-7.094 6.091-.637 11.308 1.506 11.652 4.786.344 3.281-4.315 6.458-10.406 7.095-6.091.637-11.308-1.506-11.652-4.787z" fill="#fff" stroke="#000" stroke-width="1.5" stroke-linecap="round" stroke-linejoin="round"/><path d="M125.507 21.328c-.344-3.281 4.315-6.458 10.406-7.095 6.091-.637 11.308 1.506 11.652 4.787.344 3.28-4.315 6.457-10.406 7.094-6.091.637-11.308-1.506-11.652-4.787z" fill="#fff" stroke="#000" stroke-width="1.5" stroke-linecap="round" stroke-linejoin="round"/><path d="M133.22 19.728c1.649.67 4.186.416 5.672-.598.869-.597 1.177-1.32.942-1.954l-.961-9.177-7.936.833.96 9.176c-.108.67.345 1.322 1.323 1.72z" fill="#fff" stroke="#000" stroke-width="1.5" stroke-linecap="round" stroke-linejoin="round"/><path d="M130.888 8.866c-.125-1.193 1.573-2.348 3.792-2.58 2.22-.233 4.12.546 4.245 1.74.125 1.192-1.572 2.348-3.792 2.58-2.219.232-4.12-.547-4.245-1.74z" fill="#fff" stroke="#000" stroke-width="1.5" stroke-linecap="round" stroke-linejoin="round"/><path d="M123.588 8.547c-.344-3.28 4.315-6.457 10.406-7.094 6.091-.638 11.308 1.505 11.652 4.786.344 3.281-4.315 6.457-10.406 7.095-6.091.637-11.308-1.506-11.652-4.787z" fill="#E40133" stroke="#000" stroke-width="1.5" stroke-linecap="round" stroke-linejoin="round"/><path d="M164.384 79.114c4.258 2.316 11.18 2.316 15.456 0 2.519-1.394 3.552-3.276 3.062-5.086V48.65h-21.598v25.377c-.471 1.81.543 3.692 3.062 5.086h.018z" fill="#fff" stroke="#000" stroke-width="1.5" stroke-linecap="round" stroke-linejoin="round"/><path d="M161.376 67.783c-.471 1.81.544 3.693 3.044 5.086 4.24 2.317 11.126 2.317 15.384 0 2.501-1.393 3.533-3.276 3.044-5.086" fill="#fff"/><path d="M161.376 67.783c-.471 1.81.544 3.693 3.044 5.086 4.24 2.317 11.126 2.317 15.384 0 2.501-1.393 3.533-3.276 3.044-5.086" stroke="#000" stroke-width="1.5" stroke-linecap="round" stroke-linejoin="round"/><path d="M161.376 61.249c-.471 1.81.544 3.692 3.044 5.086 4.24 2.317 11.126 2.317 15.384 0 2.501-1.394 3.533-3.276 3.044-5.086" fill="#fff"/><path d="M161.376 61.249c-.471 1.81.544 3.692 3.044 5.086 4.24 2.317 11.126 2.317 15.384 0 2.501-1.394 3.533-3.276 3.044-5.086" stroke="#000" stroke-width="1.5" stroke-linecap="round" stroke-linejoin="round"/><path d="M161.322 55.023c-.471 1.81.544 3.692 3.044 5.086 4.24 2.316 11.126 2.316 15.384 0 2.5-1.394 3.533-3.276 3.044-5.087" fill="#fff"/><path d="M161.322 55.023c-.471 1.81.544 3.692 3.044 5.086 4.24 2.316 11.126 2.316 15.384 0 2.5-1.394 3.533-3.276 3.044-5.087" stroke="#000" stroke-width="1.5" stroke-linecap="round" stroke-linejoin="round"/><path d="M171.958 52.976c-6.124 0-11.089-2.674-11.089-5.973 0-3.298 4.965-5.973 11.089-5.973 6.125 0 11.089 2.675 11.089 5.973 0 3.3-4.964 5.973-11.089 5.973z" fill="#fff" stroke="#000" stroke-width="1.5" stroke-linecap="round" stroke-linejoin="round"/><path d="M171.958 45.23c-6.124 0-11.089-2.674-11.089-5.973s4.965-5.973 11.089-5.973c6.125 0 11.089 2.674 11.089 5.973s-4.964 5.973-11.089 5.973z" fill="#fff" stroke="#000" stroke-width="1.5" stroke-linecap="round" stroke-linejoin="round"/><path d="M168.716 38.46c1.576.85 4.131.85 5.707 0 .924-.507 1.305-1.195 1.142-1.846v-9.231h-7.973v9.23c-.181.652.2 1.34 1.142 1.847h-.018z" fill="#fff" stroke="#000" stroke-width="1.5" stroke-linecap="round" stroke-linejoin="round"/><path d="M171.561 29.61c-2.232 0-4.041-.973-4.041-2.172 0-1.2 1.809-2.172 4.041-2.172 2.231 0 4.041.972 4.041 2.172 0 1.2-1.81 2.172-4.041 2.172z" fill="#fff" stroke="#000" stroke-width="1.5" stroke-linecap="round" stroke-linejoin="round"/><path d="M171.379 32.307c-6.124 0-11.089-2.674-11.089-5.973s4.965-5.973 11.089-5.973c6.124 0 11.089 2.674 11.089 5.973 0 3.3-4.965 5.973-11.089 5.973z" fill="#E40133" stroke="#000" stroke-width="1.5" stroke-linecap="round" stroke-linejoin="round"/><path d="M197.039 98.625c3.878 2.914 10.727 3.928 15.293 2.263 2.7-1.014 3.987-2.734 3.787-4.58l3.733-25.104-21.363-3.168-3.733 25.105c-.743 1.72 0 3.728 2.283 5.484z" fill="#fff" stroke="#000" stroke-width="1.5" stroke-linecap="round" stroke-linejoin="round"/><path d="M195.718 86.969c-.725 1.72 0 3.728 2.265 5.484 3.842 2.914 10.655 3.928 15.203 2.263 2.681-1.014 3.968-2.733 3.769-4.58" fill="#fff"/><path d="M195.718 86.969c-.725 1.72 0 3.728 2.265 5.484 3.842 2.914 10.655 3.928 15.203 2.263 2.681-1.014 3.968-2.733 3.769-4.58" stroke="#000" stroke-width="1.5" stroke-linecap="round" stroke-linejoin="round"/><path d="M196.676 80.507c-.724 1.72 0 3.728 2.265 5.484 3.842 2.914 10.655 3.928 15.203 2.263 2.681-1.014 3.968-2.734 3.769-4.58" fill="#fff"/><path d="M196.676 80.507c-.724 1.72 0 3.728 2.265 5.484 3.842 2.914 10.655 3.928 15.203 2.263 2.681-1.014 3.968-2.734 3.769-4.58" stroke="#000" stroke-width="1.5" stroke-linecap="round" stroke-linejoin="round"/><path d="M197.528 74.335c-.725 1.72 0 3.729 2.265 5.484 3.841 2.914 10.654 3.928 15.202 2.263 2.682-1.014 3.968-2.733 3.769-4.58" fill="#fff"/><path d="M197.528 74.335c-.725 1.72 0 3.729 2.265 5.484 3.841 2.914 10.654 3.928 15.202 2.263 2.682-1.014 3.968-2.733 3.769-4.58" stroke="#000" stroke-width="1.5" stroke-linecap="round" stroke-linejoin="round"/><path d="M208.352 73.847c-6.058-.898-10.576-4.271-10.092-7.534.485-3.263 5.789-5.18 11.847-4.283 6.058.898 10.576 4.272 10.092 7.535-.485 3.263-5.789 5.18-11.847 4.282z" fill="#fff" stroke="#000" stroke-width="1.5" stroke-linecap="round" stroke-linejoin="round"/><path d="M209.501 66.188c-6.058-.898-10.577-4.271-10.092-7.534.485-3.263 5.789-5.18 11.847-4.283 6.058.898 10.576 4.271 10.091 7.534-.484 3.263-5.788 5.18-11.846 4.283z" fill="#fff" stroke="#000" stroke-width="1.5" stroke-linecap="round" stroke-linejoin="round"/><path d="M207.274 59.022c1.431 1.068 3.95 1.43 5.653.833.997-.362 1.468-.996 1.395-1.665l1.359-9.123-7.882-1.176-1.359 9.122c-.272.634 0 1.358.852 1.991l-.018.018z" fill="#fff" stroke="#000" stroke-width="1.5" stroke-linecap="round" stroke-linejoin="round"/><path d="M211.387 50.678c-2.208-.327-3.854-1.554-3.678-2.74.176-1.187 2.109-1.884 4.316-1.557 2.207.327 3.854 1.554 3.678 2.741-.176 1.187-2.109 1.883-4.316 1.556z" fill="#fff" stroke="#000" stroke-width="1.5" stroke-linecap="round" stroke-linejoin="round"/><path d="M210.814 53.326c-6.058-.898-10.577-4.272-10.092-7.535.485-3.263 5.789-5.18 11.847-4.282 6.058.898 10.576 4.271 10.091 7.534-.484 3.263-5.788 5.18-11.846 4.283z" fill="#E40133" stroke="#000" stroke-width="1.5" stroke-linecap="round" stroke-linejoin="round"/><path d="M252.592 85.684l-65.322 37.72m-71.48-87.386L68.715 63.439M181.98 191.297v-59.604L89.86 78.516m163.295-7.928l-12.086-6.787" stroke="#fff" stroke-width="1.5" stroke-linecap="round" stroke-linejoin="round"/></svg>