<svg width="352" height="332" viewBox="0 0 352 332" fill="none" xmlns="http://www.w3.org/2000/svg">
<path d="M106.544 309.789L1.18262 248.978L106.527 188.151L211.889 248.978L106.544 309.789Z" fill="#8ED760" stroke="black" stroke-width="1.5" stroke-linecap="round" stroke-linejoin="round"/>
<path d="M106.361 330.356L1 269.545V248.813L106.361 309.624V330.356Z" fill="#956054" stroke="black" stroke-width="1.5" stroke-linecap="round" stroke-linejoin="round"/>
<path d="M211.805 269.694L106.46 330.521V309.789L211.805 248.962V269.694Z" fill="#A9776B" stroke="black" stroke-width="1.5" stroke-linecap="round" stroke-linejoin="round"/>
<path d="M52.9297 245.91V252.788" stroke="#5FAE2C" stroke-width="1.5" stroke-linecap="round" stroke-linejoin="round"/>
<path d="M169.112 245.448V252.326" stroke="#5FAE2C" stroke-width="1.5" stroke-linecap="round" stroke-linejoin="round"/>
<path d="M134.271 215.2V222.078" stroke="#5FAE2C" stroke-width="1.5" stroke-linecap="round" stroke-linejoin="round"/>
<path d="M59.792 249.341V256.218" stroke="#5FAE2C" stroke-width="1.5" stroke-linecap="round" stroke-linejoin="round"/>
<path d="M81.5664 219.555V226.432" stroke="#5FAE2C" stroke-width="1.5" stroke-linecap="round" stroke-linejoin="round"/>
<path d="M75.6113 217.031V223.909" stroke="#5FAE2C" stroke-width="1.5" stroke-linecap="round" stroke-linejoin="round"/>
<path d="M162.694 241.556V248.433" stroke="#5FAE2C" stroke-width="1.5" stroke-linecap="round" stroke-linejoin="round"/>
<path d="M156.739 246.142V253.019" stroke="#5FAE2C" stroke-width="1.5" stroke-linecap="round" stroke-linejoin="round"/>
<path d="M107.697 275.466V282.343" stroke="#5FAE2C" stroke-width="1.5" stroke-linecap="round" stroke-linejoin="round"/>
<path d="M101.51 270.65V277.528" stroke="#5FAE2C" stroke-width="1.5" stroke-linecap="round" stroke-linejoin="round"/>
<path d="M95.3262 275.697V282.575" stroke="#5FAE2C" stroke-width="1.5" stroke-linecap="round" stroke-linejoin="round"/>
<path d="M127.854 219.323V226.201" stroke="#5FAE2C" stroke-width="1.5" stroke-linecap="round" stroke-linejoin="round"/>
<path d="M141.151 220.016V226.893" stroke="#5FAE2C" stroke-width="1.5" stroke-linecap="round" stroke-linejoin="round"/>
<path d="M46.2812 249.803V256.68" stroke="#5FAE2C" stroke-width="1.5" stroke-linecap="round" stroke-linejoin="round"/>
<path d="M69.8867 219.785V226.663" stroke="#5FAE2C" stroke-width="1.5" stroke-linecap="round" stroke-linejoin="round"/>
<path d="M245.639 226.152L140.278 165.342L245.639 104.531L351.001 165.342L245.639 226.152Z" fill="#8ED760" stroke="black" stroke-width="1.5" stroke-linecap="round" stroke-linejoin="round"/>
<path d="M245.474 246.736L140.113 185.909V165.177L245.474 226.004V246.736Z" fill="#956054" stroke="black" stroke-width="1.5" stroke-linecap="round" stroke-linejoin="round"/>
<path d="M350.918 186.074L245.557 246.884V226.152L350.918 165.342V186.074Z" fill="#A9776B" stroke="black" stroke-width="1.5" stroke-linecap="round" stroke-linejoin="round"/>
<path d="M190.887 161.598V168.459" stroke="#5FAE2C" stroke-width="1.5" stroke-linecap="round" stroke-linejoin="round"/>
<path d="M307.068 161.137V167.998" stroke="#5FAE2C" stroke-width="1.5" stroke-linecap="round" stroke-linejoin="round"/>
<path d="M272.246 130.888V137.765" stroke="#5FAE2C" stroke-width="1.5" stroke-linecap="round" stroke-linejoin="round"/>
<path d="M197.764 165.029V171.907" stroke="#5FAE2C" stroke-width="1.5" stroke-linecap="round" stroke-linejoin="round"/>
<path d="M219.523 135.242V142.12" stroke="#5FAE2C" stroke-width="1.5" stroke-linecap="round" stroke-linejoin="round"/>
<path d="M213.568 132.719V139.596" stroke="#5FAE2C" stroke-width="1.5" stroke-linecap="round" stroke-linejoin="round"/>
<path d="M300.651 157.244V164.105" stroke="#5FAE2C" stroke-width="1.5" stroke-linecap="round" stroke-linejoin="round"/>
<path d="M294.695 161.812V168.69" stroke="#5FAE2C" stroke-width="1.5" stroke-linecap="round" stroke-linejoin="round"/>
<path d="M245.653 191.154V198.015" stroke="#5FAE2C" stroke-width="1.5" stroke-linecap="round" stroke-linejoin="round"/>
<path d="M239.467 186.338V193.216" stroke="#5FAE2C" stroke-width="1.5" stroke-linecap="round" stroke-linejoin="round"/>
<path d="M233.283 191.385V198.246" stroke="#5FAE2C" stroke-width="1.5" stroke-linecap="round" stroke-linejoin="round"/>
<path d="M265.828 135.011V141.888" stroke="#5FAE2C" stroke-width="1.5" stroke-linecap="round" stroke-linejoin="round"/>
<path d="M279.107 135.703V142.564" stroke="#5FAE2C" stroke-width="1.5" stroke-linecap="round" stroke-linejoin="round"/>
<path d="M184.238 165.49V172.351" stroke="#5FAE2C" stroke-width="1.5" stroke-linecap="round" stroke-linejoin="round"/>
<path d="M207.843 135.473V142.35" stroke="#5FAE2C" stroke-width="1.5" stroke-linecap="round" stroke-linejoin="round"/>
<path d="M282.329 95.1473C280.548 96.1204 277.628 96.1204 275.83 95.1473C274.774 94.5535 274.345 93.7618 274.543 93.0031V82.332H283.616V93.0031C283.814 93.7618 283.385 94.5535 282.329 95.1473Z" fill="white" stroke="black" stroke-width="1.5" stroke-linecap="round" stroke-linejoin="round"/>
<path d="M279.144 84.9046C281.722 84.9046 283.812 83.7822 283.812 82.3976C283.812 81.013 281.722 79.8906 279.144 79.8906C276.566 79.8906 274.476 81.013 274.476 82.3976C274.476 83.7822 276.566 84.9046 279.144 84.9046Z" fill="white" stroke="black" stroke-width="1.5" stroke-linecap="round" stroke-linejoin="round"/>
<path d="M265.616 104.367C263.834 105.34 260.914 105.34 259.116 104.367C258.061 103.773 257.632 102.982 257.83 102.223V91.5518H266.903V102.223C267.1 102.982 266.672 103.773 265.616 104.367Z" fill="white" stroke="black" stroke-width="1.5" stroke-linecap="round" stroke-linejoin="round"/>
<path d="M262.449 94.1243C265.027 94.1243 267.117 93.0019 267.117 91.6173C267.117 90.2328 265.027 89.1104 262.449 89.1104C259.87 89.1104 257.78 90.2328 257.78 91.6173C257.78 93.0019 259.87 94.1243 262.449 94.1243Z" fill="white" stroke="black" stroke-width="1.5" stroke-linecap="round" stroke-linejoin="round"/>
<path d="M204.83 69.6492C203.048 70.6223 200.128 70.6223 198.33 69.6492C197.274 69.0555 196.846 68.2638 197.043 67.5051V56.834H206.116V67.5051C206.314 68.2638 205.885 69.0555 204.83 69.6492Z" fill="white" stroke="black" stroke-width="1.5" stroke-linecap="round" stroke-linejoin="round"/>
<path d="M201.645 59.4065C204.223 59.4065 206.313 58.2841 206.313 56.8995C206.313 55.515 204.223 54.3926 201.645 54.3926C199.067 54.3926 196.977 55.515 196.977 56.8995C196.977 58.2841 199.067 59.4065 201.645 59.4065Z" fill="white" stroke="black" stroke-width="1.5" stroke-linecap="round" stroke-linejoin="round"/>
<path d="M270.912 66.9275C269.131 67.9006 266.211 67.9006 264.413 66.9275C263.357 66.3338 262.928 65.5421 263.126 64.7834V54.1123H272.199V64.7834C272.397 65.5421 271.968 66.3338 270.912 66.9275Z" fill="white" stroke="black" stroke-width="1.5" stroke-linecap="round" stroke-linejoin="round"/>
<path d="M267.745 56.6848C270.323 56.6848 272.414 55.5624 272.414 54.1779C272.414 52.7933 270.323 51.6709 267.745 51.6709C265.167 51.6709 263.077 52.7933 263.077 54.1779C263.077 55.5624 265.167 56.6848 267.745 56.6848Z" fill="white" stroke="black" stroke-width="1.5" stroke-linecap="round" stroke-linejoin="round"/>
<path d="M215.634 45.3875C213.853 46.3606 210.933 46.3606 209.135 45.3875C208.079 44.7937 207.65 44.0021 207.848 43.2434V32.5723H216.921V43.2434C217.119 44.0021 216.69 44.7937 215.634 45.3875Z" fill="white" stroke="black" stroke-width="1.5" stroke-linecap="round" stroke-linejoin="round"/>
<path d="M212.449 35.1448C215.027 35.1448 217.118 34.0224 217.118 32.6378C217.118 31.2533 215.027 30.1309 212.449 30.1309C209.871 30.1309 207.781 31.2533 207.781 32.6378C207.781 34.0224 209.871 35.1448 212.449 35.1448Z" fill="white" stroke="black" stroke-width="1.5" stroke-linecap="round" stroke-linejoin="round"/>
<path d="M239.387 178.553L240.558 111.162L228.631 105.505L211.64 164.287" stroke="black" stroke-width="1.5" stroke-linecap="round" stroke-linejoin="round"/>
<path d="M267.662 162.967L251.1 104.68V32.9016L240.559 0.970703L229.572 32.1759V105.505L240.707 99.9795L251.1 104.68L240.559 111.162V2.4386" stroke="black" stroke-width="1.5" stroke-linecap="round" stroke-linejoin="round"/>
<path d="M211.938 164.287L239.387 156.238L267.612 163.116" stroke="black" stroke-width="1.5" stroke-linecap="round" stroke-linejoin="round"/>
<path d="M257.847 129.717L239.817 139.679L222.248 130.888L239.388 156.238L257.847 129.717Z" stroke="black" stroke-width="1.5" stroke-linecap="round" stroke-linejoin="round"/>
<path d="M253.442 116.539L239.817 124.159L225.613 118.007L239.817 139.679L253.442 116.539Z" stroke="black" stroke-width="1.5" stroke-linecap="round" stroke-linejoin="round"/>
<path d="M205.538 55.6123L262.681 88.2689L240.559 65.4258L230.15 59.2738L205.538 55.6123Z" stroke="black" stroke-width="1.5" stroke-linecap="round" stroke-linejoin="round"/>
<path d="M216.971 49.082L274.114 81.7386L251.992 58.8955L241.583 52.7435L216.971 49.082Z" stroke="black" stroke-width="1.5" stroke-linecap="round" stroke-linejoin="round"/>
<path d="M214.924 34.6663L255.059 56.7837L240.856 38.7566L229.572 32.1758L214.924 34.6663Z" stroke="black" stroke-width="1.5" stroke-linecap="round" stroke-linejoin="round"/>
<path d="M226.192 29.6848L266.344 51.8022L252.124 33.7751L240.858 27.1943L226.192 29.6848Z" stroke="black" stroke-width="1.5" stroke-linecap="round" stroke-linejoin="round"/>
<path d="M217.992 145.979L239.387 178.553L261.212 143.637L239.387 156.238L218.14 144.956" stroke="black" stroke-width="1.5" stroke-linecap="round" stroke-linejoin="round"/>
<path d="M229.128 106.429L240.411 123.136L250.524 106.577" stroke="black" stroke-width="1.5" stroke-linecap="round" stroke-linejoin="round"/>
<path d="M240.856 38.7565L251.1 32.9014" stroke="black" stroke-width="1.5" stroke-linecap="round" stroke-linejoin="round"/>
<path d="M262.681 88.2692L273.965 81.8203" stroke="black" stroke-width="1.5" stroke-linecap="round" stroke-linejoin="round"/>
<path d="M205.538 55.6129L216.969 49.4609" stroke="black" stroke-width="1.5" stroke-linecap="round" stroke-linejoin="round"/>
<path d="M255.06 56.7837L266.343 51.8027" stroke="black" stroke-width="1.5" stroke-linecap="round" stroke-linejoin="round"/>
<path d="M214.924 34.6665L226.191 29.6855" stroke="black" stroke-width="1.5" stroke-linecap="round" stroke-linejoin="round"/>
<path d="M230.149 59.274L239.387 53.2705" stroke="black" stroke-width="1.5" stroke-linecap="round" stroke-linejoin="round"/>
<path d="M240.559 65.4264L250.803 59.126" stroke="black" stroke-width="1.5" stroke-linecap="round" stroke-linejoin="round"/>
<path d="M230.299 87.6915L239.966 91.9303L250.523 85.333" stroke="black" stroke-width="1.5" stroke-linecap="round" stroke-linejoin="round"/>
<g style="mix-blend-mode:multiply" opacity="0.46">
<path d="M215.317 164.319L281.55 203.325L309.956 186.37L244.879 148.799L215.317 164.319Z" fill="#B2B4B3"/>
</g>
<g style="mix-blend-mode:multiply" opacity="0.46">
<path d="M75.0679 249.556L141.3 288.563L169.707 271.608L104.629 234.036L75.0679 249.556Z" fill="#B2B4B3"/>
</g>
<path d="M63.9492 146.853C63.9492 146.853 96.2653 139.976 136.483 115.929C176.915 91.7496 198.707 69.5332 198.707 69.5332" stroke="#6CA3FF" stroke-width="2" stroke-linecap="round" stroke-linejoin="round"/>
<path d="M75.6289 124.158C75.6289 124.158 107.945 117.28 148.163 93.2333C188.595 69.0542 210.387 46.8379 210.387 46.8379" stroke="#6CA3FF" stroke-width="2" stroke-linecap="round" stroke-linejoin="round"/>
<path d="M131.32 144.774C131.32 144.774 163.636 137.897 203.854 113.85C244.286 89.6705 266.077 67.4541 266.077 67.4541" stroke="#6CA3FF" stroke-width="2" stroke-linecap="round" stroke-linejoin="round"/>
<path d="M141.631 176.409C141.631 176.409 157.451 174.001 197.669 149.937C238.101 125.758 259.892 103.542 259.892 103.542" stroke="#6CA3FF" stroke-width="2" stroke-linecap="round" stroke-linejoin="round"/>
<path d="M146.365 181.29C144.584 182.263 141.664 182.263 139.866 181.29C138.81 180.696 138.381 179.904 138.579 179.146V168.475H147.652V179.146C147.85 179.904 147.421 180.696 146.365 181.29Z" fill="white" stroke="black" stroke-width="1.5" stroke-linecap="round" stroke-linejoin="round"/>
<path d="M143.18 171.048C145.758 171.048 147.849 169.926 147.849 168.541C147.849 167.157 145.758 166.034 143.18 166.034C140.602 166.034 138.512 167.157 138.512 168.541C138.512 169.926 140.602 171.048 143.18 171.048Z" fill="white" stroke="black" stroke-width="1.5" stroke-linecap="round" stroke-linejoin="round"/>
<path d="M129.652 190.527C127.87 191.5 124.951 191.5 123.152 190.527C122.097 189.933 121.668 189.142 121.866 188.383V177.712H130.939V188.383C131.137 189.142 130.708 189.933 129.652 190.527Z" fill="white" stroke="black" stroke-width="1.5" stroke-linecap="round" stroke-linejoin="round"/>
<path d="M126.485 180.284C129.063 180.284 131.153 179.162 131.153 177.777C131.153 176.393 129.063 175.271 126.485 175.271C123.907 175.271 121.816 176.393 121.816 177.777C121.816 179.162 123.907 180.284 126.485 180.284Z" fill="white" stroke="black" stroke-width="1.5" stroke-linecap="round" stroke-linejoin="round"/>
<path d="M68.8629 155.809C67.0813 156.782 64.1615 156.782 62.3634 155.809C61.3076 155.216 60.8787 154.424 61.0767 153.665V142.994H70.1496V153.665C70.3475 154.424 69.9186 155.216 68.8629 155.809Z" fill="white" stroke="black" stroke-width="1.5" stroke-linecap="round" stroke-linejoin="round"/>
<path d="M65.6777 145.567C68.256 145.567 70.3461 144.444 70.3461 143.06C70.3461 141.675 68.256 140.553 65.6777 140.553C63.0994 140.553 61.0093 141.675 61.0093 143.06C61.0093 144.444 63.0994 145.567 65.6777 145.567Z" fill="white" stroke="black" stroke-width="1.5" stroke-linecap="round" stroke-linejoin="round"/>
<path d="M134.947 153.072C133.165 154.045 130.245 154.045 128.447 153.072C127.392 152.478 126.963 151.687 127.161 150.928V140.257H136.234V150.928C136.432 151.687 136.003 152.478 134.947 153.072Z" fill="white" stroke="black" stroke-width="1.5" stroke-linecap="round" stroke-linejoin="round"/>
<path d="M131.78 142.829C134.358 142.829 136.448 141.707 136.448 140.322C136.448 138.938 134.358 137.815 131.78 137.815C129.201 137.815 127.111 138.938 127.111 140.322C127.111 141.707 129.201 142.829 131.78 142.829Z" fill="white" stroke="black" stroke-width="1.5" stroke-linecap="round" stroke-linejoin="round"/>
<path d="M79.6705 131.531C77.8889 132.504 74.9691 132.504 73.171 131.531C72.1152 130.937 71.6863 130.146 71.8843 129.387V118.716H80.9572V129.387C81.1552 130.146 80.7263 130.937 79.6705 131.531Z" fill="white" stroke="black" stroke-width="1.5" stroke-linecap="round" stroke-linejoin="round"/>
<path d="M76.4853 121.288C79.0636 121.288 81.1538 120.166 81.1538 118.781C81.1538 117.397 79.0636 116.274 76.4853 116.274C73.907 116.274 71.8169 117.397 71.8169 118.781C71.8169 120.166 73.907 121.288 76.4853 121.288Z" fill="white" stroke="black" stroke-width="1.5" stroke-linecap="round" stroke-linejoin="round"/>
<path d="M103.423 264.697L104.594 197.322L92.6839 191.665L75.6763 250.447" stroke="black" stroke-width="1.5" stroke-linecap="round" stroke-linejoin="round"/>
<path d="M131.698 249.127L115.136 190.824V119.062L104.595 87.1309L93.6084 118.32V191.665L104.743 186.14L115.136 190.824L104.595 197.322V88.5823" stroke="black" stroke-width="1.5" stroke-linecap="round" stroke-linejoin="round"/>
<path d="M75.9736 250.447L103.423 242.382L131.648 249.276" stroke="black" stroke-width="1.5" stroke-linecap="round" stroke-linejoin="round"/>
<path d="M121.883 215.877L103.853 225.839L86.2842 217.048L103.424 242.382L121.883 215.877Z" stroke="black" stroke-width="1.5" stroke-linecap="round" stroke-linejoin="round"/>
<path d="M117.479 202.699L103.853 210.303L89.6494 204.151L103.853 225.839L117.479 202.699Z" stroke="black" stroke-width="1.5" stroke-linecap="round" stroke-linejoin="round"/>
<path d="M69.5713 141.757L126.714 174.43L104.593 151.57L94.1836 145.418L69.5713 141.757Z" stroke="black" stroke-width="1.5" stroke-linecap="round" stroke-linejoin="round"/>
<path d="M81.0044 135.226L138.147 167.882L116.026 145.039L105.617 138.887L81.0044 135.226Z" stroke="black" stroke-width="1.5" stroke-linecap="round" stroke-linejoin="round"/>
<path d="M78.96 120.81L119.095 142.927L104.892 124.917L93.6086 118.319L78.96 120.81Z" stroke="black" stroke-width="1.5" stroke-linecap="round" stroke-linejoin="round"/>
<path d="M90.2437 115.828L130.379 137.946L116.159 119.935L104.892 113.338L90.2437 115.828Z" stroke="black" stroke-width="1.5" stroke-linecap="round" stroke-linejoin="round"/>
<path d="M82.0278 232.139L103.423 264.697L125.248 229.797L103.423 242.381L82.1763 231.1" stroke="black" stroke-width="1.5" stroke-linecap="round" stroke-linejoin="round"/>
<path d="M93.1616 192.589L104.445 209.28L114.557 192.737" stroke="black" stroke-width="1.5" stroke-linecap="round" stroke-linejoin="round"/>
<path d="M104.89 124.917L115.134 119.062" stroke="black" stroke-width="1.5" stroke-linecap="round" stroke-linejoin="round"/>
<path d="M126.715 174.429L137.998 167.98" stroke="black" stroke-width="1.5" stroke-linecap="round" stroke-linejoin="round"/>
<path d="M69.5713 141.756L81.0032 135.604" stroke="black" stroke-width="1.5" stroke-linecap="round" stroke-linejoin="round"/>
<path d="M119.093 142.927L130.377 137.946" stroke="black" stroke-width="1.5" stroke-linecap="round" stroke-linejoin="round"/>
<path d="M78.96 120.81L90.2434 115.829" stroke="black" stroke-width="1.5" stroke-linecap="round" stroke-linejoin="round"/>
<path d="M94.1851 145.418L103.423 139.414" stroke="black" stroke-width="1.5" stroke-linecap="round" stroke-linejoin="round"/>
<path d="M104.595 151.57L114.839 145.27" stroke="black" stroke-width="1.5" stroke-linecap="round" stroke-linejoin="round"/>
<path d="M94.332 173.835L103.999 178.09L114.556 171.493" stroke="black" stroke-width="1.5" stroke-linecap="round" stroke-linejoin="round"/>
</svg>
