<svg width="352" height="292" viewBox="0 0 352 292" fill="none" xmlns="http://www.w3.org/2000/svg">
<path d="M125.483 49.846C125.374 43.4748 120.899 35.5108 115.499 32.0537C112.274 30.0446 109.483 30.0627 107.726 31.7641L54.9612 61.5748L68.8952 86.4442L121.66 56.6335C124.015 56.0362 125.501 53.6651 125.465 49.8641L125.483 49.846Z" fill="#248CFF" stroke="black" stroke-width="1.5" stroke-linecap="round" stroke-linejoin="round"/>
<path d="M55.3295 77.7119C51.4324 70.7606 51.3167 63.4229 55.0712 61.3226C58.8256 59.2223 65.0284 63.1547 68.9256 70.106C72.8227 77.0573 72.9384 84.395 69.1839 86.4953C65.4295 88.5956 59.2267 84.6631 55.3295 77.7119Z" fill="#0069EA" stroke="black" stroke-width="1.5" stroke-linecap="round" stroke-linejoin="round"/>
<path d="M175.854 256.62L350.709 155.767L175.854 54.9316L0.999359 155.767L175.854 256.62Z" fill="#8ED760" stroke="black" stroke-width="1.5" stroke-linecap="round" stroke-linejoin="round"/>
<path d="M176.145 290.739L351 189.886V155.514L176.145 256.367V290.739Z" fill="#956054" stroke="black" stroke-width="1.5" stroke-linecap="round" stroke-linejoin="round"/>
<path d="M1.12663 190.139L175.981 290.993V256.621L1.12663 155.768V190.139Z" fill="#A9776B" stroke="black" stroke-width="1.5" stroke-linecap="round" stroke-linejoin="round"/>
<path d="M283.811 146.103V157.18" stroke="#5FAE2C" stroke-width="1.5" stroke-linecap="round" stroke-linejoin="round"/>
<path d="M39.8843 149.885V160.962" stroke="#5FAE2C" stroke-width="1.5" stroke-linecap="round" stroke-linejoin="round"/>
<path d="M272.703 151.641V162.718" stroke="#5FAE2C" stroke-width="1.5" stroke-linecap="round" stroke-linejoin="round"/>
<path d="M50.2485 143.604V154.682" stroke="#5FAE2C" stroke-width="1.5" stroke-linecap="round" stroke-linejoin="round"/>
<path d="M59.8706 150.989V162.066" stroke="#5FAE2C" stroke-width="1.5" stroke-linecap="round" stroke-linejoin="round"/>
<path d="M171.741 218.9V229.978" stroke="#5FAE2C" stroke-width="1.5" stroke-linecap="round" stroke-linejoin="round"/>
<path d="M181.725 211.136V222.231" stroke="#5FAE2C" stroke-width="1.5" stroke-linecap="round" stroke-linejoin="round"/>
<path d="M191.708 219.28V230.357" stroke="#5FAE2C" stroke-width="1.5" stroke-linecap="round" stroke-linejoin="round"/>
<path d="M294.52 152.383V163.46" stroke="#5FAE2C" stroke-width="1.5" stroke-linecap="round" stroke-linejoin="round"/>
<path d="M191.582 108.272L211.188 96.8508L211.061 42.2793L191.455 53.7004L191.582 108.272Z" fill="white" stroke="black" stroke-width="1.5" stroke-linecap="round" stroke-linejoin="round"/>
<path d="M191.458 53.7005L211.063 42.2794L193.125 31.9443L173.537 43.3654L191.458 53.7005Z" fill="#248CFF" stroke="black" stroke-width="1.5" stroke-linecap="round" stroke-linejoin="round"/>
<path d="M204.539 42.5873L192.471 35.7998" stroke="white" stroke-width="1.5" stroke-linecap="round" stroke-linejoin="round"/>
<path d="M173.536 43.3662L173.645 97.9377L191.583 108.273L191.457 53.7013L173.536 43.3662Z" fill="white" stroke="black" stroke-width="1.5" stroke-linecap="round" stroke-linejoin="round"/>
<path d="M216.008 122.354L235.595 110.933L235.487 56.3613L215.881 67.8005L216.008 122.354Z" fill="#004DA9" stroke="black" stroke-width="1.5" stroke-linecap="round" stroke-linejoin="round"/>
<path d="M215.882 67.8007L235.487 56.3615L217.549 46.0264L197.943 57.4475L215.882 67.8007Z" fill="#248CFF" stroke="black" stroke-width="1.5" stroke-linecap="round" stroke-linejoin="round"/>
<path d="M229 56.8314L216.915 50.0439" stroke="white" stroke-width="1.5" stroke-linecap="round" stroke-linejoin="round"/>
<path d="M197.943 57.4473L198.07 112.019L216.008 122.354L215.881 67.8005L197.943 57.4473Z" fill="white" stroke="black" stroke-width="1.5" stroke-linecap="round" stroke-linejoin="round"/>
<g style="mix-blend-mode:multiply" opacity="0.46">
<path d="M95.5 172L208.5 237.5L309 180L258.788 149L95.5 172Z" fill="#B2B4B3"/>
</g>
<path d="M240.417 136.436L260.022 125.015L259.895 70.4434L240.308 81.8826L240.417 136.436Z" fill="#004DA9" stroke="black" stroke-width="1.5" stroke-linecap="round" stroke-linejoin="round"/>
<path d="M240.308 81.8827L259.895 70.4435L241.975 60.1084L222.369 71.5295L240.308 81.8827Z" fill="#248CFF" stroke="black" stroke-width="1.5" stroke-linecap="round" stroke-linejoin="round"/>
<path d="M222.369 71.5293L222.496 126.101L240.416 136.436L240.307 81.8825L222.369 71.5293Z" fill="white" stroke="black" stroke-width="1.5" stroke-linecap="round" stroke-linejoin="round"/>
<path d="M186.618 201.705L261.416 158.554V85.4121L186.618 128.563V201.705Z" fill="#004DA9" stroke="black" stroke-width="1.5" stroke-linecap="round" stroke-linejoin="round"/>
<path d="M79.1681 139.73L186.618 201.704V128.562L79.1681 66.5879V139.73Z" fill="#0069EA" stroke="black" stroke-width="1.5" stroke-linecap="round" stroke-linejoin="round"/>
<path d="M186.618 128.562L261.416 85.4114L153.966 23.4551L79.1684 66.5874L186.618 128.562Z" fill="#248CFF" stroke="black" stroke-width="1.5" stroke-linecap="round" stroke-linejoin="round"/>
<g style="mix-blend-mode:multiply" opacity="0.46">
<path d="M212.328 100.887L177.828 121.883L160.832 112.833L194.734 93.1406L212.328 100.887Z" fill="#B2B4B3"/>
</g>
<g style="mix-blend-mode:multiply" opacity="0.46">
<path d="M181.238 79.7831L142.97 102.155L126.607 92.5979L161.343 72.2354L181.238 79.7831Z" fill="#B2B4B3"/>
</g>
<g style="mix-blend-mode:multiply" opacity="0.46">
<path d="M145.739 61.9182L109.989 82.5341L93.3734 73.4841L128.163 54.1533L145.739 61.9182Z" fill="#B2B4B3"/>
</g>
<path d="M243.913 109.448L208.67 129.304" stroke="black" stroke-width="1.5" stroke-linecap="round" stroke-linejoin="round"/>
<path d="M243.913 118.499L208.67 138.355" stroke="black" stroke-width="1.5" stroke-linecap="round" stroke-linejoin="round"/>
<path d="M243.913 128.056L208.67 147.911" stroke="black" stroke-width="1.5" stroke-linecap="round" stroke-linejoin="round"/>
<path d="M243.913 137.359L208.67 157.215" stroke="black" stroke-width="1.5" stroke-linecap="round" stroke-linejoin="round"/>
<path d="M96.436 172.202L116.042 160.762L115.915 106.209L96.3092 117.63L96.436 172.202Z" fill="#004DA9" stroke="black" stroke-width="1.5" stroke-linecap="round" stroke-linejoin="round"/>
<path d="M96.3095 117.63L115.915 106.209L97.9766 95.8555L78.3892 107.295L96.3095 117.63Z" fill="#248CFF" stroke="black" stroke-width="1.5" stroke-linecap="round" stroke-linejoin="round"/>
<path d="M78.3903 107.295L78.499 161.866L96.4375 172.202L96.3106 117.63L78.3903 107.295Z" fill="#0069EA" stroke="black" stroke-width="1.5" stroke-linecap="round" stroke-linejoin="round"/>
<path d="M120.862 186.283L140.449 174.862L140.341 120.29L120.735 131.711L120.862 186.283Z" fill="#004DA9" stroke="black" stroke-width="1.5" stroke-linecap="round" stroke-linejoin="round"/>
<path d="M120.736 131.712L140.341 120.291L122.403 109.938L102.797 121.377L120.736 131.712Z" fill="#248CFF" stroke="black" stroke-width="1.5" stroke-linecap="round" stroke-linejoin="round"/>
<path d="M102.797 121.377L102.923 175.948L120.862 186.284L120.735 131.712L102.797 121.377Z" fill="#0069EA" stroke="black" stroke-width="1.5" stroke-linecap="round" stroke-linejoin="round"/>
<path d="M145.27 200.365L164.876 188.944L164.749 134.372L145.162 145.793L145.27 200.365Z" fill="#004DA9" stroke="black" stroke-width="1.5" stroke-linecap="round" stroke-linejoin="round"/>
<path d="M145.162 145.793L164.749 134.372L146.829 124.037L127.223 135.458L145.162 145.793Z" fill="#248CFF" stroke="black" stroke-width="1.5" stroke-linecap="round" stroke-linejoin="round"/>
<path d="M127.223 135.459L127.35 190.031L145.27 200.366L145.161 145.794L127.223 135.459Z" fill="#0069EA" stroke="black" stroke-width="1.5" stroke-linecap="round" stroke-linejoin="round"/>
<path d="M209.195 202.085L263.174 170.826L263.047 146.717L209.069 177.976L209.195 202.085Z" fill="#004DA9" stroke="black" stroke-width="1.5" stroke-linecap="round" stroke-linejoin="round"/>
<path d="M209.069 177.976L263.047 146.717L252.031 140.364L198.052 171.623L209.069 177.976Z" fill="#248CFF" stroke="black" stroke-width="1.5" stroke-linecap="round" stroke-linejoin="round"/>
<path d="M198.051 171.622L198.178 195.731L209.195 202.084L209.068 177.975L198.051 171.622Z" fill="#0069EA" stroke="black" stroke-width="1.5" stroke-linecap="round" stroke-linejoin="round"/>
<path d="M133.165 60.6155C137.641 62.4798 144.526 61.7558 148.549 59.0046C150.904 57.3575 151.738 55.3665 151.068 53.6289L148.422 28.3975L126.932 30.6419L129.578 55.8733C129.288 57.7195 130.502 59.4933 133.165 60.6155Z" fill="white" stroke="black" stroke-width="1.5" stroke-linecap="round" stroke-linejoin="round"/>
<path d="M128.998 49.6658C128.708 51.512 129.922 53.2858 132.567 54.408C137.025 56.2723 143.874 55.5483 147.86 52.8152C150.216 51.1681 151.031 49.1771 150.361 47.4395" fill="white"/>
<path d="M128.998 49.6658C128.708 51.512 129.922 53.2858 132.567 54.408C137.025 56.2723 143.874 55.5483 147.86 52.8152C150.216 51.1681 151.031 49.1771 150.361 47.4395" stroke="black" stroke-width="1.5" stroke-linecap="round" stroke-linejoin="round"/>
<path d="M128.308 43.1492C128.018 44.9954 129.232 46.7691 131.878 47.8913C136.335 49.7556 143.184 49.0317 147.171 46.2986C149.526 44.6515 150.342 42.6605 149.671 40.9229" fill="white"/>
<path d="M128.308 43.1492C128.018 44.9954 129.232 46.7691 131.878 47.8913C136.335 49.7556 143.184 49.0317 147.171 46.2986C149.526 44.6515 150.342 42.6605 149.671 40.9229" stroke="black" stroke-width="1.5" stroke-linecap="round" stroke-linejoin="round"/>
<path d="M127.602 36.9773C127.312 38.8235 128.526 40.5973 131.171 41.7195C135.629 43.5838 142.478 42.8598 146.464 40.1267C148.82 38.4796 149.635 36.4886 148.965 34.751" fill="white"/>
<path d="M127.602 36.9773C127.312 38.8235 128.526 40.5973 131.171 41.7195C135.629 43.5838 142.478 42.8598 146.464 40.1267C148.82 38.4796 149.635 36.4886 148.965 34.751" stroke="black" stroke-width="1.5" stroke-linecap="round" stroke-linejoin="round"/>
<path d="M126.323 29.0385C125.979 25.7576 130.638 22.5813 136.729 21.9439C142.82 21.3066 148.037 23.4495 148.381 26.7304C148.725 30.0112 144.066 33.1876 137.975 33.8249C131.884 34.4623 126.667 32.3193 126.323 29.0385Z" fill="white" stroke="black" stroke-width="1.5" stroke-linecap="round" stroke-linejoin="round"/>
<path d="M125.507 21.3275C125.163 18.0467 129.822 14.8704 135.913 14.233C142.004 13.5956 147.221 15.7386 147.565 19.0195C147.909 22.3003 143.25 25.4766 137.159 26.114C131.068 26.7514 125.851 24.6084 125.507 21.3275Z" fill="white" stroke="black" stroke-width="1.5" stroke-linecap="round" stroke-linejoin="round"/>
<path d="M133.22 19.7278C134.869 20.3975 137.406 20.1441 138.892 19.1305C139.761 18.5332 140.069 17.8092 139.834 17.1757L138.873 7.99902L130.937 8.83162L131.897 18.0083C131.789 18.678 132.242 19.3296 133.22 19.7278Z" fill="white" stroke="black" stroke-width="1.5" stroke-linecap="round" stroke-linejoin="round"/>
<path d="M130.888 8.86639C130.763 7.67335 132.461 6.51794 134.68 6.2857C136.9 6.05346 138.8 6.83234 138.925 8.02537C139.05 9.21841 137.353 10.3738 135.133 10.6061C132.914 10.8383 131.013 10.0594 130.888 8.86639Z" fill="white" stroke="black" stroke-width="1.5" stroke-linecap="round" stroke-linejoin="round"/>
<path d="M123.588 8.54727C123.244 5.26643 127.903 2.09009 133.994 1.45273C140.085 0.815376 145.302 2.95835 145.646 6.2392C145.99 9.52004 141.331 12.6964 135.24 13.3337C129.149 13.9711 123.932 11.8281 123.588 8.54727Z" fill="#E40133" stroke="black" stroke-width="1.5" stroke-linecap="round" stroke-linejoin="round"/>
<path d="M164.384 79.1137C168.642 81.4305 175.564 81.4305 179.84 79.1137C182.359 77.72 183.392 75.8376 182.902 74.0276V48.6514H161.304V74.0276C160.833 75.8376 161.847 77.72 164.366 79.1137H164.384Z" fill="white" stroke="black" stroke-width="1.5" stroke-linecap="round" stroke-linejoin="round"/>
<path d="M161.376 67.7832C160.905 69.5932 161.92 71.4756 164.42 72.8693C168.66 75.1861 175.546 75.1861 179.804 72.8693C182.305 71.4756 183.337 69.5932 182.848 67.7832" fill="white"/>
<path d="M161.376 67.7832C160.905 69.5932 161.92 71.4756 164.42 72.8693C168.66 75.1861 175.546 75.1861 179.804 72.8693C182.305 71.4756 183.337 69.5932 182.848 67.7832" stroke="black" stroke-width="1.5" stroke-linecap="round" stroke-linejoin="round"/>
<path d="M161.376 61.249C160.905 63.059 161.92 64.9414 164.42 66.3351C168.66 68.6519 175.546 68.6519 179.804 66.3351C182.305 64.9414 183.337 63.059 182.848 61.249" fill="white"/>
<path d="M161.376 61.249C160.905 63.059 161.92 64.9414 164.42 66.3351C168.66 68.6519 175.546 68.6519 179.804 66.3351C182.305 64.9414 183.337 63.059 182.848 61.249" stroke="black" stroke-width="1.5" stroke-linecap="round" stroke-linejoin="round"/>
<path d="M161.322 55.0225C160.851 56.8325 161.866 58.7149 164.366 60.1086C168.606 62.4254 175.492 62.4254 179.75 60.1086C182.25 58.7149 183.283 56.8325 182.794 55.0225" fill="white"/>
<path d="M161.322 55.0225C160.851 56.8325 161.866 58.7149 164.366 60.1086C168.606 62.4254 175.492 62.4254 179.75 60.1086C182.25 58.7149 183.283 56.8325 182.794 55.0225" stroke="black" stroke-width="1.5" stroke-linecap="round" stroke-linejoin="round"/>
<path d="M171.958 52.9763C165.834 52.9763 160.869 50.3021 160.869 47.0033C160.869 43.7045 165.834 41.0303 171.958 41.0303C178.083 41.0303 183.047 43.7045 183.047 47.0033C183.047 50.3021 178.083 52.9763 171.958 52.9763Z" fill="white" stroke="black" stroke-width="1.5" stroke-linecap="round" stroke-linejoin="round"/>
<path d="M171.958 45.2302C165.834 45.2302 160.869 42.556 160.869 39.2572C160.869 35.9584 165.834 33.2842 171.958 33.2842C178.083 33.2842 183.047 35.9584 183.047 39.2572C183.047 42.556 178.083 45.2302 171.958 45.2302Z" fill="white" stroke="black" stroke-width="1.5" stroke-linecap="round" stroke-linejoin="round"/>
<path d="M168.716 38.46C170.292 39.3107 172.847 39.3107 174.423 38.46C175.347 37.9532 175.728 37.2654 175.565 36.6138V27.3828H167.592V36.6138C167.411 37.2654 167.792 37.9532 168.734 38.46H168.716Z" fill="white" stroke="black" stroke-width="1.5" stroke-linecap="round" stroke-linejoin="round"/>
<path d="M171.561 29.6096C169.329 29.6096 167.52 28.6372 167.52 27.4376C167.52 26.2381 169.329 25.2656 171.561 25.2656C173.792 25.2656 175.602 26.2381 175.602 27.4376C175.602 28.6372 173.792 29.6096 171.561 29.6096Z" fill="white" stroke="black" stroke-width="1.5" stroke-linecap="round" stroke-linejoin="round"/>
<path d="M171.379 32.3073C165.255 32.3073 160.29 29.6331 160.29 26.3343C160.29 23.0355 165.255 20.3613 171.379 20.3613C177.503 20.3613 182.468 23.0355 182.468 26.3343C182.468 29.6331 177.503 32.3073 171.379 32.3073Z" fill="#E40133" stroke="black" stroke-width="1.5" stroke-linecap="round" stroke-linejoin="round"/>
<path d="M197.039 98.6251C200.917 101.539 207.766 102.553 212.332 100.888C215.032 99.874 216.319 98.1545 216.119 96.3083L219.852 71.2036L198.489 68.0361L194.756 93.1408C194.013 94.8603 194.756 96.8694 197.039 98.6251Z" fill="white" stroke="black" stroke-width="1.5" stroke-linecap="round" stroke-linejoin="round"/>
<path d="M195.718 86.9688C194.993 88.6883 195.718 90.6973 197.983 92.453C201.825 95.3672 208.638 96.3808 213.186 94.7156C215.867 93.702 217.154 91.9825 216.955 90.1363" fill="white"/>
<path d="M195.718 86.9688C194.993 88.6883 195.718 90.6973 197.983 92.453C201.825 95.3672 208.638 96.3808 213.186 94.7156C215.867 93.702 217.154 91.9825 216.955 90.1363" stroke="black" stroke-width="1.5" stroke-linecap="round" stroke-linejoin="round"/>
<path d="M196.676 80.5068C195.952 82.2263 196.676 84.2354 198.941 85.9911C202.783 88.9052 209.596 89.9188 214.144 88.2536C216.825 87.24 218.112 85.5205 217.913 83.6743" fill="white"/>
<path d="M196.676 80.5068C195.952 82.2263 196.676 84.2354 198.941 85.9911C202.783 88.9052 209.596 89.9188 214.144 88.2536C216.825 87.24 218.112 85.5205 217.913 83.6743" stroke="black" stroke-width="1.5" stroke-linecap="round" stroke-linejoin="round"/>
<path d="M197.528 74.335C196.803 76.0545 197.528 78.0636 199.793 79.8193C203.634 82.7334 210.447 83.747 214.995 82.0818C217.677 81.0682 218.963 79.3487 218.764 77.5025" fill="white"/>
<path d="M197.528 74.335C196.803 76.0545 197.528 78.0636 199.793 79.8193C203.634 82.7334 210.447 83.747 214.995 82.0818C217.677 81.0682 218.963 79.3487 218.764 77.5025" stroke="black" stroke-width="1.5" stroke-linecap="round" stroke-linejoin="round"/>
<path d="M208.352 73.8471C202.294 72.9491 197.776 69.576 198.26 66.3129C198.745 63.0498 204.049 61.1325 210.107 62.0304C216.165 62.9283 220.683 66.3015 220.199 69.5646C219.714 72.8276 214.41 74.745 208.352 73.8471Z" fill="white" stroke="black" stroke-width="1.5" stroke-linecap="round" stroke-linejoin="round"/>
<path d="M209.501 66.1879C203.443 65.2899 198.924 61.9168 199.409 58.6537C199.894 55.3906 205.198 53.4733 211.256 54.3712C217.314 55.2692 221.832 58.6423 221.347 61.9054C220.863 65.1684 215.559 67.0858 209.501 66.1879Z" fill="white" stroke="black" stroke-width="1.5" stroke-linecap="round" stroke-linejoin="round"/>
<path d="M207.274 59.0221C208.705 60.09 211.224 60.452 212.927 59.8547C213.924 59.4927 214.395 58.8592 214.322 58.1895L215.681 49.0671L207.799 47.8906L206.44 57.013C206.168 57.6465 206.44 58.3705 207.292 59.004L207.274 59.0221Z" fill="white" stroke="black" stroke-width="1.5" stroke-linecap="round" stroke-linejoin="round"/>
<path d="M211.387 50.6782C209.179 50.351 207.533 49.1238 207.709 47.9373C207.885 46.7507 209.818 46.054 212.025 46.3812C214.232 46.7084 215.879 47.9355 215.703 49.1221C215.527 50.3087 213.594 51.0054 211.387 50.6782Z" fill="white" stroke="black" stroke-width="1.5" stroke-linecap="round" stroke-linejoin="round"/>
<path d="M210.814 53.3256C204.756 52.4276 200.237 49.0545 200.722 45.7914C201.207 42.5283 206.511 40.611 212.569 41.5089C218.627 42.4069 223.145 45.78 222.66 49.0431C222.176 52.3061 216.872 54.2235 210.814 53.3256Z" fill="#E40133" stroke="black" stroke-width="1.5" stroke-linecap="round" stroke-linejoin="round"/>
<path d="M252.592 85.6836L187.27 123.404" stroke="white" stroke-width="1.5" stroke-linecap="round" stroke-linejoin="round"/>
<path d="M115.79 36.0176L68.7151 63.4391" stroke="white" stroke-width="1.5" stroke-linecap="round" stroke-linejoin="round"/>
<path d="M181.98 191.297V131.693L89.8596 78.5156" stroke="white" stroke-width="1.5" stroke-linecap="round" stroke-linejoin="round"/>
<path d="M253.155 70.5883L241.069 63.8008" stroke="white" stroke-width="1.5" stroke-linecap="round" stroke-linejoin="round"/>
</svg>
