<svg width="545" height="423" viewBox="0 0 545 423" fill="none" xmlns="http://www.w3.org/2000/svg">
<path d="M360.334 385.767L1.30957 178.849L184.858 72.8076L543.903 279.726L360.334 385.767Z" fill="#4DA4FF" stroke="#26144D" stroke-width="1.5" stroke-linecap="round" stroke-linejoin="round"/>
<g style="mix-blend-mode:multiply" opacity="0.46">
<path d="M509.451 300.448L376.451 375.948L153.451 250.948L334.951 199.948L509.451 300.448Z" fill="#B2B4B3"/>
</g>
<path d="M360.045 421.63L1 214.733V178.58L360.045 385.477V421.63Z" fill="#999999" stroke="#26144D" stroke-width="1.5" stroke-linecap="round" stroke-linejoin="round"/>
<path d="M543.758 315.858L360.21 421.899V385.746L543.758 279.705V315.858Z" fill="#D9D9D9" stroke="#26144D" stroke-width="1.5" stroke-linecap="round" stroke-linejoin="round"/>
<path d="M200.301 68.0146L178.787 107.204L51.4385 41.3236L51.6243 40.993C48.5686 39.4436 46.6484 35.8283 46.6484 30.581C46.6484 20.4995 53.7302 8.2076 62.4844 3.16687C67.0886 0.501889 71.2386 0.377936 74.1291 2.34052L74.2323 2.15459L200.301 68.0146Z" fill="#D7D7D7" stroke="#26144D" stroke-width="1.5" stroke-linecap="round" stroke-linejoin="round"/>
<path d="M214.484 105.151C228.88 80.2014 228.878 53.2333 214.48 44.9158C200.082 36.5982 176.74 50.081 162.344 75.0303C147.948 99.9796 147.95 126.948 162.348 135.265C176.746 143.583 200.088 130.1 214.484 105.151Z" fill="#F11131" stroke="#26144D" stroke-width="1.5" stroke-linecap="round" stroke-linejoin="round"/>
<path d="M158.533 165.916C158.533 192.565 168.319 210.931 183.969 218.699L318.152 297.904L431.729 103.32L294.057 21.5317L293.995 21.635C279.625 13.7433 259.99 15.1068 238.332 27.626C194.251 53.0982 158.533 115.012 158.533 165.916Z" fill="#E30133" stroke="#26144D" stroke-width="1.5" stroke-linecap="round" stroke-linejoin="round"/>
<path d="M429.826 232.471C460.985 178.472 460.986 120.106 429.83 102.108C398.674 84.1095 348.159 113.294 317 167.293C285.842 221.292 285.84 279.658 316.996 297.657C348.152 315.655 398.668 286.471 429.826 232.471Z" fill="#BE0037" stroke="#26144D" stroke-width="1.5" stroke-linecap="round" stroke-linejoin="round"/>
<path d="M439.059 151.599L428.322 177.361L379.472 294.496L365.144 316.27L342.763 303.069L343.114 214.236C343.382 187.174 362.666 154.429 386.224 141.105C392.975 137.303 399.334 135.485 404.971 135.485C410.608 135.485 415.088 137.138 418.866 140.258L439.059 151.599Z" fill="#E30133" stroke="#26144D" stroke-width="1.5" stroke-linecap="round" stroke-linejoin="round"/>
<path d="M379.472 294.496L428.322 177.361" stroke="#26144D" stroke-width="1.5" stroke-linecap="round" stroke-linejoin="round"/>
<path d="M449.877 267.35L365.144 316.27L365.495 227.438C365.742 200.375 385.047 167.631 408.605 154.306C432.163 140.981 451.054 152.137 450.806 179.2L449.877 267.35Z" fill="#BE0037" stroke="#26144D" stroke-width="1.5" stroke-linecap="round" stroke-linejoin="round"/>
<path d="M449.176 183.682L441.474 197.689L417.111 242.105L408.522 257.723L393.017 248.943C386.224 246.547 381.888 239.358 381.888 228.491C381.888 209.423 395.267 186.244 411.764 176.72C420.952 171.411 429.169 171.452 434.64 175.811H434.661L449.176 183.682Z" fill="#E30133" stroke="#26144D" stroke-width="1.5" stroke-linecap="round" stroke-linejoin="round"/>
<path d="M449.639 232.804C461.304 212.587 461.306 190.737 449.644 184C437.981 177.262 419.07 188.189 407.405 208.406C395.74 228.622 395.738 250.472 407.401 257.21C419.063 263.947 437.974 253.02 449.639 232.804Z" fill="#BE0037" stroke="#26144D" stroke-width="1.5" stroke-linecap="round" stroke-linejoin="round"/>
<path d="M316.149 46.9219V104.58C323.665 97.5564 331.614 91.5241 339.872 86.7519C350.299 80.7196 360.271 77.2902 369.418 76.216V51.0949L316.149 46.9219Z" fill="#BE0037" stroke="#26144D" stroke-width="1.5" stroke-linecap="round" stroke-linejoin="round"/>
<path d="M251.897 41.9014V67.1464L316.129 104.601L316.149 104.58V46.9214L251.897 41.9014Z" fill="#F11131" stroke="#26144D" stroke-width="1.5" stroke-linecap="round" stroke-linejoin="round"/>
<path d="M369.418 51.0947C360.271 52.1689 350.299 55.5983 339.872 61.6306C331.614 66.4028 323.644 72.4558 316.149 79.4798L251.897 42.0255C251.897 42.0255 263.149 30.5392 280.286 22.6476C297.423 14.756 308.964 15.1898 308.964 15.1898L369.397 51.074L369.418 51.0947Z" fill="#F11131" stroke="#26144D" stroke-width="1.5" stroke-linecap="round" stroke-linejoin="round"/>
<path d="M153.951 250.948L212.317 235.618V180.377L153.951 250.948Z" fill="#7D7D7B" stroke="#26144D" stroke-width="1.5" stroke-linecap="round" stroke-linejoin="round"/>
<path d="M219.451 286.948L275.702 272.948V219.133L219.451 286.948Z" fill="#7D7D7B" stroke="#26144D" stroke-width="1.5" stroke-linecap="round" stroke-linejoin="round"/>
<path d="M212.317 180.377L187.562 166.02L132.002 236.9L153.846 250.865L212.317 180.377Z" fill="#D7D7D7" stroke="#26144D" stroke-width="1.5" stroke-linecap="round" stroke-linejoin="round"/>
<path d="M275.702 219.133L250.947 204.775L195.951 274.948L219.451 286.948L275.702 219.133Z" fill="#D7D7D7" stroke="#26144D" stroke-width="1.5" stroke-linecap="round" stroke-linejoin="round"/>
<path d="M184.663 116.164L270.739 165.89L281.713 146.872L195.636 97.1459L184.663 116.164Z" fill="#BE0037" stroke="#26144D" stroke-width="1.5" stroke-linecap="round" stroke-linejoin="round"/>
<path d="M438.016 226.089C443.256 217.009 443.253 207.192 438.009 204.163C432.765 201.134 424.267 206.039 419.027 215.12C413.788 224.2 413.791 234.017 419.035 237.046C424.278 240.076 432.777 235.17 438.016 226.089Z" fill="#7D7D7B" stroke="#26144D" stroke-width="1.5" stroke-linecap="round" stroke-linejoin="round"/>
<path d="M352.137 48.2028L309.976 23.2471" stroke="white" stroke-width="1.5" stroke-linecap="round" stroke-linejoin="round"/>
</svg>
