<svg width="1440" height="1305" fill="none" xmlns="http://www.w3.org/2000/svg"><path d="M751.766 1269.04L1.126 848.023 689.343 462.02 1440 883.035 751.766 1269.04z" fill="#E9E9E9" stroke="#26144D" stroke-width="1.5" stroke-linecap="round" stroke-linejoin="round"/><path d="M1440 918.757l-.04-35.448L752.004 1268.8l.036 35.43L1440 918.757z" fill="#B2B4B3" stroke="#26144D" stroke-width="1.5" stroke-linecap="round" stroke-linejoin="round"/><path d="M751.639 1304.07L1 883.035v-35.43l750.639 421.015v35.45z" fill="#7D7D7B" stroke="#26144D" stroke-width="1.5" stroke-linecap="round" stroke-linejoin="round"/><path d="M861.665 864.029c75.029 43.305 75.448 113.566.891 156.911-74.538 43.32-195.84 43.28-270.87 0-75.065-43.327-75.447-113.569-.909-156.893 74.575-43.324 195.822-43.324 270.888 0v-.018zM567.858 1023.43l63.588 36.87-63.588 36.88-63.571-36.88 63.571-36.87zm309.302 14.4l63.571 36.87-63.571 36.89-63.588-36.89 63.588-36.87z" fill="#E9E9E9"/><path d="M875.633 831.654l63.589 36.867-63.589 36.886-63.57-36.886 63.57-36.867z" fill="#E9E9E9"/><path d="M837.327 716.433L621.879 592.209V389.631l215.448 124.224v202.578z" fill="#E40133" stroke="#26144D" stroke-width="1.5" stroke-linecap="round" stroke-linejoin="round"/><path d="M837.636 513.728L622.188 389.522l101.585-58.656L939.222 455.09l-101.586 58.638z" fill="#E9E9E9" stroke="#26144D" stroke-width="1.5" stroke-linecap="round" stroke-linejoin="round"/><path d="M837.472 716.397l101.585-58.657V455.163l-101.585 58.638v202.596z" fill="#D8D8D8" stroke="#26144D" stroke-width="1.5" stroke-linecap="round" stroke-linejoin="round"/><path d="M669.133 483.354l167.611 96.76" stroke="#26144D" stroke-width="1.5" stroke-linecap="round" stroke-linejoin="round"/><path d="M790.653 524.768l-22.699-13.095c-1.492-.873-2.711-3.183-2.711-5.184v-1.019c0-2 1.219-2.91 2.711-2.055l22.699 13.096c1.492.873 2.71 3.182 2.71 5.183v1.019c0 2-1.218 2.91-2.71 2.055z" fill="#fff" stroke="#26144D" stroke-width="1.5" stroke-linecap="round" stroke-linejoin="round"/><path d="M669.133 547.521l167.611 96.76" stroke="#26144D" stroke-width="1.5" stroke-linecap="round" stroke-linejoin="round"/><path d="M790.653 588.935l-22.699-13.095c-1.492-.873-2.711-3.183-2.711-5.184v-1.019c0-2 1.219-2.91 2.711-2.055l22.699 13.096c1.492.873 2.71 3.182 2.71 5.183v1.019c0 2-1.218 2.91-2.71 2.055zm0 66.205l-22.699-13.096c-1.492-.873-2.711-3.183-2.711-5.183v-1.019c0-2.001 1.219-2.91 2.711-2.055l22.699 13.095c1.492.873 2.71 3.183 2.71 5.184v1.018c0 2.001-1.218 2.91-2.71 2.056z" fill="#fff" stroke="#26144D" stroke-width="1.5" stroke-linecap="round" stroke-linejoin="round"/><path d="M852.297 425.079l-85.142-49.38a15.927 15.927 0 00-15.788-.109l-51.948 29.246c-2.783 1.564-2.801 5.565-.054 7.166l85.142 49.38a15.927 15.927 0 0015.788.109l51.948-29.246c2.783-1.564 2.801-5.565.054-7.166z" fill="#fff"/><path d="M852.297 425.079l-85.142-49.38a15.927 15.927 0 00-15.788-.109l-51.948 29.246c-2.783 1.564-2.801 5.565-.054 7.166l85.142 49.38a15.927 15.927 0 0015.788.109l51.948-29.246c2.783-1.564 2.801-5.565.054-7.166z" stroke="#26144D" stroke-width="1.5" stroke-linecap="round" stroke-linejoin="round"/><path d="M784.506 461.4l-85.142-49.38c-2.765-1.601-2.747-5.602.054-7.166l51.948-29.246a15.88 15.88 0 0115.788.109l85.142 49.38c2.765 1.601 2.747 5.602-.054 7.166l-51.948 29.246a15.88 15.88 0 01-15.788-.109z" fill="#B2B4B3"/><path d="M784.506 461.4l-85.142-49.38c-2.765-1.601-2.747-5.602.054-7.166l51.948-29.246a15.88 15.88 0 0115.788.109l85.142 49.38c2.765 1.601 2.747 5.602-.054 7.166l-51.948 29.246a15.88 15.88 0 01-15.788-.109z" stroke="#26144D" stroke-width="1.5" stroke-linecap="round" stroke-linejoin="round"/><path d="M699.364 412.02l15.824 9.185 36.178-20.37a15.882 15.882 0 0115.788.109l69.318 40.195 15.788-8.875c2.783-1.564 2.801-5.566.055-7.166l-85.142-49.381a15.931 15.931 0 00-15.789-.109l-51.947 29.246c-2.783 1.565-2.801 5.566-.055 7.166h-.018z" fill="#7D7D7B" stroke="#26144D" stroke-width="1.5" stroke-linecap="round" stroke-linejoin="round"/><path d="M790.908 428.407c0 2.674-3.383 4.857-7.53 4.857s-7.531-2.183-7.531-4.857c0-2.673 3.384-4.856 7.531-4.856s7.53 2.183 7.53 4.856z" fill="#fff"/><path d="M790.908 428.407c0 2.674-3.383 4.857-7.53 4.857s-7.531-2.183-7.531-4.857c0-2.673 3.384-4.856 7.531-4.856s7.53 2.183 7.53 4.856z" stroke="#26144D" stroke-width="1.5" stroke-linecap="round" stroke-linejoin="round"/><path d="M758.132 394.05v-15.678" stroke="#fff" stroke-width="1.5" stroke-linecap="round" stroke-linejoin="round"/><path d="M813.136 391.831l-12.769-7.402-14.405-30.265 13.587 9.367 13.587 28.3z" fill="#fff"/><path d="M813.136 391.831l-12.769-7.402-14.405-30.265 13.587 9.367 13.587 28.3z" stroke="#26144D" stroke-width="1.5" stroke-linecap="round" stroke-linejoin="round"/><path d="M813.137 391.832l6.403-2.856-15.097-33.011-27.065 12.932v4.819l22.172-10.185 13.587 28.301z" fill="#fff"/><path d="M813.137 391.832l6.403-2.856-15.097-33.011-27.065 12.932v4.819l22.172-10.185 13.587 28.301z" stroke="#26144D" stroke-width="1.5" stroke-linecap="round" stroke-linejoin="round"/><path d="M804.442 355.965l-12.933-7.476-26.301 13.987 12.168 6.42 27.066-12.931z" fill="#fff"/><path d="M804.442 355.965l-12.933-7.476-26.301 13.987 12.168 6.42 27.066-12.931z" stroke="#26144D" stroke-width="1.5" stroke-linecap="round" stroke-linejoin="round"/><path d="M777.376 373.716v-4.82l-12.168-6.42v5.293l12.168 5.947z" fill="#fff"/><path d="M777.376 373.716v-4.82l-12.168-6.42v5.293l12.168 5.947z" stroke="#26144D" stroke-width="1.5" stroke-linecap="round" stroke-linejoin="round"/><path d="M827.38 517.856l-97.038-56.092m97.038 120.768l-97.038-56.092m97.038 119.768l-97.038-56.091" stroke="#fff" stroke-width="1.5" stroke-linecap="round" stroke-linejoin="round"/><path d="M555.854 748.389l168.702-97.379V448.433l-168.702 97.378v202.578z" fill="#E40133" stroke="#26144D" stroke-width="1.5" stroke-linecap="round" stroke-linejoin="round"/><path d="M555.545 545.702l168.685-97.397-101.567-58.638-168.703 97.378 101.585 58.657z" fill="#E9E9E9" stroke="#26144D" stroke-width="1.5" stroke-linecap="round" stroke-linejoin="round"/><path d="M555.71 748.352l-101.585-58.638V487.136l101.585 58.638v202.578z" fill="#fff" stroke="#26144D" stroke-width="1.5" stroke-linecap="round" stroke-linejoin="round"/><path d="M724.048 515.31l-167.611 96.76" stroke="#26144D" stroke-width="1.5" stroke-linecap="round" stroke-linejoin="round"/><path d="M627.301 537.644l22.7-13.095c1.491-.873 2.71-3.183 2.71-5.184v-1.018c0-2.001-1.219-2.91-2.71-2.055l-22.7 13.095c-1.491.873-2.71 3.183-2.71 5.184v1.018c0 2.001 1.219 2.91 2.71 2.055z" fill="#fff" stroke="#26144D" stroke-width="1.5" stroke-linecap="round" stroke-linejoin="round"/><path d="M724.048 579.495l-167.611 96.76" stroke="#26144D" stroke-width="1.5" stroke-linecap="round" stroke-linejoin="round"/><path d="M627.301 605.468l22.7-13.096c1.491-.873 2.71-3.183 2.71-5.183v-1.019c0-2.001-1.219-2.91-2.71-2.055l-22.7 13.095c-1.491.873-2.71 3.183-2.71 5.184v1.018c0 2.001 1.219 2.91 2.71 2.056zm0 65.585l22.7-13.095c1.491-.873 2.71-3.183 2.71-5.184v-1.018c0-2.001-1.219-2.91-2.71-2.056l-22.7 13.096c-1.491.873-2.71 3.183-2.71 5.183v1.019c0 2.001 1.219 2.91 2.71 2.055z" fill="#fff" stroke="#26144D" stroke-width="1.5" stroke-linecap="round" stroke-linejoin="round"/><path d="M561.547 682.093l149.586-86.92m-149.586 22.226l149.586-86.92m-149.586 19.715l149.586-86.921" stroke="#fff" stroke-width="1.5" stroke-linecap="round" stroke-linejoin="round"/><path d="M606.092 440.939v-11.731l-.673.145a2.412 2.412 0 00-.418-.291c-1.437-.837-3.783-.837-5.22 0-.2.127-.382.255-.528.382l-.545-.255v11.641c0 .564.345 1.109 1.091 1.546 1.437.836 3.783.836 5.22 0 .673-.4 1.037-.91 1.073-1.419v-.018z" fill="#7D7D7B" stroke="#26144D" stroke-width="1.5" stroke-linecap="round" stroke-linejoin="round"/><path d="M605.019 430.754c-1.437.836-3.765.818-5.22 0-1.437-.837-1.455-2.183 0-3.02 1.437-.836 3.765-.818 5.22 0 1.437.837 1.455 2.183 0 3.02z" fill="#fff" stroke="#26144D" stroke-width="1.5" stroke-linecap="round" stroke-linejoin="round"/><path d="M628.973 433.391V421.66l-.673.145a2.412 2.412 0 00-.418-.291c-1.437-.836-3.783-.836-5.22 0-.2.128-.382.255-.528.382l-.545-.254v11.64c0 .564.345 1.109 1.091 1.546 1.437.836 3.783.836 5.22 0 .673-.4 1.037-.91 1.073-1.419v-.018z" fill="#7D7D7B" stroke="#26144D" stroke-width="1.5" stroke-linecap="round" stroke-linejoin="round"/><path d="M627.9 423.187c-1.437.837-3.765.819-5.22 0-1.437-.836-1.455-2.182 0-3.019 1.437-.837 3.765-.818 5.22 0 1.437.837 1.455 2.183 0 3.019z" fill="#fff" stroke="#26144D" stroke-width="1.5" stroke-linecap="round" stroke-linejoin="round"/><path d="M583.902 433.391V421.66l-.673.145a2.46 2.46 0 00-.419-.291c-1.437-.836-3.783-.836-5.22 0-.2.128-.382.255-.528.382l-.545-.254v11.64c0 .564.345 1.109 1.091 1.546 1.437.836 3.783.836 5.22 0 .673-.4 1.037-.91 1.074-1.419v-.018z" fill="#7D7D7B" stroke="#26144D" stroke-width="1.5" stroke-linecap="round" stroke-linejoin="round"/><path d="M582.828 423.187c-1.437.837-3.765.819-5.22 0-1.437-.836-1.455-2.182 0-3.019 1.437-.837 3.765-.818 5.22 0 1.437.837 1.455 2.183 0 3.019zm48.203-69.86l4.583 2.673-7.366.491 2.783-3.164zm3 19.988c-.164 6.766-2.146 12.641-5.911 17.424-2.801 3.565-5.693 5.384-5.966 5.566v1.855c-2.201 1.928-3.82 2.91-4.111 3.074v-7.33c.273-.164 3.147-1.983 5.948-5.566 3.765-4.783 5.748-10.658 5.911-17.424.091-3.565-.4-6.22-1.473-7.93.819.037 1.637.237 2.365.637 2.255 1.291 3.346 4.547 3.219 9.694h.018z" fill="#fff" stroke="#26144D" stroke-width="1.5" stroke-linecap="round" stroke-linejoin="round"/><path d="M636.287 367.423c-.291 12.004-5.202 20.588-9.295 25.663a39.871 39.871 0 01-4.838 5.056v-1.855c.273-.182 3.165-2.001 5.966-5.566 3.765-4.801 5.748-10.658 5.911-17.424.128-5.147-.964-8.402-3.219-9.694-.728-.418-1.546-.6-2.365-.636-.473-.782-1.055-1.364-1.764-1.765-1.401-.8-3.074-.764-4.565-.436-2.183.455-3.984 1.528-4.02 1.546l-.182-7.221c.327-.2 7.912-4.747 13.296-1.673a7.587 7.587 0 011.928 1.564c2.237 2.474 3.292 6.639 3.165 12.441h-.018z" fill="#fff" stroke="#26144D" stroke-width="1.5" stroke-linecap="round" stroke-linejoin="round"/><path d="M640.417 369.823c-.291 12.004-5.202 20.589-9.295 25.645-4.329 5.366-8.494 7.876-8.949 8.13v-7.329c.273-.182 3.165-2.001 5.966-5.566 3.765-4.801 5.748-10.658 5.911-17.424.128-5.147-.964-8.403-3.219-9.694-.728-.418-1.546-.6-2.365-.637-3.001-.145-6.184 1.746-6.238 1.765l-.091-3.947-.091-3.292c.273-.164 6.057-3.62 11.095-2.51a7.709 7.709 0 012.201.836c3.547 2.019 5.257 6.73 5.075 14.005v.018z" fill="#7D7D7B" stroke="#26144D" stroke-width="1.5" stroke-linecap="round" stroke-linejoin="round"/><path d="M617.916 355.109l4.129 2.383.164 7.239-4.111-2.401-.182-7.221zm4.238 41.196l.018 7.312-4.129-2.401v-7.33l4.111 2.419z" fill="#fff" stroke="#26144D" stroke-width="1.5" stroke-linecap="round" stroke-linejoin="round"/><path d="M629.903 421.678c.054 4.037-2.583 8.057-7.913 11.149-10.604 6.111-27.829 6.093-38.506-.055-5.529-3.201-8.203-7.42-8.003-11.567-.6-4.02-4.511-32.611 4.693-58.475h44.945c9.949 27.901 4.765 58.966 4.765 58.966l.019-.018z" fill="#fff" stroke="#26144D" stroke-width="1.5" stroke-linecap="round" stroke-linejoin="round"/><path d="M618.826 374.116c-8.858 5.111-23.264 5.093-32.177-.054-8.912-5.147-8.967-13.459-.109-18.57 8.858-5.111 23.264-5.093 32.176.054 8.913 5.148 8.968 13.46.11 18.57z" fill="#fff" stroke="#26144D" stroke-width="1.5" stroke-linecap="round" stroke-linejoin="round"/><path d="M618.917 355.437c8.894 5.147 8.858 13.496-.109 18.661-8.968 5.165-23.428 5.202-32.34.055-8.895-5.148-8.858-13.496.109-18.661 8.949-5.166 23.427-5.202 32.34-.055z" fill="#248CFF" stroke="#26144D" stroke-width="1.5" stroke-linecap="round" stroke-linejoin="round"/><path d="M592.688 382.301s-5.748 40.541-10.986 37.34c-5.875-3.602-13.26-28.992-13.26-28.992" fill="#E9E9E9"/><path d="M592.688 382.301s-5.748 40.541-10.986 37.34c-5.875-3.602-13.26-28.992-13.26-28.992" stroke="#26144D" stroke-width="1.5" stroke-linecap="round" stroke-linejoin="round"/><path d="M592.688 382.301s-21.408 10.04-24.264 8.33c-2.856-1.709 11.568-15.169 11.568-15.169l12.696 6.821v.018z" fill="#7D7D7B" stroke="#26144D" stroke-width="1.5" stroke-linecap="round" stroke-linejoin="round"/><path d="M613.003 358.839c5.657 3.255 5.621 8.566-.072 11.858-5.694 3.292-14.879 3.31-20.536.037-5.657-3.256-5.62-8.567.073-11.859 5.693-3.292 14.879-3.31 20.535-.036z" stroke="#fff" stroke-width="1.5" stroke-linecap="round" stroke-linejoin="round"/><path d="M836.344 327.846L644.979 217.372V85.619l191.365 110.473v131.754z" fill="#E40133" stroke="#26144D" stroke-width="1.5" stroke-linecap="round" stroke-linejoin="round"/><path d="M836.344 196.42L644.979 85.946l73.065-42.178 191.347 110.474-73.047 42.178z" fill="#fff" stroke="#26144D" stroke-width="1.5" stroke-linecap="round" stroke-linejoin="round"/><path d="M909.537 285.668l-73.065 42.178V196.092l73.065-42.177v131.753z" fill="#D8D8D8" stroke="#26144D" stroke-width="1.5" stroke-linecap="round" stroke-linejoin="round"/><path d="M735.778 138.036v130.463" stroke="#26144D" stroke-width="1.5" stroke-linecap="round" stroke-linejoin="round"/><path d="M750.293 270.081l-2.073-1.2c-1.073-.619-1.946-2.292-1.946-3.729v-19.279c0-1.437.873-2.092 1.946-1.473l2.073 1.2c1.074.619 1.947 2.292 1.947 3.729v19.279c0 1.437-.873 2.092-1.947 1.473zm-25.247-14.896l-2.073-1.2c-1.073-.619-1.946-2.292-1.946-3.729v-19.279c0-1.437.873-2.092 1.946-1.473l2.073 1.2c1.074.619 1.947 2.292 1.947 3.729v19.279c0 1.437-.873 2.092-1.947 1.473z" fill="#fff" stroke="#26144D" stroke-width="1.5" stroke-linecap="round" stroke-linejoin="round"/><path d="M741.455 233.451v-84.502m-90.964 32.957V97.404" stroke="#fff" stroke-width="1.5" stroke-linecap="round" stroke-linejoin="round"/><path d="M947.915 233.851l159.285 90.158-99.93 55.401-159.285-90.158 99.93-55.401z" fill="#fff" stroke="#26144D" stroke-width="1.5" stroke-linecap="round" stroke-linejoin="round"/><path d="M1007.27 379.41v411.394l102.51-58.402-2.58-408.393-99.93 55.401z" fill="#D8D8D8" stroke="#26144D" stroke-width="1.5" stroke-linecap="round" stroke-linejoin="round"/><path d="M1007.27 379.41l-159.285-90.158v408.393l159.285 93.159V379.41z" fill="#fff" stroke="#26144D" stroke-width="1.5" stroke-linecap="round" stroke-linejoin="round"/><path d="M999.116 384.411l-142.983-80.918V670.09l142.983 83.61V384.411z" fill="#248CFF" stroke="#26144D" stroke-width="1.5" stroke-linecap="round" stroke-linejoin="round"/><path d="M848.057 549.049l159.283 90.158-10.533 6.948-159.281-90.158 10.531-6.948z" fill="#fff" stroke="#26144D" stroke-width="1.5" stroke-linecap="round" stroke-linejoin="round"/><path d="M1007.37 790.258l-10.563 6.894V646.155l10.533-6.948.03 151.051z" fill="#fff" stroke="#26144D" stroke-width="1.5" stroke-linecap="round" stroke-linejoin="round"/><path d="M996.807 646.154v150.852l-159.281-89.649v-151.36l159.281 90.157z" fill="#E9E9E9" stroke="#26144D" stroke-width="1.5" stroke-linecap="round" stroke-linejoin="round"/><path d="M847.913 292.925l139.036 90.122-11.168 5.056-140.327-90.158 12.459-5.02z" fill="#fff" stroke="#26144D" stroke-width="1.5" stroke-linecap="round" stroke-linejoin="round"/><path d="M986.985 636.533l-11.204 6.111V388.121l11.168-5.074.036 253.486z" fill="#D8D8D8" stroke="#26144D" stroke-width="1.5" stroke-linecap="round" stroke-linejoin="round"/><path d="M975.781 388.121v254.032l-140.346-90.14V297.945l140.346 90.176z" fill="#E9E9E9" stroke="#26144D" stroke-width="1.5" stroke-linecap="round" stroke-linejoin="round"/><path d="M843.549 541.1V319.752m.509 250.649v120.786" stroke="#fff" stroke-width="1.5" stroke-linecap="round" stroke-linejoin="round"/><path d="M957.758 470.349v128.352" stroke="#26144D" stroke-width="1.5" stroke-linecap="round" stroke-linejoin="round"/><path d="M578.48 506.598v5.129l-35.832-21.862v-5.129l28.466 17.369 7.366 4.493z" fill="#565656" stroke="#26144D" stroke-width="1.5" stroke-linecap="round" stroke-linejoin="round"/><path d="M595.905 495.867l-17.425 10.731-7.367-4.492 17.098-10.931 7.694 4.692z" fill="#565656" stroke="#26144D" stroke-width="1.5" stroke-linecap="round" stroke-linejoin="round"/><path d="M588.211 491.174l-17.097 10.931-28.466-17.369 17.425-10.713 28.138 17.151z" fill="#248CFF" stroke="#26144D" stroke-width="1.5" stroke-linecap="round" stroke-linejoin="round"/><path d="M595.906 495.867v5.129l-17.425 10.731v-5.129l17.425-10.731z" fill="#565656" stroke="#26144D" stroke-width="1.5" stroke-linecap="round" stroke-linejoin="round"/><path d="M560.293 478.934l-9.167 5.692 18.825 11.55" stroke="#fff" stroke-width="1.5" stroke-linecap="round" stroke-linejoin="round"/><path d="M1264.24 462.765l-78.78-45.47V287.669l78.78 45.488v129.608z" fill="#D8D8D8" stroke="#26144D" stroke-width="1.5" stroke-linecap="round" stroke-linejoin="round"/><path d="M1255.8 446.996l-61.91-35.758V302.656l61.91 35.739v108.601z" fill="#B2B4B3" stroke="#26144D" stroke-width="1.5" stroke-linecap="round" stroke-linejoin="round"/><path d="M1007.67 791.385l111.09 64.131V652.411l-111.09-64.131v203.105z" fill="#E40133" stroke="#26144D" stroke-width="1.5" stroke-linecap="round" stroke-linejoin="round"/><path d="M1118.65 855.662l101.84-58.802V593.755l-101.84 58.783v203.124zm.06-203.196l-111.1-64.131 101.84-58.802 111.1 64.149-101.84 58.784z" fill="#fff" stroke="#26144D" stroke-width="1.5" stroke-linecap="round" stroke-linejoin="round"/><path d="M1007.63 598.466l111.1 64.131m-111.1-5.239l111.1 64.149m-111.1 2.729l111.1 64.149" stroke="#26144D" stroke-width="1.5" stroke-linecap="round" stroke-linejoin="round"/><path d="M1012.34 668.943l97.04 56.601m-97.04-115.73l97.04 56.601m-97.04 68.732l97.04 56.601" stroke="#fff" stroke-width="1.5" stroke-linecap="round" stroke-linejoin="round"/><path d="M1118.33 855.552l132.16 75.299V728.255l-132.16-75.28v202.577z" fill="#fff" stroke="#26144D" stroke-width="1.5" stroke-linecap="round" stroke-linejoin="round"/><path d="M1250.36 930.978l101.59-58.657V669.744l-101.59 58.638v202.596z" fill="#D8D8D8" stroke="#26144D" stroke-width="1.5" stroke-linecap="round" stroke-linejoin="round"/><path d="M1250.43 728.309l-132.14-75.28 101.57-58.638 132.14 75.28-101.57 58.638zm-35.48 112.093l13.62 7.857c3.02 1.746 5.46-.109 5.46-4.129v-12.84c0-4.02-2.44-8.676-5.46-10.422l-13.62-7.857v27.391z" fill="#fff" stroke="#26144D" stroke-width="1.5" stroke-linecap="round" stroke-linejoin="round"/><path d="M1189.64 729.599c3.76-2.17 3.76-9.204 0-15.711s-9.85-10.023-13.61-7.853c-3.76 2.169-3.76 9.203 0 15.71 3.76 6.507 9.85 10.023 13.61 7.854z" fill="#666" stroke="#26144D" stroke-width="1.5" stroke-linecap="round" stroke-linejoin="round"/><path d="M1153.76 711.886l-20.04-11.568c-2.06-1.182-3.73-4.365-3.73-7.111v-10.44c0-2.747 1.67-4.002 3.73-2.819l20.04 11.567c2.06 1.182 3.73 4.365 3.73 7.112v10.44c0 2.746-1.67 4.001-3.73 2.819zm77.72 42.832l-20.04-11.567c-2.06-1.183-3.73-4.365-3.73-7.112v-10.44c0-2.746 1.67-4.001 3.73-2.819l20.04 11.568c2.06 1.182 3.73 4.365 3.73 7.111v10.44c0 2.746-1.67 4.001-3.73 2.819z" fill="#D8D8D8" stroke="#26144D" stroke-width="1.5" stroke-linecap="round" stroke-linejoin="round"/><path d="M1234.52 909.716l-20.04-11.567c-2.06-1.183-3.73-4.365-3.73-7.112v-10.44c0-2.746 1.67-4.001 3.73-2.819l20.04 11.568c2.06 1.182 3.73 4.365 3.73 7.111v10.44c0 2.747-1.67 4.001-3.73 2.819z" fill="#fff" stroke="#26144D" stroke-width="1.5" stroke-linecap="round" stroke-linejoin="round"/><path d="M1185.52 720.088l-5.39-3.092V701.5l5.39 3.092v15.496z" fill="#666" stroke="#26144D" stroke-width="1.5" stroke-linecap="round" stroke-linejoin="round"/><path d="M1250.43 779.999l-132.14-75.28" stroke="#26144D" stroke-width="1.5" stroke-linecap="round" stroke-linejoin="round"/><path d="M1208.41 857.943c16.37-9.447 16.37-40.082 0-68.423-16.36-28.342-42.89-43.66-59.26-34.212-16.36 9.447-16.36 40.081 0 68.423 16.37 28.342 42.9 43.659 59.26 34.212z" fill="#D8D8D8" stroke="#26144D" stroke-width="1.5" stroke-linecap="round" stroke-linejoin="round"/><path d="M1210.69 825.015c0 2.619-.23 5.02-.69 7.22-3.04 14.933-15.84 20.043-31.19 11.186-17.63-10.167-31.91-34.903-31.91-55.237 0-16.442 9.32-24.972 22.19-22.262 3.06.618 6.33 1.891 9.72 3.838 17.6 10.185 31.88 34.902 31.88 55.255z" fill="#666" stroke="#26144D" stroke-width="1.5" stroke-linecap="round" stroke-linejoin="round"/><path d="M1209.16 826.143c0 2.619-.23 5.019-.69 7.22-4.96 2.601-11.67 2.074-19.06-2.201-15.28-8.803-27.66-30.246-27.66-47.889 0-7.384 2.18-12.931 5.82-16.223 3.05.618 6.33 1.891 9.71 3.837 17.61 10.186 31.88 34.903 31.88 55.256z" fill="#909090"/><path d="M1186.45 839.438c-17.61-10.167-31.91-34.903-31.91-55.237" stroke="#fff" stroke-width="1.5" stroke-linecap="round" stroke-linejoin="round"/><path d="M877.165 904.369V772.361l-7.675-4.438v132.008l7.675 4.438z" fill="#fff" stroke="#26144D" stroke-width="1.5" stroke-linecap="round" stroke-linejoin="round"/><path d="M884.822 767.923v132.008l-7.658 4.438V772.361l7.658-4.438z" fill="#B2B4B3" stroke="#26144D" stroke-width="1.5" stroke-linecap="round" stroke-linejoin="round"/><path d="M929.221 873.595V741.587l-7.657-4.438v132.008l7.657 4.438z" fill="#fff" stroke="#26144D" stroke-width="1.5" stroke-linecap="round" stroke-linejoin="round"/><path d="M936.88 737.149v132.008l-7.658 4.438V741.587l7.658-4.438z" fill="#B2B4B3" stroke="#26144D" stroke-width="1.5" stroke-linecap="round" stroke-linejoin="round"/><path d="M825.089 873.595V741.587l-7.657-4.438v132.008l7.657 4.438z" fill="#fff" stroke="#26144D" stroke-width="1.5" stroke-linecap="round" stroke-linejoin="round"/><path d="M832.747 737.149v132.008l-7.658 4.438V741.587l7.658-4.438z" fill="#B2B4B3" stroke="#26144D" stroke-width="1.5" stroke-linecap="round" stroke-linejoin="round"/><path d="M877.163 781.073v-9.512l-63.589-36.867v9.494l63.589 36.885z" fill="#004DA9" stroke="#26144D" stroke-width="1.5" stroke-linecap="round" stroke-linejoin="round"/><path d="M877.163 697.809l63.57 36.885-63.57 36.867-63.589-36.867 63.589-36.885z" fill="#0069EA" stroke="#26144D" stroke-width="1.5" stroke-linecap="round" stroke-linejoin="round"/><path d="M940.733 734.694v9.494l-63.571 36.885v-9.512l63.571-36.867z" fill="#0069EA" stroke="#26144D" stroke-width="1.5" stroke-linecap="round" stroke-linejoin="round"/><path d="M824.469 734.966l53.439-30.319" stroke="#fff" stroke-width="1.5" stroke-linecap="round" stroke-linejoin="round"/><path d="M387.805 846.241l168.684-97.397V546.266l-168.684 97.379v202.596z" fill="#fff" stroke="#26144D" stroke-width="1.5" stroke-linecap="round" stroke-linejoin="round"/><path d="M387.478 643.535l168.703-97.396L454.595 487.5l-168.684 97.397 101.567 58.638z" fill="#B2B4B3" stroke="#26144D" stroke-width="1.5" stroke-linecap="round" stroke-linejoin="round"/><path d="M387.642 846.186l-101.585-58.638V584.97l101.585 58.638v202.578z" fill="#fff" stroke="#26144D" stroke-width="1.5" stroke-linecap="round" stroke-linejoin="round"/><path d="M417.926 809.391l108.442-62.603c2.692-1.546 4.857-5.711 4.857-9.294v-96.451c0-3.583-2.183-5.22-4.857-3.674l-108.442 62.603c-2.692 1.546-4.857 5.711-4.857 9.294v96.451c0 3.583 2.183 5.22 4.857 3.674z" fill="#666" stroke="#26144D" stroke-width="1.5" stroke-linecap="round" stroke-linejoin="round"/><path d="M535.994 600.027c4.108-7.116 4.103-14.81-.012-17.186-4.115-2.376-10.781 1.467-14.89 8.583-4.108 7.116-4.103 14.81.012 17.186 4.115 2.376 10.781-1.467 14.89-8.583z" fill="#7D7D7B" stroke="#26144D" stroke-width="1.5" stroke-linecap="round" stroke-linejoin="round"/><path d="M517.2 606.413l22.7-13.095c1.492-.873 2.71-3.183 2.71-5.184v-1.018c0-2.001-1.218-2.91-2.71-2.055l-22.7 13.095c-1.491.873-2.71 3.183-2.71 5.184v1.018c0 2.001 1.219 2.91 2.71 2.055zm-16.611 14.045c4.108-7.116 4.103-14.811-.012-17.186-4.115-2.376-10.781 1.467-14.89 8.583-4.108 7.116-4.103 14.81.012 17.186 4.115 2.375 10.781-1.467 14.89-8.583z" fill="#7D7D7B" stroke="#26144D" stroke-width="1.5" stroke-linecap="round" stroke-linejoin="round"/><path d="M481.806 626.857l22.7-13.095c1.491-.873 2.71-3.183 2.71-5.184v-1.018c0-2.001-1.219-2.91-2.71-2.055l-22.7 13.095c-1.492.873-2.71 3.183-2.71 5.183v1.019c0 2.001 1.218 2.91 2.71 2.055zm-16.997 14.268c4.108-7.116 4.103-14.81-.012-17.186-4.115-2.375-10.781 1.467-14.89 8.583s-4.103 14.811.011 17.186c4.115 2.376 10.782-1.467 14.891-8.583z" fill="#7D7D7B" stroke="#26144D" stroke-width="1.5" stroke-linecap="round" stroke-linejoin="round"/><path d="M446.01 647.519l22.7-13.095c1.491-.873 2.71-3.183 2.71-5.184v-1.019c0-2-1.219-2.91-2.71-2.055l-22.7 13.096c-1.491.873-2.71 3.182-2.71 5.183v1.019c0 2 1.219 2.91 2.71 2.055zm-16.491 13.979c4.109-7.116 4.104-14.811-.011-17.186-4.115-2.376-10.782 1.467-14.89 8.583-4.109 7.116-4.104 14.81.011 17.186 4.115 2.375 10.782-1.467 14.89-8.583z" fill="#7D7D7B" stroke="#26144D" stroke-width="1.5" stroke-linecap="round" stroke-linejoin="round"/><path d="M410.722 667.889l22.699-13.095c1.492-.873 2.711-3.183 2.711-5.183v-1.019c0-2.001-1.219-2.91-2.711-2.055l-22.699 13.095c-1.492.873-2.711 3.183-2.711 5.184v1.018c0 2.001 1.219 2.91 2.711 2.055z" fill="#7D7D7B" stroke="#26144D" stroke-width="1.5" stroke-linecap="round" stroke-linejoin="round"/><path d="M555.98 603.049l-167.593 96.76" stroke="#26144D" stroke-width="1.5" stroke-linecap="round" stroke-linejoin="round"/><path d="M460.87 694.934l22.7-13.095c1.492-.873 2.71-3.183 2.71-5.184v-1.018c0-2.001-1.218-2.91-2.71-2.055l-22.7 13.095c-1.491.873-2.71 3.183-2.71 5.184v1.018c0 2.001 1.219 2.91 2.71 2.055z" fill="#B2B4B3" stroke="#26144D" stroke-width="1.5" stroke-linecap="round" stroke-linejoin="round"/><path d="M308.774 571.929l101.585 58.638m22.555-130.626l101.567 58.638" stroke="#26144D" stroke-width="1.5" stroke-linecap="round" stroke-linejoin="round"/><path d="M470.803 576.167c14.053 0 25.446-6.579 25.446-14.696 0-8.116-11.393-14.696-25.446-14.696-14.054 0-25.447 6.58-25.447 14.696 0 8.117 11.393 14.696 25.447 14.696z" fill="#7D7D7B" stroke="#26144D" stroke-width="1.5" stroke-linecap="round" stroke-linejoin="round"/><path d="M419.509 605.796c14.053 0 25.446-6.58 25.446-14.696 0-8.117-11.393-14.696-25.446-14.696-14.054 0-25.447 6.579-25.447 14.696 0 8.116 11.393 14.696 25.447 14.696z" fill="#fff" stroke="#26144D" stroke-width="1.5" stroke-linecap="round" stroke-linejoin="round"/><path d="M425.076 549.776c14.054 0 25.446-6.579 25.446-14.696 0-8.116-11.392-14.696-25.446-14.696-14.054 0-25.446 6.58-25.446 14.696 0 8.117 11.392 14.696 25.446 14.696zm-51.295 29.61c14.054 0 25.446-6.579 25.446-14.695 0-8.117-11.392-14.696-25.446-14.696-14.054 0-25.446 6.579-25.446 14.696 0 8.116 11.392 14.695 25.446 14.695z" fill="#7D7D7B" stroke="#26144D" stroke-width="1.5" stroke-linecap="round" stroke-linejoin="round"/><path d="M418.528 802.352v-88.43m-10.114-90.449l-82.868-47.507m126.34-71.26l82.378 48.016m-9.094 185.973v-59.639" stroke="#fff" stroke-width="1.5" stroke-linecap="round" stroke-linejoin="round"/><path d="M451.358 547.939a.59.59 0 01-.527-.309.62.62 0 01.218-.836l3.274-1.892c.491-.291.782-.637.782-.982 0-.346-.291-.691-.782-.982l-5.875-3.383c-1.255-.728-3.365-.728-4.62 0l-3.274 1.891a.62.62 0 01-.837-.218.62.62 0 01.218-.837l3.274-1.891c1.637-.946 4.202-.946 5.839 0l5.875 3.383c.891.509 1.383 1.237 1.383 2.037 0 .8-.492 1.509-1.383 2.037l-3.274 1.891a.593.593 0 01-.309.073l.018.018zm-62.496 3.802v38.794c.072 4.529 3.092 9.022 9.076 12.477 12.096 6.985 31.703 6.985 43.781 0 6.111-3.528 9.149-8.166 9.076-12.804v-38.795l-61.915.328h-.018z" fill="#fff" stroke="#26144D" stroke-width="1.5" stroke-linecap="round" stroke-linejoin="round"/><path d="M419.819 569.455c17.098 0 30.958-8.004 30.958-17.878 0-9.875-13.86-17.879-30.958-17.879-17.097 0-30.957 8.004-30.957 17.879 0 9.874 13.86 17.878 30.957 17.878z" fill="#fff" stroke="#26144D" stroke-width="1.5" stroke-linecap="round" stroke-linejoin="round"/><path d="M442.264 548.085c-12.404-7.039-32.503-7.039-44.89 0-4.038 2.291-6.748 5.056-8.149 7.984 1.401 2.929 4.111 5.693 8.149 7.985 12.405 7.039 32.504 7.039 44.89 0 4.038-2.292 6.749-5.056 8.149-7.985-1.4-2.928-4.111-5.693-8.149-7.984zm-39.798 31.974a.594.594 0 01-.6-.6v-2.383l-2.365 1.364c-1.637.946-4.201.946-5.838 0l-5.875-3.383c-.892-.509-1.383-1.237-1.383-2.037 0-.8.491-1.509 1.383-2.037l3.274-1.891a.587.587 0 01.6 0 .626.626 0 01.309.527v3.492c0 .346-.273.6-.6.6a.605.605 0 01-.601-.6v-2.437l-2.364 1.364c-.491.291-.782.637-.782.982 0 .346.291.691.782.982l5.875 3.383c1.255.728 3.365.728 4.62 0l3.274-1.891a.591.591 0 01.6 0 .626.626 0 01.309.527v3.438c0 .345-.272.6-.6.6h-.018z" fill="#fff" stroke="#26144D" stroke-width="1.5" stroke-linecap="round" stroke-linejoin="round"/><path d="M387.642 846.713L276.835 910.68V708.102l110.807-63.967v202.578z" fill="#E40133" stroke="#26144D" stroke-width="1.5" stroke-linecap="round" stroke-linejoin="round"/><path d="M276.943 910.808L175.376 852.17V649.592l101.567 58.638v202.578z" fill="#fff" stroke="#26144D" stroke-width="1.5" stroke-linecap="round" stroke-linejoin="round"/><path d="M276.889 708.157l110.807-63.967-101.567-58.638-110.825 63.967 101.585 58.638z" fill="#E9E9E9" stroke="#26144D" stroke-width="1.5" stroke-linecap="round" stroke-linejoin="round"/><path d="M327.691 710.54l-33.976 19.606c-1.183.673-2.129-.036-2.129-1.6v-1.728c0-1.564.946-3.383 2.129-4.074l33.976-19.607c1.183-.673 2.129.037 2.129 1.601v1.728c0 1.564-.946 3.383-2.129 4.074z" fill="#fff" stroke="#26144D" stroke-width="1.5" stroke-linecap="round" stroke-linejoin="round"/><path d="M387.679 654.303L276.872 718.27" stroke="#26144D" stroke-width="1.5" stroke-linecap="round" stroke-linejoin="round"/><path d="M284.094 746.77v150.087" stroke="#fff" stroke-width="1.5" stroke-linecap="round" stroke-linejoin="round"/><path d="M726.576 871.066l-.528 188.644 12.678-7.36.546-188.668-12.696 7.384z" fill="#B2B4B3" stroke="#26144D" stroke-width="1.5" stroke-linecap="round" stroke-linejoin="round"/><path d="M713.807 863.682l-.527 188.668 12.768 7.36.528-188.644-12.769-7.384z" fill="#fff" stroke="#26144D" stroke-width="1.5" stroke-linecap="round" stroke-linejoin="round"/><path d="M739.272 863.682l-12.769-7.348-12.695 7.348 12.768 7.384 12.696-7.384z" fill="#fff" stroke="#26144D" stroke-width="1.5" stroke-linecap="round" stroke-linejoin="round"/><path d="M560.402 756.974l-.527 188.664 12.677-7.385.546-188.646-12.696 7.367z" fill="#B2B4B3" stroke="#26144D" stroke-width="1.5" stroke-linecap="round" stroke-linejoin="round"/><path d="M547.633 749.607l-.527 188.646 12.769 7.385.527-188.664-12.769-7.367zm25.465 0l-12.768-7.366-12.696 7.366 12.769 7.366 12.695-7.366z" fill="#fff" stroke="#26144D" stroke-width="1.5" stroke-linecap="round" stroke-linejoin="round"/><path d="M891.332 765.14l-.546 188.664 12.696-7.385.528-188.646-12.678 7.367z" fill="#B2B4B3" stroke="#26144D" stroke-width="1.5" stroke-linecap="round" stroke-linejoin="round"/><path d="M878.563 757.773l-.545 188.646 12.768 7.385.546-188.664-12.769-7.367z" fill="#fff" stroke="#26144D" stroke-width="1.5" stroke-linecap="round" stroke-linejoin="round"/><path d="M878.563 757.773l-.545 188.646 12.768 7.385.546-188.664-12.769-7.367z" fill="#fff" stroke="#26144D" stroke-width="1.5" stroke-linecap="round" stroke-linejoin="round"/><path d="M904.01 757.774l-12.769-7.366-12.677 7.366 12.768 7.366 12.678-7.366z" fill="#fff" stroke="#26144D" stroke-width="1.5" stroke-linecap="round" stroke-linejoin="round"/><path d="M917.105 787.002c-.164.018-.327.055-.491.091-3.729 24.99-22.009 49.362-54.931 68.496-74.538 43.324-195.84 43.306-270.869 0-33.668-19.443-52.294-44.288-55.895-69.678h-.109c-.2-.055-.382-.109-.582-.164v7.075c-.109 28.573 18.771 57.201 56.531 79.009 75.029 43.324 196.313 43.324 270.87 0 37.032-21.517 55.585-49.69 55.658-77.899v-6.912h-.182v-.018z" fill="#B2B4B3" stroke="#26144D" stroke-width="1.5" stroke-linecap="round" stroke-linejoin="round"/><path d="M860.793 708.339c75.029 43.306 75.447 113.566.891 156.908-74.538 43.323-195.84 43.287-270.87 0-75.066-43.324-75.448-113.566-.909-156.89 74.574-43.324 195.822-43.324 270.888 0v-.018zM567.862 1095.4V963.39l-7.658-4.456v132.026l7.658 4.44z" fill="#fff" stroke="#26144D" stroke-width="1.5" stroke-linecap="round" stroke-linejoin="round"/><path d="M575.537 958.934v132.026l-7.676 4.44V963.39l7.676-4.456z" fill="#B2B4B3" stroke="#26144D" stroke-width="1.5" stroke-linecap="round" stroke-linejoin="round"/><path d="M619.936 1064.62V932.615l-7.658-4.456v132.031l7.658 4.43z" fill="#fff" stroke="#26144D" stroke-width="1.5" stroke-linecap="round" stroke-linejoin="round"/><path d="M627.594 928.159v132.031l-7.658 4.43V932.615l7.658-4.456z" fill="#B2B4B3" stroke="#26144D" stroke-width="1.5" stroke-linecap="round" stroke-linejoin="round"/><path d="M515.804 1064.62V932.615l-7.658-4.456v132.031l7.658 4.43z" fill="#fff" stroke="#26144D" stroke-width="1.5" stroke-linecap="round" stroke-linejoin="round"/><path d="M523.461 928.159v132.031l-7.658 4.43V932.615l7.658-4.456z" fill="#B2B4B3" stroke="#26144D" stroke-width="1.5" stroke-linecap="round" stroke-linejoin="round"/><path d="M567.859 972.083v-9.494l-63.57-36.885v9.512l63.57 36.867z" fill="#004DA9" stroke="#26144D" stroke-width="1.5" stroke-linecap="round" stroke-linejoin="round"/><path d="M567.859 888.837l63.588 36.867-63.588 36.885-63.57-36.885 63.57-36.867z" fill="#0069EA" stroke="#26144D" stroke-width="1.5" stroke-linecap="round" stroke-linejoin="round"/><path d="M631.447 925.704v9.512l-63.589 36.867v-9.494l63.589-36.885z" fill="#0069EA" stroke="#26144D" stroke-width="1.5" stroke-linecap="round" stroke-linejoin="round"/><path d="M515.566 925.794l53.439-30.319" stroke="#fff" stroke-width="1.5" stroke-linecap="round" stroke-linejoin="round"/><path d="M866.16 1115.11V983.088l-7.658-4.438v132.01l7.658 4.45z" fill="#fff" stroke="#26144D" stroke-width="1.5" stroke-linecap="round" stroke-linejoin="round"/><path d="M873.817 978.65v132.01l-7.657 4.45V983.088l7.657-4.438z" fill="#B2B4B3" stroke="#26144D" stroke-width="1.5" stroke-linecap="round" stroke-linejoin="round"/><path d="M918.234 1084.34V952.313l-7.657-4.438v132.005l7.657 4.46z" fill="#fff" stroke="#26144D" stroke-width="1.5" stroke-linecap="round" stroke-linejoin="round"/><path d="M925.892 947.875v132.005l-7.657 4.46V952.313l7.657-4.438z" fill="#B2B4B3" stroke="#26144D" stroke-width="1.5" stroke-linecap="round" stroke-linejoin="round"/><path d="M814.102 1084.34V952.313l-7.657-4.438v132.005l7.657 4.46z" fill="#fff" stroke="#26144D" stroke-width="1.5" stroke-linecap="round" stroke-linejoin="round"/><path d="M821.759 947.875v132.005l-7.657 4.46V952.313l7.657-4.438z" fill="#B2B4B3" stroke="#26144D" stroke-width="1.5" stroke-linecap="round" stroke-linejoin="round"/><path d="M866.158 991.799v-9.512l-63.57-36.867v9.494l63.57 36.885z" fill="#004DA9" stroke="#26144D" stroke-width="1.5" stroke-linecap="round" stroke-linejoin="round"/><path d="M866.158 908.553l63.589 36.867-63.589 36.867-63.57-36.867 63.57-36.867z" fill="#0069EA" stroke="#26144D" stroke-width="1.5" stroke-linecap="round" stroke-linejoin="round"/><path d="M929.745 945.42v9.494l-63.589 36.885v-9.512l63.589-36.867z" fill="#0069EA" stroke="#26144D" stroke-width="1.5" stroke-linecap="round" stroke-linejoin="round"/><path d="M814.61 946.074l53.439-30.319" stroke="#fff" stroke-width="1.5" stroke-linecap="round" stroke-linejoin="round"/><path d="M368.707 465.511l-79.795-46.379-.036-11.077 79.813 46.38.018 11.076z" fill="#004DA9" stroke="#26144D" stroke-width="1.5" stroke-linecap="round" stroke-linejoin="round"/><path d="M368.689 454.434l-79.813-46.379 128.523-74.207 79.795 46.38-128.505 74.206z" fill="#248CFF" stroke="#26144D" stroke-width="1.5" stroke-linecap="round" stroke-linejoin="round"/><path d="M497.193 380.228l.036 11.076-128.523 74.207-.018-11.076 128.505-74.207z" fill="#0069EA" stroke="#26144D" stroke-width="1.5" stroke-linecap="round" stroke-linejoin="round"/><path d="M352.191 257.986l28.139 164.965-58.405-33.994.418-147.668 29.848 16.697z" fill="#004DA9" stroke="#26144D" stroke-width="1.5" stroke-linecap="round" stroke-linejoin="round"/><path d="M410.686 224.265l28.139 164.965-58.496 33.721-28.138-164.965 58.495-33.721z" fill="#0069EA" stroke="#26144D" stroke-width="1.5" stroke-linecap="round" stroke-linejoin="round"/><path d="M380.839 207.569l29.848 16.696-58.495 33.721-29.848-16.697 58.495-33.72z" fill="#248CFF" stroke="#26144D" stroke-width="1.5" stroke-linecap="round" stroke-linejoin="round"/><path d="M330.603 241.435l49.528-27.81m-53.074 63.677v107.145m41.942 64.167l117.755-68.223" stroke="#fff" stroke-width="1.5" stroke-linecap="round" stroke-linejoin="round"/><path d="M497.596 347.78v-12.786l134.361-77.917v12.786L497.596 347.78z" fill="#B2B4B3" stroke="#26144D" stroke-width="1.5" stroke-linecap="round" stroke-linejoin="round"/><path d="M631.958 257.077l-46-26.773-134.362 77.936 46 26.754 134.362-77.917z" fill="#D8D8D8" stroke="#26144D" stroke-width="1.5" stroke-linecap="round" stroke-linejoin="round"/><path d="M497.596 347.78v-12.786l-46-26.754v12.786l46 26.754z" fill="#7D7D7B" stroke="#26144D" stroke-width="1.5" stroke-linecap="round" stroke-linejoin="round"/><path d="M483.007 282.522v27.063c.036 2.365 1.619 4.711 4.729 6.512 6.312 3.637 16.552 3.637 22.863 0 3.202-1.837 4.766-4.274 4.73-6.693V282.34l-32.322.164v.018z" fill="#fff" stroke="#26144D" stroke-width="1.5" stroke-linecap="round" stroke-linejoin="round"/><path d="M499.177 291.78c8.93 0 16.17-4.178 16.17-9.331s-7.24-9.33-16.17-9.33c-8.931 0-16.17 4.177-16.17 9.33 0 5.153 7.239 9.331 16.17 9.331zm63.988-58.33v27.064c.037 2.365 1.619 4.711 4.729 6.511 6.312 3.638 16.552 3.638 22.864 0 3.201-1.837 4.765-4.274 4.729-6.693v-27.063l-32.322.163v.018z" fill="#fff" stroke="#26144D" stroke-width="1.5" stroke-linecap="round" stroke-linejoin="round"/><path d="M579.335 242.69c8.93 0 16.17-4.177 16.17-9.33 0-5.153-7.24-9.331-16.17-9.331-8.93 0-16.17 4.178-16.17 9.331s7.24 9.33 16.17 9.33z" fill="#fff" stroke="#26144D" stroke-width="1.5" stroke-linecap="round" stroke-linejoin="round"/><path d="M497.596 296.235v-12.786l134.361-77.917v12.786l-134.361 77.917z" fill="#B2B4B3" stroke="#26144D" stroke-width="1.5" stroke-linecap="round" stroke-linejoin="round"/><path d="M631.958 205.532l-46-26.773-134.362 77.936 46 26.754 134.362-77.917z" fill="#D8D8D8" stroke="#26144D" stroke-width="1.5" stroke-linecap="round" stroke-linejoin="round"/><path d="M497.596 296.236v-12.787l-46-26.754v12.786l46 26.755z" fill="#7D7D7B" stroke="#26144D" stroke-width="1.5" stroke-linecap="round" stroke-linejoin="round"/><path d="M555.398 182.67v27.063c.037 2.365 1.619 4.711 4.73 6.512 6.311 3.637 16.552 3.637 22.863 0 3.201-1.837 4.766-4.274 4.729-6.693v-27.064l-32.322.163v.019z" fill="#fff" stroke="#26144D" stroke-width="1.5" stroke-linecap="round" stroke-linejoin="round"/><path d="M571.568 191.909c8.931 0 16.17-4.177 16.17-9.33 0-5.153-7.239-9.33-16.17-9.33-8.93 0-16.17 4.177-16.17 9.33 0 5.153 7.24 9.33 16.17 9.33z" fill="#E9E9E9" stroke="#26144D" stroke-width="1.5" stroke-linecap="round" stroke-linejoin="round"/><path d="M523.896 191.346v33.429c.054 2.91 2.001 5.82 5.857 8.039 7.803 4.511 20.444 4.511 28.247 0 3.947-2.273 5.893-5.274 5.857-8.257v-33.43l-39.943.219h-.018z" fill="#fff" stroke="#26144D" stroke-width="1.5" stroke-linecap="round" stroke-linejoin="round"/><path d="M543.867 202.767c11.03 0 19.971-5.162 19.971-11.531 0-6.368-8.941-11.531-19.971-11.531s-19.971 5.163-19.971 11.531c0 6.369 8.941 11.531 19.971 11.531z" fill="#E9E9E9" stroke="#26144D" stroke-width="1.5" stroke-linecap="round" stroke-linejoin="round"/><path d="M486.992 218.281v27.064c.037 2.365 1.619 4.711 4.73 6.512 6.311 3.637 16.551 3.637 22.863 0 3.201-1.837 4.766-4.275 4.729-6.694V218.1l-32.322.163v.018z" fill="#fff" stroke="#26144D" stroke-width="1.5" stroke-linecap="round" stroke-linejoin="round"/><path d="M503.144 227.539c8.93 0 16.17-4.177 16.17-9.33 0-5.153-7.24-9.331-16.17-9.331-8.931 0-16.17 4.178-16.17 9.331s7.239 9.33 16.17 9.33zm172.775 537.328c-.055-16.005 22.554-29.046 50.492-29.155 27.938-.091 50.638 12.804 50.693 28.791.072 15.988-22.536 29.047-50.493 29.156-27.92.091-50.62-12.805-50.674-28.792h-.018z" fill="#E9E9E9" stroke="#26144D" stroke-width="1.5" stroke-linecap="round" stroke-linejoin="round"/><path d="M728.812 745.424c0 8.821-7.148 15.969-15.97 15.969-8.821 0-15.97-7.148-15.97-15.969s7.149-15.969 15.97-15.969c8.822 0 15.97 7.148 15.97 15.969z" fill="#FFBF33" stroke="#26144D" stroke-width="1.5" stroke-linecap="round" stroke-linejoin="round"/><path d="M713.225 762.175c0 8.803-7.148 15.969-15.97 15.969-8.822 0-15.97-7.148-15.97-15.969s7.148-15.969 15.97-15.969c8.822 0 15.97 7.148 15.97 15.969zm45.181-14.022c0 8.821-7.148 15.969-15.97 15.969-8.821 0-15.97-7.148-15.97-15.969 0-8.822 7.149-15.969 15.97-15.969 8.822 0 15.97 7.147 15.97 15.969z" fill="#FFBF33" stroke="#26144D" stroke-width="1.5" stroke-linecap="round" stroke-linejoin="round"/><path d="M736.598 771.524c0 8.803-7.149 15.969-15.97 15.969-8.822 0-15.97-7.148-15.97-15.969s7.148-15.969 15.97-15.969c8.821 0 15.97 7.148 15.97 15.969z" fill="#FFBF33" stroke="#26144D" stroke-width="1.5" stroke-linecap="round" stroke-linejoin="round"/><path d="M766.953 760.611c0 8.821-7.148 15.969-15.97 15.969-8.822 0-15.97-7.148-15.97-15.969s7.148-15.969 15.97-15.969c8.822 0 15.97 7.148 15.97 15.969z" fill="#FFBF33" stroke="#26144D" stroke-width="1.5" stroke-linecap="round" stroke-linejoin="round"/><path d="M616.659 838.838l-40.415-23.335 40.415-23.336 40.416 23.336-40.416 23.335z" fill="#D8D8D8" stroke="#26144D" stroke-width="1.5" stroke-linecap="round" stroke-linejoin="round"/><path d="M601.127 838.565c-.036-10.44 16.516-18.952 36.996-19.025 20.481-.054 37.106 8.349 37.142 18.77.055 10.44-16.515 18.952-36.996 19.025-20.463.073-37.087-8.348-37.142-18.77z" fill="#E9E9E9" stroke="#26144D" stroke-width="1.5" stroke-linecap="round" stroke-linejoin="round"/><path d="M618.297 838.511c-.018-5.602 8.858-10.167 19.845-10.204 10.986-.036 19.898 4.475 19.935 10.077.018 5.601-8.858 10.167-19.845 10.203-10.986.036-19.898-4.474-19.916-10.076h-.019zm187.873 9.42l-40.416-23.335 40.416-23.335 40.434 23.335-40.434 23.335z" fill="#fff" stroke="#26144D" stroke-width="1.5" stroke-linecap="round" stroke-linejoin="round"/><path d="M779.632 848.695l-40.416-23.335 40.416-23.354 40.434 23.354-40.434 23.335z" fill="#D8D8D8" stroke="#26144D" stroke-width="1.5" stroke-linecap="round" stroke-linejoin="round"/><path d="M753.239 846.131c-.037-10.44 16.515-18.952 36.996-19.025 20.481-.054 37.105 8.349 37.142 18.77.054 10.44-16.516 18.952-36.997 19.025-20.462.073-37.087-8.348-37.141-18.77z" fill="#E9E9E9" stroke="#26144D" stroke-width="1.5" stroke-linecap="round" stroke-linejoin="round"/><path d="M770.41 846.076c-.018-5.602 8.858-10.167 19.844-10.203 10.986-.037 19.899 4.474 19.935 10.076.018 5.602-8.858 10.167-19.844 10.203-10.986.037-19.899-4.474-19.917-10.076h-.018z" fill="#fff" stroke="#26144D" stroke-width="1.5" stroke-linecap="round" stroke-linejoin="round"/><path d="M799.349 750.153l-40.416-23.335 40.416-23.353 40.416 23.353-40.416 23.335z" fill="#D8D8D8" stroke="#26144D" stroke-width="1.5" stroke-linecap="round" stroke-linejoin="round"/><path d="M787.599 738.003c-.037-10.439 16.515-18.951 36.996-19.024 20.481-.055 37.105 8.348 37.142 18.77.054 10.44-16.516 18.952-36.996 19.024-20.463.073-37.088-8.348-37.142-18.77z" fill="#E9E9E9" stroke="#26144D" stroke-width="1.5" stroke-linecap="round" stroke-linejoin="round"/><path d="M804.787 737.931c-.019-5.602 8.858-10.167 19.844-10.204 10.986-.036 19.898 4.475 19.935 10.076.018 5.602-8.858 10.168-19.844 10.204-10.986.036-19.899-4.474-19.917-10.076h-.018z" fill="#fff" stroke="#26144D" stroke-width="1.5" stroke-linecap="round" stroke-linejoin="round"/><path d="M751 1304.5L0 883.5V0h1442v918l-691 386.5z" fill="#000" fill-opacity=".4"/></svg>