<svg width="390" height="495" fill="none" xmlns="http://www.w3.org/2000/svg"><mask id="a" style="mask-type:alpha" maskUnits="userSpaceOnUse" x="0" y="0" width="390" height="495"><path fill="#D9D9D9" d="M0 0h390v495H0z"/></mask><g mask="url(#a)"><path d="M231.237 472.801l108.162-62.65-108.162-62.662-108.163 62.662 108.163 62.65z" fill="#8ED760" stroke="#26144D" stroke-width="1.5" stroke-linecap="round" stroke-linejoin="round"/><path d="M231.416 494l108.163-62.662v-21.356l-108.163 62.662V494z" fill="#956054" stroke="#26144D" stroke-width="1.5" stroke-linecap="round" stroke-linejoin="round"/><path d="M123.152 431.507l108.163 62.65v-21.356L123.152 410.14v21.367z" fill="#A9776B" stroke="#26144D" stroke-width="1.5" stroke-linecap="round" stroke-linejoin="round"/><path d="M286.954 413.243v6.41m-107.961-6.838v6.411m32.36-34.615v6.41m69.212 25.427v6.41m-20.231-34.187v6.41m5.537-8.761v6.41m-80.926 16.454v6.41m5.537-2.137v6.41m45.574 20.928v6.41m5.75-10.896v6.41m5.75-1.71v6.41m-30.24-58.962v6.41m-12.352-5.768v6.41m88.166 21.366v6.41m-21.935-34.4v6.41" stroke="#5FAE2C" stroke-width="1.5" stroke-linecap="round" stroke-linejoin="round"/><path d="M219 443l31 18 66-38-32.5-17.5L219 443z" fill="#B2B4B3" opacity=".46"/><path d="M92.418 365.527l71.59-41.463L92.43 282.59l-71.59 41.474 71.578 41.463z" fill="#8ED760" stroke="#26144D" stroke-width="1.5" stroke-linecap="round" stroke-linejoin="round"/><path d="M92.542 379.551l71.589-41.463v-14.136l-71.59 41.463v14.136z" fill="#956054" stroke="#26144D" stroke-width="1.5" stroke-linecap="round" stroke-linejoin="round"/><path d="M20.886 338.189l71.589 41.475v-14.136l-71.59-41.475v14.136z" fill="#A9776B" stroke="#26144D" stroke-width="1.5" stroke-linecap="round" stroke-linejoin="round"/><path d="M128.689 323.221v4.689m-78.941-5.004v4.689m23.672-25.303v4.679m50.607 18.589v4.69m-14.796-25v4.689m4.047-6.398v4.678m-59.17 12.033v4.689m4.046-1.563v4.69m33.323 15.305v4.69m4.203-7.974v4.69m4.203-1.248v4.689M77.78 305.104v4.678m-9.034-4.217v4.689m64.46 15.621v4.689m-16.039-25.156v4.689" stroke="#5FAE2C" stroke-width="1.5" stroke-linecap="round" stroke-linejoin="round"/><path d="M193.329 305.531l71.578-41.463-71.578-41.464-71.589 41.464 71.589 41.463z" fill="#8ED760" stroke="#26144D" stroke-width="1.5" stroke-linecap="round" stroke-linejoin="round"/><path d="M193.441 319.565l71.589-41.474v-14.136l-71.589 41.474v14.136z" fill="#956054" stroke="#26144D" stroke-width="1.5" stroke-linecap="round" stroke-linejoin="round"/><path d="M121.796 278.204l71.578 41.463v-14.136l-71.578-41.463v14.136z" fill="#A9776B" stroke="#26144D" stroke-width="1.5" stroke-linecap="round" stroke-linejoin="round"/><path d="M230.06 264.011v4.69m-78.942-5.005v4.69m23.661-25.314v4.689m50.607 18.59v4.689m-14.784-24.999v4.689m4.046-6.41v4.689m-59.17 12.033v4.69m4.046-1.563v4.689m33.323 15.306v4.69m4.203-7.974v4.689m4.204-1.248v4.69m-22.115-43.128v4.69m-9.023-4.218v4.69m64.461 15.621v4.689m-16.04-25.157v4.69" stroke="#5FAE2C" stroke-width="1.5" stroke-linecap="round" stroke-linejoin="round"/><path d="M297.031 238.979l71.578-41.464-71.578-41.463-71.589 41.463 71.589 41.464z" fill="#8ED760" stroke="#26144D" stroke-width="1.5" stroke-linecap="round" stroke-linejoin="round"/><path d="M297.143 253.013l71.589-41.474v-14.136l-71.589 41.474v14.136z" fill="#956054" stroke="#26144D" stroke-width="1.5" stroke-linecap="round" stroke-linejoin="round"/><path d="M225.498 211.652l71.589 41.463v-14.136l-71.589-41.463v14.136z" fill="#A9776B" stroke="#26144D" stroke-width="1.5" stroke-linecap="round" stroke-linejoin="round"/><path d="M88 327.5l33.099 20.499 8.866-5.004L96.182 323 88 327.5zM189 267l34.088 20.988 8.877-4.993L198.171 263 189 267zm104-65.5l33.088 20.499 8.877-5.004L301.182 197 293 201.5z" fill="#B2B4B3" opacity=".46"/><path d="M333.503 197.639v4.69m-78.953-5.005v4.69m23.673-25.314v4.689m50.607 18.59v4.689m-14.796-25v4.69m4.047-6.41v4.689m-59.17 12.033v4.69m4.057-1.563v4.678m33.312 15.317v4.689m4.214-7.973v4.689m4.203-1.248v4.69m-22.114-43.128v4.69m-9.034-4.218v4.69m64.472 15.62v4.69m-16.04-25.157v4.69" stroke="#5FAE2C" stroke-width="2" stroke-linecap="round" stroke-linejoin="round"/><path d="M294.083 201.058c1.917 1.035 5.044 1.035 6.972 0 1.132-.619 1.603-1.462 1.378-2.272V86.722h-9.74v112.064c-.213.81.247 1.642 1.379 2.272h.011z" fill="#B2B4B3" stroke="#26144D" stroke-width="2" stroke-linecap="round" stroke-linejoin="round"/><path d="M297.569 89.455c-2.718 0-4.921-1.193-4.921-2.665s2.203-2.666 4.921-2.666c2.717 0 4.92 1.194 4.92 2.666s-2.203 2.665-4.92 2.665z" fill="#fff" stroke="#26144D" stroke-width="2" stroke-linecap="round" stroke-linejoin="round"/><path d="M317.475 118.874c.975.529 2.556.529 3.531 0 .572-.315.807-.742.706-1.147v-5.735h-4.932v5.735c-.112.405.124.832.706 1.147h-.011z" fill="#7D7D7B" stroke="#26144D" stroke-width="2" stroke-linecap="round" stroke-linejoin="round"/><path d="M319.235 113.375c-1.38 0-2.499-.604-2.499-1.35 0-.745 1.119-1.349 2.499-1.349 1.38 0 2.5.604 2.5 1.349 0 .746-1.12 1.35-2.5 1.35zm-43.243-16.396c.976.528 2.556.528 3.531 0 .572-.315.807-.743.706-1.147v-5.736h-4.932v5.736c-.112.404.124.832.707 1.147h-.012z" fill="#7D7D7B" stroke="#26144D" stroke-width="2" stroke-linecap="round" stroke-linejoin="round"/><path d="M277.763 91.48c-1.38 0-2.499-.605-2.499-1.35 0-.745 1.119-1.35 2.499-1.35 1.381 0 2.5.605 2.5 1.35 0 .745-1.119 1.35-2.5 1.35zm7.544 10.357c.975.529 2.555.529 3.53 0 .572-.315.807-.742.707-1.147v-5.735h-4.932v5.735c-.112.405.123.832.706 1.147h-.011z" fill="#7D7D7B" stroke="#26144D" stroke-width="2" stroke-linecap="round" stroke-linejoin="round"/><path d="M287.066 96.338c-1.38 0-2.499-.604-2.499-1.35 0-.745 1.119-1.35 2.499-1.35 1.381 0 2.5.605 2.5 1.35 0 .746-1.119 1.35-2.5 1.35zm19.828 17.149c.976.529 2.556.529 3.531 0 .572-.314.807-.742.706-1.147v-5.735h-4.932v5.735c-.112.405.124.833.707 1.147h-.012z" fill="#7D7D7B" stroke="#26144D" stroke-width="2" stroke-linecap="round" stroke-linejoin="round"/><path d="M308.665 107.999c-1.38 0-2.499-.604-2.499-1.349 0-.746 1.119-1.35 2.499-1.35 1.381 0 2.5.604 2.5 1.35 0 .745-1.119 1.349-2.5 1.349z" fill="#7D7D7B" stroke="#26144D" stroke-width="2" stroke-linecap="round" stroke-linejoin="round"/><path d="M271.33 98.058c-.841.484-1.48 1.676-1.424 2.654.045.585.314.956.706 1.057l49.027 26.394 1.983-3.711-49.015-26.394c-.313-.27-.773-.292-1.277 0z" fill="#fff" stroke="#26144D" stroke-width="2" stroke-linecap="round" stroke-linejoin="round"/><path d="M319.602 128.193c-.644-.347-.715-1.471-.159-2.51.556-1.04 1.529-1.603 2.172-1.256.644.346.715 1.47.159 2.51-.556 1.04-1.528 1.602-2.172 1.256z" fill="#B2B4B3" stroke="#26144D" stroke-width="2" stroke-linecap="round" stroke-linejoin="round"/><path d="M319 119.211l-1.626 2.193m-11.388-5.386l1.615-2.182m-23.236-9.638l1.625-2.181m-10.782-2.688l1.614-2.193" stroke="#26144D" stroke-width="2" stroke-linecap="round" stroke-linejoin="round"/><path d="M251.065 354.496s36.752 22.806 78.482 27.496c27.102 3.047 63.765.989 63.765.989" stroke="#6CA3FF" stroke-width="2" stroke-linecap="round" stroke-linejoin="round"/><path d="M269.749 344.183s28.335 17.499 57.926 24.999c27.786 7.04 68.204 11.246 68.204 11.246m-79.413-257.933s-24.468 24.19-47.737 38.427c-23.269 14.237-51.301 21.558-51.301 21.558m57.925-83.42s-24.468 24.189-47.737 38.426c-23.269 14.237-51.301 21.558-51.301 21.558m107.456-55.295s-24.468 24.189-47.737 38.426c-23.269 14.237-51.302 21.558-51.302 21.558m121.546-47.805s-24.468 24.189-47.737 38.427c-23.269 14.237-51.302 21.558-51.302 21.558" stroke="#6CA3FF" stroke-width="2" stroke-linecap="round" stroke-linejoin="round"/><path d="M190.224 266.43c1.917 1.035 5.044 1.035 6.972 0 1.132-.619 1.603-1.462 1.379-2.272V152.105h-9.74V264.17c-.213.809.246 1.641 1.378 2.271l.011-.011z" fill="#B2B4B3" stroke="#26144D" stroke-width="2" stroke-linecap="round" stroke-linejoin="round"/><path d="M193.699 154.838c-2.717 0-4.92-1.193-4.92-2.665s2.203-2.665 4.92-2.665c2.718 0 4.921 1.193 4.921 2.665s-2.203 2.665-4.921 2.665z" fill="#fff" stroke="#26144D" stroke-width="2" stroke-linecap="round" stroke-linejoin="round"/><path d="M213.617 184.257c.975.529 2.555.529 3.53 0 .572-.314.807-.742.707-1.147v-5.735h-4.932v5.735c-.112.405.123.833.706 1.147h-.011z" fill="#7D7D7B" stroke="#26144D" stroke-width="2" stroke-linecap="round" stroke-linejoin="round"/><path d="M215.377 178.758c-1.381 0-2.5-.604-2.5-1.349 0-.746 1.119-1.35 2.5-1.35 1.38 0 2.499.604 2.499 1.35 0 .745-1.119 1.349-2.499 1.349zm-43.243-16.396c.975.528 2.555.528 3.531 0 .571-.315.807-.742.706-1.147v-5.736h-4.932v5.736c-.112.405.123.832.706 1.147h-.011z" fill="#7D7D7B" stroke="#26144D" stroke-width="2" stroke-linecap="round" stroke-linejoin="round"/><path d="M173.894 156.863c-1.381 0-2.5-.605-2.5-1.35 0-.745 1.119-1.349 2.5-1.349 1.38 0 2.499.604 2.499 1.349s-1.119 1.35-2.499 1.35zm7.543 10.357c.975.529 2.556.529 3.531 0 .571-.315.807-.742.706-1.147v-5.735h-4.932v5.735c-.112.405.123.832.706 1.147h-.011z" fill="#7D7D7B" stroke="#26144D" stroke-width="2" stroke-linecap="round" stroke-linejoin="round"/><path d="M183.208 161.721c-1.381 0-2.5-.604-2.5-1.35 0-.745 1.119-1.349 2.5-1.349 1.38 0 2.499.604 2.499 1.349 0 .746-1.119 1.35-2.499 1.35zm19.828 17.15c.975.528 2.555.528 3.531 0 .571-.315.807-.743.706-1.147v-5.736h-4.932v5.736c-.112.404.123.832.706 1.147h-.011z" fill="#7D7D7B" stroke="#26144D" stroke-width="2" stroke-linecap="round" stroke-linejoin="round"/><path d="M204.807 173.383c-1.381 0-2.5-.605-2.5-1.35 0-.745 1.119-1.349 2.5-1.349 1.38 0 2.499.604 2.499 1.349s-1.119 1.35-2.499 1.35z" fill="#7D7D7B" stroke="#26144D" stroke-width="2" stroke-linecap="round" stroke-linejoin="round"/><path d="M167.471 163.441c-.841.484-1.479 1.676-1.423 2.654.044.585.313.956.706 1.058l49.026 26.393 1.984-3.711-49.026-26.394c-.314-.269-.774-.292-1.278 0h.011z" fill="#fff" stroke="#26144D" stroke-width="2" stroke-linecap="round" stroke-linejoin="round"/><path d="M215.742 193.565c-.643-.347-.714-1.47-.158-2.51.556-1.04 1.528-1.602 2.172-1.256.643.346.715 1.47.159 2.51-.556 1.04-1.529 1.602-2.173 1.256z" fill="#B2B4B3" stroke="#26144D" stroke-width="2" stroke-linecap="round" stroke-linejoin="round"/><path d="M213.516 186.788l1.625-2.193m-13.024-3.194l1.625-2.182m-23.235-9.637l1.625-2.182m-10.783-2.699l1.614-2.182" stroke="#26144D" stroke-width="2" stroke-linecap="round" stroke-linejoin="round"/><path d="M213.46 184.594s-24.469 24.19-47.737 38.427c-23.74 14.53-51.302 21.558-51.302 21.558m57.937-83.421s-24.468 24.19-47.737 38.427c-23.74 14.53-51.302 21.558-51.302 21.558m107.445-55.295s-24.468 24.189-47.737 38.426c-23.74 14.53-51.301 21.559-51.301 21.559m121.545-47.806s-24.468 24.19-47.737 38.427c-23.74 14.529-51.302 21.558-51.302 21.558" stroke="#6CA3FF" stroke-width="2" stroke-linecap="round" stroke-linejoin="round"/><path d="M88.54 326.662c1.917 1.035 5.044 1.035 6.972 0 1.132-.619 1.603-1.462 1.379-2.272V212.326h-9.74V324.39c-.213.81.246 1.642 1.378 2.272h.011z" fill="#B2B4B3" stroke="#26144D" stroke-width="2" stroke-linecap="round" stroke-linejoin="round"/><path d="M92.026 215.059c-2.717 0-4.92-1.193-4.92-2.665s2.203-2.665 4.92-2.665c2.718 0 4.92 1.193 4.92 2.665s-2.202 2.665-4.92 2.665z" fill="#fff" stroke="#26144D" stroke-width="2" stroke-linecap="round" stroke-linejoin="round"/><path d="M111.933 244.478c.975.529 2.555.529 3.53 0 .572-.315.807-.742.706-1.147v-5.735h-4.931v5.735c-.112.405.123.832.706 1.147h-.011z" fill="#7D7D7B" stroke="#26144D" stroke-width="2" stroke-linecap="round" stroke-linejoin="round"/><path d="M113.692 238.979c-1.38 0-2.499-.604-2.499-1.35 0-.745 1.119-1.349 2.499-1.349 1.381 0 2.5.604 2.5 1.349 0 .746-1.119 1.35-2.5 1.35zM70.45 222.583c.975.528 2.555.528 3.53 0 .572-.315.807-.743.707-1.147V215.7h-4.932v5.736c-.112.404.123.832.706 1.147h-.011z" fill="#7D7D7B" stroke="#26144D" stroke-width="2" stroke-linecap="round" stroke-linejoin="round"/><path d="M72.22 217.094c-1.38 0-2.499-.604-2.499-1.349s1.12-1.349 2.5-1.349 2.5.604 2.5 1.349-1.12 1.349-2.5 1.349zm7.544 10.347c.975.529 2.556.529 3.53 0 .572-.315.808-.742.707-1.147v-5.735h-4.932v5.735c-.112.405.123.832.706 1.147h-.01z" fill="#7D7D7B" stroke="#26144D" stroke-width="2" stroke-linecap="round" stroke-linejoin="round"/><path d="M81.524 221.953c-1.38 0-2.5-.604-2.5-1.35 0-.745 1.12-1.349 2.5-1.349s2.5.604 2.5 1.349c0 .746-1.12 1.35-2.5 1.35zm19.839 17.15c.975.528 2.556.528 3.531 0 .571-.315.807-.743.706-1.147v-5.736h-4.932v5.736c-.112.404.123.832.706 1.147h-.011z" fill="#7D7D7B" stroke="#26144D" stroke-width="2" stroke-linecap="round" stroke-linejoin="round"/><path d="M103.123 233.603c-1.381 0-2.5-.604-2.5-1.349 0-.746 1.119-1.35 2.5-1.35 1.38 0 2.499.604 2.499 1.35 0 .745-1.119 1.349-2.499 1.349z" fill="#7D7D7B" stroke="#26144D" stroke-width="2" stroke-linecap="round" stroke-linejoin="round"/><path d="M65.798 223.662c-.84.484-1.48 1.676-1.423 2.654.044.585.314.956.706 1.057l49.026 26.394 1.984-3.711-49.026-26.394c-.314-.27-.774-.292-1.278 0h.011z" fill="#fff" stroke="#26144D" stroke-width="2" stroke-linecap="round" stroke-linejoin="round"/><path d="M114.065 253.807c-.643-.346-.714-1.47-.158-2.51.556-1.04 1.528-1.602 2.172-1.256.644.347.715 1.47.159 2.51-.556 1.04-1.529 1.602-2.173 1.256z" fill="#B2B4B3" stroke="#26144D" stroke-width="2" stroke-linecap="round" stroke-linejoin="round"/><path d="M111.832 247.008l1.625-2.181m-13.013-3.194l1.614-2.193m-23.235-9.638l1.625-2.181m-10.783-2.688l1.625-2.182" stroke="#26144D" stroke-width="2" stroke-linecap="round" stroke-linejoin="round"/><path d="M112.09 246.693l152.526 96.545M100.41 241.768L247.097 353.09M79.394 229.825l150.419 132.632M69.822 225.372l144.109 146.464" stroke="#6CA3FF" stroke-width="2" stroke-linecap="round" stroke-linejoin="round"/><path d="M218.851 442.381l63.9-37.021v-46.411l-63.9 37.01v46.422z" fill="#004DA9" stroke="#26144D" stroke-width="1.5" stroke-linecap="round" stroke-linejoin="round"/><path d="M227.527 431.045l46.537-26.956v-29.992l-46.537 26.956v29.992z" fill="#248CFF" stroke="#26144D" stroke-width="1.5" stroke-linecap="round" stroke-linejoin="round"/><path d="M270.175 405.888v-28.924m-4.651 31.624v-28.936m-4.181 31.353v-28.924m-4.069 31.275v-28.924m-4.181 31.342V386.85m-4.293 31.42v-28.924m-4.483 31.511v-28.924m-4.528 31.555v-28.925m-4.181 31.343v-28.925m-4.181 31.354v-28.924" stroke="#26144D" stroke-width="1.5" stroke-linecap="round" stroke-linejoin="round"/><path d="M200.817 432.035l17.978 10.413v-46.422l-17.978-10.414v46.423z" fill="#0069EA" stroke="#26144D" stroke-width="1.5" stroke-linecap="round" stroke-linejoin="round"/><path d="M204.672 427.964l10.637 6.152v-29.993l-10.637-6.151v29.992z" fill="#248CFF" stroke="#26144D" stroke-width="1.5" stroke-linecap="round" stroke-linejoin="round"/><path d="M212.07 431.787v-28.924m-3.845 26.698v-28.924" stroke="#26144D" stroke-width="1.5" stroke-linecap="round" stroke-linejoin="round"/><path d="M222.864 397.634l67.52-39.112-28.156-16.307-67.52 39.113 28.156 16.306z" fill="#D8D8D8" stroke="#26144D" stroke-width="1.5" stroke-linecap="round" stroke-linejoin="round"/><path d="M270.22 359.174L213 391.045l-10.043-5.623 55.819-31.399 11.444 5.151z" fill="#B2B4B3" opacity=".46"/><path d="M194.786 387.502l28.156 16.306v-5.994l-28.156-16.306v5.994z" fill="#B2B4B3" stroke="#26144D" stroke-width="1.5" stroke-linecap="round" stroke-linejoin="round"/><path d="M222.886 403.865l67.509-39.113v-5.994l-67.509 39.113v5.994z" fill="#7D7D7B" stroke="#26144D" stroke-width="1.5" stroke-linecap="round" stroke-linejoin="round"/><path d="M228.995 377.83c1.961 1.069 5.133 1.069 7.106 0 1.155-.641 1.625-1.518 1.412-2.35v-11.707h-9.919v11.707c-.213.832.246 1.698 1.412 2.35h-.011z" fill="#fff" stroke="#26144D" stroke-width="1.5" stroke-linecap="round" stroke-linejoin="round"/><path d="M227.616 372.601c-.213.832.247 1.698 1.401 2.35 1.951 1.069 5.111 1.069 7.062 0 1.154-.641 1.614-1.518 1.401-2.35" fill="#fff"/><path d="M227.616 372.601c-.213.832.247 1.698 1.401 2.35 1.951 1.069 5.111 1.069 7.062 0 1.154-.641 1.614-1.518 1.401-2.35" stroke="#26144D" stroke-width="1.5" stroke-linecap="round" stroke-linejoin="round"/><path d="M227.616 369.587c-.213.833.247 1.699 1.401 2.351 1.951 1.068 5.111 1.068 7.062 0 1.154-.641 1.614-1.518 1.401-2.351" fill="#fff"/><path d="M227.616 369.587c-.213.833.247 1.699 1.401 2.351 1.951 1.068 5.111 1.068 7.062 0 1.154-.641 1.614-1.518 1.401-2.351" stroke="#26144D" stroke-width="1.5" stroke-linecap="round" stroke-linejoin="round"/><path d="M227.583 366.708c-.213.833.246 1.699 1.401 2.351 1.95 1.068 5.111 1.068 7.061 0 1.155-.641 1.614-1.518 1.401-2.351" fill="#fff"/><path d="M227.583 366.708c-.213.833.246 1.699 1.401 2.351 1.95 1.068 5.111 1.068 7.061 0 1.155-.641 1.614-1.518 1.401-2.351" stroke="#26144D" stroke-width="1.5" stroke-linecap="round" stroke-linejoin="round"/><path d="M232.47 366.596c-2.817 0-5.1-1.234-5.1-2.755 0-1.522 2.283-2.756 5.1-2.756 2.816 0 5.099 1.234 5.099 2.756 0 1.521-2.283 2.755-5.099 2.755z" fill="#fff" stroke="#26144D" stroke-width="1.5" stroke-linecap="round" stroke-linejoin="round"/><path d="M230.979 363.942c.717.394 1.894.394 2.623 0 .426-.236.605-.551.515-.855v-4.251h-3.665v4.251c-.078.304.09.619.516.855h.011z" fill="#fff" stroke="#26144D" stroke-width="1.5" stroke-linecap="round" stroke-linejoin="round"/><path d="M232.29 359.86c-1.021 0-1.849-.448-1.849-1.001 0-.553.828-1.001 1.849-1.001 1.022 0 1.85.448 1.85 1.001 0 .553-.828 1.001-1.85 1.001z" fill="#fff" stroke="#26144D" stroke-width="1.5" stroke-linecap="round" stroke-linejoin="round"/><path d="M232.201 361.097c-2.817 0-5.1-1.234-5.1-2.755 0-1.522 2.283-2.756 5.1-2.756 2.816 0 5.099 1.234 5.099 2.756 0 1.521-2.283 2.755-5.099 2.755z" fill="#E40133" stroke="#26144D" stroke-width="1.5" stroke-linecap="round" stroke-linejoin="round"/><path d="M212.417 386.737c1.962 1.068 5.134 1.068 7.107 0 1.154-.641 1.625-1.518 1.412-2.35V372.68h-9.92v11.707c-.213.832.247 1.698 1.413 2.35h-.012z" fill="#fff" stroke="#26144D" stroke-width="1.5" stroke-linecap="round" stroke-linejoin="round"/><path d="M211.028 381.508c-.213.832.246 1.698 1.401 2.35 1.95 1.069 5.111 1.069 7.061 0 1.154-.641 1.614-1.518 1.401-2.35" fill="#fff"/><path d="M211.028 381.508c-.213.832.246 1.698 1.401 2.35 1.95 1.069 5.111 1.069 7.061 0 1.154-.641 1.614-1.518 1.401-2.35" stroke="#26144D" stroke-width="1.5" stroke-linecap="round" stroke-linejoin="round"/><path d="M211.028 378.494c-.213.832.246 1.698 1.401 2.351 1.95 1.068 5.111 1.068 7.061 0 1.154-.642 1.614-1.519 1.401-2.351" fill="#fff"/><path d="M211.028 378.494c-.213.832.246 1.698 1.401 2.351 1.95 1.068 5.111 1.068 7.061 0 1.154-.642 1.614-1.519 1.401-2.351" stroke="#26144D" stroke-width="1.5" stroke-linecap="round" stroke-linejoin="round"/><path d="M211.005 375.615c-.213.832.247 1.698 1.401 2.351 1.95 1.068 5.111 1.068 7.062 0 1.154-.641 1.614-1.519 1.401-2.351" fill="#fff"/><path d="M211.005 375.615c-.213.832.247 1.698 1.401 2.351 1.95 1.068 5.111 1.068 7.062 0 1.154-.641 1.614-1.519 1.401-2.351" stroke="#26144D" stroke-width="1.5" stroke-linecap="round" stroke-linejoin="round"/><path d="M215.892 375.503c-2.817 0-5.1-1.234-5.1-2.756 0-1.521 2.283-2.755 5.1-2.755 2.817 0 5.1 1.234 5.1 2.755 0 1.522-2.283 2.756-5.1 2.756z" fill="#fff" stroke="#26144D" stroke-width="1.5" stroke-linecap="round" stroke-linejoin="round"/><path d="M214.401 372.849c.718.393 1.895.393 2.623 0 .426-.236.605-.551.516-.855v-4.251h-3.666v4.251c-.078.304.09.619.516.855h.011z" fill="#fff" stroke="#26144D" stroke-width="1.5" stroke-linecap="round" stroke-linejoin="round"/><path d="M215.713 368.755c-1.022 0-1.85-.448-1.85-1.001 0-.552.828-1.001 1.85-1.001 1.021 0 1.849.449 1.849 1.001 0 .553-.828 1.001-1.849 1.001z" fill="#fff" stroke="#26144D" stroke-width="1.5" stroke-linecap="round" stroke-linejoin="round"/><path d="M215.623 370.004c-2.817 0-5.1-1.234-5.1-2.756 0-1.521 2.283-2.755 5.1-2.755 2.817 0 5.1 1.234 5.1 2.755 0 1.522-2.283 2.756-5.1 2.756z" fill="#E40133" stroke="#26144D" stroke-width="1.5" stroke-linecap="round" stroke-linejoin="round"/><path d="M264.347 357.757c1.961 1.068 5.133 1.068 7.106 0 1.154-.641 1.625-1.518 1.412-2.35V343.7h-9.919v11.707c-.213.832.246 1.698 1.412 2.35h-.011z" fill="#fff" stroke="#26144D" stroke-width="1.5" stroke-linecap="round" stroke-linejoin="round"/><path d="M262.957 352.527c-.213.833.246 1.698 1.401 2.351 1.95 1.068 5.111 1.068 7.061 0 1.155-.641 1.614-1.518 1.401-2.351" fill="#fff"/><path d="M262.957 352.527c-.213.833.246 1.698 1.401 2.351 1.95 1.068 5.111 1.068 7.061 0 1.155-.641 1.614-1.518 1.401-2.351" stroke="#26144D" stroke-width="1.5" stroke-linecap="round" stroke-linejoin="round"/><path d="M262.957 349.502c-.213.833.246 1.699 1.401 2.351 1.95 1.068 5.111 1.068 7.061 0 1.155-.641 1.614-1.518 1.401-2.351" fill="#fff"/><path d="M262.957 349.502c-.213.833.246 1.699 1.401 2.351 1.95 1.068 5.111 1.068 7.061 0 1.155-.641 1.614-1.518 1.401-2.351" stroke="#26144D" stroke-width="1.5" stroke-linecap="round" stroke-linejoin="round"/><path d="M262.934 346.635c-.213.832.247 1.698 1.401 2.35 1.951 1.068 5.112 1.068 7.062 0 1.154-.641 1.614-1.518 1.401-2.35" fill="#fff"/><path d="M262.934 346.635c-.213.832.247 1.698 1.401 2.35 1.951 1.068 5.112 1.068 7.062 0 1.154-.641 1.614-1.518 1.401-2.35" stroke="#26144D" stroke-width="1.5" stroke-linecap="round" stroke-linejoin="round"/><path d="M267.821 346.522c-2.816 0-5.1-1.233-5.1-2.755 0-1.522 2.284-2.755 5.1-2.755 2.817 0 5.1 1.233 5.1 2.755 0 1.522-2.283 2.755-5.1 2.755z" fill="#fff" stroke="#26144D" stroke-width="1.5" stroke-linecap="round" stroke-linejoin="round"/><path d="M266.319 343.857c.718.394 1.895.394 2.623 0 .426-.236.605-.551.516-.855v-4.251h-3.665v4.251c-.079.304.089.619.515.855h.011z" fill="#fff" stroke="#26144D" stroke-width="1.5" stroke-linecap="round" stroke-linejoin="round"/><path d="M267.631 339.775c-1.022 0-1.85-.448-1.85-1.001 0-.553.828-1.001 1.85-1.001 1.021 0 1.849.448 1.849 1.001 0 .553-.828 1.001-1.849 1.001z" fill="#fff" stroke="#26144D" stroke-width="1.5" stroke-linecap="round" stroke-linejoin="round"/><path d="M267.552 341.023c-2.816 0-5.1-1.233-5.1-2.755 0-1.522 2.284-2.755 5.1-2.755 2.817 0 5.1 1.233 5.1 2.755 0 1.522-2.283 2.755-5.1 2.755z" fill="#E40133" stroke="#26144D" stroke-width="1.5" stroke-linecap="round" stroke-linejoin="round"/><path d="M246.133 367.821c1.961 1.069 5.133 1.069 7.106 0 1.154-.641 1.625-1.518 1.412-2.35v-11.707h-9.919v11.707c-.213.832.246 1.698 1.412 2.35h-.011z" fill="#fff" stroke="#26144D" stroke-width="1.5" stroke-linecap="round" stroke-linejoin="round"/><path d="M244.754 362.592c-.213.832.247 1.698 1.401 2.351 1.95 1.068 5.111 1.068 7.062 0 1.154-.641 1.614-1.519 1.401-2.351" fill="#fff"/><path d="M244.754 362.592c-.213.832.247 1.698 1.401 2.351 1.95 1.068 5.111 1.068 7.062 0 1.154-.641 1.614-1.519 1.401-2.351" stroke="#26144D" stroke-width="1.5" stroke-linecap="round" stroke-linejoin="round"/><path d="M244.754 359.579c-.213.832.247 1.698 1.401 2.35 1.95 1.068 5.111 1.068 7.062 0 1.154-.641 1.614-1.518 1.401-2.35" fill="#fff"/><path d="M244.754 359.579c-.213.832.247 1.698 1.401 2.35 1.95 1.068 5.111 1.068 7.062 0 1.154-.641 1.614-1.518 1.401-2.35" stroke="#26144D" stroke-width="1.5" stroke-linecap="round" stroke-linejoin="round"/><path d="M244.72 356.711c-.212.832.247 1.698 1.402 2.35 1.95 1.069 5.111 1.069 7.061 0 1.154-.641 1.614-1.518 1.401-2.35" fill="#fff"/><path d="M244.72 356.711c-.212.832.247 1.698 1.402 2.35 1.95 1.069 5.111 1.069 7.061 0 1.154-.641 1.614-1.518 1.401-2.35" stroke="#26144D" stroke-width="1.5" stroke-linecap="round" stroke-linejoin="round"/><path d="M249.607 356.598c-2.816 0-5.099-1.233-5.099-2.755 0-1.522 2.283-2.755 5.099-2.755 2.817 0 5.1 1.233 5.1 2.755 0 1.522-2.283 2.755-5.1 2.755z" fill="#fff" stroke="#26144D" stroke-width="1.5" stroke-linecap="round" stroke-linejoin="round"/><path d="M248.117 353.933c.717.394 1.894.394 2.622 0 .426-.236.606-.551.516-.854v-4.251h-3.665v4.251c-.079.303.09.618.515.854h.012z" fill="#fff" stroke="#26144D" stroke-width="1.5" stroke-linecap="round" stroke-linejoin="round"/><path d="M249.428 349.851c-1.021 0-1.849-.448-1.849-1.001 0-.553.828-1.001 1.849-1.001s1.849.448 1.849 1.001c0 .553-.828 1.001-1.849 1.001z" fill="#fff" stroke="#26144D" stroke-width="1.5" stroke-linecap="round" stroke-linejoin="round"/><path d="M249.338 351.099c-2.816 0-5.099-1.233-5.099-2.755 0-1.522 2.283-2.755 5.099-2.755 2.817 0 5.1 1.233 5.1 2.755 0 1.522-2.283 2.755-5.1 2.755z" fill="#E40133" stroke="#26144D" stroke-width="1.5" stroke-linecap="round" stroke-linejoin="round"/><path d="M275.589 353.314l8.642 4.926-52.165 29.678m47.502-12.573v28.587" stroke="#fff" stroke-width="1.5" stroke-linecap="round" stroke-linejoin="round"/><path d="M217.125 372.927s36.786 25.269 70.692 38.123c28.033 10.628 106.683 0 106.683 0" stroke="#6CA3FF" stroke-width="2" stroke-linecap="round" stroke-linejoin="round"/><path d="M234.252 364.178s31.451 18.432 61.658 25.933c28.38 7.04 96.59 8.889 96.59 8.889" stroke="#6CA3FF" stroke-width="2" stroke-linecap="round" stroke-linejoin="round"/><path d="M63.768 10.992C56.368 13.58 13.487 165.796 181 101c167.513-64.795 259.097-89.965 132 10" stroke="#26144D" stroke-width="2" stroke-linecap="round" stroke-linejoin="round"/><path d="M47.946 1.19C37.07 10.935-10.02 180.968 169 114.5 348.019 48.032 361 55 288.5 100" stroke="#26144D" stroke-width="2" stroke-linecap="round" stroke-linejoin="round"/><path d="M82.36 111.841l-4.032 9.52-6.07-5.861 1.57 8.736-8.127 2.138 8.627 3.7-2.966 9.848 7.56-6.762 6.921 5.098-1.417-9.001 9.269-6-10.031-.26-1.303-11.156z" fill="#FFBF33"/></g></svg>