<svg width="390" height="356" fill="none" xmlns="http://www.w3.org/2000/svg"><mask id="a" style="mask-type:alpha" maskUnits="userSpaceOnUse" x="0" y="0" width="390" height="356"><path fill="#D9D9D9" d="M0 0h390v356H0z"/></mask><g mask="url(#a)"><path d="M241.151 329.943L21.185 203.065l127.317-73.592 219.966 126.865-127.317 73.605z" fill="#8ED760" stroke="#26144D" stroke-width="1.5" stroke-linecap="round" stroke-linejoin="round"/><path d="M240.942 354.839L20.977 227.973v-25.091l219.965 126.865v25.092z" fill="#956054" stroke="#26144D" stroke-width="1.5" stroke-linecap="round" stroke-linejoin="round"/><path d="M368.377 281.417L241.06 355.022V329.93l127.317-73.605v25.092z" fill="#A9776B" stroke="#26144D" stroke-width="1.5" stroke-linecap="round" stroke-linejoin="round"/><path d="M83.919 197.783v6.847m115.687-7.304v6.847m-34.681-37.011v6.86M90.77 201.213v6.847m21.67-36.555v6.86m-5.926-9.377v6.86m86.71 17.592v6.86m-5.938-2.295v6.86m-48.825 22.391v6.86m-6.16-11.659v6.86m-6.16-1.826v6.847m32.402-63.067v6.859m13.232-6.169v6.86m-94.472 22.848v6.847m23.507-36.789v6.859m92.388 80.791v6.86m115.688-7.317v6.86m-34.682-37.024v6.86m-74.155 27.191v6.859m21.671-36.567v6.859m-5.926-9.363v6.846m86.71 17.593v6.86m-5.939-2.283v6.847m-48.824 22.392v6.859m-6.161-11.658v6.859m-6.16-1.825v6.86m32.403-63.068v6.847m13.231-6.169v6.859m-94.472 22.849v6.859m23.508-36.789v6.847" stroke="#5FAE2C" stroke-width="1.5" stroke-linecap="round" stroke-linejoin="round"/><path d="M221.251 210.994S187.5 197 158.5 181C131 164 110 148 110 148m-13.749-9.006S62.5 125 33.5 109C6 92-15 76-15 76m246.019 109.72s-37.729-16.028-65.404-35.603C138.11 130.673 103.5 105 103.5 105m4.019 4.72S67.675 94.075 40 74.5C12.495 55.056-20 29-20 29m306.212 135.098S251 149.764 225 137c-27.5-13.5-62.5-44.5-62.5-44.5" stroke="#6CA3FF" stroke-width="2" stroke-linecap="round" stroke-linejoin="round"/><path d="M162.712 92.598S126.648 79.87 101.5 65.5c-35-20-110-69-110-69m305.834 191.632S263 175 227 158.5c-36.5-19.5-60.5-53-60.5-53m.334 9.132S125 101 88.5 81.5-7 17.5-7 17.5" stroke="#6CA3FF" stroke-width="2" stroke-linecap="round" stroke-linejoin="round"/><path d="M220.274 213.093c1.706.926 4.467.926 6.186 0 1.003-.56 1.42-1.317 1.224-2.034v-10.172h-8.634v10.172c-.195.73.221 1.474 1.224 2.034z" fill="#fff" stroke="#26144D" stroke-width="1.5" stroke-linecap="round" stroke-linejoin="round"/><path d="M219.076 207.707c-.195.73.221 1.474 1.224 2.034 1.693.926 4.441.926 6.147 0 1.003-.56 1.407-1.317 1.224-2.034m-8.595-3.352c-.195.731.221 1.474 1.224 2.035 1.693.926 4.441.926 6.147 0 1.003-.561 1.407-1.317 1.224-2.035" stroke="#26144D" stroke-width="1.5" stroke-linecap="round" stroke-linejoin="round"/><path d="M223.295 203.338c2.453 0 4.441-1.074 4.441-2.399 0-1.326-1.988-2.4-4.441-2.4-2.452 0-4.441 1.074-4.441 2.4 0 1.325 1.989 2.399 4.441 2.399zm12.881 18.545c1.706.926 4.467.926 6.186 0 1.003-.56 1.419-1.317 1.224-2.034v-10.172h-8.635v10.172c-.195.73.222 1.474 1.225 2.034z" fill="#fff" stroke="#26144D" stroke-width="1.5" stroke-linecap="round" stroke-linejoin="round"/><path d="M234.964 216.51c-.195.73.222 1.473 1.225 2.034 1.693.926 4.441.926 6.147 0 1.003-.561 1.406-1.317 1.224-2.034m-8.596-3.352c-.195.731.222 1.474 1.225 2.035 1.693.926 4.441.926 6.147 0 1.003-.561 1.406-1.318 1.224-2.035" stroke="#26144D" stroke-width="1.5" stroke-linecap="round" stroke-linejoin="round"/><path d="M239.197 212.128c2.453 0 4.441-1.074 4.441-2.399 0-1.326-1.988-2.4-4.441-2.4s-4.441 1.074-4.441 2.4c0 1.325 1.988 2.399 4.441 2.399zm54.842-23.331c1.706.926 4.467.926 6.186 0 1.003-.56 1.419-1.317 1.224-2.034v-10.172h-8.634v10.172c-.196.73.221 1.474 1.224 2.034z" fill="#fff" stroke="#26144D" stroke-width="1.5" stroke-linecap="round" stroke-linejoin="round"/><path d="M292.828 183.411c-.196.73.221 1.474 1.224 2.035 1.693.926 4.441.926 6.147 0 1.003-.561 1.406-1.318 1.224-2.035m-8.595-3.351c-.196.73.221 1.473 1.224 2.034 1.693.926 4.441.926 6.147 0 1.003-.561 1.406-1.317 1.224-2.034" stroke="#26144D" stroke-width="1.5" stroke-linecap="round" stroke-linejoin="round"/><path d="M297.06 179.042c2.453 0 4.441-1.074 4.441-2.399s-1.988-2.4-4.441-2.4c-2.452 0-4.441 1.075-4.441 2.4s1.989 2.399 4.441 2.399zm-66.589 6.73c1.706.926 4.467.926 6.187 0 1.002-.561 1.419-1.317 1.224-2.034v-10.173h-8.635v10.173c-.195.73.222 1.473 1.224 2.034z" fill="#fff" stroke="#26144D" stroke-width="1.5" stroke-linecap="round" stroke-linejoin="round"/><path d="M229.273 180.398c-.195.731.222 1.474 1.224 2.035 1.693.926 4.441.926 6.148 0 1.002-.561 1.406-1.317 1.224-2.035m-8.596-3.351c-.195.73.222 1.474 1.224 2.034 1.693.926 4.441.926 6.148 0 1.002-.56 1.406-1.317 1.224-2.034" stroke="#26144D" stroke-width="1.5" stroke-linecap="round" stroke-linejoin="round"/><path d="M233.506 176.017c2.453 0 4.441-1.074 4.441-2.4 0-1.325-1.988-2.399-4.441-2.399s-4.441 1.074-4.441 2.399c0 1.326 1.988 2.4 4.441 2.4zm49.958-11.032c1.706.926 4.467.926 6.186 0 1.003-.561 1.419-1.317 1.224-2.034v-10.173h-8.634v10.173c-.196.73.221 1.473 1.224 2.034z" fill="#fff" stroke="#26144D" stroke-width="1.5" stroke-linecap="round" stroke-linejoin="round"/><path d="M282.266 159.611c-.196.731.221 1.474 1.224 2.035 1.693.926 4.441.926 6.147 0 1.003-.561 1.406-1.317 1.224-2.035m-8.595-3.351c-.196.73.221 1.473 1.224 2.034 1.693.926 4.441.926 6.147 0 1.003-.561 1.406-1.317 1.224-2.034" stroke="#26144D" stroke-width="1.5" stroke-linecap="round" stroke-linejoin="round"/><path d="M286.485 155.23c2.453 0 4.441-1.074 4.441-2.4 0-1.325-1.988-2.399-4.441-2.399s-4.441 1.074-4.441 2.399c0 1.326 1.988 2.4 4.441 2.4z" fill="#fff" stroke="#26144D" stroke-width="1.5" stroke-linecap="round" stroke-linejoin="round"/><path d="M261.142 292.593l-1.107-64.228 11.33-5.399 16.175 56.038" stroke="#26144D" stroke-width="1.5" stroke-linecap="round" stroke-linejoin="round"/><path d="M234.235 277.752l15.759-55.569v-68.427l10.041-30.439 10.457 29.748v69.901l-10.601-5.256-9.897 4.473 10.041 6.182V124.726m27.232 154.279l-26.125-7.682-26.868 6.56" stroke="#26144D" stroke-width="1.5" stroke-linecap="round" stroke-linejoin="round"/><path d="M243.573 246.049l17.152 9.494 16.735-8.373-16.318 24.153-17.569-25.274z" stroke="#26144D" stroke-width="1.5" stroke-linecap="round" stroke-linejoin="round"/><path d="M247.753 233.49l12.972 7.264 13.531-5.868-13.531 20.657-12.972-22.053zm45.596-58.086l-54.373 31.13 21.059-21.779 9.897-5.856 23.417-3.495zm-10.875-6.233l-54.373 31.142 21.046-21.778 9.911-5.869 23.416-3.495zm1.953-13.733l-38.197 21.088 13.518-17.176 10.744-6.286 13.935 2.374zm-10.731-4.747l-38.211 21.088 13.532-17.176 10.731-6.286 13.948 2.374zm7.801 110.864l-20.355 31.038-20.773-33.281 20.773 12.011 20.225-10.746" stroke="#26144D" stroke-width="1.5" stroke-linecap="round" stroke-linejoin="round"/><path d="M270.909 223.853l-10.744 15.923-9.611-15.78m9.194-64.645l-9.754-5.595m-11.018 52.778l-10.732-6.142m65.105-24.987l-10.875-5.869m-36.244 6.989l-10.745-4.747m48.942-16.34l-10.731-4.747m-3.764 28.208l-8.79-5.725m-1.107 11.581l-9.768-5.999m19.522 27.23l-9.207 4.043-10.028-6.286" stroke="#26144D" stroke-width="1.5" stroke-linecap="round" stroke-linejoin="round"/><path d="M92.42 141.776c1.706.926 4.467.926 6.186 0 1.003-.561 1.419-1.317 1.224-2.034v-10.173h-8.635v10.173c-.195.73.222 1.473 1.225 2.034z" fill="#fff" stroke="#26144D" stroke-width="1.5" stroke-linecap="round" stroke-linejoin="round"/><path d="M91.221 136.39c-.195.73.222 1.473 1.225 2.034 1.693.926 4.44.926 6.147 0 1.002-.561 1.406-1.317 1.224-2.034m-8.596-3.352c-.195.73.222 1.474 1.225 2.035 1.693.925 4.44.925 6.147 0 1.002-.561 1.406-1.318 1.224-2.035" stroke="#26144D" stroke-width="1.5" stroke-linecap="round" stroke-linejoin="round"/><path d="M95.441 132.021c2.453 0 4.441-1.074 4.441-2.4 0-1.325-1.988-2.399-4.441-2.399S91 128.296 91 129.621c0 1.326 1.988 2.4 4.441 2.4zm12.88 18.545c1.706.926 4.467.926 6.186 0 1.003-.561 1.42-1.317 1.224-2.034v-10.173h-8.634v10.173c-.195.73.221 1.473 1.224 2.034z" fill="#fff" stroke="#26144D" stroke-width="1.5" stroke-linecap="round" stroke-linejoin="round"/><path d="M107.11 145.192c-.195.731.221 1.474 1.224 2.035 1.693.926 4.441.926 6.147 0 1.003-.561 1.407-1.317 1.224-2.035m-8.595-3.351c-.195.73.221 1.473 1.224 2.034 1.693.926 4.441.926 6.147 0 1.003-.561 1.407-1.317 1.224-2.034" stroke="#26144D" stroke-width="1.5" stroke-linecap="round" stroke-linejoin="round"/><path d="M111.343 140.811c2.452 0 4.441-1.074 4.441-2.4 0-1.325-1.989-2.399-4.441-2.399-2.453 0-4.441 1.074-4.441 2.399 0 1.326 1.988 2.4 4.441 2.4zm54.841-23.331c1.706.926 4.467.926 6.186 0 1.003-.561 1.42-1.317 1.225-2.034v-10.173h-8.635v10.173c-.195.73.221 1.473 1.224 2.034z" fill="#fff" stroke="#26144D" stroke-width="1.5" stroke-linecap="round" stroke-linejoin="round"/><path d="M164.973 112.094c-.195.73.221 1.473 1.224 2.034 1.693.926 4.441.926 6.147 0 1.003-.561 1.407-1.317 1.225-2.034m-8.596-3.352c-.195.73.221 1.474 1.224 2.035 1.693.926 4.441.926 6.147 0 1.003-.561 1.407-1.318 1.225-2.035" stroke="#26144D" stroke-width="1.5" stroke-linecap="round" stroke-linejoin="round"/><path d="M169.206 107.725c2.452 0 4.441-1.074 4.441-2.4 0-1.325-1.989-2.399-4.441-2.399-2.453 0-4.441 1.074-4.441 2.399 0 1.326 1.988 2.4 4.441 2.4zm-66.589 6.73c1.706.926 4.467.926 6.186 0 1.003-.561 1.42-1.317 1.224-2.035v-10.172h-8.634v10.172c-.196.731.221 1.474 1.224 2.035z" fill="#fff" stroke="#26144D" stroke-width="1.5" stroke-linecap="round" stroke-linejoin="round"/><path d="M101.419 109.081c-.196.73.221 1.474 1.224 2.034 1.693.926 4.441.926 6.147 0 1.003-.56 1.407-1.317 1.224-2.034m-8.595-3.352c-.196.731.221 1.474 1.224 2.035 1.693.926 4.441.926 6.147 0 1.003-.561 1.407-1.317 1.224-2.035" stroke="#26144D" stroke-width="1.5" stroke-linecap="round" stroke-linejoin="round"/><path d="M105.651 104.7c2.453 0 4.441-1.075 4.441-2.4s-1.988-2.4-4.441-2.4c-2.452 0-4.441 1.075-4.441 2.4s1.989 2.4 4.441 2.4zm49.958-11.032c1.706.925 4.467.925 6.186 0 1.003-.561 1.42-1.318 1.225-2.035V81.461h-8.635v10.172c-.195.73.221 1.474 1.224 2.035z" fill="#fff" stroke="#26144D" stroke-width="1.5" stroke-linecap="round" stroke-linejoin="round"/><path d="M154.411 88.294c-.195.73.221 1.474 1.224 2.034 1.693.926 4.441.926 6.147 0 1.003-.56 1.407-1.317 1.225-2.034m-8.596-3.352c-.195.73.221 1.474 1.224 2.035 1.693.926 4.441.926 6.147 0 1.003-.561 1.407-1.317 1.225-2.035" stroke="#26144D" stroke-width="1.5" stroke-linecap="round" stroke-linejoin="round"/><path d="M158.631 83.912c2.452 0 4.441-1.074 4.441-2.4 0-1.324-1.989-2.399-4.441-2.399-2.453 0-4.441 1.075-4.441 2.4s1.988 2.4 4.441 2.4z" fill="#fff" stroke="#26144D" stroke-width="1.5" stroke-linecap="round" stroke-linejoin="round"/><path d="M133.287 221.276l-1.107-64.228 11.33-5.4 16.176 56.039" stroke="#26144D" stroke-width="1.5" stroke-linecap="round" stroke-linejoin="round"/><path d="M106.381 206.435l15.758-55.569V82.438L132.18 52l10.458 29.747v69.901l-10.601-5.255-9.898 4.473 10.041 6.181V53.409m27.232 154.278l-26.125-7.681-26.867 6.56" stroke="#26144D" stroke-width="1.5" stroke-linecap="round" stroke-linejoin="round"/><path d="M115.718 174.731l17.152 9.494 16.735-8.372-16.318 24.152-17.569-25.274z" stroke="#26144D" stroke-width="1.5" stroke-linecap="round" stroke-linejoin="round"/><path d="M119.899 162.173l12.971 7.264 13.532-5.869-13.532 20.658-12.971-22.053zm45.595-58.086l-54.373 31.129 21.059-21.778 9.898-5.856 23.416-3.495zm-10.875-6.234l-54.372 31.143 21.046-21.779 9.91-5.868 23.416-3.496zm1.954-13.733l-38.198 21.088 13.519-17.175 10.744-6.286 13.935 2.374zm-10.731-4.746l-38.211 21.087 13.531-17.175L131.894 77l13.948 2.374zm7.801 110.863l-20.356 31.038-20.772-33.281 20.772 12.011 20.225-10.746" stroke="#26144D" stroke-width="1.5" stroke-linecap="round" stroke-linejoin="round"/><path d="M143.055 152.535l-10.745 15.924-9.611-15.78m9.195-64.646l-9.755-5.594m-11.018 52.778l-10.731-6.143m65.104-24.987l-10.875-5.868m-36.244 6.989l-10.744-4.747m48.942-16.34l-10.731-4.747m-3.764 28.208l-8.791-5.726m-1.107 11.581l-9.767-5.999m19.522 27.231l-9.208 4.043-10.028-6.286" stroke="#26144D" stroke-width="1.5" stroke-linecap="round" stroke-linejoin="round"/><path d="M242.153 222.131s31.712 19.849 65.404 29.89C341.249 262.063 407 266.5 407 266.5m-108.104-77.037s32.351 21.375 67.006 32.642c34.655 11.268 70.795 16.106 70.795 16.106m-202.188-51.904s35.28 24.074 73.27 37.05C344.804 235.994 395.5 246 395.5 246m-108.077-79.803s33.757 23.044 70.118 35.459c35.424 12.103 74.364 18.089 74.364 18.089" stroke="#6CA3FF" stroke-width="2" stroke-linecap="round" stroke-linejoin="round"/><path d="M106 207.116L280.481 307 307 291.753 134.327 191 106 207.116z" fill="#B2B4B3" opacity=".46"/></g></svg>