<?xml version="1.0" encoding="utf-8"?><svg viewBox="0 0 85 70" xmlns="http://www.w3.org/2000/svg" xmlns:xlink="http://www.w3.org/1999/xlink"><style>:root>svg{display:none}:root>svg:target{display:block}</style><svg viewBox="0 0 9 13" fill="none" id="about--arrow-right" xmlns="http://www.w3.org/2000/svg"><path fill-rule="evenodd" clip-rule="evenodd" d="m1.622 0 6.57 6.574-6.407 6.41L.17 11.367l4.792-4.794L.007 1.616 1.622.001z" fill="currentColor"/></svg><svg fill="none" viewBox="0 0 70 70" id="career--benefits--icon-1" xmlns="http://www.w3.org/2000/svg"><circle cx="35" cy="35" r="35" fill="#EEF1F6"/><path d="M48.17 29.765c0 7.037-5.786 12.765-12.952 12.765s-12.952-5.728-12.952-12.765C22.266 22.728 28.052 17 35.218 17S48.17 22.728 48.17 29.765z" stroke="#5D7185" stroke-width="2"/><path d="M42.066 29.765c0 3.711-3.053 6.743-6.848 6.743s-6.848-3.032-6.848-6.743c0-3.711 3.053-6.743 6.848-6.743s6.848 3.032 6.848 6.743zm9.97 19.38c3.158 0-2.466-8.43-5.536-12.145-3 3.5-6.892 5.265-8.5 5.54 4.562 11.227 6.14 11.145 7.018 9.907l2.632-3.303h4.386zm-34.103 0c-3.158 0 2.996-8.93 6.067-12.645 1.5 2.5 6.36 5.765 7.968 6.04-4.561 11.227-6.14 11.145-7.017 9.907l-2.632-3.303h-4.386z" stroke="#5D7185" stroke-width="2"/></svg><svg fill="none" viewBox="0 0 70 70" id="career--benefits--icon-2" xmlns="http://www.w3.org/2000/svg"><circle cx="35" cy="35" r="35" fill="#EEF1F6"/><path d="m28.5 34.747 5.5 5.066 9-11.146m-23-7.094v17.734c0 9.12 9.5 12.666 12 13.68L34.5 54l2.5-1.013c2-1.014 13-3.547 13-13.68V21.573c-2.833 0-9.8-1.114-15-5.573-2.5 1.858-9 5.573-15 5.573z" stroke="#5D7185" stroke-width="2"/></svg><svg fill="none" viewBox="0 0 70 70" id="career--benefits--icon-3" xmlns="http://www.w3.org/2000/svg"><circle cx="35" cy="35" r="35" fill="#EEF1F6"/><rect x="17" y="36" width="5" height="14" rx="1" stroke="#5D7185" stroke-width="2"/><path d="M22.5 39c2-1.167 8.9-2.5 14.5 1.5h6.5c1.292 0 2.584 2.226 1 3.482M35.5 45c4 .4 7-.167 8-.5a3.248 3.248 0 0 0 1-.518M22.5 47 36 51.5c.667.167 2.2.5 3 .5.5 0 1.7-.1 2.5-.5l10-6c2.5-1.5 1-5.214-3-3.5l-4 1.982M35 35c0-11.5 2-18 17.5-18 0 15.5-7 18-17.5 18zm0 0 10-10.5" stroke="#5D7185" stroke-width="2"/></svg><svg fill="none" viewBox="0 0 70 70" id="career--benefits--icon-4" xmlns="http://www.w3.org/2000/svg"><circle cx="35" cy="35" r="35" fill="#EEF1F6"/><path d="M41 35c0 5.16-.772 9.788-1.989 13.09-.61 1.654-1.311 2.923-2.04 3.76C36.24 52.69 35.57 53 35 53c-.57 0-1.24-.31-1.97-1.15-.73-.837-1.432-2.106-2.041-3.76C29.772 44.787 29 40.16 29 35s.772-9.788 1.989-13.09c.61-1.654 1.311-2.923 2.04-3.76C33.76 17.31 34.43 17 35 17c.57 0 1.24.31 1.97 1.15.73.837 1.432 2.106 2.041 3.76C40.228 25.213 41 29.84 41 35z" stroke="#5D7185" stroke-width="2"/><path d="M38.441 30.085c4.227 2.96 7.575 6.247 9.582 9.137 1.006 1.448 1.642 2.751 1.91 3.829.268 1.08.139 1.806-.188 2.273-.328.468-.966.838-2.073.955-1.103.117-2.546-.036-4.25-.485-3.403-.897-7.637-2.92-11.864-5.879-4.227-2.96-7.574-6.247-9.581-9.137-1.006-1.448-1.643-2.751-1.91-3.828-.268-1.08-.14-1.807.188-2.274.327-.468.966-.838 2.072-.955 1.104-.117 2.546.036 4.251.485 3.403.898 7.636 2.92 11.863 5.88z" stroke="#5D7185" stroke-width="2"/><path d="M38.441 39.915c-4.227 2.96-8.46 4.981-11.862 5.879-1.705.45-3.148.602-4.252.485-1.106-.117-1.744-.487-2.072-.955-.327-.467-.456-1.193-.188-2.273.267-1.078.904-2.38 1.91-3.83 2.007-2.89 5.354-6.176 9.581-9.136 4.227-2.96 8.461-4.981 11.863-5.879 1.705-.45 3.148-.602 4.251-.485 1.107.117 1.745.487 2.073.955.327.467.456 1.193.188 2.273-.267 1.078-.904 2.38-1.91 3.83-2.007 2.89-5.355 6.176-9.582 9.136z" stroke="#5D7185" stroke-width="2"/></svg><svg fill="none" viewBox="0 0 70 70" id="career--benefits--icon-5" xmlns="http://www.w3.org/2000/svg"><circle cx="35" cy="35" r="35" fill="#EEF1F6"/><path d="M43.73 53H50c-1.14-.923-2.736-3.415 0-6H23.21c-3.99 0-4.56 6 0 6h10.26" stroke="#5D7185" stroke-width="2"/><path d="M20 50V22.459c0-1.82.462-5.459 4.615-5.459h19.616C48.269 17 50 19.426 50 22.459V47m-15.111 3v7l3.611-3 3.611 3v-7m-7.222 0h7.222m-7.222 0H32m10.111 0H45M25 21v22" stroke="#5D7185" stroke-width="2"/></svg><svg viewBox="0 0 22 22" fill="none" id="career--chevron-right" xmlns="http://www.w3.org/2000/svg"><path d="m8.25 16.5 5.5-5.5-5.5-5.5" stroke="currentColor" stroke-width="2" stroke-linecap="round" stroke-linejoin="round"/></svg><svg fill="none" viewBox="0 0 52 52" id="career--hero--icon-1" xmlns="http://www.w3.org/2000/svg"><circle cx="26" cy="26" r="26" fill="#B1EAFF"/><path d="M26 14.004a3.996 3.996 0 1 0 0 7.992 3.996 3.996 0 0 0 0-7.992zM35 16a3 3 0 1 0 0 6 3 3 0 0 0 0-6zm-18 0a3 3 0 1 0 0 6 3 3 0 0 0 0-6zm3 9.986A2 2 0 0 1 22 24h8a2 2 0 0 1 2 2v6a6.04 6.04 0 0 1-.292 1.854A6.002 6.002 0 0 1 20 32v-6.014zM18 26c0-.73.194-1.412.536-2H14a2 2 0 0 0-2 2v5a5 5 0 0 0 6.872 4.638 7.966 7.966 0 0 1-.872-3.64V26zm16 0v6a7.97 7.97 0 0 1-.872 3.638A5 5 0 0 0 40 31v-5a2 2 0 0 0-2-2h-4.536c.34.588.536 1.27.536 2z" fill="#27B9EA"/></svg><svg fill="none" viewBox="0 0 52 52" id="career--hero--icon-2" xmlns="http://www.w3.org/2000/svg"><circle cx="26" cy="26" r="26" fill="#B1EAFF"/><path d="M18.906 14h15.38l-.578 4.776c-.206 1.7-.598 3.37-1.17 4.98l-.313.884c-.859 2.417-3.11 4.027-5.633 4.027-2.52 0-4.769-1.606-5.63-4.017l-.309-.865a23.124 23.124 0 0 1-1.183-5.041L18.906 14z" fill="#27B9EA"/><path fill-rule="evenodd" clip-rule="evenodd" d="M15.036 18.434c-.259-1.473.932-2.6 2.228-2.6h3.21v1.805h-3.21a.528.528 0 0 0-.393.165.354.354 0 0 0-.09.312c.256 1.463.846 3.175 1.926 4.537 1.06 1.336 2.604 2.357 4.87 2.487l-.1 1.803c-2.814-.162-4.806-1.463-6.149-3.156-1.322-1.668-2.001-3.693-2.292-5.353zm22.928 0c.259-1.473-.932-2.6-2.228-2.6h-3.21v1.805h3.21a.53.53 0 0 1 .393.165.354.354 0 0 1 .09.312c-.256 1.463-.846 3.175-1.926 4.537-1.06 1.336-2.604 2.357-4.87 2.487l.1 1.803c2.814-.162 4.806-1.463 6.149-3.156 1.322-1.668 2.001-3.693 2.292-5.353z" fill="#27B9EA"/><path d="M30.37 28.86a1.751 1.751 0 0 1-1.69 1.334h-4.141a1.751 1.751 0 0 1-1.69-1.333l-.535-2.111a10.09 10.09 0 0 0 8.59 0l-.535 2.11z" fill="#27B9EA"/><path d="M25.123 29.389h2.972v6.167h-2.972v-6.167z" fill="#27B9EA"/><path d="M23.487 36.083c0-1.027.818-1.86 1.827-1.86h2.563c1.009 0 1.827.833 1.827 1.86h-6.217z" fill="#27B9EA"/><path d="M21.905 39c0-1.902 1.514-3.444 3.381-3.444h2.618c1.868 0 3.382 1.542 3.382 3.444h-9.38z" fill="#27B9EA"/></svg><svg fill="none" viewBox="0 0 18 18" id="career--search" xmlns="http://www.w3.org/2000/svg"><path d="M8.25 14.25a6 6 0 1 0 0-12 6 6 0 0 0 0 12zm7.5 1.5-3.262-3.262" stroke="#667790" stroke-width="1.5" stroke-linecap="round" stroke-linejoin="round"/></svg><svg viewBox="0 0 8 15" fill="none" id="promo--chevron-right" xmlns="http://www.w3.org/2000/svg"><path d="M1 13.473 7 7.5 1 1.527" stroke="currentColor" stroke-width="2" stroke-linecap="round" stroke-linejoin="round"/></svg><svg fill="none" viewBox="0 0 27 27" id="promo--close" xmlns="http://www.w3.org/2000/svg"><path fill-rule="evenodd" clip-rule="evenodd" d="M21.608 6.983a1.125 1.125 0 0 0-1.59-1.591L13.5 11.909 6.983 5.392a1.125 1.125 0 0 0-1.59 1.59l6.516 6.518-6.517 6.517a1.124 1.124 0 1 0 1.591 1.59l6.517-6.516 6.517 6.517a1.125 1.125 0 0 0 1.591-1.591L15.091 13.5l6.517-6.517z" fill="currentColor"/></svg><svg viewBox="0 0 85 11" fill="none" id="promo--long-back-arrow" xmlns="http://www.w3.org/2000/svg"><path d="M0 5.5 7.59.737v9.526L0 5.5z" fill="currentColor"/><path stroke="currentColor" d="M6.748 5.5h78"/></svg><svg fill="none" viewBox="0 0 40 44" id="promo--sdpp" xmlns="http://www.w3.org/2000/svg"><path fill-rule="evenodd" clip-rule="evenodd" d="M6.787 41.977h31.215V28.069H6.787v13.908zm11.364-33.38.822 17.45H14.71l.699-17.45h2.743zm11.986 0 .823 17.45h-4.265l.7-17.45h2.742zM4.79 27.058v14.92H2.039l1.338-33.38h2.742l.823 17.45H5.788a.987.987 0 0 0-.706.295 1.011 1.011 0 0 0-.292.716zM2.417 6.576a.993.993 0 0 0-.692.282c-.186.18-.295.427-.306.688L.001 42.947a1.022 1.022 0 0 0 .277.742.998.998 0 0 0 .72.311h38.003a.993.993 0 0 0 .707-.296 1.02 1.02 0 0 0 .292-.716v-15.93a1.02 1.02 0 0 0-.292-.716.992.992 0 0 0-.707-.296H32.96l-.873-18.508a1.016 1.016 0 0 0-.308-.684.992.992 0 0 0-.69-.28h-4.654a.992.992 0 0 0-.692.283c-.186.18-.295.427-.306.688l-.741 18.501h-3.723l-.872-18.508a1.017 1.017 0 0 0-.308-.684.992.992 0 0 0-.69-.28H14.45a.992.992 0 0 0-.692.283c-.186.18-.296.427-.306.688l-.742 18.501H8.943L8.07 7.538a1.017 1.017 0 0 0-.309-.684.992.992 0 0 0-.69-.28H2.418zM5.156 3.59c0-.852.554-1.568 1.517-1.568.508 0 .788.268 1.467.98.627.659 1.544 1.6 3.17 1.6 1.202 0 2.054-.423 2.65-1.024.474-.477.762-1.055.923-1.38l.064-.128-1.769-.94-.1.194c-.168.333-.3.591-.525.82-.215.216-.557.434-1.242.434-.731 0-1.131-.349-1.733-.98l-.109-.115C8.917.896 8.074 0 6.673 0c-2.26 0-3.515 1.83-3.515 3.59h1.998z" fill="#000"/></svg><svg fill="none" viewBox="0 0 42 48" id="promo--wpp" xmlns="http://www.w3.org/2000/svg"><path fill-rule="evenodd" clip-rule="evenodd" d="M14.766 6.578C7.606 9.219 3.02 16.27 3.62 23.558l-2.343.172C.599 15.486 5.768 7.508 13.914 4.503l.852 2.075zm23.578 16.98c.602-7.288-3.986-14.339-11.146-16.98l.851-2.075c8.146 3.005 13.316 10.982 12.638 19.227l-2.343-.172zm-20.886-1.284c0-1.95 1.609-3.475 3.523-3.475 1.913 0 3.522 1.524 3.522 3.475 0 1.95-1.609 3.475-3.523 3.475-1.913 0-3.522-1.524-3.522-3.475zm-.215 4.399a5.68 5.68 0 0 1-2.051-3.44c-1.545.56-2.798 1.425-3.91 2.251-1.536 1.14-4.298 3.54-6.926 6.02a115.827 115.827 0 0 0 8.666-2.624 16.125 16.125 0 0 0 4.221-2.207zm5.011 1.168a6.087 6.087 0 0 1-2.706-.036l-1.512 17.968h5.827l-1.609-17.932zm4.492-4.484a5.69 5.69 0 0 1-2.11 3.38c1.294 1.022 2.732 1.638 4.062 2.155 1.805.7 5.375 1.783 8.944 2.719a110.206 110.206 0 0 0-6.693-5.835 16.085 16.085 0 0 0-4.203-2.42zm-3.69-6.42c.129-1.307-.012-2.547-.182-3.688-.267-1.83-1.077-5.298-2.02-8.696a99.718 99.718 0 0 0-1.952 8.422 14.356 14.356 0 0 0-.167 4.028 6.011 6.011 0 0 1 2.245-.43 6.015 6.015 0 0 1 2.076.365zm2.157 1.387c.423-2.052.203-3.921-.012-5.383-.372-2.521-1.655-7.745-2.95-11.942-.417-1.35-2.416-1.318-2.812.011-1.06 3.543-2.04 7.237-2.847 11.577a16.565 16.565 0 0 0-.018 5.918 5.648 5.648 0 0 0-1.28 2.348c-2.357.655-4.127 1.89-5.46 2.878-2.116 1.57-6.241 5.241-9.42 8.408-1.025 1.018.006 2.64 1.42 2.3 3.764-.906 7.627-1.956 11.992-3.468a18.53 18.53 0 0 0 3.224-1.475l-1.457 17.302a1.06 1.06 0 0 0 .061.453c.053.145.137.278.248.391.11.113.243.203.392.265.148.062.309.093.47.093h8.379c.329 0 .643-.13.866-.36.22-.23.332-.537.305-.847l-1.55-17.247c1.075.619 2.134 1.053 3.044 1.406 2.487.964 7.894 2.541 12.374 3.592 1.438.339 2.413-1.314 1.403-2.309-2.695-2.651-5.572-5.312-9.12-8.159-2.305-1.85-4.574-2.717-5.772-3.125a5.648 5.648 0 0 0-1.48-2.627z" fill="#000"/></svg></svg>