<svg width="1447" height="1024" viewBox="0 0 1447 1024" fill="none" xmlns="http://www.w3.org/2000/svg">
<mask id="mask0_1319_3" style="mask-type:alpha" maskUnits="userSpaceOnUse" x="0" y="0" width="1447" height="1024">
<rect width="1447" height="1024" fill="#D9D9D9"/>
</mask>
<g mask="url(#mask0_1319_3)">
<path d="M274.336 717.507C383.812 572.661 402.071 497.534 402.071 497.534L343.045 480.362L-244.068 1226.09C-244.068 1226.09 -230.471 1239.33 -211.877 1229.31C-193.284 1219.29 155.822 874.3 274.336 717.482V717.507Z" fill="#EFEFEF" stroke="#26144D" stroke-width="1.5" stroke-linecap="round" stroke-linejoin="round"/>
<path d="M365.554 392.362L331.199 490.016C331.199 490.016 339.646 506.365 359.811 517.565C385.563 531.879 400.964 524.362 400.964 524.362L458.933 461.052L365.554 392.388V392.362Z" fill="#D2233C" stroke="#26144D" stroke-width="1.5" stroke-linecap="round" stroke-linejoin="round"/>
<path d="M546.956 253.952C546.956 253.952 372.017 141.288 305.472 243.216C234.522 351.89 420.304 447.098 420.304 447.098L546.956 253.952Z" fill="#EFEFEF" stroke="#26144D" stroke-width="1.5" stroke-linecap="round" stroke-linejoin="round"/>
<path d="M879.682 289.379C682.853 333.559 534.079 320.505 534.079 320.505L527.641 259.333L1559.07 -13.2129C1559.07 -13.2129 1547.61 25.406 1537.59 38.2789C1527.57 51.1519 1352.99 183.125 879.656 289.353L879.682 289.379Z" fill="#D6D6D6" stroke="#26144D" stroke-width="1.5" stroke-linecap="round" stroke-linejoin="round"/>
<path d="M454.658 -80.8212C490.789 76.3832 469.671 188.507 469.671 188.507L388.112 202.461L119.768 -834.069C119.768 -834.069 171.273 -821.196 187.395 -805.105C203.49 -789.014 399.907 -319.022 454.632 -80.8212H454.658Z" fill="#EFEFEF" stroke="#26144D" stroke-width="1.5" stroke-linecap="round" stroke-linejoin="round"/>
<path d="M380.592 179.907C380.592 179.907 385.949 237.861 389.168 259.308C390.765 269.992 417.187 277.072 442.837 273.262C468.487 269.452 493.827 254.545 492.205 239.998C488.986 211.034 473.946 165.953 473.946 165.953C473.946 165.953 456.769 183.126 424.578 186.344C392.387 189.562 380.566 179.907 380.566 179.907H380.592Z" fill="#D2233C" stroke="#26144D" stroke-width="1.5" stroke-linecap="round" stroke-linejoin="round"/>
<path d="M618.369 658.034C602.067 670.161 574.022 684.089 531.556 684.089C491.304 684.089 465.783 671.551 450.795 659.94L451.258 635.095C466.71 645.548 490.995 655.614 527.075 655.614C572.039 655.614 600.831 639.987 616.669 627.474L618.394 658.034H618.369Z" fill="#D2233C" stroke="#26144D" stroke-width="1.5" stroke-linecap="round" stroke-linejoin="round"/>
<path d="M527.049 655.614C490.969 655.614 466.71 645.548 451.232 635.095L455.121 426.347L607.99 474.312L616.617 627.474C600.805 639.987 571.988 655.614 527.023 655.614H527.049Z" fill="#D6D6D6" stroke="#26144D" stroke-width="1.5" stroke-linecap="round" stroke-linejoin="round"/>
<path d="M441.42 1195.69L450.794 659.914C465.782 671.526 491.329 684.064 531.555 684.064C574.021 684.064 602.066 670.109 618.368 658.009L648.911 1195.69" fill="#D6D6D6"/>
<path d="M441.42 1195.69L450.794 659.914C465.782 671.526 491.329 684.064 531.555 684.064C574.021 684.064 602.066 670.109 618.368 658.009L648.911 1195.69" stroke="#26144D" stroke-width="1.5" stroke-linecap="round" stroke-linejoin="round"/>
<path d="M932.245 608.062C925.034 617.356 823.182 674.46 808.039 677.678C809.919 642.922 812.649 581.826 808.812 578.016C808.812 578.016 841.672 564.422 873.22 545.834C894.517 533.27 918.596 517.668 937.087 505.335C937.396 505.67 937.576 505.953 937.627 506.134C940.846 516.844 939.765 598.407 932.245 608.062Z" fill="#D6D6D6" stroke="#26144D" stroke-width="1.5" stroke-linecap="round" stroke-linejoin="round"/>
<path d="M937.086 505.335C918.595 517.668 894.517 533.27 873.219 545.833C841.672 564.422 808.811 578.016 808.811 578.016C804.201 573.407 489.811 378.202 402.045 323.749C410.621 309.769 540.492 238.942 545.875 244.323C551.128 249.575 920.887 486.721 937.086 505.335Z" fill="#EFEFEF" stroke="#26144D" stroke-width="1.5" stroke-linecap="round" stroke-linejoin="round"/>
<path d="M808.039 677.678C807.447 677.807 806.983 677.859 806.674 677.807C798.098 676.726 402.045 455.697 402.045 455.697C395.607 448.179 393.469 337.781 402.045 323.75C489.811 378.202 804.202 573.407 808.811 578.016C812.649 581.826 809.919 642.921 808.039 677.678Z" fill="#999999" stroke="#26144D" stroke-width="1.5" stroke-linecap="round" stroke-linejoin="round"/>
<path d="M862.583 302.38V475.007C862.583 480.696 856.814 485.305 849.707 485.305C842.599 485.305 836.83 480.696 836.83 475.007V302.38C836.83 300.501 838.066 298.647 840.59 297.231C845.638 294.373 853.775 294.373 858.797 297.231C861.321 298.647 862.583 300.501 862.583 302.38Z" fill="#D6D6D6" stroke="#26144D" stroke-width="1.5" stroke-linecap="round" stroke-linejoin="round"/>
<path d="M862.583 302.38C862.583 304.234 861.321 306.114 858.797 307.53C853.775 310.362 845.638 310.362 840.59 307.53C838.066 306.114 836.83 304.234 836.83 302.38C836.83 300.527 838.066 298.647 840.59 297.231C845.638 294.373 853.775 294.373 858.797 297.231C861.321 298.647 862.583 300.501 862.583 302.38Z" stroke="#26144D" stroke-width="1.4" stroke-linecap="round" stroke-linejoin="round"/>
<path d="M782.362 409.535V524.078C782.362 529.768 776.594 534.377 769.486 534.377C762.378 534.377 756.609 529.768 756.609 524.078V409.535C756.609 407.655 757.845 405.802 760.369 404.386C765.417 401.528 773.555 401.528 778.577 404.386C781.1 405.802 782.362 407.655 782.362 409.535Z" fill="#D6D6D6" stroke="#26144D" stroke-width="1.5" stroke-linecap="round" stroke-linejoin="round"/>
<path d="M782.362 409.535C782.362 411.388 781.1 413.268 778.577 414.684C773.555 417.516 765.417 417.516 760.369 414.684C757.845 413.268 756.609 411.388 756.609 409.535C756.609 407.681 757.845 405.802 760.369 404.386C765.417 401.528 773.555 401.528 778.577 404.386C781.1 405.802 782.362 407.655 782.362 409.535Z" stroke="#26144D" stroke-width="1.4" stroke-linecap="round" stroke-linejoin="round"/>
<path d="M811.103 564.705L775.436 544.109V511.9L811.103 532.497V564.705Z" fill="#999999" stroke="#26144D" stroke-width="1.5" stroke-linecap="round" stroke-linejoin="round"/>
<path d="M888.233 520.165L811.541 564.422V532.24L888.233 487.957V520.165Z" fill="#D6D6D6" stroke="#26144D" stroke-width="1.5" stroke-linecap="round" stroke-linejoin="round"/>
<path d="M810.613 532.369L887.28 488.111L851.586 467.515L774.92 511.772L810.613 532.369Z" fill="#EFEFEF" stroke="#26144D" stroke-width="1.5" stroke-linecap="round" stroke-linejoin="round"/>
<path d="M849.63 644.647L846.978 646.192C845.561 647.015 844.402 646.14 844.402 644.235V583.475C844.402 581.569 845.561 579.355 846.978 578.531L849.63 576.987C851.047 576.163 852.205 577.038 852.205 578.943V639.704C852.205 641.609 851.047 643.823 849.63 644.647Z" stroke="#26144D" stroke-width="1.3" stroke-linecap="round" stroke-linejoin="round"/>
<path d="M864.103 636.279L861.45 637.824C860.034 638.648 858.875 637.772 858.875 635.867V575.107C858.875 573.202 860.034 570.988 861.45 570.164L864.103 568.619C865.519 567.795 866.678 568.67 866.678 570.576V631.336C866.678 633.241 865.519 635.455 864.103 636.279Z" stroke="#26144D" stroke-width="1.3" stroke-linecap="round" stroke-linejoin="round"/>
<path d="M879.296 627.525L876.644 629.07C875.227 629.894 874.068 629.019 874.068 627.113V566.353C874.068 564.448 875.227 562.234 876.644 561.41L879.296 559.865C880.713 559.041 881.871 559.917 881.871 561.822V622.582C881.871 624.487 880.713 626.701 879.296 627.525Z" stroke="#26144D" stroke-width="1.3" stroke-linecap="round" stroke-linejoin="round"/>
<path d="M894.234 618.875L891.581 620.42C890.165 621.244 889.006 620.368 889.006 618.463V557.703C889.006 555.797 890.165 553.583 891.581 552.759L894.234 551.215C895.65 550.391 896.809 551.266 896.809 553.171V613.932C896.809 615.837 895.65 618.051 894.234 618.875Z" stroke="#26144D" stroke-width="1.3" stroke-linecap="round" stroke-linejoin="round"/>
<path d="M908.474 610.662L905.821 612.207C904.405 613.031 903.246 612.155 903.246 610.25V549.49C903.246 547.585 904.405 545.37 905.821 544.546L908.474 543.002C909.89 542.178 911.049 543.053 911.049 544.958V605.719C911.049 607.624 909.89 609.838 908.474 610.662Z" stroke="#26144D" stroke-width="1.3" stroke-linecap="round" stroke-linejoin="round"/>
<path d="M806.854 217.471C813.766 217.471 819.37 211.062 819.37 203.156C819.37 195.25 813.766 188.841 806.854 188.841C799.941 188.841 794.338 195.25 794.338 203.156C794.338 211.062 799.941 217.471 806.854 217.471Z" fill="#D6D6D6" stroke="#26144D" stroke-width="1.5" stroke-linecap="round" stroke-linejoin="round"/>
<path d="M850.145 198.161V301.891" stroke="#26144D" stroke-width="2" stroke-linecap="round" stroke-linejoin="round"/>
<path d="M812.957 204.598L848.728 203.156" stroke="#26144D" stroke-width="1.5" stroke-linecap="round" stroke-linejoin="round"/>
<path d="M867.322 180.989L850.145 203.156" stroke="#26144D" stroke-width="1.5" stroke-linecap="round" stroke-linejoin="round"/>
<path d="M884.499 218.912L849.449 203.156" stroke="#26144D" stroke-width="1.5" stroke-linecap="round" stroke-linejoin="round"/>
<path d="M866.909 193.862C873.395 193.862 878.653 186.807 878.653 178.105C878.653 169.403 873.395 162.349 866.909 162.349C860.424 162.349 855.166 169.403 855.166 178.105C855.166 186.807 860.424 193.862 866.909 193.862Z" fill="#999999" stroke="#26144D" stroke-width="1.5" stroke-linecap="round" stroke-linejoin="round"/>
<path d="M889.52 236.059C895.451 236.059 900.259 229.177 900.259 220.689C900.259 212.2 895.451 205.318 889.52 205.318C883.589 205.318 878.781 212.2 878.781 220.689C878.781 229.177 883.589 236.059 889.52 236.059Z" fill="#D6D6D6" stroke="#26144D" stroke-width="1.5" stroke-linecap="round" stroke-linejoin="round"/>
<path d="M770.182 354.284V408.994" stroke="#26144D" stroke-width="2" stroke-linecap="round" stroke-linejoin="round"/>
<path d="M853.183 362.858L788.775 373.594L852.462 410.796C852.462 410.796 854.239 361.802 853.183 362.858Z" fill="#999999" stroke="#26144D" stroke-width="1.5" stroke-linecap="round" stroke-linejoin="round"/>
<path d="M857.123 413.835L695.061 319.244" stroke="#26144D" stroke-width="1.5" stroke-linecap="round" stroke-linejoin="round"/>
<path d="M466.53 690.757C468.255 767.66 463.105 847.473 462.873 923.861" stroke="white" stroke-width="1.5" stroke-linecap="round" stroke-linejoin="round"/>
<path d="M468.591 559.042C468.256 577.141 468.256 597.738 467.689 616.712" stroke="white" stroke-width="1.5" stroke-linecap="round" stroke-linejoin="round"/>
<path d="M302.587 554.768L89.3789 828.009" stroke="white" stroke-width="1.5" stroke-linecap="round" stroke-linejoin="round"/>
<path d="M287.213 -238.541L382.73 134.131" stroke="white" stroke-width="1.5" stroke-linecap="round" stroke-linejoin="round"/>
<path d="M311.189 252.871C311.189 252.871 295.454 275.759 301.171 311.52" stroke="white" stroke-width="1.5" stroke-linecap="round" stroke-linejoin="round"/>
</g>
</svg>
