<svg width="291" height="274" fill="none" xmlns="http://www.w3.org/2000/svg"><path d="M202.764 255.89l86.962-50.191-86.949-50.205-86.962 50.205 86.949 50.191z" fill="#8ED760" stroke="#26144D" stroke-width="1.5" stroke-linecap="round" stroke-linejoin="round"/><path d="M202.913 272.867l86.962-50.191v-17.112l-86.962 50.192v17.111z" fill="#956054" stroke="#26144D" stroke-width="1.5" stroke-linecap="round" stroke-linejoin="round"/><path d="M115.881 222.796l86.948 50.205v-17.112l-86.948-50.204v17.111z" fill="#A9776B" stroke="#26144D" stroke-width="1.5" stroke-linecap="round" stroke-linejoin="round"/><path d="M247.017 203.17v5.677m-95.897-6.06v5.677m28.755-30.642v5.677m61.476 22.503v5.677m-17.971-30.265v5.677m4.912-7.76v5.677m-71.875 14.568v5.677m4.914-1.891v5.677m40.478 18.525v5.677m5.111-9.652v5.676m5.102-1.51v5.676m-26.848-52.205v5.676m-10.975-5.104v5.676m78.302 18.906v5.676m-19.485-30.449v5.677" stroke="#5FAE2C" stroke-width="1.5" stroke-linecap="round" stroke-linejoin="round"/><path d="M87.963 186.863l86.962-50.191-86.962-50.191L1 136.672l86.962 50.191z" fill="#8ED760" stroke="#26144D" stroke-width="1.5" stroke-linecap="round" stroke-linejoin="round"/><path d="M88.096 203.853l86.962-50.204v-17.112l-86.962 50.205v17.111z" fill="#956054" stroke="#26144D" stroke-width="1.5" stroke-linecap="round" stroke-linejoin="round"/><path d="M1.066 153.782l86.962 50.192v-17.112L1.066 136.671v17.111z" fill="#A9776B" stroke="#26144D" stroke-width="1.5" stroke-linecap="round" stroke-linejoin="round"/><path d="M133.15 133.583v5.663m-95.897-6.048v5.663m28.743-30.628v5.677m61.475 22.503v5.677m-17.957-30.265v5.677m4.912-7.76v5.677M42.55 129.988v5.663m4.915-1.892v5.676m40.477 18.541v5.663m5.11-9.638v5.677m5.102-1.512v5.663m-26.863-52.192v5.676m-10.958-5.104v5.663m78.302 18.921v5.663m-19.488-30.437v5.676" stroke="#5FAE2C" stroke-width="1.5" stroke-linecap="round" stroke-linejoin="round"/><path d="M57.68 78.73c1.47.803 3.88.803 5.364 0 .871-.49 1.225-1.144 1.062-1.77v-8.808h-7.489v8.808c-.163.626.19 1.28 1.062 1.77z" fill="#fff" stroke="#26144D" stroke-width="1.5" stroke-linecap="round" stroke-linejoin="round"/><path d="M60.305 70.277c-2.128 0-3.853-.926-3.853-2.07 0-1.142 1.725-2.068 3.853-2.068s3.853.926 3.853 2.069c0 1.143-1.725 2.069-3.853 2.069zm11.166 16.065c1.47.803 3.88.803 5.365 0 .871-.49 1.225-1.144 1.062-1.77v-8.807h-7.489v8.807c-.163.626.19 1.28 1.062 1.77z" fill="#fff" stroke="#26144D" stroke-width="1.5" stroke-linecap="round" stroke-linejoin="round"/><path d="M74.084 77.888c-2.128 0-3.853-.926-3.853-2.069 0-1.143 1.725-2.069 3.853-2.069s3.853.926 3.853 2.07c0 1.142-1.725 2.068-3.853 2.068zm47.557-20.202c1.471.803 3.881.803 5.365 0 .871-.49 1.225-1.144 1.062-1.77v-8.808h-7.489v8.808c-.163.626.191 1.28 1.062 1.77z" fill="#fff" stroke="#26144D" stroke-width="1.5" stroke-linecap="round" stroke-linejoin="round"/><path d="M124.269 49.23c-2.128 0-3.853-.926-3.853-2.069 0-1.143 1.725-2.07 3.853-2.07s3.853.927 3.853 2.07c0 1.143-1.725 2.07-3.853 2.07zm-57.167 6.206c1.47.803 3.88.803 5.365 0 .871-.49 1.225-1.144 1.062-1.77v-8.808H66.04v8.808c-.163.626.19 1.28 1.062 1.77z" fill="#fff" stroke="#26144D" stroke-width="1.5" stroke-linecap="round" stroke-linejoin="round"/><path d="M69.715 46.983c-2.128 0-3.853-.926-3.853-2.07 0-1.142 1.725-2.068 3.853-2.068s3.853.926 3.853 2.069c0 1.143-1.725 2.07-3.853 2.07zm43.009-9.322c1.471.803 3.881.803 5.365 0 .871-.49 1.225-1.143 1.062-1.77v-8.807h-7.489v8.808c-.163.626.191 1.28 1.062 1.77z" fill="#fff" stroke="#26144D" stroke-width="1.5" stroke-linecap="round" stroke-linejoin="round"/><path d="M115.352 29.209c-2.128 0-3.853-.927-3.853-2.07 0-1.142 1.725-2.069 3.853-2.069s3.853.927 3.853 2.07c0 1.142-1.725 2.069-3.853 2.069z" fill="#fff" stroke="#26144D" stroke-width="1.5" stroke-linecap="round" stroke-linejoin="round"/><path d="M93.12 147.568l-.967-55.622 9.844-4.67 14.024 48.517" stroke="#26144D" stroke-width="1.5" stroke-linecap="round" stroke-linejoin="round"/><path d="M69.78 134.707l13.67-48.108V27.355L92.15 1l9.068 25.756v60.523l-9.19-4.56-8.578 3.88 8.7 5.35V2.211m23.625 133.586l-22.656-6.643-23.296 5.677" stroke="#26144D" stroke-width="1.5" stroke-linecap="round" stroke-linejoin="round"/><path d="M77.885 107.263l14.882 8.222 14.501-7.256-14.147 20.923-15.236-21.889z" stroke="#26144D" stroke-width="1.5" stroke-linecap="round" stroke-linejoin="round"/><path d="M81.518 96.387l11.246 6.289 11.723-5.078-11.723 17.888-11.246-19.1zm39.542-50.288L73.896 73.052l18.258-18.854 8.591-5.077 20.315-3.022zm-9.436-5.39L64.46 67.663l18.258-18.854 8.592-5.078 20.314-3.022zm1.688-11.898L80.185 47.066l11.723-14.879 9.313-5.431 12.091 2.055zm-9.3-4.109l-33.14 18.255 11.736-14.879 9.3-5.431 12.104 2.055zm6.764 95.984l-17.659 26.886-18.013-28.819 18.013 10.4 17.537-9.311" stroke="#26144D" stroke-width="1.5" stroke-linecap="round" stroke-linejoin="round"/><path d="M101.591 88.041l-9.313 13.79-8.346-13.668m7.975-55.975l-8.455-4.833m-9.558 45.699l-9.313-5.323M121.06 46.1l-9.436-5.078m-31.44 6.042l-9.313-4.11m42.441-14.142l-9.3-4.11m-3.268 24.422L93.12 44.17m-.97 10.028l-8.455-5.2m16.928 23.58l-7.979 3.498-8.714-5.445" stroke="#26144D" stroke-width="1.5" stroke-linecap="round" stroke-linejoin="round"/><path d="M69.17 135.003l54.666 32.195 23.446-13.994-53.713-31.011-24.4 12.81zm112.239 70.924l54.666 32.195 23.446-13.994-53.713-31.011-24.399 12.81z" fill="#B2B4B3" opacity=".46"/><path d="M237.92 121.409s-26.673-5.677-59.867-25.525c-33.372-19.957-51.358-38.293-51.358-38.293m101.584 45.086S201.607 97 168.412 77.153c-33.371-19.957-51.357-38.294-51.357-38.294m65.259 80.835s-26.672-5.677-59.867-25.525C89.076 74.213 71.09 55.876 71.09 55.876m102.715 89.927s-13.058-1.987-46.252-21.849c-33.372-19.956-51.358-38.293-51.358-38.293" stroke="#6CA3FF" stroke-width="2" stroke-linecap="round" stroke-linejoin="round"/><path d="M169.898 149.832c1.471.803 3.88.803 5.365 0 .871-.49 1.225-1.143 1.062-1.77v-8.807h-7.489v8.807c-.163.627.191 1.28 1.062 1.77z" fill="#fff" stroke="#26144D" stroke-width="1.5" stroke-linecap="round" stroke-linejoin="round"/><path d="M172.526 141.38c-2.128 0-3.853-.927-3.853-2.07 0-1.142 1.725-2.069 3.853-2.069s3.853.927 3.853 2.069c0 1.143-1.725 2.07-3.853 2.07zm11.167 16.073c1.47.803 3.88.803 5.365 0 .871-.49 1.225-1.143 1.062-1.769v-8.808h-7.489v8.808c-.163.626.191 1.279 1.062 1.769z" fill="#fff" stroke="#26144D" stroke-width="1.5" stroke-linecap="round" stroke-linejoin="round"/><path d="M186.306 149.001c-2.128 0-3.853-.927-3.853-2.07 0-1.142 1.725-2.069 3.853-2.069s3.853.927 3.853 2.069c0 1.143-1.725 2.07-3.853 2.07zm47.559-20.203c1.47.803 3.88.803 5.364 0 .872-.49 1.226-1.144 1.062-1.77v-8.807h-7.488v8.807c-.164.626.19 1.28 1.062 1.77z" fill="#fff" stroke="#26144D" stroke-width="1.5" stroke-linecap="round" stroke-linejoin="round"/><path d="M236.493 120.345c-2.129 0-3.854-.926-3.854-2.069 0-1.143 1.725-2.069 3.854-2.069 2.128 0 3.853.926 3.853 2.069 0 1.143-1.725 2.069-3.853 2.069zm-57.171 6.197c1.47.803 3.88.803 5.364 0 .872-.49 1.226-1.143 1.062-1.77v-8.807h-7.488v8.807c-.163.627.191 1.28 1.062 1.77z" fill="#fff" stroke="#26144D" stroke-width="1.5" stroke-linecap="round" stroke-linejoin="round"/><path d="M181.935 118.088c-2.128 0-3.853-.927-3.853-2.07 0-1.142 1.725-2.069 3.853-2.069s3.853.927 3.853 2.069c0 1.143-1.725 2.07-3.853 2.07zm43.014-9.327c1.47.803 3.88.803 5.364 0 .872-.49 1.226-1.144 1.062-1.77v-8.807h-7.488v8.807c-.164.626.19 1.28 1.062 1.77z" fill="#fff" stroke="#26144D" stroke-width="1.5" stroke-linecap="round" stroke-linejoin="round"/><path d="M227.577 100.307c-2.129 0-3.854-.926-3.854-2.069 0-1.143 1.725-2.07 3.854-2.07 2.128 0 3.853.927 3.853 2.07 0 1.143-1.725 2.069-3.853 2.069z" fill="#fff" stroke="#26144D" stroke-width="1.5" stroke-linecap="round" stroke-linejoin="round"/><path d="M205.341 218.671l-.967-55.609 9.831-4.669 14.037 48.516" stroke="#26144D" stroke-width="1.5" stroke-linecap="round" stroke-linejoin="round"/><path d="M182.002 205.823l13.67-48.122v-59.23l8.701-26.355 9.067 25.742v60.537l-9.19-4.56-8.578 3.866 8.701 5.364v-89.75m23.625 133.599l-22.656-6.657-23.296 5.69" stroke="#26144D" stroke-width="1.5" stroke-linecap="round" stroke-linejoin="round"/><path d="M190.106 178.379l14.882 8.222 14.5-7.256-14.146 20.91-15.236-21.876z" stroke="#26144D" stroke-width="1.5" stroke-linecap="round" stroke-linejoin="round"/><path d="M193.741 167.503l11.246 6.276 11.723-5.078-11.723 17.901-11.246-19.099zm39.539-50.301l-47.164 26.967 18.259-18.867 8.591-5.078 20.314-3.022zm-9.436-5.389l-47.164 26.954 18.258-18.854 8.591-5.077 20.315-3.023zm1.691-11.9l-33.126 18.255 11.723-14.865 9.313-5.446 12.09 2.056zm-9.316-4.108l-33.127 18.255 11.737-14.866 9.299-5.445 12.091 2.056zm6.78 95.997l-17.659 26.872-18.014-28.805 18.014 10.387 17.536-9.311" stroke="#26144D" stroke-width="1.5" stroke-linecap="round" stroke-linejoin="round"/><path d="M213.81 159.158l-9.313 13.777-8.347-13.654m7.98-55.977l-8.455-4.832m-9.557 45.698l-9.313-5.322m56.475-21.646l-9.435-5.078m-31.44 6.044l-9.313-4.111m42.443-14.143l-9.313-4.111m-3.256 24.424l-7.625-4.956m-.967 10.03l-8.455-5.2m16.924 23.579l-7.979 3.512-8.714-5.445" stroke="#26144D" stroke-width="1.5" stroke-linecap="round" stroke-linejoin="round"/></svg>