<svg width="291" height="274" viewBox="0 0 291 274" fill="none" xmlns="http://www.w3.org/2000/svg">
<path d="M202.764 255.89L289.726 205.699L202.777 155.494L115.815 205.699L202.764 255.89Z" fill="#8ED760" stroke="#26144D" stroke-width="1.5" stroke-linecap="round" stroke-linejoin="round"/>
<path d="M202.913 272.867L289.875 222.676V205.564L202.913 255.756V272.867Z" fill="#956054" stroke="#26144D" stroke-width="1.5" stroke-linecap="round" stroke-linejoin="round"/>
<path d="M115.881 222.796L202.829 273.001V255.889L115.881 205.685V222.796Z" fill="#A9776B" stroke="#26144D" stroke-width="1.5" stroke-linecap="round" stroke-linejoin="round"/>
<path d="M247.017 203.17V208.847" stroke="#5FAE2C" stroke-width="1.5" stroke-linecap="round" stroke-linejoin="round"/>
<path d="M151.12 202.787V208.464" stroke="#5FAE2C" stroke-width="1.5" stroke-linecap="round" stroke-linejoin="round"/>
<path d="M179.875 177.822V183.499" stroke="#5FAE2C" stroke-width="1.5" stroke-linecap="round" stroke-linejoin="round"/>
<path d="M241.351 206.002V211.679" stroke="#5FAE2C" stroke-width="1.5" stroke-linecap="round" stroke-linejoin="round"/>
<path d="M223.38 181.414V187.091" stroke="#5FAE2C" stroke-width="1.5" stroke-linecap="round" stroke-linejoin="round"/>
<path d="M228.292 179.331V185.008" stroke="#5FAE2C" stroke-width="1.5" stroke-linecap="round" stroke-linejoin="round"/>
<path d="M156.417 199.576V205.253" stroke="#5FAE2C" stroke-width="1.5" stroke-linecap="round" stroke-linejoin="round"/>
<path d="M161.331 203.362V209.039" stroke="#5FAE2C" stroke-width="1.5" stroke-linecap="round" stroke-linejoin="round"/>
<path d="M201.809 227.564V233.241" stroke="#5FAE2C" stroke-width="1.5" stroke-linecap="round" stroke-linejoin="round"/>
<path d="M206.92 223.589V229.265" stroke="#5FAE2C" stroke-width="1.5" stroke-linecap="round" stroke-linejoin="round"/>
<path d="M212.022 227.755V233.431" stroke="#5FAE2C" stroke-width="1.5" stroke-linecap="round" stroke-linejoin="round"/>
<path d="M185.174 181.226V186.902" stroke="#5FAE2C" stroke-width="1.5" stroke-linecap="round" stroke-linejoin="round"/>
<path d="M174.199 181.798V187.474" stroke="#5FAE2C" stroke-width="1.5" stroke-linecap="round" stroke-linejoin="round"/>
<path d="M252.501 206.38V212.056" stroke="#5FAE2C" stroke-width="1.5" stroke-linecap="round" stroke-linejoin="round"/>
<path d="M233.016 181.607V187.284" stroke="#5FAE2C" stroke-width="1.5" stroke-linecap="round" stroke-linejoin="round"/>
<path d="M87.9628 186.863L174.925 136.672L87.9628 86.4805L1.00081 136.672L87.9628 186.863Z" fill="#8ED760" stroke="#26144D" stroke-width="1.5" stroke-linecap="round" stroke-linejoin="round"/>
<path d="M88.0956 203.853L175.058 153.649V136.537L88.0956 186.742V203.853Z" fill="#956054" stroke="#26144D" stroke-width="1.5" stroke-linecap="round" stroke-linejoin="round"/>
<path d="M1.06632 153.782L88.0283 203.974V186.862L1.06632 136.671V153.782Z" fill="#A9776B" stroke="#26144D" stroke-width="1.5" stroke-linecap="round" stroke-linejoin="round"/>
<path d="M133.15 133.583V139.246" stroke="#5FAE2C" stroke-width="1.5" stroke-linecap="round" stroke-linejoin="round"/>
<path d="M37.2529 133.198V138.861" stroke="#5FAE2C" stroke-width="1.5" stroke-linecap="round" stroke-linejoin="round"/>
<path d="M65.9961 108.233V113.91" stroke="#5FAE2C" stroke-width="1.5" stroke-linecap="round" stroke-linejoin="round"/>
<path d="M127.471 136.413V142.09" stroke="#5FAE2C" stroke-width="1.5" stroke-linecap="round" stroke-linejoin="round"/>
<path d="M109.514 111.825V117.502" stroke="#5FAE2C" stroke-width="1.5" stroke-linecap="round" stroke-linejoin="round"/>
<path d="M114.426 109.742V115.419" stroke="#5FAE2C" stroke-width="1.5" stroke-linecap="round" stroke-linejoin="round"/>
<path d="M42.5498 129.988V135.651" stroke="#5FAE2C" stroke-width="1.5" stroke-linecap="round" stroke-linejoin="round"/>
<path d="M47.4648 133.759V139.435" stroke="#5FAE2C" stroke-width="1.5" stroke-linecap="round" stroke-linejoin="round"/>
<path d="M87.9424 157.976V163.639" stroke="#5FAE2C" stroke-width="1.5" stroke-linecap="round" stroke-linejoin="round"/>
<path d="M93.0518 154.001V159.678" stroke="#5FAE2C" stroke-width="1.5" stroke-linecap="round" stroke-linejoin="round"/>
<path d="M98.1543 158.166V163.829" stroke="#5FAE2C" stroke-width="1.5" stroke-linecap="round" stroke-linejoin="round"/>
<path d="M71.291 111.637V117.313" stroke="#5FAE2C" stroke-width="1.5" stroke-linecap="round" stroke-linejoin="round"/>
<path d="M60.333 112.209V117.872" stroke="#5FAE2C" stroke-width="1.5" stroke-linecap="round" stroke-linejoin="round"/>
<path d="M138.635 136.793V142.456" stroke="#5FAE2C" stroke-width="1.5" stroke-linecap="round" stroke-linejoin="round"/>
<path d="M119.147 112.019V117.695" stroke="#5FAE2C" stroke-width="1.5" stroke-linecap="round" stroke-linejoin="round"/>
<path d="M57.6793 78.7296C59.1498 79.5328 61.5597 79.5328 63.0438 78.7296C63.9152 78.2396 64.2692 77.5861 64.1058 76.9599V68.1523H56.6173V76.9599C56.4539 77.5861 56.8079 78.2396 57.6793 78.7296Z" fill="white" stroke="#26144D" stroke-width="1.5" stroke-linecap="round" stroke-linejoin="round"/>
<path d="M60.305 70.277C58.177 70.277 56.4518 69.3506 56.4518 68.2078C56.4518 67.0651 58.177 66.1387 60.305 66.1387C62.4331 66.1387 64.1582 67.0651 64.1582 68.2078C64.1582 69.3506 62.4331 70.277 60.305 70.277Z" fill="white" stroke="#26144D" stroke-width="1.5" stroke-linecap="round" stroke-linejoin="round"/>
<path d="M71.4713 86.3419C72.9418 87.1451 75.3517 87.1451 76.8358 86.3419C77.7072 85.8519 78.0612 85.1985 77.8978 84.5723V75.7646H70.4093V84.5723C70.2459 85.1985 70.5999 85.8519 71.4713 86.3419Z" fill="white" stroke="#26144D" stroke-width="1.5" stroke-linecap="round" stroke-linejoin="round"/>
<path d="M74.0843 77.8883C71.9563 77.8883 70.2311 76.9619 70.2311 75.8192C70.2311 74.6764 71.9563 73.75 74.0843 73.75C76.2124 73.75 77.9375 74.6764 77.9375 75.8192C77.9375 76.9619 76.2124 77.8883 74.0843 77.8883Z" fill="white" stroke="#26144D" stroke-width="1.5" stroke-linecap="round" stroke-linejoin="round"/>
<path d="M121.641 57.6857C123.112 58.4889 125.522 58.4889 127.006 57.6857C127.877 57.1956 128.231 56.5422 128.068 55.916V47.1084H120.579V55.916C120.416 56.5422 120.77 57.1956 121.641 57.6857Z" fill="white" stroke="#26144D" stroke-width="1.5" stroke-linecap="round" stroke-linejoin="round"/>
<path d="M124.269 49.2301C122.141 49.2301 120.416 48.3037 120.416 47.161C120.416 46.0182 122.141 45.0918 124.269 45.0918C126.397 45.0918 128.122 46.0182 128.122 47.161C128.122 48.3037 126.397 49.2301 124.269 49.2301Z" fill="white" stroke="#26144D" stroke-width="1.5" stroke-linecap="round" stroke-linejoin="round"/>
<path d="M67.1022 55.4357C68.5727 56.2389 70.9826 56.2389 72.4667 55.4357C73.3381 54.9456 73.6921 54.2922 73.5287 53.666V44.8584H66.0402V53.666C65.8768 54.2922 66.2308 54.9456 67.1022 55.4357Z" fill="white" stroke="#26144D" stroke-width="1.5" stroke-linecap="round" stroke-linejoin="round"/>
<path d="M69.7152 46.9831C67.5871 46.9831 65.862 46.0567 65.862 44.9139C65.862 43.7711 67.5871 42.8447 69.7152 42.8447C71.8432 42.8447 73.5684 43.7711 73.5684 44.9139C73.5684 46.0567 71.8432 46.9831 69.7152 46.9831Z" fill="white" stroke="#26144D" stroke-width="1.5" stroke-linecap="round" stroke-linejoin="round"/>
<path d="M112.724 37.6613C114.195 38.4644 116.605 38.4644 118.089 37.6613C118.96 37.1712 119.314 36.5178 119.151 35.8916V27.084H111.662V35.8916C111.499 36.5178 111.853 37.1712 112.724 37.6613Z" fill="white" stroke="#26144D" stroke-width="1.5" stroke-linecap="round" stroke-linejoin="round"/>
<path d="M115.352 29.2087C113.224 29.2087 111.499 28.2823 111.499 27.1395C111.499 25.9967 113.224 25.0703 115.352 25.0703C117.48 25.0703 119.205 25.9967 119.205 27.1395C119.205 28.2823 117.48 29.2087 115.352 29.2087Z" fill="white" stroke="#26144D" stroke-width="1.5" stroke-linecap="round" stroke-linejoin="round"/>
<path d="M93.1193 147.568L92.1526 91.9456L101.997 87.2764L116.021 135.793" stroke="#26144D" stroke-width="1.5" stroke-linecap="round" stroke-linejoin="round"/>
<path d="M69.7797 134.707L83.4496 86.5985V27.3547L92.1499 1L101.218 26.7558V87.2791L92.0273 82.7188L83.4496 86.5985L92.1499 91.9484V2.21156" stroke="#26144D" stroke-width="1.5" stroke-linecap="round" stroke-linejoin="round"/>
<path d="M115.775 135.797L93.1193 129.154L69.8232 134.831" stroke="#26144D" stroke-width="1.5" stroke-linecap="round" stroke-linejoin="round"/>
<path d="M77.8854 107.263L92.7671 115.485L107.268 108.229L93.1211 129.152L77.8854 107.263Z" stroke="#26144D" stroke-width="1.5" stroke-linecap="round" stroke-linejoin="round"/>
<path d="M81.518 96.3867L92.7644 102.676L104.487 97.5983L92.7644 115.486L81.518 96.3867Z" stroke="#26144D" stroke-width="1.5" stroke-linecap="round" stroke-linejoin="round"/>
<path d="M121.06 46.0986L73.8956 73.0523L92.1539 54.1984L100.745 49.1207L121.06 46.0986Z" stroke="#26144D" stroke-width="1.5" stroke-linecap="round" stroke-linejoin="round"/>
<path d="M111.624 40.709L64.46 67.6627L82.7184 48.8087L91.3097 43.7311L111.624 40.709Z" stroke="#26144D" stroke-width="1.5" stroke-linecap="round" stroke-linejoin="round"/>
<path d="M113.312 28.8114L80.1851 47.0664L91.908 32.1874L101.221 26.7559L113.312 28.8114Z" stroke="#26144D" stroke-width="1.5" stroke-linecap="round" stroke-linejoin="round"/>
<path d="M104.012 24.702L70.8717 42.9571L82.6082 28.0781L91.9076 22.6465L104.012 24.702Z" stroke="#26144D" stroke-width="1.5" stroke-linecap="round" stroke-linejoin="round"/>
<path d="M110.776 120.686L93.1171 147.572L75.1039 118.753L93.1171 129.153L110.654 119.842" stroke="#26144D" stroke-width="1.5" stroke-linecap="round" stroke-linejoin="round"/>
<path d="M101.591 88.041L92.2778 101.831L83.9316 88.1635" stroke="#26144D" stroke-width="1.5" stroke-linecap="round" stroke-linejoin="round"/>
<path d="M91.9072 32.1881L83.452 27.3555" stroke="#26144D" stroke-width="1.5" stroke-linecap="round" stroke-linejoin="round"/>
<path d="M73.8936 73.0541L64.5806 67.7314" stroke="#26144D" stroke-width="1.5" stroke-linecap="round" stroke-linejoin="round"/>
<path d="M121.06 46.1001L111.624 41.0225" stroke="#26144D" stroke-width="1.5" stroke-linecap="round" stroke-linejoin="round"/>
<path d="M80.1836 47.0642L70.8706 42.9531" stroke="#26144D" stroke-width="1.5" stroke-linecap="round" stroke-linejoin="round"/>
<path d="M113.312 28.8123L104.012 24.7012" stroke="#26144D" stroke-width="1.5" stroke-linecap="round" stroke-linejoin="round"/>
<path d="M100.744 49.1241L93.1195 44.1689" stroke="#26144D" stroke-width="1.5" stroke-linecap="round" stroke-linejoin="round"/>
<path d="M92.1504 54.1982L83.6952 48.998" stroke="#26144D" stroke-width="1.5" stroke-linecap="round" stroke-linejoin="round"/>
<path d="M100.623 72.5775L92.6444 76.076L83.9305 70.6309" stroke="#26144D" stroke-width="1.5" stroke-linecap="round" stroke-linejoin="round"/>
<g style="mix-blend-mode:multiply" opacity="0.46">
<path d="M69.1699 135.003L123.836 167.198L147.282 153.204L93.5688 122.193L69.1699 135.003Z" fill="#B2B4B3"/>
</g>
<g style="mix-blend-mode:multiply" opacity="0.46">
<path d="M181.409 205.927L236.075 238.122L259.521 224.128L205.808 193.117L181.409 205.927Z" fill="#B2B4B3"/>
</g>
<path d="M237.92 121.409C237.92 121.409 211.247 115.732 178.053 95.8842C144.681 75.9275 126.695 57.5908 126.695 57.5908" stroke="#6CA3FF" stroke-width="2" stroke-linecap="round" stroke-linejoin="round"/>
<path d="M228.279 102.677C228.279 102.677 201.607 97.0004 168.412 77.1527C135.041 57.1961 117.055 38.8594 117.055 38.8594" stroke="#6CA3FF" stroke-width="2" stroke-linecap="round" stroke-linejoin="round"/>
<path d="M182.314 119.694C182.314 119.694 155.642 114.017 122.447 94.1693C89.0757 74.2127 71.0897 55.876 71.0897 55.876" stroke="#6CA3FF" stroke-width="2" stroke-linecap="round" stroke-linejoin="round"/>
<path d="M173.805 145.803C173.805 145.803 160.747 143.816 127.553 123.954C94.1814 103.998 76.1954 85.6611 76.1954 85.6611" stroke="#6CA3FF" stroke-width="2" stroke-linecap="round" stroke-linejoin="round"/>
<path d="M169.898 149.832C171.369 150.635 173.778 150.635 175.263 149.832C176.134 149.342 176.488 148.689 176.325 148.062V139.255H168.836V148.062C168.673 148.689 169.027 149.342 169.898 149.832Z" fill="white" stroke="#26144D" stroke-width="1.5" stroke-linecap="round" stroke-linejoin="round"/>
<path d="M172.526 141.38C170.398 141.38 168.673 140.453 168.673 139.31C168.673 138.168 170.398 137.241 172.526 137.241C174.654 137.241 176.379 138.168 176.379 139.31C176.379 140.453 174.654 141.38 172.526 141.38Z" fill="white" stroke="#26144D" stroke-width="1.5" stroke-linecap="round" stroke-linejoin="round"/>
<path d="M183.693 157.453C185.163 158.256 187.573 158.256 189.058 157.453C189.929 156.963 190.283 156.31 190.12 155.684V146.876H182.631V155.684C182.468 156.31 182.822 156.963 183.693 157.453Z" fill="white" stroke="#26144D" stroke-width="1.5" stroke-linecap="round" stroke-linejoin="round"/>
<path d="M186.306 149.001C184.178 149.001 182.453 148.074 182.453 146.931C182.453 145.789 184.178 144.862 186.306 144.862C188.434 144.862 190.159 145.789 190.159 146.931C190.159 148.074 188.434 149.001 186.306 149.001Z" fill="white" stroke="#26144D" stroke-width="1.5" stroke-linecap="round" stroke-linejoin="round"/>
<path d="M233.865 128.798C235.335 129.601 237.745 129.601 239.229 128.798C240.101 128.308 240.455 127.654 240.291 127.028V118.221H232.803V127.028C232.639 127.654 232.993 128.308 233.865 128.798Z" fill="white" stroke="#26144D" stroke-width="1.5" stroke-linecap="round" stroke-linejoin="round"/>
<path d="M236.493 120.345C234.364 120.345 232.639 119.419 232.639 118.276C232.639 117.133 234.364 116.207 236.493 116.207C238.621 116.207 240.346 117.133 240.346 118.276C240.346 119.419 238.621 120.345 236.493 120.345Z" fill="white" stroke="#26144D" stroke-width="1.5" stroke-linecap="round" stroke-linejoin="round"/>
<path d="M179.322 126.542C180.792 127.345 183.202 127.345 184.686 126.542C185.558 126.052 185.912 125.399 185.748 124.772V115.965H178.26V124.772C178.097 125.399 178.451 126.052 179.322 126.542Z" fill="white" stroke="#26144D" stroke-width="1.5" stroke-linecap="round" stroke-linejoin="round"/>
<path d="M181.935 118.088C179.807 118.088 178.082 117.161 178.082 116.018C178.082 114.876 179.807 113.949 181.935 113.949C184.063 113.949 185.788 114.876 185.788 116.018C185.788 117.161 184.063 118.088 181.935 118.088Z" fill="white" stroke="#26144D" stroke-width="1.5" stroke-linecap="round" stroke-linejoin="round"/>
<path d="M224.949 108.761C226.419 109.564 228.829 109.564 230.313 108.761C231.185 108.271 231.539 107.617 231.375 106.991V98.1836H223.887V106.991C223.723 107.617 224.077 108.271 224.949 108.761Z" fill="white" stroke="#26144D" stroke-width="1.5" stroke-linecap="round" stroke-linejoin="round"/>
<path d="M227.577 100.307C225.448 100.307 223.723 99.3809 223.723 98.2381C223.723 97.0954 225.448 96.1689 227.577 96.1689C229.705 96.1689 231.43 97.0954 231.43 98.2381C231.43 99.3809 229.705 100.307 227.577 100.307Z" fill="white" stroke="#26144D" stroke-width="1.5" stroke-linecap="round" stroke-linejoin="round"/>
<path d="M205.341 218.671L204.374 163.062L214.205 158.393L228.242 206.909" stroke="#26144D" stroke-width="1.5" stroke-linecap="round" stroke-linejoin="round"/>
<path d="M182.002 205.823L195.672 157.701V98.471L204.373 72.1162L213.44 97.8584V158.395L204.25 153.835L195.672 157.701L204.373 163.065V73.3142" stroke="#26144D" stroke-width="1.5" stroke-linecap="round" stroke-linejoin="round"/>
<path d="M227.998 206.914L205.342 200.257L182.046 205.947" stroke="#26144D" stroke-width="1.5" stroke-linecap="round" stroke-linejoin="round"/>
<path d="M190.106 178.379L204.988 186.601L219.488 179.345L205.342 200.255L190.106 178.379Z" stroke="#26144D" stroke-width="1.5" stroke-linecap="round" stroke-linejoin="round"/>
<path d="M193.741 167.503L204.987 173.779L216.71 168.701L204.987 186.602L193.741 167.503Z" stroke="#26144D" stroke-width="1.5" stroke-linecap="round" stroke-linejoin="round"/>
<path d="M233.28 117.202L186.116 144.169L204.375 125.302L212.966 120.224L233.28 117.202Z" stroke="#26144D" stroke-width="1.5" stroke-linecap="round" stroke-linejoin="round"/>
<path d="M223.844 111.813L176.68 138.767L194.938 119.913L203.529 114.836L223.844 111.813Z" stroke="#26144D" stroke-width="1.5" stroke-linecap="round" stroke-linejoin="round"/>
<path d="M225.535 99.913L192.409 118.168L204.132 103.303L213.445 97.8574L225.535 99.913Z" stroke="#26144D" stroke-width="1.5" stroke-linecap="round" stroke-linejoin="round"/>
<path d="M216.219 95.8046L183.092 114.06L194.829 99.1942L204.128 93.749L216.219 95.8046Z" stroke="#26144D" stroke-width="1.5" stroke-linecap="round" stroke-linejoin="round"/>
<path d="M222.999 191.802L205.34 218.674L187.326 189.869L205.34 200.256L222.876 190.945" stroke="#26144D" stroke-width="1.5" stroke-linecap="round" stroke-linejoin="round"/>
<path d="M213.81 159.158L204.497 172.935L196.15 159.281" stroke="#26144D" stroke-width="1.5" stroke-linecap="round" stroke-linejoin="round"/>
<path d="M204.13 103.304L195.675 98.4717" stroke="#26144D" stroke-width="1.5" stroke-linecap="round" stroke-linejoin="round"/>
<path d="M186.118 144.17L176.805 138.848" stroke="#26144D" stroke-width="1.5" stroke-linecap="round" stroke-linejoin="round"/>
<path d="M233.28 117.202L223.845 112.124" stroke="#26144D" stroke-width="1.5" stroke-linecap="round" stroke-linejoin="round"/>
<path d="M192.405 118.168L183.092 114.057" stroke="#26144D" stroke-width="1.5" stroke-linecap="round" stroke-linejoin="round"/>
<path d="M225.535 99.9139L216.222 95.8027" stroke="#26144D" stroke-width="1.5" stroke-linecap="round" stroke-linejoin="round"/>
<path d="M212.966 120.227L205.341 115.271" stroke="#26144D" stroke-width="1.5" stroke-linecap="round" stroke-linejoin="round"/>
<path d="M204.374 125.301L195.919 120.101" stroke="#26144D" stroke-width="1.5" stroke-linecap="round" stroke-linejoin="round"/>
<path d="M212.843 143.68L204.864 147.192L196.15 141.747" stroke="#26144D" stroke-width="1.5" stroke-linecap="round" stroke-linejoin="round"/>
</svg>
