<svg width="246" height="214" viewBox="0 0 246 214" fill="none" xmlns="http://www.w3.org/2000/svg">
<path d="M162.502 196.888L1.14024 103.516L83.638 55.6543L245 149.033L162.502 196.888Z" fill="#4DA4FF" stroke="#26144D" stroke-width="1.5" stroke-linecap="round" stroke-linejoin="round"/>
<path d="M162.368 213.079L0.999756 119.707V103.388L162.368 196.766V213.079Z" fill="#D9D9D9" stroke="#26144D" stroke-width="1.5" stroke-linecap="round" stroke-linejoin="round"/>
<path d="M244.942 165.339L162.438 213.2V196.881L244.942 149.026V165.339Z" fill="#999999" stroke="#26144D" stroke-width="1.5" stroke-linecap="round" stroke-linejoin="round"/>
<g style="mix-blend-mode:multiply" opacity="0.46">
<path d="M162.193 165.39L135.598 181.254L37.3824 124.558L59.4536 112.433L162.193 165.39Z" fill="#B2B4B3"/>
</g>
<g clip-path="url(#clip0_813_25397)">
<path d="M83.5605 137.51L87.6855 134.649V126.528L83.5605 124.131V137.51Z" fill="#D8D8D8" stroke="#26144D" stroke-width="1.5" stroke-linecap="round" stroke-linejoin="round"/>
<path d="M57.0791 122.14L61.2123 119.436V110.793L57.0791 108.396V122.14Z" fill="#D8D8D8" stroke="#26144D" stroke-width="1.5" stroke-linecap="round" stroke-linejoin="round"/>
<path d="M147.052 140.371V174.255L211.574 136.829V57.2334L178.97 76.1453V121.841L147.052 140.371Z" fill="#7D7D7B" stroke="#26144D" stroke-width="1.5" stroke-linecap="round" stroke-linejoin="round"/>
<path d="M49.7363 83.6602V117.876L57.0787 122.139V108.395L61.2118 110.792L76.9442 119.925V133.669L83.5606 137.509V124.13L87.6855 126.527L103.418 135.66V149.039L147.018 174.346V140.131L49.7363 83.6602Z" fill="#D8D8D8" stroke="#26144D" stroke-width="1.5" stroke-linecap="round" stroke-linejoin="round"/>
<path d="M178.945 76.021L81.6631 19.5506L114.316 0.62207L211.598 57.0925L178.945 76.021Z" fill="#D8D8D8" stroke="#26144D" stroke-width="1.5" stroke-linecap="round" stroke-linejoin="round"/>
<path d="M146.936 140.206L49.6543 83.7352L82.3071 64.8066L179.589 121.277L146.936 140.206Z" fill="#D8D8D8" stroke="#26144D" stroke-width="1.5" stroke-linecap="round" stroke-linejoin="round"/>
<path d="M169.4 116.35L143.496 127.348L64.875 81.4869L77.5962 72.96L104.606 78.3764L169.4 116.35Z" fill="#565656" stroke="#26144D" stroke-width="1.5" stroke-linecap="round" stroke-linejoin="round"/>
<path d="M87.6855 126.527V134.648L103.418 143.78V135.66L87.6855 126.527Z" fill="#7D7D7B" stroke="#26144D" stroke-width="1.5" stroke-linecap="round" stroke-linejoin="round"/>
<path d="M61.2119 110.793V119.436L76.9443 128.569V119.925L61.2119 110.793Z" fill="#7D7D7B" stroke="#26144D" stroke-width="1.5" stroke-linecap="round" stroke-linejoin="round"/>
<path d="M81.7129 53.683L178.995 110.162V75.946L81.7129 19.4756V53.683Z" fill="#7D7D7B" stroke="#26144D" stroke-width="1.5" stroke-linecap="round" stroke-linejoin="round"/>
<path d="M174.556 111.854C174.383 111.166 169.4 79.1897 169.4 79.1897L88.9394 32.167L86.877 47.8938L162.693 111.332L174.556 111.854Z" fill="#565656" stroke="#26144D" stroke-width="1.5" stroke-linecap="round" stroke-linejoin="round"/>
<path d="M67.1514 64.5579C67.1514 65.3873 67.2174 66.1588 67.3576 66.8721C67.8526 69.6259 69.2798 71.4591 71.2763 72.1641L76.0942 74.9097C75.4837 74.4452 74.9557 73.848 74.535 73.118C73.7925 71.824 73.3635 70.1153 73.3635 68.0499C73.3635 67.7679 73.3635 67.4859 73.3882 67.1956C73.479 65.5284 73.8172 63.803 74.37 62.086C74.9474 60.3193 75.7394 58.5691 76.6964 56.9184C77.4224 55.6825 78.2391 54.5047 79.1301 53.4181C80.2521 52.0411 81.5061 50.8301 82.8343 49.843C83.354 49.4532 83.882 49.1048 84.4182 48.7896C85.0122 48.4495 85.5897 48.1592 86.159 47.9436C88.4277 47.0394 90.4736 47.0726 92.0576 47.9187V47.8938L86.6952 44.9741H86.6869C86.2745 44.634 85.8125 44.3768 85.3175 44.1861C84.212 43.7464 82.9333 43.6635 81.5226 43.9704C80.4831 44.1943 79.3694 44.634 78.2144 45.3058C77.4966 45.7289 76.7872 46.21 76.1107 46.7657C75.1289 47.5454 74.1885 48.4661 73.3222 49.4781C71.895 51.1287 70.641 53.0282 69.6428 55.0272C68.9663 56.371 68.4136 57.7645 68.0011 59.158C67.4566 60.9911 67.1596 62.8243 67.1596 64.5662L67.1514 64.5579Z" fill="#D8D8D8" stroke="#26144D" stroke-width="1.5" stroke-linecap="round" stroke-linejoin="round"/>
<path d="M73.3633 68.0496C73.3633 71.2846 74.3945 73.6403 76.094 74.9094C78.1234 76.4273 81.1016 76.4024 84.4263 74.4697C90.5312 70.9196 95.4893 62.2931 95.4893 55.2011C95.4893 51.5514 94.1776 49.0216 92.0656 47.9101C90.0857 46.8566 87.3962 47.064 84.4263 48.7893C78.3214 52.3311 73.3633 60.9576 73.3633 68.0496Z" fill="#7D7D7B" stroke="#26144D" stroke-width="1.5" stroke-linecap="round" stroke-linejoin="round"/>
<path d="M81.5225 43.9616L82.8424 49.8426C83.3622 49.4527 83.8902 49.1043 84.4264 48.7891C85.0204 48.449 85.5979 48.1587 86.1671 47.9431L85.3256 44.1773C84.2202 43.7376 82.9414 43.6547 81.5307 43.9616H81.5225Z" fill="#D8D8D8" stroke="#26144D" stroke-width="1.5" stroke-linecap="round" stroke-linejoin="round"/>
<path d="M73.3145 49.4692L76.6969 56.9179C77.4229 55.682 78.2396 54.5041 79.1306 53.4175L76.1029 46.7568C75.1212 47.5365 74.1807 48.4573 73.3145 49.4692Z" fill="#D8D8D8" stroke="#26144D" stroke-width="1.5" stroke-linecap="round" stroke-linejoin="round"/>
<path d="M68.001 59.1493L73.3964 67.1952C73.4871 65.528 73.8254 63.8027 74.3781 62.0856L69.6427 55.0186C68.9662 56.3623 68.4135 57.7558 68.001 59.1493Z" fill="#D8D8D8" stroke="#26144D" stroke-width="1.5" stroke-linecap="round" stroke-linejoin="round"/>
<path d="M67.3574 66.8721C67.8524 69.6259 69.2796 71.459 71.2761 72.1641L76.094 74.9096C75.4835 74.4451 74.9555 73.8479 74.5348 73.118L67.3574 66.8721Z" fill="#D8D8D8" stroke="#26144D" stroke-width="1.5" stroke-linecap="round" stroke-linejoin="round"/>
<path d="M74.1396 75.598C74.1396 76.8422 74.2386 78.0035 74.4449 79.0735C75.1874 83.2126 77.3323 85.9747 80.3353 87.0364L87.5786 91.1672C86.6629 90.4705 85.8709 89.5746 85.2357 88.4714C84.1137 86.5222 83.4784 83.9591 83.4784 80.8486C83.4784 80.4256 83.4867 79.9942 83.5197 79.5629C83.6517 77.0579 84.1632 74.4617 84.9964 71.8737C85.8626 69.2194 87.0506 66.5817 88.4943 64.1016C89.5833 62.2435 90.8125 60.4685 92.1573 58.8427C93.8485 56.7773 95.7294 54.9525 97.7259 53.4677C98.5014 52.8788 99.3016 52.3562 100.11 51.8834C101.001 51.3692 101.876 50.9378 102.725 50.6061C106.141 49.2457 109.21 49.2955 111.594 50.5646V50.5314L103.526 46.1352H103.509C102.89 45.6292 102.197 45.2311 101.455 44.9491C99.7966 44.2855 97.8661 44.1611 95.7459 44.6256C94.1785 44.9656 92.5038 45.6292 90.7713 46.6329C89.6906 47.2633 88.6263 47.9932 87.6034 48.831C86.1266 50.0088 84.7159 51.3858 83.4042 52.9037C81.2592 55.3838 79.37 58.2372 77.8768 61.2482C76.8621 63.2721 76.0289 65.3624 75.4101 67.4609C74.5934 70.2148 74.1396 72.9769 74.1396 75.598Z" fill="#D8D8D8" stroke="#26144D" stroke-width="1.5" stroke-linecap="round" stroke-linejoin="round"/>
<path d="M83.4785 80.8399C83.4785 85.7089 85.0295 89.2424 87.5787 91.1585C90.6229 93.4312 95.1108 93.3981 100.11 90.5032C109.292 85.1614 116.742 72.1968 116.742 61.5298C116.742 56.0387 114.762 52.2397 111.594 50.5641C108.616 48.9799 104.573 49.2951 100.11 51.883C90.9281 57.2082 83.4785 70.1811 83.4785 80.8482V80.8399Z" fill="#7D7D7B" stroke="#26144D" stroke-width="1.5" stroke-linecap="round" stroke-linejoin="round"/>
<path d="M95.7461 44.6256L97.7261 53.4677C98.5015 52.8788 99.3018 52.3562 100.11 51.8834C101.001 51.3692 101.876 50.9378 102.725 50.6061L101.455 44.9491C99.7968 44.2855 97.8663 44.1611 95.7461 44.6256Z" fill="#D8D8D8" stroke="#26144D" stroke-width="1.5" stroke-linecap="round" stroke-linejoin="round"/>
<path d="M83.4043 52.9038L88.4944 64.1016C89.5834 62.2436 90.8126 60.4685 92.1574 58.8428L87.6035 48.8311C86.1267 50.0089 84.716 51.3858 83.4043 52.9038Z" fill="#D8D8D8" stroke="#26144D" stroke-width="1.5" stroke-linecap="round" stroke-linejoin="round"/>
<path d="M75.4102 67.4608L83.5197 79.5628C83.6517 77.0578 84.1632 74.4615 84.9965 71.8736L77.8769 61.248C76.8621 63.272 76.0289 65.3622 75.4102 67.4608Z" fill="#D8D8D8" stroke="#26144D" stroke-width="1.5" stroke-linecap="round" stroke-linejoin="round"/>
<path d="M74.4453 79.0732C75.1878 83.2123 77.3328 85.9744 80.3357 87.0362L87.579 91.1669C86.6633 90.4702 85.8713 89.5744 85.2361 88.4712L74.4453 79.0732Z" fill="#D8D8D8" stroke="#26144D" stroke-width="1.5" stroke-linecap="round" stroke-linejoin="round"/>
<path d="M176.709 156.637L196.228 109.606" stroke="#26144D" stroke-width="1.5" stroke-linecap="round" stroke-linejoin="round"/>
<path d="M196.674 52.4474L142.118 20.6455" stroke="white" stroke-width="1.5" stroke-linecap="round" stroke-linejoin="round"/>
<path d="M97.2803 74.6611C97.2803 75.9219 97.6268 76.8924 98.2125 77.5062L99.3675 78.1864L115.999 87.9327C117.105 88.588 118.326 88.8949 119.522 88.8949C121.922 88.8949 124.265 87.6507 125.569 85.4194C127.516 82.0683 126.402 77.7633 123.069 75.7975L106.479 66.0844L105.109 65.2798C104.309 65.1139 103.344 65.313 102.304 65.9102C99.5325 67.5194 97.2803 71.4428 97.2803 74.6611Z" fill="white" stroke="#26144D" stroke-width="1.5" stroke-linecap="round" stroke-linejoin="round"/>
<path d="M104.837 87.0784C104.837 87.9079 104.903 88.6793 105.043 89.3926C105.538 92.1464 106.965 93.9796 108.962 94.6846L113.78 97.4302C113.169 96.9657 112.641 96.3685 112.221 95.6385C111.478 94.3445 111.049 92.6358 111.049 90.5705C111.049 90.2884 111.049 90.0064 111.074 89.7161C111.165 88.0489 111.503 86.3236 112.056 84.6066C112.633 82.8398 113.425 81.0896 114.382 79.4389C115.108 78.203 115.925 77.0252 116.816 75.9386C117.938 74.5617 119.192 73.3506 120.52 72.3636C121.04 71.9737 121.568 71.6253 122.104 71.3101C122.698 70.97 123.275 70.6797 123.845 70.4641C126.113 69.5599 128.159 69.5931 129.743 70.4392V70.4143L124.381 67.4946H124.372C123.96 67.1545 123.498 66.8973 123.003 66.7066C121.898 66.2669 120.619 66.184 119.208 66.4909C118.169 66.7149 117.055 67.1545 115.9 67.8263C115.182 68.2494 114.473 68.7305 113.796 69.2862C112.814 70.0659 111.874 70.9866 111.008 71.9986C109.581 73.6492 108.327 75.5487 107.328 77.5477C106.652 78.8915 106.099 80.285 105.687 81.6785C105.142 83.5117 104.845 85.3448 104.845 87.0867L104.837 87.0784Z" fill="#D8D8D8" stroke="#26144D" stroke-width="1.5" stroke-linecap="round" stroke-linejoin="round"/>
<path d="M111.041 90.5613C111.041 93.7963 112.072 96.152 113.772 97.4211C115.801 98.939 118.779 98.9141 122.104 96.9815C128.209 93.4313 133.167 84.8048 133.167 77.7128C133.167 74.0632 131.855 71.5333 129.743 70.4218C127.763 69.3684 125.074 69.5757 122.104 71.301C115.999 74.8429 111.041 83.4694 111.041 90.5613Z" fill="#7D7D7B" stroke="#26144D" stroke-width="1.5" stroke-linecap="round" stroke-linejoin="round"/>
<path d="M119.2 66.4821L120.52 72.3631C121.04 71.9732 121.568 71.6248 122.104 71.3096C122.698 70.9695 123.276 70.6792 123.845 70.4636L123.003 66.6978C121.898 66.2582 120.619 66.1752 119.208 66.4821H119.2Z" fill="#D8D8D8" stroke="#26144D" stroke-width="1.5" stroke-linecap="round" stroke-linejoin="round"/>
<path d="M111 71.9819L114.382 79.4306C115.108 78.1946 115.925 77.0168 116.816 75.9302L113.788 69.2695C112.807 70.0492 111.866 70.9699 111 71.9819Z" fill="#D8D8D8" stroke="#26144D" stroke-width="1.5" stroke-linecap="round" stroke-linejoin="round"/>
<path d="M105.679 81.661L111.074 89.7069C111.165 88.0397 111.503 86.3144 112.056 84.5974L107.32 77.5303C106.644 78.874 106.091 80.2675 105.679 81.661Z" fill="#D8D8D8" stroke="#26144D" stroke-width="1.5" stroke-linecap="round" stroke-linejoin="round"/>
<path d="M105.035 89.3838C105.53 92.1376 106.957 93.9708 108.954 94.6758L113.772 97.4214C113.161 96.9569 112.633 96.3596 112.213 95.6297L105.035 89.3838Z" fill="#D8D8D8" stroke="#26144D" stroke-width="1.5" stroke-linecap="round" stroke-linejoin="round"/>
<path d="M115.636 95.5879C115.636 96.5749 115.718 97.4956 115.875 98.3417C116.461 101.626 118.168 103.816 120.553 104.662L126.303 107.939C125.577 107.383 124.95 106.678 124.447 105.799C123.556 104.256 123.052 102.215 123.052 99.7518C123.052 99.42 123.052 99.0716 123.085 98.7316C123.193 96.7408 123.597 94.6837 124.257 92.6266C124.942 90.5198 125.89 88.4295 127.029 86.4637C127.895 84.9872 128.868 83.5771 129.933 82.2914C131.277 80.6491 132.771 79.2058 134.355 78.0279C134.973 77.5634 135.609 77.1487 136.244 76.7672C136.953 76.3607 137.646 76.0206 138.323 75.7552C141.029 74.6769 143.471 74.7184 145.36 75.722V75.6971L138.958 72.2051H138.941C138.447 71.8069 137.902 71.4917 137.308 71.2678C135.996 70.7452 134.462 70.6457 132.779 71.0106C131.533 71.2843 130.205 71.8069 128.835 72.6032C127.977 73.1009 127.136 73.6815 126.319 74.3451C125.148 75.2824 124.026 76.369 122.986 77.58C121.287 79.5459 119.785 81.8103 118.597 84.1992C117.789 85.8084 117.129 87.4673 116.642 89.1263C115.99 91.3078 115.636 93.5059 115.636 95.5796V95.5879Z" fill="#D8D8D8" stroke="#26144D" stroke-width="1.5" stroke-linecap="round" stroke-linejoin="round"/>
<path d="M123.044 99.7515C123.044 103.609 124.273 106.42 126.303 107.938C128.72 109.747 132.275 109.713 136.244 107.416C143.528 103.177 149.443 92.8918 149.443 84.4229C149.443 80.0681 147.876 77.0489 145.36 75.7217C143 74.4692 139.791 74.7098 136.252 76.7668C128.967 80.9971 123.052 91.2826 123.052 99.7432L123.044 99.7515Z" fill="#7D7D7B" stroke="#26144D" stroke-width="1.5" stroke-linecap="round" stroke-linejoin="round"/>
<path d="M132.779 71.0106L134.347 78.028C134.966 77.5634 135.601 77.1487 136.236 76.7672C136.945 76.3607 137.638 76.0206 138.315 75.7552L137.308 71.2678C135.997 70.7452 134.462 70.6457 132.779 71.0106Z" fill="#D8D8D8" stroke="#26144D" stroke-width="1.5" stroke-linecap="round" stroke-linejoin="round"/>
<path d="M122.986 77.5797L127.029 86.4633C127.895 84.9868 128.868 83.5767 129.933 82.2911L126.319 74.3447C125.148 75.282 124.026 76.3686 122.986 77.5797Z" fill="#D8D8D8" stroke="#26144D" stroke-width="1.5" stroke-linecap="round" stroke-linejoin="round"/>
<path d="M116.643 89.1263L123.077 98.7316C123.185 96.7408 123.589 94.6837 124.249 92.6266L118.598 84.1992C117.789 85.8084 117.129 87.4673 116.643 89.1263Z" fill="#D8D8D8" stroke="#26144D" stroke-width="1.5" stroke-linecap="round" stroke-linejoin="round"/>
<path d="M115.875 98.3418C116.461 101.627 118.168 103.816 120.553 104.662L126.303 107.939C125.577 107.383 124.95 106.678 124.447 105.799L115.883 98.3418H115.875Z" fill="#D8D8D8" stroke="#26144D" stroke-width="1.5" stroke-linecap="round" stroke-linejoin="round"/>
<path d="M126.955 105.973C126.955 107.217 127.054 108.378 127.26 109.449C128.003 113.588 130.148 116.35 133.151 117.411L140.394 121.542C139.478 120.845 138.686 119.95 138.051 118.846C136.929 116.897 136.294 114.334 136.294 111.224C136.294 110.801 136.302 110.369 136.335 109.938C136.467 107.433 136.979 104.837 137.812 102.249C138.678 99.5944 139.866 96.9567 141.31 94.4766C142.399 92.6185 143.628 90.8435 144.973 89.2177C146.664 87.1523 148.545 85.3275 150.541 83.8427C151.317 83.2538 152.117 82.7312 152.926 82.2584C153.817 81.7442 154.691 81.3128 155.541 80.9811C158.956 79.6207 162.025 79.6705 164.409 80.9396V80.9064L156.341 76.5102H156.324C155.706 76.0042 155.013 75.6061 154.27 75.3241C152.612 74.6605 150.682 74.5361 148.561 75.0006C146.994 75.3406 145.319 76.0042 143.587 77.0079C142.506 77.6383 141.442 78.3682 140.419 79.206C138.942 80.3838 137.531 81.7608 136.22 83.2787C134.075 85.7588 132.185 88.6122 130.692 91.6232C129.678 93.6471 128.844 95.7374 128.226 97.8359C127.409 100.59 126.955 103.352 126.955 105.973Z" fill="#D8D8D8" stroke="#26144D" stroke-width="1.5" stroke-linecap="round" stroke-linejoin="round"/>
<path d="M136.285 111.224C136.285 116.093 137.836 119.626 140.385 121.542C143.43 123.815 147.917 123.782 152.917 120.887C162.099 115.545 169.548 102.581 169.548 91.9135C169.548 86.4224 167.568 82.6235 164.401 80.9479C161.422 79.3636 157.38 79.6788 152.917 82.2668C143.735 87.592 136.285 100.565 136.285 111.232V111.224Z" fill="#7D7D7B" stroke="#26144D" stroke-width="1.5" stroke-linecap="round" stroke-linejoin="round"/>
<path d="M148.562 75.0006L150.541 83.8427C151.317 83.2538 152.117 82.7312 152.926 82.2584C153.817 81.7442 154.691 81.3128 155.541 80.9811L154.27 75.3241C152.612 74.6605 150.682 74.5361 148.562 75.0006Z" fill="#D8D8D8" stroke="#26144D" stroke-width="1.5" stroke-linecap="round" stroke-linejoin="round"/>
<path d="M136.22 83.2788L141.31 94.4766C142.399 92.6186 143.628 90.8435 144.973 89.2178L140.419 79.2061C138.942 80.3839 137.531 81.7608 136.22 83.2788Z" fill="#D8D8D8" stroke="#26144D" stroke-width="1.5" stroke-linecap="round" stroke-linejoin="round"/>
<path d="M128.226 97.8358L136.335 109.938C136.467 107.433 136.979 104.837 137.812 102.249L130.692 91.623C129.678 93.647 128.844 95.7372 128.226 97.8358Z" fill="#D8D8D8" stroke="#26144D" stroke-width="1.5" stroke-linecap="round" stroke-linejoin="round"/>
<path d="M127.261 109.448C128.003 113.587 130.148 116.349 133.151 117.411L140.394 121.542C139.479 120.845 138.687 119.949 138.052 118.846L127.261 109.448Z" fill="#D8D8D8" stroke="#26144D" stroke-width="1.5" stroke-linecap="round" stroke-linejoin="round"/>
<path d="M148.768 104.613C148.768 105.874 149.114 106.845 149.7 107.458L150.855 108.139L167.486 117.885C168.592 118.54 169.813 118.847 171.009 118.847C173.41 118.847 175.753 117.603 177.056 115.372C179.003 112.02 177.889 107.715 174.557 105.75L157.966 96.0365L156.597 95.232C155.796 95.0661 154.831 95.2651 153.792 95.8624C151.02 97.4715 148.768 101.395 148.768 104.613Z" fill="#D8D8D8" stroke="#26144D" stroke-width="1.5" stroke-linecap="round" stroke-linejoin="round"/>
<path d="M200.518 99.2628L196.228 109.606L176.709 156.637L170.984 170.448L162.041 165.148L162.181 124.412C162.289 113.546 169.994 100.399 179.407 95.0491C182.105 93.5229 184.646 92.793 186.898 92.793C189.15 92.793 190.94 93.4565 192.45 94.709L200.518 99.2628Z" fill="#D8D8D8" stroke="#26144D" stroke-width="1.5" stroke-linecap="round" stroke-linejoin="round"/>
<path d="M204.842 150.806L170.984 170.448L171.125 129.713C171.224 118.847 178.937 105.7 188.35 100.35C197.763 94.9997 205.312 99.4788 205.213 110.345L204.842 150.806Z" fill="#7D7D7B" stroke="#26144D" stroke-width="1.5" stroke-linecap="round" stroke-linejoin="round"/>
<path d="M204.561 112.144L201.484 117.768L191.749 135.602L188.317 141.873L182.121 138.347C179.407 137.385 177.675 134.499 177.675 130.136C177.675 122.48 183.021 113.173 189.612 109.349C193.283 107.217 196.567 107.234 198.753 108.984H198.761L204.561 112.144Z" fill="#D8D8D8" stroke="#26144D" stroke-width="1.5" stroke-linecap="round" stroke-linejoin="round"/>
<path d="M204.75 131.871C209.411 123.754 209.411 114.981 204.751 112.276C200.091 109.571 192.535 113.958 187.874 122.075C183.213 130.192 183.212 138.965 187.872 141.67C192.532 144.376 200.089 139.988 204.75 131.871Z" fill="#7D7D7B" stroke="#26144D" stroke-width="1.5" stroke-linecap="round" stroke-linejoin="round"/>
<path d="M191.807 130.8C191.807 132.061 192.153 133.031 192.739 133.645L193.894 134.325L210.525 144.071C211.631 144.727 212.852 145.034 214.048 145.034C216.449 145.034 218.792 143.789 220.095 141.558C222.042 138.207 220.929 133.902 217.596 131.936L201.005 122.223L199.636 121.418C198.835 121.253 197.87 121.452 196.831 122.049C194.059 123.658 191.807 127.581 191.807 130.8Z" fill="white" stroke="#26144D" stroke-width="1.5" stroke-linecap="round" stroke-linejoin="round"/>
</g>
<path d="M206.206 143.859C206.206 147.042 207.468 149.149 209.45 149.847L213.243 152.006C211.904 151 211.095 149.149 211.095 146.6C211.095 141.015 214.996 134.227 219.809 131.434C222.148 130.076 224.264 129.916 225.826 130.742V130.723L221.6 128.424C220.006 127.143 217.61 127.13 214.926 128.687C210.113 131.479 206.212 138.268 206.212 143.853L206.206 143.859Z" fill="#D7D7D7" stroke="#26144D" stroke-width="1.5" stroke-linecap="round" stroke-linejoin="round"/>
<path d="M211.102 146.606C211.102 149.155 211.918 151.006 213.25 152.012C214.843 153.203 217.196 153.184 219.815 151.666C224.628 148.867 228.529 142.078 228.529 136.494C228.529 133.618 227.49 131.626 225.833 130.749C224.271 129.922 222.155 130.083 219.815 131.44C215.003 134.233 211.102 141.022 211.102 146.606Z" fill="#7D7D7B" stroke="#26144D" stroke-width="1.5" stroke-linecap="round" stroke-linejoin="round"/>
<defs>
<clipPath id="clip0_813_25397">
<rect width="172.636" height="174.969" fill="white" transform="translate(49.0352)"/>
</clipPath>
</defs>
</svg>
