<svg width="256" height="199" viewBox="0 0 256 199" fill="none" xmlns="http://www.w3.org/2000/svg">
<path d="M169.098 180.996L1.14453 84.1985L87.0096 34.5918L254.973 131.389L169.098 180.996Z" fill="#4DA4FF" stroke="#26144D" stroke-width="1.5" stroke-linecap="round" stroke-linejoin="round"/>
<g style="mix-blend-mode:multiply" opacity="0.46">
<path d="M238.856 141.084L176.638 176.403L72.3176 117.927L157.224 94.0693L238.856 141.084Z" fill="#B2B4B3"/>
</g>
<path d="M168.963 197.773L1 100.986V84.0732L168.963 180.861V197.773Z" fill="#999999" stroke="#26144D" stroke-width="1.5" stroke-linecap="round" stroke-linejoin="round"/>
<path d="M254.906 148.292L169.041 197.899V180.987L254.906 131.38V148.292Z" fill="#D9D9D9" stroke="#26144D" stroke-width="1.5" stroke-linecap="round" stroke-linejoin="round"/>
<path d="M94.2339 32.3498L84.1696 50.683L24.5953 19.8636L24.6822 19.709C23.2527 18.9841 22.3545 17.2929 22.3545 14.8382C22.3545 10.122 25.6674 4.37176 29.7626 2.01367C31.9165 0.766981 33.8579 0.708995 35.2101 1.6271L35.2584 1.54012L94.2339 32.3498Z" fill="#D7D7D7" stroke="#26144D" stroke-width="1.5" stroke-linecap="round" stroke-linejoin="round"/>
<path d="M100.869 49.7231C107.604 38.0517 107.603 25.4358 100.868 21.5448C94.1323 17.6539 83.2127 23.9612 76.4782 35.6326C69.7436 47.3041 69.7443 59.9199 76.4798 63.8109C83.2152 67.7019 94.1348 61.3946 100.869 49.7231Z" fill="#F11131" stroke="#26144D" stroke-width="1.5" stroke-linecap="round" stroke-linejoin="round"/>
<path d="M74.6953 78.1489C74.6953 90.6159 79.2735 99.2074 86.5947 102.841L149.366 139.894L202.498 48.8662L138.094 10.6053L138.065 10.6536C131.343 6.96184 122.158 7.59968 112.026 13.4562C91.4047 25.3723 74.6953 54.3361 74.6953 78.1489Z" fill="#E30133" stroke="#26144D" stroke-width="1.5" stroke-linecap="round" stroke-linejoin="round"/>
<path d="M201.608 109.285C216.184 84.0235 216.185 56.7196 201.61 48.2998C187.035 39.88 163.404 53.5327 148.828 78.7938C134.252 104.055 134.251 131.359 148.826 139.779C163.401 148.198 187.032 134.546 201.608 109.285Z" fill="#BE0037" stroke="#26144D" stroke-width="1.5" stroke-linecap="round" stroke-linejoin="round"/>
<path d="M205.927 71.4522L200.904 83.5036L178.052 138.3L171.349 148.486L160.879 142.311L161.043 100.754C161.169 88.0941 170.19 72.7762 181.21 66.5427C184.369 64.7645 187.344 63.9141 189.98 63.9141C192.617 63.9141 194.713 64.6872 196.481 66.1465L205.927 71.4522Z" fill="#E30133" stroke="#26144D" stroke-width="1.5" stroke-linecap="round" stroke-linejoin="round"/>
<path d="M178.053 138.3L200.905 83.5039" stroke="#26144D" stroke-width="1.5" stroke-linecap="round" stroke-linejoin="round"/>
<path d="M210.989 125.601L171.35 148.486L171.514 106.929C171.63 94.2692 180.661 78.9513 191.681 72.7179C202.701 66.4844 211.539 71.7031 211.423 84.3633L210.989 125.601Z" fill="#BE0037" stroke="#26144D" stroke-width="1.5" stroke-linecap="round" stroke-linejoin="round"/>
<path d="M210.66 86.46L207.057 93.0124L195.66 113.791L191.642 121.097L184.389 116.989C181.211 115.868 179.183 112.505 179.183 107.422C179.183 98.5017 185.441 87.6584 193.159 83.2031C197.457 80.7194 201.301 80.7387 203.86 82.7779H203.87L210.66 86.46Z" fill="#E30133" stroke="#26144D" stroke-width="1.5" stroke-linecap="round" stroke-linejoin="round"/>
<path d="M210.876 109.44C216.333 99.9825 216.334 89.7609 210.878 86.6091C205.423 83.4574 196.576 88.569 191.119 98.0264C185.662 107.484 185.661 117.705 191.117 120.857C196.573 124.009 205.419 118.897 210.876 109.44Z" fill="#BE0037" stroke="#26144D" stroke-width="1.5" stroke-linecap="round" stroke-linejoin="round"/>
<path d="M148.43 22.4834V49.4564C151.945 46.1705 155.664 43.3486 159.527 41.1161C164.405 38.2942 169.07 36.6899 173.349 36.1873V24.4356L148.43 22.4834Z" fill="#BE0037" stroke="#26144D" stroke-width="1.5" stroke-linecap="round" stroke-linejoin="round"/>
<path d="M118.371 20.1348V31.9445L148.419 49.4659L148.429 49.4562V22.4832L118.371 20.1348Z" fill="#F11131" stroke="#26144D" stroke-width="1.5" stroke-linecap="round" stroke-linejoin="round"/>
<path d="M173.348 24.4352C169.069 24.9378 164.404 26.542 159.526 29.364C155.663 31.5965 151.935 34.4281 148.429 37.714L118.371 20.1926C118.371 20.1926 123.635 14.8193 131.652 11.1275C139.668 7.43576 145.068 7.63871 145.068 7.63871L173.338 24.4256L173.348 24.4352Z" fill="#F11131" stroke="#26144D" stroke-width="1.5" stroke-linecap="round" stroke-linejoin="round"/>
<path d="M72.5518 117.927L99.8558 110.756V84.9141L72.5518 117.927Z" fill="#7D7D7B" stroke="#26144D" stroke-width="1.5" stroke-linecap="round" stroke-linejoin="round"/>
<path d="M103.193 134.769L129.508 128.22V103.045L103.193 134.769Z" fill="#7D7D7B" stroke="#26144D" stroke-width="1.5" stroke-linecap="round" stroke-linejoin="round"/>
<path d="M99.8562 84.9139L88.2755 78.1973L62.2842 111.355L72.503 117.888L99.8562 84.9139Z" fill="#D7D7D7" stroke="#26144D" stroke-width="1.5" stroke-linecap="round" stroke-linejoin="round"/>
<path d="M129.508 103.045L117.928 96.3281L92.2002 129.155L103.194 134.769L129.508 103.045Z" fill="#D7D7D7" stroke="#26144D" stroke-width="1.5" stroke-linecap="round" stroke-linejoin="round"/>
<path d="M86.9193 54.8748L127.187 78.1367L132.32 69.2399L92.0529 45.978L86.9193 54.8748Z" fill="#BE0037" stroke="#26144D" stroke-width="1.5" stroke-linecap="round" stroke-linejoin="round"/>
<path d="M205.44 106.299C207.891 102.051 207.889 97.4582 205.436 96.0411C202.983 94.624 199.007 96.9189 196.556 101.167C194.105 105.415 194.107 110.007 196.56 111.424C199.013 112.841 202.988 110.546 205.44 106.299Z" fill="#7D7D7B" stroke="#26144D" stroke-width="1.5" stroke-linecap="round" stroke-linejoin="round"/>
<path d="M165.264 23.0827L145.541 11.4082" stroke="white" stroke-width="1.5" stroke-linecap="round" stroke-linejoin="round"/>
</svg>
