<svg width="256" height="199" fill="none" xmlns="http://www.w3.org/2000/svg"><path d="M169.098 180.996L1.145 84.198 87.01 34.592l167.963 96.797-85.875 49.607z" fill="#4DA4FF" stroke="#26144D" stroke-width="1.5" stroke-linecap="round" stroke-linejoin="round"/><path d="M238.856 141.084l-62.218 35.319-104.32-58.476 84.906-23.858 81.632 47.015z" fill="#B2B4B3" opacity=".46"/><path d="M168.963 197.773L1 100.986V84.073l167.963 96.788v16.912z" fill="#999" stroke="#26144D" stroke-width="1.5" stroke-linecap="round" stroke-linejoin="round"/><path d="M254.906 148.292l-85.865 49.607v-16.912l85.865-49.607v16.912z" fill="#D9D9D9" stroke="#26144D" stroke-width="1.5" stroke-linecap="round" stroke-linejoin="round"/><path d="M94.234 32.35L84.17 50.683l-59.575-30.82.087-.154c-1.43-.725-2.327-2.416-2.327-4.87 0-4.717 3.312-10.467 7.408-12.825C31.916.767 33.858.709 35.21 1.627l.048-.087 58.976 30.81z" fill="#D7D7D7" stroke="#26144D" stroke-width="1.5" stroke-linecap="round" stroke-linejoin="round"/><path d="M100.869 49.723c6.735-11.671 6.734-24.287-.001-28.178-6.736-3.891-17.655 2.416-24.39 14.088-6.734 11.671-6.734 24.287.002 28.178 6.735 3.89 17.655-2.416 24.389-14.088z" fill="#F11131" stroke="#26144D" stroke-width="1.5" stroke-linecap="round" stroke-linejoin="round"/><path d="M74.695 78.149c0 12.467 4.579 21.058 11.9 24.692l62.771 37.053 53.132-91.028-64.404-38.26-.029.048c-6.722-3.692-15.907-3.054-26.039 2.802-20.621 11.916-37.33 40.88-37.33 64.693z" fill="#E30133" stroke="#26144D" stroke-width="1.5" stroke-linecap="round" stroke-linejoin="round"/><path d="M201.608 109.285c14.576-25.261 14.577-52.565.002-60.985-14.575-8.42-38.206 5.233-52.782 30.494-14.576 25.261-14.577 52.565-.002 60.985 14.575 8.419 38.206-5.233 52.782-30.494z" fill="#BE0037" stroke="#26144D" stroke-width="1.5" stroke-linecap="round" stroke-linejoin="round"/><path d="M205.927 71.452l-5.023 12.052-22.852 54.796-6.703 10.186-10.47-6.175.164-41.557c.126-12.66 9.147-27.978 20.167-34.211 3.159-1.779 6.134-2.629 8.77-2.629 2.637 0 4.733.773 6.501 2.233l9.446 5.305z" fill="#E30133" stroke="#26144D" stroke-width="1.5" stroke-linecap="round" stroke-linejoin="round"/><path d="M178.053 138.3l22.852-54.796" stroke="#26144D" stroke-width="1.5" stroke-linecap="round" stroke-linejoin="round"/><path d="M210.989 125.601l-39.639 22.885.164-41.557c.116-12.66 9.147-27.978 20.167-34.211 11.02-6.234 19.858-1.015 19.742 11.645l-.434 41.238z" fill="#BE0037" stroke="#26144D" stroke-width="1.5" stroke-linecap="round" stroke-linejoin="round"/><path d="M210.66 86.46l-3.603 6.552-11.397 20.779-4.018 7.306-7.253-4.108c-3.178-1.121-5.206-4.484-5.206-9.567 0-8.92 6.258-19.764 13.976-24.219 4.298-2.484 8.142-2.464 10.701-.425h.01l6.79 3.682z" fill="#E30133" stroke="#26144D" stroke-width="1.5" stroke-linecap="round" stroke-linejoin="round"/><path d="M210.876 109.44c5.457-9.457 5.458-19.68.002-22.83-5.455-3.153-14.302 1.959-19.759 11.416-5.457 9.458-5.458 19.679-.002 22.831 5.456 3.152 14.302-1.96 19.759-11.417zM148.43 22.483v26.973c3.515-3.286 7.234-6.107 11.097-8.34 4.878-2.822 9.543-4.426 13.822-4.929V24.436l-24.919-1.953z" fill="#BE0037" stroke="#26144D" stroke-width="1.5" stroke-linecap="round" stroke-linejoin="round"/><path d="M118.371 20.135v11.81l30.048 17.52.01-.009V22.483l-30.058-2.348z" fill="#F11131" stroke="#26144D" stroke-width="1.5" stroke-linecap="round" stroke-linejoin="round"/><path d="M173.348 24.435c-4.279.503-8.944 2.107-13.822 4.929-3.863 2.232-7.591 5.064-11.097 8.35l-30.058-17.521s5.264-5.374 13.281-9.066c8.016-3.691 13.416-3.488 13.416-3.488l28.27 16.787.01.01z" fill="#F11131" stroke="#26144D" stroke-width="1.5" stroke-linecap="round" stroke-linejoin="round"/><path d="M72.552 117.927l27.304-7.171V84.914l-27.304 33.013zm30.641 16.842l26.315-6.549v-25.175l-26.315 31.724z" fill="#7D7D7B" stroke="#26144D" stroke-width="1.5" stroke-linecap="round" stroke-linejoin="round"/><path d="M99.856 84.914l-11.58-6.717-25.992 33.158 10.219 6.533 27.353-32.974zm29.652 18.131l-11.58-6.717L92.2 129.155l10.994 5.614 26.314-31.724z" fill="#D7D7D7" stroke="#26144D" stroke-width="1.5" stroke-linecap="round" stroke-linejoin="round"/><path d="M86.92 54.875l40.267 23.262 5.133-8.897-40.267-23.262-5.134 8.897z" fill="#BE0037" stroke="#26144D" stroke-width="1.5" stroke-linecap="round" stroke-linejoin="round"/><path d="M205.44 106.299c2.451-4.248 2.449-8.84-.004-10.258-2.453-1.417-6.429.878-8.88 5.126-2.451 4.248-2.449 8.84.004 10.257 2.453 1.417 6.428-.878 8.88-5.125z" fill="#7D7D7B" stroke="#26144D" stroke-width="1.5" stroke-linecap="round" stroke-linejoin="round"/><path d="M165.264 23.083l-19.723-11.675" stroke="#fff" stroke-width="1.5" stroke-linecap="round" stroke-linejoin="round"/></svg>