<svg width="166" height="138" viewBox="0 0 166 138" fill="none" xmlns="http://www.w3.org/2000/svg">
<path d="M106.669 24.2159C106.72 21.2305 108.817 17.4988 111.347 15.8789C112.858 14.9375 114.166 14.946 114.99 15.7432L139.714 29.7117L133.184 41.3649L108.46 27.3964C107.357 27.1165 106.66 26.0055 106.677 24.2244L106.669 24.2159Z" fill="#248CFF" stroke="#26144D" stroke-width="1.5" stroke-linecap="round" stroke-linejoin="round"/>
<path d="M139.542 37.2747C141.368 34.0175 141.423 30.5792 139.663 29.5951C137.904 28.6109 134.998 30.4536 133.172 33.7108C131.346 36.9679 131.291 40.4062 133.051 41.3904C134.81 42.3745 137.716 40.5318 139.542 37.2747Z" fill="#0069EA" stroke="#26144D" stroke-width="1.5" stroke-linecap="round" stroke-linejoin="round"/>
<path d="M83.0681 121.106L1.13574 73.8483L83.0681 26.5996L165.001 73.8483L83.0681 121.106Z" fill="#8ED760" stroke="#26144D" stroke-width="1.5" stroke-linecap="round" stroke-linejoin="round"/>
<path d="M82.9324 137.092L1 89.8353V73.7295L82.9324 120.987V137.092Z" fill="#956054" stroke="#26144D" stroke-width="1.5" stroke-linecap="round" stroke-linejoin="round"/>
<path d="M164.942 89.9534L83.0098 137.211V121.105L164.942 73.8477V89.9534Z" fill="#A9776B" stroke="#26144D" stroke-width="1.5" stroke-linecap="round" stroke-linejoin="round"/>
<path d="M32.4844 69.3184V74.5088" stroke="#5FAE2C" stroke-width="1.5" stroke-linecap="round" stroke-linejoin="round"/>
<path d="M146.782 71.0908V76.2813" stroke="#5FAE2C" stroke-width="1.5" stroke-linecap="round" stroke-linejoin="round"/>
<path d="M37.6895 71.9141V77.1045" stroke="#5FAE2C" stroke-width="1.5" stroke-linecap="round" stroke-linejoin="round"/>
<path d="M141.926 68.1484V73.3389" stroke="#5FAE2C" stroke-width="1.5" stroke-linecap="round" stroke-linejoin="round"/>
<path d="M137.42 71.6094V76.7999" stroke="#5FAE2C" stroke-width="1.5" stroke-linecap="round" stroke-linejoin="round"/>
<path d="M84.9971 103.43V108.62" stroke="#5FAE2C" stroke-width="1.5" stroke-linecap="round" stroke-linejoin="round"/>
<path d="M80.3203 99.791V104.99" stroke="#5FAE2C" stroke-width="1.5" stroke-linecap="round" stroke-linejoin="round"/>
<path d="M75.6426 103.607V108.798" stroke="#5FAE2C" stroke-width="1.5" stroke-linecap="round" stroke-linejoin="round"/>
<path d="M27.4668 72.2617V77.4522" stroke="#5FAE2C" stroke-width="1.5" stroke-linecap="round" stroke-linejoin="round"/>
<path d="M75.6974 51.5943L66.5107 46.2427L66.5702 20.6719L75.7568 26.0235L75.6974 51.5943Z" fill="white" stroke="black" stroke-width="1.5" stroke-linecap="round" stroke-linejoin="round"/>
<path d="M75.7569 26.0225L66.5703 20.6709L74.9758 15.8281L84.1539 21.1798L75.7569 26.0225Z" fill="#248CFF" stroke="#26144D" stroke-width="1.5" stroke-linecap="round" stroke-linejoin="round"/>
<path d="M69.625 20.8162L75.2796 17.6357" stroke="white" stroke-width="1.5" stroke-linecap="round" stroke-linejoin="round"/>
<path d="M84.1557 21.1807L84.1047 46.7515L75.6992 51.5942L75.7587 26.0234L84.1557 21.1807Z" fill="white" stroke="black" stroke-width="1.5" stroke-linecap="round" stroke-linejoin="round"/>
<path d="M64.2504 58.192L55.0723 52.8403L55.1232 27.2695L64.3098 32.6296L64.2504 58.192Z" fill="#004DA9" stroke="#26144D" stroke-width="1.5" stroke-linecap="round" stroke-linejoin="round"/>
<path d="M64.3097 32.6306L55.123 27.2705L63.5285 22.4277L72.7152 27.7794L64.3097 32.6306Z" fill="#248CFF" stroke="#26144D" stroke-width="1.5" stroke-linecap="round" stroke-linejoin="round"/>
<path d="M58.1631 27.49L63.8262 24.3096" stroke="white" stroke-width="1.5" stroke-linecap="round" stroke-linejoin="round"/>
<path d="M72.7188 27.7793L72.6594 53.3501L64.2539 58.1929L64.3133 32.6305L72.7188 27.7793Z" fill="white" stroke="black" stroke-width="1.5" stroke-linecap="round" stroke-linejoin="round"/>
<g style="mix-blend-mode:multiply" opacity="0.46">
<path d="M55.5986 89.0803L96.4714 113.116L150.436 82.3632L126.723 67.6992L55.5986 89.0803Z" fill="#B2B4B3"/>
</g>
<path d="M52.8155 64.7906L43.6289 59.439L43.6883 33.8682L52.8665 39.2283L52.8155 64.7906Z" fill="#004DA9" stroke="#26144D" stroke-width="1.5" stroke-linecap="round" stroke-linejoin="round"/>
<path d="M52.8666 39.2283L43.6885 33.8681L52.0855 29.0254L61.2721 34.377L52.8666 39.2283Z" fill="#248CFF" stroke="#26144D" stroke-width="1.5" stroke-linecap="round" stroke-linejoin="round"/>
<path d="M61.2719 34.376L61.2124 59.9468L52.8154 64.7895L52.8664 39.2272L61.2719 34.376Z" fill="white" stroke="black" stroke-width="1.5" stroke-linecap="round" stroke-linejoin="round"/>
<path d="M78.023 95.3745L42.9746 75.1553V40.8828L78.023 61.102V95.3745Z" fill="#004DA9" stroke="#26144D" stroke-width="1.5" stroke-linecap="round" stroke-linejoin="round"/>
<path d="M128.371 66.334L78.0225 95.3736V61.1011L128.371 32.0615V66.334Z" fill="#0069EA" stroke="#26144D" stroke-width="1.5" stroke-linecap="round" stroke-linejoin="round"/>
<path d="M78.023 61.1018L42.9746 40.8827L93.3227 11.8516L128.371 32.0622L78.023 61.1018Z" fill="#248CFF" stroke="#26144D" stroke-width="1.5" stroke-linecap="round" stroke-linejoin="round"/>
<g style="mix-blend-mode:multiply" opacity="0.46">
<path d="M65.9756 48.1339L82.1413 57.972L90.1053 53.7314L74.2198 44.5039L65.9756 48.1339Z" fill="#B2B4B3"/>
</g>
<g style="mix-blend-mode:multiply" opacity="0.46">
<path d="M80.543 38.2437L98.4747 48.7264L106.142 44.2484L89.8654 34.707L80.543 38.2437Z" fill="#B2B4B3"/>
</g>
<g style="mix-blend-mode:multiply" opacity="0.46">
<path d="M97.1787 29.8738L113.93 39.5339L121.716 35.2933L105.414 26.2354L97.1787 29.8738Z" fill="#B2B4B3"/>
</g>
<path d="M51.1768 52.1445L67.6906 61.4484" stroke="#26144D" stroke-width="1.5" stroke-linecap="round" stroke-linejoin="round"/>
<path d="M51.1768 56.3857L67.6906 65.6896" stroke="#26144D" stroke-width="1.5" stroke-linecap="round" stroke-linejoin="round"/>
<path d="M51.1768 60.8633L67.6906 70.1671" stroke="#26144D" stroke-width="1.5" stroke-linecap="round" stroke-linejoin="round"/>
<path d="M51.1768 65.2227L67.6906 74.5265" stroke="#26144D" stroke-width="1.5" stroke-linecap="round" stroke-linejoin="round"/>
<path d="M120.28 81.5494L111.094 76.1893L111.153 50.627L120.34 55.9786L120.28 81.5494Z" fill="#004DA9" stroke="#26144D" stroke-width="1.5" stroke-linecap="round" stroke-linejoin="round"/>
<path d="M120.338 55.9792L111.151 50.6276L119.557 45.7764L128.735 51.1365L120.338 55.9792Z" fill="#248CFF" stroke="#26144D" stroke-width="1.5" stroke-linecap="round" stroke-linejoin="round"/>
<path d="M128.736 51.1367L128.685 76.7075L120.279 81.5503L120.339 55.9795L128.736 51.1367Z" fill="#0069EA" stroke="#26144D" stroke-width="1.5" stroke-linecap="round" stroke-linejoin="round"/>
<path d="M108.835 88.148L99.6572 82.7964L99.7082 57.2256L108.895 62.5772L108.835 88.148Z" fill="#004DA9" stroke="#26144D" stroke-width="1.5" stroke-linecap="round" stroke-linejoin="round"/>
<path d="M108.894 62.5769L99.707 57.2253L108.113 52.374L117.299 57.7341L108.894 62.5769Z" fill="#248CFF" stroke="#26144D" stroke-width="1.5" stroke-linecap="round" stroke-linejoin="round"/>
<path d="M117.298 57.7344L117.239 83.3052L108.833 88.1479L108.892 62.5771L117.298 57.7344Z" fill="#0069EA" stroke="#26144D" stroke-width="1.5" stroke-linecap="round" stroke-linejoin="round"/>
<path d="M97.3976 94.7456L88.2109 89.394L88.2704 63.8232L97.4485 69.1749L97.3976 94.7456Z" fill="#004DA9" stroke="#26144D" stroke-width="1.5" stroke-linecap="round" stroke-linejoin="round"/>
<path d="M97.4477 69.1758L88.2695 63.8242L96.6665 58.9814L105.853 64.3331L97.4477 69.1758Z" fill="#248CFF" stroke="#26144D" stroke-width="1.5" stroke-linecap="round" stroke-linejoin="round"/>
<path d="M105.855 64.333L105.795 89.9038L97.3984 94.7466L97.4494 69.1758L105.855 64.333Z" fill="#0069EA" stroke="#26144D" stroke-width="1.5" stroke-linecap="round" stroke-linejoin="round"/>
<path d="M67.4443 95.5524L42.1514 80.9053L42.2108 69.6084L67.5037 84.2554L67.4443 95.5524Z" fill="#004DA9" stroke="#26144D" stroke-width="1.5" stroke-linecap="round" stroke-linejoin="round"/>
<path d="M67.5038 84.2557L42.2109 69.6087L47.3731 66.6318L72.666 81.2789L67.5038 84.2557Z" fill="#248CFF" stroke="#26144D" stroke-width="1.5" stroke-linecap="round" stroke-linejoin="round"/>
<path d="M72.6669 81.2783L72.6075 92.5753L67.4453 95.5522L67.5047 84.2552L72.6669 81.2783Z" fill="#0069EA" stroke="#26144D" stroke-width="1.5" stroke-linecap="round" stroke-linejoin="round"/>
<path d="M103.069 29.2625C100.972 30.1361 97.7452 29.7968 95.8603 28.5077C94.7565 27.7359 94.366 26.803 94.6801 25.9888L95.9197 14.166L105.989 15.2177L104.75 27.0405C104.886 27.9055 104.317 28.7367 103.069 29.2625Z" fill="white" stroke="#26144D" stroke-width="1.5" stroke-linecap="round" stroke-linejoin="round"/>
<path d="M105.022 24.1311C105.158 24.9962 104.589 25.8273 103.35 26.3531C101.261 27.2267 98.0518 26.8875 96.1839 25.6068C95.0802 24.835 94.6981 23.9021 95.0123 23.0879" fill="white"/>
<path d="M105.022 24.1311C105.158 24.9962 104.589 25.8273 103.35 26.3531C101.261 27.2267 98.0518 26.8875 96.1839 25.6068C95.0802 24.835 94.6981 23.9021 95.0123 23.0879" stroke="#26144D" stroke-width="1.5" stroke-linecap="round" stroke-linejoin="round"/>
<path d="M105.346 21.0793C105.482 21.9444 104.913 22.7756 103.673 23.3014C101.584 24.175 98.3751 23.8357 96.5072 22.555C95.4034 21.7833 95.0214 20.8503 95.3355 20.0361" fill="white"/>
<path d="M105.346 21.0793C105.482 21.9444 104.913 22.7756 103.673 23.3014C101.584 24.175 98.3751 23.8357 96.5072 22.555C95.4034 21.7833 95.0214 20.8503 95.3355 20.0361" stroke="#26144D" stroke-width="1.5" stroke-linecap="round" stroke-linejoin="round"/>
<path d="M105.675 18.1858C105.811 19.0508 105.242 19.882 104.002 20.4078C101.914 21.2814 98.7042 20.9422 96.8363 19.6615C95.7325 18.8897 95.3505 17.9568 95.6646 17.1426" fill="white"/>
<path d="M105.675 18.1858C105.811 19.0508 105.242 19.882 104.002 20.4078C101.914 21.2814 98.7042 20.9422 96.8363 19.6615C95.7325 18.8897 95.3505 17.9568 95.6646 17.1426" stroke="#26144D" stroke-width="1.5" stroke-linecap="round" stroke-linejoin="round"/>
<path d="M106.275 14.4669C106.436 12.9296 104.253 11.4412 101.399 11.1426C98.545 10.8439 96.1006 11.8481 95.9394 13.3854C95.7781 14.9227 97.9612 16.411 100.815 16.7097C103.669 17.0083 106.114 16.0042 106.275 14.4669Z" fill="white" stroke="#26144D" stroke-width="1.5" stroke-linecap="round" stroke-linejoin="round"/>
<path d="M106.657 10.8536C106.818 9.31629 104.635 7.82794 101.781 7.52929C98.9268 7.23064 96.4824 8.23479 96.3212 9.77211C96.16 11.3094 98.343 12.7978 101.197 13.0964C104.051 13.3951 106.496 12.3909 106.657 10.8536Z" fill="white" stroke="#26144D" stroke-width="1.5" stroke-linecap="round" stroke-linejoin="round"/>
<path d="M103.044 10.1042C102.271 10.418 101.083 10.2993 100.386 9.82433C99.9789 9.54445 99.8346 9.2052 99.945 8.90836L100.395 4.6084L104.114 4.99853L103.664 9.2985C103.715 9.6123 103.502 9.91763 103.044 10.1042Z" fill="white" stroke="#26144D" stroke-width="1.5" stroke-linecap="round" stroke-linejoin="round"/>
<path d="M104.137 5.01567C104.196 4.45664 103.4 3.91525 102.36 3.80642C101.32 3.6976 100.429 4.06256 100.371 4.62159C100.312 5.18061 101.108 5.72201 102.148 5.83083C103.188 5.93965 104.078 5.57469 104.137 5.01567Z" fill="white" stroke="#26144D" stroke-width="1.5" stroke-linecap="round" stroke-linejoin="round"/>
<path d="M107.557 4.86533C107.718 3.32801 105.535 1.83966 102.681 1.54101C99.8272 1.24236 97.3828 2.24651 97.2216 3.78382C97.0604 5.32114 99.2434 6.80949 102.098 7.10813C104.952 7.40678 107.396 6.40265 107.557 4.86533Z" fill="#E40133" stroke="#26144D" stroke-width="1.5" stroke-linecap="round" stroke-linejoin="round"/>
<path d="M88.4435 37.9301C86.4482 39.0157 83.2049 39.0157 81.2011 37.9301C80.021 37.277 79.537 36.395 79.7663 35.5469V23.6562H89.8868V35.5469C90.1076 36.395 89.6321 37.277 88.452 37.9301H88.4435Z" fill="white" stroke="#26144D" stroke-width="1.5" stroke-linecap="round" stroke-linejoin="round"/>
<path d="M89.8499 32.6201C90.0706 33.4682 89.5952 34.3503 88.4235 35.0033C86.4368 36.0889 83.2104 36.0889 81.2152 35.0033C80.0435 34.3503 79.5595 33.4682 79.7888 32.6201" fill="white"/>
<path d="M89.8499 32.6201C90.0706 33.4682 89.5952 34.3503 88.4235 35.0033C86.4368 36.0889 83.2104 36.0889 81.2152 35.0033C80.0435 34.3503 79.5595 33.4682 79.7888 32.6201" stroke="#26144D" stroke-width="1.5" stroke-linecap="round" stroke-linejoin="round"/>
<path d="M89.8499 29.5596C90.0706 30.4077 89.5952 31.2897 88.4235 31.9428C86.4368 33.0284 83.2104 33.0284 81.2152 31.9428C80.0435 31.2897 79.5595 30.4077 79.7888 29.5596" fill="white"/>
<path d="M89.8499 29.5596C90.0706 30.4077 89.5952 31.2897 88.4235 31.9428C86.4368 33.0284 83.2104 33.0284 81.2152 31.9428C80.0435 31.2897 79.5595 30.4077 79.7888 29.5596" stroke="#26144D" stroke-width="1.5" stroke-linecap="round" stroke-linejoin="round"/>
<path d="M89.8753 26.6416C90.096 27.4897 89.6206 28.3718 88.4489 29.0248C86.4621 30.1104 83.2358 30.1104 81.2405 29.0248C80.0689 28.3718 79.5849 27.4897 79.8142 26.6416" fill="white"/>
<path d="M89.8753 26.6416C90.096 27.4897 89.6206 28.3718 88.4489 29.0248C86.4621 30.1104 83.2358 30.1104 81.2405 29.0248C80.0689 28.3718 79.5849 27.4897 79.8142 26.6416" stroke="#26144D" stroke-width="1.5" stroke-linecap="round" stroke-linejoin="round"/>
<path d="M84.8924 25.6835C87.7622 25.6835 90.0885 24.4305 90.0885 22.8847C90.0885 21.339 87.7622 20.0859 84.8924 20.0859C82.0227 20.0859 79.6963 21.339 79.6963 22.8847C79.6963 24.4305 82.0227 25.6835 84.8924 25.6835Z" fill="white" stroke="#26144D" stroke-width="1.5" stroke-linecap="round" stroke-linejoin="round"/>
<path d="M84.8924 22.0536C87.7622 22.0536 90.0885 20.8006 90.0885 19.2549C90.0885 17.7091 87.7622 16.4561 84.8924 16.4561C82.0227 16.4561 79.6963 17.7091 79.6963 19.2549C79.6963 20.8006 82.0227 22.0536 84.8924 22.0536Z" fill="white" stroke="#26144D" stroke-width="1.5" stroke-linecap="round" stroke-linejoin="round"/>
<path d="M86.4121 18.8819C85.6734 19.2805 84.4763 19.2805 83.7376 18.8819C83.3046 18.6444 83.1263 18.3221 83.2027 18.0168V13.6914H86.9385V18.0168C87.0234 18.3221 86.8451 18.6444 86.4036 18.8819H86.4121Z" fill="white" stroke="#26144D" stroke-width="1.5" stroke-linecap="round" stroke-linejoin="round"/>
<path d="M85.0789 14.7347C86.1246 14.7347 86.9723 14.279 86.9723 13.717C86.9723 13.1549 86.1246 12.6992 85.0789 12.6992C84.0332 12.6992 83.1855 13.1549 83.1855 13.717C83.1855 14.279 84.0332 14.7347 85.0789 14.7347Z" fill="white" stroke="#26144D" stroke-width="1.5" stroke-linecap="round" stroke-linejoin="round"/>
<path d="M85.1659 15.998C88.0356 15.998 90.362 14.7449 90.362 13.1992C90.362 11.6535 88.0356 10.4004 85.1659 10.4004C82.2961 10.4004 79.9697 11.6535 79.9697 13.1992C79.9697 14.7449 82.2961 15.998 85.1659 15.998Z" fill="#E40133" stroke="#26144D" stroke-width="1.5" stroke-linecap="round" stroke-linejoin="round"/>
<path d="M73.1416 47.0734C71.3246 48.4389 68.1152 48.9139 65.9757 48.1336C64.7106 47.6586 64.1078 46.8529 64.2012 45.9878L62.4521 34.2244L72.4623 32.7402L74.2114 44.5036C74.5595 45.3094 74.2114 46.2508 73.1416 47.0734Z" fill="white" stroke="#26144D" stroke-width="1.5" stroke-linecap="round" stroke-linejoin="round"/>
<path d="M73.759 41.6123C74.0986 42.418 73.759 43.3594 72.6977 44.1821C70.8977 45.5476 67.7053 46.0225 65.5742 45.2423C64.3177 44.7673 63.7148 43.9616 63.8082 43.0965" fill="white"/>
<path d="M73.759 41.6123C74.0986 42.418 73.759 43.3594 72.6977 44.1821C70.8977 45.5476 67.7053 46.0225 65.5742 45.2423C64.3177 44.7673 63.7148 43.9616 63.8082 43.0965" stroke="#26144D" stroke-width="1.5" stroke-linecap="round" stroke-linejoin="round"/>
<path d="M73.3107 38.584C73.6504 39.3897 73.3107 40.3311 72.2494 41.1538C70.4495 42.5193 67.2571 42.9942 65.126 42.2139C63.8694 41.739 63.2666 40.9333 63.36 40.0682" fill="white"/>
<path d="M73.3107 38.584C73.6504 39.3897 73.3107 40.3311 72.2494 41.1538C70.4495 42.5193 67.2571 42.9942 65.126 42.2139C63.8694 41.739 63.2666 40.9333 63.36 40.0682" stroke="#26144D" stroke-width="1.5" stroke-linecap="round" stroke-linejoin="round"/>
<path d="M72.9113 35.6914C73.251 36.4971 72.9113 37.4385 71.85 38.2612C70.0501 39.6267 66.8577 40.1016 64.7266 39.3214C63.47 38.8464 62.8672 38.0407 62.9606 37.1756" fill="white"/>
<path d="M72.9113 35.6914C73.251 36.4971 72.9113 37.4385 71.85 38.2612C70.0501 39.6267 66.8577 40.1016 64.7266 39.3214C63.47 38.8464 62.8672 38.0407 62.9606 37.1756" stroke="#26144D" stroke-width="1.5" stroke-linecap="round" stroke-linejoin="round"/>
<path d="M67.8393 35.4636C70.6779 35.0429 72.795 33.4623 72.5679 31.9333C72.3408 30.4043 69.8555 29.5059 67.0168 29.9267C64.1781 30.3474 62.0611 31.928 62.2882 33.457C62.5153 34.986 65.0006 35.8844 67.8393 35.4636Z" fill="white" stroke="#26144D" stroke-width="1.5" stroke-linecap="round" stroke-linejoin="round"/>
<path d="M67.3012 31.8738C70.1399 31.453 72.2569 29.8724 72.0298 28.3435C71.8027 26.8145 69.3174 25.9161 66.4787 26.3368C63.6401 26.7576 61.523 28.3381 61.7501 29.8671C61.9772 31.3961 64.4625 32.2945 67.3012 31.8738Z" fill="white" stroke="#26144D" stroke-width="1.5" stroke-linecap="round" stroke-linejoin="round"/>
<path d="M68.3458 28.5167C67.6751 29.0171 66.4949 29.1867 65.6968 28.9068C65.2298 28.7372 65.0091 28.4404 65.043 28.1266L64.4062 23.8521L68.0996 23.3008L68.7364 27.5753C68.8637 27.8721 68.7364 28.2114 68.3373 28.5082L68.3458 28.5167Z" fill="white" stroke="#26144D" stroke-width="1.5" stroke-linecap="round" stroke-linejoin="round"/>
<path d="M66.418 24.6069C67.4524 24.4536 68.2239 23.8786 68.1413 23.3226C68.0588 22.7666 67.1533 22.4402 66.119 22.5935C65.0846 22.7468 64.313 23.3218 64.3956 23.8778C64.4782 24.4338 65.3837 24.7603 66.418 24.6069Z" fill="white" stroke="#26144D" stroke-width="1.5" stroke-linecap="round" stroke-linejoin="round"/>
<path d="M66.686 25.8484C69.5246 25.4276 71.6417 23.8471 71.4146 22.3181C71.1875 20.7891 68.7022 19.8907 65.8635 20.3114C63.0248 20.7322 60.9077 22.3127 61.1349 23.8417C61.362 25.3707 63.8473 26.2691 66.686 25.8484Z" fill="#E40133" stroke="#26144D" stroke-width="1.5" stroke-linecap="round" stroke-linejoin="round"/>
<path d="M47.1104 41.0098L77.7183 58.6846" stroke="white" stroke-width="1.5" stroke-linecap="round" stroke-linejoin="round"/>
<path d="M111.212 17.7363L133.27 30.5853" stroke="white" stroke-width="1.5" stroke-linecap="round" stroke-linejoin="round"/>
<path d="M80.1953 90.4957V62.5671L123.361 37.6494" stroke="white" stroke-width="1.5" stroke-linecap="round" stroke-linejoin="round"/>
<path d="M46.8457 33.9363L52.5088 30.7559" stroke="white" stroke-width="1.5" stroke-linecap="round" stroke-linejoin="round"/>
</svg>
