<svg width="390" height="668" fill="none" xmlns="http://www.w3.org/2000/svg"><mask id="a" style="mask-type:alpha" maskUnits="userSpaceOnUse" x="0" y="0" width="390" height="668"><path fill="#D9D9D9" d="M0 0h390v668H0z"/></mask><g mask="url(#a)"><path d="M320.671 134.965c-14.593 6.208-32.486 13.942-34.043 14.829-3.012 1.722-6.446 22.779-6.446 22.779s-142.702 74.35-151.293 79.083c-5.62 3.084-14.046 17.325-19.202 26.822l-1.97-3.31s9.457-20.635 18.058-25.357c8.591-4.734 151.292-79.084 151.292-79.084s3.435-21.057 6.446-22.779c2.279-1.299 23.029-10.23 33.909-14.684.98.505 2.063 1.082 3.249 1.701z" fill="#EFEFEF" stroke="#26144D" stroke-width="1.5" stroke-linecap="round" stroke-linejoin="round"/><path d="M362.182 245.635c0 .856-173.651 93.406-176.229 94.829-2.579 1.434-30.95-2-30.95-2l-7.137 4.094-38.178-64.079c5.156-9.498 13.582-23.739 19.202-26.822 8.591-4.733 151.293-79.083 151.293-79.083s3.434-21.057 6.446-22.779c1.557-.887 19.45-8.621 34.043-14.829 19.038 9.961 63.023 33.04 64.147 34.164 1.434 1.433-22.07 32.668-23.215 34.39-1.144 1.712.578 41.249.578 42.115z" fill="#999" stroke="#26144D" stroke-width="1.5" stroke-linecap="round" stroke-linejoin="round"/><path d="M312.884 228.898l17.399-10.157-.104-14.055-17.398 10.167.103 14.045z" fill="#004DA7" stroke="#26144D" stroke-width="1.5" stroke-linecap="round" stroke-linejoin="round"/><path d="M312.782 214.853l17.398-10.167-15.913-9.178-17.398 10.157 15.913 9.188z" fill="#248AFF" stroke="#26144D" stroke-width="1.5" stroke-linecap="round" stroke-linejoin="round"/><path d="M296.869 205.665l.103 14.055 15.913 9.178-.103-14.045-15.913-9.188z" fill="#0069E8" stroke="#26144D" stroke-width="1.5" stroke-linecap="round" stroke-linejoin="round"/><path d="M334.564 241.417l17.398-10.158-.103-14.055-17.398 10.157.103 14.056z" fill="#004DA7" stroke="#26144D" stroke-width="1.5" stroke-linecap="round" stroke-linejoin="round"/><path d="M334.46 227.362l17.399-10.157-15.924-9.188-17.398 10.157 15.923 9.188z" fill="#248AFF" stroke="#26144D" stroke-width="1.5" stroke-linecap="round" stroke-linejoin="round"/><path d="M318.537 218.174l.114 14.055 15.913 9.188-.104-14.055-15.923-9.188z" fill="#0069E8" stroke="#26144D" stroke-width="1.5" stroke-linecap="round" stroke-linejoin="round"/><path d="M356.242 253.926l17.398-10.158-.113-14.055-17.398 10.157.113 14.056z" fill="#004DA7" stroke="#26144D" stroke-width="1.5" stroke-linecap="round" stroke-linejoin="round"/><path d="M356.128 239.871l17.398-10.158-15.913-9.188-17.398 10.168 15.913 9.178z" fill="#248AFF" stroke="#26144D" stroke-width="1.5" stroke-linecap="round" stroke-linejoin="round"/><path d="M340.215 230.692l.103 14.045 15.923 9.188-.113-14.055-15.913-9.178z" fill="#0069E8" stroke="#26144D" stroke-width="1.5" stroke-linecap="round" stroke-linejoin="round"/><path d="M312.884 209.832l17.399-10.158-.104-48.477-17.398 10.158.103 48.477z" fill="#004DA7" stroke="#26144D" stroke-width="1.5" stroke-linecap="round" stroke-linejoin="round"/><path d="M312.782 161.354l17.398-10.157-15.913-9.188-17.398 10.157 15.913 9.188z" fill="#248AFF" stroke="#26144D" stroke-width="1.5" stroke-linecap="round" stroke-linejoin="round"/><path d="M296.869 152.166l.103 48.477 15.913 9.188-.103-48.477-15.913-9.188z" fill="#0069E8" stroke="#26144D" stroke-width="1.5" stroke-linecap="round" stroke-linejoin="round"/><path d="M334.564 222.35l17.398-10.158-.103-48.487-17.398 10.157.103 48.488z" fill="#004DA7" stroke="#26144D" stroke-width="1.5" stroke-linecap="round" stroke-linejoin="round"/><path d="M334.46 173.863l17.399-10.157-15.924-9.188-17.398 10.157 15.923 9.188z" fill="#248AFF" stroke="#26144D" stroke-width="1.5" stroke-linecap="round" stroke-linejoin="round"/><path d="M318.537 164.675l.114 48.487 15.913 9.188-.104-48.487-15.923-9.188z" fill="#0069E8" stroke="#26144D" stroke-width="1.5" stroke-linecap="round" stroke-linejoin="round"/><path d="M356.242 234.859l17.398-10.157-.113-48.477-17.398 10.157.113 48.477z" fill="#004DA7" stroke="#26144D" stroke-width="1.5" stroke-linecap="round" stroke-linejoin="round"/><path d="M356.128 186.382l17.398-10.158-15.913-9.188-17.398 10.158 15.913 9.188z" fill="#248AFF" stroke="#26144D" stroke-width="1.5" stroke-linecap="round" stroke-linejoin="round"/><path d="M340.215 177.193l.103 48.477 15.923 9.188-.113-48.477-15.913-9.188z" fill="#0069E8" stroke="#26144D" stroke-width="1.5" stroke-linecap="round" stroke-linejoin="round"/><path d="M280.532 277.973l36.374-21.304-.155-20.47-36.374 21.295.155 20.479z" fill="#004DA7" stroke="#26144D" stroke-width="1.5" stroke-linecap="round" stroke-linejoin="round"/><path d="M280.378 257.494l36.374-21.294-35.817-21.202-36.374 21.294 35.817 21.202z" fill="#248AFF" stroke="#26144D" stroke-width="1.5" stroke-linecap="round" stroke-linejoin="round"/><path d="M244.561 236.292l.154 20.48 35.817 21.201-.154-20.479-35.817-21.202z" fill="#0069E8" stroke="#26144D" stroke-width="1.5" stroke-linecap="round" stroke-linejoin="round"/><path d="M253.389 249.718c2.073 1.289 3.826 4.331 3.899 6.786.03 1.454-.526 2.371-1.434 2.609l-41.809 24.078-5.445-9.487 41.809-24.079c.66-.66 1.732-.68 2.98.083v.01z" fill="#EFEFEF" stroke="#26144D" stroke-width="1.5" stroke-linecap="round" stroke-linejoin="round"/><path d="M214.146 283.224c1.428-.82 1.351-3.634-.172-6.287-1.523-2.652-3.915-4.138-5.342-3.318-1.428.819-1.351 3.634.172 6.286 1.523 2.652 3.915 4.138 5.342 3.319z" fill="#fff" stroke="#26144D" stroke-width="1.5" stroke-linecap="round" stroke-linejoin="round"/><path d="M271.014 260.669c2.073 1.289 3.826 4.332 3.899 6.786.03 1.454-.526 2.372-1.434 2.609l-41.809 24.078-5.445-9.487 41.809-24.078c.66-.66 1.732-.681 2.98.082v.01z" fill="#EFEFEF" stroke="#26144D" stroke-width="1.5" stroke-linecap="round" stroke-linejoin="round"/><path d="M231.775 294.185c1.428-.82 1.351-3.634-.172-6.287-1.523-2.652-3.915-4.138-5.342-3.318-1.428.819-1.351 3.634.172 6.286 1.523 2.652 3.915 4.138 5.342 3.319z" fill="#fff" stroke="#26144D" stroke-width="1.5" stroke-linecap="round" stroke-linejoin="round"/><path d="M148.229 667l7.382-320.493 72.594-13.179L234.729 667" fill="#D6D6D6"/><path d="M148.229 667l7.382-320.493 72.594-13.179L234.729 667" stroke="#26144D" stroke-width="1.5" stroke-linecap="round" stroke-linejoin="round"/><path d="M383.87 165.572s-24.503 34.814-25.143 37.608c-.639 2.795 0 38.248 0 40.186 0 1.939-172.145 93.046-174.074 94.335-1.928 1.289-19.553-1.505-19.553-1.505l.856 8.383 21.709 3.228 111.102-58.449 71.562-41.898 11.819-37.824 9.024-33.948-2.795-8.167-4.517-1.938.01-.011z" fill="#EFEFEF" stroke="#26144D" stroke-width="1.5" stroke-linecap="round" stroke-linejoin="round"/><path d="M408.59 195.229c.433 3.867-28.372 57.582-31.373 61.882-3.011 4.301-179.663 98.419-181.386 99.708-1.722 1.289-39.973-.856-39.973-.856l-7.993-13.406 7.137-4.094s28.371 3.434 30.949 2.001c2.579-1.423 176.23-93.974 176.23-94.83 0-.856-1.753-40.423-.578-42.114 2.929-4.208 23.772-34.721 23.349-35.154-1.165-1.165-46.667-24.151-64.58-33.525-.516-.268-2.486-1.34-2.95-1.577 3.496-1.434 5.971-2.403 6.497-2.506 2.146-.423 64.034 33.524 66.19 34.38 2.145.866 18.047 26.224 18.481 30.091z" fill="#EFEFEF" stroke="#26144D" stroke-width="1.5" stroke-linecap="round" stroke-linejoin="round"/><path d="M105.139 287.203s1.815-3.692 4.548-8.724" stroke="#26144D" stroke-width="1.5" stroke-linecap="round" stroke-linejoin="round"/><path d="M308.996 213.268c3.468-2.002 3.467-8.495-.002-14.502-3.468-6.008-9.091-9.255-12.559-7.253-3.468 2.002-3.467 8.495.002 14.502 3.469 6.007 9.092 9.255 12.559 7.253z" fill="#F01131" stroke="#26144D" stroke-width="1.5" stroke-linecap="round" stroke-linejoin="round"/><path d="M309.915 220.639c0 6.414-2.362 10.838-6.126 12.704l-32.321 19.067-27.361-46.837 33.157-19.686v.021c3.475-1.898 8.209-1.568 13.427 1.443 10.623 6.136 19.224 21.037 19.224 33.288z" fill="#E20133" stroke="#26144D" stroke-width="1.5" stroke-linecap="round" stroke-linejoin="round"/><path d="M271.749 252.362c7.508-4.334 7.508-18.387.001-31.388-7.507-13.001-19.678-20.028-27.186-15.694-7.507 4.334-7.508 18.388-.001 31.389 7.507 13.001 19.679 20.027 27.186 15.693z" fill="#BD0037" stroke="#26144D" stroke-width="1.5" stroke-linecap="round" stroke-linejoin="round"/><path d="M242.334 217.194l2.589 6.198 11.767 28.193 3.455 5.239 5.393-3.177-.082-21.387c-.062-6.517-4.713-14.395-10.385-17.602-1.63-.918-3.156-1.351-4.518-1.351-1.361 0-2.433.402-3.351 1.144l-4.868 2.733v.01z" fill="#E20133" stroke="#26144D" stroke-width="1.5" stroke-linecap="round" stroke-linejoin="round"/><path d="M256.689 251.586l-11.767-28.193" stroke="#26144D" stroke-width="1.5" stroke-linecap="round" stroke-linejoin="round"/><path d="M239.735 245.058l20.41 11.776-.083-21.387c-.062-6.518-4.713-14.396-10.385-17.603-5.672-3.207-10.22-.526-10.169 5.991l.227 21.212v.011z" fill="#BD0037" stroke="#26144D" stroke-width="1.5" stroke-linecap="round" stroke-linejoin="round"/><path d="M239.9 224.908l1.857 3.372 5.868 10.693 2.073 3.764 3.733-2.114c1.64-.577 2.682-2.309 2.682-4.918 0-4.589-3.218-10.168-7.199-12.457-2.217-1.279-4.197-1.269-5.507-.217l-3.496 1.897-.011-.02z" fill="#E20133" stroke="#26144D" stroke-width="1.5" stroke-linecap="round" stroke-linejoin="round"/><path d="M249.959 242.638c2.812-1.623 2.813-6.885.002-11.753-2.811-4.868-7.369-7.499-10.181-5.876-2.811 1.623-2.812 6.886-.001 11.754 2.811 4.868 7.369 7.498 10.18 5.875z" fill="#BD0037" stroke="#26144D" stroke-width="1.5" stroke-linecap="round" stroke-linejoin="round"/><path d="M243.727 229.94c2.073 1.289 3.826 4.331 3.898 6.785.031 1.454-.526 2.372-1.433 2.609l-41.809 24.079-5.445-9.487 41.809-24.079c.66-.66 1.732-.68 2.98.083v.01z" fill="#EFEFEF" stroke="#26144D" stroke-width="1.5" stroke-linecap="round" stroke-linejoin="round"/><path d="M204.474 263.461c1.428-.82 1.351-3.634-.172-6.286-1.523-2.653-3.915-4.138-5.342-3.319-1.428.82-1.351 3.634.172 6.286 1.523 2.653 3.915 4.138 5.342 3.319z" fill="#fff" stroke="#26144D" stroke-width="1.5" stroke-linecap="round" stroke-linejoin="round"/><path d="M224.431 311.849l-42.119-24.316v-51.766l42.119 24.315v51.767z" fill="#999" stroke="#26144D" stroke-width="1.5" stroke-linecap="round" stroke-linejoin="round"/><path d="M224.494 260.123l-42.119-24.316 17.924-10.353 42.119 24.316-17.924 10.353z" fill="#EFEFEF" stroke="#26144D" stroke-width="1.5" stroke-linecap="round" stroke-linejoin="round"/><path d="M242.325 301.558l-17.934 10.353v-51.767l17.934-10.353v51.767zm-59.942-40.424l4.104 7.476 12.995 23.707 4.579 8.333 8.271-4.682c3.62-1.279 5.94-5.115 5.94-10.921 0-10.178-7.136-22.552-15.933-27.636-4.899-2.836-9.282-2.815-12.201-.485h-.01l-7.745 4.198v.01z" fill="#D6D6D6" stroke="#26144D" stroke-width="1.4" stroke-linecap="round" stroke-linejoin="round"/><path d="M204.655 300.417c6.229-3.587 6.239-15.245.022-26.038-6.217-10.793-16.307-16.635-22.536-13.048-6.228 3.587-6.238 15.245-.021 26.038 6.217 10.793 16.306 16.635 22.535 13.048z" fill="#999" stroke="#26144D" stroke-width="1.5" stroke-linecap="round" stroke-linejoin="round"/><path d="M198.454 289.649c2.798-1.612 2.804-6.847.012-11.694-2.791-4.846-7.323-7.468-10.122-5.857-2.798 1.612-2.804 6.847-.012 11.694 2.791 4.846 7.323 7.468 10.122 5.857z" fill="#EFEFEF" stroke="#26144D" stroke-width="1.5" stroke-linecap="round" stroke-linejoin="round"/><path d="M178.734 271.147l3.012 5.486 9.539 17.397 3.362 6.115 6.064-3.434c2.661-.939 4.353-3.754 4.353-8.013 0-7.466-5.239-16.54-11.695-20.273-3.6-2.083-6.817-2.063-8.952-.361l-5.683 3.083z" fill="#D6D6D6" stroke="#26144D" stroke-width="1.4" stroke-linecap="round" stroke-linejoin="round"/><path d="M195.083 299.969c4.57-2.632 4.577-11.187.014-19.108-4.562-7.921-11.966-12.208-16.536-9.576-4.571 2.632-4.577 11.187-.015 19.108 4.563 7.921 11.967 12.208 16.537 9.576z" fill="#999" stroke="#26144D" stroke-width="1.5" stroke-linecap="round" stroke-linejoin="round"/><path d="M190.532 292.071c2.054-1.183 2.057-5.026.007-8.584s-5.376-5.484-7.429-4.302c-2.053 1.183-2.056 5.026-.006 8.584 2.049 3.558 5.375 5.484 7.428 4.302z" fill="#EFEFEF" stroke="#26144D" stroke-width="1.5" stroke-linecap="round" stroke-linejoin="round"/><path d="M186.149 281.902c2.073 1.289 3.826 4.331 3.898 6.785.031 1.454-.526 2.372-1.433 2.609l-41.809 24.079-5.446-9.487 41.81-24.079c.66-.66 1.732-.681 2.98.083v.01z" fill="#EFEFEF" stroke="#26144D" stroke-width="1.5" stroke-linecap="round" stroke-linejoin="round"/><path d="M146.896 315.42c1.428-.82 1.351-3.634-.172-6.286-1.523-2.653-3.915-4.138-5.342-3.319-1.428.82-1.351 3.634.172 6.286 1.523 2.653 3.915 4.138 5.342 3.319z" fill="#fff" stroke="#26144D" stroke-width="1.5" stroke-linecap="round" stroke-linejoin="round"/><path d="M289.783 247.399l18.017-10.405v-22.13l-18.017 10.395v22.14z" fill="#999" stroke="#26144D" stroke-width="1.5" stroke-linecap="round" stroke-linejoin="round"/><path d="M289.763 225.279l18.006-10.405-7.662-4.424-18.017 10.395 7.673 4.434z" fill="#EFEFEF" stroke="#26144D" stroke-width="1.5" stroke-linecap="round" stroke-linejoin="round"/><path d="M282.131 242.995l7.673 4.424V225.29l-7.673-4.435v22.14z" fill="#D6D6D6" stroke="#26144D" stroke-width="1.4" stroke-linecap="round" stroke-linejoin="round"/><path d="M228.432 263.454l10.23-5.909m-10.23 9.776l10.23-5.909m-10.23 9.559l10.23-5.909m-10.23 9.777l10.23-5.909m-10.23 9.559l10.23-5.909m-10.23 9.776l10.23-5.909m-10.23 9.569l10.23-5.909m-10.23 9.776l10.23-5.908" stroke="#26144D" stroke-width="1.4" stroke-linecap="round" stroke-linejoin="round"/><path d="M66.022 359.975S-98.162 499.218-99.885 501.796c-1.722 2.578 16.336.578 19.203-.856 2.868-1.433 150.726-99.418 155.305-104.863 4.59-5.445 8.88-23.491 8.88-23.491l-17.481-12.611z" fill="#D6D6D6" stroke="#26144D" stroke-width="1.5" stroke-linecap="round" stroke-linejoin="round"/><path d="M3.729-13c8.745 22.78 41.903 114.06 54.846 165.826 6.807 27.214 10.788 48.261 13.098 64.069-5.466-22.418-14.191-51.715-28-85.27C11.867 54.264-18.771-1-18.771-1" fill="#D6D6D6"/><path d="M3.729-13c8.745 22.78 41.903 114.06 54.846 165.826 6.807 27.214 10.788 48.261 13.098 64.069-5.466-22.418-14.191-51.715-28-85.27C11.867 54.264-18.771-1-18.771-1" stroke="#26144D" stroke-width="1.5" stroke-linecap="round" stroke-linejoin="round"/><path d="M25.229-9s53.694 132.024 68.308 177.583c14.613 45.559 28.371 98.841 28.371 98.841l-28.371 19.779-13.18-23.502s-1.558-17.509-8.674-46.724v-.03s0-.031-.01-.052c-2.31-15.808-6.29-36.855-13.098-64.069C45.633 101.06 13.474 12.779 4.73-10" fill="#EFEFEF"/><path d="M25.229-9s53.694 132.024 68.308 177.583c14.613 45.559 28.371 98.841 28.371 98.841l-28.371 19.779-13.18-23.502s-1.558-17.509-8.674-46.724v-.03s0-.031-.01-.052c-2.31-15.808-6.29-36.855-13.098-64.069C45.633 101.06 13.474 12.779 4.73-10" stroke="#26144D" stroke-width="1.5" stroke-linecap="round" stroke-linejoin="round"/><path d="M102.128 277.746s-69.056 44.126-44.986 86.818c24.071 42.691 104.585 2.289 104.585 2.289s17.893-23.14-6.012-61.883c-22.638-36.67-53.587-27.224-53.587-27.224z" fill="#EFEFEF" stroke="#26144D" stroke-width="1.5" stroke-linecap="round" stroke-linejoin="round"/><path d="M80.357 263.701l4.012 29.802s8.601 14.612 27.505 8.312c18.914-6.301 17.192-21.491 17.192-21.491l-10.602-25.213s.578 9.456-15.758 14.324c-16.336 4.867-22.349-5.734-22.349-5.734z" fill="#D2233C" stroke="#26144D" stroke-width="1.5" stroke-linecap="round" stroke-linejoin="round"/><path d="M152.848 374.876s17.192 14.612 114.33 88.529c97.139 73.917 194.278 141.822 194.278 141.822l-4.301-22.347s-58.454-69.627-146.136-139.243c-87.682-69.627-140.979-96.274-140.979-96.274l-17.192 27.503v.01z" fill="#EFEFEF" stroke="#26144D" stroke-width="1.5" stroke-linecap="round" stroke-linejoin="round"/><path d="M139.378 348.508c-8.447 12.993-1.723 23.779 1.433 26.646 3.156 2.867 21.493 8.023 21.493 8.023s-5.446-11.457 1.433-20.346c6.879-8.879 17.192-8.312 17.192-8.312s-10.891-11.745-16.903-16.612c-6.013-4.868-17.192-.856-24.638 10.601h-.01z" fill="#D2233C" stroke="#26144D" stroke-width="1.5" stroke-linecap="round" stroke-linejoin="round"/><path d="M71.674 216.895s.01.03.01.051v.031" stroke="#26144D" stroke-width="1.5" stroke-linecap="round" stroke-linejoin="round"/><path d="M56.285 84.633s16.986 39.423 29.227 78.506c14.903 47.559 23.494 81.939 23.494 81.939m73.357 118.042s46.811 28.121 78.514 51.571c41.84 30.946 91.693 72.205 91.693 72.205M71.426 314.612c-10.364 11.766-17.852 27.327-12.613 43.105M258.01 202.386l22.348-13.179M156.002 299.803l24.071-13.467" stroke="#fff" stroke-width="1.5" stroke-linecap="round" stroke-linejoin="round"/></g></svg>