<svg width="390" height="668" viewBox="0 0 390 668" fill="none" xmlns="http://www.w3.org/2000/svg">
<mask id="mask0_1207_55" style="mask-type:alpha" maskUnits="userSpaceOnUse" x="0" y="0" width="390" height="668">
<rect width="390" height="668" fill="#D9D9D9"/>
</mask>
<g mask="url(#mask0_1207_55)">
<path d="M320.671 134.965C306.078 141.173 288.185 148.907 286.628 149.794C283.616 151.516 280.182 172.573 280.182 172.573C280.182 172.573 137.48 246.923 128.889 251.656C123.269 254.74 114.843 268.981 109.687 278.478L107.717 275.168C107.717 275.168 117.174 254.533 125.775 249.811C134.366 245.077 277.067 170.727 277.067 170.727C277.067 170.727 280.502 149.67 283.513 147.948C285.792 146.649 306.542 137.718 317.422 133.264C318.402 133.769 319.485 134.346 320.671 134.965Z" fill="#EFEFEF" stroke="#26144D" stroke-width="1.5" stroke-linecap="round" stroke-linejoin="round"/>
<path d="M362.182 245.635C362.182 246.491 188.531 339.041 185.953 340.464C183.374 341.898 155.003 338.464 155.003 338.464L147.866 342.558L109.688 278.479C114.844 268.981 123.27 254.74 128.89 251.657C137.481 246.924 280.183 172.574 280.183 172.574C280.183 172.574 283.617 151.517 286.629 149.795C288.186 148.908 306.079 141.174 320.672 134.966C339.71 144.927 383.695 168.006 384.819 169.13C386.253 170.563 362.749 201.798 361.604 203.52C360.46 205.232 362.182 244.769 362.182 245.635Z" fill="#999999" stroke="#26144D" stroke-width="1.5" stroke-linecap="round" stroke-linejoin="round"/>
<path d="M312.884 228.898L330.283 218.741L330.179 204.686L312.781 214.853L312.884 228.898Z" fill="#004DA7" stroke="#26144D" stroke-width="1.5" stroke-linecap="round" stroke-linejoin="round"/>
<path d="M312.782 214.853L330.18 204.686L314.267 195.508L296.869 205.665L312.782 214.853Z" fill="#248AFF" stroke="#26144D" stroke-width="1.5" stroke-linecap="round" stroke-linejoin="round"/>
<path d="M296.869 205.665L296.972 219.72L312.885 228.898L312.782 214.853L296.869 205.665Z" fill="#0069E8" stroke="#26144D" stroke-width="1.5" stroke-linecap="round" stroke-linejoin="round"/>
<path d="M334.564 241.417L351.962 231.259L351.859 217.204L334.461 227.361L334.564 241.417Z" fill="#004DA7" stroke="#26144D" stroke-width="1.5" stroke-linecap="round" stroke-linejoin="round"/>
<path d="M334.46 227.362L351.859 217.205L335.935 208.017L318.537 218.174L334.46 227.362Z" fill="#248AFF" stroke="#26144D" stroke-width="1.5" stroke-linecap="round" stroke-linejoin="round"/>
<path d="M318.537 218.174L318.651 232.229L334.564 241.417L334.46 227.362L318.537 218.174Z" fill="#0069E8" stroke="#26144D" stroke-width="1.5" stroke-linecap="round" stroke-linejoin="round"/>
<path d="M356.242 253.926L373.64 243.768L373.527 229.713L356.129 239.87L356.242 253.926Z" fill="#004DA7" stroke="#26144D" stroke-width="1.5" stroke-linecap="round" stroke-linejoin="round"/>
<path d="M356.128 239.871L373.526 229.713L357.613 220.525L340.215 230.693L356.128 239.871Z" fill="#248AFF" stroke="#26144D" stroke-width="1.5" stroke-linecap="round" stroke-linejoin="round"/>
<path d="M340.215 230.692L340.318 244.737L356.241 253.925L356.128 239.87L340.215 230.692Z" fill="#0069E8" stroke="#26144D" stroke-width="1.5" stroke-linecap="round" stroke-linejoin="round"/>
<path d="M312.884 209.832L330.283 199.674L330.179 151.197L312.781 161.355L312.884 209.832Z" fill="#004DA7" stroke="#26144D" stroke-width="1.5" stroke-linecap="round" stroke-linejoin="round"/>
<path d="M312.782 161.354L330.18 151.197L314.267 142.009L296.869 152.166L312.782 161.354Z" fill="#248AFF" stroke="#26144D" stroke-width="1.5" stroke-linecap="round" stroke-linejoin="round"/>
<path d="M296.869 152.166L296.972 200.643L312.885 209.831L312.782 161.354L296.869 152.166Z" fill="#0069E8" stroke="#26144D" stroke-width="1.5" stroke-linecap="round" stroke-linejoin="round"/>
<path d="M334.564 222.35L351.962 212.192L351.859 163.705L334.461 173.862L334.564 222.35Z" fill="#004DA7" stroke="#26144D" stroke-width="1.5" stroke-linecap="round" stroke-linejoin="round"/>
<path d="M334.46 173.863L351.859 163.706L335.935 154.518L318.537 164.675L334.46 173.863Z" fill="#248AFF" stroke="#26144D" stroke-width="1.5" stroke-linecap="round" stroke-linejoin="round"/>
<path d="M318.537 164.675L318.651 213.162L334.564 222.35L334.46 173.863L318.537 164.675Z" fill="#0069E8" stroke="#26144D" stroke-width="1.5" stroke-linecap="round" stroke-linejoin="round"/>
<path d="M356.242 234.859L373.64 224.702L373.527 176.225L356.129 186.382L356.242 234.859Z" fill="#004DA7" stroke="#26144D" stroke-width="1.5" stroke-linecap="round" stroke-linejoin="round"/>
<path d="M356.128 186.382L373.526 176.224L357.613 167.036L340.215 177.194L356.128 186.382Z" fill="#248AFF" stroke="#26144D" stroke-width="1.5" stroke-linecap="round" stroke-linejoin="round"/>
<path d="M340.215 177.193L340.318 225.67L356.241 234.858L356.128 186.381L340.215 177.193Z" fill="#0069E8" stroke="#26144D" stroke-width="1.5" stroke-linecap="round" stroke-linejoin="round"/>
<path d="M280.532 277.973L316.906 256.669L316.751 236.199L280.377 257.494L280.532 277.973Z" fill="#004DA7" stroke="#26144D" stroke-width="1.5" stroke-linecap="round" stroke-linejoin="round"/>
<path d="M280.378 257.494L316.752 236.2L280.935 214.998L244.561 236.292L280.378 257.494Z" fill="#248AFF" stroke="#26144D" stroke-width="1.5" stroke-linecap="round" stroke-linejoin="round"/>
<path d="M244.561 236.292L244.715 256.772L280.532 277.973L280.378 257.494L244.561 236.292Z" fill="#0069E8" stroke="#26144D" stroke-width="1.5" stroke-linecap="round" stroke-linejoin="round"/>
<path d="M253.389 249.718C255.462 251.007 257.215 254.049 257.288 256.504C257.318 257.958 256.762 258.875 255.854 259.113L214.045 283.191L208.6 273.704L250.409 249.625C251.069 248.965 252.141 248.945 253.389 249.708V249.718Z" fill="#EFEFEF" stroke="#26144D" stroke-width="1.5" stroke-linecap="round" stroke-linejoin="round"/>
<path d="M214.146 283.224C215.574 282.404 215.497 279.59 213.974 276.937C212.451 274.285 210.059 272.799 208.632 273.619C207.204 274.438 207.281 277.253 208.804 279.905C210.327 282.557 212.719 284.043 214.146 283.224Z" fill="white" stroke="#26144D" stroke-width="1.5" stroke-linecap="round" stroke-linejoin="round"/>
<path d="M271.014 260.669C273.087 261.958 274.84 265.001 274.913 267.455C274.943 268.909 274.387 269.827 273.479 270.064L231.67 294.142L226.225 284.655L268.034 260.577C268.694 259.917 269.766 259.896 271.014 260.659V260.669Z" fill="#EFEFEF" stroke="#26144D" stroke-width="1.5" stroke-linecap="round" stroke-linejoin="round"/>
<path d="M231.775 294.185C233.203 293.365 233.126 290.551 231.603 287.898C230.08 285.246 227.688 283.76 226.261 284.58C224.833 285.399 224.91 288.214 226.433 290.866C227.956 293.518 230.348 295.004 231.775 294.185Z" fill="white" stroke="#26144D" stroke-width="1.5" stroke-linecap="round" stroke-linejoin="round"/>
<path d="M148.229 667L155.611 346.507L228.205 333.328L234.729 667" fill="#D6D6D6"/>
<path d="M148.229 667L155.611 346.507L228.205 333.328L234.729 667" stroke="#26144D" stroke-width="1.5" stroke-linecap="round" stroke-linejoin="round"/>
<path d="M383.87 165.572C383.87 165.572 359.367 200.386 358.727 203.18C358.088 205.975 358.727 241.428 358.727 243.366C358.727 245.305 186.582 336.412 184.653 337.701C182.725 338.99 165.1 336.196 165.1 336.196L165.956 344.579L187.665 347.807L298.767 289.358L370.329 247.46L382.148 209.636L391.172 175.688L388.377 167.521L383.86 165.583L383.87 165.572Z" fill="#EFEFEF" stroke="#26144D" stroke-width="1.5" stroke-linecap="round" stroke-linejoin="round"/>
<path d="M408.59 195.229C409.023 199.096 380.218 252.811 377.217 257.111C374.206 261.412 197.554 355.53 195.831 356.819C194.109 358.108 155.858 355.963 155.858 355.963L147.865 342.557L155.002 338.463C155.002 338.463 183.373 341.897 185.951 340.464C188.53 339.041 362.181 246.49 362.181 245.634C362.181 244.778 360.428 205.211 361.603 203.52C364.532 199.312 385.375 168.799 384.952 168.366C383.787 167.201 338.285 144.215 320.372 134.841C319.856 134.573 317.886 133.501 317.422 133.264C320.918 131.83 323.393 130.861 323.919 130.758C326.065 130.335 387.953 164.282 390.109 165.138C392.254 166.004 408.156 191.362 408.59 195.229Z" fill="#EFEFEF" stroke="#26144D" stroke-width="1.5" stroke-linecap="round" stroke-linejoin="round"/>
<path d="M105.139 287.203C105.139 287.203 106.954 283.511 109.687 278.479" stroke="#26144D" stroke-width="1.5" stroke-linecap="round" stroke-linejoin="round"/>
<path d="M308.996 213.268C312.464 211.266 312.463 204.773 308.994 198.766C305.526 192.758 299.903 189.511 296.435 191.513C292.967 193.515 292.968 200.008 296.437 206.015C299.906 212.022 305.529 215.27 308.996 213.268Z" fill="#F01131" stroke="#26144D" stroke-width="1.5" stroke-linecap="round" stroke-linejoin="round"/>
<path d="M309.915 220.639C309.915 227.053 307.553 231.477 303.789 233.343L271.468 252.41L244.107 205.573L277.264 185.887V185.908C280.739 184.01 285.473 184.34 290.691 187.351C301.314 193.487 309.915 208.388 309.915 220.639Z" fill="#E20133" stroke="#26144D" stroke-width="1.5" stroke-linecap="round" stroke-linejoin="round"/>
<path d="M271.749 252.362C279.257 248.028 279.257 233.975 271.75 220.974C264.243 207.973 252.072 200.946 244.564 205.28C237.057 209.614 237.056 223.668 244.563 236.669C252.07 249.67 264.242 256.696 271.749 252.362Z" fill="#BD0037" stroke="#26144D" stroke-width="1.5" stroke-linecap="round" stroke-linejoin="round"/>
<path d="M242.334 217.194L244.923 223.392L256.69 251.585L260.145 256.824L265.538 253.647L265.456 232.26C265.394 225.743 260.743 217.865 255.071 214.658C253.441 213.74 251.915 213.307 250.553 213.307C249.192 213.307 248.12 213.709 247.202 214.451L242.334 217.184V217.194Z" fill="#E20133" stroke="#26144D" stroke-width="1.5" stroke-linecap="round" stroke-linejoin="round"/>
<path d="M256.689 251.586L244.922 223.393" stroke="#26144D" stroke-width="1.5" stroke-linecap="round" stroke-linejoin="round"/>
<path d="M239.735 245.058L260.145 256.834L260.062 235.447C260 228.929 255.349 221.051 249.677 217.844C244.005 214.637 239.457 217.318 239.508 223.835L239.735 245.047V245.058Z" fill="#BD0037" stroke="#26144D" stroke-width="1.5" stroke-linecap="round" stroke-linejoin="round"/>
<path d="M239.9 224.908L241.757 228.28L247.625 238.973L249.698 242.737L253.431 240.623C255.071 240.046 256.113 238.314 256.113 235.705C256.113 231.116 252.895 225.537 248.914 223.248C246.697 221.969 244.717 221.979 243.407 223.031L239.911 224.928L239.9 224.908Z" fill="#E20133" stroke="#26144D" stroke-width="1.5" stroke-linecap="round" stroke-linejoin="round"/>
<path d="M249.959 242.638C252.771 241.015 252.772 235.753 249.961 230.885C247.15 226.017 242.592 223.386 239.78 225.009C236.969 226.632 236.968 231.895 239.779 236.763C242.59 241.631 247.148 244.261 249.959 242.638Z" fill="#BD0037" stroke="#26144D" stroke-width="1.5" stroke-linecap="round" stroke-linejoin="round"/>
<path d="M243.727 229.94C245.8 231.229 247.553 234.271 247.625 236.725C247.656 238.179 247.099 239.097 246.192 239.334L204.383 263.413L198.938 253.926L240.747 229.847C241.407 229.187 242.479 229.167 243.727 229.93V229.94Z" fill="#EFEFEF" stroke="#26144D" stroke-width="1.5" stroke-linecap="round" stroke-linejoin="round"/>
<path d="M204.474 263.461C205.902 262.641 205.825 259.827 204.302 257.175C202.779 254.522 200.387 253.037 198.96 253.856C197.532 254.676 197.609 257.49 199.132 260.142C200.655 262.795 203.047 264.28 204.474 263.461Z" fill="white" stroke="#26144D" stroke-width="1.5" stroke-linecap="round" stroke-linejoin="round"/>
<path d="M224.431 311.849L182.312 287.533V235.767L224.431 260.082V311.849Z" fill="#999999" stroke="#26144D" stroke-width="1.5" stroke-linecap="round" stroke-linejoin="round"/>
<path d="M224.494 260.123L182.375 235.807L200.299 225.454L242.418 249.77L224.494 260.123Z" fill="#EFEFEF" stroke="#26144D" stroke-width="1.5" stroke-linecap="round" stroke-linejoin="round"/>
<path d="M242.325 301.558L224.391 311.911V260.144L242.325 249.791V301.558Z" fill="#D6D6D6" stroke="#26144D" stroke-width="1.4" stroke-linecap="round" stroke-linejoin="round"/>
<path d="M182.383 261.134L186.487 268.61L199.482 292.317L204.061 300.65L212.332 295.968C215.952 294.689 218.272 290.853 218.272 285.047C218.272 274.869 211.136 262.495 202.339 257.411C197.44 254.575 193.057 254.596 190.138 256.926H190.128L182.383 261.124V261.134Z" fill="#D6D6D6" stroke="#26144D" stroke-width="1.4" stroke-linecap="round" stroke-linejoin="round"/>
<path d="M204.655 300.417C210.884 296.83 210.894 285.172 204.677 274.379C198.46 263.586 188.37 257.744 182.141 261.331C175.913 264.918 175.903 276.576 182.12 287.369C188.337 298.162 198.426 304.004 204.655 300.417Z" fill="#999999" stroke="#26144D" stroke-width="1.5" stroke-linecap="round" stroke-linejoin="round"/>
<path d="M198.454 289.649C201.252 288.037 201.258 282.802 198.466 277.955C195.675 273.109 191.143 270.487 188.344 272.098C185.546 273.71 185.54 278.945 188.332 283.792C191.123 288.638 195.655 291.26 198.454 289.649Z" fill="#EFEFEF" stroke="#26144D" stroke-width="1.5" stroke-linecap="round" stroke-linejoin="round"/>
<path d="M178.734 271.147L181.746 276.633L191.285 294.03L194.647 300.145L200.711 296.711C203.372 295.772 205.064 292.957 205.064 288.698C205.064 281.232 199.825 272.158 193.369 268.425C189.769 266.342 186.552 266.362 184.417 268.064L178.734 271.147Z" fill="#D6D6D6" stroke="#26144D" stroke-width="1.4" stroke-linecap="round" stroke-linejoin="round"/>
<path d="M195.083 299.969C199.653 297.337 199.66 288.782 195.097 280.861C190.535 272.94 183.131 268.653 178.561 271.285C173.99 273.917 173.984 282.472 178.546 290.393C183.109 298.314 190.513 302.601 195.083 299.969Z" fill="#999999" stroke="#26144D" stroke-width="1.5" stroke-linecap="round" stroke-linejoin="round"/>
<path d="M190.532 292.071C192.586 290.888 192.589 287.045 190.539 283.487C188.489 279.929 185.163 278.003 183.11 279.185C181.057 280.368 181.054 284.211 183.104 287.769C185.153 291.327 188.479 293.253 190.532 292.071Z" fill="#EFEFEF" stroke="#26144D" stroke-width="1.5" stroke-linecap="round" stroke-linejoin="round"/>
<path d="M186.149 281.902C188.222 283.191 189.975 286.233 190.047 288.687C190.078 290.141 189.521 291.059 188.614 291.296L146.805 315.375L141.359 305.888L183.169 281.809C183.829 281.149 184.901 281.128 186.149 281.892V281.902Z" fill="#EFEFEF" stroke="#26144D" stroke-width="1.5" stroke-linecap="round" stroke-linejoin="round"/>
<path d="M146.896 315.42C148.324 314.6 148.247 311.786 146.724 309.134C145.201 306.481 142.809 304.996 141.382 305.815C139.954 306.635 140.031 309.449 141.554 312.101C143.077 314.754 145.469 316.239 146.896 315.42Z" fill="white" stroke="#26144D" stroke-width="1.5" stroke-linecap="round" stroke-linejoin="round"/>
<path d="M289.783 247.399L307.8 236.994V214.864L289.783 225.259V247.399Z" fill="#999999" stroke="#26144D" stroke-width="1.5" stroke-linecap="round" stroke-linejoin="round"/>
<path d="M289.763 225.279L307.769 214.874L300.107 210.45L282.09 220.845L289.763 225.279Z" fill="#EFEFEF" stroke="#26144D" stroke-width="1.5" stroke-linecap="round" stroke-linejoin="round"/>
<path d="M282.131 242.995L289.804 247.419V225.29L282.131 220.855V242.995Z" fill="#D6D6D6" stroke="#26144D" stroke-width="1.4" stroke-linecap="round" stroke-linejoin="round"/>
<path d="M228.432 263.454L238.662 257.545" stroke="#26144D" stroke-width="1.4" stroke-linecap="round" stroke-linejoin="round"/>
<path d="M228.432 267.321L238.662 261.412" stroke="#26144D" stroke-width="1.4" stroke-linecap="round" stroke-linejoin="round"/>
<path d="M228.432 270.971L238.662 265.062" stroke="#26144D" stroke-width="1.4" stroke-linecap="round" stroke-linejoin="round"/>
<path d="M228.432 274.839L238.662 268.93" stroke="#26144D" stroke-width="1.4" stroke-linecap="round" stroke-linejoin="round"/>
<path d="M228.432 278.489L238.662 272.58" stroke="#26144D" stroke-width="1.4" stroke-linecap="round" stroke-linejoin="round"/>
<path d="M228.432 282.356L238.662 276.447" stroke="#26144D" stroke-width="1.4" stroke-linecap="round" stroke-linejoin="round"/>
<path d="M228.432 286.016L238.662 280.107" stroke="#26144D" stroke-width="1.4" stroke-linecap="round" stroke-linejoin="round"/>
<path d="M228.432 289.883L238.662 283.975" stroke="#26144D" stroke-width="1.4" stroke-linecap="round" stroke-linejoin="round"/>
<path d="M66.0217 359.975C66.0217 359.975 -98.1622 499.218 -99.8845 501.796C-101.607 504.374 -83.5486 502.374 -80.6816 500.94C-77.8145 499.507 70.0438 401.522 74.6228 396.077C79.2121 390.632 83.5023 372.586 83.5023 372.586L66.0217 359.975Z" fill="#D6D6D6" stroke="#26144D" stroke-width="1.5" stroke-linecap="round" stroke-linejoin="round"/>
<path d="M3.72852 -13C12.474 9.77933 45.6323 101.06 58.5752 152.826C65.3818 180.04 69.3627 201.087 71.6728 216.895C66.2069 194.477 57.482 165.18 43.6728 131.625C11.8674 54.2638 -18.7715 -1 -18.7715 -1" fill="#D6D6D6"/>
<path d="M3.72852 -13C12.474 9.77933 45.6323 101.06 58.5752 152.826C65.3818 180.04 69.3627 201.087 71.6728 216.895C66.2069 194.477 57.482 165.18 43.6728 131.625C11.8674 54.2638 -18.7715 -1 -18.7715 -1" stroke="#26144D" stroke-width="1.5" stroke-linecap="round" stroke-linejoin="round"/>
<path d="M25.2285 -9C25.2285 -9 78.9231 123.024 93.5367 168.583C108.15 214.142 121.908 267.424 121.908 267.424L93.5367 287.203L80.3566 263.701C80.3566 263.701 78.7994 246.192 71.6834 216.977V216.947C71.6834 216.947 71.6834 216.916 71.673 216.895C69.3629 201.087 65.3821 180.04 58.5755 152.826C45.6326 101.06 13.474 12.7793 4.72852 -10" fill="#EFEFEF"/>
<path d="M25.2285 -9C25.2285 -9 78.9231 123.024 93.5367 168.583C108.15 214.142 121.908 267.424 121.908 267.424L93.5367 287.203L80.3566 263.701C80.3566 263.701 78.7994 246.192 71.6834 216.977V216.947C71.6834 216.947 71.6834 216.916 71.673 216.895C69.3629 201.087 65.3821 180.04 58.5755 152.826C45.6326 101.06 13.474 12.7793 4.72852 -10" stroke="#26144D" stroke-width="1.5" stroke-linecap="round" stroke-linejoin="round"/>
<path d="M102.128 277.746C102.128 277.746 33.0718 321.872 57.1425 364.564C81.2131 407.255 161.727 366.853 161.727 366.853C161.727 366.853 179.62 343.713 155.715 304.97C133.077 268.3 102.128 277.746 102.128 277.746Z" fill="#EFEFEF" stroke="#26144D" stroke-width="1.5" stroke-linecap="round" stroke-linejoin="round"/>
<path d="M80.3574 263.701L84.3692 293.503C84.3692 293.503 92.9703 308.115 111.874 301.815C130.788 295.514 129.066 280.324 129.066 280.324L118.464 255.111C118.464 255.111 119.042 264.567 102.706 269.435C86.3699 274.302 80.3574 263.701 80.3574 263.701Z" fill="#D2233C" stroke="#26144D" stroke-width="1.5" stroke-linecap="round" stroke-linejoin="round"/>
<path d="M152.848 374.876C152.848 374.876 170.04 389.488 267.178 463.405C364.317 537.322 461.456 605.227 461.456 605.227L457.155 582.88C457.155 582.88 398.701 513.253 311.019 443.637C223.337 374.01 170.04 347.363 170.04 347.363L152.848 374.866V374.876Z" fill="#EFEFEF" stroke="#26144D" stroke-width="1.5" stroke-linecap="round" stroke-linejoin="round"/>
<path d="M139.378 348.508C130.931 361.501 137.655 372.287 140.811 375.154C143.967 378.021 162.304 383.177 162.304 383.177C162.304 383.177 156.858 371.72 163.737 362.831C170.616 353.952 180.929 354.519 180.929 354.519C180.929 354.519 170.038 342.774 164.026 337.907C158.013 333.039 146.834 337.051 139.388 348.508H139.378Z" fill="#D2233C" stroke="#26144D" stroke-width="1.5" stroke-linecap="round" stroke-linejoin="round"/>
<path d="M71.6738 216.895C71.6738 216.895 71.6841 216.925 71.6841 216.946V216.977" stroke="#26144D" stroke-width="1.5" stroke-linecap="round" stroke-linejoin="round"/>
<path d="M56.2852 84.6328C56.2852 84.6328 73.2708 124.056 85.5124 163.139C100.415 210.698 109.006 245.078 109.006 245.078" stroke="white" stroke-width="1.5" stroke-linecap="round" stroke-linejoin="round"/>
<path d="M182.363 363.12C182.363 363.12 229.174 391.241 260.877 414.691C302.717 445.637 352.57 486.896 352.57 486.896" stroke="white" stroke-width="1.5" stroke-linecap="round" stroke-linejoin="round"/>
<path d="M71.4263 314.612C61.0616 326.378 53.5744 341.939 58.8134 357.717" stroke="white" stroke-width="1.5" stroke-linecap="round" stroke-linejoin="round"/>
<path d="M258.01 202.386L280.358 189.207" stroke="white" stroke-width="1.5" stroke-linecap="round" stroke-linejoin="round"/>
<path d="M156.002 299.803L180.073 286.336" stroke="white" stroke-width="1.5" stroke-linecap="round" stroke-linejoin="round"/>
</g>
</svg>
