<svg width="1447" height="863" fill="none" xmlns="http://www.w3.org/2000/svg"><mask id="a" style="mask-type:alpha" maskUnits="userSpaceOnUse" x="0" y="0" width="1447" height="863"><path fill="#D9D9D9" d="M0 0h1447v863H0z"/></mask><g mask="url(#a)"><circle cx="665.5" cy="376.5" r="5.5" fill="#525252"/><path fill="#C1C1C1" fill-opacity=".8" d="M1047 426h297v97h-297z"/><path fill="#fff" d="M1040 419h297v97h-297z"/><path stroke="#525252" d="M1033.5 412.5h298v96h-298z"/><path d="M1110.1 458.98v-13.96c1.85-.053 3.13-.08 3.84-.08 1.52 0 2.65.307 3.38.92.75.6 1.12 1.447 1.12 2.54 0 .813-.21 1.493-.64 2.04-.43.547-1.01.947-1.76 1.2v.04c.91.147 1.61.507 2.12 1.08.52.573.78 1.32.78 2.24 0 1.333-.45 2.347-1.36 3.04-.91.68-2.15 1.02-3.72 1.02-1.53 0-2.79-.027-3.76-.08zm3.96-6.36h-2.26v4.76c.55.053 1.27.08 2.16.08 1.05 0 1.86-.213 2.42-.64.57-.44.86-1.08.86-1.92 0-.733-.28-1.293-.84-1.68-.55-.4-1.33-.6-2.34-.6zm-.16-6.08c-.4 0-1.1.02-2.1.06v4.52h2.24c.79 0 1.43-.207 1.94-.62.51-.427.76-1 .76-1.72 0-1.493-.95-2.24-2.84-2.24zm10.78 12.46h-2.9v-9h1.6v2.7h1.48c1.23 0 2.13.28 2.7.84.58.547.86 1.3.86 2.26 0 .907-.3 1.667-.9 2.28-.57.613-1.52.92-2.84.92zm7.06 0h-1.6v-9h1.6v9zm-7.18-4.8h-1.18v3.3h1.16c.76 0 1.32-.133 1.66-.4.35-.267.52-.68.52-1.24 0-1.107-.72-1.66-2.16-1.66zm16.98 2.34l.76 1.16c-.78 1-1.93 1.5-3.46 1.5-1.44 0-2.61-.427-3.5-1.28-.88-.853-1.32-1.993-1.32-3.42 0-1.32.43-2.433 1.3-3.34.86-.907 1.95-1.36 3.26-1.36 1.57 0 2.75.393 3.54 1.18l-.74 1.26c-.7-.627-1.56-.94-2.58-.94-.84 0-1.57.307-2.18.92-.6.6-.9 1.36-.9 2.28 0 .973.3 1.747.92 2.32.62.587 1.4.88 2.32.88 1.04 0 1.9-.387 2.58-1.16zm3.07 1.34c-.88-.907-1.32-2.033-1.32-3.38 0-1.36.44-2.48 1.32-3.36.9-.893 2.06-1.34 3.48-1.34 1.43 0 2.58.447 3.46 1.34.9.88 1.34 2 1.34 3.36 0 1.36-.44 2.487-1.34 3.38-.88.88-2.03 1.32-3.46 1.32-1.41 0-2.57-.44-3.48-1.32zm1.26-5.68c-.58.587-.88 1.353-.88 2.3 0 .947.29 1.713.86 2.3.59.6 1.34.9 2.24.9.91 0 1.65-.293 2.22-.88.59-.6.88-1.373.88-2.32 0-.92-.29-1.687-.88-2.3-.57-.6-1.31-.9-2.22-.9-.9 0-1.64.3-2.22.9zm15.11-2.2h2.1l-3.94 4.3 4.32 4.7h-2.22l-4.06-4.6 3.8-4.4zm-4.18 9h-1.6v-9h1.6v9zm8.59-1.12c-.88-.907-1.32-2.033-1.32-3.38 0-1.36.44-2.48 1.32-3.36.9-.893 2.06-1.34 3.48-1.34 1.43 0 2.58.447 3.46 1.34.9.88 1.34 2 1.34 3.36 0 1.36-.44 2.487-1.34 3.38-.88.88-2.03 1.32-3.46 1.32-1.41 0-2.57-.44-3.48-1.32zm1.26-5.68c-.58.587-.88 1.353-.88 2.3 0 .947.29 1.713.86 2.3.59.6 1.34.9 2.24.9.91 0 1.65-.293 2.22-.88.59-.6.88-1.373.88-2.32 0-.92-.29-1.687-.88-2.3-.57-.6-1.31-.9-2.22-.9-.9 0-1.64.3-2.22.9zm16.25 4.34l.76 1.16c-.77 1-1.92 1.5-3.46 1.5-1.44 0-2.6-.427-3.5-1.28-.88-.853-1.32-1.993-1.32-3.42 0-1.32.44-2.433 1.3-3.34.87-.907 1.96-1.36 3.26-1.36 1.58 0 2.76.393 3.54 1.18l-.74 1.26c-.69-.627-1.55-.94-2.58-.94-.84 0-1.56.307-2.18.92-.6.6-.9 1.36-.9 2.28 0 .973.31 1.747.92 2.32.63.587 1.4.88 2.32.88 1.04 0 1.9-.387 2.58-1.16zm8.63-6.54h2.1l-3.94 4.3 4.32 4.7h-2.22l-4.06-4.6 3.8-4.4zm-4.18 9h-1.6v-9h1.6v9zm8.59-1.12c-.88-.907-1.32-2.033-1.32-3.38 0-1.36.44-2.48 1.32-3.36.89-.893 2.05-1.34 3.48-1.34 1.43 0 2.58.447 3.46 1.34.89.88 1.34 2 1.34 3.36 0 1.36-.45 2.487-1.34 3.38-.88.88-2.03 1.32-3.46 1.32-1.41 0-2.57-.44-3.48-1.32zm1.26-5.68c-.59.587-.88 1.353-.88 2.3 0 .947.29 1.713.86 2.3.59.6 1.33.9 2.24.9.91 0 1.65-.293 2.22-.88.59-.6.88-1.373.88-2.32 0-.92-.29-1.687-.88-2.3-.57-.6-1.31-.9-2.22-.9-.91 0-1.65.3-2.22.9zm10.93 10.8h-1.6v-13h1.6v1.06c.32-.373.76-.673 1.32-.9.56-.24 1.14-.36 1.74-.36 1.28 0 2.29.427 3.02 1.28.76.84 1.14 1.933 1.14 3.28 0 1.373-.43 2.527-1.3 3.46-.85.92-1.98 1.38-3.38 1.38-1.08 0-1.93-.207-2.54-.62V463zm2.6-11.7c-1.07 0-1.93.413-2.6 1.24V457c.71.467 1.51.7 2.4.7.95 0 1.7-.3 2.26-.9.57-.613.86-1.407.86-2.38 0-.947-.26-1.7-.78-2.26-.52-.573-1.23-.86-2.14-.86zm7.63 6.58c-.88-.907-1.32-2.033-1.32-3.38 0-1.36.44-2.48 1.32-3.36.9-.893 2.06-1.34 3.48-1.34 1.43 0 2.58.447 3.46 1.34.9.88 1.34 2 1.34 3.36 0 1.36-.44 2.487-1.34 3.38-.88.88-2.03 1.32-3.46 1.32-1.41 0-2.57-.44-3.48-1.32zm1.26-5.68c-.58.587-.88 1.353-.88 2.3 0 .947.29 1.713.86 2.3.59.6 1.34.9 2.24.9.91 0 1.65-.293 2.22-.88.59-.6.88-1.373.88-2.32 0-.92-.29-1.687-.88-2.3-.57-.6-1.31-.9-2.22-.9-.9 0-1.64.3-2.22.9zm16.25 4.34l.76 1.16c-.77 1-1.92 1.5-3.46 1.5-1.44 0-2.6-.427-3.5-1.28-.88-.853-1.32-1.993-1.32-3.42 0-1.32.44-2.433 1.3-3.34.87-.907 1.96-1.36 3.26-1.36 1.58 0 2.76.393 3.54 1.18l-.74 1.26c-.69-.627-1.55-.94-2.58-.94-.84 0-1.56.307-2.18.92-.6.6-.9 1.36-.9 2.28 0 .973.31 1.747.92 2.32.63.587 1.4.88 2.32.88 1.04 0 1.9-.387 2.58-1.16zm4.89-4.94h-3.3V450h8.2v1.6h-3.3v7.4h-1.6v-7.4zm14.85 7.4h-1.6v-3.8h-5v3.8h-1.6v-9h1.6v3.7h5V450h1.6v9zm3.61-1.12c-.88-.907-1.32-2.033-1.32-3.38 0-1.36.44-2.48 1.32-3.36.9-.893 2.06-1.34 3.48-1.34 1.43 0 2.58.447 3.46 1.34.9.88 1.34 2 1.34 3.36 0 1.36-.44 2.487-1.34 3.38-.88.88-2.03 1.32-3.46 1.32-1.41 0-2.57-.44-3.48-1.32zm1.26-5.68c-.58.587-.88 1.353-.88 2.3 0 .947.29 1.713.86 2.3.59.6 1.34.9 2.24.9.91 0 1.65-.293 2.22-.88.59-.6.88-1.373.88-2.32 0-.92-.29-1.687-.88-2.3-.57-.6-1.31-.9-2.22-.9-.9 0-1.64.3-2.22.9zm16.13.1l-5.2 6.7h-1.6v-9h1.6v6.7l5.2-6.7h1.6v9h-1.6v-6.7zm-5.52-6.9h1.5c.08 1.053.59 1.58 1.54 1.58.89 0 1.38-.527 1.46-1.58h1.5c0 .813-.28 1.487-.84 2.02-.55.52-1.25.78-2.12.78-.95 0-1.69-.253-2.24-.76-.53-.52-.8-1.2-.8-2.04zm14.52 13.6v-9h.28c.12-.013.3-.02.52-.02.23-.013.44-.02.62-.02.99-.027 1.6-.04 1.84-.04 2.59 0 3.88.773 3.88 2.32 0 .533-.16.993-.5 1.38-.33.373-.76.6-1.3.68v.04c1.4.253 2.1.96 2.1 2.12 0 1.747-1.38 2.62-4.14 2.62-.13 0-.72-.013-1.76-.04-.2 0-.42-.007-.66-.02-.24 0-.42-.007-.56-.02h-.32zm3.52-4.04h-1.92v2.76c.96.04 1.58.06 1.84.06 1.54 0 2.3-.48 2.3-1.44 0-.92-.74-1.38-2.22-1.38zm-.14-3.74c-.38 0-.98.02-1.78.06v2.68h2.02c.55 0 .99-.127 1.32-.38.34-.253.5-.593.5-1.02 0-.893-.68-1.34-2.06-1.34zm6.98.68l-.42-1.28c.9-.547 1.9-.82 3-.82 1.22 0 2.1.3 2.64.9.55.6.82 1.527.82 2.78V459h-1.52v-1.16c-.7.867-1.66 1.3-2.88 1.3-.82 0-1.49-.247-2-.74-.5-.507-.76-1.187-.76-2.04 0-.88.32-1.573.94-2.08.63-.52 1.45-.78 2.46-.78.95 0 1.7.193 2.24.58 0-1.013-.14-1.74-.42-2.18-.28-.44-.82-.66-1.62-.66-.81 0-1.64.22-2.48.66zm2.2 5.8c.9 0 1.67-.387 2.32-1.16v-1.14c-.56-.4-1.23-.6-2.02-.6-.54 0-1 .133-1.38.4-.36.253-.54.613-.54 1.08 0 .44.14.787.42 1.04.3.253.7.38 1.2.38zm14.28 1.3h-1.6v-7.4h-3.16l-.1 1.52c-.1 1.24-.26 2.273-.48 3.1-.2.813-.46 1.427-.8 1.84-.32.4-.66.68-1.02.84-.36.147-.8.22-1.32.22l-.12-1.56c.15.013.3-.007.46-.06.16-.067.34-.2.52-.4.2-.2.38-.467.52-.8.16-.333.3-.8.42-1.4.14-.613.22-1.313.26-2.1l.16-2.8h6.26v9z" fill="#000"/><path d="M1115.1 481.416l.41.768c-.28.288-.66.516-1.14.684-.48.168-.98.252-1.51.252-1.26 0-2.28-.392-3.08-1.176-.79-.8-1.18-1.848-1.18-3.144 0-1.248.38-2.276 1.13-3.084.75-.824 1.77-1.236 3.06-1.236 1.06 0 1.91.272 2.55.816l-.46.768c-.56-.416-1.26-.624-2.08-.624-.91 0-1.66.312-2.24.936-.59.616-.88 1.424-.88 2.424s.3 1.812.9 2.436c.62.616 1.41.924 2.38.924.81 0 1.53-.248 2.14-.744zm1.74.912c-.53-.544-.79-1.22-.79-2.028 0-.816.26-1.488.79-2.016.54-.536 1.23-.804 2.09-.804.86 0 1.55.268 2.08.804.53.528.8 1.2.8 2.016 0 .816-.27 1.492-.8 2.028-.53.528-1.22.792-2.08.792-.85 0-1.54-.264-2.09-.792zm.76-3.408c-.35.352-.53.812-.53 1.38 0 .568.17 1.028.52 1.38.35.36.8.54 1.34.54s.99-.176 1.33-.528c.35-.36.53-.824.53-1.392 0-.552-.18-1.012-.53-1.38-.34-.36-.79-.54-1.33-.54s-.99.18-1.33.54zm9.86 2.736l.3.756c-.52.472-1.2.708-2.03.708-.88 0-1.58-.256-2.1-.768-.53-.512-.79-1.196-.79-2.052 0-.808.24-1.48.74-2.016.49-.536 1.17-.804 2.04-.804.72 0 1.32.232 1.79.696.48.456.72 1.048.72 1.776 0 .232-.02.448-.06.648h-4.15c.04.504.22.9.56 1.188.34.288.78.432 1.32.432.7 0 1.26-.188 1.66-.564zm-1.89-3.276c-.47 0-.86.132-1.17.396-.31.264-.49.612-.54 1.044h3.27c-.02-.448-.17-.8-.45-1.056s-.64-.384-1.11-.384zm3.81 5.94h-.9v-2.22h.67c.2-.248.37-.648.53-1.2.15-.56.25-1.184.3-1.872l.08-1.428h3.68v4.5h.9v2.22h-.9V483h-4.36v1.32zm1.58-5.82l-.06.9a7.98 7.98 0 01-.29 1.644c-.14.496-.29.848-.44 1.056h2.61v-3.6h-1.82zm8.81.48l-3.12 4.02h-.96v-5.4h.96v4.02l3.12-4.02h.96v5.4h-.96v-4.02zm7.62 4.02h-.96v-2.28h-3V483h-.96v-5.4h.96v2.22h3v-2.22h.96v5.4zm6-1.344l.3.756c-.52.472-1.2.708-2.03.708-.88 0-1.58-.256-2.1-.768-.53-.512-.79-1.196-.79-2.052 0-.808.25-1.48.74-2.016s1.17-.804 2.04-.804c.72 0 1.32.232 1.79.696.48.456.72 1.048.72 1.776 0 .232-.02.448-.06.648h-4.15c.04.504.23.9.56 1.188.35.288.79.432 1.32.432.71 0 1.26-.188 1.66-.564zm-1.88-3.276c-.48 0-.87.132-1.18.396-.3.264-.48.612-.54 1.044h3.28c-.03-.448-.18-.8-.46-1.056-.27-.256-.64-.384-1.1-.384zm8.77 4.62h-.96v-2.28h-3V483h-.96v-5.4h.96v2.22h3v-2.22h.96v5.4zm8.59-1.476l.45.696c-.46.6-1.15.9-2.07.9-.87 0-1.57-.256-2.1-.768s-.79-1.196-.79-2.052c0-.792.26-1.46.78-2.004s1.17-.816 1.95-.816c.95 0 1.65.236 2.13.708l-.45.756c-.41-.376-.93-.564-1.55-.564-.5 0-.94.184-1.3.552-.36.36-.54.816-.54 1.368 0 .584.18 1.048.55 1.392.37.352.84.528 1.39.528.62 0 1.14-.232 1.55-.696zm7.9-.876h-2.66v-.78h2.65c-.07-.48-.27-.848-.61-1.104-.33-.256-.75-.384-1.26-.384-.66 0-1.22.196-1.66.588l-.4-.72c.23-.232.54-.416.92-.552.38-.144.76-.216 1.13-.216.86 0 1.55.256 2.07.768.54.512.81 1.196.81 2.052 0 .792-.26 1.46-.78 2.004s-1.17.816-1.96.816c-.97 0-1.7-.228-2.17-.684l.46-.708c.36.328.92.492 1.65.492.51 0 .92-.136 1.24-.408.32-.28.51-.668.57-1.164zm6.82 2.352h-.96v-4.44h-1.9l-.06.912c-.06.744-.16 1.364-.29 1.86-.12.488-.28.856-.48 1.104-.19.24-.39.408-.61.504-.22.088-.48.132-.79.132l-.07-.936c.08.008.18-.004.27-.036.1-.04.2-.12.31-.24.12-.12.23-.28.32-.48.09-.2.18-.48.25-.84.08-.368.13-.788.15-1.26l.1-1.68h3.76v5.4zm5.99-1.344l.3.756c-.52.472-1.2.708-2.03.708-.88 0-1.58-.256-2.1-.768-.53-.512-.79-1.196-.79-2.052 0-.808.25-1.48.74-2.016s1.17-.804 2.04-.804c.72 0 1.32.232 1.79.696.48.456.72 1.048.72 1.776 0 .232-.02.448-.06.648h-4.15c.04.504.23.9.56 1.188.35.288.79.432 1.32.432.71 0 1.26-.188 1.66-.564zm-1.89-3.276c-.47 0-.86.132-1.17.396-.31.264-.49.612-.54 1.044h3.27c-.02-.448-.17-.8-.45-1.056-.27-.256-.64-.384-1.11-.384zm7.33-.78h1.26l-2.36 2.58 2.59 2.82h-1.33l-2.44-2.76 2.28-2.64zm-2.51 5.4h-.96v-5.4h.96v5.4zm6.31-4.44h-1.98v-.96h4.92v.96h-1.98V483h-.96v-4.44zm4.95 6.84h-.96v-7.8h.96v.636c.2-.224.46-.404.8-.54.33-.144.68-.216 1.04-.216.77 0 1.37.256 1.81.768.46.504.69 1.16.69 1.968 0 .824-.26 1.516-.78 2.076-.52.552-1.19.828-2.03.828-.65 0-1.16-.124-1.53-.372v2.652zm1.56-7.02c-.64 0-1.16.248-1.56.744v2.676c.43.28.91.42 1.44.42.57 0 1.02-.18 1.36-.54.34-.368.52-.844.52-1.428 0-.568-.16-1.02-.47-1.356-.31-.344-.74-.516-1.29-.516zm4.58 3.948c-.52-.544-.79-1.22-.79-2.028 0-.816.27-1.488.79-2.016.54-.536 1.24-.804 2.09-.804.86 0 1.55.268 2.08.804.53.528.8 1.2.8 2.016 0 .816-.27 1.492-.8 2.028-.53.528-1.22.792-2.08.792-.85 0-1.54-.264-2.09-.792zm.76-3.408c-.35.352-.53.812-.53 1.38 0 .568.17 1.028.52 1.38.35.36.8.54 1.34.54.55 0 .99-.176 1.33-.528.36-.36.53-.824.53-1.392 0-.552-.17-1.012-.53-1.38-.34-.36-.78-.54-1.33-.54-.54 0-.99.18-1.33.54zm6.56 4.08h-.96v-5.4h3.42v.9h-2.46v4.5zm7.47-1.344l.3.756c-.52.472-1.2.708-2.03.708-.88 0-1.58-.256-2.1-.768-.53-.512-.79-1.196-.79-2.052 0-.808.25-1.48.74-2.016s1.17-.804 2.04-.804c.72 0 1.32.232 1.79.696.48.456.72 1.048.72 1.776 0 .232-.02.448-.06.648h-4.15c.04.504.23.9.56 1.188.35.288.79.432 1.32.432.71 0 1.26-.188 1.66-.564zm-1.89-3.276c-.47 0-.86.132-1.17.396-.31.264-.49.612-.54 1.044h3.27c-.02-.448-.17-.8-.45-1.056-.27-.256-.64-.384-1.11-.384zm8.78 4.62h-.96v-2.28h-3V483h-.96v-5.4h.96v2.22h3v-2.22h.96v5.4zm6-1.344l.3.756c-.52.472-1.2.708-2.03.708-.88 0-1.58-.256-2.1-.768-.53-.512-.79-1.196-.79-2.052 0-.808.25-1.48.74-2.016s1.17-.804 2.04-.804c.72 0 1.32.232 1.79.696.48.456.72 1.048.72 1.776 0 .232-.02.448-.06.648h-4.15c.04.504.23.9.56 1.188.35.288.79.432 1.32.432.71 0 1.26-.188 1.66-.564zm-1.89-3.276c-.47 0-.86.132-1.17.396-.31.264-.49.612-.54 1.044h3.27c-.02-.448-.17-.8-.45-1.056-.27-.256-.64-.384-1.11-.384zm4.82 7.02h-.96v-7.8h.96v.636c.2-.224.46-.404.8-.54.33-.144.68-.216 1.04-.216.77 0 1.37.256 1.81.768.46.504.69 1.16.69 1.968 0 .824-.26 1.516-.78 2.076-.52.552-1.19.828-2.03.828-.65 0-1.16-.124-1.53-.372v2.652zm1.56-7.02c-.64 0-1.16.248-1.56.744v2.676c.43.28.91.42 1.44.42.57 0 1.02-.18 1.36-.54.34-.368.52-.844.52-1.428 0-.568-.16-1.02-.47-1.356-.31-.344-.74-.516-1.29-.516zm4.44.36l-.25-.768a3.35 3.35 0 011.8-.492c.73 0 1.25.18 1.58.54.33.36.49.916.49 1.668V483h-.91v-.696c-.42.52-1 .78-1.73.78-.49 0-.89-.148-1.2-.444-.3-.304-.45-.712-.45-1.224 0-.528.19-.944.56-1.248.38-.312.87-.468 1.48-.468.57 0 1.01.116 1.34.348 0-.608-.08-1.044-.25-1.308-.17-.264-.49-.396-.97-.396-.49 0-.99.132-1.49.396zm1.32 3.48c.54 0 1-.232 1.39-.696v-.684c-.33-.24-.74-.36-1.21-.36-.33 0-.6.08-.83.24a.756.756 0 00-.32.648c0 .264.08.472.25.624.18.152.42.228.72.228zm5.21-3.66h-1.98v-.96h4.92v.96h-1.98V483h-.96v-4.44zm4.24 3.768c-.53-.544-.79-1.22-.79-2.028 0-.816.26-1.488.79-2.016.54-.536 1.23-.804 2.09-.804.86 0 1.55.268 2.08.804.53.528.8 1.2.8 2.016 0 .816-.27 1.492-.8 2.028-.53.528-1.22.792-2.08.792-.85 0-1.54-.264-2.09-.792zm.76-3.408c-.35.352-.53.812-.53 1.38 0 .568.17 1.028.52 1.38.35.36.8.54 1.34.54s.99-.176 1.33-.528c.35-.36.53-.824.53-1.392 0-.552-.18-1.012-.53-1.38-.34-.36-.79-.54-1.33-.54s-.99.18-1.33.54zm6.56 6.48h-.96v-7.8h.96v.636c.19-.224.45-.404.79-.54.33-.144.68-.216 1.04-.216.77 0 1.37.256 1.81.768.46.504.69 1.16.69 1.968 0 .824-.26 1.516-.78 2.076-.51.552-1.19.828-2.03.828-.65 0-1.16-.124-1.52-.372v2.652zm1.56-7.02c-.64 0-1.16.248-1.56.744v2.676c.42.28.9.42 1.44.42.56 0 1.02-.18 1.35-.54.35-.368.52-.844.52-1.428 0-.568-.16-1.02-.47-1.356-.31-.344-.74-.516-1.28-.516zm4.58 3.948c-.53-.544-.8-1.22-.8-2.028 0-.816.27-1.488.8-2.016.53-.536 1.23-.804 2.08-.804.86 0 1.55.268 2.08.804.54.528.8 1.2.8 2.016 0 .816-.26 1.492-.8 2.028-.53.528-1.22.792-2.08.792-.84 0-1.54-.264-2.08-.792zm.75-3.408c-.35.352-.53.812-.53 1.38 0 .568.18 1.028.52 1.38.35.36.8.54 1.34.54.55 0 .99-.176 1.34-.528.35-.36.52-.824.52-1.392 0-.552-.17-1.012-.52-1.38-.35-.36-.79-.54-1.34-.54-.54 0-.98.18-1.33.54zm6.56 4.08h-.96v-5.4h.87l2.08 2.676 1.97-2.676h.85v5.4h-.96v-3.936l-1.87 2.508h-.04l-1.94-2.508V483zm6.29-.648a.6.6 0 01.19-.444.68.68 0 01.49-.192c.17 0 .32.064.44.192.13.128.2.276.2.444 0 .192-.06.356-.18.492a.613.613 0 01-.46.192.68.68 0 01-.49-.192.682.682 0 01-.19-.492z" fill="#959595"/><path d="M667.183 377.017A.501.501 0 00667 378l.183-.983zM667 378l366 68 .18-.983-365.997-68L667 378z" fill="#525252"/><path d="M1073.85 488.6c-2.96 0-5.56-.62-7.8-1.86-2.2-1.24-3.84-3.02-4.92-5.34l2.76-3.42c.96 1.84 2.32 3.28 4.08 4.32 1.76 1 3.66 1.5 5.7 1.5 2.52 0 4.52-.7 6-2.1 1.52-1.4 2.28-3.22 2.28-5.46 0-2.24-.8-4.02-2.4-5.34-1.56-1.32-3.62-1.98-6.18-1.98h-3.3v-4.8h3c1.96 0 3.64-.68 5.04-2.04 1.48-1.36 2.22-3.1 2.22-5.22 0-2.08-.62-3.7-1.86-4.86-1.2-1.2-2.86-1.8-4.98-1.8-3.8 0-6.68 1.74-8.64 5.22l-2.7-3.3c.96-2.12 2.46-3.76 4.5-4.92 2.08-1.2 4.48-1.8 7.2-1.8 3.52 0 6.32.96 8.4 2.88 2.12 1.92 3.18 4.5 3.18 7.74 0 2.32-.56 4.36-1.68 6.12-1.12 1.76-2.74 3.08-4.86 3.96v.18c2.48.4 4.46 1.54 5.94 3.42 1.48 1.88 2.22 4.12 2.22 6.72 0 3.68-1.24 6.64-3.72 8.88-2.44 2.2-5.6 3.3-9.48 3.3z" fill="#999"/></g></svg>