<svg width="1447" height="863" viewBox="0 0 1447 863" fill="none" xmlns="http://www.w3.org/2000/svg">
<mask id="mask0_1324_81" style="mask-type:alpha" maskUnits="userSpaceOnUse" x="0" y="0" width="1447" height="863">
<rect width="1447" height="863" fill="#D9D9D9"/>
</mask>
<g mask="url(#mask0_1324_81)">
<circle cx="853.5" cy="238.5" r="5.5" fill="#525252"/>
<rect x="977" y="78" width="306" height="129" fill="#C1C1C1" fill-opacity="0.8"/>
<rect x="970" y="71" width="306" height="129" fill="white"/>
<rect x="963.5" y="64.5" width="305" height="128" stroke="#525252"/>
<path d="M1043.1 98.6H1038.2V97H1049.7V98.6H1044.8V111H1043.1V98.6ZM1050.47 115H1048.87V102H1050.47V103.06C1050.79 102.687 1051.23 102.387 1051.79 102.16C1052.35 101.92 1052.93 101.8 1053.53 101.8C1054.81 101.8 1055.82 102.227 1056.55 103.08C1057.31 103.92 1057.69 105.013 1057.69 106.36C1057.69 107.733 1057.26 108.887 1056.39 109.82C1055.54 110.74 1054.41 111.2 1053.01 111.2C1051.93 111.2 1051.09 110.993 1050.47 110.58V115ZM1053.07 103.3C1052.01 103.3 1051.14 103.713 1050.47 104.54V109C1051.18 109.467 1051.98 109.7 1052.87 109.7C1053.82 109.7 1054.57 109.4 1055.13 108.8C1055.71 108.187 1055.99 107.393 1055.99 106.42C1055.99 105.473 1055.73 104.72 1055.21 104.16C1054.69 103.587 1053.98 103.3 1053.07 103.3ZM1060.47 103.9L1060.05 102.62C1060.94 102.073 1061.94 101.8 1063.05 101.8C1064.26 101.8 1065.14 102.1 1065.69 102.7C1066.23 103.3 1066.51 104.227 1066.51 105.48V111H1064.99V109.84C1064.28 110.707 1063.32 111.14 1062.11 111.14C1061.28 111.14 1060.61 110.893 1060.11 110.4C1059.6 109.893 1059.35 109.213 1059.35 108.36C1059.35 107.48 1059.66 106.787 1060.29 106.28C1060.91 105.76 1061.73 105.5 1062.75 105.5C1063.69 105.5 1064.44 105.693 1064.99 106.08C1064.99 105.067 1064.85 104.34 1064.57 103.9C1064.29 103.46 1063.75 103.24 1062.95 103.24C1062.13 103.24 1061.31 103.46 1060.47 103.9ZM1062.67 109.7C1063.56 109.7 1064.33 109.313 1064.99 108.54V107.4C1064.43 107 1063.75 106.8 1062.97 106.8C1062.42 106.8 1061.96 106.933 1061.59 107.2C1061.23 107.453 1061.05 107.813 1061.05 108.28C1061.05 108.72 1061.19 109.067 1061.47 109.32C1061.76 109.573 1062.16 109.7 1062.67 109.7ZM1077.39 111H1075.79V107.2H1070.79V111H1069.19V102H1070.79V105.7H1075.79V102H1077.39V111ZM1087.2 108.54L1087.96 109.7C1087.19 110.7 1086.03 111.2 1084.5 111.2C1083.06 111.2 1081.89 110.773 1081 109.92C1080.12 109.067 1079.68 107.927 1079.68 106.5C1079.68 105.18 1080.11 104.067 1080.98 103.16C1081.85 102.253 1082.93 101.8 1084.24 101.8C1085.81 101.8 1086.99 102.193 1087.78 102.98L1087.04 104.24C1086.35 103.613 1085.49 103.3 1084.46 103.3C1083.62 103.3 1082.89 103.607 1082.28 104.22C1081.68 104.82 1081.38 105.58 1081.38 106.5C1081.38 107.473 1081.69 108.247 1082.3 108.82C1082.93 109.407 1083.7 109.7 1084.62 109.7C1085.66 109.7 1086.52 109.313 1087.2 108.54ZM1095.66 115H1094.06V111.2H1093.84C1092.33 111.2 1091.14 110.76 1090.26 109.88C1089.39 108.987 1088.96 107.86 1088.96 106.5C1088.96 105.207 1089.4 104.1 1090.28 103.18C1091.16 102.26 1092.34 101.8 1093.82 101.8H1094.06V97H1095.66V101.8H1095.92C1097.38 101.8 1098.56 102.247 1099.44 103.14C1100.32 104.033 1100.76 105.153 1100.76 106.5C1100.76 107.9 1100.33 109.033 1099.48 109.9C1098.64 110.767 1097.45 111.2 1095.92 111.2H1095.66V115ZM1090.66 106.5C1090.66 107.473 1090.94 108.253 1091.52 108.84C1092.1 109.413 1092.9 109.7 1093.9 109.7H1094.06V103.3H1093.8C1092.82 103.3 1092.06 103.6 1091.5 104.2C1090.94 104.787 1090.66 105.553 1090.66 106.5ZM1095.92 103.3H1095.66V109.7H1095.84C1096.85 109.7 1097.64 109.413 1098.2 108.84C1098.77 108.253 1099.06 107.473 1099.06 106.5C1099.06 105.62 1098.78 104.867 1098.22 104.24C1097.66 103.613 1096.89 103.3 1095.92 103.3ZM1103.77 109.88C1102.89 108.973 1102.45 107.847 1102.45 106.5C1102.45 105.14 1102.89 104.02 1103.77 103.14C1104.67 102.247 1105.83 101.8 1107.25 101.8C1108.68 101.8 1109.83 102.247 1110.71 103.14C1111.61 104.02 1112.05 105.14 1112.05 106.5C1112.05 107.86 1111.61 108.987 1110.71 109.88C1109.83 110.76 1108.68 111.2 1107.25 111.2C1105.84 111.2 1104.68 110.76 1103.77 109.88ZM1105.03 104.2C1104.45 104.787 1104.15 105.553 1104.15 106.5C1104.15 107.447 1104.44 108.213 1105.01 108.8C1105.6 109.4 1106.35 109.7 1107.25 109.7C1108.16 109.7 1108.9 109.407 1109.47 108.82C1110.06 108.22 1110.35 107.447 1110.35 106.5C1110.35 105.58 1110.06 104.813 1109.47 104.2C1108.9 103.6 1108.16 103.3 1107.25 103.3C1106.35 103.3 1105.61 103.6 1105.03 104.2ZM1115.96 115H1114.36V102H1115.96V103.06C1116.28 102.687 1116.72 102.387 1117.28 102.16C1117.84 101.92 1118.42 101.8 1119.02 101.8C1120.3 101.8 1121.31 102.227 1122.04 103.08C1122.8 103.92 1123.18 105.013 1123.18 106.36C1123.18 107.733 1122.75 108.887 1121.88 109.82C1121.03 110.74 1119.9 111.2 1118.5 111.2C1117.42 111.2 1116.58 110.993 1115.96 110.58V115ZM1118.56 103.3C1117.5 103.3 1116.63 103.713 1115.96 104.54V109C1116.67 109.467 1117.47 109.7 1118.36 109.7C1119.31 109.7 1120.06 109.4 1120.62 108.8C1121.2 108.187 1121.48 107.393 1121.48 106.42C1121.48 105.473 1121.22 104.72 1120.7 104.16C1120.18 103.587 1119.47 103.3 1118.56 103.3ZM1127.08 111H1125.48V102H1126.94L1130.4 106.46L1133.68 102H1135.1V111H1133.5V104.44L1130.38 108.62H1130.32L1127.08 104.44V111ZM1138.47 103.9L1138.05 102.62C1138.95 102.073 1139.95 101.8 1141.05 101.8C1142.27 101.8 1143.15 102.1 1143.69 102.7C1144.24 103.3 1144.51 104.227 1144.51 105.48V111H1142.99V109.84C1142.29 110.707 1141.33 111.14 1140.11 111.14C1139.29 111.14 1138.62 110.893 1138.11 110.4C1137.61 109.893 1137.35 109.213 1137.35 108.36C1137.35 107.48 1137.67 106.787 1138.29 106.28C1138.92 105.76 1139.74 105.5 1140.75 105.5C1141.7 105.5 1142.45 105.693 1142.99 106.08C1142.99 105.067 1142.85 104.34 1142.57 103.9C1142.29 103.46 1141.75 103.24 1140.95 103.24C1140.14 103.24 1139.31 103.46 1138.47 103.9ZM1140.67 109.7C1141.57 109.7 1142.34 109.313 1142.99 108.54V107.4C1142.43 107 1141.76 106.8 1140.97 106.8C1140.43 106.8 1139.97 106.933 1139.59 107.2C1139.23 107.453 1139.05 107.813 1139.05 108.28C1139.05 108.72 1139.19 109.067 1139.47 109.32C1139.77 109.573 1140.17 109.7 1140.67 109.7ZM1149.35 103.6H1146.05V102H1154.25V103.6H1150.95V111H1149.35V103.6ZM1156.43 109.88C1155.55 108.973 1155.11 107.847 1155.11 106.5C1155.11 105.14 1155.55 104.02 1156.43 103.14C1157.32 102.247 1158.48 101.8 1159.91 101.8C1161.34 101.8 1162.49 102.247 1163.37 103.14C1164.26 104.02 1164.71 105.14 1164.71 106.5C1164.71 107.86 1164.26 108.987 1163.37 109.88C1162.49 110.76 1161.34 111.2 1159.91 111.2C1158.5 111.2 1157.34 110.76 1156.43 109.88ZM1157.69 104.2C1157.1 104.787 1156.81 105.553 1156.81 106.5C1156.81 107.447 1157.1 108.213 1157.67 108.8C1158.26 109.4 1159 109.7 1159.91 109.7C1160.82 109.7 1161.56 109.407 1162.13 108.82C1162.72 108.22 1163.01 107.447 1163.01 106.5C1163.01 105.58 1162.72 104.813 1162.13 104.2C1161.56 103.6 1160.82 103.3 1159.91 103.3C1159 103.3 1158.26 103.6 1157.69 104.2ZM1168.62 115H1167.02V102H1168.62V103.06C1168.94 102.687 1169.38 102.387 1169.94 102.16C1170.5 101.92 1171.08 101.8 1171.68 101.8C1172.96 101.8 1173.96 102.227 1174.7 103.08C1175.46 103.92 1175.84 105.013 1175.84 106.36C1175.84 107.733 1175.4 108.887 1174.54 109.82C1173.68 110.74 1172.56 111.2 1171.16 111.2C1170.08 111.2 1169.23 110.993 1168.62 110.58V115ZM1171.22 103.3C1170.15 103.3 1169.28 103.713 1168.62 104.54V109C1169.32 109.467 1170.12 109.7 1171.02 109.7C1171.96 109.7 1172.72 109.4 1173.28 108.8C1173.85 108.187 1174.14 107.393 1174.14 106.42C1174.14 105.473 1173.88 104.72 1173.36 104.16C1172.84 103.587 1172.12 103.3 1171.22 103.3Z" fill="black"/>
<path d="M1045.86 135H1044.84V127.56H1040.28V135H1039.26V126.6H1045.86V135ZM1048.94 137.4H1047.98V129.6H1048.94V130.236C1049.13 130.012 1049.4 129.832 1049.73 129.696C1050.07 129.552 1050.42 129.48 1050.78 129.48C1051.55 129.48 1052.15 129.736 1052.59 130.248C1053.05 130.752 1053.27 131.408 1053.27 132.216C1053.27 133.04 1053.01 133.732 1052.49 134.292C1051.98 134.844 1051.31 135.12 1050.47 135.12C1049.82 135.12 1049.31 134.996 1048.94 134.748V137.4ZM1050.5 130.38C1049.86 130.38 1049.34 130.628 1048.94 131.124V133.8C1049.37 134.08 1049.85 134.22 1050.38 134.22C1050.95 134.22 1051.4 134.04 1051.74 133.68C1052.08 133.312 1052.25 132.836 1052.25 132.252C1052.25 131.684 1052.1 131.232 1051.79 130.896C1051.47 130.552 1051.05 130.38 1050.5 130.38ZM1058.91 133.656L1059.21 134.412C1058.69 134.884 1058.01 135.12 1057.18 135.12C1056.3 135.12 1055.6 134.864 1055.08 134.352C1054.55 133.84 1054.29 133.156 1054.29 132.3C1054.29 131.492 1054.54 130.82 1055.03 130.284C1055.52 129.748 1056.2 129.48 1057.07 129.48C1057.79 129.48 1058.39 129.712 1058.86 130.176C1059.34 130.632 1059.58 131.224 1059.58 131.952C1059.58 132.184 1059.56 132.4 1059.52 132.6H1055.37C1055.41 133.104 1055.6 133.5 1055.93 133.788C1056.28 134.076 1056.72 134.22 1057.25 134.22C1057.96 134.22 1058.51 134.032 1058.91 133.656ZM1057.03 130.38C1056.55 130.38 1056.16 130.512 1055.85 130.776C1055.55 131.04 1055.37 131.388 1055.31 131.82H1058.59C1058.56 131.372 1058.41 131.02 1058.13 130.764C1057.86 130.508 1057.49 130.38 1057.03 130.38ZM1061.25 134.328C1060.72 133.784 1060.45 133.108 1060.45 132.3C1060.45 131.484 1060.72 130.812 1061.25 130.284C1061.78 129.748 1062.48 129.48 1063.33 129.48C1064.19 129.48 1064.88 129.748 1065.41 130.284C1065.95 130.812 1066.21 131.484 1066.21 132.3C1066.21 133.116 1065.95 133.792 1065.41 134.328C1064.88 134.856 1064.19 135.12 1063.33 135.12C1062.49 135.12 1061.79 134.856 1061.25 134.328ZM1062 130.92C1061.65 131.272 1061.47 131.732 1061.47 132.3C1061.47 132.868 1061.65 133.328 1061.99 133.68C1062.34 134.04 1062.79 134.22 1063.33 134.22C1063.88 134.22 1064.32 134.044 1064.67 133.692C1065.02 133.332 1065.19 132.868 1065.19 132.3C1065.19 131.748 1065.02 131.288 1064.67 130.92C1064.32 130.56 1063.88 130.38 1063.33 130.38C1062.79 130.38 1062.35 130.56 1062 130.92ZM1071.77 126.48L1072.29 127.236C1072.1 127.5 1071.87 127.68 1071.59 127.776C1071.3 127.88 1070.96 127.96 1070.59 128.016C1070.22 128.072 1069.87 128.172 1069.54 128.316C1068.73 128.692 1068.27 129.56 1068.17 130.92H1068.2C1068.37 130.544 1068.66 130.24 1069.05 130.008C1069.45 129.776 1069.88 129.66 1070.33 129.66C1071.1 129.66 1071.71 129.904 1072.16 130.392C1072.61 130.88 1072.84 131.532 1072.84 132.348C1072.84 133.116 1072.58 133.772 1072.06 134.316C1071.55 134.852 1070.89 135.12 1070.07 135.12C1069.19 135.12 1068.49 134.82 1067.98 134.22C1067.47 133.628 1067.21 132.808 1067.21 131.76C1067.21 129.424 1067.88 127.972 1069.22 127.404C1069.52 127.268 1069.87 127.168 1070.27 127.104C1070.59 127.048 1070.81 127.004 1070.95 126.972C1071.08 126.94 1071.23 126.884 1071.38 126.804C1071.54 126.724 1071.67 126.616 1071.77 126.48ZM1068.23 131.94C1068.23 132.628 1068.4 133.18 1068.74 133.596C1069.07 134.012 1069.51 134.22 1070.05 134.22C1070.57 134.22 1070.99 134.044 1071.32 133.692C1071.65 133.348 1071.82 132.916 1071.82 132.396C1071.82 131.844 1071.67 131.4 1071.35 131.064C1071.05 130.728 1070.63 130.56 1070.09 130.56C1069.61 130.56 1069.2 130.696 1068.87 130.968C1068.53 131.248 1068.31 131.572 1068.23 131.94ZM1075.18 137.4H1074.22V129.6H1075.18V130.236C1075.37 130.012 1075.64 129.832 1075.97 129.696C1076.31 129.552 1076.66 129.48 1077.02 129.48C1077.78 129.48 1078.39 129.736 1078.83 130.248C1079.28 130.752 1079.51 131.408 1079.51 132.216C1079.51 133.04 1079.25 133.732 1078.73 134.292C1078.22 134.844 1077.54 135.12 1076.7 135.12C1076.06 135.12 1075.55 134.996 1075.18 134.748V137.4ZM1076.74 130.38C1076.1 130.38 1075.58 130.628 1075.18 131.124V133.8C1075.6 134.08 1076.08 134.22 1076.62 134.22C1077.19 134.22 1077.64 134.04 1077.98 133.68C1078.32 133.312 1078.49 132.836 1078.49 132.252C1078.49 131.684 1078.34 131.232 1078.02 130.896C1077.71 130.552 1077.28 130.38 1076.74 130.38ZM1081.18 130.74L1080.92 129.972C1081.46 129.644 1082.06 129.48 1082.72 129.48C1083.45 129.48 1083.98 129.66 1084.31 130.02C1084.64 130.38 1084.8 130.936 1084.8 131.688V135H1083.89V134.304C1083.46 134.824 1082.89 135.084 1082.16 135.084C1081.66 135.084 1081.26 134.936 1080.96 134.64C1080.66 134.336 1080.5 133.928 1080.5 133.416C1080.5 132.888 1080.69 132.472 1081.07 132.168C1081.44 131.856 1081.94 131.7 1082.54 131.7C1083.11 131.7 1083.56 131.816 1083.89 132.048C1083.89 131.44 1083.8 131.004 1083.64 130.74C1083.47 130.476 1083.14 130.344 1082.66 130.344C1082.18 130.344 1081.68 130.476 1081.18 130.74ZM1082.5 134.22C1083.03 134.22 1083.5 133.988 1083.89 133.524V132.84C1083.55 132.6 1083.15 132.48 1082.68 132.48C1082.35 132.48 1082.07 132.56 1081.85 132.72C1081.63 132.872 1081.52 133.088 1081.52 133.368C1081.52 133.632 1081.61 133.84 1081.78 133.992C1081.95 134.144 1082.19 134.22 1082.5 134.22ZM1088.19 135.12C1087.79 135.12 1087.35 135.052 1086.9 134.916C1086.46 134.772 1086.15 134.596 1085.96 134.388L1086.45 133.668C1086.67 133.844 1086.93 133.988 1087.22 134.1C1087.53 134.204 1087.8 134.256 1088.05 134.256C1088.47 134.256 1088.81 134.176 1089.07 134.016C1089.33 133.848 1089.47 133.632 1089.47 133.368C1089.47 133.144 1089.37 132.972 1089.18 132.852C1088.99 132.732 1088.74 132.672 1088.41 132.672H1087.5V131.892H1088.35C1088.62 131.892 1088.85 131.82 1089.02 131.676C1089.2 131.524 1089.29 131.34 1089.29 131.124C1089.29 130.884 1089.18 130.696 1088.97 130.56C1088.77 130.416 1088.49 130.344 1088.13 130.344C1087.57 130.344 1087.03 130.544 1086.51 130.944L1086.14 130.2C1086.36 129.976 1086.66 129.8 1087.04 129.672C1087.43 129.544 1087.85 129.48 1088.28 129.48C1088.92 129.48 1089.41 129.608 1089.77 129.864C1090.13 130.12 1090.31 130.476 1090.31 130.932C1090.31 131.556 1089.99 131.98 1089.36 132.204V132.228C1089.71 132.268 1089.99 132.408 1090.19 132.648C1090.39 132.88 1090.49 133.164 1090.49 133.5C1090.49 133.996 1090.27 134.392 1089.85 134.688C1089.43 134.976 1088.88 135.12 1088.19 135.12ZM1095.77 129.6H1096.86L1094.7 135C1094.31 135.952 1093.97 136.584 1093.68 136.896C1093.37 137.232 1093.03 137.4 1092.63 137.4C1092.28 137.4 1091.94 137.288 1091.61 137.064L1091.93 136.332C1092.18 136.452 1092.38 136.512 1092.53 136.512C1092.75 136.512 1092.95 136.416 1093.13 136.224C1093.31 136.032 1093.49 135.72 1093.68 135.288L1093.8 135L1091.21 129.6H1092.36L1093.94 133.032C1093.97 133.088 1094.08 133.36 1094.27 133.848C1094.34 133.584 1094.42 133.308 1094.52 133.02L1095.77 129.6ZM1098.86 135H1097.84V129.6H1098.86V131.76H1100.04C1100.15 131.072 1100.45 130.52 1100.94 130.104C1101.44 129.688 1102.04 129.48 1102.76 129.48C1103.61 129.48 1104.29 129.748 1104.8 130.284C1105.32 130.82 1105.58 131.492 1105.58 132.3C1105.58 133.108 1105.32 133.784 1104.79 134.328C1104.27 134.856 1103.6 135.12 1102.76 135.12C1102 135.12 1101.38 134.9 1100.89 134.46C1100.4 134.02 1100.12 133.44 1100.03 132.72H1098.86V135ZM1101.56 130.956C1101.24 131.3 1101.08 131.748 1101.08 132.3C1101.08 132.852 1101.24 133.3 1101.56 133.644C1101.88 133.988 1102.3 134.16 1102.8 134.16C1103.3 134.16 1103.71 133.992 1104.02 133.656C1104.34 133.312 1104.5 132.86 1104.5 132.3C1104.5 131.748 1104.35 131.3 1104.04 130.956C1103.72 130.612 1103.31 130.44 1102.8 130.44C1102.3 130.44 1101.88 130.612 1101.56 130.956ZM1108.05 130.56H1106.07V129.6H1110.99V130.56H1109.01V135H1108.05V130.56ZM1119.59 135H1118.63V130.5H1115.69V135H1114.73V129.6H1119.59V135ZM1125.59 133.656L1125.89 134.412C1125.37 134.884 1124.69 135.12 1123.86 135.12C1122.98 135.12 1122.28 134.864 1121.76 134.352C1121.23 133.84 1120.97 133.156 1120.97 132.3C1120.97 131.492 1121.22 130.82 1121.71 130.284C1122.2 129.748 1122.88 129.48 1123.75 129.48C1124.47 129.48 1125.07 129.712 1125.54 130.176C1126.02 130.632 1126.26 131.224 1126.26 131.952C1126.26 132.184 1126.24 132.4 1126.2 132.6H1122.05C1122.09 133.104 1122.28 133.5 1122.61 133.788C1122.96 134.076 1123.4 134.22 1123.93 134.22C1124.64 134.22 1125.19 134.032 1125.59 133.656ZM1123.7 130.38C1123.23 130.38 1122.84 130.512 1122.53 130.776C1122.22 131.04 1122.04 131.388 1121.99 131.82H1125.26C1125.24 131.372 1125.09 131.02 1124.81 130.764C1124.54 130.508 1124.17 130.38 1123.7 130.38ZM1128.52 137.4H1127.56V129.6H1128.52V130.236C1128.72 130.012 1128.98 129.832 1129.32 129.696C1129.65 129.552 1130 129.48 1130.36 129.48C1131.13 129.48 1131.73 129.736 1132.17 130.248C1132.63 130.752 1132.86 131.408 1132.86 132.216C1132.86 133.04 1132.6 133.732 1132.08 134.292C1131.56 134.844 1130.89 135.12 1130.05 135.12C1129.4 135.12 1128.89 134.996 1128.52 134.748V137.4ZM1130.08 130.38C1129.44 130.38 1128.92 130.628 1128.52 131.124V133.8C1128.95 134.08 1129.43 134.22 1129.96 134.22C1130.53 134.22 1130.98 134.04 1131.32 133.68C1131.66 133.312 1131.84 132.836 1131.84 132.252C1131.84 131.684 1131.68 131.232 1131.37 130.896C1131.06 130.552 1130.63 130.38 1130.08 130.38ZM1138.49 133.656L1138.79 134.412C1138.27 134.884 1137.6 135.12 1136.76 135.12C1135.88 135.12 1135.18 134.864 1134.66 134.352C1134.14 133.84 1133.87 133.156 1133.87 132.3C1133.87 131.492 1134.12 130.82 1134.62 130.284C1135.1 129.748 1135.78 129.48 1136.66 129.48C1137.38 129.48 1137.97 129.712 1138.44 130.176C1138.92 130.632 1139.16 131.224 1139.16 131.952C1139.16 132.184 1139.14 132.4 1139.1 132.6H1134.95C1134.99 133.104 1135.18 133.5 1135.52 133.788C1135.86 134.076 1136.3 134.22 1136.84 134.22C1137.54 134.22 1138.09 134.032 1138.49 133.656ZM1136.61 130.38C1136.14 130.38 1135.74 130.512 1135.43 130.776C1135.13 131.04 1134.95 131.388 1134.89 131.82H1138.17C1138.14 131.372 1137.99 131.02 1137.71 130.764C1137.44 130.508 1137.07 130.38 1136.61 130.38ZM1141.43 135H1140.47V129.6H1141.34L1143.42 132.276L1145.39 129.6H1146.24V135H1145.28V131.064L1143.41 133.572H1143.37L1141.43 131.064V135ZM1152.24 133.656L1152.54 134.412C1152.02 134.884 1151.34 135.12 1150.51 135.12C1149.63 135.12 1148.93 134.864 1148.41 134.352C1147.88 133.84 1147.62 133.156 1147.62 132.3C1147.62 131.492 1147.87 130.82 1148.36 130.284C1148.85 129.748 1149.53 129.48 1150.4 129.48C1151.12 129.48 1151.72 129.712 1152.19 130.176C1152.67 130.632 1152.91 131.224 1152.91 131.952C1152.91 132.184 1152.89 132.4 1152.85 132.6H1148.7C1148.74 133.104 1148.93 133.5 1149.26 133.788C1149.61 134.076 1150.05 134.22 1150.58 134.22C1151.29 134.22 1151.84 134.032 1152.24 133.656ZM1150.35 130.38C1149.88 130.38 1149.49 130.512 1149.18 130.776C1148.87 131.04 1148.69 131.388 1148.64 131.82H1151.91C1151.89 131.372 1151.74 131.02 1151.46 130.764C1151.19 130.508 1150.82 130.38 1150.35 130.38ZM1159.13 135H1158.17V132.72H1155.17V135H1154.21V129.6H1155.17V131.82H1158.17V129.6H1159.13V135ZM1165.79 135H1164.83V132.72H1161.83V135H1160.87V129.6H1161.83V131.82H1164.83V129.6H1165.79V135ZM1167.96 134.328C1167.43 133.784 1167.16 133.108 1167.16 132.3C1167.16 131.484 1167.43 130.812 1167.96 130.284C1168.49 129.748 1169.19 129.48 1170.04 129.48C1170.9 129.48 1171.59 129.748 1172.12 130.284C1172.66 130.812 1172.92 131.484 1172.92 132.3C1172.92 133.116 1172.66 133.792 1172.12 134.328C1171.59 134.856 1170.9 135.12 1170.04 135.12C1169.2 135.12 1168.5 134.856 1167.96 134.328ZM1168.71 130.92C1168.36 131.272 1168.18 131.732 1168.18 132.3C1168.18 132.868 1168.36 133.328 1168.7 133.68C1169.05 134.04 1169.5 134.22 1170.04 134.22C1170.59 134.22 1171.03 134.044 1171.38 133.692C1171.73 133.332 1171.9 132.868 1171.9 132.3C1171.9 131.748 1171.73 131.288 1171.38 130.92C1171.03 130.56 1170.59 130.38 1170.04 130.38C1169.5 130.38 1169.06 130.56 1168.71 130.92ZM1178.57 133.656L1178.87 134.412C1178.35 134.884 1177.67 135.12 1176.84 135.12C1175.96 135.12 1175.26 134.864 1174.74 134.352C1174.21 133.84 1173.95 133.156 1173.95 132.3C1173.95 131.492 1174.2 130.82 1174.69 130.284C1175.18 129.748 1175.86 129.48 1176.73 129.48C1177.45 129.48 1178.05 129.712 1178.52 130.176C1179 130.632 1179.24 131.224 1179.24 131.952C1179.24 132.184 1179.22 132.4 1179.18 132.6H1175.03C1175.07 133.104 1175.26 133.5 1175.59 133.788C1175.94 134.076 1176.38 134.22 1176.91 134.22C1177.62 134.22 1178.17 134.032 1178.57 133.656ZM1176.69 130.38C1176.21 130.38 1175.82 130.512 1175.51 130.776C1175.21 131.04 1175.03 131.388 1174.97 131.82H1178.25C1178.22 131.372 1178.07 131.02 1177.79 130.764C1177.52 130.508 1177.15 130.38 1176.69 130.38ZM1188.16 135H1187.2V132.72H1184.2V135H1183.24V129.6H1184.2V131.82H1187.2V129.6H1188.16V135ZM1190.18 130.74L1189.93 129.972C1190.47 129.644 1191.07 129.48 1191.73 129.48C1192.46 129.48 1192.99 129.66 1193.32 130.02C1193.64 130.38 1193.81 130.936 1193.81 131.688V135H1192.9V134.304C1192.47 134.824 1191.9 135.084 1191.17 135.084C1190.67 135.084 1190.27 134.936 1189.97 134.64C1189.66 134.336 1189.51 133.928 1189.51 133.416C1189.51 132.888 1189.7 132.472 1190.08 132.168C1190.45 131.856 1190.94 131.7 1191.55 131.7C1192.12 131.7 1192.57 131.816 1192.9 132.048C1192.9 131.44 1192.81 131.004 1192.64 130.74C1192.48 130.476 1192.15 130.344 1191.67 130.344C1191.18 130.344 1190.69 130.476 1190.18 130.74ZM1191.5 134.22C1192.04 134.22 1192.5 133.988 1192.9 133.524V132.84C1192.56 132.6 1192.16 132.48 1191.68 132.48C1191.36 132.48 1191.08 132.56 1190.86 132.72C1190.64 132.872 1190.53 133.088 1190.53 133.368C1190.53 133.632 1190.62 133.84 1190.78 133.992C1190.96 134.144 1191.2 134.22 1191.5 134.22ZM1200.27 135H1199.31V130.5H1196.37V135H1195.41V129.6H1200.27V135ZM1202.97 137.4H1202.01V129.6H1202.97V130.236C1203.16 130.012 1203.43 129.832 1203.76 129.696C1204.1 129.552 1204.45 129.48 1204.81 129.48C1205.58 129.48 1206.18 129.736 1206.62 130.248C1207.08 130.752 1207.3 131.408 1207.3 132.216C1207.3 133.04 1207.04 133.732 1206.52 134.292C1206.01 134.844 1205.34 135.12 1204.5 135.12C1203.85 135.12 1203.34 134.996 1202.97 134.748V137.4ZM1204.53 130.38C1203.89 130.38 1203.37 130.628 1202.97 131.124V133.8C1203.4 134.08 1203.88 134.22 1204.41 134.22C1204.98 134.22 1205.43 134.04 1205.77 133.68C1206.11 133.312 1206.28 132.836 1206.28 132.252C1206.28 131.684 1206.13 131.232 1205.82 130.896C1205.5 130.552 1205.08 130.38 1204.53 130.38ZM1210.79 129.6H1212.47V135H1211.51V133.2H1210.46L1209.14 135H1207.98L1209.54 132.96C1209.21 132.888 1208.93 132.712 1208.71 132.432C1208.49 132.144 1208.37 131.8 1208.37 131.4C1208.37 130.848 1208.57 130.412 1208.97 130.092C1209.37 129.764 1209.98 129.6 1210.79 129.6ZM1209.39 131.424C1209.39 131.68 1209.49 131.892 1209.69 132.06C1209.89 132.22 1210.13 132.3 1210.4 132.3H1211.51V130.5H1210.63C1210.22 130.5 1209.91 130.584 1209.71 130.752C1209.5 130.92 1209.39 131.144 1209.39 131.424ZM1219.98 129.6H1221.17L1219.22 132.204L1221.32 135H1220.13L1218.12 132.204L1219.98 129.6ZM1217.88 135H1216.92V129.6H1217.88V135ZM1213.53 135L1215.59 132.204L1213.64 129.6H1214.84L1216.68 132.204L1214.7 135H1213.53ZM1226.32 133.656L1226.62 134.412C1226.1 134.884 1225.43 135.12 1224.6 135.12C1223.72 135.12 1223.02 134.864 1222.5 134.352C1221.97 133.84 1221.7 133.156 1221.7 132.3C1221.7 131.492 1221.95 130.82 1222.45 130.284C1222.94 129.748 1223.62 129.48 1224.49 129.48C1225.21 129.48 1225.8 129.712 1226.28 130.176C1226.76 130.632 1227 131.224 1227 131.952C1227 132.184 1226.98 132.4 1226.94 132.6H1222.78C1222.82 133.104 1223.01 133.5 1223.35 133.788C1223.69 134.076 1224.13 134.22 1224.67 134.22C1225.37 134.22 1225.92 134.032 1226.32 133.656ZM1224.44 130.38C1223.97 130.38 1223.58 130.512 1223.26 130.776C1222.96 131.04 1222.78 131.388 1222.72 131.82H1226C1225.98 131.372 1225.82 131.02 1225.54 130.764C1225.27 130.508 1224.9 130.38 1224.44 130.38ZM1233.22 135H1232.26V132.72H1229.26V135H1228.3V129.6H1229.26V131.82H1232.26V129.6H1233.22V135ZM1239.03 130.98L1235.91 135H1234.95V129.6H1235.91V133.62L1239.03 129.6H1239.99V135H1239.03V130.98ZM1246 133.656L1246.3 134.412C1245.78 134.884 1245.1 135.12 1244.27 135.12C1243.39 135.12 1242.69 134.864 1242.17 134.352C1241.64 133.84 1241.38 133.156 1241.38 132.3C1241.38 131.492 1241.63 130.82 1242.12 130.284C1242.61 129.748 1243.29 129.48 1244.16 129.48C1244.88 129.48 1245.48 129.712 1245.95 130.176C1246.43 130.632 1246.67 131.224 1246.67 131.952C1246.67 132.184 1246.65 132.4 1246.61 132.6H1242.46C1242.5 133.104 1242.69 133.5 1243.02 133.788C1243.37 134.076 1243.81 134.22 1244.34 134.22C1245.05 134.22 1245.6 134.032 1246 133.656ZM1244.12 130.38C1243.64 130.38 1243.25 130.512 1242.94 130.776C1242.64 131.04 1242.46 131.388 1242.4 131.82H1245.68C1245.65 131.372 1245.5 131.02 1245.22 130.764C1244.95 130.508 1244.58 130.38 1244.12 130.38ZM1247.76 134.448C1247.76 134.256 1247.82 134.104 1247.94 133.992C1248.06 133.872 1248.23 133.812 1248.44 133.812C1248.7 133.812 1248.91 133.92 1249.07 134.136C1249.23 134.344 1249.31 134.624 1249.31 134.976C1249.31 135.408 1249.19 135.78 1248.95 136.092C1248.71 136.412 1248.39 136.632 1247.99 136.752L1247.72 136.296C1248.14 136.168 1248.39 135.9 1248.49 135.492C1248.55 135.22 1248.54 135.02 1248.48 134.892C1248.43 134.964 1248.34 135 1248.21 135C1248.09 135 1247.99 134.948 1247.89 134.844C1247.8 134.732 1247.76 134.6 1247.76 134.448ZM1041.96 145.6H1042.92V151H1041.96V148.9C1041.54 149.164 1041.04 149.296 1040.46 149.296C1039.18 149.296 1038.54 148.608 1038.54 147.232V145.6H1039.56V147.124C1039.56 147.972 1039.95 148.396 1040.72 148.396C1041.23 148.396 1041.64 148.284 1041.96 148.06V145.6ZM1045.95 146.56H1043.97V145.6H1048.89V146.56H1046.91V151H1045.95V146.56ZM1050.19 150.328C1049.67 149.784 1049.4 149.108 1049.4 148.3C1049.4 147.484 1049.67 146.812 1050.19 146.284C1050.73 145.748 1051.43 145.48 1052.28 145.48C1053.14 145.48 1053.83 145.748 1054.36 146.284C1054.89 146.812 1055.16 147.484 1055.16 148.3C1055.16 149.116 1054.89 149.792 1054.36 150.328C1053.83 150.856 1053.14 151.12 1052.28 151.12C1051.43 151.12 1050.74 150.856 1050.19 150.328ZM1050.95 146.92C1050.6 147.272 1050.42 147.732 1050.42 148.3C1050.42 148.868 1050.59 149.328 1050.94 149.68C1051.29 150.04 1051.74 150.22 1052.28 150.22C1052.83 150.22 1053.27 150.044 1053.61 149.692C1053.97 149.332 1054.14 148.868 1054.14 148.3C1054.14 147.748 1053.97 147.288 1053.61 146.92C1053.27 146.56 1052.83 146.38 1052.28 146.38C1051.74 146.38 1051.29 146.56 1050.95 146.92ZM1060.72 142.48L1061.24 143.236C1061.05 143.5 1060.82 143.68 1060.54 143.776C1060.25 143.88 1059.91 143.96 1059.54 144.016C1059.17 144.072 1058.82 144.172 1058.49 144.316C1057.68 144.692 1057.22 145.56 1057.12 146.92H1057.15C1057.32 146.544 1057.61 146.24 1058 146.008C1058.4 145.776 1058.83 145.66 1059.28 145.66C1060.05 145.66 1060.66 145.904 1061.11 146.392C1061.56 146.88 1061.79 147.532 1061.79 148.348C1061.79 149.116 1061.53 149.772 1061.01 150.316C1060.5 150.852 1059.84 151.12 1059.02 151.12C1058.14 151.12 1057.44 150.82 1056.93 150.22C1056.42 149.628 1056.16 148.808 1056.16 147.76C1056.16 145.424 1056.83 143.972 1058.17 143.404C1058.47 143.268 1058.82 143.168 1059.22 143.104C1059.54 143.048 1059.76 143.004 1059.9 142.972C1060.03 142.94 1060.18 142.884 1060.33 142.804C1060.49 142.724 1060.62 142.616 1060.72 142.48ZM1057.18 147.94C1057.18 148.628 1057.35 149.18 1057.69 149.596C1058.02 150.012 1058.46 150.22 1059 150.22C1059.52 150.22 1059.94 150.044 1060.27 149.692C1060.6 149.348 1060.77 148.916 1060.77 148.396C1060.77 147.844 1060.62 147.4 1060.3 147.064C1060 146.728 1059.58 146.56 1059.04 146.56C1058.56 146.56 1058.15 146.696 1057.82 146.968C1057.48 147.248 1057.26 147.572 1057.18 147.94ZM1064.91 151H1063.17V145.6H1064.13V147.22H1065.02C1065.75 147.22 1066.29 147.388 1066.64 147.724C1066.98 148.052 1067.15 148.504 1067.15 149.08C1067.15 149.624 1066.97 150.08 1066.61 150.448C1066.27 150.816 1065.7 151 1064.91 151ZM1069.14 151H1068.18V145.6H1069.14V151ZM1064.84 148.12H1064.13V150.1H1064.82C1065.28 150.1 1065.61 150.02 1065.82 149.86C1066.03 149.7 1066.13 149.452 1066.13 149.116C1066.13 148.452 1065.7 148.12 1064.84 148.12ZM1074 150.328C1073.47 149.784 1073.2 149.108 1073.2 148.3C1073.2 147.484 1073.47 146.812 1074 146.284C1074.53 145.748 1075.23 145.48 1076.08 145.48C1076.94 145.48 1077.63 145.748 1078.16 146.284C1078.7 146.812 1078.96 147.484 1078.96 148.3C1078.96 149.116 1078.7 149.792 1078.16 150.328C1077.63 150.856 1076.94 151.12 1076.08 151.12C1075.24 151.12 1074.54 150.856 1074 150.328ZM1074.75 146.92C1074.4 147.272 1074.22 147.732 1074.22 148.3C1074.22 148.868 1074.4 149.328 1074.74 149.68C1075.09 150.04 1075.54 150.22 1076.08 150.22C1076.63 150.22 1077.07 150.044 1077.42 149.692C1077.77 149.332 1077.94 148.868 1077.94 148.3C1077.94 147.748 1077.77 147.288 1077.42 146.92C1077.07 146.56 1076.63 146.38 1076.08 146.38C1075.54 146.38 1075.1 146.56 1074.75 146.92ZM1085.27 151H1084.31V148.72H1081.31V151H1080.35V145.6H1081.31V147.82H1084.31V145.6H1085.27V151ZM1087.44 150.328C1086.91 149.784 1086.64 149.108 1086.64 148.3C1086.64 147.484 1086.91 146.812 1087.44 146.284C1087.97 145.748 1088.67 145.48 1089.52 145.48C1090.38 145.48 1091.07 145.748 1091.6 146.284C1092.14 146.812 1092.4 147.484 1092.4 148.3C1092.4 149.116 1092.14 149.792 1091.6 150.328C1091.07 150.856 1090.38 151.12 1089.52 151.12C1088.68 151.12 1087.98 150.856 1087.44 150.328ZM1088.19 146.92C1087.84 147.272 1087.66 147.732 1087.66 148.3C1087.66 148.868 1087.84 149.328 1088.18 149.68C1088.53 150.04 1088.98 150.22 1089.52 150.22C1090.07 150.22 1090.51 150.044 1090.86 149.692C1091.21 149.332 1091.38 148.868 1091.38 148.3C1091.38 147.748 1091.21 147.288 1090.86 146.92C1090.51 146.56 1090.07 146.38 1089.52 146.38C1088.98 146.38 1088.54 146.56 1088.19 146.92ZM1101.35 151H1100.39V146.5H1097.45V151H1096.49V145.6H1101.35V151ZM1103.51 150.328C1102.99 149.784 1102.72 149.108 1102.72 148.3C1102.72 147.484 1102.99 146.812 1103.51 146.284C1104.05 145.748 1104.75 145.48 1105.6 145.48C1106.46 145.48 1107.15 145.748 1107.68 146.284C1108.21 146.812 1108.48 147.484 1108.48 148.3C1108.48 149.116 1108.21 149.792 1107.68 150.328C1107.15 150.856 1106.46 151.12 1105.6 151.12C1104.75 151.12 1104.06 150.856 1103.51 150.328ZM1104.27 146.92C1103.92 147.272 1103.74 147.732 1103.74 148.3C1103.74 148.868 1103.91 149.328 1104.26 149.68C1104.61 150.04 1105.06 150.22 1105.6 150.22C1106.15 150.22 1106.59 150.044 1106.93 149.692C1107.29 149.332 1107.46 148.868 1107.46 148.3C1107.46 147.748 1107.29 147.288 1106.93 146.92C1106.59 146.56 1106.15 146.38 1105.6 146.38C1105.06 146.38 1104.61 146.56 1104.27 146.92ZM1114.02 149.524L1114.48 150.22C1114.01 150.82 1113.32 151.12 1112.4 151.12C1111.54 151.12 1110.84 150.864 1110.3 150.352C1109.77 149.84 1109.51 149.156 1109.51 148.3C1109.51 147.508 1109.77 146.84 1110.29 146.296C1110.81 145.752 1111.46 145.48 1112.24 145.48C1113.19 145.48 1113.9 145.716 1114.37 146.188L1113.92 146.944C1113.51 146.568 1112.99 146.38 1112.38 146.38C1111.87 146.38 1111.44 146.564 1111.07 146.932C1110.71 147.292 1110.53 147.748 1110.53 148.3C1110.53 148.884 1110.71 149.348 1111.08 149.692C1111.46 150.044 1111.92 150.22 1112.47 150.22C1113.1 150.22 1113.61 149.988 1114.02 149.524ZM1116.95 146.56H1114.97V145.6H1119.89V146.56H1117.91V151H1116.95V146.56ZM1124.9 145.6H1125.99L1123.83 151C1123.44 151.952 1123.1 152.584 1122.81 152.896C1122.51 153.232 1122.16 153.4 1121.77 153.4C1121.41 153.4 1121.07 153.288 1120.75 153.064L1121.06 152.332C1121.31 152.452 1121.51 152.512 1121.66 152.512C1121.88 152.512 1122.08 152.416 1122.26 152.224C1122.44 152.032 1122.63 151.72 1122.81 151.288L1122.93 151L1120.34 145.6H1121.49L1123.07 149.032C1123.11 149.088 1123.21 149.36 1123.4 149.848C1123.47 149.584 1123.55 149.308 1123.65 149.02L1124.9 145.6ZM1131.84 151H1130.88V146.5H1127.94V151H1126.98V145.6H1131.84V151ZM1133.86 146.74L1133.61 145.972C1134.15 145.644 1134.75 145.48 1135.41 145.48C1136.14 145.48 1136.67 145.66 1136.99 146.02C1137.32 146.38 1137.49 146.936 1137.49 147.688V151H1136.57V150.304C1136.15 150.824 1135.57 151.084 1134.85 151.084C1134.35 151.084 1133.95 150.936 1133.65 150.64C1133.34 150.336 1133.19 149.928 1133.19 149.416C1133.19 148.888 1133.38 148.472 1133.75 148.168C1134.13 147.856 1134.62 147.7 1135.23 147.7C1135.8 147.7 1136.25 147.816 1136.57 148.048C1136.57 147.44 1136.49 147.004 1136.32 146.74C1136.15 146.476 1135.83 146.344 1135.35 146.344C1134.86 146.344 1134.37 146.476 1133.86 146.74ZM1135.18 150.22C1135.72 150.22 1136.18 149.988 1136.57 149.524V148.84C1136.24 148.6 1135.83 148.48 1135.36 148.48C1135.03 148.48 1134.76 148.56 1134.53 148.72C1134.32 148.872 1134.21 149.088 1134.21 149.368C1134.21 149.632 1134.29 149.84 1134.46 149.992C1134.64 150.144 1134.88 150.22 1135.18 150.22ZM1143.75 151H1142.79V146.56H1140.89L1140.83 147.472C1140.77 148.216 1140.67 148.836 1140.55 149.332C1140.43 149.82 1140.27 150.188 1140.07 150.436C1139.87 150.676 1139.67 150.844 1139.45 150.94C1139.24 151.028 1138.97 151.072 1138.66 151.072L1138.59 150.136C1138.68 150.144 1138.77 150.132 1138.87 150.1C1138.96 150.06 1139.07 149.98 1139.18 149.86C1139.3 149.74 1139.4 149.58 1139.49 149.38C1139.59 149.18 1139.67 148.9 1139.74 148.54C1139.82 148.172 1139.87 147.752 1139.9 147.28L1139.99 145.6H1143.75V151ZM1145.91 150.328C1145.39 149.784 1145.12 149.108 1145.12 148.3C1145.12 147.484 1145.39 146.812 1145.91 146.284C1146.45 145.748 1147.15 145.48 1148 145.48C1148.86 145.48 1149.55 145.748 1150.08 146.284C1150.61 146.812 1150.88 147.484 1150.88 148.3C1150.88 149.116 1150.61 149.792 1150.08 150.328C1149.55 150.856 1148.86 151.12 1148 151.12C1147.15 151.12 1146.46 150.856 1145.91 150.328ZM1146.67 146.92C1146.32 147.272 1146.14 147.732 1146.14 148.3C1146.14 148.868 1146.31 149.328 1146.66 149.68C1147.01 150.04 1147.46 150.22 1148 150.22C1148.55 150.22 1148.99 150.044 1149.33 149.692C1149.69 149.332 1149.86 148.868 1149.86 148.3C1149.86 147.748 1149.69 147.288 1149.33 146.92C1148.99 146.56 1148.55 146.38 1148 146.38C1147.46 146.38 1147.01 146.56 1146.67 146.92ZM1154.96 151V145.6C1155 145.6 1155.06 145.6 1155.13 145.6C1155.2 145.592 1155.31 145.588 1155.44 145.588C1155.58 145.58 1155.7 145.576 1155.81 145.576C1156.41 145.56 1156.77 145.552 1156.92 145.552C1158.47 145.552 1159.25 146.016 1159.25 146.944C1159.25 147.264 1159.15 147.54 1158.95 147.772C1158.75 147.996 1158.49 148.132 1158.17 148.18V148.204C1159.01 148.356 1159.43 148.78 1159.43 149.476C1159.43 150.524 1158.6 151.048 1156.94 151.048C1156.86 151.048 1156.51 151.04 1155.89 151.024C1155.77 151.024 1155.63 151.02 1155.49 151.012C1155.35 151.012 1155.23 151.008 1155.15 151C1155.07 151 1155.01 151 1154.96 151ZM1157.07 148.576H1155.92V150.232C1156.5 150.256 1156.87 150.268 1157.03 150.268C1157.95 150.268 1158.41 149.98 1158.41 149.404C1158.41 148.852 1157.96 148.576 1157.07 148.576ZM1156.99 146.332C1156.76 146.332 1156.4 146.344 1155.92 146.368V147.976H1157.13C1157.46 147.976 1157.73 147.9 1157.93 147.748C1158.13 147.596 1158.23 147.392 1158.23 147.136C1158.23 146.6 1157.81 146.332 1156.99 146.332ZM1167.09 148.648H1164.43V147.868H1167.08C1167.01 147.388 1166.8 147.02 1166.47 146.764C1166.14 146.508 1165.72 146.38 1165.21 146.38C1164.54 146.38 1163.99 146.576 1163.55 146.968L1163.14 146.248C1163.37 146.016 1163.68 145.832 1164.07 145.696C1164.45 145.552 1164.83 145.48 1165.19 145.48C1166.06 145.48 1166.75 145.736 1167.27 146.248C1167.81 146.76 1168.07 147.444 1168.07 148.3C1168.07 149.092 1167.81 149.76 1167.29 150.304C1166.77 150.848 1166.12 151.12 1165.34 151.12C1164.36 151.12 1163.64 150.892 1163.17 150.436L1163.62 149.728C1163.99 150.056 1164.54 150.22 1165.28 150.22C1165.78 150.22 1166.19 150.084 1166.51 149.812C1166.83 149.532 1167.03 149.144 1167.09 148.648ZM1173.9 151H1172.94V146.56H1171.05L1170.99 147.472C1170.92 148.216 1170.83 148.836 1170.7 149.332C1170.58 149.82 1170.42 150.188 1170.22 150.436C1170.03 150.676 1169.82 150.844 1169.61 150.94C1169.39 151.028 1169.13 151.072 1168.81 151.072L1168.74 150.136C1168.83 150.144 1168.92 150.132 1169.02 150.1C1169.11 150.06 1169.22 149.98 1169.33 149.86C1169.45 149.74 1169.55 149.58 1169.64 149.38C1169.74 149.18 1169.82 148.9 1169.89 148.54C1169.97 148.172 1170.03 147.752 1170.05 147.28L1170.15 145.6H1173.9V151ZM1179.89 149.656L1180.19 150.412C1179.67 150.884 1179 151.12 1178.17 151.12C1177.29 151.12 1176.59 150.864 1176.07 150.352C1175.54 149.84 1175.27 149.156 1175.27 148.3C1175.27 147.492 1175.52 146.82 1176.02 146.284C1176.51 145.748 1177.19 145.48 1178.06 145.48C1178.78 145.48 1179.37 145.712 1179.85 146.176C1180.33 146.632 1180.57 147.224 1180.57 147.952C1180.57 148.184 1180.55 148.4 1180.51 148.6H1176.35C1176.39 149.104 1176.58 149.5 1176.92 149.788C1177.26 150.076 1177.7 150.22 1178.24 150.22C1178.94 150.22 1179.49 150.032 1179.89 149.656ZM1178.01 146.38C1177.54 146.38 1177.15 146.512 1176.83 146.776C1176.53 147.04 1176.35 147.388 1176.29 147.82H1179.57C1179.55 147.372 1179.39 147.02 1179.11 146.764C1178.84 146.508 1178.47 146.38 1178.01 146.38ZM1185.34 145.6H1186.6L1184.23 148.18L1186.82 151H1185.49L1183.06 148.24L1185.34 145.6ZM1182.83 151H1181.87V145.6H1182.83V151ZM1189.14 146.56H1187.16V145.6H1192.08V146.56H1190.1V151H1189.14V146.56ZM1194.09 153.4H1193.13V145.6H1194.09V146.236C1194.28 146.012 1194.55 145.832 1194.88 145.696C1195.22 145.552 1195.57 145.48 1195.93 145.48C1196.69 145.48 1197.3 145.736 1197.74 146.248C1198.19 146.752 1198.42 147.408 1198.42 148.216C1198.42 149.04 1198.16 149.732 1197.64 150.292C1197.13 150.844 1196.45 151.12 1195.61 151.12C1194.97 151.12 1194.46 150.996 1194.09 150.748V153.4ZM1195.65 146.38C1195.01 146.38 1194.49 146.628 1194.09 147.124V149.8C1194.51 150.08 1194.99 150.22 1195.53 150.22C1196.1 150.22 1196.55 150.04 1196.89 149.68C1197.23 149.312 1197.4 148.836 1197.4 148.252C1197.4 147.684 1197.25 147.232 1196.93 146.896C1196.62 146.552 1196.19 146.38 1195.65 146.38ZM1203.88 146.98L1200.76 151H1199.8V145.6H1200.76V149.62L1203.88 145.6H1204.84V151H1203.88V146.98ZM1209.68 145.6H1210.64V151H1209.68V148.9C1209.26 149.164 1208.76 149.296 1208.18 149.296C1206.9 149.296 1206.26 148.608 1206.26 147.232V145.6H1207.28V147.124C1207.28 147.972 1207.67 148.396 1208.44 148.396C1208.95 148.396 1209.36 148.284 1209.68 148.06V145.6ZM1216.63 149.656L1216.93 150.412C1216.41 150.884 1215.74 151.12 1214.9 151.12C1214.02 151.12 1213.32 150.864 1212.8 150.352C1212.28 149.84 1212.01 149.156 1212.01 148.3C1212.01 147.492 1212.26 146.82 1212.76 146.284C1213.24 145.748 1213.92 145.48 1214.8 145.48C1215.52 145.48 1216.11 145.712 1216.58 146.176C1217.06 146.632 1217.3 147.224 1217.3 147.952C1217.3 148.184 1217.28 148.4 1217.24 148.6H1213.09C1213.13 149.104 1213.32 149.5 1213.66 149.788C1214 150.076 1214.44 150.22 1214.98 150.22C1215.68 150.22 1216.23 150.032 1216.63 149.656ZM1214.75 146.38C1214.28 146.38 1213.88 146.512 1213.57 146.776C1213.27 147.04 1213.09 147.388 1213.03 147.82H1216.31C1216.28 147.372 1216.13 147.02 1215.85 146.764C1215.58 146.508 1215.21 146.38 1214.75 146.38ZM1222.69 149.524L1223.14 150.22C1222.68 150.82 1221.99 151.12 1221.07 151.12C1220.2 151.12 1219.5 150.864 1218.97 150.352C1218.44 149.84 1218.18 149.156 1218.18 148.3C1218.18 147.508 1218.44 146.84 1218.96 146.296C1219.48 145.752 1220.13 145.48 1220.91 145.48C1221.86 145.48 1222.56 145.716 1223.04 146.188L1222.59 146.944C1222.18 146.568 1221.66 146.38 1221.04 146.38C1220.54 146.38 1220.1 146.564 1219.74 146.932C1219.38 147.292 1219.2 147.748 1219.2 148.3C1219.2 148.884 1219.38 149.348 1219.75 149.692C1220.12 150.044 1220.59 150.22 1221.14 150.22C1221.76 150.22 1222.28 149.988 1222.69 149.524ZM1227.86 145.6H1229.12L1226.76 148.18L1229.35 151H1228.02L1225.58 148.24L1227.86 145.6ZM1225.36 151H1224.4V145.6H1225.36V151ZM1234.08 145.6H1235.17L1233.01 151C1232.62 151.952 1232.28 152.584 1231.99 152.896C1231.69 153.232 1231.34 153.4 1230.95 153.4C1230.6 153.4 1230.26 153.288 1229.93 153.064L1230.24 152.332C1230.5 152.452 1230.7 152.512 1230.84 152.512C1231.07 152.512 1231.27 152.416 1231.44 152.224C1231.63 152.032 1231.81 151.72 1231.99 151.288L1232.11 151L1229.52 145.6H1230.67L1232.26 149.032C1232.29 149.088 1232.4 149.36 1232.58 149.848C1232.65 149.584 1232.74 149.308 1232.83 149.02L1234.08 145.6ZM1237.18 151H1236.16V145.6H1237.18V147.76H1238.36C1238.47 147.072 1238.77 146.52 1239.26 146.104C1239.75 145.688 1240.36 145.48 1241.08 145.48C1241.93 145.48 1242.61 145.748 1243.12 146.284C1243.64 146.82 1243.9 147.492 1243.9 148.3C1243.9 149.108 1243.64 149.784 1243.11 150.328C1242.59 150.856 1241.91 151.12 1241.08 151.12C1240.32 151.12 1239.7 150.9 1239.21 150.46C1238.72 150.02 1238.43 149.44 1238.34 148.72H1237.18V151ZM1239.88 146.956C1239.56 147.3 1239.4 147.748 1239.4 148.3C1239.4 148.852 1239.56 149.3 1239.88 149.644C1240.2 149.988 1240.61 150.16 1241.12 150.16C1241.62 150.16 1242.03 149.992 1242.34 149.656C1242.66 149.312 1242.82 148.86 1242.82 148.3C1242.82 147.748 1242.66 147.3 1242.35 146.956C1242.04 146.612 1241.63 146.44 1241.12 146.44C1240.61 146.44 1240.2 146.612 1239.88 146.956ZM1043.02 165.524L1043.47 166.22C1043.01 166.82 1042.32 167.12 1041.4 167.12C1040.53 167.12 1039.83 166.864 1039.3 166.352C1038.77 165.84 1038.5 165.156 1038.5 164.3C1038.5 163.508 1038.76 162.84 1039.28 162.296C1039.8 161.752 1040.46 161.48 1041.24 161.48C1042.18 161.48 1042.89 161.716 1043.36 162.188L1042.92 162.944C1042.5 162.568 1041.99 162.38 1041.37 162.38C1040.87 162.38 1040.43 162.564 1040.06 162.932C1039.7 163.292 1039.52 163.748 1039.52 164.3C1039.52 164.884 1039.71 165.348 1040.08 165.692C1040.45 166.044 1040.92 166.22 1041.47 166.22C1042.09 166.22 1042.61 165.988 1043.02 165.524ZM1048.69 165.656L1048.99 166.412C1048.47 166.884 1047.79 167.12 1046.96 167.12C1046.08 167.12 1045.38 166.864 1044.86 166.352C1044.33 165.84 1044.07 165.156 1044.07 164.3C1044.07 163.492 1044.32 162.82 1044.81 162.284C1045.3 161.748 1045.98 161.48 1046.85 161.48C1047.57 161.48 1048.17 161.712 1048.64 162.176C1049.12 162.632 1049.36 163.224 1049.36 163.952C1049.36 164.184 1049.34 164.4 1049.3 164.6H1045.15C1045.19 165.104 1045.38 165.5 1045.71 165.788C1046.06 166.076 1046.5 166.22 1047.03 166.22C1047.74 166.22 1048.29 166.032 1048.69 165.656ZM1046.81 162.38C1046.33 162.38 1045.94 162.512 1045.63 162.776C1045.33 163.04 1045.15 163.388 1045.09 163.82H1048.37C1048.34 163.372 1048.19 163.02 1047.91 162.764C1047.64 162.508 1047.27 162.38 1046.81 162.38ZM1051.86 162.56H1049.88V161.6H1054.8V162.56H1052.82V167H1051.86V162.56ZM1057.67 167H1055.84V161.6H1056.8V163.22H1057.79C1058.52 163.22 1059.06 163.388 1059.41 163.724C1059.75 164.052 1059.92 164.504 1059.92 165.08C1059.92 165.624 1059.74 166.08 1059.38 166.448C1059.02 166.816 1058.45 167 1057.67 167ZM1057.61 164.12H1056.8V166.1H1057.6C1058.47 166.1 1058.9 165.772 1058.9 165.116C1058.9 164.452 1058.47 164.12 1057.61 164.12ZM1068.06 165.524L1068.51 166.22C1068.05 166.82 1067.36 167.12 1066.44 167.12C1065.57 167.12 1064.87 166.864 1064.34 166.352C1063.81 165.84 1063.55 165.156 1063.55 164.3C1063.55 163.508 1063.81 162.84 1064.33 162.296C1064.85 161.752 1065.5 161.48 1066.28 161.48C1067.23 161.48 1067.93 161.716 1068.41 162.188L1067.96 162.944C1067.55 162.568 1067.03 162.38 1066.41 162.38C1065.91 162.38 1065.47 162.564 1065.11 162.932C1064.75 163.292 1064.57 163.748 1064.57 164.3C1064.57 164.884 1064.75 165.348 1065.12 165.692C1065.49 166.044 1065.96 166.22 1066.51 166.22C1067.13 166.22 1067.65 165.988 1068.06 165.524ZM1077.38 167H1076.42V164.72H1073.42V167H1072.46V161.6H1073.42V163.82H1076.42V161.6H1077.38V167ZM1082.93 161.6H1084.03L1081.87 167C1081.47 167.952 1081.13 168.584 1080.85 168.896C1080.54 169.232 1080.19 169.4 1079.8 169.4C1079.45 169.4 1079.11 169.288 1078.78 169.064L1079.09 168.332C1079.35 168.452 1079.55 168.512 1079.69 168.512C1079.92 168.512 1080.12 168.416 1080.29 168.224C1080.48 168.032 1080.66 167.72 1080.85 167.288L1080.97 167L1078.37 161.6H1079.53L1081.11 165.032C1081.14 165.088 1081.25 165.36 1081.43 165.848C1081.51 165.584 1081.59 165.308 1081.69 165.02L1082.93 161.6ZM1090.68 161.6H1091.87L1089.91 164.204L1092.01 167H1090.82L1088.82 164.204L1090.68 161.6ZM1088.58 167H1087.62V161.6H1088.58V167ZM1084.22 167L1086.29 164.204L1084.33 161.6H1085.53L1087.38 164.204L1085.4 167H1084.22ZM1097.97 167H1097.01V164.72H1094.01V167H1093.05V161.6H1094.01V163.82H1097.01V161.6H1097.97V167ZM1101.45 167H1099.71V161.6H1100.67V163.22H1101.56C1102.29 163.22 1102.83 163.388 1103.18 163.724C1103.52 164.052 1103.69 164.504 1103.69 165.08C1103.69 165.624 1103.51 166.08 1103.15 166.448C1102.81 166.816 1102.24 167 1101.45 167ZM1105.68 167H1104.72V161.6H1105.68V167ZM1101.38 164.12H1100.67V166.1H1101.36C1101.82 166.1 1102.15 166.02 1102.36 165.86C1102.57 165.7 1102.67 165.452 1102.67 165.116C1102.67 164.452 1102.24 164.12 1101.38 164.12ZM1108.37 167H1107.41V161.6H1108.28L1110.36 164.276L1112.33 161.6H1113.18V167H1112.22V163.064L1110.35 165.572H1110.31L1108.37 163.064V167ZM1119 162.98L1115.88 167H1114.92V161.6H1115.88V165.62L1119 161.6H1119.96V167H1119V162.98ZM1128.08 161.6H1129.2L1127.27 164.204L1129.32 167H1128.14L1126.56 164.816L1124.95 167H1123.84L1125.88 164.252L1123.96 161.6H1125.13L1126.6 163.64L1128.08 161.6ZM1130.77 162.74L1130.52 161.972C1131.05 161.644 1131.65 161.48 1132.32 161.48C1133.05 161.48 1133.57 161.66 1133.9 162.02C1134.23 162.38 1134.39 162.936 1134.39 163.688V167H1133.48V166.304C1133.06 166.824 1132.48 167.084 1131.75 167.084C1131.26 167.084 1130.86 166.936 1130.55 166.64C1130.25 166.336 1130.1 165.928 1130.1 165.416C1130.1 164.888 1130.29 164.472 1130.66 164.168C1131.04 163.856 1131.53 163.7 1132.14 163.7C1132.71 163.7 1133.15 163.816 1133.48 164.048C1133.48 163.44 1133.4 163.004 1133.23 162.74C1133.06 162.476 1132.74 162.344 1132.26 162.344C1131.77 162.344 1131.27 162.476 1130.77 162.74ZM1132.09 166.22C1132.63 166.22 1133.09 165.988 1133.48 165.524V164.84C1133.15 164.6 1132.74 164.48 1132.27 164.48C1131.94 164.48 1131.67 164.56 1131.44 164.72C1131.23 164.872 1131.12 165.088 1131.12 165.368C1131.12 165.632 1131.2 165.84 1131.37 165.992C1131.55 166.144 1131.79 166.22 1132.09 166.22ZM1136.96 169.4H1136V161.6H1136.96V162.236C1137.15 162.012 1137.42 161.832 1137.75 161.696C1138.09 161.552 1138.44 161.48 1138.8 161.48C1139.56 161.48 1140.17 161.736 1140.61 162.248C1141.06 162.752 1141.29 163.408 1141.29 164.216C1141.29 165.04 1141.03 165.732 1140.51 166.292C1140 166.844 1139.32 167.12 1138.48 167.12C1137.84 167.12 1137.33 166.996 1136.96 166.748V169.4ZM1138.52 162.38C1137.88 162.38 1137.36 162.628 1136.96 163.124V165.8C1137.38 166.08 1137.86 166.22 1138.4 166.22C1138.97 166.22 1139.42 166.04 1139.76 165.68C1140.1 165.312 1140.27 164.836 1140.27 164.252C1140.27 163.684 1140.12 163.232 1139.8 162.896C1139.49 162.552 1139.06 162.38 1138.52 162.38ZM1142.96 162.74L1142.7 161.972C1143.24 161.644 1143.84 161.48 1144.5 161.48C1145.23 161.48 1145.76 161.66 1146.09 162.02C1146.42 162.38 1146.58 162.936 1146.58 163.688V167H1145.67V166.304C1145.24 166.824 1144.67 167.084 1143.94 167.084C1143.44 167.084 1143.04 166.936 1142.74 166.64C1142.44 166.336 1142.28 165.928 1142.28 165.416C1142.28 164.888 1142.47 164.472 1142.85 164.168C1143.22 163.856 1143.72 163.7 1144.32 163.7C1144.89 163.7 1145.34 163.816 1145.67 164.048C1145.67 163.44 1145.58 163.004 1145.42 162.74C1145.25 162.476 1144.92 162.344 1144.44 162.344C1143.96 162.344 1143.46 162.476 1142.96 162.74ZM1144.28 166.22C1144.81 166.22 1145.28 165.988 1145.67 165.524V164.84C1145.33 164.6 1144.93 164.48 1144.46 164.48C1144.13 164.48 1143.85 164.56 1143.63 164.72C1143.41 164.872 1143.3 165.088 1143.3 165.368C1143.3 165.632 1143.39 165.84 1143.56 165.992C1143.73 166.144 1143.97 166.22 1144.28 166.22ZM1151.66 161.6H1152.92L1150.55 164.18L1153.14 167H1151.81L1149.38 164.24L1151.66 161.6ZM1149.15 167H1148.19V161.6H1149.15V167ZM1155.46 162.56H1153.48V161.6H1158.4V162.56H1156.42V167H1155.46V162.56ZM1163.53 165.656L1163.83 166.412C1163.31 166.884 1162.64 167.12 1161.81 167.12C1160.93 167.12 1160.23 166.864 1159.71 166.352C1159.18 165.84 1158.91 165.156 1158.91 164.3C1158.91 163.492 1159.16 162.82 1159.66 162.284C1160.15 161.748 1160.83 161.48 1161.7 161.48C1162.42 161.48 1163.01 161.712 1163.49 162.176C1163.97 162.632 1164.21 163.224 1164.21 163.952C1164.21 164.184 1164.19 164.4 1164.15 164.6H1159.99C1160.03 165.104 1160.22 165.5 1160.56 165.788C1160.9 166.076 1161.34 166.22 1161.88 166.22C1162.58 166.22 1163.13 166.032 1163.53 165.656ZM1161.65 162.38C1161.18 162.38 1160.79 162.512 1160.47 162.776C1160.17 163.04 1159.99 163.388 1159.93 163.82H1163.21C1163.19 163.372 1163.03 163.02 1162.75 162.764C1162.48 162.508 1162.11 162.38 1161.65 162.38ZM1166.47 169.4H1165.51V161.6H1166.47V162.236C1166.66 162.012 1166.92 161.832 1167.26 161.696C1167.6 161.552 1167.94 161.48 1168.3 161.48C1169.07 161.48 1169.68 161.736 1170.12 162.248C1170.57 162.752 1170.8 163.408 1170.8 164.216C1170.8 165.04 1170.54 165.732 1170.02 166.292C1169.51 166.844 1168.83 167.12 1167.99 167.12C1167.34 167.12 1166.84 166.996 1166.47 166.748V169.4ZM1168.03 162.38C1167.39 162.38 1166.87 162.628 1166.47 163.124V165.8C1166.89 166.08 1167.37 166.22 1167.91 166.22C1168.48 166.22 1168.93 166.04 1169.26 165.68C1169.61 165.312 1169.78 164.836 1169.78 164.252C1169.78 163.684 1169.62 163.232 1169.31 162.896C1169 162.552 1168.57 162.38 1168.03 162.38ZM1176.26 162.98L1173.14 167H1172.18V161.6H1173.14V165.62L1176.26 161.6H1177.22V167H1176.26V162.98ZM1183.11 165.524L1183.57 166.22C1183.11 166.82 1182.41 167.12 1181.49 167.12C1180.63 167.12 1179.93 166.864 1179.39 166.352C1178.87 165.84 1178.6 165.156 1178.6 164.3C1178.6 163.508 1178.86 162.84 1179.38 162.296C1179.9 161.752 1180.55 161.48 1181.34 161.48C1182.28 161.48 1182.99 161.716 1183.46 162.188L1183.02 162.944C1182.6 162.568 1182.09 162.38 1181.47 162.38C1180.97 162.38 1180.53 162.564 1180.16 162.932C1179.8 163.292 1179.62 163.748 1179.62 164.3C1179.62 164.884 1179.81 165.348 1180.17 165.692C1180.55 166.044 1181.01 166.22 1181.57 166.22C1182.19 166.22 1182.71 165.988 1183.11 165.524ZM1186.05 162.56H1184.07V161.6H1188.99V162.56H1187.01V167H1186.05V162.56ZM1194.12 162.98L1191 167H1190.04V161.6H1191V165.62L1194.12 161.6H1195.08V167H1194.12V162.98ZM1200.29 161.6H1201.55L1199.19 164.18L1201.78 167H1200.45L1198.01 164.24L1200.29 161.6ZM1197.78 167H1196.82V161.6H1197.78V167ZM1203.09 162.74L1202.83 161.972C1203.37 161.644 1203.97 161.48 1204.63 161.48C1205.36 161.48 1205.89 161.66 1206.22 162.02C1206.55 162.38 1206.71 162.936 1206.71 163.688V167H1205.8V166.304C1205.37 166.824 1204.8 167.084 1204.07 167.084C1203.57 167.084 1203.17 166.936 1202.87 166.64C1202.57 166.336 1202.41 165.928 1202.41 165.416C1202.41 164.888 1202.6 164.472 1202.98 164.168C1203.35 163.856 1203.85 163.7 1204.45 163.7C1205.02 163.7 1205.47 163.816 1205.8 164.048C1205.8 163.44 1205.71 163.004 1205.55 162.74C1205.38 162.476 1205.05 162.344 1204.57 162.344C1204.09 162.344 1203.59 162.476 1203.09 162.74ZM1204.41 166.22C1204.94 166.22 1205.41 165.988 1205.8 165.524V164.84C1205.46 164.6 1205.06 164.48 1204.59 164.48C1204.26 164.48 1203.98 164.56 1203.76 164.72C1203.54 164.872 1203.43 165.088 1203.43 165.368C1203.43 165.632 1203.52 165.84 1203.69 165.992C1203.86 166.144 1204.1 166.22 1204.41 166.22ZM1209.28 167H1208.32V161.6H1209.19L1211.27 164.276L1213.24 161.6H1214.09V167H1213.13V163.064L1211.26 165.572H1211.22L1209.28 163.064V167ZM1219.91 162.98L1216.79 167H1215.83V161.6H1216.79V165.62L1219.91 161.6H1220.87V167H1219.91V162.98Z" fill="#959595"/>
<path d="M853.246 238.07C853.008 238.21 852.929 238.517 853.07 238.754C853.21 238.992 853.517 239.071 853.754 238.93L853.246 238.07ZM853.754 238.93L963.754 173.93L963.246 173.07L853.246 238.07L853.754 238.93Z" fill="#525252"/>
<path d="M994.471 118.12L997.111 97H1016.07V101.8H1001.31L999.751 113.14C1000.71 112.86 1001.83 112.72 1003.11 112.72C1006.99 112.72 1010.17 113.92 1012.65 116.32C1015.13 118.68 1016.37 121.82 1016.37 125.74C1016.37 129.94 1015.05 133.3 1012.41 135.82C1009.77 138.34 1006.53 139.6 1002.69 139.6C1000.21 139.6 997.871 139.04 995.671 137.92C993.471 136.8 991.791 135.24 990.631 133.24L993.391 129.7C994.351 131.26 995.691 132.5 997.411 133.42C999.171 134.34 1000.97 134.8 1002.81 134.8C1005.21 134.8 1007.21 133.96 1008.81 132.28C1010.45 130.56 1011.27 128.44 1011.27 125.92C1011.27 123.36 1010.33 121.24 1008.45 119.56C1006.61 117.88 1004.15 117.04 1001.07 117.04C998.551 117.04 996.351 117.4 994.471 118.12Z" fill="#999999"/>
</g>
</svg>
