<svg width="1447" height="863" fill="none" xmlns="http://www.w3.org/2000/svg"><mask id="a" style="mask-type:alpha" maskUnits="userSpaceOnUse" x="0" y="0" width="1447" height="863"><path fill="#D9D9D9" d="M0 0h1447v863H0z"/></mask><g mask="url(#a)"><circle cx="542.5" cy="482.5" r="5.5" fill="#525252"/><path fill="#C1C1C1" fill-opacity=".8" d="M657 698h286v113H657z"/><path fill="#fff" d="M650 691h286v113H650z"/><path stroke="#525252" d="M643.5 684.5h285v112h-285z"/><path d="M720.86 755h-1.02v-7.44h-4.56V755h-1.02v-8.4h6.6v8.4zm6.381-1.344l.3.756c-.52.472-1.196.708-2.028.708-.88 0-1.58-.256-2.1-.768-.528-.512-.792-1.196-.792-2.052 0-.808.248-1.48.744-2.016.488-.536 1.168-.804 2.04-.804.72 0 1.316.232 1.788.696.48.456.72 1.048.72 1.776 0 .232-.02.448-.06.648h-4.152c.04.504.228.9.564 1.188.344.288.784.432 1.32.432.704 0 1.256-.188 1.656-.564zm-1.884-3.276c-.472 0-.864.132-1.176.396-.304.264-.484.612-.54 1.044h3.276c-.024-.448-.176-.8-.456-1.056-.272-.256-.64-.384-1.104-.384zm4.819 7.02h-.96v-7.8h.96v.636c.192-.224.456-.404.792-.54a2.624 2.624 0 011.044-.216c.768 0 1.372.256 1.812.768.456.504.684 1.16.684 1.968 0 .824-.26 1.516-.78 2.076-.512.552-1.188.828-2.028.828-.648 0-1.156-.124-1.524-.372v2.652zm1.56-7.02c-.64 0-1.16.248-1.56.744v2.676c.424.28.904.42 1.44.42.568 0 1.02-.18 1.356-.54.344-.368.516-.844.516-1.428 0-.568-.156-1.02-.468-1.356-.312-.344-.74-.516-1.284-.516zm8.408 3.276l.3.756c-.52.472-1.196.708-2.028.708-.88 0-1.58-.256-2.1-.768-.528-.512-.792-1.196-.792-2.052 0-.808.248-1.48.744-2.016.488-.536 1.168-.804 2.04-.804.72 0 1.316.232 1.788.696.48.456.72 1.048.72 1.776 0 .232-.02.448-.06.648h-4.152c.04.504.228.9.564 1.188.344.288.784.432 1.32.432.704 0 1.256-.188 1.656-.564zm-1.884-3.276c-.472 0-.864.132-1.176.396-.304.264-.484.612-.54 1.044h3.276c-.024-.448-.176-.8-.456-1.056-.272-.256-.64-.384-1.104-.384zm3.803 5.94h-.9v-2.22h.672c.2-.248.376-.648.528-1.2a9.75 9.75 0 00.3-1.872l.084-1.428h3.684v4.5h.9v2.22h-.9V755h-4.368v1.32zm1.584-5.82l-.06.9a8.262 8.262 0 01-.288 1.644c-.144.496-.292.848-.444 1.056h2.616v-3.6h-1.824zm5.017.24l-.252-.768a3.38 3.38 0 011.8-.492c.728 0 1.256.18 1.584.54.328.36.492.916.492 1.668V755h-.912v-.696c-.424.52-1 .78-1.728.78-.496 0-.896-.148-1.2-.444-.304-.304-.456-.712-.456-1.224 0-.528.188-.944.564-1.248.376-.312.868-.468 1.476-.468.568 0 1.016.116 1.344.348 0-.608-.084-1.044-.252-1.308-.168-.264-.492-.396-.972-.396-.488 0-.984.132-1.488.396zm1.32 3.48c.536 0 1-.232 1.392-.696v-.684c-.336-.24-.74-.36-1.212-.36-.328 0-.604.08-.828.24a.745.745 0 00-.324.648c0 .264.084.472.252.624.176.152.416.228.72.228zm8.171-.564l.3.756c-.52.472-1.196.708-2.028.708-.88 0-1.58-.256-2.1-.768-.528-.512-.792-1.196-.792-2.052 0-.808.248-1.48.744-2.016.488-.536 1.168-.804 2.04-.804.72 0 1.316.232 1.788.696.48.456.72 1.048.72 1.776 0 .232-.02.448-.06.648h-4.152c.04.504.228.9.564 1.188.344.288.784.432 1.32.432.704 0 1.256-.188 1.656-.564zm-1.884-3.276c-.472 0-.864.132-1.176.396-.304.264-.484.612-.54 1.044h3.276c-.024-.448-.176-.8-.456-1.056-.272-.256-.64-.384-1.104-.384zm5.049.18h-1.98v-.96h4.92v.96h-1.98V755h-.96v-4.44zm10.189 2.088h-2.664v-.78h2.652c-.072-.48-.276-.848-.612-1.104-.328-.256-.748-.384-1.26-.384-.664 0-1.216.196-1.656.588l-.408-.72c.232-.232.54-.416.924-.552a3.2 3.2 0 011.128-.216c.864 0 1.556.256 2.076.768.536.512.804 1.196.804 2.052 0 .792-.26 1.46-.78 2.004s-1.172.816-1.956.816c-.976 0-1.7-.228-2.172-.684l.456-.708c.368.328.92.492 1.656.492.504 0 .916-.136 1.236-.408.32-.28.512-.668.576-1.164zm7.287 2.352h-.96v-2.28h-3V755h-.96v-5.4h.96v2.22h3v-2.22h.96v5.4zm5.996-1.344l.3.756c-.52.472-1.196.708-2.028.708-.88 0-1.58-.256-2.1-.768-.528-.512-.792-1.196-.792-2.052 0-.808.248-1.48.744-2.016.488-.536 1.168-.804 2.04-.804.72 0 1.316.232 1.788.696.48.456.72 1.048.72 1.776 0 .232-.02.448-.06.648h-4.152c.04.504.228.9.564 1.188.344.288.784.432 1.32.432.704 0 1.256-.188 1.656-.564zm-1.884-3.276c-.472 0-.864.132-1.176.396-.304.264-.484.612-.54 1.044h3.276c-.024-.448-.176-.8-.456-1.056-.272-.256-.64-.384-1.104-.384zm4.818 7.02h-.96v-7.8h.96v.636c.192-.224.456-.404.792-.54a2.624 2.624 0 011.044-.216c.768 0 1.372.256 1.812.768.456.504.684 1.16.684 1.968 0 .824-.26 1.516-.78 2.076-.512.552-1.188.828-2.028.828-.648 0-1.156-.124-1.524-.372v2.652zm1.56-7.02c-.64 0-1.16.248-1.56.744v2.676c.424.28.904.42 1.44.42.568 0 1.02-.18 1.356-.54.344-.368.516-.844.516-1.428 0-.568-.156-1.02-.468-1.356-.312-.344-.74-.516-1.284-.516zm5.108 4.62h-.96v-5.4h3.42v.9h-2.46v4.5zm7.468-4.02l-3.12 4.02h-.96v-5.4h.96v4.02l3.12-4.02h.96v5.4h-.96v-4.02zm3.725 4.02h-1.02v-5.4h1.02v2.16h1.176c.112-.688.412-1.24.9-1.656.496-.416 1.104-.624 1.824-.624.848 0 1.528.268 2.04.804.52.536.78 1.208.78 2.016s-.264 1.484-.792 2.028c-.52.528-1.196.792-2.028.792-.76 0-1.384-.22-1.872-.66-.488-.44-.776-1.02-.864-1.74h-1.164V755zm2.7-4.044c-.32.344-.48.792-.48 1.344s.16 1 .48 1.344c.32.344.732.516 1.236.516s.912-.168 1.224-.504c.32-.344.48-.796.48-1.356 0-.552-.156-1-.468-1.344-.312-.344-.724-.516-1.236-.516-.504 0-.916.172-1.236.516zM816.38 755v-5.4h.168c.072-.008.176-.012.312-.012a6.38 6.38 0 01.372-.012c.592-.016.96-.024 1.104-.024 1.552 0 2.328.464 2.328 1.392 0 .32-.1.596-.3.828-.2.224-.46.36-.78.408v.024c.84.152 1.26.576 1.26 1.272 0 1.048-.828 1.572-2.484 1.572-.08 0-.432-.008-1.056-.024-.12 0-.252-.004-.396-.012-.144 0-.256-.004-.336-.012h-.192zm2.112-2.424h-1.152v1.656c.576.024.944.036 1.104.036.92 0 1.38-.288 1.38-.864 0-.552-.444-.828-1.332-.828zm-.084-2.244c-.232 0-.588.012-1.068.036v1.608h1.212c.328 0 .592-.076.792-.228a.73.73 0 00.3-.612c0-.536-.412-.804-1.236-.804zm4.861 7.068h-.96v-7.8h.96v.636c.192-.224.456-.404.792-.54a2.624 2.624 0 011.044-.216c.768 0 1.372.256 1.812.768.456.504.684 1.16.684 1.968 0 .824-.26 1.516-.78 2.076-.512.552-1.188.828-2.028.828-.648 0-1.156-.124-1.524-.372v2.652zm1.56-7.02c-.64 0-1.16.248-1.56.744v2.676c.424.28.904.42 1.44.42.568 0 1.02-.18 1.356-.54.344-.368.516-.844.516-1.428 0-.568-.156-1.02-.468-1.356-.312-.344-.74-.516-1.284-.516zm4.436.36l-.252-.768a3.38 3.38 0 011.8-.492c.728 0 1.256.18 1.584.54.328.36.492.916.492 1.668V755h-.912v-.696c-.424.52-1 .78-1.728.78-.496 0-.896-.148-1.2-.444-.304-.304-.456-.712-.456-1.224 0-.528.188-.944.564-1.248.376-.312.868-.468 1.476-.468.568 0 1.016.116 1.344.348 0-.608-.084-1.044-.252-1.308-.168-.264-.492-.396-.972-.396-.488 0-.984.132-1.488.396zm1.32 3.48c.536 0 1-.232 1.392-.696v-.684c-.336-.24-.74-.36-1.212-.36-.328 0-.604.08-.828.24a.745.745 0 00-.324.648c0 .264.084.472.252.624.176.152.416.228.72.228zm10.752.78h-6.84v-5.4h.96v4.5h1.98v-4.5h.96v4.5h1.98v-4.5h.96v4.5h.9v2.22h-.9V755zm6.209-1.344l.3.756c-.52.472-1.196.708-2.028.708-.88 0-1.58-.256-2.1-.768-.528-.512-.792-1.196-.792-2.052 0-.808.248-1.48.744-2.016.488-.536 1.168-.804 2.04-.804.72 0 1.316.232 1.788.696.48.456.72 1.048.72 1.776 0 .232-.02.448-.06.648h-4.152c.04.504.228.9.564 1.188.344.288.784.432 1.32.432.704 0 1.256-.188 1.656-.564zm-1.884-3.276c-.472 0-.864.132-1.176.396-.304.264-.484.612-.54 1.044h3.276c-.024-.448-.176-.8-.456-1.056-.272-.256-.64-.384-1.104-.384zm8.778 4.62h-.96v-2.28h-3V755h-.96v-5.4h.96v2.22h3v-2.22h.96v5.4zm5.817-4.02l-3.12 4.02h-.96v-5.4h.96v4.02l3.12-4.02h.96v5.4h-.96v-4.02zm5.069-1.38h1.68v5.4h-.96v-1.8h-1.044l-1.32 1.8h-1.164l1.56-2.04a1.433 1.433 0 01-.828-.528 1.63 1.63 0 01-.336-1.032c0-.552.2-.988.6-1.308.4-.328 1.004-.492 1.812-.492zm-1.392 1.824c0 .256.1.468.3.636.2.16.436.24.708.24h1.104v-1.8h-.876c-.408 0-.716.084-.924.252a.82.82 0 00-.312.672zm8.472 5.976h-.96v-7.8h.96v.636c.192-.224.456-.404.792-.54a2.624 2.624 0 011.044-.216c.768 0 1.372.256 1.812.768.456.504.684 1.16.684 1.968 0 .824-.26 1.516-.78 2.076-.512.552-1.188.828-2.028.828-.648 0-1.156-.124-1.524-.372v2.652zm1.56-7.02c-.64 0-1.16.248-1.56.744v2.676c.424.28.904.42 1.44.42.568 0 1.02-.18 1.356-.54.344-.368.516-.844.516-1.428 0-.568-.156-1.02-.468-1.356-.312-.344-.74-.516-1.284-.516zm4.58 3.948c-.528-.544-.792-1.22-.792-2.028 0-.816.264-1.488.792-2.016.536-.536 1.232-.804 2.088-.804.856 0 1.548.268 2.076.804.536.528.804 1.2.804 2.016 0 .816-.268 1.492-.804 2.028-.528.528-1.22.792-2.076.792-.848 0-1.544-.264-2.088-.792zm.756-3.408c-.352.352-.528.812-.528 1.38 0 .568.172 1.028.516 1.38.352.36.8.54 1.344.54s.988-.176 1.332-.528c.352-.36.528-.824.528-1.392 0-.552-.176-1.012-.528-1.38-.344-.36-.788-.54-1.332-.54s-.988.18-1.332.54zm6.682-.36h-1.98v-.96h4.92v.96h-1.98V755h-.96v-4.44zm4.246 3.768c-.528-.544-.792-1.22-.792-2.028 0-.816.264-1.488.792-2.016.536-.536 1.232-.804 2.088-.804.856 0 1.548.268 2.076.804.536.528.804 1.2.804 2.016 0 .816-.268 1.492-.804 2.028-.528.528-1.22.792-2.076.792-.848 0-1.544-.264-2.088-.792zm.756-3.408c-.352.352-.528.812-.528 1.38 0 .568.172 1.028.516 1.38.352.36.8.54 1.344.54s.988-.176 1.332-.528c.352-.36.528-.824.528-1.392 0-.552-.176-1.012-.528-1.38-.344-.36-.788-.54-1.332-.54s-.988.18-1.332.54zm6.557 6.48h-.96v-7.8h.96v.636c.192-.224.456-.404.792-.54a2.624 2.624 0 011.044-.216c.768 0 1.372.256 1.812.768.456.504.684 1.16.684 1.968 0 .824-.26 1.516-.78 2.076-.512.552-1.188.828-2.028.828-.648 0-1.156-.124-1.524-.372v2.652zm1.56-7.02c-.64 0-1.16.248-1.56.744v2.676c.424.28.904.42 1.44.42.568 0 1.02-.18 1.356-.54.344-.368.516-.844.516-1.428 0-.568-.156-1.02-.468-1.356-.312-.344-.74-.516-1.284-.516zm4.436.36l-.252-.768a3.38 3.38 0 011.8-.492c.728 0 1.256.18 1.584.54.328.36.492.916.492 1.668V755h-.912v-.696c-.424.52-1 .78-1.728.78-.496 0-.896-.148-1.2-.444-.304-.304-.456-.712-.456-1.224 0-.528.188-.944.564-1.248.376-.312.868-.468 1.476-.468.568 0 1.016.116 1.344.348 0-.608-.084-1.044-.252-1.308-.168-.264-.492-.396-.972-.396-.488 0-.984.132-1.488.396zm1.32 3.48c.536 0 1-.232 1.392-.696v-.684c-.336-.24-.74-.36-1.212-.36-.328 0-.604.08-.828.24a.745.745 0 00-.324.648c0 .264.084.472.252.624.176.152.416.228.72.228zM713.864 771v-5.4h.168c.072-.008.176-.012.312-.012a6.38 6.38 0 01.372-.012c.592-.016.96-.024 1.104-.024 1.552 0 2.328.464 2.328 1.392 0 .32-.1.596-.3.828-.2.224-.46.36-.78.408v.024c.84.152 1.26.576 1.26 1.272 0 1.048-.828 1.572-2.484 1.572-.08 0-.432-.008-1.056-.024-.12 0-.252-.004-.396-.012-.144 0-.256-.004-.336-.012h-.192zm2.112-2.424h-1.152v1.656c.576.024.944.036 1.104.036.92 0 1.38-.288 1.38-.864 0-.552-.444-.828-1.332-.828zm-.084-2.244c-.232 0-.588.012-1.068.036v1.608h1.212c.328 0 .592-.076.792-.228a.73.73 0 00.3-.612c0-.536-.412-.804-1.236-.804zm7.557 4.668h-.96v-5.4h3.42v.9h-2.46v4.5zm3.644-.672c-.528-.544-.792-1.22-.792-2.028 0-.816.264-1.488.792-2.016.536-.536 1.232-.804 2.088-.804.856 0 1.548.268 2.076.804.536.528.804 1.2.804 2.016 0 .816-.268 1.492-.804 2.028-.528.528-1.22.792-2.076.792-.848 0-1.544-.264-2.088-.792zm.756-3.408c-.352.352-.528.812-.528 1.38 0 .568.172 1.028.516 1.38.352.36.8.54 1.344.54s.988-.176 1.332-.528c.352-.36.528-.824.528-1.392 0-.552-.176-1.012-.528-1.38-.344-.36-.788-.54-1.332-.54s-.988.18-1.332.54zm10.517 4.08h-.96v-2.28h-3V771h-.96v-5.4h.96v2.22h3v-2.22h.96v5.4zm1.892 1.32h-.9v-2.22h.672c.2-.248.376-.648.528-1.2a9.75 9.75 0 00.3-1.872l.084-1.428h3.684v4.5h.9v2.22h-.9V771h-4.368v1.32zm1.584-5.82l-.06.9a8.262 8.262 0 01-.288 1.644c-.144.496-.292.848-.444 1.056h2.616v-3.6h-1.824zm5.161 3.828c-.528-.544-.792-1.22-.792-2.028 0-.816.264-1.488.792-2.016.536-.536 1.232-.804 2.088-.804.856 0 1.548.268 2.076.804.536.528.804 1.2.804 2.016 0 .816-.268 1.492-.804 2.028-.528.528-1.22.792-2.076.792-.848 0-1.544-.264-2.088-.792zm.756-3.408c-.352.352-.528.812-.528 1.38 0 .568.172 1.028.516 1.38.352.36.8.54 1.344.54s.988-.176 1.332-.528c.352-.36.528-.824.528-1.392 0-.552-.176-1.012-.528-1.38-.344-.36-.788-.54-1.332-.54s-.988.18-1.332.54zm10.042 4.08h-.96v-4.44h-1.896l-.06.912c-.064.744-.16 1.364-.288 1.86-.12.488-.28.856-.48 1.104-.192.24-.396.408-.612.504-.216.088-.48.132-.792.132l-.072-.936a.675.675 0 00.276-.036.96.96 0 00.312-.24c.12-.12.224-.28.312-.48.096-.2.18-.48.252-.84.08-.368.132-.788.156-1.26l.096-1.68h3.756v5.4zm5.547-5.4h1.092l-2.16 5.4c-.392.952-.732 1.584-1.02 1.896-.304.336-.652.504-1.044.504-.352 0-.692-.112-1.02-.336l.312-.732c.256.12.456.18.6.18.224 0 .424-.096.6-.288.184-.192.368-.504.552-.936l.12-.288-2.592-5.4h1.152l1.584 3.432c.032.056.14.328.324.816.072-.264.156-.54.252-.828l1.248-3.42zm1.346 4.752a.61.61 0 01.192-.444.692.692 0 01.492-.192.61.61 0 01.444.192.61.61 0 01.192.444c0 .192-.06.356-.18.492a.598.598 0 01-.456.192.692.692 0 01-.492-.192.692.692 0 01-.192-.492zm11.18-.936l.408.768c-.28.288-.66.516-1.14.684-.48.168-.984.252-1.512.252-1.256 0-2.284-.392-3.084-1.176-.784-.8-1.176-1.848-1.176-3.144 0-1.248.376-2.276 1.128-3.084.752-.824 1.772-1.236 3.06-1.236 1.064 0 1.916.272 2.556.816l-.468.768c-.56-.416-1.252-.624-2.076-.624-.912 0-1.66.312-2.244.936-.584.616-.876 1.424-.876 2.424s.3 1.812.9 2.436c.616.616 1.408.924 2.376.924.816 0 1.532-.248 2.148-.744zm1.738.912c-.528-.544-.792-1.22-.792-2.028 0-.816.264-1.488.792-2.016.536-.536 1.232-.804 2.088-.804.856 0 1.548.268 2.076.804.536.528.804 1.2.804 2.016 0 .816-.268 1.492-.804 2.028-.528.528-1.22.792-2.076.792-.848 0-1.544-.264-2.088-.792zm.756-3.408c-.352.352-.528.812-.528 1.38 0 .568.172 1.028.516 1.38.352.36.8.54 1.344.54s.988-.176 1.332-.528c.352-.36.528-.824.528-1.392 0-.552-.176-1.012-.528-1.38-.344-.36-.788-.54-1.332-.54s-.988.18-1.332.54zm9.858 2.736l.3.756c-.52.472-1.196.708-2.028.708-.88 0-1.58-.256-2.1-.768-.528-.512-.792-1.196-.792-2.052 0-.808.248-1.48.744-2.016.488-.536 1.168-.804 2.04-.804.72 0 1.316.232 1.788.696.48.456.72 1.048.72 1.776 0 .232-.02.448-.06.648h-4.152c.04.504.228.9.564 1.188.344.288.784.432 1.32.432.704 0 1.256-.188 1.656-.564zm-1.884-3.276c-.472 0-.864.132-1.176.396-.304.264-.484.612-.54 1.044h3.276c-.024-.448-.176-.8-.456-1.056-.272-.256-.64-.384-1.104-.384zm3.803 5.94h-.9v-2.22h.672c.2-.248.376-.648.528-1.2a9.75 9.75 0 00.3-1.872l.084-1.428h3.684v4.5h.9v2.22h-.9V771h-4.368v1.32zm1.584-5.82l-.06.9a8.262 8.262 0 01-.288 1.644c-.144.496-.292.848-.444 1.056h2.616v-3.6h-1.824zm8.809.48l-3.12 4.02h-.96v-5.4h.96v4.02l3.12-4.02h.96v5.4h-.96v-4.02zm7.625 4.02h-.96v-2.28h-3V771h-.96v-5.4h.96v2.22h3v-2.22h.96v5.4zm5.996-1.344l.3.756c-.52.472-1.196.708-2.028.708-.88 0-1.58-.256-2.1-.768-.528-.512-.792-1.196-.792-2.052 0-.808.248-1.48.744-2.016.488-.536 1.168-.804 2.04-.804.72 0 1.316.232 1.788.696.48.456.72 1.048.72 1.776 0 .232-.02.448-.06.648h-4.152c.04.504.228.9.564 1.188.344.288.784.432 1.32.432.704 0 1.256-.188 1.656-.564zm-1.884-3.276c-.472 0-.864.132-1.176.396-.304.264-.484.612-.54 1.044h3.276c-.024-.448-.176-.8-.456-1.056-.272-.256-.64-.384-1.104-.384zm8.779 4.62h-.96v-2.28h-3V771h-.96v-5.4h.96v2.22h3v-2.22h.96v5.4zm8.583-1.476l.456.696c-.464.6-1.156.9-2.076.9-.864 0-1.564-.256-2.1-.768-.528-.512-.792-1.196-.792-2.052 0-.792.26-1.46.78-2.004s1.172-.816 1.956-.816c.944 0 1.652.236 2.124.708l-.444.756c-.416-.376-.932-.564-1.548-.564-.504 0-.94.184-1.308.552-.36.36-.54.816-.54 1.368 0 .584.184 1.048.552 1.392.376.352.84.528 1.392.528.624 0 1.14-.232 1.548-.696zM835 773.4h-.96v-7.8h.96v.636c.192-.224.456-.404.792-.54a2.624 2.624 0 011.044-.216c.768 0 1.372.256 1.812.768.456.504.684 1.16.684 1.968 0 .824-.26 1.516-.78 2.076-.512.552-1.188.828-2.028.828-.648 0-1.156-.124-1.524-.372v2.652zm1.56-7.02c-.64 0-1.16.248-1.56.744v2.676c.424.28.904.42 1.44.42.568 0 1.02-.18 1.356-.54.344-.368.516-.844.516-1.428 0-.568-.156-1.02-.468-1.356-.312-.344-.74-.516-1.284-.516zm8.408 3.276l.3.756c-.52.472-1.196.708-2.028.708-.88 0-1.58-.256-2.1-.768-.528-.512-.792-1.196-.792-2.052 0-.808.248-1.48.744-2.016.488-.536 1.168-.804 2.04-.804.72 0 1.316.232 1.788.696.48.456.72 1.048.72 1.776 0 .232-.02.448-.06.648h-4.152c.04.504.228.9.564 1.188.344.288.784.432 1.32.432.704 0 1.256-.188 1.656-.564zm-1.884-3.276c-.472 0-.864.132-1.176.396-.304.264-.484.612-.54 1.044h3.276c-.024-.448-.176-.8-.456-1.056-.272-.256-.64-.384-1.104-.384zm3.803 5.94h-.9v-2.22h.672c.2-.248.376-.648.528-1.2a9.75 9.75 0 00.3-1.872l.084-1.428h3.684v4.5h.9v2.22h-.9V771h-4.368v1.32zm1.584-5.82l-.06.9a8.262 8.262 0 01-.288 1.644c-.144.496-.292.848-.444 1.056h2.616v-3.6h-1.824zm8.545-.9h1.092l-2.16 5.4c-.392.952-.732 1.584-1.02 1.896-.304.336-.652.504-1.044.504-.352 0-.692-.112-1.02-.336l.312-.732c.256.12.456.18.6.18.224 0 .424-.096.6-.288.184-.192.368-.504.552-.936l.12-.288-2.592-5.4h1.152l1.584 3.432c.032.056.14.328.324.816.072-.264.156-.54.252-.828l1.248-3.42zm5.546 0h1.26l-2.364 2.58 2.592 2.82h-1.332l-2.436-2.76 2.28-2.64zm-2.508 5.4h-.96v-5.4h.96v5.4zm6.313-4.44h-1.98v-.96h4.92v.96h-1.98V771h-.96v-4.44zm4.245 3.768c-.528-.544-.792-1.22-.792-2.028 0-.816.264-1.488.792-2.016.536-.536 1.232-.804 2.088-.804.856 0 1.548.268 2.076.804.536.528.804 1.2.804 2.016 0 .816-.268 1.492-.804 2.028-.528.528-1.22.792-2.076.792-.848 0-1.544-.264-2.088-.792zm.756-3.408c-.352.352-.528.812-.528 1.38 0 .568.172 1.028.516 1.38.352.36.8.54 1.344.54s.988-.176 1.332-.528c.352-.36.528-.824.528-1.392 0-.552-.176-1.012-.528-1.38-.344-.36-.788-.54-1.332-.54s-.988.18-1.332.54zm6.558 6.48h-.96v-7.8h.96v.636c.192-.224.456-.404.792-.54a2.624 2.624 0 011.044-.216c.768 0 1.372.256 1.812.768.456.504.684 1.16.684 1.968 0 .824-.26 1.516-.78 2.076-.512.552-1.188.828-2.028.828-.648 0-1.156-.124-1.524-.372v2.652zm1.56-7.02c-.64 0-1.16.248-1.56.744v2.676c.424.28.904.42 1.44.42.568 0 1.02-.18 1.356-.54.344-.368.516-.844.516-1.428 0-.568-.156-1.02-.468-1.356-.312-.344-.74-.516-1.284-.516zm4.58 3.948c-.528-.544-.792-1.22-.792-2.028 0-.816.264-1.488.792-2.016.536-.536 1.232-.804 2.088-.804.856 0 1.548.268 2.076.804.536.528.804 1.2.804 2.016 0 .816-.268 1.492-.804 2.028-.528.528-1.22.792-2.076.792-.848 0-1.544-.264-2.088-.792zm.756-3.408c-.352.352-.528.812-.528 1.38 0 .568.172 1.028.516 1.38.352.36.8.54 1.344.54s.988-.176 1.332-.528c.352-.36.528-.824.528-1.392 0-.552-.176-1.012-.528-1.38-.344-.36-.788-.54-1.332-.54s-.988.18-1.332.54zm6.557 4.08h-.96v-5.4h.876l2.076 2.676 1.968-2.676h.852v5.4h-.96v-3.936l-1.872 2.508h-.036l-1.944-2.508V771zm6.287-.648a.61.61 0 01.192-.444.692.692 0 01.492-.192.61.61 0 01.444.192.61.61 0 01.192.444c0 .192-.06.356-.18.492a.598.598 0 01-.456.192.692.692 0 01-.492-.192.692.692 0 01-.192-.492z" fill="#959595"/><path d="M726.2 731h-1.7v-6.34h-7.7V731h-1.7v-14h1.7v6.06h7.7V717h1.7v14zm10.333-6.7l-5.2 6.7h-1.6v-9h1.6v6.7l5.2-6.7h1.6v9h-1.6v-6.7zm7.489 6.9c-.68 0-1.4-.113-2.16-.34-.734-.24-1.254-.533-1.56-.88l.82-1.2c.36.293.786.533 1.28.72.506.173.966.26 1.38.26.693 0 1.26-.133 1.7-.4.44-.28.66-.64.66-1.08 0-.373-.16-.66-.48-.86-.307-.2-.734-.3-1.28-.3h-1.52v-1.3h1.42c.453 0 .826-.12 1.12-.36.293-.253.44-.56.44-.92 0-.4-.174-.713-.52-.94-.347-.24-.814-.36-1.4-.36-.947 0-1.847.333-2.7 1l-.62-1.24c.36-.373.86-.667 1.5-.88a6.603 6.603 0 012.06-.32c1.066 0 1.893.213 2.48.64.6.427.9 1.02.9 1.78 0 1.04-.527 1.747-1.58 2.12v.04c.586.067 1.046.3 1.38.7.333.387.5.86.5 1.42 0 .827-.354 1.487-1.06 1.98-.694.48-1.614.72-2.76.72zm12.038-9.2h2.1l-3.94 4.3 4.32 4.7h-2.22l-4.06-4.6 3.8-4.4zm-4.18 9h-1.6v-9h1.6v9zm8.593-1.12c-.88-.907-1.32-2.033-1.32-3.38 0-1.36.44-2.48 1.32-3.36.893-.893 2.053-1.34 3.48-1.34 1.426 0 2.58.447 3.46 1.34.893.88 1.34 2 1.34 3.36 0 1.36-.447 2.487-1.34 3.38-.88.88-2.034 1.32-3.46 1.32-1.414 0-2.574-.44-3.48-1.32zm1.26-5.68c-.587.587-.88 1.353-.88 2.3 0 .947.286 1.713.86 2.3.586.6 1.333.9 2.24.9.906 0 1.646-.293 2.22-.88.586-.6.88-1.373.88-2.32 0-.92-.294-1.687-.88-2.3-.574-.6-1.314-.9-2.22-.9-.907 0-1.647.3-2.22.9zm16.248 4.34l.76 1.16c-.773 1-1.927 1.5-3.46 1.5-1.44 0-2.607-.427-3.5-1.28-.88-.853-1.32-1.993-1.32-3.42 0-1.32.433-2.433 1.3-3.34s1.953-1.36 3.26-1.36c1.573 0 2.753.393 3.54 1.18l-.74 1.26c-.693-.627-1.553-.94-2.58-.94-.84 0-1.567.307-2.18.92-.6.6-.9 1.36-.9 2.28 0 .973.307 1.747.92 2.32.627.587 1.4.88 2.32.88 1.04 0 1.9-.387 2.58-1.16zm8.626-6.54h2.1l-3.94 4.3 4.32 4.7h-2.22l-4.06-4.6 3.8-4.4zm-4.18 9h-1.6v-9h1.6v9zm8.592-1.12c-.88-.907-1.32-2.033-1.32-3.38 0-1.36.44-2.48 1.32-3.36.894-.893 2.054-1.34 3.48-1.34 1.427 0 2.58.447 3.46 1.34.894.88 1.34 2 1.34 3.36 0 1.36-.446 2.487-1.34 3.38-.88.88-2.033 1.32-3.46 1.32-1.413 0-2.573-.44-3.48-1.32zm1.26-5.68c-.586.587-.88 1.353-.88 2.3 0 .947.287 1.713.86 2.3.587.6 1.334.9 2.24.9.907 0 1.647-.293 2.22-.88.587-.6.88-1.373.88-2.32 0-.92-.293-1.687-.88-2.3-.573-.6-1.313-.9-2.22-.9-.906 0-1.646.3-2.22.9zm10.929 10.8h-1.6v-13h1.6v1.06c.32-.373.76-.673 1.32-.9.56-.24 1.14-.36 1.74-.36 1.28 0 2.287.427 3.02 1.28.76.84 1.14 1.933 1.14 3.28 0 1.373-.433 2.527-1.3 3.46-.853.92-1.98 1.38-3.38 1.38-1.08 0-1.927-.207-2.54-.62V735zm2.6-11.7c-1.067 0-1.933.413-2.6 1.24V729c.707.467 1.507.7 2.4.7.947 0 1.7-.3 2.26-.9.573-.613.86-1.407.86-2.38 0-.947-.26-1.7-.78-2.26-.52-.573-1.233-.86-2.14-.86zm7.633 6.58c-.88-.907-1.32-2.033-1.32-3.38 0-1.36.44-2.48 1.32-3.36.894-.893 2.054-1.34 3.48-1.34 1.427 0 2.58.447 3.46 1.34.894.88 1.34 2 1.34 3.36 0 1.36-.446 2.487-1.34 3.38-.88.88-2.033 1.32-3.46 1.32-1.413 0-2.573-.44-3.48-1.32zm1.26-5.68c-.586.587-.88 1.353-.88 2.3 0 .947.287 1.713.86 2.3.587.6 1.334.9 2.24.9.907 0 1.647-.293 2.22-.88.587-.6.88-1.373.88-2.32 0-.92-.293-1.687-.88-2.3-.573-.6-1.313-.9-2.22-.9-.906 0-1.646.3-2.22.9zm16.249 4.34l.76 1.16c-.773 1-1.927 1.5-3.46 1.5-1.44 0-2.607-.427-3.5-1.28-.88-.853-1.32-1.993-1.32-3.42 0-1.32.433-2.433 1.3-3.34s1.953-1.36 3.26-1.36c1.573 0 2.753.393 3.54 1.18l-.74 1.26c-.693-.627-1.553-.94-2.58-.94-.84 0-1.567.307-2.18.92-.6.6-.9 1.36-.9 2.28 0 .973.307 1.747.92 2.32.627.587 1.4.88 2.32.88 1.04 0 1.9-.387 2.58-1.16zm4.888-4.94h-3.3V722h8.2v1.6h-3.3v7.4h-1.6v-7.4zm14.849 7.4h-1.6v-3.8h-5v3.8h-1.6v-9h1.6v3.7h5V722h1.6v9zm3.614-1.12c-.88-.907-1.32-2.033-1.32-3.38 0-1.36.44-2.48 1.32-3.36.893-.893 2.053-1.34 3.48-1.34 1.426 0 2.58.447 3.46 1.34.893.88 1.34 2 1.34 3.36 0 1.36-.447 2.487-1.34 3.38-.88.88-2.034 1.32-3.46 1.32-1.414 0-2.574-.44-3.48-1.32zm1.26-5.68c-.587.587-.88 1.353-.88 2.3 0 .947.286 1.713.86 2.3.586.6 1.333.9 2.24.9.906 0 1.646-.293 2.22-.88.586-.6.88-1.373.88-2.32 0-.92-.294-1.687-.88-2.3-.574-.6-1.314-.9-2.22-.9-.907 0-1.647.3-2.22.9zm16.128.1l-5.2 6.7h-1.6v-9h1.6v6.7l5.2-6.7h1.6v9h-1.6v-6.7zm-5.52-6.9h1.5c.08 1.053.594 1.58 1.54 1.58.894 0 1.38-.527 1.46-1.58h1.5c0 .813-.28 1.487-.84 2.02-.546.52-1.253.78-2.12.78-.946 0-1.693-.253-2.24-.76-.533-.52-.8-1.2-.8-2.04zM880.69 731v-9h.28c.12-.013.293-.02.52-.02.227-.013.433-.02.62-.02.987-.027 1.6-.04 1.84-.04 2.587 0 3.88.773 3.88 2.32 0 .533-.167.993-.5 1.38-.333.373-.767.6-1.3.68v.04c1.4.253 2.1.96 2.1 2.12 0 1.747-1.38 2.62-4.14 2.62-.133 0-.72-.013-1.76-.04-.2 0-.42-.007-.66-.02-.24 0-.427-.007-.56-.02h-.32zm3.52-4.04h-1.92v2.76c.96.04 1.573.06 1.84.06 1.533 0 2.3-.48 2.3-1.44 0-.92-.74-1.38-2.22-1.38zm-.14-3.74c-.387 0-.98.02-1.78.06v2.68h2.02c.547 0 .987-.127 1.32-.38.333-.253.5-.593.5-1.02 0-.893-.687-1.34-2.06-1.34zm6.983.68l-.42-1.28c.893-.547 1.893-.82 3-.82 1.213 0 2.093.3 2.64.9.546.6.82 1.527.82 2.78V731h-1.52v-1.16c-.707.867-1.667 1.3-2.88 1.3-.827 0-1.494-.247-2-.74-.507-.507-.76-1.187-.76-2.04 0-.88.313-1.573.94-2.08.626-.52 1.446-.78 2.46-.78.946 0 1.693.193 2.24.58 0-1.013-.14-1.74-.42-2.18-.28-.44-.82-.66-1.62-.66-.814 0-1.64.22-2.48.66zm2.2 5.8c.893 0 1.666-.387 2.32-1.16v-1.14c-.56-.4-1.234-.6-2.02-.6-.547 0-1.007.133-1.38.4-.36.253-.54.613-.54 1.08 0 .44.14.787.42 1.04.293.253.693.38 1.2.38zm14.279 1.3h-1.6v-7.4h-3.16l-.1 1.52c-.107 1.24-.267 2.273-.48 3.1-.2.813-.467 1.427-.8 1.84-.32.4-.66.68-1.02.84-.36.147-.8.22-1.32.22l-.12-1.56c.147.013.3-.007.46-.06.16-.067.333-.2.52-.4.2-.2.373-.467.52-.8.16-.333.3-.8.42-1.4.133-.613.22-1.313.26-2.1l.16-2.8h6.26v9z" fill="#000"/><path d="M542.709 482.295A.5.5 0 10542 483l.709-.705zM542 483l201 202 .709-.705-201-202L542 483z" fill="#525252"/><path d="M671.253 728.46l-2.52-3.9 10.08-7.8h3.36V759h-4.8v-35.34l-6.12 4.8z" fill="#999"/></g></svg>