<svg width="390" height="570" viewBox="0 0 390 570" fill="none" xmlns="http://www.w3.org/2000/svg">
<mask id="mask0_1207_55" style="mask-type:alpha" maskUnits="userSpaceOnUse" x="0" y="0" width="390" height="570">
<rect width="390" height="570" fill="#D9D9D9"/>
</mask>
<g mask="url(#mask0_1207_55)">
<rect x="225" y="344" width="145" height="63" fill="#C1C1C1" fill-opacity="0.8"/>
<rect x="221" y="340" width="145" height="63" fill="white"/>
<rect x="217.256" y="336.256" width="144.488" height="62.4876" stroke="#525252" stroke-width="0.512419"/>
<path d="M252.947 356.243V359H252.076V351.826C252.363 351.826 252.667 351.823 252.988 351.816C253.309 351.809 253.63 351.806 253.952 351.806C254.894 351.806 255.571 352.017 255.981 352.441C256.397 352.858 256.606 353.387 256.606 354.03C256.606 354.651 256.38 355.184 255.929 355.628C255.492 356.066 254.857 356.284 254.023 356.284C253.586 356.284 253.227 356.271 252.947 356.243ZM254.034 352.626C253.911 352.626 253.548 352.632 252.947 352.646V355.413C253.378 355.447 253.726 355.464 253.993 355.464C254.519 355.464 254.932 355.338 255.233 355.085C255.533 354.825 255.684 354.47 255.684 354.019C255.684 353.575 255.543 353.234 255.263 352.994C254.99 352.748 254.58 352.626 254.034 352.626ZM260.921 357.852L261.177 358.498C260.733 358.901 260.155 359.102 259.445 359.102C258.693 359.102 258.095 358.884 257.651 358.447C257.2 358.009 256.975 357.425 256.975 356.694C256.975 356.004 257.187 355.43 257.61 354.972C258.027 354.515 258.608 354.286 259.353 354.286C259.967 354.286 260.476 354.484 260.88 354.88C261.29 355.27 261.494 355.775 261.494 356.397C261.494 356.595 261.477 356.78 261.443 356.95H257.897C257.931 357.381 258.092 357.719 258.379 357.965C258.673 358.211 259.049 358.334 259.506 358.334C260.108 358.334 260.579 358.173 260.921 357.852ZM259.312 355.054C258.908 355.054 258.574 355.167 258.307 355.393C258.048 355.618 257.894 355.915 257.846 356.284H260.644C260.623 355.902 260.494 355.601 260.254 355.382C260.022 355.164 259.708 355.054 259.312 355.054ZM262.56 360.127H261.791V358.231H262.365C262.536 358.02 262.686 357.678 262.816 357.207C262.946 356.728 263.031 356.195 263.072 355.608L263.144 354.388H266.29V358.231H267.059V360.127H266.29V359H262.56V360.127ZM263.913 355.157L263.861 355.925C263.82 356.438 263.738 356.906 263.615 357.33C263.492 357.753 263.366 358.054 263.236 358.231H265.47V355.157H263.913ZM271.21 354.388H272.143L270.298 359C269.963 359.813 269.673 360.353 269.427 360.619C269.167 360.906 268.87 361.05 268.535 361.05C268.235 361.05 267.944 360.954 267.664 360.763L267.931 360.138C268.149 360.24 268.32 360.291 268.443 360.291C268.634 360.291 268.805 360.209 268.955 360.045C269.113 359.881 269.27 359.615 269.427 359.246L269.529 359L267.316 354.388H268.3L269.652 357.319C269.68 357.367 269.772 357.599 269.929 358.016C269.991 357.791 270.062 357.555 270.144 357.309L271.21 354.388ZM275.947 354.388H277.023L275.004 356.592L277.218 359H276.08L274 356.643L275.947 354.388ZM273.805 359H272.985V354.388H273.805V359ZM279.196 355.208H277.505V354.388H281.707V355.208H280.016V359H279.196V355.208ZM282.822 358.426C282.371 357.961 282.146 357.384 282.146 356.694C282.146 355.997 282.371 355.423 282.822 354.972C283.28 354.515 283.874 354.286 284.605 354.286C285.336 354.286 285.927 354.515 286.378 354.972C286.836 355.423 287.065 355.997 287.065 356.694C287.065 357.391 286.836 357.968 286.378 358.426C285.927 358.877 285.336 359.102 284.605 359.102C283.881 359.102 283.287 358.877 282.822 358.426ZM283.468 355.516C283.167 355.816 283.017 356.209 283.017 356.694C283.017 357.179 283.164 357.572 283.457 357.873C283.758 358.18 284.141 358.334 284.605 358.334C285.07 358.334 285.449 358.184 285.743 357.883C286.043 357.575 286.194 357.179 286.194 356.694C286.194 356.223 286.043 355.83 285.743 355.516C285.449 355.208 285.07 355.054 284.605 355.054C284.141 355.054 283.761 355.208 283.468 355.516ZM289.068 361.05H288.248V354.388H289.068V354.931C289.232 354.74 289.457 354.586 289.744 354.47C290.031 354.347 290.328 354.286 290.636 354.286C291.291 354.286 291.807 354.504 292.183 354.942C292.573 355.372 292.767 355.932 292.767 356.622C292.767 357.326 292.545 357.917 292.101 358.395C291.664 358.867 291.087 359.102 290.369 359.102C289.816 359.102 289.382 358.997 289.068 358.785V361.05ZM290.4 355.054C289.853 355.054 289.409 355.266 289.068 355.69V357.975C289.43 358.214 289.84 358.334 290.297 358.334C290.782 358.334 291.169 358.18 291.455 357.873C291.749 357.558 291.896 357.152 291.896 356.653C291.896 356.168 291.763 355.782 291.496 355.495C291.23 355.201 290.864 355.054 290.4 355.054Z" fill="black"/>
<path d="M254.552 371.993L254.756 372.377C254.616 372.521 254.426 372.635 254.186 372.719C253.946 372.803 253.694 372.845 253.43 372.845C252.802 372.845 252.288 372.649 251.888 372.257C251.496 371.857 251.3 371.333 251.3 370.685C251.3 370.061 251.488 369.547 251.864 369.143C252.24 368.731 252.75 368.525 253.394 368.525C253.926 368.525 254.352 368.661 254.672 368.933L254.438 369.317C254.158 369.109 253.812 369.005 253.4 369.005C252.944 369.005 252.57 369.161 252.278 369.473C251.986 369.781 251.84 370.185 251.84 370.685C251.84 371.185 251.99 371.591 252.29 371.903C252.598 372.211 252.994 372.365 253.478 372.365C253.886 372.365 254.244 372.241 254.552 371.993ZM257.615 372.785H257.135V370.565H256.187L256.157 371.021C256.125 371.393 256.077 371.703 256.013 371.951C255.953 372.195 255.873 372.379 255.773 372.503C255.677 372.623 255.575 372.707 255.467 372.755C255.359 372.799 255.227 372.821 255.071 372.821L255.035 372.353C255.079 372.357 255.125 372.351 255.173 372.335C255.221 372.315 255.273 372.275 255.329 372.215C255.389 372.155 255.441 372.075 255.485 371.975C255.533 371.875 255.575 371.735 255.611 371.555C255.651 371.371 255.677 371.161 255.689 370.925L255.737 370.085H257.615V372.785ZM258.697 372.449C258.433 372.177 258.301 371.839 258.301 371.435C258.301 371.027 258.433 370.691 258.697 370.427C258.965 370.159 259.313 370.025 259.741 370.025C260.169 370.025 260.515 370.159 260.779 370.427C261.047 370.691 261.181 371.027 261.181 371.435C261.181 371.843 261.047 372.181 260.779 372.449C260.515 372.713 260.169 372.845 259.741 372.845C259.317 372.845 258.969 372.713 258.697 372.449ZM259.075 370.745C258.899 370.921 258.811 371.151 258.811 371.435C258.811 371.719 258.897 371.949 259.069 372.125C259.245 372.305 259.469 372.395 259.741 372.395C260.013 372.395 260.235 372.307 260.407 372.131C260.583 371.951 260.671 371.719 260.671 371.435C260.671 371.159 260.583 370.929 260.407 370.745C260.235 370.565 260.013 370.475 259.741 370.475C259.469 370.475 259.247 370.565 259.075 370.745ZM264.613 370.085H265.207L264.229 371.387L265.279 372.785H264.685L263.683 371.387L264.613 370.085ZM263.563 372.785H263.083V370.085H263.563V372.785ZM261.385 372.785L262.417 371.387L261.439 370.085H262.039L262.963 371.387L261.973 372.785H261.385ZM268.259 372.785H267.779V371.645H266.279V372.785H265.799V370.085H266.279V371.195H267.779V370.085H268.259V372.785ZM269.997 372.785H269.127V370.085H269.607V370.895H270.051C270.419 370.895 270.689 370.979 270.861 371.147C271.033 371.311 271.119 371.537 271.119 371.825C271.119 372.097 271.029 372.325 270.849 372.509C270.677 372.693 270.393 372.785 269.997 372.785ZM272.115 372.785H271.635V370.085H272.115V372.785ZM269.961 371.345H269.607V372.335H269.955C270.183 372.335 270.349 372.295 270.453 372.215C270.557 372.135 270.609 372.011 270.609 371.843C270.609 371.511 270.393 371.345 269.961 371.345ZM275.017 370.775L273.457 372.785H272.977V370.085H273.457V372.095L275.017 370.085H275.497V372.785H275.017V370.775ZM273.361 368.705H273.811C273.835 369.021 273.989 369.179 274.273 369.179C274.541 369.179 274.687 369.021 274.711 368.705H275.161C275.161 368.949 275.077 369.151 274.909 369.311C274.745 369.467 274.533 369.545 274.273 369.545C273.989 369.545 273.765 369.469 273.601 369.317C273.441 369.161 273.361 368.957 273.361 368.705ZM280.147 372.785H279.667V370.535H278.197V372.785H277.717V370.085H280.147V372.785ZM283.146 372.113L283.296 372.491C283.036 372.727 282.698 372.845 282.282 372.845C281.842 372.845 281.492 372.717 281.232 372.461C280.968 372.205 280.836 371.863 280.836 371.435C280.836 371.031 280.96 370.695 281.208 370.427C281.452 370.159 281.792 370.025 282.228 370.025C282.588 370.025 282.886 370.141 283.122 370.373C283.362 370.601 283.482 370.897 283.482 371.261C283.482 371.377 283.472 371.485 283.452 371.585H281.376C281.396 371.837 281.49 372.035 281.658 372.179C281.83 372.323 282.05 372.395 282.318 372.395C282.67 372.395 282.946 372.301 283.146 372.113ZM282.204 370.475C281.968 370.475 281.772 370.541 281.616 370.673C281.464 370.805 281.374 370.979 281.346 371.195H282.984C282.972 370.971 282.896 370.795 282.756 370.667C282.62 370.539 282.436 370.475 282.204 370.475ZM284.613 373.985H284.133V370.085H284.613V370.403C284.709 370.291 284.841 370.201 285.009 370.133C285.177 370.061 285.351 370.025 285.531 370.025C285.915 370.025 286.217 370.153 286.437 370.409C286.665 370.661 286.779 370.989 286.779 371.393C286.779 371.805 286.649 372.151 286.389 372.431C286.133 372.707 285.795 372.845 285.375 372.845C285.051 372.845 284.797 372.783 284.613 372.659V373.985ZM285.393 370.475C285.073 370.475 284.813 370.599 284.613 370.847V372.185C284.825 372.325 285.065 372.395 285.333 372.395C285.617 372.395 285.843 372.305 286.011 372.125C286.183 371.941 286.269 371.703 286.269 371.411C286.269 371.127 286.191 370.901 286.035 370.733C285.879 370.561 285.665 370.475 285.393 370.475ZM289.597 372.113L289.747 372.491C289.487 372.727 289.149 372.845 288.733 372.845C288.293 372.845 287.943 372.717 287.683 372.461C287.419 372.205 287.287 371.863 287.287 371.435C287.287 371.031 287.411 370.695 287.659 370.427C287.903 370.159 288.243 370.025 288.679 370.025C289.039 370.025 289.337 370.141 289.573 370.373C289.813 370.601 289.933 370.897 289.933 371.261C289.933 371.377 289.923 371.485 289.903 371.585H287.827C287.847 371.837 287.941 372.035 288.109 372.179C288.281 372.323 288.501 372.395 288.769 372.395C289.121 372.395 289.397 372.301 289.597 372.113ZM288.655 370.475C288.419 370.475 288.223 370.541 288.067 370.673C287.915 370.805 287.825 370.979 287.797 371.195H289.435C289.423 370.971 289.347 370.795 289.207 370.667C289.071 370.539 288.887 370.475 288.655 370.475ZM290.557 373.445H290.107V372.335H290.443C290.543 372.211 290.631 372.011 290.707 371.735C290.783 371.455 290.833 371.143 290.857 370.799L290.899 370.085H292.741V372.335H293.191V373.445H292.741V372.785H290.557V373.445ZM291.349 370.535L291.319 370.985C291.295 371.285 291.247 371.559 291.175 371.807C291.103 372.055 291.029 372.231 290.953 372.335H292.261V370.535H291.349ZM293.857 370.655L293.731 370.271C293.999 370.107 294.299 370.025 294.631 370.025C294.995 370.025 295.259 370.115 295.423 370.295C295.587 370.475 295.669 370.753 295.669 371.129V372.785H295.213V372.437C295.001 372.697 294.713 372.827 294.349 372.827C294.101 372.827 293.901 372.753 293.749 372.605C293.597 372.453 293.521 372.249 293.521 371.993C293.521 371.729 293.615 371.521 293.803 371.369C293.991 371.213 294.237 371.135 294.541 371.135C294.825 371.135 295.049 371.193 295.213 371.309C295.213 371.005 295.171 370.787 295.087 370.655C295.003 370.523 294.841 370.457 294.601 370.457C294.357 370.457 294.109 370.523 293.857 370.655ZM294.517 372.395C294.785 372.395 295.017 372.279 295.213 372.047V371.705C295.045 371.585 294.843 371.525 294.607 371.525C294.443 371.525 294.305 371.565 294.193 371.645C294.085 371.721 294.031 371.829 294.031 371.969C294.031 372.101 294.073 372.205 294.157 372.281C294.245 372.357 294.365 372.395 294.517 372.395ZM297.121 370.565H296.131V370.085H298.591V370.565H297.601V372.785H297.121V370.565ZM299.244 372.449C298.98 372.177 298.848 371.839 298.848 371.435C298.848 371.027 298.98 370.691 299.244 370.427C299.512 370.159 299.86 370.025 300.288 370.025C300.716 370.025 301.062 370.159 301.326 370.427C301.594 370.691 301.728 371.027 301.728 371.435C301.728 371.843 301.594 372.181 301.326 372.449C301.062 372.713 300.716 372.845 300.288 372.845C299.864 372.845 299.516 372.713 299.244 372.449ZM299.622 370.745C299.446 370.921 299.358 371.151 299.358 371.435C299.358 371.719 299.444 371.949 299.616 372.125C299.792 372.305 300.016 372.395 300.288 372.395C300.56 372.395 300.782 372.307 300.954 372.131C301.13 371.951 301.218 371.719 301.218 371.435C301.218 371.159 301.13 370.929 300.954 370.745C300.782 370.565 300.56 370.475 300.288 370.475C300.016 370.475 299.794 370.565 299.622 370.745ZM303.968 370.085H304.448V372.785H303.968V371.735C303.76 371.867 303.51 371.933 303.218 371.933C302.578 371.933 302.258 371.589 302.258 370.901V370.085H302.768V370.847C302.768 371.271 302.962 371.483 303.35 371.483C303.602 371.483 303.808 371.427 303.968 371.315V370.085ZM307.775 372.785H307.295V371.645H305.795V372.785H305.315V370.085H305.795V371.195H307.295V370.085H307.775V372.785ZM309.513 372.785H308.643V370.085H309.123V370.895H309.567C309.935 370.895 310.205 370.979 310.377 371.147C310.549 371.311 310.635 371.537 310.635 371.825C310.635 372.097 310.545 372.325 310.365 372.509C310.193 372.693 309.909 372.785 309.513 372.785ZM311.631 372.785H311.151V370.085H311.631V372.785ZM309.477 371.345H309.123V372.335H309.471C309.699 372.335 309.865 372.295 309.969 372.215C310.073 372.135 310.125 372.011 310.125 371.843C310.125 371.511 309.909 371.345 309.477 371.345ZM314.533 370.775L312.973 372.785H312.493V370.085H312.973V372.095L314.533 370.085H315.013V372.785H314.533V370.775ZM312.877 368.705H313.327C313.351 369.021 313.505 369.179 313.789 369.179C314.057 369.179 314.203 369.021 314.227 368.705H314.677C314.677 368.949 314.593 369.151 314.425 369.311C314.261 369.467 314.049 369.545 313.789 369.545C313.505 369.545 313.281 369.469 313.117 369.317C312.957 369.161 312.877 368.957 312.877 368.705ZM317.713 372.785H317.233V370.085H317.671L318.709 371.423L319.693 370.085H320.119V372.785H319.639V370.817L318.703 372.071H318.685L317.713 370.817V372.785ZM323.119 372.113L323.269 372.491C323.009 372.727 322.671 372.845 322.255 372.845C321.815 372.845 321.465 372.717 321.205 372.461C320.941 372.205 320.809 371.863 320.809 371.435C320.809 371.031 320.933 370.695 321.181 370.427C321.425 370.159 321.765 370.025 322.201 370.025C322.561 370.025 322.859 370.141 323.095 370.373C323.335 370.601 323.455 370.897 323.455 371.261C323.455 371.377 323.445 371.485 323.425 371.585H321.349C321.369 371.837 321.463 372.035 321.631 372.179C321.803 372.323 322.023 372.395 322.291 372.395C322.643 372.395 322.919 372.301 323.119 372.113ZM322.177 370.475C321.941 370.475 321.745 370.541 321.589 370.673C321.437 370.805 321.347 370.979 321.319 371.195H322.957C322.945 370.971 322.869 370.795 322.729 370.667C322.593 370.539 322.409 370.475 322.177 370.475ZM325.819 370.085H326.377L325.411 371.387L326.437 372.785H325.849L325.057 371.693L324.253 372.785H323.695L324.715 371.411L323.755 370.085H324.343L325.075 371.105L325.819 370.085ZM327.162 370.655L327.036 370.271C327.304 370.107 327.604 370.025 327.936 370.025C328.3 370.025 328.564 370.115 328.728 370.295C328.892 370.475 328.974 370.753 328.974 371.129V372.785H328.518V372.437C328.306 372.697 328.018 372.827 327.654 372.827C327.406 372.827 327.206 372.753 327.054 372.605C326.902 372.453 326.826 372.249 326.826 371.993C326.826 371.729 326.92 371.521 327.108 371.369C327.296 371.213 327.542 371.135 327.846 371.135C328.13 371.135 328.354 371.193 328.518 371.309C328.518 371.005 328.476 370.787 328.392 370.655C328.308 370.523 328.146 370.457 327.906 370.457C327.662 370.457 327.414 370.523 327.162 370.655ZM327.822 372.395C328.09 372.395 328.322 372.279 328.518 372.047V371.705C328.35 371.585 328.148 371.525 327.912 371.525C327.748 371.525 327.61 371.565 327.498 371.645C327.39 371.721 327.336 371.829 327.336 371.969C327.336 372.101 327.378 372.205 327.462 372.281C327.55 372.357 327.67 372.395 327.822 372.395ZM332.238 372.785H331.758V371.645H330.258V372.785H329.778V370.085H330.258V371.195H331.758V370.085H332.238V372.785ZM335.146 370.775L333.586 372.785H333.106V370.085H333.586V372.095L335.146 370.085H335.626V372.785H335.146V370.775ZM337.392 372.845C337.188 372.845 336.972 372.811 336.744 372.743C336.524 372.671 336.368 372.583 336.276 372.479L336.522 372.119C336.63 372.207 336.758 372.279 336.906 372.335C337.058 372.387 337.196 372.413 337.32 372.413C337.528 372.413 337.698 372.373 337.83 372.293C337.962 372.209 338.028 372.101 338.028 371.969C338.028 371.857 337.98 371.771 337.884 371.711C337.792 371.651 337.664 371.621 337.5 371.621H337.044V371.231H337.47C337.606 371.231 337.718 371.195 337.806 371.123C337.894 371.047 337.938 370.955 337.938 370.847C337.938 370.727 337.886 370.633 337.782 370.565C337.678 370.493 337.538 370.457 337.362 370.457C337.078 370.457 336.808 370.557 336.552 370.757L336.366 370.385C336.474 370.273 336.624 370.185 336.816 370.121C337.012 370.057 337.218 370.025 337.434 370.025C337.754 370.025 338.002 370.089 338.178 370.217C338.358 370.345 338.448 370.523 338.448 370.751C338.448 371.063 338.29 371.275 337.974 371.387V371.399C338.15 371.419 338.288 371.489 338.388 371.609C338.488 371.725 338.538 371.867 338.538 372.035C338.538 372.283 338.432 372.481 338.22 372.629C338.012 372.773 337.736 372.845 337.392 372.845ZM339.75 372.785H339.27V370.085H339.708L340.746 371.423L341.73 370.085H342.156V372.785H341.676V370.817L340.74 372.071H340.722L339.75 370.817V372.785ZM342.918 372.509C342.918 372.413 342.948 372.337 343.008 372.281C343.068 372.221 343.152 372.191 343.26 372.191C343.388 372.191 343.492 372.245 343.572 372.353C343.652 372.457 343.692 372.597 343.692 372.773C343.692 372.989 343.632 373.175 343.512 373.331C343.396 373.491 343.236 373.601 343.032 373.661L342.9 373.433C343.108 373.369 343.236 373.235 343.284 373.031C343.312 372.895 343.31 372.795 343.278 372.731C343.254 372.767 343.21 372.785 343.146 372.785C343.086 372.785 343.032 372.759 342.984 372.707C342.94 372.651 342.918 372.585 342.918 372.509ZM253.166 378.085H253.796L252.614 379.375L253.91 380.785H253.244L252.026 379.405L253.166 378.085ZM251.912 380.785H251.432V378.085H251.912V380.785ZM254.49 380.449C254.226 380.177 254.094 379.839 254.094 379.435C254.094 379.027 254.226 378.691 254.49 378.427C254.758 378.159 255.106 378.025 255.534 378.025C255.962 378.025 256.308 378.159 256.572 378.427C256.84 378.691 256.974 379.027 256.974 379.435C256.974 379.843 256.84 380.181 256.572 380.449C256.308 380.713 255.962 380.845 255.534 380.845C255.11 380.845 254.762 380.713 254.49 380.449ZM254.868 378.745C254.692 378.921 254.604 379.151 254.604 379.435C254.604 379.719 254.69 379.949 254.862 380.125C255.038 380.305 255.262 380.395 255.534 380.395C255.806 380.395 256.028 380.307 256.2 380.131C256.376 379.951 256.464 379.719 256.464 379.435C256.464 379.159 256.376 378.929 256.2 378.745C256.028 378.565 255.806 378.475 255.534 378.475C255.262 378.475 255.04 378.565 254.868 378.745ZM258.209 378.565H257.219V378.085H259.679V378.565H258.689V380.785H258.209V378.565ZM260.332 380.449C260.068 380.177 259.936 379.839 259.936 379.435C259.936 379.027 260.068 378.691 260.332 378.427C260.6 378.159 260.948 378.025 261.376 378.025C261.804 378.025 262.15 378.159 262.414 378.427C262.682 378.691 262.816 379.027 262.816 379.435C262.816 379.843 262.682 380.181 262.414 380.449C262.15 380.713 261.804 380.845 261.376 380.845C260.952 380.845 260.604 380.713 260.332 380.449ZM260.71 378.745C260.534 378.921 260.446 379.151 260.446 379.435C260.446 379.719 260.532 379.949 260.704 380.125C260.88 380.305 261.104 380.395 261.376 380.395C261.648 380.395 261.87 380.307 262.042 380.131C262.218 379.951 262.306 379.719 262.306 379.435C262.306 379.159 262.218 378.929 262.042 378.745C261.87 378.565 261.648 378.475 261.376 378.475C261.104 378.475 260.882 378.565 260.71 378.745ZM263.988 381.985H263.508V378.085H263.988V378.403C264.084 378.291 264.216 378.201 264.384 378.133C264.552 378.061 264.726 378.025 264.906 378.025C265.29 378.025 265.592 378.153 265.812 378.409C266.04 378.661 266.154 378.989 266.154 379.393C266.154 379.805 266.024 380.151 265.764 380.431C265.508 380.707 265.17 380.845 264.75 380.845C264.426 380.845 264.172 380.783 263.988 380.659V381.985ZM264.768 378.475C264.448 378.475 264.188 378.599 263.988 378.847V380.185C264.2 380.325 264.44 380.395 264.708 380.395C264.992 380.395 265.218 380.305 265.386 380.125C265.558 379.941 265.644 379.703 265.644 379.411C265.644 379.127 265.566 378.901 265.41 378.733C265.254 378.561 265.04 378.475 264.768 378.475ZM267.712 380.785H266.842V378.085H267.322V378.895H267.766C268.134 378.895 268.404 378.979 268.576 379.147C268.748 379.311 268.834 379.537 268.834 379.825C268.834 380.097 268.744 380.325 268.564 380.509C268.392 380.693 268.108 380.785 267.712 380.785ZM269.83 380.785H269.35V378.085H269.83V380.785ZM267.676 379.345H267.322V380.335H267.67C267.898 380.335 268.064 380.295 268.168 380.215C268.272 380.135 268.324 380.011 268.324 379.843C268.324 379.511 268.108 379.345 267.676 379.345ZM272.732 378.775L271.172 380.785H270.692V378.085H271.172V380.095L272.732 378.085H273.212V380.785H272.732V378.775ZM271.076 376.705H271.526C271.55 377.021 271.704 377.179 271.988 377.179C272.256 377.179 272.402 377.021 272.426 376.705H272.876C272.876 376.949 272.792 377.151 272.624 377.311C272.46 377.467 272.248 377.545 271.988 377.545C271.704 377.545 271.48 377.469 271.316 377.317C271.156 377.161 271.076 376.957 271.076 376.705ZM277.862 380.785H277.382V378.535H275.912V380.785H275.432V378.085H277.862V380.785ZM278.947 380.449C278.683 380.177 278.551 379.839 278.551 379.435C278.551 379.027 278.683 378.691 278.947 378.427C279.215 378.159 279.563 378.025 279.991 378.025C280.419 378.025 280.765 378.159 281.029 378.427C281.297 378.691 281.431 379.027 281.431 379.435C281.431 379.843 281.297 380.181 281.029 380.449C280.765 380.713 280.419 380.845 279.991 380.845C279.567 380.845 279.219 380.713 278.947 380.449ZM279.325 378.745C279.149 378.921 279.061 379.151 279.061 379.435C279.061 379.719 279.147 379.949 279.319 380.125C279.495 380.305 279.719 380.395 279.991 380.395C280.263 380.395 280.485 380.307 280.657 380.131C280.833 379.951 280.921 379.719 280.921 379.435C280.921 379.159 280.833 378.929 280.657 378.745C280.485 378.565 280.263 378.475 279.991 378.475C279.719 378.475 279.497 378.565 279.325 378.745ZM282.123 380.785V378.085C282.143 378.085 282.171 378.085 282.207 378.085C282.243 378.081 282.295 378.079 282.363 378.079C282.431 378.075 282.493 378.073 282.549 378.073C282.845 378.065 283.029 378.061 283.101 378.061C283.877 378.061 284.265 378.293 284.265 378.757C284.265 378.917 284.215 379.055 284.115 379.171C284.015 379.283 283.885 379.351 283.725 379.375V379.387C284.145 379.463 284.355 379.675 284.355 380.023C284.355 380.547 283.941 380.809 283.113 380.809C283.073 380.809 282.897 380.805 282.585 380.797C282.525 380.797 282.459 380.795 282.387 380.791C282.315 380.791 282.259 380.789 282.219 380.785C282.179 380.785 282.147 380.785 282.123 380.785ZM283.179 379.573H282.603V380.401C282.891 380.413 283.075 380.419 283.155 380.419C283.615 380.419 283.845 380.275 283.845 379.987C283.845 379.711 283.623 379.573 283.179 379.573ZM283.137 378.451C283.021 378.451 282.843 378.457 282.603 378.469V379.273H283.209C283.373 379.273 283.505 379.235 283.605 379.159C283.705 379.083 283.755 378.981 283.755 378.853C283.755 378.585 283.549 378.451 283.137 378.451ZM285.958 380.785H285.088V378.085H285.568V378.895H286.012C286.38 378.895 286.65 378.979 286.822 379.147C286.994 379.311 287.08 379.537 287.08 379.825C287.08 380.097 286.99 380.325 286.81 380.509C286.638 380.693 286.354 380.785 285.958 380.785ZM288.076 380.785H287.596V378.085H288.076V380.785ZM285.922 379.345H285.568V380.335H285.916C286.144 380.335 286.31 380.295 286.414 380.215C286.518 380.135 286.57 380.011 286.57 379.843C286.57 379.511 286.354 379.345 285.922 379.345ZM292.358 380.785H288.938V378.085H289.418V380.335H290.408V378.085H290.888V380.335H291.878V378.085H292.358V380.785ZM293.371 378.655L293.245 378.271C293.513 378.107 293.813 378.025 294.145 378.025C294.509 378.025 294.773 378.115 294.937 378.295C295.101 378.475 295.183 378.753 295.183 379.129V380.785H294.727V380.437C294.515 380.697 294.227 380.827 293.863 380.827C293.615 380.827 293.415 380.753 293.263 380.605C293.111 380.453 293.035 380.249 293.035 379.993C293.035 379.729 293.129 379.521 293.317 379.369C293.505 379.213 293.751 379.135 294.055 379.135C294.339 379.135 294.563 379.193 294.727 379.309C294.727 379.005 294.685 378.787 294.601 378.655C294.517 378.523 294.355 378.457 294.115 378.457C293.871 378.457 293.623 378.523 293.371 378.655ZM294.031 380.395C294.299 380.395 294.531 380.279 294.727 380.047V379.705C294.559 379.585 294.357 379.525 294.121 379.525C293.957 379.525 293.819 379.565 293.707 379.645C293.599 379.721 293.545 379.829 293.545 379.969C293.545 380.101 293.587 380.205 293.671 380.281C293.759 380.357 293.879 380.395 294.031 380.395ZM298.117 380.113L298.267 380.491C298.007 380.727 297.669 380.845 297.253 380.845C296.813 380.845 296.463 380.717 296.203 380.461C295.939 380.205 295.807 379.863 295.807 379.435C295.807 379.031 295.931 378.695 296.179 378.427C296.423 378.159 296.763 378.025 297.199 378.025C297.559 378.025 297.857 378.141 298.093 378.373C298.333 378.601 298.453 378.897 298.453 379.261C298.453 379.377 298.443 379.485 298.423 379.585H296.347C296.367 379.837 296.461 380.035 296.629 380.179C296.801 380.323 297.021 380.395 297.289 380.395C297.641 380.395 297.917 380.301 298.117 380.113ZM297.175 378.475C296.939 378.475 296.743 378.541 296.587 378.673C296.435 378.805 296.345 378.979 296.317 379.195H297.955C297.943 378.971 297.867 378.795 297.727 378.667C297.591 378.539 297.407 378.475 297.175 378.475ZM299.699 378.565H298.709V378.085H301.169V378.565H300.179V380.785H299.699V378.565ZM305.117 380.047L305.345 380.395C305.113 380.695 304.767 380.845 304.307 380.845C303.875 380.845 303.525 380.717 303.257 380.461C302.993 380.205 302.861 379.863 302.861 379.435C302.861 379.039 302.991 378.705 303.251 378.433C303.511 378.161 303.837 378.025 304.229 378.025C304.701 378.025 305.055 378.143 305.291 378.379L305.069 378.757C304.861 378.569 304.603 378.475 304.295 378.475C304.043 378.475 303.825 378.567 303.641 378.751C303.461 378.931 303.371 379.159 303.371 379.435C303.371 379.727 303.463 379.959 303.647 380.131C303.835 380.307 304.067 380.395 304.343 380.395C304.655 380.395 304.913 380.279 305.117 380.047ZM307.705 378.085H308.335L307.153 379.375L308.449 380.785H307.783L306.565 379.405L307.705 378.085ZM306.451 380.785H305.971V378.085H306.451V380.785ZM309.029 380.449C308.765 380.177 308.633 379.839 308.633 379.435C308.633 379.027 308.765 378.691 309.029 378.427C309.297 378.159 309.645 378.025 310.073 378.025C310.501 378.025 310.847 378.159 311.111 378.427C311.379 378.691 311.513 379.027 311.513 379.435C311.513 379.843 311.379 380.181 311.111 380.449C310.847 380.713 310.501 380.845 310.073 380.845C309.649 380.845 309.301 380.713 309.029 380.449ZM309.407 378.745C309.231 378.921 309.143 379.151 309.143 379.435C309.143 379.719 309.229 379.949 309.401 380.125C309.577 380.305 309.801 380.395 310.073 380.395C310.345 380.395 310.567 380.307 310.739 380.131C310.915 379.951 311.003 379.719 311.003 379.435C311.003 379.159 310.915 378.929 310.739 378.745C310.567 378.565 310.345 378.475 310.073 378.475C309.801 378.475 309.579 378.565 309.407 378.745ZM312.685 381.985H312.205V378.085H312.685V378.403C312.781 378.291 312.913 378.201 313.081 378.133C313.249 378.061 313.423 378.025 313.603 378.025C313.987 378.025 314.289 378.153 314.509 378.409C314.737 378.661 314.851 378.989 314.851 379.393C314.851 379.805 314.721 380.151 314.461 380.431C314.205 380.707 313.867 380.845 313.447 380.845C313.123 380.845 312.869 380.783 312.685 380.659V381.985ZM313.465 378.475C313.145 378.475 312.885 378.599 312.685 378.847V380.185C312.897 380.325 313.137 380.395 313.405 380.395C313.689 380.395 313.915 380.305 314.083 380.125C314.255 379.941 314.341 379.703 314.341 379.411C314.341 379.127 314.263 378.901 314.107 378.733C313.951 378.561 313.737 378.475 313.465 378.475ZM315.755 380.449C315.491 380.177 315.359 379.839 315.359 379.435C315.359 379.027 315.491 378.691 315.755 378.427C316.023 378.159 316.371 378.025 316.799 378.025C317.227 378.025 317.573 378.159 317.837 378.427C318.105 378.691 318.239 379.027 318.239 379.435C318.239 379.843 318.105 380.181 317.837 380.449C317.573 380.713 317.227 380.845 316.799 380.845C316.375 380.845 316.027 380.713 315.755 380.449ZM316.133 378.745C315.957 378.921 315.869 379.151 315.869 379.435C315.869 379.719 315.955 379.949 316.127 380.125C316.303 380.305 316.527 380.395 316.799 380.395C317.071 380.395 317.293 380.307 317.465 380.131C317.641 379.951 317.729 379.719 317.729 379.435C317.729 379.159 317.641 378.929 317.465 378.745C317.293 378.565 317.071 378.475 316.799 378.475C316.527 378.475 316.305 378.565 316.133 378.745ZM321.008 380.047L321.236 380.395C321.004 380.695 320.658 380.845 320.198 380.845C319.766 380.845 319.416 380.717 319.148 380.461C318.884 380.205 318.752 379.863 318.752 379.435C318.752 379.039 318.882 378.705 319.142 378.433C319.402 378.161 319.728 378.025 320.12 378.025C320.592 378.025 320.946 378.143 321.182 378.379L320.96 378.757C320.752 378.569 320.494 378.475 320.186 378.475C319.934 378.475 319.716 378.567 319.532 378.751C319.352 378.931 319.262 379.159 319.262 379.435C319.262 379.727 319.354 379.959 319.538 380.131C319.726 380.307 319.958 380.395 320.234 380.395C320.546 380.395 320.804 380.279 321.008 380.047ZM322.475 378.565H321.485V378.085H323.945V378.565H322.955V380.785H322.475V378.565ZM325.381 380.785H324.469V378.085H324.949V378.895H325.441C325.809 378.895 326.079 378.979 326.251 379.147C326.423 379.311 326.509 379.537 326.509 379.825C326.509 380.097 326.419 380.325 326.239 380.509C326.059 380.693 325.773 380.785 325.381 380.785ZM325.351 379.345H324.949V380.335H325.345C325.781 380.335 325.999 380.171 325.999 379.843C325.999 379.511 325.783 379.345 325.351 379.345ZM251.432 388.785V386.085C251.452 386.085 251.48 386.085 251.516 386.085C251.552 386.081 251.604 386.079 251.672 386.079C251.74 386.075 251.802 386.073 251.858 386.073C252.154 386.065 252.338 386.061 252.41 386.061C253.186 386.061 253.574 386.293 253.574 386.757C253.574 386.917 253.524 387.055 253.424 387.171C253.324 387.283 253.194 387.351 253.034 387.375V387.387C253.454 387.463 253.664 387.675 253.664 388.023C253.664 388.547 253.25 388.809 252.422 388.809C252.382 388.809 252.206 388.805 251.894 388.797C251.834 388.797 251.768 388.795 251.696 388.791C251.624 388.791 251.568 388.789 251.528 388.785C251.488 388.785 251.456 388.785 251.432 388.785ZM252.488 387.573H251.912V388.401C252.2 388.413 252.384 388.419 252.464 388.419C252.924 388.419 253.154 388.275 253.154 387.987C253.154 387.711 252.932 387.573 252.488 387.573ZM252.446 386.451C252.33 386.451 252.152 386.457 251.912 386.469V387.273H252.518C252.682 387.273 252.814 387.235 252.914 387.159C253.014 387.083 253.064 386.981 253.064 386.853C253.064 386.585 252.858 386.451 252.446 386.451ZM254.877 389.985H254.397V386.085H254.877V386.403C254.973 386.291 255.105 386.201 255.273 386.133C255.441 386.061 255.615 386.025 255.795 386.025C256.179 386.025 256.481 386.153 256.701 386.409C256.929 386.661 257.043 386.989 257.043 387.393C257.043 387.805 256.913 388.151 256.653 388.431C256.397 388.707 256.059 388.845 255.639 388.845C255.315 388.845 255.061 388.783 254.877 388.659V389.985ZM255.657 386.475C255.337 386.475 255.077 386.599 254.877 386.847V388.185C255.089 388.325 255.329 388.395 255.597 388.395C255.881 388.395 256.107 388.305 256.275 388.125C256.447 387.941 256.533 387.703 256.533 387.411C256.533 387.127 256.455 386.901 256.299 386.733C256.143 386.561 255.929 386.475 255.657 386.475ZM257.875 386.655L257.749 386.271C258.017 386.107 258.317 386.025 258.649 386.025C259.013 386.025 259.277 386.115 259.441 386.295C259.605 386.475 259.687 386.753 259.687 387.129V388.785H259.231V388.437C259.019 388.697 258.731 388.827 258.367 388.827C258.119 388.827 257.919 388.753 257.767 388.605C257.615 388.453 257.539 388.249 257.539 387.993C257.539 387.729 257.633 387.521 257.821 387.369C258.009 387.213 258.255 387.135 258.559 387.135C258.843 387.135 259.067 387.193 259.231 387.309C259.231 387.005 259.189 386.787 259.105 386.655C259.021 386.523 258.859 386.457 258.619 386.457C258.375 386.457 258.127 386.523 257.875 386.655ZM258.535 388.395C258.803 388.395 259.035 388.279 259.231 388.047V387.705C259.063 387.585 258.861 387.525 258.625 387.525C258.461 387.525 258.323 387.565 258.211 387.645C258.103 387.721 258.049 387.829 258.049 387.969C258.049 388.101 258.091 388.205 258.175 388.281C258.263 388.357 258.383 388.395 258.535 388.395ZM263.911 388.785H260.491V386.085H260.971V388.335H261.961V386.085H262.441V388.335H263.431V386.085H263.911V388.335H264.361V389.445H263.911V388.785ZM267.015 388.113L267.165 388.491C266.905 388.727 266.567 388.845 266.151 388.845C265.711 388.845 265.361 388.717 265.101 388.461C264.837 388.205 264.705 387.863 264.705 387.435C264.705 387.031 264.829 386.695 265.077 386.427C265.321 386.159 265.661 386.025 266.097 386.025C266.457 386.025 266.755 386.141 266.991 386.373C267.231 386.601 267.351 386.897 267.351 387.261C267.351 387.377 267.341 387.485 267.321 387.585H265.245C265.265 387.837 265.359 388.035 265.527 388.179C265.699 388.323 265.919 388.395 266.187 388.395C266.539 388.395 266.815 388.301 267.015 388.113ZM266.073 386.475C265.837 386.475 265.641 386.541 265.485 386.673C265.333 386.805 265.243 386.979 265.215 387.195H266.853C266.841 386.971 266.765 386.795 266.625 386.667C266.489 386.539 266.305 386.475 266.073 386.475ZM270.462 388.785H269.982V387.645H268.482V388.785H268.002V386.085H268.482V387.195H269.982V386.085H270.462V388.785ZM273.37 386.775L271.81 388.785H271.33V386.085H271.81V388.095L273.37 386.085H273.85V388.785H273.37V386.775ZM276.853 388.113L277.003 388.491C276.743 388.727 276.405 388.845 275.989 388.845C275.549 388.845 275.199 388.717 274.939 388.461C274.675 388.205 274.543 387.863 274.543 387.435C274.543 387.031 274.667 386.695 274.915 386.427C275.159 386.159 275.499 386.025 275.935 386.025C276.295 386.025 276.593 386.141 276.829 386.373C277.069 386.601 277.189 386.897 277.189 387.261C277.189 387.377 277.179 387.485 277.159 387.585H275.083C275.103 387.837 275.197 388.035 275.365 388.179C275.537 388.323 275.757 388.395 276.025 388.395C276.377 388.395 276.653 388.301 276.853 388.113ZM275.911 386.475C275.675 386.475 275.479 386.541 275.323 386.673C275.171 386.805 275.081 386.979 275.053 387.195H276.691C276.679 386.971 276.603 386.795 276.463 386.667C276.327 386.539 276.143 386.475 275.911 386.475ZM281.618 388.785H281.138V386.535H279.668V388.785H279.188V386.085H281.618V388.785ZM282.967 389.985H282.487V386.085H282.967V386.403C283.063 386.291 283.195 386.201 283.363 386.133C283.531 386.061 283.705 386.025 283.885 386.025C284.269 386.025 284.571 386.153 284.791 386.409C285.019 386.661 285.133 386.989 285.133 387.393C285.133 387.805 285.003 388.151 284.743 388.431C284.487 388.707 284.149 388.845 283.729 388.845C283.405 388.845 283.151 388.783 282.967 388.659V389.985ZM283.747 386.475C283.427 386.475 283.167 386.599 282.967 386.847V388.185C283.179 388.325 283.419 388.395 283.687 388.395C283.971 388.395 284.197 388.305 284.365 388.125C284.537 387.941 284.623 387.703 284.623 387.411C284.623 387.127 284.545 386.901 284.389 386.733C284.233 386.561 284.019 386.475 283.747 386.475ZM287.861 386.775L286.301 388.785H285.821V386.085H286.301V388.095L287.861 386.085H288.341V388.785H287.861V386.775ZM289.693 388.785H289.213V386.085H289.651L290.689 387.423L291.673 386.085H292.099V388.785H291.619V386.817L290.683 388.071H290.665L289.693 386.817V388.785ZM295.099 388.113L295.249 388.491C294.989 388.727 294.651 388.845 294.235 388.845C293.795 388.845 293.445 388.717 293.185 388.461C292.921 388.205 292.789 387.863 292.789 387.435C292.789 387.031 292.913 386.695 293.161 386.427C293.405 386.159 293.745 386.025 294.181 386.025C294.541 386.025 294.839 386.141 295.075 386.373C295.315 386.601 295.435 386.897 295.435 387.261C295.435 387.377 295.425 387.485 295.405 387.585H293.329C293.349 387.837 293.443 388.035 293.611 388.179C293.783 388.323 294.003 388.395 294.271 388.395C294.623 388.395 294.899 388.301 295.099 388.113ZM294.157 386.475C293.921 386.475 293.725 386.541 293.569 386.673C293.417 386.805 293.327 386.979 293.299 387.195H294.937C294.925 386.971 294.849 386.795 294.709 386.667C294.573 386.539 294.389 386.475 294.157 386.475ZM296.566 389.985H296.086V386.085H296.566V386.403C296.662 386.291 296.794 386.201 296.962 386.133C297.13 386.061 297.304 386.025 297.484 386.025C297.868 386.025 298.17 386.153 298.39 386.409C298.618 386.661 298.732 386.989 298.732 387.393C298.732 387.805 298.602 388.151 298.342 388.431C298.086 388.707 297.748 388.845 297.328 388.845C297.004 388.845 296.75 388.783 296.566 388.659V389.985ZM297.346 386.475C297.026 386.475 296.766 386.599 296.566 386.847V388.185C296.778 388.325 297.018 388.395 297.286 388.395C297.57 388.395 297.796 388.305 297.964 388.125C298.136 387.941 298.222 387.703 298.222 387.411C298.222 387.127 298.144 386.901 297.988 386.733C297.832 386.561 297.618 386.475 297.346 386.475ZM301.88 388.785H301.4V387.645H299.9V388.785H299.42V386.085H299.9V387.195H301.4V386.085H301.88V388.785ZM302.964 388.449C302.7 388.177 302.568 387.839 302.568 387.435C302.568 387.027 302.7 386.691 302.964 386.427C303.232 386.159 303.58 386.025 304.008 386.025C304.436 386.025 304.782 386.159 305.046 386.427C305.314 386.691 305.448 387.027 305.448 387.435C305.448 387.843 305.314 388.181 305.046 388.449C304.782 388.713 304.436 388.845 304.008 388.845C303.584 388.845 303.236 388.713 302.964 388.449ZM303.342 386.745C303.166 386.921 303.078 387.151 303.078 387.435C303.078 387.719 303.164 387.949 303.336 388.125C303.512 388.305 303.736 388.395 304.008 388.395C304.28 388.395 304.502 388.307 304.674 388.131C304.85 387.951 304.938 387.719 304.938 387.435C304.938 387.159 304.85 386.929 304.674 386.745C304.502 386.565 304.28 386.475 304.008 386.475C303.736 386.475 303.514 386.565 303.342 386.745ZM307.489 388.785V386.085C307.509 386.085 307.537 386.085 307.573 386.085C307.609 386.081 307.661 386.079 307.729 386.079C307.797 386.075 307.859 386.073 307.915 386.073C308.211 386.065 308.395 386.061 308.467 386.061C309.243 386.061 309.631 386.293 309.631 386.757C309.631 386.917 309.581 387.055 309.481 387.171C309.381 387.283 309.251 387.351 309.091 387.375V387.387C309.511 387.463 309.721 387.675 309.721 388.023C309.721 388.547 309.307 388.809 308.479 388.809C308.439 388.809 308.263 388.805 307.951 388.797C307.891 388.797 307.825 388.795 307.753 388.791C307.681 388.791 307.625 388.789 307.585 388.785C307.545 388.785 307.513 388.785 307.489 388.785ZM308.545 387.573H307.969V388.401C308.257 388.413 308.441 388.419 308.521 388.419C308.981 388.419 309.211 388.275 309.211 387.987C309.211 387.711 308.989 387.573 308.545 387.573ZM308.503 386.451C308.387 386.451 308.209 386.457 307.969 386.469V387.273H308.575C308.739 387.273 308.871 387.235 308.971 387.159C309.071 387.083 309.121 386.981 309.121 386.853C309.121 386.585 308.915 386.451 308.503 386.451ZM311.831 385.731L311.579 385.341L312.587 384.561H312.923V388.785H312.443V385.251L311.831 385.731ZM316.697 386.685C316.697 387.365 316.583 387.893 316.355 388.269C316.131 388.645 315.795 388.833 315.347 388.833C314.895 388.833 314.551 388.641 314.315 388.257C314.087 387.869 313.973 387.345 313.973 386.685C313.973 386.029 314.085 385.507 314.309 385.119C314.537 384.731 314.879 384.537 315.335 384.537C315.795 384.537 316.135 384.731 316.355 385.119C316.583 385.503 316.697 386.025 316.697 386.685ZM315.347 388.383C315.639 388.383 315.851 388.243 315.983 387.963C316.119 387.683 316.187 387.257 316.187 386.685C316.187 386.117 316.117 385.693 315.977 385.413C315.841 385.129 315.627 384.987 315.335 384.987C314.767 384.987 314.483 385.553 314.483 386.685C314.483 387.817 314.771 388.383 315.347 388.383ZM320.083 386.685C320.083 387.365 319.969 387.893 319.741 388.269C319.517 388.645 319.181 388.833 318.733 388.833C318.281 388.833 317.937 388.641 317.701 388.257C317.473 387.869 317.359 387.345 317.359 386.685C317.359 386.029 317.471 385.507 317.695 385.119C317.923 384.731 318.265 384.537 318.721 384.537C319.181 384.537 319.521 384.731 319.741 385.119C319.969 385.503 320.083 386.025 320.083 386.685ZM318.733 388.383C319.025 388.383 319.237 388.243 319.369 387.963C319.505 387.683 319.573 387.257 319.573 386.685C319.573 386.117 319.503 385.693 319.363 385.413C319.227 385.129 319.013 384.987 318.721 384.987C318.153 384.987 317.869 385.553 317.869 386.685C317.869 387.817 318.157 388.383 318.733 388.383ZM322.676 389.985H322.196V386.085H322.676V386.403C322.772 386.291 322.904 386.201 323.072 386.133C323.24 386.061 323.414 386.025 323.594 386.025C323.978 386.025 324.28 386.153 324.5 386.409C324.728 386.661 324.842 386.989 324.842 387.393C324.842 387.805 324.712 388.151 324.452 388.431C324.196 388.707 323.858 388.845 323.438 388.845C323.114 388.845 322.86 388.783 322.676 388.659V389.985ZM323.456 386.475C323.136 386.475 322.876 386.599 322.676 386.847V388.185C322.888 388.325 323.128 388.395 323.396 388.395C323.68 388.395 323.906 388.305 324.074 388.125C324.246 387.941 324.332 387.703 324.332 387.411C324.332 387.127 324.254 386.901 324.098 386.733C323.942 386.561 323.728 386.475 323.456 386.475ZM325.674 386.655L325.548 386.271C325.816 386.107 326.116 386.025 326.448 386.025C326.812 386.025 327.076 386.115 327.24 386.295C327.404 386.475 327.486 386.753 327.486 387.129V388.785H327.03V388.437C326.818 388.697 326.53 388.827 326.166 388.827C325.918 388.827 325.718 388.753 325.566 388.605C325.414 388.453 325.338 388.249 325.338 387.993C325.338 387.729 325.432 387.521 325.62 387.369C325.808 387.213 326.054 387.135 326.358 387.135C326.642 387.135 326.866 387.193 327.03 387.309C327.03 387.005 326.988 386.787 326.904 386.655C326.82 386.523 326.658 386.457 326.418 386.457C326.174 386.457 325.926 386.523 325.674 386.655ZM326.334 388.395C326.602 388.395 326.834 388.279 327.03 388.047V387.705C326.862 387.585 326.66 387.525 326.424 387.525C326.26 387.525 326.122 387.565 326.01 387.645C325.902 387.721 325.848 387.829 325.848 387.969C325.848 388.101 325.89 388.205 325.974 388.281C326.062 388.357 326.182 388.395 326.334 388.395ZM329.183 388.845C328.979 388.845 328.763 388.811 328.535 388.743C328.315 388.671 328.159 388.583 328.067 388.479L328.313 388.119C328.421 388.207 328.549 388.279 328.697 388.335C328.849 388.387 328.987 388.413 329.111 388.413C329.319 388.413 329.489 388.373 329.621 388.293C329.753 388.209 329.819 388.101 329.819 387.969C329.819 387.857 329.771 387.771 329.675 387.711C329.583 387.651 329.455 387.621 329.291 387.621H328.835V387.231H329.261C329.397 387.231 329.509 387.195 329.597 387.123C329.685 387.047 329.729 386.955 329.729 386.847C329.729 386.727 329.677 386.633 329.573 386.565C329.469 386.493 329.329 386.457 329.153 386.457C328.869 386.457 328.599 386.557 328.343 386.757L328.157 386.385C328.265 386.273 328.415 386.185 328.607 386.121C328.803 386.057 329.009 386.025 329.225 386.025C329.545 386.025 329.793 386.089 329.969 386.217C330.149 386.345 330.239 386.523 330.239 386.751C330.239 387.063 330.081 387.275 329.765 387.387V387.399C329.941 387.419 330.079 387.489 330.179 387.609C330.279 387.725 330.329 387.867 330.329 388.035C330.329 388.283 330.223 388.481 330.011 388.629C329.803 388.773 329.527 388.845 329.183 388.845ZM331.811 387.495H331.301V384.585H331.811V387.495ZM331.223 388.461C331.223 388.373 331.255 388.299 331.319 388.239C331.383 388.175 331.467 388.143 331.571 388.143C331.655 388.143 331.729 388.175 331.793 388.239C331.857 388.303 331.889 388.377 331.889 388.461C331.889 388.557 331.859 388.639 331.799 388.707C331.739 388.771 331.663 388.803 331.571 388.803C331.467 388.803 331.383 388.771 331.319 388.707C331.255 388.639 331.223 388.557 331.223 388.461Z" fill="#848484"/>
<path d="M231.97 362.56L233.29 352H242.77V354.4H235.39L234.61 360.07C235.09 359.93 235.65 359.86 236.29 359.86C238.23 359.86 239.82 360.46 241.06 361.66C242.3 362.84 242.92 364.41 242.92 366.37C242.92 368.47 242.26 370.15 240.94 371.41C239.62 372.67 238 373.3 236.08 373.3C234.84 373.3 233.67 373.02 232.57 372.46C231.47 371.9 230.63 371.12 230.05 370.12L231.43 368.35C231.91 369.13 232.58 369.75 233.44 370.21C234.32 370.67 235.22 370.9 236.14 370.9C237.34 370.9 238.34 370.48 239.14 369.64C239.96 368.78 240.37 367.72 240.37 366.46C240.37 365.18 239.9 364.12 238.96 363.28C238.04 362.44 236.81 362.02 235.27 362.02C234.01 362.02 232.91 362.2 231.97 362.56Z" fill="#D9D9D9"/>
<path d="M228.753 335.961C228.732 336.097 228.825 336.225 228.961 336.247C229.097 336.268 229.225 336.175 229.247 336.039L228.753 335.961ZM234.792 299.317C235.519 299.432 236.202 298.935 236.317 298.208C236.432 297.481 235.935 296.798 235.208 296.683C234.481 296.568 233.798 297.065 233.683 297.792C233.568 298.519 234.065 299.202 234.792 299.317ZM229.247 336.039L235.247 298.039L234.753 297.961L228.753 335.961L229.247 336.039Z" fill="#525252"/>
</g>
</svg>
