<svg width="390" height="570" fill="none" xmlns="http://www.w3.org/2000/svg"><mask id="a" style="mask-type:alpha" maskUnits="userSpaceOnUse" x="0" y="0" width="390" height="570"><path fill="#D9D9D9" d="M0 0h390v570H0z"/></mask><g mask="url(#a)"><path fill="#C1C1C1" fill-opacity=".8" d="M61 405h142v55H61z"/><path fill="#fff" d="M57 401h142v55H57z"/><path stroke="#525252" stroke-width=".512" d="M53.256 397.256h141.488v54.488H53.256z"/><path d="M92.764 420h-.871v-3.249h-3.946V420h-.87v-7.174h.87v3.105h3.946v-3.105h.87V420zm5.295-3.433L95.394 420h-.82v-4.612h.82v3.433l2.665-3.433h.82V420h-.82v-3.433zm3.837 3.535c-.348 0-.717-.058-1.107-.174-.376-.123-.642-.273-.8-.451l.421-.615a2.298 2.298 0 001.363.503c.355 0 .646-.069.871-.205.226-.144.338-.328.338-.554a.489.489 0 00-.246-.44c-.157-.103-.375-.154-.656-.154h-.778v-.666h.727a.875.875 0 00.574-.185.603.603 0 00.226-.471.546.546 0 00-.267-.482c-.177-.123-.417-.184-.717-.184-.485 0-.946.17-1.384.512l-.317-.635c.184-.192.44-.342.768-.451.335-.11.687-.164 1.056-.164.546 0 .97.109 1.271.328.307.218.461.522.461.912 0 .533-.27.895-.81 1.086v.021c.301.034.536.153.707.358.171.198.256.441.256.728 0 .424-.181.762-.543 1.015-.355.246-.826.368-1.414.368zm6.169-4.714h1.076l-2.019 2.204 2.213 2.408h-1.137l-2.081-2.357 1.948-2.255zM105.923 420h-.82v-4.612h.82V420zm4.403-.574c-.451-.465-.677-1.042-.677-1.732 0-.697.226-1.271.677-1.722.458-.457 1.052-.686 1.783-.686.731 0 1.322.229 1.773.686.458.451.687 1.025.687 1.722 0 .697-.229 1.274-.687 1.732-.451.451-1.042.676-1.773.676-.724 0-1.319-.225-1.783-.676zm.645-2.91c-.3.3-.45.693-.45 1.178s.146.878.44 1.179c.301.307.683.461 1.148.461.465 0 .844-.15 1.138-.451.3-.308.451-.704.451-1.189 0-.471-.151-.864-.451-1.178-.294-.308-.673-.462-1.138-.462-.465 0-.844.154-1.138.462zm8.327 2.223l.389.595c-.396.512-.987.768-1.773.768-.738 0-1.336-.218-1.793-.655-.451-.438-.677-1.022-.677-1.753 0-.676.222-1.247.666-1.711.444-.465 1.001-.697 1.671-.697.806 0 1.411.201 1.814.604l-.379.646c-.356-.321-.796-.482-1.322-.482a1.53 1.53 0 00-1.118.472c-.307.307-.461.697-.461 1.168 0 .499.157.895.472 1.189.321.301.717.451 1.188.451.533 0 .974-.198 1.323-.595zm4.419-3.351h1.077l-2.019 2.204 2.213 2.408h-1.137l-2.081-2.357 1.947-2.255zM121.576 420h-.82v-4.612h.82V420zm4.403-.574c-.451-.465-.677-1.042-.677-1.732 0-.697.226-1.271.677-1.722.457-.457 1.052-.686 1.783-.686.731 0 1.322.229 1.773.686.458.451.686 1.025.686 1.722 0 .697-.228 1.274-.686 1.732-.451.451-1.042.676-1.773.676-.724 0-1.319-.225-1.783-.676zm.645-2.91c-.3.3-.451.693-.451 1.178s.147.878.441 1.179c.301.307.683.461 1.148.461.464 0 .844-.15 1.137-.451.301-.308.451-.704.451-1.189 0-.471-.15-.864-.451-1.178-.293-.308-.673-.462-1.137-.462-.465 0-.844.154-1.138.462zm5.6 5.534h-.82v-6.662h.82v.543c.164-.191.39-.345.677-.461a2.24 2.24 0 01.891-.184c.656 0 1.172.218 1.548.656.389.43.584.99.584 1.68 0 .704-.222 1.295-.666 1.773-.437.472-1.015.707-1.732.707-.554 0-.987-.105-1.302-.317v2.265zm1.333-5.996c-.547 0-.991.212-1.333.636v2.285c.362.239.772.359 1.23.359.485 0 .871-.154 1.158-.461.294-.315.441-.721.441-1.22 0-.485-.133-.871-.4-1.158-.266-.294-.632-.441-1.096-.441zm3.911 3.372c-.451-.465-.676-1.042-.676-1.732 0-.697.225-1.271.676-1.722.458-.457 1.052-.686 1.783-.686.731 0 1.322.229 1.773.686.458.451.687 1.025.687 1.722 0 .697-.229 1.274-.687 1.732-.451.451-1.042.676-1.773.676-.724 0-1.318-.225-1.783-.676zm.646-2.91c-.301.3-.451.693-.451 1.178s.147.878.44 1.179c.301.307.684.461 1.148.461.465 0 .844-.15 1.138-.451.3-.308.451-.704.451-1.189 0-.471-.151-.864-.451-1.178-.294-.308-.673-.462-1.138-.462-.464 0-.844.154-1.137.462zm8.326 2.223l.389.595c-.396.512-.987.768-1.773.768-.738 0-1.336-.218-1.793-.655-.451-.438-.677-1.022-.677-1.753 0-.676.222-1.247.666-1.711.445-.465 1.001-.697 1.671-.697.806 0 1.411.201 1.814.604l-.379.646c-.356-.321-.796-.482-1.322-.482-.431 0-.803.158-1.117.472-.308.307-.462.697-.462 1.168 0 .499.158.895.472 1.189.321.301.717.451 1.189.451.533 0 .973-.198 1.322-.595zm2.505-2.531h-1.691v-.82h4.201v.82h-1.69V420h-.82v-3.792zm7.608 3.792h-.82v-1.947h-2.562V420h-.82v-4.612h.82v1.896h2.562v-1.896h.82V420zm1.852-.574c-.451-.465-.676-1.042-.676-1.732 0-.697.225-1.271.676-1.722.458-.457 1.052-.686 1.783-.686.731 0 1.322.229 1.773.686.458.451.687 1.025.687 1.722 0 .697-.229 1.274-.687 1.732-.451.451-1.042.676-1.773.676-.724 0-1.318-.225-1.783-.676zm.646-2.91c-.301.3-.451.693-.451 1.178s.147.878.44 1.179c.301.307.684.461 1.148.461.465 0 .844-.15 1.138-.451.3-.308.451-.704.451-1.189 0-.471-.151-.864-.451-1.178-.294-.308-.673-.462-1.138-.462-.464 0-.843.154-1.137.462zm8.264.051L164.651 420h-.82v-4.612h.82v3.433l2.664-3.433h.82V420h-.82v-3.433zm-2.828-3.536h.768c.041.54.304.81.79.81.457 0 .707-.27.748-.81h.768c0 .417-.143.762-.43 1.035-.28.267-.642.4-1.086.4-.486 0-.868-.13-1.148-.39-.274-.266-.41-.614-.41-1.045zm7.44 6.969v-4.612h.144c.061-.007.15-.01.266-.01.117-.007.222-.01.318-.01.506-.014.82-.021.943-.021 1.325 0 1.988.397 1.988 1.189 0 .273-.085.509-.256.707a1.08 1.08 0 01-.666.349v.02c.717.13 1.076.492 1.076 1.086 0 .895-.707 1.343-2.122 1.343-.068 0-.368-.007-.901-.021-.103 0-.216-.003-.339-.01-.123 0-.218-.003-.287-.01h-.164zm1.804-2.07h-.984v1.414c.492.021.807.031.943.031.786 0 1.179-.246 1.179-.738 0-.471-.379-.707-1.138-.707zm-.072-1.917c-.198 0-.502.011-.912.031v1.373h1.035c.281 0 .506-.064.677-.194a.623.623 0 00.256-.523c0-.458-.352-.687-1.056-.687zm3.579.349l-.216-.656a2.89 2.89 0 011.538-.42c.621 0 1.072.153 1.352.461.281.307.421.782.421 1.424V420h-.779v-.594c-.362.444-.854.666-1.476.666-.424 0-.765-.127-1.025-.379-.26-.26-.389-.609-.389-1.046 0-.451.16-.806.481-1.066.321-.266.742-.399 1.261-.399.485 0 .868.099 1.148.297 0-.519-.072-.892-.215-1.117-.144-.226-.421-.338-.831-.338-.416 0-.84.112-1.27.338zm1.127 2.972c.458 0 .854-.198 1.189-.595v-.584c-.287-.205-.632-.307-1.035-.307-.28 0-.516.068-.708.205a.637.637 0 00-.276.553c0 .226.072.403.215.533.15.13.355.195.615.195zm7.317.666h-.82v-3.792h-1.619l-.052.779a9.857 9.857 0 01-.245 1.588c-.103.417-.24.732-.41.943a1.436 1.436 0 01-.523.431 1.8 1.8 0 01-.676.112l-.062-.799a.565.565 0 00.236-.031.803.803 0 00.266-.205c.103-.102.192-.239.267-.41.082-.17.153-.409.215-.717a6.68 6.68 0 00.133-1.076l.082-1.435h3.208V420z" fill="#000"/><path d="M89.93 434h-.51v-3.72h-2.28V434h-.51v-4.2h3.3v4.2zm3.19-.672l.15.378c-.26.236-.597.354-1.013.354-.44 0-.79-.128-1.05-.384-.264-.256-.396-.598-.396-1.026 0-.404.124-.74.372-1.008.244-.268.584-.402 1.02-.402.36 0 .658.116.894.348.24.228.36.524.36.888 0 .116-.01.224-.03.324H91.35c.02.252.114.45.282.594.172.144.392.216.66.216.352 0 .628-.094.828-.282zm-.941-1.638a.879.879 0 00-.588.198.802.802 0 00-.27.522h1.638c-.012-.224-.088-.4-.228-.528-.136-.128-.32-.192-.552-.192zm2.409 3.51h-.48v-3.9h.48v.318c.096-.112.228-.202.396-.27.168-.072.342-.108.522-.108.384 0 .686.128.906.384.228.252.342.58.342.984 0 .412-.13.758-.39 1.038-.256.276-.594.414-1.014.414-.324 0-.578-.062-.762-.186v1.326zm.78-3.51c-.32 0-.58.124-.78.372v1.338c.212.14.452.21.72.21.284 0 .51-.09.678-.27.172-.184.258-.422.258-.714 0-.284-.078-.51-.234-.678-.156-.172-.37-.258-.642-.258zm4.204 1.638l.15.378c-.26.236-.598.354-1.014.354-.44 0-.79-.128-1.05-.384-.264-.256-.396-.598-.396-1.026 0-.404.124-.74.372-1.008.244-.268.584-.402 1.02-.402.36 0 .658.116.894.348.24.228.36.524.36.888 0 .116-.01.224-.03.324h-2.076c.02.252.114.45.282.594.172.144.392.216.66.216.352 0 .628-.094.828-.282zm-.942-1.638a.879.879 0 00-.588.198.802.802 0 00-.27.522h1.638c-.012-.224-.088-.4-.228-.528-.136-.128-.32-.192-.552-.192zm1.901 2.97h-.45v-1.11h.336c.1-.124.188-.324.264-.6.076-.28.126-.592.15-.936l.042-.714h1.842v2.25h.45v1.11h-.45V434h-2.184v.66zm.792-2.91l-.03.45c-.024.3-.072.574-.144.822s-.146.424-.222.528h1.308v-1.8h-.912zm2.509.12l-.126-.384a1.69 1.69 0 01.9-.246c.364 0 .628.09.792.27.164.18.246.458.246.834V434h-.456v-.348c-.212.26-.5.39-.864.39-.248 0-.448-.074-.6-.222-.152-.152-.228-.356-.228-.612a.76.76 0 01.282-.624c.188-.156.434-.234.738-.234.284 0 .508.058.672.174 0-.304-.042-.522-.126-.654-.084-.132-.246-.198-.486-.198-.244 0-.492.066-.744.198zm.66 1.74c.268 0 .5-.116.696-.348v-.342c-.168-.12-.37-.18-.606-.18a.694.694 0 00-.414.12.373.373 0 00-.162.324.4.4 0 00.126.312.532.532 0 00.36.114zm4.086-.282l.15.378c-.26.236-.598.354-1.014.354-.44 0-.79-.128-1.05-.384-.264-.256-.396-.598-.396-1.026 0-.404.124-.74.372-1.008.244-.268.584-.402 1.02-.402.36 0 .658.116.894.348.24.228.36.524.36.888 0 .116-.01.224-.03.324h-2.076c.02.252.114.45.282.594.172.144.392.216.66.216.352 0 .628-.094.828-.282zm-.942-1.638a.879.879 0 00-.588.198.802.802 0 00-.27.522h1.638c-.012-.224-.088-.4-.228-.528-.136-.128-.32-.192-.552-.192zm2.524.09h-.99v-.48h2.46v.48h-.99V434h-.48v-2.22zm5.094 1.044h-1.332v-.39h1.326a.813.813 0 00-.306-.552c-.164-.128-.374-.192-.63-.192-.332 0-.608.098-.828.294l-.204-.36c.116-.116.27-.208.462-.276a1.6 1.6 0 01.564-.108c.432 0 .778.128 1.038.384.268.256.402.598.402 1.026 0 .396-.13.73-.39 1.002s-.586.408-.978.408c-.488 0-.85-.114-1.086-.342l.228-.354c.184.164.46.246.828.246.252 0 .458-.068.618-.204a.893.893 0 00.288-.582zm3.644 1.176h-.48v-1.14h-1.5V434h-.48v-2.7h.48v1.11h1.5v-1.11h.48v2.7zm2.998-.672l.15.378c-.26.236-.598.354-1.014.354-.44 0-.79-.128-1.05-.384-.264-.256-.396-.598-.396-1.026 0-.404.124-.74.372-1.008.244-.268.584-.402 1.02-.402.36 0 .658.116.894.348.24.228.36.524.36.888 0 .116-.01.224-.03.324h-2.076c.02.252.114.45.282.594.172.144.392.216.66.216.352 0 .628-.094.828-.282zm-.942-1.638a.879.879 0 00-.588.198.802.802 0 00-.27.522h1.638c-.012-.224-.088-.4-.228-.528-.136-.128-.32-.192-.552-.192zm2.409 3.51h-.48v-3.9h.48v.318c.096-.112.228-.202.396-.27.168-.072.342-.108.522-.108.384 0 .686.128.906.384.228.252.342.58.342.984 0 .412-.13.758-.39 1.038-.256.276-.594.414-1.014.414-.324 0-.578-.062-.762-.186v1.326zm.78-3.51c-.32 0-.58.124-.78.372v1.338c.212.14.452.21.72.21.284 0 .51-.09.678-.27.172-.184.258-.422.258-.714 0-.284-.078-.51-.234-.678-.156-.172-.37-.258-.642-.258zm2.554 2.31h-.48v-2.7h1.71v.45h-1.23V434zm3.734-2.01l-1.56 2.01h-.48v-2.7h.48v2.01l1.56-2.01h.48v2.7h-.48v-2.01zm1.863 2.01h-.51v-2.7h.51v1.08h.588c.056-.344.206-.62.45-.828.248-.208.552-.312.912-.312.424 0 .764.134 1.02.402.26.268.39.604.39 1.008s-.132.742-.396 1.014c-.26.264-.598.396-1.014.396-.38 0-.692-.11-.936-.33a1.347 1.347 0 01-.432-.87h-.582V434zm1.35-2.022c-.16.172-.24.396-.24.672s.08.5.24.672c.16.172.366.258.618.258a.796.796 0 00.612-.252c.16-.172.24-.398.24-.678 0-.276-.078-.5-.234-.672a.794.794 0 00-.618-.258.806.806 0 00-.618.258zM137.69 434v-2.7h.084c.036-.004.088-.006.156-.006a29.46 29.46 0 01.738-.018c.776 0 1.164.232 1.164.696 0 .16-.05.298-.15.414a.63.63 0 01-.39.204v.012c.42.076.63.288.63.636 0 .524-.414.786-1.242.786a43.513 43.513 0 01-.894-.024h-.096zm1.056-1.212h-.576v.828c.288.012.472.018.552.018.46 0 .69-.144.69-.432 0-.276-.222-.414-.666-.414zm-.042-1.122c-.116 0-.294.006-.534.018v.804h.606a.638.638 0 00.396-.114c.1-.076.15-.178.15-.306 0-.268-.206-.402-.618-.402zm2.431 3.534h-.48v-3.9h.48v.318c.096-.112.228-.202.396-.27.168-.072.342-.108.522-.108.384 0 .686.128.906.384.228.252.342.58.342.984 0 .412-.13.758-.39 1.038-.256.276-.594.414-1.014.414-.324 0-.578-.062-.762-.186v1.326zm.78-3.51c-.32 0-.58.124-.78.372v1.338c.212.14.452.21.72.21.284 0 .51-.09.678-.27.172-.184.258-.422.258-.714 0-.284-.078-.51-.234-.678-.156-.172-.37-.258-.642-.258zm2.218.18l-.126-.384a1.69 1.69 0 01.9-.246c.364 0 .628.09.792.27.164.18.246.458.246.834V434h-.456v-.348c-.212.26-.5.39-.864.39-.248 0-.448-.074-.6-.222-.152-.152-.228-.356-.228-.612a.76.76 0 01.282-.624c.188-.156.434-.234.738-.234.284 0 .508.058.672.174 0-.304-.042-.522-.126-.654-.084-.132-.246-.198-.486-.198-.244 0-.492.066-.744.198zm.66 1.74c.268 0 .5-.116.696-.348v-.342c-.168-.12-.37-.18-.606-.18a.694.694 0 00-.414.12.373.373 0 00-.162.324.4.4 0 00.126.312.532.532 0 00.36.114zm5.375.39h-3.42v-2.7h.48v2.25h.99v-2.25h.48v2.25h.99v-2.25h.48v2.25h.45v1.11h-.45V434zm3.105-.672l.15.378c-.26.236-.598.354-1.014.354-.44 0-.79-.128-1.05-.384-.264-.256-.396-.598-.396-1.026 0-.404.124-.74.372-1.008.244-.268.584-.402 1.02-.402.36 0 .658.116.894.348.24.228.36.524.36.888 0 .116-.01.224-.03.324h-2.076c.02.252.114.45.282.594.172.144.392.216.66.216.352 0 .628-.094.828-.282zm-.942-1.638a.879.879 0 00-.588.198.802.802 0 00-.27.522h1.638c-.012-.224-.088-.4-.228-.528-.136-.128-.32-.192-.552-.192zm4.389 2.31h-.48v-1.14h-1.5V434h-.48v-2.7h.48v1.11h1.5v-1.11h.48v2.7zm2.908-2.01l-1.56 2.01h-.48v-2.7h.48v2.01l1.56-2.01h.48v2.7h-.48v-2.01zm2.535-.69h.84v2.7h-.48v-.9h-.522l-.66.9h-.582l.78-1.02a.716.716 0 01-.414-.264.815.815 0 01-.168-.516c0-.276.1-.494.3-.654.2-.164.502-.246.906-.246zm-.696.912c0 .128.05.234.15.318.1.08.218.12.354.12h.552v-.9h-.438c-.204 0-.358.042-.462.126a.41.41 0 00-.156.336zm4.236 2.988h-.48v-3.9h.48v.318c.096-.112.228-.202.396-.27.168-.072.342-.108.522-.108.384 0 .686.128.906.384.228.252.342.58.342.984 0 .412-.13.758-.39 1.038-.256.276-.594.414-1.014.414-.324 0-.578-.062-.762-.186v1.326zm.78-3.51c-.32 0-.58.124-.78.372v1.338c.212.14.452.21.72.21.284 0 .51-.09.678-.27.172-.184.258-.422.258-.714 0-.284-.078-.51-.234-.678-.156-.172-.37-.258-.642-.258zm2.29 1.974a1.399 1.399 0 01-.396-1.014c0-.408.132-.744.396-1.008.268-.268.616-.402 1.044-.402.428 0 .774.134 1.038.402.268.264.402.6.402 1.008 0 .408-.134.746-.402 1.014-.264.264-.61.396-1.038.396-.424 0-.772-.132-1.044-.396zm.378-1.704c-.176.176-.264.406-.264.69 0 .284.086.514.258.69a.9.9 0 00.672.27.89.89 0 00.666-.264.954.954 0 00.264-.696.959.959 0 00-.264-.69.88.88 0 00-.666-.27.88.88 0 00-.666.27zm3.341-.18h-.99v-.48h2.46v.48h-.99V434h-.48v-2.22zm2.123 1.884a1.399 1.399 0 01-.396-1.014c0-.408.132-.744.396-1.008.268-.268.616-.402 1.044-.402.428 0 .774.134 1.038.402.268.264.402.6.402 1.008 0 .408-.134.746-.402 1.014-.264.264-.61.396-1.038.396-.424 0-.772-.132-1.044-.396zm.378-1.704c-.176.176-.264.406-.264.69 0 .284.086.514.258.69a.9.9 0 00.672.27.89.89 0 00.666-.264.954.954 0 00.264-.696.959.959 0 00-.264-.69.88.88 0 00-.666-.27.88.88 0 00-.666.27zm3.278 3.24h-.48v-3.9h.48v.318c.096-.112.228-.202.396-.27.168-.072.342-.108.522-.108.384 0 .686.128.906.384.228.252.342.58.342.984 0 .412-.13.758-.39 1.038-.256.276-.594.414-1.014.414-.324 0-.578-.062-.762-.186v1.326zm.78-3.51c-.32 0-.58.124-.78.372v1.338c.212.14.452.21.72.21.284 0 .51-.09.678-.27.172-.184.258-.422.258-.714 0-.284-.078-.51-.234-.678-.156-.172-.37-.258-.642-.258zm2.218.18l-.126-.384a1.69 1.69 0 01.9-.246c.364 0 .628.09.792.27.164.18.246.458.246.834V434h-.456v-.348c-.212.26-.5.39-.864.39-.248 0-.448-.074-.6-.222-.152-.152-.228-.356-.228-.612a.76.76 0 01.282-.624c.188-.156.434-.234.738-.234.284 0 .508.058.672.174 0-.304-.042-.522-.126-.654-.084-.132-.246-.198-.486-.198-.244 0-.492.066-.744.198zm.66 1.74c.268 0 .5-.116.696-.348v-.342c-.168-.12-.37-.18-.606-.18a.694.694 0 00-.414.12.373.373 0 00-.162.324.4.4 0 00.126.312.532.532 0 00.36.114zM86.432 442v-2.7h.084c.036-.004.088-.006.156-.006a29.46 29.46 0 01.738-.018c.776 0 1.164.232 1.164.696 0 .16-.05.298-.15.414a.63.63 0 01-.39.204v.012c.42.076.63.288.63.636 0 .524-.414.786-1.242.786a43.513 43.513 0 01-.894-.024h-.096zm1.056-1.212h-.576v.828c.288.012.472.018.552.018.46 0 .69-.144.69-.432 0-.276-.222-.414-.666-.414zm-.042-1.122c-.116 0-.294.006-.534.018v.804h.606a.638.638 0 00.396-.114c.1-.076.15-.178.15-.306 0-.268-.206-.402-.618-.402zM91.225 442h-.48v-2.7h1.71v.45h-1.23V442zm1.821-.336a1.399 1.399 0 01-.396-1.014c0-.408.132-.744.396-1.008.268-.268.616-.402 1.044-.402.428 0 .774.134 1.038.402.268.264.402.6.402 1.008 0 .408-.134.746-.402 1.014-.264.264-.61.396-1.038.396-.424 0-.772-.132-1.044-.396zm.378-1.704c-.176.176-.264.406-.264.69 0 .284.086.514.258.69a.9.9 0 00.672.27.89.89 0 00.666-.264.954.954 0 00.264-.696.959.959 0 00-.264-.69.88.88 0 00-.666-.27.88.88 0 00-.666.27zm5.259 2.04h-.48v-1.14h-1.5V442h-.48v-2.7h.48v1.11h1.5v-1.11h.48v2.7zm.946.66h-.45v-1.11h.336c.1-.124.188-.324.264-.6.076-.28.126-.592.15-.936l.042-.714h1.842v2.25h.45v1.11h-.45V442h-2.184v.66zm.792-2.91l-.03.45c-.024.3-.072.574-.144.822s-.146.424-.222.528h1.308v-1.8h-.912zm2.581 1.914a1.399 1.399 0 01-.396-1.014c0-.408.132-.744.396-1.008.268-.268.616-.402 1.044-.402.428 0 .774.134 1.038.402.268.264.402.6.402 1.008 0 .408-.134.746-.402 1.014-.264.264-.61.396-1.038.396-.424 0-.772-.132-1.044-.396zm.378-1.704c-.176.176-.264.406-.264.69 0 .284.086.514.258.69a.9.9 0 00.672.27.89.89 0 00.666-.264.954.954 0 00.264-.696.959.959 0 00-.264-.69.88.88 0 00-.666-.27.88.88 0 00-.666.27zm5.021 2.04h-.48v-2.22h-.948l-.03.456c-.032.372-.08.682-.144.93-.06.244-.14.428-.24.552a.837.837 0 01-.306.252c-.108.044-.24.066-.396.066l-.036-.468a.337.337 0 00.138-.018.48.48 0 00.156-.12c.06-.06.112-.14.156-.24.048-.1.09-.24.126-.42.04-.184.066-.394.078-.63l.048-.84h1.878v2.7zm2.773-2.7h.546l-1.08 2.7c-.196.476-.366.792-.51.948-.152.168-.326.252-.522.252a.892.892 0 01-.51-.168l.156-.366c.128.06.228.09.3.09a.398.398 0 00.3-.144c.092-.096.184-.252.276-.468l.06-.144-1.296-2.7h.576l.792 1.716c.016.028.07.164.162.408.036-.132.078-.27.126-.414l.624-1.71zm.673 2.376c0-.084.032-.158.096-.222a.346.346 0 01.246-.096c.084 0 .158.032.222.096a.305.305 0 01.096.222c0 .096-.03.178-.09.246a.299.299 0 01-.228.096.346.346 0 01-.246-.096.346.346 0 01-.096-.246zm5.59-.468l.204.384c-.14.144-.33.258-.57.342-.24.084-.492.126-.756.126-.628 0-1.142-.196-1.542-.588-.392-.4-.588-.924-.588-1.572 0-.624.188-1.138.564-1.542.376-.412.886-.618 1.53-.618.532 0 .958.136 1.278.408l-.234.384c-.28-.208-.626-.312-1.038-.312-.456 0-.83.156-1.122.468-.292.308-.438.712-.438 1.212s.15.906.45 1.218c.308.308.704.462 1.188.462.408 0 .766-.124 1.074-.372zm.869.456a1.399 1.399 0 01-.396-1.014c0-.408.132-.744.396-1.008.268-.268.616-.402 1.044-.402.428 0 .774.134 1.038.402.268.264.402.6.402 1.008 0 .408-.134.746-.402 1.014-.264.264-.61.396-1.038.396-.424 0-.772-.132-1.044-.396zm.378-1.704c-.176.176-.264.406-.264.69 0 .284.086.514.258.69a.9.9 0 00.672.27.89.89 0 00.666-.264.954.954 0 00.264-.696.959.959 0 00-.264-.69.88.88 0 00-.666-.27.88.88 0 00-.666.27zm4.929 1.368l.15.378c-.26.236-.598.354-1.014.354-.44 0-.79-.128-1.05-.384-.264-.256-.396-.598-.396-1.026 0-.404.124-.74.372-1.008.244-.268.584-.402 1.02-.402.36 0 .658.116.894.348.24.228.36.524.36.888 0 .116-.01.224-.03.324h-2.076c.02.252.114.45.282.594.172.144.392.216.66.216.352 0 .628-.094.828-.282zm-.942-1.638a.879.879 0 00-.588.198.802.802 0 00-.27.522h1.638c-.012-.224-.088-.4-.228-.528-.136-.128-.32-.192-.552-.192zm1.902 2.97h-.45v-1.11h.335c.101-.124.189-.324.265-.6.076-.28.126-.592.15-.936l.042-.714h1.842v2.25h.45v1.11h-.45V442h-2.184v.66zm.792-2.91l-.03.45c-.024.3-.072.574-.144.822s-.146.424-.222.528h1.308v-1.8h-.912zm4.404.24l-1.56 2.01h-.48v-2.7h.48v2.01l1.56-2.01h.48v2.7h-.48v-2.01zm3.812 2.01h-.48v-1.14h-1.5V442h-.48v-2.7h.48v1.11h1.5v-1.11h.48v2.7zm2.999-.672l.15.378c-.26.236-.598.354-1.014.354-.44 0-.79-.128-1.05-.384-.264-.256-.396-.598-.396-1.026 0-.404.124-.74.372-1.008.244-.268.584-.402 1.02-.402.36 0 .658.116.894.348.24.228.36.524.36.888 0 .116-.01.224-.03.324h-2.076c.02.252.114.45.282.594.172.144.392.216.66.216.352 0 .628-.094.828-.282zm-.942-1.638a.879.879 0 00-.588.198.802.802 0 00-.27.522h1.638c-.012-.224-.088-.4-.228-.528-.136-.128-.32-.192-.552-.192zm4.389 2.31h-.48v-1.14h-1.5V442h-.48v-2.7h.48v1.11h1.5v-1.11h.48v2.7zm4.292-.738l.228.348c-.232.3-.578.45-1.038.45-.432 0-.782-.128-1.05-.384-.264-.256-.396-.598-.396-1.026 0-.396.13-.73.39-1.002s.586-.408.978-.408c.472 0 .826.118 1.062.354l-.222.378a1.111 1.111 0 00-.774-.282.894.894 0 00-.654.276.927.927 0 00-.27.684c0 .292.092.524.276.696a.98.98 0 00.696.264c.312 0 .57-.116.774-.348zM147 443.2h-.48v-3.9h.48v.318c.096-.112.228-.202.396-.27.168-.072.342-.108.522-.108.384 0 .686.128.906.384.228.252.342.58.342.984 0 .412-.13.758-.39 1.038-.256.276-.594.414-1.014.414-.324 0-.578-.062-.762-.186v1.326zm.78-3.51c-.32 0-.58.124-.78.372v1.338c.212.14.452.21.72.21.284 0 .51-.09.678-.27.172-.184.258-.422.258-.714 0-.284-.078-.51-.234-.678-.156-.172-.37-.258-.642-.258zm4.204 1.638l.15.378c-.26.236-.598.354-1.014.354-.44 0-.79-.128-1.05-.384-.264-.256-.396-.598-.396-1.026 0-.404.124-.74.372-1.008.244-.268.584-.402 1.02-.402.36 0 .658.116.894.348.24.228.36.524.36.888 0 .116-.01.224-.03.324h-2.076c.02.252.114.45.282.594.172.144.392.216.66.216.352 0 .628-.094.828-.282zm-.942-1.638a.879.879 0 00-.588.198.802.802 0 00-.27.522h1.638c-.012-.224-.088-.4-.228-.528-.136-.128-.32-.192-.552-.192zm1.902 2.97h-.45v-1.11h.336c.1-.124.188-.324.264-.6.076-.28.126-.592.15-.936l.042-.714h1.842v2.25h.45v1.11h-.45V442h-2.184v.66zm.792-2.91l-.03.45c-.024.3-.072.574-.144.822s-.146.424-.222.528h1.308v-1.8h-.912zm4.272-.45h.546l-1.08 2.7c-.196.476-.366.792-.51.948-.152.168-.326.252-.522.252a.892.892 0 01-.51-.168l.156-.366c.128.06.228.09.3.09a.398.398 0 00.3-.144c.092-.096.184-.252.276-.468l.06-.144-1.296-2.7h.576l.792 1.716c.016.028.07.164.162.408.036-.132.078-.27.126-.414l.624-1.71zm2.773 0h.63l-1.182 1.29 1.296 1.41h-.666l-1.218-1.38 1.14-1.32zm-1.254 2.7h-.48v-2.7h.48v2.7zm3.157-2.22h-.99v-.48h2.46v.48h-.99V442h-.48v-2.22zm2.122 1.884a1.399 1.399 0 01-.396-1.014c0-.408.132-.744.396-1.008.268-.268.616-.402 1.044-.402.428 0 .774.134 1.038.402.268.264.402.6.402 1.008 0 .408-.134.746-.402 1.014-.264.264-.61.396-1.038.396-.424 0-.772-.132-1.044-.396zm.378-1.704c-.176.176-.264.406-.264.69 0 .284.086.514.258.69a.9.9 0 00.672.27.89.89 0 00.666-.264.954.954 0 00.264-.696.959.959 0 00-.264-.69.88.88 0 00-.666-.27.88.88 0 00-.666.27zm3.279 3.24h-.48v-3.9h.48v.318c.096-.112.228-.202.396-.27.168-.072.342-.108.522-.108.384 0 .686.128.906.384.228.252.342.58.342.984 0 .412-.13.758-.39 1.038-.256.276-.594.414-1.014.414-.324 0-.578-.062-.762-.186v1.326zm.78-3.51c-.32 0-.58.124-.78.372v1.338c.212.14.452.21.72.21.284 0 .51-.09.678-.27.172-.184.258-.422.258-.714 0-.284-.078-.51-.234-.678-.156-.172-.37-.258-.642-.258zm2.29 1.974a1.399 1.399 0 01-.396-1.014c0-.408.132-.744.396-1.008.268-.268.616-.402 1.044-.402.428 0 .774.134 1.038.402.268.264.402.6.402 1.008 0 .408-.134.746-.402 1.014-.264.264-.61.396-1.038.396-.424 0-.772-.132-1.044-.396zm.378-1.704c-.176.176-.264.406-.264.69 0 .284.086.514.258.69a.9.9 0 00.672.27.89.89 0 00.666-.264.954.954 0 00.264-.696.959.959 0 00-.264-.69.88.88 0 00-.666-.27.88.88 0 00-.666.27zm3.278 2.04h-.48v-2.7h.438l1.038 1.338.984-1.338h.426v2.7h-.48v-1.968l-.936 1.254h-.018l-.972-1.254V442zm3.144-.324c0-.084.032-.158.096-.222a.346.346 0 01.246-.096c.084 0 .158.032.222.096a.305.305 0 01.096.222c0 .096-.03.178-.09.246a.299.299 0 01-.228.096.346.346 0 01-.246-.096.346.346 0 01-.096-.246z" fill="#848484"/><path d="M76.69 433h-2.4v-5.25H64.6v-1.71L73.3 412h2.76l-8.31 13.35h6.54v-5.85h2.4v5.85h2.91v2.4h-2.91V433z" fill="#D9D9D9"/><path d="M136.758 396.938a.25.25 0 10.484.124l-.484-.124zm24.912-96.646a1.334 1.334 0 10.66-2.585 1.334 1.334 0 00-.66 2.585zm-24.428 96.77l25-98-.484-.124-25 98 .484.124z" fill="#525252"/></g></svg>