<svg width="390" height="570" viewBox="0 0 390 570" fill="none" xmlns="http://www.w3.org/2000/svg">
<mask id="mask0_1207_55" style="mask-type:alpha" maskUnits="userSpaceOnUse" x="0" y="0" width="390" height="570">
<rect width="390" height="570" fill="#D9D9D9"/>
</mask>
<g mask="url(#mask0_1207_55)">
<rect x="61" y="405" width="142" height="55" fill="#C1C1C1" fill-opacity="0.8"/>
<rect x="57" y="401" width="142" height="55" fill="white"/>
<rect x="53.2562" y="397.256" width="141.488" height="54.4876" stroke="#525252" stroke-width="0.512419"/>
<path d="M92.7639 420H91.8928V416.751H87.9472V420H87.0761V412.826H87.9472V415.931H91.8928V412.826H92.7639V420ZM98.0587 416.567L95.3942 420H94.5743V415.388H95.3942V418.821L98.0587 415.388H98.8786V420H98.0587V416.567ZM101.896 420.102C101.548 420.102 101.179 420.044 100.789 419.928C100.413 419.805 100.147 419.655 99.9898 419.477L100.41 418.862C100.594 419.013 100.813 419.136 101.066 419.231C101.326 419.32 101.561 419.365 101.773 419.365C102.128 419.365 102.419 419.296 102.644 419.16C102.87 419.016 102.982 418.832 102.982 418.606C102.982 418.415 102.9 418.268 102.736 418.166C102.579 418.063 102.361 418.012 102.08 418.012H101.302V417.346H102.029C102.262 417.346 102.453 417.284 102.603 417.161C102.753 417.031 102.829 416.874 102.829 416.69C102.829 416.485 102.74 416.324 102.562 416.208C102.385 416.085 102.145 416.024 101.845 416.024C101.36 416.024 100.899 416.194 100.461 416.536L100.144 415.901C100.328 415.709 100.584 415.559 100.912 415.45C101.247 415.34 101.599 415.286 101.968 415.286C102.514 415.286 102.938 415.395 103.239 415.614C103.546 415.832 103.7 416.136 103.7 416.526C103.7 417.059 103.43 417.421 102.89 417.612V417.633C103.191 417.667 103.426 417.786 103.597 417.991C103.768 418.189 103.853 418.432 103.853 418.719C103.853 419.143 103.672 419.481 103.31 419.734C102.955 419.98 102.484 420.102 101.896 420.102ZM108.065 415.388H109.141L107.122 417.592L109.335 420H108.198L106.117 417.643L108.065 415.388ZM105.923 420H105.103V415.388H105.923V420ZM110.326 419.426C109.875 418.961 109.649 418.384 109.649 417.694C109.649 416.997 109.875 416.423 110.326 415.972C110.784 415.515 111.378 415.286 112.109 415.286C112.84 415.286 113.431 415.515 113.882 415.972C114.34 416.423 114.569 416.997 114.569 417.694C114.569 418.391 114.34 418.968 113.882 419.426C113.431 419.877 112.84 420.102 112.109 420.102C111.385 420.102 110.79 419.877 110.326 419.426ZM110.971 416.516C110.671 416.816 110.521 417.209 110.521 417.694C110.521 418.179 110.667 418.572 110.961 418.873C111.262 419.18 111.644 419.334 112.109 419.334C112.574 419.334 112.953 419.184 113.247 418.883C113.547 418.575 113.698 418.179 113.698 417.694C113.698 417.223 113.547 416.83 113.247 416.516C112.953 416.208 112.574 416.054 112.109 416.054C111.644 416.054 111.265 416.208 110.971 416.516ZM119.298 418.739L119.687 419.334C119.291 419.846 118.7 420.102 117.914 420.102C117.176 420.102 116.578 419.884 116.121 419.447C115.67 419.009 115.444 418.425 115.444 417.694C115.444 417.018 115.666 416.447 116.11 415.983C116.554 415.518 117.111 415.286 117.781 415.286C118.587 415.286 119.192 415.487 119.595 415.89L119.216 416.536C118.86 416.215 118.42 416.054 117.894 416.054C117.463 416.054 117.091 416.212 116.776 416.526C116.469 416.833 116.315 417.223 116.315 417.694C116.315 418.193 116.472 418.589 116.787 418.883C117.108 419.184 117.504 419.334 117.975 419.334C118.508 419.334 118.949 419.136 119.298 418.739ZM123.717 415.388H124.794L122.775 417.592L124.988 420H123.851L121.77 417.643L123.717 415.388ZM121.576 420H120.756V415.388H121.576V420ZM125.979 419.426C125.528 418.961 125.302 418.384 125.302 417.694C125.302 416.997 125.528 416.423 125.979 415.972C126.436 415.515 127.031 415.286 127.762 415.286C128.493 415.286 129.084 415.515 129.535 415.972C129.993 416.423 130.221 416.997 130.221 417.694C130.221 418.391 129.993 418.968 129.535 419.426C129.084 419.877 128.493 420.102 127.762 420.102C127.038 420.102 126.443 419.877 125.979 419.426ZM126.624 416.516C126.324 416.816 126.173 417.209 126.173 417.694C126.173 418.179 126.32 418.572 126.614 418.873C126.915 419.18 127.297 419.334 127.762 419.334C128.226 419.334 128.606 419.184 128.899 418.883C129.2 418.575 129.35 418.179 129.35 417.694C129.35 417.223 129.2 416.83 128.899 416.516C128.606 416.208 128.226 416.054 127.762 416.054C127.297 416.054 126.918 416.208 126.624 416.516ZM132.224 422.05H131.404V415.388H132.224V415.931C132.388 415.74 132.614 415.586 132.901 415.47C133.188 415.347 133.485 415.286 133.792 415.286C134.448 415.286 134.964 415.504 135.34 415.942C135.729 416.372 135.924 416.932 135.924 417.622C135.924 418.326 135.702 418.917 135.258 419.395C134.821 419.867 134.243 420.102 133.526 420.102C132.972 420.102 132.539 419.997 132.224 419.785V422.05ZM133.557 416.054C133.01 416.054 132.566 416.266 132.224 416.69V418.975C132.586 419.214 132.996 419.334 133.454 419.334C133.939 419.334 134.325 419.18 134.612 418.873C134.906 418.558 135.053 418.152 135.053 417.653C135.053 417.168 134.92 416.782 134.653 416.495C134.387 416.201 134.021 416.054 133.557 416.054ZM137.468 419.426C137.017 418.961 136.792 418.384 136.792 417.694C136.792 416.997 137.017 416.423 137.468 415.972C137.926 415.515 138.52 415.286 139.251 415.286C139.982 415.286 140.573 415.515 141.024 415.972C141.482 416.423 141.711 416.997 141.711 417.694C141.711 418.391 141.482 418.968 141.024 419.426C140.573 419.877 139.982 420.102 139.251 420.102C138.527 420.102 137.933 419.877 137.468 419.426ZM138.114 416.516C137.813 416.816 137.663 417.209 137.663 417.694C137.663 418.179 137.81 418.572 138.103 418.873C138.404 419.18 138.787 419.334 139.251 419.334C139.716 419.334 140.095 419.184 140.389 418.883C140.689 418.575 140.84 418.179 140.84 417.694C140.84 417.223 140.689 416.83 140.389 416.516C140.095 416.208 139.716 416.054 139.251 416.054C138.787 416.054 138.407 416.208 138.114 416.516ZM146.44 418.739L146.829 419.334C146.433 419.846 145.842 420.102 145.056 420.102C144.318 420.102 143.72 419.884 143.263 419.447C142.812 419.009 142.586 418.425 142.586 417.694C142.586 417.018 142.808 416.447 143.252 415.983C143.697 415.518 144.253 415.286 144.923 415.286C145.729 415.286 146.334 415.487 146.737 415.89L146.358 416.536C146.002 416.215 145.562 416.054 145.036 416.054C144.605 416.054 144.233 416.212 143.919 416.526C143.611 416.833 143.457 417.223 143.457 417.694C143.457 418.193 143.615 418.589 143.929 418.883C144.25 419.184 144.646 419.334 145.118 419.334C145.651 419.334 146.091 419.136 146.44 418.739ZM148.945 416.208H147.254V415.388H151.455V416.208H149.765V420H148.945V416.208ZM156.553 420H155.733V418.053H153.171V420H152.351V415.388H153.171V417.284H155.733V415.388H156.553V420ZM158.405 419.426C157.954 418.961 157.729 418.384 157.729 417.694C157.729 416.997 157.954 416.423 158.405 415.972C158.863 415.515 159.457 415.286 160.188 415.286C160.919 415.286 161.51 415.515 161.961 415.972C162.419 416.423 162.648 416.997 162.648 417.694C162.648 418.391 162.419 418.968 161.961 419.426C161.51 419.877 160.919 420.102 160.188 420.102C159.464 420.102 158.87 419.877 158.405 419.426ZM159.051 416.516C158.75 416.816 158.6 417.209 158.6 417.694C158.6 418.179 158.747 418.572 159.04 418.873C159.341 419.18 159.724 419.334 160.188 419.334C160.653 419.334 161.032 419.184 161.326 418.883C161.626 418.575 161.777 418.179 161.777 417.694C161.777 417.223 161.626 416.83 161.326 416.516C161.032 416.208 160.653 416.054 160.188 416.054C159.724 416.054 159.345 416.208 159.051 416.516ZM167.315 416.567L164.651 420H163.831V415.388H164.651V418.821L167.315 415.388H168.135V420H167.315V416.567ZM164.487 413.031H165.255C165.296 413.571 165.559 413.841 166.045 413.841C166.502 413.841 166.752 413.571 166.793 413.031H167.561C167.561 413.448 167.418 413.793 167.131 414.066C166.851 414.333 166.489 414.466 166.045 414.466C165.559 414.466 165.177 414.336 164.897 414.076C164.623 413.81 164.487 413.462 164.487 413.031ZM171.927 420V415.388C171.962 415.388 172.009 415.388 172.071 415.388C172.132 415.381 172.221 415.378 172.337 415.378C172.454 415.371 172.559 415.368 172.655 415.368C173.161 415.354 173.475 415.347 173.598 415.347C174.923 415.347 175.586 415.744 175.586 416.536C175.586 416.809 175.501 417.045 175.33 417.243C175.159 417.434 174.937 417.551 174.664 417.592V417.612C175.381 417.742 175.74 418.104 175.74 418.698C175.74 419.593 175.033 420.041 173.618 420.041C173.55 420.041 173.25 420.034 172.717 420.02C172.614 420.02 172.501 420.017 172.378 420.01C172.255 420.01 172.16 420.007 172.091 420C172.023 420 171.968 420 171.927 420ZM173.731 417.93H172.747V419.344C173.239 419.365 173.554 419.375 173.69 419.375C174.476 419.375 174.869 419.129 174.869 418.637C174.869 418.166 174.49 417.93 173.731 417.93ZM173.659 416.013C173.461 416.013 173.157 416.024 172.747 416.044V417.417H173.782C174.063 417.417 174.288 417.353 174.459 417.223C174.63 417.093 174.715 416.919 174.715 416.7C174.715 416.242 174.363 416.013 173.659 416.013ZM177.238 416.362L177.022 415.706C177.48 415.426 177.993 415.286 178.56 415.286C179.181 415.286 179.632 415.439 179.912 415.747C180.193 416.054 180.333 416.529 180.333 417.171V420H179.554V419.406C179.192 419.85 178.7 420.072 178.078 420.072C177.654 420.072 177.313 419.945 177.053 419.693C176.793 419.433 176.664 419.084 176.664 418.647C176.664 418.196 176.824 417.841 177.145 417.581C177.466 417.315 177.887 417.182 178.406 417.182C178.891 417.182 179.274 417.281 179.554 417.479C179.554 416.96 179.482 416.587 179.339 416.362C179.195 416.136 178.918 416.024 178.508 416.024C178.092 416.024 177.668 416.136 177.238 416.362ZM178.365 419.334C178.823 419.334 179.219 419.136 179.554 418.739V418.155C179.267 417.95 178.922 417.848 178.519 417.848C178.239 417.848 178.003 417.916 177.811 418.053C177.627 418.183 177.535 418.367 177.535 418.606C177.535 418.832 177.607 419.009 177.75 419.139C177.9 419.269 178.105 419.334 178.365 419.334ZM185.682 420H184.862V416.208H183.243L183.191 416.987C183.137 417.622 183.055 418.152 182.946 418.575C182.843 418.992 182.706 419.307 182.536 419.518C182.372 419.723 182.197 419.867 182.013 419.949C181.828 420.024 181.603 420.061 181.337 420.061L181.275 419.262C181.35 419.269 181.429 419.259 181.511 419.231C181.593 419.197 181.682 419.129 181.777 419.026C181.88 418.924 181.969 418.787 182.044 418.616C182.126 418.446 182.197 418.207 182.259 417.899C182.327 417.585 182.372 417.226 182.392 416.823L182.474 415.388H185.682V420Z" fill="black"/>
<path d="M89.93 434H89.42V430.28H87.14V434H86.63V429.8H89.93V434ZM93.1206 433.328L93.2706 433.706C93.0106 433.942 92.6726 434.06 92.2566 434.06C91.8166 434.06 91.4666 433.932 91.2066 433.676C90.9426 433.42 90.8106 433.078 90.8106 432.65C90.8106 432.246 90.9346 431.91 91.1826 431.642C91.4266 431.374 91.7666 431.24 92.2026 431.24C92.5626 431.24 92.8606 431.356 93.0966 431.588C93.3366 431.816 93.4566 432.112 93.4566 432.476C93.4566 432.592 93.4466 432.7 93.4266 432.8H91.3506C91.3706 433.052 91.4646 433.25 91.6326 433.394C91.8046 433.538 92.0246 433.61 92.2926 433.61C92.6446 433.61 92.9206 433.516 93.1206 433.328ZM92.1786 431.69C91.9426 431.69 91.7466 431.756 91.5906 431.888C91.4386 432.02 91.3486 432.194 91.3206 432.41H92.9586C92.9466 432.186 92.8706 432.01 92.7306 431.882C92.5946 431.754 92.4106 431.69 92.1786 431.69ZM94.5878 435.2H94.1078V431.3H94.5878V431.618C94.6838 431.506 94.8158 431.416 94.9838 431.348C95.1518 431.276 95.3258 431.24 95.5058 431.24C95.8898 431.24 96.1918 431.368 96.4118 431.624C96.6398 431.876 96.7538 432.204 96.7538 432.608C96.7538 433.02 96.6238 433.366 96.3638 433.646C96.1078 433.922 95.7698 434.06 95.3498 434.06C95.0258 434.06 94.7718 433.998 94.5878 433.874V435.2ZM95.3678 431.69C95.0478 431.69 94.7878 431.814 94.5878 432.062V433.4C94.7998 433.54 95.0398 433.61 95.3078 433.61C95.5918 433.61 95.8178 433.52 95.9858 433.34C96.1578 433.156 96.2438 432.918 96.2438 432.626C96.2438 432.342 96.1658 432.116 96.0098 431.948C95.8538 431.776 95.6398 431.69 95.3678 431.69ZM99.5718 433.328L99.7218 433.706C99.4618 433.942 99.1238 434.06 98.7078 434.06C98.2678 434.06 97.9178 433.932 97.6578 433.676C97.3938 433.42 97.2618 433.078 97.2618 432.65C97.2618 432.246 97.3858 431.91 97.6338 431.642C97.8778 431.374 98.2178 431.24 98.6538 431.24C99.0138 431.24 99.3118 431.356 99.5478 431.588C99.7878 431.816 99.9078 432.112 99.9078 432.476C99.9078 432.592 99.8978 432.7 99.8778 432.8H97.8018C97.8218 433.052 97.9158 433.25 98.0838 433.394C98.2558 433.538 98.4758 433.61 98.7438 433.61C99.0958 433.61 99.3718 433.516 99.5718 433.328ZM98.6298 431.69C98.3938 431.69 98.1978 431.756 98.0418 431.888C97.8898 432.02 97.7998 432.194 97.7718 432.41H99.4098C99.3978 432.186 99.3218 432.01 99.1818 431.882C99.0458 431.754 98.8618 431.69 98.6298 431.69ZM100.531 434.66H100.081V433.55H100.417C100.517 433.426 100.605 433.226 100.681 432.95C100.757 432.67 100.807 432.358 100.831 432.014L100.873 431.3H102.715V433.55H103.165V434.66H102.715V434H100.531V434.66ZM101.323 431.75L101.293 432.2C101.269 432.5 101.221 432.774 101.149 433.022C101.077 433.27 101.003 433.446 100.927 433.55H102.235V431.75H101.323ZM103.832 431.87L103.706 431.486C103.974 431.322 104.274 431.24 104.606 431.24C104.97 431.24 105.234 431.33 105.398 431.51C105.562 431.69 105.644 431.968 105.644 432.344V434H105.188V433.652C104.976 433.912 104.688 434.042 104.324 434.042C104.076 434.042 103.876 433.968 103.724 433.82C103.572 433.668 103.496 433.464 103.496 433.208C103.496 432.944 103.59 432.736 103.778 432.584C103.966 432.428 104.212 432.35 104.516 432.35C104.8 432.35 105.024 432.408 105.188 432.524C105.188 432.22 105.146 432.002 105.062 431.87C104.978 431.738 104.816 431.672 104.576 431.672C104.332 431.672 104.084 431.738 103.832 431.87ZM104.492 433.61C104.76 433.61 104.992 433.494 105.188 433.262V432.92C105.02 432.8 104.818 432.74 104.582 432.74C104.418 432.74 104.28 432.78 104.168 432.86C104.06 432.936 104.006 433.044 104.006 433.184C104.006 433.316 104.048 433.42 104.132 433.496C104.22 433.572 104.34 433.61 104.492 433.61ZM108.578 433.328L108.728 433.706C108.468 433.942 108.13 434.06 107.714 434.06C107.274 434.06 106.924 433.932 106.664 433.676C106.4 433.42 106.268 433.078 106.268 432.65C106.268 432.246 106.392 431.91 106.64 431.642C106.884 431.374 107.224 431.24 107.66 431.24C108.02 431.24 108.318 431.356 108.554 431.588C108.794 431.816 108.914 432.112 108.914 432.476C108.914 432.592 108.904 432.7 108.884 432.8H106.808C106.828 433.052 106.922 433.25 107.09 433.394C107.262 433.538 107.482 433.61 107.75 433.61C108.102 433.61 108.378 433.516 108.578 433.328ZM107.636 431.69C107.4 431.69 107.204 431.756 107.048 431.888C106.896 432.02 106.806 432.194 106.778 432.41H108.416C108.404 432.186 108.328 432.01 108.188 431.882C108.052 431.754 107.868 431.69 107.636 431.69ZM110.16 431.78H109.17V431.3H111.63V431.78H110.64V434H110.16V431.78ZM115.254 432.824H113.922V432.434H115.248C115.212 432.194 115.11 432.01 114.942 431.882C114.778 431.754 114.568 431.69 114.312 431.69C113.98 431.69 113.704 431.788 113.484 431.984L113.28 431.624C113.396 431.508 113.55 431.416 113.742 431.348C113.934 431.276 114.122 431.24 114.306 431.24C114.738 431.24 115.084 431.368 115.344 431.624C115.612 431.88 115.746 432.222 115.746 432.65C115.746 433.046 115.616 433.38 115.356 433.652C115.096 433.924 114.77 434.06 114.378 434.06C113.89 434.06 113.528 433.946 113.292 433.718L113.52 433.364C113.704 433.528 113.98 433.61 114.348 433.61C114.6 433.61 114.806 433.542 114.966 433.406C115.126 433.266 115.222 433.072 115.254 432.824ZM118.898 434H118.418V432.86H116.918V434H116.438V431.3H116.918V432.41H118.418V431.3H118.898V434ZM121.896 433.328L122.046 433.706C121.786 433.942 121.448 434.06 121.032 434.06C120.592 434.06 120.242 433.932 119.982 433.676C119.718 433.42 119.586 433.078 119.586 432.65C119.586 432.246 119.71 431.91 119.958 431.642C120.202 431.374 120.542 431.24 120.978 431.24C121.338 431.24 121.636 431.356 121.872 431.588C122.112 431.816 122.232 432.112 122.232 432.476C122.232 432.592 122.222 432.7 122.202 432.8H120.126C120.146 433.052 120.24 433.25 120.408 433.394C120.58 433.538 120.8 433.61 121.068 433.61C121.42 433.61 121.696 433.516 121.896 433.328ZM120.954 431.69C120.718 431.69 120.522 431.756 120.366 431.888C120.214 432.02 120.124 432.194 120.096 432.41H121.734C121.722 432.186 121.646 432.01 121.506 431.882C121.37 431.754 121.186 431.69 120.954 431.69ZM123.363 435.2H122.883V431.3H123.363V431.618C123.459 431.506 123.591 431.416 123.759 431.348C123.927 431.276 124.101 431.24 124.281 431.24C124.665 431.24 124.967 431.368 125.187 431.624C125.415 431.876 125.529 432.204 125.529 432.608C125.529 433.02 125.399 433.366 125.139 433.646C124.883 433.922 124.545 434.06 124.125 434.06C123.801 434.06 123.547 433.998 123.363 433.874V435.2ZM124.143 431.69C123.823 431.69 123.563 431.814 123.363 432.062V433.4C123.575 433.54 123.815 433.61 124.083 433.61C124.367 433.61 124.593 433.52 124.761 433.34C124.933 433.156 125.019 432.918 125.019 432.626C125.019 432.342 124.941 432.116 124.785 431.948C124.629 431.776 124.415 431.69 124.143 431.69ZM126.697 434H126.217V431.3H127.927V431.75H126.697V434ZM130.431 431.99L128.871 434H128.391V431.3H128.871V433.31L130.431 431.3H130.911V434H130.431V431.99ZM132.294 434H131.784V431.3H132.294V432.38H132.882C132.938 432.036 133.088 431.76 133.332 431.552C133.58 431.344 133.884 431.24 134.244 431.24C134.668 431.24 135.008 431.374 135.264 431.642C135.524 431.91 135.654 432.246 135.654 432.65C135.654 433.054 135.522 433.392 135.258 433.664C134.998 433.928 134.66 434.06 134.244 434.06C133.864 434.06 133.552 433.95 133.308 433.73C133.064 433.51 132.92 433.22 132.876 432.86H132.294V434ZM133.644 431.978C133.484 432.15 133.404 432.374 133.404 432.65C133.404 432.926 133.484 433.15 133.644 433.322C133.804 433.494 134.01 433.58 134.262 433.58C134.514 433.58 134.718 433.496 134.874 433.328C135.034 433.156 135.114 432.93 135.114 432.65C135.114 432.374 135.036 432.15 134.88 431.978C134.724 431.806 134.518 431.72 134.262 431.72C134.01 431.72 133.804 431.806 133.644 431.978ZM137.69 434V431.3C137.71 431.3 137.738 431.3 137.774 431.3C137.81 431.296 137.862 431.294 137.93 431.294C137.998 431.29 138.06 431.288 138.116 431.288C138.412 431.28 138.596 431.276 138.668 431.276C139.444 431.276 139.832 431.508 139.832 431.972C139.832 432.132 139.782 432.27 139.682 432.386C139.582 432.498 139.452 432.566 139.292 432.59V432.602C139.712 432.678 139.922 432.89 139.922 433.238C139.922 433.762 139.508 434.024 138.68 434.024C138.64 434.024 138.464 434.02 138.152 434.012C138.092 434.012 138.026 434.01 137.954 434.006C137.882 434.006 137.826 434.004 137.786 434C137.746 434 137.714 434 137.69 434ZM138.746 432.788H138.17V433.616C138.458 433.628 138.642 433.634 138.722 433.634C139.182 433.634 139.412 433.49 139.412 433.202C139.412 432.926 139.19 432.788 138.746 432.788ZM138.704 431.666C138.588 431.666 138.41 431.672 138.17 431.684V432.488H138.776C138.94 432.488 139.072 432.45 139.172 432.374C139.272 432.298 139.322 432.196 139.322 432.068C139.322 431.8 139.116 431.666 138.704 431.666ZM141.135 435.2H140.655V431.3H141.135V431.618C141.231 431.506 141.363 431.416 141.531 431.348C141.699 431.276 141.873 431.24 142.053 431.24C142.437 431.24 142.739 431.368 142.959 431.624C143.187 431.876 143.301 432.204 143.301 432.608C143.301 433.02 143.171 433.366 142.911 433.646C142.655 433.922 142.317 434.06 141.897 434.06C141.573 434.06 141.319 433.998 141.135 433.874V435.2ZM141.915 431.69C141.595 431.69 141.335 431.814 141.135 432.062V433.4C141.347 433.54 141.587 433.61 141.855 433.61C142.139 433.61 142.365 433.52 142.533 433.34C142.705 433.156 142.791 432.918 142.791 432.626C142.791 432.342 142.713 432.116 142.557 431.948C142.401 431.776 142.187 431.69 141.915 431.69ZM144.133 431.87L144.007 431.486C144.275 431.322 144.575 431.24 144.907 431.24C145.271 431.24 145.535 431.33 145.699 431.51C145.863 431.69 145.945 431.968 145.945 432.344V434H145.489V433.652C145.277 433.912 144.989 434.042 144.625 434.042C144.377 434.042 144.177 433.968 144.025 433.82C143.873 433.668 143.797 433.464 143.797 433.208C143.797 432.944 143.891 432.736 144.079 432.584C144.267 432.428 144.513 432.35 144.817 432.35C145.101 432.35 145.325 432.408 145.489 432.524C145.489 432.22 145.447 432.002 145.363 431.87C145.279 431.738 145.117 431.672 144.877 431.672C144.633 431.672 144.385 431.738 144.133 431.87ZM144.793 433.61C145.061 433.61 145.293 433.494 145.489 433.262V432.92C145.321 432.8 145.119 432.74 144.883 432.74C144.719 432.74 144.581 432.78 144.469 432.86C144.361 432.936 144.307 433.044 144.307 433.184C144.307 433.316 144.349 433.42 144.433 433.496C144.521 433.572 144.641 433.61 144.793 433.61ZM150.168 434H146.748V431.3H147.228V433.55H148.218V431.3H148.698V433.55H149.688V431.3H150.168V433.55H150.618V434.66H150.168V434ZM153.273 433.328L153.423 433.706C153.163 433.942 152.825 434.06 152.409 434.06C151.969 434.06 151.619 433.932 151.359 433.676C151.095 433.42 150.963 433.078 150.963 432.65C150.963 432.246 151.087 431.91 151.335 431.642C151.579 431.374 151.919 431.24 152.355 431.24C152.715 431.24 153.013 431.356 153.249 431.588C153.489 431.816 153.609 432.112 153.609 432.476C153.609 432.592 153.599 432.7 153.579 432.8H151.503C151.523 433.052 151.617 433.25 151.785 433.394C151.957 433.538 152.177 433.61 152.445 433.61C152.797 433.61 153.073 433.516 153.273 433.328ZM152.331 431.69C152.095 431.69 151.899 431.756 151.743 431.888C151.591 432.02 151.501 432.194 151.473 432.41H153.111C153.099 432.186 153.023 432.01 152.883 431.882C152.747 431.754 152.563 431.69 152.331 431.69ZM156.72 434H156.24V432.86H154.74V434H154.26V431.3H154.74V432.41H156.24V431.3H156.72V434ZM159.628 431.99L158.068 434H157.588V431.3H158.068V433.31L159.628 431.3H160.108V434H159.628V431.99ZM162.163 431.3H163.003V434H162.523V433.1H162.001L161.341 434H160.759L161.539 432.98C161.375 432.944 161.237 432.856 161.125 432.716C161.013 432.572 160.957 432.4 160.957 432.2C160.957 431.924 161.057 431.706 161.257 431.546C161.457 431.382 161.759 431.3 162.163 431.3ZM161.467 432.212C161.467 432.34 161.517 432.446 161.617 432.53C161.717 432.61 161.835 432.65 161.971 432.65H162.523V431.75H162.085C161.881 431.75 161.727 431.792 161.623 431.876C161.519 431.96 161.467 432.072 161.467 432.212ZM165.703 435.2H165.223V431.3H165.703V431.618C165.799 431.506 165.931 431.416 166.099 431.348C166.267 431.276 166.441 431.24 166.621 431.24C167.005 431.24 167.307 431.368 167.527 431.624C167.755 431.876 167.869 432.204 167.869 432.608C167.869 433.02 167.739 433.366 167.479 433.646C167.223 433.922 166.885 434.06 166.465 434.06C166.141 434.06 165.887 433.998 165.703 433.874V435.2ZM166.483 431.69C166.163 431.69 165.903 431.814 165.703 432.062V433.4C165.915 433.54 166.155 433.61 166.423 433.61C166.707 433.61 166.933 433.52 167.101 433.34C167.273 433.156 167.359 432.918 167.359 432.626C167.359 432.342 167.281 432.116 167.125 431.948C166.969 431.776 166.755 431.69 166.483 431.69ZM168.773 433.664C168.509 433.392 168.377 433.054 168.377 432.65C168.377 432.242 168.509 431.906 168.773 431.642C169.041 431.374 169.389 431.24 169.817 431.24C170.245 431.24 170.591 431.374 170.855 431.642C171.123 431.906 171.257 432.242 171.257 432.65C171.257 433.058 171.123 433.396 170.855 433.664C170.591 433.928 170.245 434.06 169.817 434.06C169.393 434.06 169.045 433.928 168.773 433.664ZM169.151 431.96C168.975 432.136 168.887 432.366 168.887 432.65C168.887 432.934 168.973 433.164 169.145 433.34C169.321 433.52 169.545 433.61 169.817 433.61C170.089 433.61 170.311 433.522 170.483 433.346C170.659 433.166 170.747 432.934 170.747 432.65C170.747 432.374 170.659 432.144 170.483 431.96C170.311 431.78 170.089 431.69 169.817 431.69C169.545 431.69 169.323 431.78 169.151 431.96ZM172.492 431.78H171.502V431.3H173.962V431.78H172.972V434H172.492V431.78ZM174.615 433.664C174.351 433.392 174.219 433.054 174.219 432.65C174.219 432.242 174.351 431.906 174.615 431.642C174.883 431.374 175.231 431.24 175.659 431.24C176.087 431.24 176.433 431.374 176.697 431.642C176.965 431.906 177.099 432.242 177.099 432.65C177.099 433.058 176.965 433.396 176.697 433.664C176.433 433.928 176.087 434.06 175.659 434.06C175.235 434.06 174.887 433.928 174.615 433.664ZM174.993 431.96C174.817 432.136 174.729 432.366 174.729 432.65C174.729 432.934 174.815 433.164 174.987 433.34C175.163 433.52 175.387 433.61 175.659 433.61C175.931 433.61 176.153 433.522 176.325 433.346C176.501 433.166 176.589 432.934 176.589 432.65C176.589 432.374 176.501 432.144 176.325 431.96C176.153 431.78 175.931 431.69 175.659 431.69C175.387 431.69 175.165 431.78 174.993 431.96ZM178.271 435.2H177.791V431.3H178.271V431.618C178.367 431.506 178.499 431.416 178.667 431.348C178.835 431.276 179.009 431.24 179.189 431.24C179.573 431.24 179.875 431.368 180.095 431.624C180.323 431.876 180.437 432.204 180.437 432.608C180.437 433.02 180.307 433.366 180.047 433.646C179.791 433.922 179.453 434.06 179.033 434.06C178.709 434.06 178.455 433.998 178.271 433.874V435.2ZM179.051 431.69C178.731 431.69 178.471 431.814 178.271 432.062V433.4C178.483 433.54 178.723 433.61 178.991 433.61C179.275 433.61 179.501 433.52 179.669 433.34C179.841 433.156 179.927 432.918 179.927 432.626C179.927 432.342 179.849 432.116 179.693 431.948C179.537 431.776 179.323 431.69 179.051 431.69ZM181.269 431.87L181.143 431.486C181.411 431.322 181.711 431.24 182.043 431.24C182.407 431.24 182.671 431.33 182.835 431.51C182.999 431.69 183.081 431.968 183.081 432.344V434H182.625V433.652C182.413 433.912 182.125 434.042 181.761 434.042C181.513 434.042 181.313 433.968 181.161 433.82C181.009 433.668 180.933 433.464 180.933 433.208C180.933 432.944 181.027 432.736 181.215 432.584C181.403 432.428 181.649 432.35 181.953 432.35C182.237 432.35 182.461 432.408 182.625 432.524C182.625 432.22 182.583 432.002 182.499 431.87C182.415 431.738 182.253 431.672 182.013 431.672C181.769 431.672 181.521 431.738 181.269 431.87ZM181.929 433.61C182.197 433.61 182.429 433.494 182.625 433.262V432.92C182.457 432.8 182.255 432.74 182.019 432.74C181.855 432.74 181.717 432.78 181.605 432.86C181.497 432.936 181.443 433.044 181.443 433.184C181.443 433.316 181.485 433.42 181.569 433.496C181.657 433.572 181.777 433.61 181.929 433.61ZM86.432 442V439.3C86.452 439.3 86.48 439.3 86.516 439.3C86.552 439.296 86.604 439.294 86.672 439.294C86.74 439.29 86.802 439.288 86.858 439.288C87.154 439.28 87.338 439.276 87.41 439.276C88.186 439.276 88.574 439.508 88.574 439.972C88.574 440.132 88.524 440.27 88.424 440.386C88.324 440.498 88.194 440.566 88.034 440.59V440.602C88.454 440.678 88.664 440.89 88.664 441.238C88.664 441.762 88.25 442.024 87.422 442.024C87.382 442.024 87.206 442.02 86.894 442.012C86.834 442.012 86.768 442.01 86.696 442.006C86.624 442.006 86.568 442.004 86.528 442C86.488 442 86.456 442 86.432 442ZM87.488 440.788H86.912V441.616C87.2 441.628 87.384 441.634 87.464 441.634C87.924 441.634 88.154 441.49 88.154 441.202C88.154 440.926 87.932 440.788 87.488 440.788ZM87.446 439.666C87.33 439.666 87.152 439.672 86.912 439.684V440.488H87.518C87.682 440.488 87.814 440.45 87.914 440.374C88.014 440.298 88.064 440.196 88.064 440.068C88.064 439.8 87.858 439.666 87.446 439.666ZM91.2245 442H90.7445V439.3H92.4545V439.75H91.2245V442ZM93.0464 441.664C92.7824 441.392 92.6504 441.054 92.6504 440.65C92.6504 440.242 92.7824 439.906 93.0464 439.642C93.3144 439.374 93.6624 439.24 94.0904 439.24C94.5184 439.24 94.8644 439.374 95.1284 439.642C95.3964 439.906 95.5304 440.242 95.5304 440.65C95.5304 441.058 95.3964 441.396 95.1284 441.664C94.8644 441.928 94.5184 442.06 94.0904 442.06C93.6664 442.06 93.3184 441.928 93.0464 441.664ZM93.4244 439.96C93.2484 440.136 93.1604 440.366 93.1604 440.65C93.1604 440.934 93.2464 441.164 93.4184 441.34C93.5944 441.52 93.8184 441.61 94.0904 441.61C94.3624 441.61 94.5844 441.522 94.7564 441.346C94.9324 441.166 95.0204 440.934 95.0204 440.65C95.0204 440.374 94.9324 440.144 94.7564 439.96C94.5844 439.78 94.3624 439.69 94.0904 439.69C93.8184 439.69 93.5964 439.78 93.4244 439.96ZM98.683 442H98.203V440.86H96.703V442H96.223V439.3H96.703V440.41H98.203V439.3H98.683V442ZM99.6291 442.66H99.1791V441.55H99.5151C99.6151 441.426 99.7031 441.226 99.7791 440.95C99.8551 440.67 99.9051 440.358 99.9291 440.014L99.9711 439.3H101.813V441.55H102.263V442.66H101.813V442H99.6291V442.66ZM100.421 439.75L100.391 440.2C100.367 440.5 100.319 440.774 100.247 441.022C100.175 441.27 100.101 441.446 100.025 441.55H101.333V439.75H100.421ZM103.002 441.664C102.738 441.392 102.606 441.054 102.606 440.65C102.606 440.242 102.738 439.906 103.002 439.642C103.27 439.374 103.618 439.24 104.046 439.24C104.474 439.24 104.82 439.374 105.084 439.642C105.352 439.906 105.486 440.242 105.486 440.65C105.486 441.058 105.352 441.396 105.084 441.664C104.82 441.928 104.474 442.06 104.046 442.06C103.622 442.06 103.274 441.928 103.002 441.664ZM103.38 439.96C103.204 440.136 103.116 440.366 103.116 440.65C103.116 440.934 103.202 441.164 103.374 441.34C103.55 441.52 103.774 441.61 104.046 441.61C104.318 441.61 104.54 441.522 104.712 441.346C104.888 441.166 104.976 440.934 104.976 440.65C104.976 440.374 104.888 440.144 104.712 439.96C104.54 439.78 104.318 439.69 104.046 439.69C103.774 439.69 103.552 439.78 103.38 439.96ZM108.401 442H107.921V439.78H106.973L106.943 440.236C106.911 440.608 106.863 440.918 106.799 441.166C106.739 441.41 106.659 441.594 106.559 441.718C106.463 441.838 106.361 441.922 106.253 441.97C106.145 442.014 106.013 442.036 105.857 442.036L105.821 441.568C105.865 441.572 105.911 441.566 105.959 441.55C106.007 441.53 106.059 441.49 106.115 441.43C106.175 441.37 106.227 441.29 106.271 441.19C106.319 441.09 106.361 440.95 106.397 440.77C106.437 440.586 106.463 440.376 106.475 440.14L106.523 439.3H108.401V442ZM111.174 439.3H111.72L110.64 442C110.444 442.476 110.274 442.792 110.13 442.948C109.978 443.116 109.804 443.2 109.608 443.2C109.432 443.2 109.262 443.144 109.098 443.032L109.254 442.666C109.382 442.726 109.482 442.756 109.554 442.756C109.666 442.756 109.766 442.708 109.854 442.612C109.946 442.516 110.038 442.36 110.13 442.144L110.19 442L108.894 439.3H109.47L110.262 441.016C110.278 441.044 110.332 441.18 110.424 441.424C110.46 441.292 110.502 441.154 110.55 441.01L111.174 439.3ZM111.847 441.676C111.847 441.592 111.879 441.518 111.943 441.454C112.011 441.39 112.093 441.358 112.189 441.358C112.273 441.358 112.347 441.39 112.411 441.454C112.475 441.518 112.507 441.592 112.507 441.676C112.507 441.772 112.477 441.854 112.417 441.922C112.357 441.986 112.281 442.018 112.189 442.018C112.093 442.018 112.011 441.986 111.943 441.922C111.879 441.854 111.847 441.772 111.847 441.676ZM117.437 441.208L117.641 441.592C117.501 441.736 117.311 441.85 117.071 441.934C116.831 442.018 116.579 442.06 116.315 442.06C115.687 442.06 115.173 441.864 114.773 441.472C114.381 441.072 114.185 440.548 114.185 439.9C114.185 439.276 114.373 438.762 114.749 438.358C115.125 437.946 115.635 437.74 116.279 437.74C116.811 437.74 117.237 437.876 117.557 438.148L117.323 438.532C117.043 438.324 116.697 438.22 116.285 438.22C115.829 438.22 115.455 438.376 115.163 438.688C114.871 438.996 114.725 439.4 114.725 439.9C114.725 440.4 114.875 440.806 115.175 441.118C115.483 441.426 115.879 441.58 116.363 441.58C116.771 441.58 117.129 441.456 117.437 441.208ZM118.306 441.664C118.042 441.392 117.91 441.054 117.91 440.65C117.91 440.242 118.042 439.906 118.306 439.642C118.574 439.374 118.922 439.24 119.35 439.24C119.778 439.24 120.124 439.374 120.388 439.642C120.656 439.906 120.79 440.242 120.79 440.65C120.79 441.058 120.656 441.396 120.388 441.664C120.124 441.928 119.778 442.06 119.35 442.06C118.926 442.06 118.578 441.928 118.306 441.664ZM118.684 439.96C118.508 440.136 118.42 440.366 118.42 440.65C118.42 440.934 118.506 441.164 118.678 441.34C118.854 441.52 119.078 441.61 119.35 441.61C119.622 441.61 119.844 441.522 120.016 441.346C120.192 441.166 120.28 440.934 120.28 440.65C120.28 440.374 120.192 440.144 120.016 439.96C119.844 439.78 119.622 439.69 119.35 439.69C119.078 439.69 118.856 439.78 118.684 439.96ZM123.613 441.328L123.763 441.706C123.503 441.942 123.165 442.06 122.749 442.06C122.309 442.06 121.959 441.932 121.699 441.676C121.435 441.42 121.303 441.078 121.303 440.65C121.303 440.246 121.427 439.91 121.675 439.642C121.919 439.374 122.259 439.24 122.695 439.24C123.055 439.24 123.353 439.356 123.589 439.588C123.829 439.816 123.949 440.112 123.949 440.476C123.949 440.592 123.939 440.7 123.919 440.8H121.843C121.863 441.052 121.957 441.25 122.125 441.394C122.297 441.538 122.517 441.61 122.785 441.61C123.137 441.61 123.413 441.516 123.613 441.328ZM122.671 439.69C122.435 439.69 122.239 439.756 122.083 439.888C121.931 440.02 121.841 440.194 121.813 440.41H123.451C123.439 440.186 123.363 440.01 123.223 439.882C123.087 439.754 122.903 439.69 122.671 439.69ZM124.573 442.66H124.123V441.55H124.458C124.559 441.426 124.647 441.226 124.723 440.95C124.799 440.67 124.849 440.358 124.873 440.014L124.915 439.3H126.757V441.55H127.207V442.66H126.757V442H124.573V442.66ZM125.365 439.75L125.335 440.2C125.311 440.5 125.263 440.774 125.191 441.022C125.119 441.27 125.045 441.446 124.969 441.55H126.277V439.75H125.365ZM129.769 439.99L128.209 442H127.729V439.3H128.209V441.31L129.769 439.3H130.249V442H129.769V439.99ZM133.581 442H133.101V440.86H131.601V442H131.121V439.3H131.601V440.41H133.101V439.3H133.581V442ZM136.58 441.328L136.73 441.706C136.47 441.942 136.132 442.06 135.716 442.06C135.276 442.06 134.926 441.932 134.666 441.676C134.402 441.42 134.27 441.078 134.27 440.65C134.27 440.246 134.394 439.91 134.642 439.642C134.886 439.374 135.226 439.24 135.662 439.24C136.022 439.24 136.32 439.356 136.556 439.588C136.796 439.816 136.916 440.112 136.916 440.476C136.916 440.592 136.906 440.7 136.886 440.8H134.81C134.83 441.052 134.924 441.25 135.092 441.394C135.264 441.538 135.484 441.61 135.752 441.61C136.104 441.61 136.38 441.516 136.58 441.328ZM135.638 439.69C135.402 439.69 135.206 439.756 135.05 439.888C134.898 440.02 134.808 440.194 134.78 440.41H136.418C136.406 440.186 136.33 440.01 136.19 439.882C136.054 439.754 135.87 439.69 135.638 439.69ZM140.027 442H139.547V440.86H138.047V442H137.567V439.3H138.047V440.41H139.547V439.3H140.027V442ZM144.319 441.262L144.547 441.61C144.315 441.91 143.969 442.06 143.509 442.06C143.077 442.06 142.727 441.932 142.459 441.676C142.195 441.42 142.063 441.078 142.063 440.65C142.063 440.254 142.193 439.92 142.453 439.648C142.713 439.376 143.039 439.24 143.431 439.24C143.903 439.24 144.257 439.358 144.493 439.594L144.271 439.972C144.063 439.784 143.805 439.69 143.497 439.69C143.245 439.69 143.027 439.782 142.843 439.966C142.663 440.146 142.573 440.374 142.573 440.65C142.573 440.942 142.665 441.174 142.849 441.346C143.037 441.522 143.269 441.61 143.545 441.61C143.857 441.61 144.115 441.494 144.319 441.262ZM147 443.2H146.52V439.3H147V439.618C147.096 439.506 147.228 439.416 147.396 439.348C147.564 439.276 147.738 439.24 147.918 439.24C148.302 439.24 148.604 439.368 148.824 439.624C149.052 439.876 149.166 440.204 149.166 440.608C149.166 441.02 149.036 441.366 148.776 441.646C148.52 441.922 148.182 442.06 147.762 442.06C147.438 442.06 147.184 441.998 147 441.874V443.2ZM147.78 439.69C147.46 439.69 147.2 439.814 147 440.062V441.4C147.212 441.54 147.452 441.61 147.72 441.61C148.004 441.61 148.23 441.52 148.398 441.34C148.57 441.156 148.656 440.918 148.656 440.626C148.656 440.342 148.578 440.116 148.422 439.948C148.266 439.776 148.052 439.69 147.78 439.69ZM151.984 441.328L152.134 441.706C151.874 441.942 151.536 442.06 151.12 442.06C150.68 442.06 150.33 441.932 150.07 441.676C149.806 441.42 149.674 441.078 149.674 440.65C149.674 440.246 149.798 439.91 150.046 439.642C150.29 439.374 150.63 439.24 151.066 439.24C151.426 439.24 151.724 439.356 151.96 439.588C152.2 439.816 152.32 440.112 152.32 440.476C152.32 440.592 152.31 440.7 152.29 440.8H150.214C150.234 441.052 150.328 441.25 150.496 441.394C150.668 441.538 150.888 441.61 151.156 441.61C151.508 441.61 151.784 441.516 151.984 441.328ZM151.042 439.69C150.806 439.69 150.61 439.756 150.454 439.888C150.302 440.02 150.212 440.194 150.184 440.41H151.822C151.81 440.186 151.734 440.01 151.594 439.882C151.458 439.754 151.274 439.69 151.042 439.69ZM152.944 442.66H152.494V441.55H152.83C152.93 441.426 153.018 441.226 153.094 440.95C153.17 440.67 153.22 440.358 153.244 440.014L153.286 439.3H155.128V441.55H155.578V442.66H155.128V442H152.944V442.66ZM153.736 439.75L153.706 440.2C153.682 440.5 153.634 440.774 153.562 441.022C153.49 441.27 153.416 441.446 153.34 441.55H154.648V439.75H153.736ZM158.008 439.3H158.554L157.474 442C157.278 442.476 157.108 442.792 156.964 442.948C156.812 443.116 156.638 443.2 156.442 443.2C156.266 443.2 156.096 443.144 155.932 443.032L156.088 442.666C156.216 442.726 156.316 442.756 156.388 442.756C156.5 442.756 156.6 442.708 156.688 442.612C156.78 442.516 156.872 442.36 156.964 442.144L157.024 442L155.728 439.3H156.304L157.096 441.016C157.112 441.044 157.166 441.18 157.258 441.424C157.294 441.292 157.336 441.154 157.384 441.01L158.008 439.3ZM160.781 439.3H161.411L160.229 440.59L161.525 442H160.859L159.641 440.62L160.781 439.3ZM159.527 442H159.047V439.3H159.527V442ZM162.684 439.78H161.694V439.3H164.154V439.78H163.164V442H162.684V439.78ZM164.806 441.664C164.542 441.392 164.41 441.054 164.41 440.65C164.41 440.242 164.542 439.906 164.806 439.642C165.074 439.374 165.422 439.24 165.85 439.24C166.278 439.24 166.624 439.374 166.888 439.642C167.156 439.906 167.29 440.242 167.29 440.65C167.29 441.058 167.156 441.396 166.888 441.664C166.624 441.928 166.278 442.06 165.85 442.06C165.426 442.06 165.078 441.928 164.806 441.664ZM165.184 439.96C165.008 440.136 164.92 440.366 164.92 440.65C164.92 440.934 165.006 441.164 165.178 441.34C165.354 441.52 165.578 441.61 165.85 441.61C166.122 441.61 166.344 441.522 166.516 441.346C166.692 441.166 166.78 440.934 166.78 440.65C166.78 440.374 166.692 440.144 166.516 439.96C166.344 439.78 166.122 439.69 165.85 439.69C165.578 439.69 165.356 439.78 165.184 439.96ZM168.463 443.2H167.983V439.3H168.463V439.618C168.559 439.506 168.691 439.416 168.859 439.348C169.027 439.276 169.201 439.24 169.381 439.24C169.765 439.24 170.067 439.368 170.287 439.624C170.515 439.876 170.629 440.204 170.629 440.608C170.629 441.02 170.499 441.366 170.239 441.646C169.983 441.922 169.645 442.06 169.225 442.06C168.901 442.06 168.647 441.998 168.463 441.874V443.2ZM169.243 439.69C168.923 439.69 168.663 439.814 168.463 440.062V441.4C168.675 441.54 168.915 441.61 169.183 441.61C169.467 441.61 169.693 441.52 169.861 441.34C170.033 441.156 170.119 440.918 170.119 440.626C170.119 440.342 170.041 440.116 169.885 439.948C169.729 439.776 169.515 439.69 169.243 439.69ZM171.533 441.664C171.269 441.392 171.137 441.054 171.137 440.65C171.137 440.242 171.269 439.906 171.533 439.642C171.801 439.374 172.149 439.24 172.577 439.24C173.005 439.24 173.351 439.374 173.615 439.642C173.883 439.906 174.017 440.242 174.017 440.65C174.017 441.058 173.883 441.396 173.615 441.664C173.351 441.928 173.005 442.06 172.577 442.06C172.153 442.06 171.805 441.928 171.533 441.664ZM171.911 439.96C171.735 440.136 171.647 440.366 171.647 440.65C171.647 440.934 171.733 441.164 171.905 441.34C172.081 441.52 172.305 441.61 172.577 441.61C172.849 441.61 173.071 441.522 173.243 441.346C173.419 441.166 173.507 440.934 173.507 440.65C173.507 440.374 173.419 440.144 173.243 439.96C173.071 439.78 172.849 439.69 172.577 439.69C172.305 439.69 172.083 439.78 171.911 439.96ZM175.189 442H174.709V439.3H175.147L176.185 440.638L177.169 439.3H177.595V442H177.115V440.032L176.179 441.286H176.161L175.189 440.032V442ZM178.333 441.676C178.333 441.592 178.365 441.518 178.429 441.454C178.497 441.39 178.579 441.358 178.675 441.358C178.759 441.358 178.833 441.39 178.897 441.454C178.961 441.518 178.993 441.592 178.993 441.676C178.993 441.772 178.963 441.854 178.903 441.922C178.843 441.986 178.767 442.018 178.675 442.018C178.579 442.018 178.497 441.986 178.429 441.922C178.365 441.854 178.333 441.772 178.333 441.676Z" fill="#848484"/>
<path d="M76.69 433H74.29V427.75H64.6V426.04L73.3 412H76.06L67.75 425.35H74.29V419.5H76.69V425.35H79.6V427.75H76.69V433Z" fill="#D9D9D9"/>
<path d="M136.758 396.938C136.724 397.072 136.804 397.208 136.938 397.242C137.072 397.276 137.208 397.196 137.242 397.062L136.758 396.938ZM161.67 300.292C162.384 300.474 163.11 300.043 163.292 299.33C163.474 298.616 163.043 297.89 162.33 297.708C161.616 297.526 160.89 297.957 160.708 298.67C160.526 299.384 160.957 300.11 161.67 300.292ZM137.242 397.062L162.242 299.062L161.758 298.938L136.758 396.938L137.242 397.062Z" fill="#525252"/>
</g>
</svg>
