<svg width="1447" height="863" fill="none" xmlns="http://www.w3.org/2000/svg"><mask id="a" style="mask-type:alpha" maskUnits="userSpaceOnUse" x="0" y="0" width="1447" height="863"><path fill="#D9D9D9" d="M0 0h1447v863H0z"/></mask><g mask="url(#a)"><circle cx="853.5" cy="238.5" r="5.5" fill="#525252"/><path fill="#C1C1C1" fill-opacity=".8" d="M977 78h306v129H977z"/><path fill="#fff" d="M970 71h306v129H970z"/><path stroke="#525252" d="M963.5 64.5h305v128h-305z"/><path d="M1043.1 98.6h-4.9V97h11.5v1.6h-4.9V111h-1.7V98.6zm7.37 16.4h-1.6v-13h1.6v1.06c.32-.373.76-.673 1.32-.9.56-.24 1.14-.36 1.74-.36 1.28 0 2.29.427 3.02 1.28.76.84 1.14 1.933 1.14 3.28 0 1.373-.43 2.527-1.3 3.46-.85.92-1.98 1.38-3.38 1.38-1.08 0-1.92-.207-2.54-.62V115zm2.6-11.7c-1.06 0-1.93.413-2.6 1.24V109c.71.467 1.51.7 2.4.7.95 0 1.7-.3 2.26-.9.58-.613.86-1.407.86-2.38 0-.947-.26-1.7-.78-2.26-.52-.573-1.23-.86-2.14-.86zm7.4.6l-.42-1.28c.89-.547 1.89-.82 3-.82 1.21 0 2.09.3 2.64.9.54.6.82 1.527.82 2.78V111h-1.52v-1.16c-.71.867-1.67 1.3-2.88 1.3-.83 0-1.5-.247-2-.74-.51-.507-.76-1.187-.76-2.04 0-.88.31-1.573.94-2.08.62-.52 1.44-.78 2.46-.78.94 0 1.69.193 2.24.58 0-1.013-.14-1.74-.42-2.18-.28-.44-.82-.66-1.62-.66-.82 0-1.64.22-2.48.66zm2.2 5.8c.89 0 1.66-.387 2.32-1.16v-1.14c-.56-.4-1.24-.6-2.02-.6-.55 0-1.01.133-1.38.4-.36.253-.54.613-.54 1.08 0 .44.14.787.42 1.04.29.253.69.38 1.2.38zm14.72 1.3h-1.6v-3.8h-5v3.8h-1.6v-9h1.6v3.7h5V102h1.6v9zm9.81-2.46l.76 1.16c-.77 1-1.93 1.5-3.46 1.5-1.44 0-2.61-.427-3.5-1.28-.88-.853-1.32-1.993-1.32-3.42 0-1.32.43-2.433 1.3-3.34.87-.907 1.95-1.36 3.26-1.36 1.57 0 2.75.393 3.54 1.18l-.74 1.26c-.69-.627-1.55-.94-2.58-.94-.84 0-1.57.307-2.18.92-.6.6-.9 1.36-.9 2.28 0 .973.31 1.747.92 2.32.63.587 1.4.88 2.32.88 1.04 0 1.9-.387 2.58-1.16zm8.46 6.46h-1.6v-3.8h-.22c-1.51 0-2.7-.44-3.58-1.32-.87-.893-1.3-2.02-1.3-3.38 0-1.293.44-2.4 1.32-3.32.88-.92 2.06-1.38 3.54-1.38h.24V97h1.6v4.8h.26c1.46 0 2.64.447 3.52 1.34.88.893 1.32 2.013 1.32 3.36 0 1.4-.43 2.533-1.28 3.4-.84.867-2.03 1.3-3.56 1.3h-.26v3.8zm-5-8.5c0 .973.28 1.753.86 2.34.58.573 1.38.86 2.38.86h.16v-6.4h-.26c-.98 0-1.74.3-2.3.9-.56.587-.84 1.353-.84 2.3zm5.26-3.2h-.26v6.4h.18c1.01 0 1.8-.287 2.36-.86.57-.587.86-1.367.86-2.34 0-.88-.28-1.633-.84-2.26-.56-.627-1.33-.94-2.3-.94zm7.85 6.58c-.88-.907-1.32-2.033-1.32-3.38 0-1.36.44-2.48 1.32-3.36.9-.893 2.06-1.34 3.48-1.34 1.43 0 2.58.447 3.46 1.34.9.88 1.34 2 1.34 3.36 0 1.36-.44 2.487-1.34 3.38-.88.88-2.03 1.32-3.46 1.32-1.41 0-2.57-.44-3.48-1.32zm1.26-5.68c-.58.587-.88 1.353-.88 2.3 0 .947.29 1.713.86 2.3.59.6 1.34.9 2.24.9.91 0 1.65-.293 2.22-.88.59-.6.88-1.373.88-2.32 0-.92-.29-1.687-.88-2.3-.57-.6-1.31-.9-2.22-.9-.9 0-1.64.3-2.22.9zm10.93 10.8h-1.6v-13h1.6v1.06c.32-.373.76-.673 1.32-.9.56-.24 1.14-.36 1.74-.36 1.28 0 2.29.427 3.02 1.28.76.84 1.14 1.933 1.14 3.28 0 1.373-.43 2.527-1.3 3.46-.85.92-1.98 1.38-3.38 1.38-1.08 0-1.92-.207-2.54-.62V115zm2.6-11.7c-1.06 0-1.93.413-2.6 1.24V109c.71.467 1.51.7 2.4.7.95 0 1.7-.3 2.26-.9.58-.613.86-1.407.86-2.38 0-.947-.26-1.7-.78-2.26-.52-.573-1.23-.86-2.14-.86zm8.52 7.7h-1.6v-9h1.46l3.46 4.46 3.28-4.46h1.42v9h-1.6v-6.56l-3.12 4.18h-.06l-3.24-4.18V111zm11.39-7.1l-.42-1.28c.9-.547 1.9-.82 3-.82 1.22 0 2.1.3 2.64.9.55.6.82 1.527.82 2.78V111h-1.52v-1.16c-.7.867-1.66 1.3-2.88 1.3-.82 0-1.49-.247-2-.74-.5-.507-.76-1.187-.76-2.04 0-.88.32-1.573.94-2.08.63-.52 1.45-.78 2.46-.78.95 0 1.7.193 2.24.58 0-1.013-.14-1.74-.42-2.18-.28-.44-.82-.66-1.62-.66-.81 0-1.64.22-2.48.66zm2.2 5.8c.9 0 1.67-.387 2.32-1.16v-1.14c-.56-.4-1.23-.6-2.02-.6-.54 0-1 .133-1.38.4-.36.253-.54.613-.54 1.08 0 .44.14.787.42 1.04.3.253.7.38 1.2.38zm8.68-6.1h-3.3V102h8.2v1.6h-3.3v7.4h-1.6v-7.4zm7.08 6.28c-.88-.907-1.32-2.033-1.32-3.38 0-1.36.44-2.48 1.32-3.36.89-.893 2.05-1.34 3.48-1.34 1.43 0 2.58.447 3.46 1.34.89.88 1.34 2 1.34 3.36 0 1.36-.45 2.487-1.34 3.38-.88.88-2.03 1.32-3.46 1.32-1.41 0-2.57-.44-3.48-1.32zm1.26-5.68c-.59.587-.88 1.353-.88 2.3 0 .947.29 1.713.86 2.3.59.6 1.33.9 2.24.9.91 0 1.65-.293 2.22-.88.59-.6.88-1.373.88-2.32 0-.92-.29-1.687-.88-2.3-.57-.6-1.31-.9-2.22-.9-.91 0-1.65.3-2.22.9zm10.93 10.8h-1.6v-13h1.6v1.06c.32-.373.76-.673 1.32-.9.56-.24 1.14-.36 1.74-.36 1.28 0 2.28.427 3.02 1.28.76.84 1.14 1.933 1.14 3.28 0 1.373-.44 2.527-1.3 3.46-.86.92-1.98 1.38-3.38 1.38-1.08 0-1.93-.207-2.54-.62V115zm2.6-11.7c-1.07 0-1.94.413-2.6 1.24V109c.7.467 1.5.7 2.4.7.94 0 1.7-.3 2.26-.9.57-.613.86-1.407.86-2.38 0-.947-.26-1.7-.78-2.26-.52-.573-1.24-.86-2.14-.86z" fill="#000"/><path d="M1045.86 135h-1.02v-7.44h-4.56V135h-1.02v-8.4h6.6v8.4zm3.08 2.4h-.96v-7.8h.96v.636c.19-.224.46-.404.79-.54.34-.144.69-.216 1.05-.216.77 0 1.37.256 1.81.768.46.504.68 1.16.68 1.968 0 .824-.26 1.516-.78 2.076-.51.552-1.18.828-2.02.828-.65 0-1.16-.124-1.53-.372v2.652zm1.56-7.02c-.64 0-1.16.248-1.56.744v2.676c.43.28.91.42 1.44.42.57 0 1.02-.18 1.36-.54.34-.368.51-.844.51-1.428 0-.568-.15-1.02-.46-1.356-.32-.344-.74-.516-1.29-.516zm8.41 3.276l.3.756c-.52.472-1.2.708-2.03.708-.88 0-1.58-.256-2.1-.768-.53-.512-.79-1.196-.79-2.052 0-.808.25-1.48.74-2.016s1.17-.804 2.04-.804c.72 0 1.32.232 1.79.696.48.456.72 1.048.72 1.776 0 .232-.02.448-.06.648h-4.15c.04.504.23.9.56 1.188.35.288.79.432 1.32.432.71 0 1.26-.188 1.66-.564zm-1.88-3.276c-.48 0-.87.132-1.18.396-.3.264-.48.612-.54 1.044h3.28c-.03-.448-.18-.8-.46-1.056-.27-.256-.64-.384-1.1-.384zm4.22 3.948c-.53-.544-.8-1.22-.8-2.028 0-.816.27-1.488.8-2.016.53-.536 1.23-.804 2.08-.804.86 0 1.55.268 2.08.804.54.528.8 1.2.8 2.016 0 .816-.26 1.492-.8 2.028-.53.528-1.22.792-2.08.792-.84 0-1.54-.264-2.08-.792zm.75-3.408c-.35.352-.53.812-.53 1.38 0 .568.18 1.028.52 1.38.35.36.8.54 1.34.54.55 0 .99-.176 1.34-.528.35-.36.52-.824.52-1.392 0-.552-.17-1.012-.52-1.38-.35-.36-.79-.54-1.34-.54-.54 0-.98.18-1.33.54zm9.77-4.44l.52.756a1.42 1.42 0 01-.7.54c-.29.104-.63.184-1 .24-.37.056-.72.156-1.05.3-.81.376-1.27 1.244-1.37 2.604h.03c.17-.376.46-.68.85-.912.4-.232.83-.348 1.28-.348.77 0 1.38.244 1.83.732.45.488.68 1.14.68 1.956 0 .768-.26 1.424-.78 1.968-.51.536-1.17.804-1.99.804-.88 0-1.58-.3-2.09-.9-.51-.592-.77-1.412-.77-2.46 0-2.336.67-3.788 2.01-4.356.3-.136.65-.236 1.05-.3.32-.056.54-.1.68-.132.13-.032.28-.088.43-.168.16-.08.29-.188.39-.324zm-3.54 5.46c0 .688.17 1.24.51 1.656.33.416.77.624 1.31.624.52 0 .94-.176 1.27-.528.33-.344.5-.776.5-1.296 0-.552-.15-.996-.47-1.332-.3-.336-.72-.504-1.26-.504-.48 0-.89.136-1.22.408-.34.28-.56.604-.64.972zm6.95 5.46h-.96v-7.8h.96v.636c.19-.224.46-.404.79-.54.34-.144.69-.216 1.05-.216.76 0 1.37.256 1.81.768.45.504.68 1.16.68 1.968 0 .824-.26 1.516-.78 2.076-.51.552-1.19.828-2.03.828-.64 0-1.15-.124-1.52-.372v2.652zm1.56-7.02c-.64 0-1.16.248-1.56.744v2.676c.42.28.9.42 1.44.42.57 0 1.02-.18 1.36-.54.34-.368.51-.844.51-1.428 0-.568-.15-1.02-.47-1.356-.31-.344-.74-.516-1.28-.516zm4.44.36l-.26-.768a3.4 3.4 0 011.8-.492c.73 0 1.26.18 1.59.54.33.36.49.916.49 1.668V135h-.91v-.696c-.43.52-1 .78-1.73.78-.5 0-.9-.148-1.2-.444-.3-.304-.46-.712-.46-1.224 0-.528.19-.944.57-1.248.37-.312.87-.468 1.47-.468.57 0 1.02.116 1.35.348 0-.608-.09-1.044-.25-1.308-.17-.264-.5-.396-.98-.396s-.98.132-1.48.396zm1.32 3.48c.53 0 1-.232 1.39-.696v-.684c-.34-.24-.74-.36-1.21-.36-.33 0-.61.08-.83.24a.741.741 0 00-.33.648c0 .264.09.472.26.624.17.152.41.228.72.228zm5.69.9c-.4 0-.84-.068-1.29-.204-.44-.144-.75-.32-.94-.528l.49-.72c.22.176.48.32.77.432.31.104.58.156.83.156.42 0 .76-.08 1.02-.24.26-.168.4-.384.4-.648a.58.58 0 00-.29-.516c-.19-.12-.44-.18-.77-.18h-.91v-.78h.85c.27 0 .5-.072.67-.216a.698.698 0 00.27-.552c0-.24-.11-.428-.32-.564-.2-.144-.48-.216-.84-.216-.56 0-1.1.2-1.62.6l-.37-.744c.22-.224.52-.4.9-.528.39-.128.81-.192 1.24-.192.64 0 1.13.128 1.49.384.36.256.54.612.54 1.068 0 .624-.32 1.048-.95 1.272v.024c.35.04.63.18.83.42.2.232.3.516.3.852 0 .496-.22.892-.64 1.188-.42.288-.97.432-1.66.432zm7.58-5.52h1.09l-2.16 5.4c-.39.952-.73 1.584-1.02 1.896-.31.336-.65.504-1.05.504-.35 0-.69-.112-1.02-.336l.32-.732c.25.12.45.18.6.18.22 0 .42-.096.6-.288.18-.192.36-.504.55-.936l.12-.288-2.59-5.4h1.15l1.58 3.432c.03.056.14.328.33.816.07-.264.15-.54.25-.828l1.25-3.42zm3.09 5.4h-1.02v-5.4h1.02v2.16h1.18c.11-.688.41-1.24.9-1.656.5-.416 1.1-.624 1.82-.624.85 0 1.53.268 2.04.804.52.536.78 1.208.78 2.016s-.26 1.484-.79 2.028c-.52.528-1.19.792-2.03.792-.76 0-1.38-.22-1.87-.66-.49-.44-.77-1.02-.86-1.74h-1.17V135zm2.7-4.044c-.32.344-.48.792-.48 1.344s.16 1 .48 1.344c.32.344.74.516 1.24.516s.91-.168 1.22-.504c.32-.344.48-.796.48-1.356 0-.552-.15-1-.46-1.344-.32-.344-.73-.516-1.24-.516-.5 0-.92.172-1.24.516zm6.49-.396h-1.98v-.96h4.92v.96h-1.98V135h-.96v-4.44zm11.54 4.44h-.96v-4.5h-2.94v4.5h-.96v-5.4h4.86v5.4zm6-1.344l.3.756c-.52.472-1.2.708-2.03.708-.88 0-1.58-.256-2.1-.768-.53-.512-.79-1.196-.79-2.052 0-.808.25-1.48.74-2.016s1.17-.804 2.04-.804c.72 0 1.32.232 1.79.696.48.456.72 1.048.72 1.776 0 .232-.02.448-.06.648h-4.15c.04.504.23.9.56 1.188.35.288.79.432 1.32.432.71 0 1.26-.188 1.66-.564zm-1.89-3.276c-.47 0-.86.132-1.17.396-.31.264-.49.612-.54 1.044h3.27c-.02-.448-.17-.8-.45-1.056-.27-.256-.64-.384-1.11-.384zm4.82 7.02h-.96v-7.8h.96v.636c.2-.224.46-.404.8-.54.33-.144.68-.216 1.04-.216.77 0 1.37.256 1.81.768.46.504.69 1.16.69 1.968 0 .824-.26 1.516-.78 2.076-.52.552-1.19.828-2.03.828-.65 0-1.16-.124-1.53-.372v2.652zm1.56-7.02c-.64 0-1.16.248-1.56.744v2.676c.43.28.91.42 1.44.42.57 0 1.02-.18 1.36-.54.34-.368.52-.844.52-1.428 0-.568-.16-1.02-.47-1.356-.31-.344-.74-.516-1.29-.516zm8.41 3.276l.3.756c-.52.472-1.19.708-2.03.708-.88 0-1.58-.256-2.1-.768s-.79-1.196-.79-2.052c0-.808.25-1.48.75-2.016.48-.536 1.16-.804 2.04-.804.72 0 1.31.232 1.78.696.48.456.72 1.048.72 1.776 0 .232-.02.448-.06.648h-4.15c.04.504.23.9.57 1.188.34.288.78.432 1.32.432.7 0 1.25-.188 1.65-.564zm-1.88-3.276c-.47 0-.87.132-1.18.396-.3.264-.48.612-.54 1.044h3.28c-.03-.448-.18-.8-.46-1.056-.27-.256-.64-.384-1.1-.384zm4.82 4.62h-.96v-5.4h.87l2.08 2.676 1.97-2.676h.85v5.4h-.96v-3.936l-1.87 2.508h-.04l-1.94-2.508V135zm10.81-1.344l.3.756c-.52.472-1.2.708-2.03.708-.88 0-1.58-.256-2.1-.768-.53-.512-.79-1.196-.79-2.052 0-.808.25-1.48.74-2.016s1.17-.804 2.04-.804c.72 0 1.32.232 1.79.696.48.456.72 1.048.72 1.776 0 .232-.02.448-.06.648h-4.15c.04.504.23.9.56 1.188.35.288.79.432 1.32.432.71 0 1.26-.188 1.66-.564zm-1.89-3.276c-.47 0-.86.132-1.17.396-.31.264-.49.612-.54 1.044h3.27c-.02-.448-.17-.8-.45-1.056-.27-.256-.64-.384-1.11-.384zm8.78 4.62h-.96v-2.28h-3V135h-.96v-5.4h.96v2.22h3v-2.22h.96v5.4zm6.66 0h-.96v-2.28h-3V135h-.96v-5.4h.96v2.22h3v-2.22h.96v5.4zm2.17-.672c-.53-.544-.8-1.22-.8-2.028 0-.816.27-1.488.8-2.016.53-.536 1.23-.804 2.08-.804.86 0 1.55.268 2.08.804.54.528.8 1.2.8 2.016 0 .816-.26 1.492-.8 2.028-.53.528-1.22.792-2.08.792-.84 0-1.54-.264-2.08-.792zm.75-3.408c-.35.352-.53.812-.53 1.38 0 .568.18 1.028.52 1.38.35.36.8.54 1.34.54.55 0 .99-.176 1.34-.528.35-.36.52-.824.52-1.392 0-.552-.17-1.012-.52-1.38-.35-.36-.79-.54-1.34-.54-.54 0-.98.18-1.33.54zm9.86 2.736l.3.756c-.52.472-1.2.708-2.03.708-.88 0-1.58-.256-2.1-.768-.53-.512-.79-1.196-.79-2.052 0-.808.25-1.48.74-2.016s1.17-.804 2.04-.804c.72 0 1.32.232 1.79.696.48.456.72 1.048.72 1.776 0 .232-.02.448-.06.648h-4.15c.04.504.23.9.56 1.188.35.288.79.432 1.32.432.71 0 1.26-.188 1.66-.564zm-1.88-3.276c-.48 0-.87.132-1.18.396-.3.264-.48.612-.54 1.044h3.28c-.03-.448-.18-.8-.46-1.056-.27-.256-.64-.384-1.1-.384zm11.47 4.62h-.96v-2.28h-3V135h-.96v-5.4h.96v2.22h3v-2.22h.96v5.4zm2.02-4.26l-.25-.768a3.4 3.4 0 011.8-.492c.73 0 1.26.18 1.59.54.32.36.49.916.49 1.668V135h-.91v-.696c-.43.52-1 .78-1.73.78-.5 0-.9-.148-1.2-.444-.31-.304-.46-.712-.46-1.224 0-.528.19-.944.57-1.248.37-.312.86-.468 1.47-.468.57 0 1.02.116 1.35.348 0-.608-.09-1.044-.26-1.308-.16-.264-.49-.396-.97-.396-.49 0-.98.132-1.49.396zm1.32 3.48c.54 0 1-.232 1.4-.696v-.684c-.34-.24-.74-.36-1.22-.36-.32 0-.6.08-.82.24a.741.741 0 00-.33.648c0 .264.09.472.25.624.18.152.42.228.72.228zm8.77.78h-.96v-4.5h-2.94v4.5h-.96v-5.4h4.86v5.4zm2.7 2.4h-.96v-7.8h.96v.636c.19-.224.46-.404.79-.54.34-.144.69-.216 1.05-.216.77 0 1.37.256 1.81.768.46.504.68 1.16.68 1.968 0 .824-.26 1.516-.78 2.076-.51.552-1.18.828-2.02.828-.65 0-1.16-.124-1.53-.372v2.652zm1.56-7.02c-.64 0-1.16.248-1.56.744v2.676c.43.28.91.42 1.44.42.57 0 1.02-.18 1.36-.54.34-.368.51-.844.51-1.428 0-.568-.15-1.02-.46-1.356-.32-.344-.74-.516-1.29-.516zm6.26-.78h1.68v5.4h-.96v-1.8h-1.05l-1.32 1.8h-1.16l1.56-2.04a1.419 1.419 0 01-.83-.528 1.658 1.658 0 01-.34-1.032c0-.552.2-.988.6-1.308.4-.328 1.01-.492 1.82-.492zm-1.4 1.824c0 .256.1.468.3.636.2.16.44.24.71.24h1.11v-1.8h-.88c-.41 0-.72.084-.92.252a.821.821 0 00-.32.672zm10.59-1.824h1.19l-1.95 2.604 2.1 2.796h-1.19l-2.01-2.796 1.86-2.604zm-2.1 5.4h-.96v-5.4h.96v5.4zm-4.35 0l2.06-2.796-1.95-2.604h1.2l1.84 2.604-1.98 2.796h-1.17zm12.79-1.344l.3.756c-.52.472-1.19.708-2.02.708-.88 0-1.58-.256-2.1-.768-.53-.512-.8-1.196-.8-2.052 0-.808.25-1.48.75-2.016.49-.536 1.17-.804 2.04-.804.72 0 1.31.232 1.79.696.48.456.72 1.048.72 1.776 0 .232-.02.448-.06.648h-4.16c.04.504.23.9.57 1.188.34.288.78.432 1.32.432.7 0 1.25-.188 1.65-.564zm-1.88-3.276c-.47 0-.86.132-1.18.396-.3.264-.48.612-.54 1.044h3.28c-.02-.448-.18-.8-.46-1.056-.27-.256-.64-.384-1.1-.384zm8.78 4.62h-.96v-2.28h-3V135h-.96v-5.4h.96v2.22h3v-2.22h.96v5.4zm5.81-4.02l-3.12 4.02h-.96v-5.4h.96v4.02l3.12-4.02h.96v5.4h-.96v-4.02zm6.97 2.676l.3.756c-.52.472-1.2.708-2.03.708-.88 0-1.58-.256-2.1-.768-.53-.512-.79-1.196-.79-2.052 0-.808.25-1.48.74-2.016s1.17-.804 2.04-.804c.72 0 1.32.232 1.79.696.48.456.72 1.048.72 1.776 0 .232-.02.448-.06.648h-4.15c.04.504.23.9.56 1.188.35.288.79.432 1.32.432.71 0 1.26-.188 1.66-.564zm-1.88-3.276c-.48 0-.87.132-1.18.396-.3.264-.48.612-.54 1.044h3.28c-.03-.448-.18-.8-.46-1.056-.27-.256-.64-.384-1.1-.384zm3.64 4.068c0-.192.06-.344.18-.456.12-.12.29-.18.5-.18.26 0 .47.108.63.324.16.208.24.488.24.84 0 .432-.12.804-.36 1.116-.24.32-.56.54-.96.66l-.27-.456c.42-.128.67-.396.77-.804.06-.272.05-.472-.01-.6-.05.072-.14.108-.27.108-.12 0-.22-.052-.32-.156a.61.61 0 01-.13-.396zm-205.8 11.152h.96v5.4h-.96v-2.1c-.42.264-.92.396-1.5.396-1.28 0-1.92-.688-1.92-2.064V145.6h1.02v1.524c0 .848.39 1.272 1.16 1.272.51 0 .92-.112 1.24-.336v-2.46zm3.99.96h-1.98v-.96h4.92v.96h-1.98V151h-.96v-4.44zm4.24 3.768c-.52-.544-.79-1.22-.79-2.028 0-.816.27-1.488.79-2.016.54-.536 1.24-.804 2.09-.804.86 0 1.55.268 2.08.804.53.528.8 1.2.8 2.016 0 .816-.27 1.492-.8 2.028-.53.528-1.22.792-2.08.792-.85 0-1.54-.264-2.09-.792zm.76-3.408c-.35.352-.53.812-.53 1.38 0 .568.17 1.028.52 1.38.35.36.8.54 1.34.54.55 0 .99-.176 1.33-.528.36-.36.53-.824.53-1.392 0-.552-.17-1.012-.53-1.38-.34-.36-.78-.54-1.33-.54-.54 0-.99.18-1.33.54zm9.77-4.44l.52.756a1.42 1.42 0 01-.7.54c-.29.104-.63.184-1 .24-.37.056-.72.156-1.05.3-.81.376-1.27 1.244-1.37 2.604h.03c.17-.376.46-.68.85-.912.4-.232.83-.348 1.28-.348.77 0 1.38.244 1.83.732.45.488.68 1.14.68 1.956 0 .768-.26 1.424-.78 1.968-.51.536-1.17.804-1.99.804-.88 0-1.58-.3-2.09-.9-.51-.592-.77-1.412-.77-2.46 0-2.336.67-3.788 2.01-4.356.3-.136.65-.236 1.05-.3.32-.056.54-.1.68-.132.13-.032.28-.088.43-.168.16-.08.29-.188.39-.324zm-3.54 5.46c0 .688.17 1.24.51 1.656.33.416.77.624 1.31.624.52 0 .94-.176 1.27-.528.33-.344.5-.776.5-1.296 0-.552-.15-.996-.47-1.332-.3-.336-.72-.504-1.26-.504-.48 0-.89.136-1.22.408-.34.28-.56.604-.64.972zm7.73 3.06h-1.74v-5.4h.96v1.62h.89c.73 0 1.27.168 1.62.504.34.328.51.78.51 1.356 0 .544-.18 1-.54 1.368-.34.368-.91.552-1.7.552zm4.23 0h-.96v-5.4h.96v5.4zm-4.3-2.88h-.71v1.98h.69c.46 0 .79-.08 1-.24.21-.16.31-.408.31-.744 0-.664-.43-.996-1.29-.996zm9.16 2.208c-.53-.544-.8-1.22-.8-2.028 0-.816.27-1.488.8-2.016.53-.536 1.23-.804 2.08-.804.86 0 1.55.268 2.08.804.54.528.8 1.2.8 2.016 0 .816-.26 1.492-.8 2.028-.53.528-1.22.792-2.08.792-.84 0-1.54-.264-2.08-.792zm.75-3.408c-.35.352-.53.812-.53 1.38 0 .568.18 1.028.52 1.38.35.36.8.54 1.34.54.55 0 .99-.176 1.34-.528.35-.36.52-.824.52-1.392 0-.552-.17-1.012-.52-1.38-.35-.36-.79-.54-1.34-.54-.54 0-.98.18-1.33.54zm10.52 4.08h-.96v-2.28h-3V151h-.96v-5.4h.96v2.22h3v-2.22h.96v5.4zm2.17-.672c-.53-.544-.8-1.22-.8-2.028 0-.816.27-1.488.8-2.016.53-.536 1.23-.804 2.08-.804.86 0 1.55.268 2.08.804.54.528.8 1.2.8 2.016 0 .816-.26 1.492-.8 2.028-.53.528-1.22.792-2.08.792-.84 0-1.54-.264-2.08-.792zm.75-3.408c-.35.352-.53.812-.53 1.38 0 .568.18 1.028.52 1.38.35.36.8.54 1.34.54.55 0 .99-.176 1.34-.528.35-.36.52-.824.52-1.392 0-.552-.17-1.012-.52-1.38-.35-.36-.79-.54-1.34-.54-.54 0-.98.18-1.33.54zm13.16 4.08h-.96v-4.5h-2.94v4.5h-.96v-5.4h4.86v5.4zm2.16-.672c-.52-.544-.79-1.22-.79-2.028 0-.816.27-1.488.79-2.016.54-.536 1.24-.804 2.09-.804.86 0 1.55.268 2.08.804.53.528.8 1.2.8 2.016 0 .816-.27 1.492-.8 2.028-.53.528-1.22.792-2.08.792-.85 0-1.54-.264-2.09-.792zm.76-3.408c-.35.352-.53.812-.53 1.38 0 .568.17 1.028.52 1.38.35.36.8.54 1.34.54.55 0 .99-.176 1.33-.528.36-.36.53-.824.53-1.392 0-.552-.17-1.012-.53-1.38-.34-.36-.78-.54-1.33-.54-.54 0-.99.18-1.33.54zm9.75 2.604l.46.696c-.47.6-1.16.9-2.08.9-.86 0-1.56-.256-2.1-.768-.53-.512-.79-1.196-.79-2.052 0-.792.26-1.46.78-2.004s1.17-.816 1.95-.816c.95 0 1.66.236 2.13.708l-.45.756c-.41-.376-.93-.564-1.54-.564-.51 0-.94.184-1.31.552-.36.36-.54.816-.54 1.368 0 .584.18 1.048.55 1.392.38.352.84.528 1.39.528.63 0 1.14-.232 1.55-.696zm2.93-2.964h-1.98v-.96h4.92v.96h-1.98V151h-.96v-4.44zm7.95-.96h1.09l-2.16 5.4c-.39.952-.73 1.584-1.02 1.896-.3.336-.65.504-1.04.504-.36 0-.7-.112-1.02-.336l.31-.732c.25.12.45.18.6.18.22 0 .42-.096.6-.288.18-.192.37-.504.55-.936l.12-.288-2.59-5.4h1.15l1.58 3.432c.04.056.14.328.33.816.07-.264.15-.54.25-.828l1.25-3.42zm6.94 5.4h-.96v-4.5h-2.94v4.5h-.96v-5.4h4.86v5.4zm2.02-4.26l-.25-.768a3.4 3.4 0 011.8-.492c.73 0 1.26.18 1.58.54.33.36.5.916.5 1.668V151h-.92v-.696c-.42.52-1 .78-1.72.78-.5 0-.9-.148-1.2-.444-.31-.304-.46-.712-.46-1.224 0-.528.19-.944.56-1.248.38-.312.87-.468 1.48-.468.57 0 1.02.116 1.34.348 0-.608-.08-1.044-.25-1.308-.17-.264-.49-.396-.97-.396-.49 0-.98.132-1.49.396zm1.32 3.48c.54 0 1-.232 1.39-.696v-.684c-.33-.24-.74-.36-1.21-.36-.33 0-.6.08-.83.24a.756.756 0 00-.32.648c0 .264.08.472.25.624.18.152.42.228.72.228zm8.57.78h-.96v-4.44h-1.9l-.06.912c-.06.744-.16 1.364-.28 1.86-.12.488-.28.856-.48 1.104-.2.24-.4.408-.62.504-.21.088-.48.132-.79.132l-.07-.936c.09.008.18-.004.28-.036.09-.04.2-.12.31-.24.12-.12.22-.28.31-.48.1-.2.18-.48.25-.84.08-.368.13-.788.16-1.26l.09-1.68h3.76v5.4zm2.16-.672c-.52-.544-.79-1.22-.79-2.028 0-.816.27-1.488.79-2.016.54-.536 1.24-.804 2.09-.804.86 0 1.55.268 2.08.804.53.528.8 1.2.8 2.016 0 .816-.27 1.492-.8 2.028-.53.528-1.22.792-2.08.792-.85 0-1.54-.264-2.09-.792zm.76-3.408c-.35.352-.53.812-.53 1.38 0 .568.17 1.028.52 1.38.35.36.8.54 1.34.54.55 0 .99-.176 1.33-.528.36-.36.53-.824.53-1.392 0-.552-.17-1.012-.53-1.38-.34-.36-.78-.54-1.33-.54-.54 0-.99.18-1.33.54zm8.29 4.08v-5.4h.17c.07-.008.18-.012.31-.012.14-.008.26-.012.37-.012.6-.016.96-.024 1.11-.024 1.55 0 2.33.464 2.33 1.392 0 .32-.1.596-.3.828-.2.224-.46.36-.78.408v.024c.84.152 1.26.576 1.26 1.272 0 1.048-.83 1.572-2.49 1.572-.08 0-.43-.008-1.05-.024-.12 0-.26-.004-.4-.012-.14 0-.26-.004-.34-.012h-.19zm2.11-2.424h-1.15v1.656c.58.024.95.036 1.11.036.92 0 1.38-.288 1.38-.864 0-.552-.45-.828-1.34-.828zm-.08-2.244c-.23 0-.59.012-1.07.036v1.608h1.21c.33 0 .6-.076.8-.228a.73.73 0 00.3-.612c0-.536-.42-.804-1.24-.804zm10.1 2.316h-2.66v-.78h2.65c-.07-.48-.28-.848-.61-1.104-.33-.256-.75-.384-1.26-.384-.67 0-1.22.196-1.66.588l-.41-.72c.23-.232.54-.416.93-.552.38-.144.76-.216 1.12-.216.87 0 1.56.256 2.08.768.54.512.8 1.196.8 2.052 0 .792-.26 1.46-.78 2.004s-1.17.816-1.95.816c-.98 0-1.7-.228-2.17-.684l.45-.708c.37.328.92.492 1.66.492.5 0 .91-.136 1.23-.408.32-.28.52-.668.58-1.164zm6.81 2.352h-.96v-4.44h-1.89l-.06.912c-.07.744-.16 1.364-.29 1.86-.12.488-.28.856-.48 1.104-.19.24-.4.408-.61.504-.22.088-.48.132-.8.132l-.07-.936c.09.008.18-.004.28-.036.09-.04.2-.12.31-.24.12-.12.22-.28.31-.48.1-.2.18-.48.25-.84.08-.368.14-.788.16-1.26l.1-1.68h3.75v5.4zm5.99-1.344l.3.756c-.52.472-1.19.708-2.02.708-.88 0-1.58-.256-2.1-.768-.53-.512-.8-1.196-.8-2.052 0-.808.25-1.48.75-2.016.49-.536 1.17-.804 2.04-.804.72 0 1.31.232 1.79.696.48.456.72 1.048.72 1.776 0 .232-.02.448-.06.648h-4.16c.04.504.23.9.57 1.188.34.288.78.432 1.32.432.7 0 1.25-.188 1.65-.564zm-1.88-3.276c-.47 0-.86.132-1.18.396-.3.264-.48.612-.54 1.044h3.28c-.02-.448-.18-.8-.46-1.056-.27-.256-.64-.384-1.1-.384zm7.33-.78h1.26l-2.37 2.58 2.59 2.82h-1.33l-2.43-2.76 2.28-2.64zm-2.51 5.4h-.96v-5.4h.96v5.4zm6.31-4.44h-1.98v-.96h4.92v.96h-1.98V151h-.96v-4.44zm4.95 6.84h-.96v-7.8h.96v.636c.19-.224.46-.404.79-.54.34-.144.69-.216 1.05-.216.76 0 1.37.256 1.81.768.45.504.68 1.16.68 1.968 0 .824-.26 1.516-.78 2.076-.51.552-1.19.828-2.03.828-.64 0-1.15-.124-1.52-.372v2.652zm1.56-7.02c-.64 0-1.16.248-1.56.744v2.676c.42.28.9.42 1.44.42.57 0 1.02-.18 1.36-.54.34-.368.51-.844.51-1.428 0-.568-.15-1.02-.47-1.356-.31-.344-.74-.516-1.28-.516zm8.23.6l-3.12 4.02h-.96v-5.4h.96v4.02l3.12-4.02h.96v5.4h-.96v-4.02zm5.8-1.38h.96v5.4h-.96v-2.1c-.42.264-.92.396-1.5.396-1.28 0-1.92-.688-1.92-2.064V145.6h1.02v1.524c0 .848.39 1.272 1.16 1.272.51 0 .92-.112 1.24-.336v-2.46zm6.95 4.056l.3.756c-.52.472-1.19.708-2.03.708-.88 0-1.58-.256-2.1-.768s-.79-1.196-.79-2.052c0-.808.25-1.48.75-2.016.48-.536 1.16-.804 2.04-.804.72 0 1.31.232 1.78.696.48.456.72 1.048.72 1.776 0 .232-.02.448-.06.648h-4.15c.04.504.23.9.57 1.188.34.288.78.432 1.32.432.7 0 1.25-.188 1.65-.564zm-1.88-3.276c-.47 0-.87.132-1.18.396-.3.264-.48.612-.54 1.044h3.28c-.03-.448-.18-.8-.46-1.056-.27-.256-.64-.384-1.1-.384zm7.94 3.144l.45.696c-.46.6-1.15.9-2.07.9-.87 0-1.57-.256-2.1-.768s-.79-1.196-.79-2.052c0-.792.26-1.46.78-2.004s1.17-.816 1.95-.816c.95 0 1.65.236 2.13.708l-.45.756c-.41-.376-.93-.564-1.55-.564-.5 0-.94.184-1.3.552-.36.36-.54.816-.54 1.368 0 .584.18 1.048.55 1.392.37.352.84.528 1.39.528.62 0 1.14-.232 1.55-.696zm5.17-3.924h1.26l-2.36 2.58 2.59 2.82h-1.33l-2.44-2.76 2.28-2.64zm-2.5 5.4h-.96v-5.4h.96v5.4zm8.72-5.4h1.09l-2.16 5.4c-.39.952-.73 1.584-1.02 1.896-.3.336-.65.504-1.04.504-.35 0-.69-.112-1.02-.336l.31-.732c.26.12.46.18.6.18.23 0 .43-.096.6-.288.19-.192.37-.504.55-.936l.12-.288-2.59-5.4h1.15l1.59 3.432c.03.056.14.328.32.816.07-.264.16-.54.25-.828l1.25-3.42zm3.1 5.4h-1.02v-5.4h1.02v2.16h1.18c.11-.688.41-1.24.9-1.656.49-.416 1.1-.624 1.82-.624.85 0 1.53.268 2.04.804.52.536.78 1.208.78 2.016s-.26 1.484-.79 2.028c-.52.528-1.2.792-2.03.792-.76 0-1.38-.22-1.87-.66-.49-.44-.78-1.02-.87-1.74h-1.16V151zm2.7-4.044c-.32.344-.48.792-.48 1.344s.16 1 .48 1.344c.32.344.73.516 1.24.516.5 0 .91-.168 1.22-.504.32-.344.48-.796.48-1.356 0-.552-.16-1-.47-1.344-.31-.344-.72-.516-1.23-.516s-.92.172-1.24.516zm-196.86 18.568l.45.696c-.46.6-1.15.9-2.07.9-.87 0-1.57-.256-2.1-.768s-.8-1.196-.8-2.052c0-.792.26-1.46.78-2.004s1.18-.816 1.96-.816c.94 0 1.65.236 2.12.708l-.44.756c-.42-.376-.93-.564-1.55-.564-.5 0-.94.184-1.31.552-.36.36-.54.816-.54 1.368 0 .584.19 1.048.56 1.392.37.352.84.528 1.39.528.62 0 1.14-.232 1.55-.696zm5.67.132l.3.756c-.52.472-1.2.708-2.03.708-.88 0-1.58-.256-2.1-.768-.53-.512-.79-1.196-.79-2.052 0-.808.25-1.48.74-2.016s1.17-.804 2.04-.804c.72 0 1.32.232 1.79.696.48.456.72 1.048.72 1.776 0 .232-.02.448-.06.648h-4.15c.04.504.23.9.56 1.188.35.288.79.432 1.32.432.71 0 1.26-.188 1.66-.564zm-1.88-3.276c-.48 0-.87.132-1.18.396-.3.264-.48.612-.54 1.044h3.28c-.03-.448-.18-.8-.46-1.056-.27-.256-.64-.384-1.1-.384zm5.05.18h-1.98v-.96h4.92v.96h-1.98V167h-.96v-4.44zm5.81 4.44h-1.83v-5.4h.96v1.62h.99c.73 0 1.27.168 1.62.504.34.328.51.78.51 1.356 0 .544-.18 1-.54 1.368-.36.368-.93.552-1.71.552zm-.06-2.88h-.81v1.98h.8c.87 0 1.3-.328 1.3-.984 0-.664-.43-.996-1.29-.996zm10.45 1.404l.45.696c-.46.6-1.15.9-2.07.9-.87 0-1.57-.256-2.1-.768s-.79-1.196-.79-2.052c0-.792.26-1.46.78-2.004s1.17-.816 1.95-.816c.95 0 1.65.236 2.13.708l-.45.756c-.41-.376-.93-.564-1.55-.564-.5 0-.94.184-1.3.552-.36.36-.54.816-.54 1.368 0 .584.18 1.048.55 1.392.37.352.84.528 1.39.528.62 0 1.14-.232 1.55-.696zm9.32 1.476h-.96v-2.28h-3V167h-.96v-5.4h.96v2.22h3v-2.22h.96v5.4zm5.55-5.4h1.1l-2.16 5.4c-.4.952-.74 1.584-1.02 1.896-.31.336-.66.504-1.05.504-.35 0-.69-.112-1.02-.336l.31-.732c.26.12.46.18.6.18.23 0 .43-.096.6-.288.19-.192.37-.504.56-.936l.12-.288-2.6-5.4h1.16l1.58 3.432c.03.056.14.328.32.816.08-.264.16-.54.26-.828l1.24-3.42zm7.75 0h1.19l-1.96 2.604 2.1 2.796h-1.19l-2-2.796 1.86-2.604zm-2.1 5.4h-.96v-5.4h.96v5.4zm-4.36 0l2.07-2.796-1.96-2.604h1.2l1.85 2.604-1.98 2.796h-1.18zm13.75 0h-.96v-2.28h-3V167h-.96v-5.4h.96v2.22h3v-2.22h.96v5.4zm3.48 0h-1.74v-5.4h.96v1.62h.89c.73 0 1.27.168 1.62.504.34.328.51.78.51 1.356 0 .544-.18 1-.54 1.368-.34.368-.91.552-1.7.552zm4.23 0h-.96v-5.4h.96v5.4zm-4.3-2.88h-.71v1.98h.69c.46 0 .79-.08 1-.24.21-.16.31-.408.31-.744 0-.664-.43-.996-1.29-.996zm6.99 2.88h-.96v-5.4h.87l2.08 2.676 1.97-2.676h.85v5.4h-.96v-3.936l-1.87 2.508h-.04l-1.94-2.508V167zm10.63-4.02l-3.12 4.02h-.96v-5.4h.96v4.02l3.12-4.02h.96v5.4h-.96v-4.02zm9.08-1.38h1.12l-1.93 2.604 2.05 2.796h-1.18l-1.58-2.184-1.61 2.184h-1.11l2.04-2.748-1.92-2.652h1.17l1.47 2.04 1.48-2.04zm2.69 1.14l-.25-.768a3.35 3.35 0 011.8-.492c.73 0 1.25.18 1.58.54.33.36.49.916.49 1.668V167h-.91v-.696c-.42.52-1 .78-1.73.78-.49 0-.89-.148-1.2-.444-.3-.304-.45-.712-.45-1.224 0-.528.19-.944.56-1.248.38-.312.87-.468 1.48-.468.57 0 1.01.116 1.34.348 0-.608-.08-1.044-.25-1.308-.17-.264-.49-.396-.97-.396-.49 0-.99.132-1.49.396zm1.32 3.48c.54 0 1-.232 1.39-.696v-.684c-.33-.24-.74-.36-1.21-.36-.33 0-.6.08-.83.24a.756.756 0 00-.32.648c0 .264.08.472.25.624.18.152.42.228.72.228zm4.87 3.18h-.96v-7.8h.96v.636c.19-.224.46-.404.79-.54.34-.144.69-.216 1.05-.216.76 0 1.37.256 1.81.768.45.504.68 1.16.68 1.968 0 .824-.26 1.516-.78 2.076-.51.552-1.19.828-2.03.828-.64 0-1.15-.124-1.52-.372v2.652zm1.56-7.02c-.64 0-1.16.248-1.56.744v2.676c.42.28.9.42 1.44.42.57 0 1.02-.18 1.36-.54.34-.368.51-.844.51-1.428 0-.568-.15-1.02-.47-1.356-.31-.344-.74-.516-1.28-.516zm4.44.36l-.26-.768a3.4 3.4 0 011.8-.492c.73 0 1.26.18 1.59.54.33.36.49.916.49 1.668V167h-.91v-.696c-.43.52-1 .78-1.73.78-.5 0-.9-.148-1.2-.444-.3-.304-.46-.712-.46-1.224 0-.528.19-.944.57-1.248.37-.312.87-.468 1.47-.468.57 0 1.02.116 1.35.348 0-.608-.09-1.044-.25-1.308-.17-.264-.5-.396-.98-.396s-.98.132-1.48.396zm1.32 3.48c.53 0 1-.232 1.39-.696v-.684c-.34-.24-.74-.36-1.21-.36-.33 0-.61.08-.83.24a.741.741 0 00-.33.648c0 .264.09.472.26.624.17.152.41.228.72.228zm7.38-4.62h1.26l-2.37 2.58 2.59 2.82h-1.33l-2.43-2.76 2.28-2.64zm-2.51 5.4h-.96v-5.4h.96v5.4zm6.31-4.44h-1.98v-.96h4.92v.96h-1.98V167h-.96v-4.44zm8.07 3.096l.3.756c-.52.472-1.19.708-2.02.708-.88 0-1.58-.256-2.1-.768-.53-.512-.8-1.196-.8-2.052 0-.808.25-1.48.75-2.016.49-.536 1.17-.804 2.04-.804.72 0 1.31.232 1.79.696.48.456.72 1.048.72 1.776 0 .232-.02.448-.06.648h-4.16c.04.504.23.9.57 1.188.34.288.78.432 1.32.432.7 0 1.25-.188 1.65-.564zm-1.88-3.276c-.47 0-.86.132-1.18.396-.3.264-.48.612-.54 1.044h3.28c-.02-.448-.18-.8-.46-1.056-.27-.256-.64-.384-1.1-.384zm4.82 7.02h-.96v-7.8h.96v.636c.19-.224.45-.404.79-.54a2.62 2.62 0 011.04-.216c.77 0 1.38.256 1.82.768.45.504.68 1.16.68 1.968 0 .824-.26 1.516-.78 2.076-.51.552-1.19.828-2.03.828-.65 0-1.15-.124-1.52-.372v2.652zm1.56-7.02c-.64 0-1.16.248-1.56.744v2.676c.42.28.9.42 1.44.42.57 0 1.02-.18 1.35-.54.35-.368.52-.844.52-1.428 0-.568-.16-1.02-.47-1.356-.31-.344-.74-.516-1.28-.516zm8.23.6l-3.12 4.02h-.96v-5.4h.96v4.02l3.12-4.02h.96v5.4h-.96v-4.02zm6.85 2.544l.46.696c-.46.6-1.16.9-2.08.9-.86 0-1.56-.256-2.1-.768-.52-.512-.79-1.196-.79-2.052 0-.792.26-1.46.78-2.004s1.17-.816 1.96-.816c.94 0 1.65.236 2.12.708l-.44.756c-.42-.376-.93-.564-1.55-.564-.5 0-.94.184-1.31.552-.36.36-.54.816-.54 1.368 0 .584.19 1.048.55 1.392.38.352.84.528 1.4.528.62 0 1.14-.232 1.54-.696zm2.94-2.964h-1.98v-.96h4.92v.96h-1.98V167h-.96v-4.44zm8.07.42L1191 167h-.96v-5.4h.96v4.02l3.12-4.02h.96v5.4h-.96v-4.02zm6.17-1.38h1.26l-2.36 2.58 2.59 2.82h-1.33l-2.44-2.76 2.28-2.64zm-2.51 5.4h-.96v-5.4h.96v5.4zm5.31-4.26l-.26-.768a3.4 3.4 0 011.8-.492c.73 0 1.26.18 1.59.54.33.36.49.916.49 1.668V167h-.91v-.696c-.43.52-1 .78-1.73.78-.5 0-.9-.148-1.2-.444-.3-.304-.46-.712-.46-1.224 0-.528.19-.944.57-1.248.37-.312.87-.468 1.47-.468.57 0 1.02.116 1.35.348 0-.608-.09-1.044-.25-1.308-.17-.264-.5-.396-.98-.396s-.98.132-1.48.396zm1.32 3.48c.53 0 1-.232 1.39-.696v-.684c-.34-.24-.74-.36-1.21-.36-.33 0-.61.08-.83.24a.741.741 0 00-.33.648c0 .264.09.472.26.624.17.152.41.228.72.228zm4.87.78h-.96v-5.4h.87l2.08 2.676 1.97-2.676h.85v5.4h-.96v-3.936l-1.87 2.508h-.04l-1.94-2.508V167zm10.63-4.02l-3.12 4.02h-.96v-5.4h.96v4.02l3.12-4.02h.96v5.4h-.96v-4.02z" fill="#959595"/><path d="M853.246 238.07a.498.498 0 10.508.86l-.508-.86zm.508.86l110-65-.508-.86-110 65 .508.86z" fill="#525252"/><path d="M994.471 118.12l2.64-21.12h18.959v4.8h-14.76l-1.559 11.34c.959-.28 2.079-.42 3.359-.42 3.88 0 7.06 1.2 9.54 3.6 2.48 2.36 3.72 5.5 3.72 9.42 0 4.2-1.32 7.56-3.96 10.08-2.64 2.52-5.88 3.78-9.72 3.78-2.48 0-4.819-.56-7.019-1.68-2.2-1.12-3.88-2.68-5.04-4.68l2.76-3.54c.96 1.56 2.3 2.8 4.02 3.72 1.76.92 3.559 1.38 5.399 1.38 2.4 0 4.4-.84 6-2.52 1.64-1.72 2.46-3.84 2.46-6.36 0-2.56-.94-4.68-2.82-6.36-1.84-1.68-4.3-2.52-7.38-2.52-2.519 0-4.719.36-6.599 1.08z" fill="#999"/></g></svg>