<svg width="390" height="570" viewBox="0 0 390 570" fill="none" xmlns="http://www.w3.org/2000/svg">
<mask id="mask0_1207_55" style="mask-type:alpha" maskUnits="userSpaceOnUse" x="0" y="0" width="390" height="570">
<rect width="390" height="570" fill="#D9D9D9"/>
</mask>
<g mask="url(#mask0_1207_55)">
<rect x="218" y="19" width="150" height="63" fill="#C1C1C1" fill-opacity="0.8"/>
<rect x="214" y="15" width="150" height="63" fill="white"/>
<rect x="210.256" y="11.2562" width="149.488" height="62.4876" stroke="#525252" stroke-width="0.512419"/>
<path d="M248.613 27.646H246.102V26.8261H251.995V27.646H249.484V34H248.613V27.646ZM252.392 36.0497H251.572V29.3882H252.392V29.9314C252.556 29.7401 252.781 29.5864 253.068 29.4702C253.355 29.3472 253.652 29.2857 253.96 29.2857C254.616 29.2857 255.131 29.5044 255.507 29.9416C255.897 30.3721 256.091 30.9323 256.091 31.6224C256.091 32.3261 255.869 32.9171 255.425 33.3953C254.988 33.8668 254.411 34.1025 253.693 34.1025C253.14 34.1025 252.706 33.9966 252.392 33.7848V36.0497ZM253.724 30.0544C253.177 30.0544 252.733 30.2662 252.392 30.6898V32.9752C252.754 33.2143 253.164 33.3339 253.622 33.3339C254.107 33.3339 254.493 33.1801 254.78 32.8727C255.073 32.5584 255.22 32.1519 255.22 31.6531C255.22 31.168 255.087 30.782 254.821 30.4951C254.554 30.2013 254.189 30.0544 253.724 30.0544ZM257.512 30.3618L257.297 29.7059C257.755 29.4258 258.267 29.2857 258.834 29.2857C259.456 29.2857 259.907 29.4395 260.187 29.7469C260.467 30.0544 260.607 30.5292 260.607 31.1714V34H259.829V33.4056C259.466 33.8497 258.975 34.0717 258.353 34.0717C257.929 34.0717 257.588 33.9453 257.328 33.6925C257.068 33.4329 256.939 33.0845 256.939 32.6472C256.939 32.1963 257.099 31.841 257.42 31.5814C257.741 31.3149 258.162 31.1817 258.681 31.1817C259.166 31.1817 259.548 31.2808 259.829 31.4789C259.829 30.9596 259.757 30.5873 259.613 30.3618C259.47 30.1364 259.193 30.0236 258.783 30.0236C258.366 30.0236 257.943 30.1364 257.512 30.3618ZM258.64 33.3339C259.098 33.3339 259.494 33.1357 259.829 32.7394V32.1553C259.542 31.9503 259.197 31.8478 258.793 31.8478C258.513 31.8478 258.278 31.9162 258.086 32.0528C257.902 32.1826 257.81 32.3671 257.81 32.6062C257.81 32.8317 257.881 33.0093 258.025 33.1391C258.175 33.2689 258.38 33.3339 258.64 33.3339ZM266.182 34H265.362V32.0528H262.8V34H261.98V29.3882H262.8V31.2842H265.362V29.3882H266.182V34ZM271.211 32.7394L271.6 33.3339C271.204 33.8463 270.613 34.1025 269.827 34.1025C269.09 34.1025 268.492 33.8839 268.034 33.4466C267.583 33.0093 267.358 32.4252 267.358 31.6941C267.358 31.0177 267.58 30.4472 268.024 29.9826C268.468 29.518 269.025 29.2857 269.694 29.2857C270.5 29.2857 271.105 29.4873 271.508 29.8904L271.129 30.536C270.774 30.2149 270.333 30.0544 269.807 30.0544C269.376 30.0544 269.004 30.2115 268.69 30.5258C268.382 30.8333 268.229 31.2227 268.229 31.6941C268.229 32.1929 268.386 32.5891 268.7 32.8829C269.021 33.1835 269.417 33.3339 269.889 33.3339C270.422 33.3339 270.862 33.1357 271.211 32.7394ZM275.545 36.0497H274.725V34.1025H274.612C273.84 34.1025 273.228 33.877 272.778 33.4261C272.333 32.9683 272.111 32.391 272.111 31.6941C272.111 31.0314 272.337 30.4643 272.788 29.9929C273.239 29.5215 273.843 29.2857 274.602 29.2857H274.725V26.8261H275.545V29.2857H275.678C276.429 29.2857 277.031 29.5146 277.482 29.9724C277.932 30.4301 278.158 31.0041 278.158 31.6941C278.158 32.4115 277.939 32.9922 277.502 33.4363C277.072 33.8804 276.464 34.1025 275.678 34.1025H275.545V36.0497ZM272.983 31.6941C272.983 32.1929 273.129 32.5926 273.423 32.8932C273.724 33.187 274.13 33.3339 274.643 33.3339H274.725V30.0544H274.592C274.093 30.0544 273.7 30.2081 273.413 30.5156C273.126 30.8162 272.983 31.209 272.983 31.6941ZM275.678 30.0544H275.545V33.3339H275.637C276.156 33.3339 276.559 33.187 276.846 32.8932C277.14 32.5926 277.287 32.1929 277.287 31.6941C277.287 31.2432 277.143 30.8572 276.856 30.536C276.569 30.2149 276.177 30.0544 275.678 30.0544ZM279.703 33.4261C279.253 32.9615 279.027 32.3842 279.027 31.6941C279.027 30.9972 279.253 30.4233 279.703 29.9724C280.161 29.5146 280.756 29.2857 281.487 29.2857C282.218 29.2857 282.809 29.5146 283.26 29.9724C283.717 30.4233 283.946 30.9972 283.946 31.6941C283.946 32.391 283.717 32.9683 283.26 33.4261C282.809 33.877 282.218 34.1025 281.487 34.1025C280.762 34.1025 280.168 33.877 279.703 33.4261ZM280.349 30.5156C280.048 30.8162 279.898 31.209 279.898 31.6941C279.898 32.1792 280.045 32.5721 280.339 32.8727C280.639 33.1801 281.022 33.3339 281.487 33.3339C281.951 33.3339 282.33 33.1835 282.624 32.8829C282.925 32.5755 283.075 32.1792 283.075 31.6941C283.075 31.2227 282.925 30.8298 282.624 30.5156C282.33 30.2081 281.951 30.0544 281.487 30.0544C281.022 30.0544 280.643 30.2081 280.349 30.5156ZM285.949 36.0497H285.129V29.3882H285.949V29.9314C286.113 29.7401 286.339 29.5864 286.626 29.4702C286.912 29.3472 287.21 29.2857 287.517 29.2857C288.173 29.2857 288.689 29.5044 289.065 29.9416C289.454 30.3721 289.649 30.9323 289.649 31.6224C289.649 32.3261 289.427 32.9171 288.983 33.3953C288.545 33.8668 287.968 34.1025 287.251 34.1025C286.697 34.1025 286.263 33.9966 285.949 33.7848V36.0497ZM287.281 30.0544C286.735 30.0544 286.291 30.2662 285.949 30.6898V32.9752C286.311 33.2143 286.721 33.3339 287.179 33.3339C287.664 33.3339 288.05 33.1801 288.337 32.8727C288.631 32.5584 288.778 32.1519 288.778 31.6531C288.778 31.168 288.644 30.782 288.378 30.4951C288.112 30.2013 287.746 30.0544 287.281 30.0544ZM291.644 34H290.824V29.3882H291.572L293.345 31.6736L295.026 29.3882H295.753V34H294.934V30.6385L293.335 32.7804H293.304L291.644 30.6385V34ZM297.485 30.3618L297.27 29.7059C297.728 29.4258 298.24 29.2857 298.807 29.2857C299.429 29.2857 299.88 29.4395 300.16 29.7469C300.44 30.0544 300.58 30.5292 300.58 31.1714V34H299.801V33.4056C299.439 33.8497 298.947 34.0717 298.325 34.0717C297.902 34.0717 297.56 33.9453 297.301 33.6925C297.041 33.4329 296.911 33.0845 296.911 32.6472C296.911 32.1963 297.072 31.841 297.393 31.5814C297.714 31.3149 298.134 31.1817 298.653 31.1817C299.139 31.1817 299.521 31.2808 299.801 31.4789C299.801 30.9596 299.73 30.5873 299.586 30.3618C299.443 30.1364 299.166 30.0236 298.756 30.0236C298.339 30.0236 297.916 30.1364 297.485 30.3618ZM298.612 33.3339C299.07 33.3339 299.466 33.1357 299.801 32.7394V32.1553C299.514 31.9503 299.169 31.8478 298.766 31.8478C298.486 31.8478 298.25 31.9162 298.059 32.0528C297.875 32.1826 297.782 32.3671 297.782 32.6062C297.782 32.8317 297.854 33.0093 297.998 33.1391C298.148 33.2689 298.353 33.3339 298.612 33.3339ZM303.06 30.2081H301.369V29.3882H305.571V30.2081H303.88V34H303.06V30.2081ZM306.686 33.4261C306.235 32.9615 306.009 32.3842 306.009 31.6941C306.009 30.9972 306.235 30.4233 306.686 29.9724C307.143 29.5146 307.738 29.2857 308.469 29.2857C309.2 29.2857 309.791 29.5146 310.242 29.9724C310.699 30.4233 310.928 30.9972 310.928 31.6941C310.928 32.391 310.699 32.9683 310.242 33.4261C309.791 33.877 309.2 34.1025 308.469 34.1025C307.745 34.1025 307.15 33.877 306.686 33.4261ZM307.331 30.5156C307.031 30.8162 306.88 31.209 306.88 31.6941C306.88 32.1792 307.027 32.5721 307.321 32.8727C307.622 33.1801 308.004 33.3339 308.469 33.3339C308.933 33.3339 309.313 33.1835 309.606 32.8829C309.907 32.5755 310.057 32.1792 310.057 31.6941C310.057 31.2227 309.907 30.8298 309.606 30.5156C309.313 30.2081 308.933 30.0544 308.469 30.0544C308.004 30.0544 307.625 30.2081 307.331 30.5156ZM312.931 36.0497H312.111V29.3882H312.931V29.9314C313.095 29.7401 313.321 29.5864 313.608 29.4702C313.895 29.3472 314.192 29.2857 314.499 29.2857C315.155 29.2857 315.671 29.5044 316.047 29.9416C316.436 30.3721 316.631 30.9323 316.631 31.6224C316.631 32.3261 316.409 32.9171 315.965 33.3953C315.527 33.8668 314.95 34.1025 314.233 34.1025C313.679 34.1025 313.245 33.9966 312.931 33.7848V36.0497ZM314.263 30.0544C313.717 30.0544 313.273 30.2662 312.931 30.6898V32.9752C313.293 33.2143 313.703 33.3339 314.161 33.3339C314.646 33.3339 315.032 33.1801 315.319 32.8727C315.613 32.5584 315.76 32.1519 315.76 31.6531C315.76 31.168 315.626 30.782 315.36 30.4951C315.094 30.2013 314.728 30.0544 314.263 30.0544Z" fill="black"/>
<path d="M249.93 48H249.42V44.28H247.14V48H246.63V43.8H249.93V48ZM251.471 49.2H250.991V45.3H251.471V45.618C251.567 45.506 251.699 45.416 251.867 45.348C252.035 45.276 252.209 45.24 252.389 45.24C252.773 45.24 253.075 45.368 253.295 45.624C253.523 45.876 253.637 46.204 253.637 46.608C253.637 47.02 253.507 47.366 253.247 47.646C252.991 47.922 252.653 48.06 252.233 48.06C251.909 48.06 251.655 47.998 251.471 47.874V49.2ZM252.251 45.69C251.931 45.69 251.671 45.814 251.471 46.062V47.4C251.683 47.54 251.923 47.61 252.191 47.61C252.475 47.61 252.701 47.52 252.869 47.34C253.041 47.156 253.127 46.918 253.127 46.626C253.127 46.342 253.049 46.116 252.893 45.948C252.737 45.776 252.523 45.69 252.251 45.69ZM256.455 47.328L256.605 47.706C256.345 47.942 256.007 48.06 255.591 48.06C255.151 48.06 254.801 47.932 254.541 47.676C254.277 47.42 254.145 47.078 254.145 46.65C254.145 46.246 254.269 45.91 254.517 45.642C254.761 45.374 255.101 45.24 255.537 45.24C255.897 45.24 256.195 45.356 256.431 45.588C256.671 45.816 256.791 46.112 256.791 46.476C256.791 46.592 256.781 46.7 256.761 46.8H254.685C254.705 47.052 254.799 47.25 254.967 47.394C255.139 47.538 255.359 47.61 255.627 47.61C255.979 47.61 256.255 47.516 256.455 47.328ZM255.513 45.69C255.277 45.69 255.081 45.756 254.925 45.888C254.773 46.02 254.683 46.194 254.655 46.41H256.293C256.281 46.186 256.205 46.01 256.065 45.882C255.929 45.754 255.745 45.69 255.513 45.69ZM257.623 47.664C257.359 47.392 257.227 47.054 257.227 46.65C257.227 46.242 257.359 45.906 257.623 45.642C257.891 45.374 258.239 45.24 258.667 45.24C259.095 45.24 259.441 45.374 259.705 45.642C259.973 45.906 260.107 46.242 260.107 46.65C260.107 47.058 259.973 47.396 259.705 47.664C259.441 47.928 259.095 48.06 258.667 48.06C258.243 48.06 257.895 47.928 257.623 47.664ZM258.001 45.96C257.825 46.136 257.737 46.366 257.737 46.65C257.737 46.934 257.823 47.164 257.995 47.34C258.171 47.52 258.395 47.61 258.667 47.61C258.939 47.61 259.161 47.522 259.333 47.346C259.509 47.166 259.597 46.934 259.597 46.65C259.597 46.374 259.509 46.144 259.333 45.96C259.161 45.78 258.939 45.69 258.667 45.69C258.395 45.69 258.173 45.78 258.001 45.96ZM262.887 43.74L263.145 44.118C263.049 44.25 262.933 44.34 262.797 44.388C262.649 44.44 262.481 44.48 262.293 44.508C262.109 44.536 261.935 44.586 261.771 44.658C261.363 44.846 261.135 45.28 261.087 45.96H261.099C261.187 45.772 261.329 45.62 261.525 45.504C261.725 45.388 261.939 45.33 262.167 45.33C262.551 45.33 262.855 45.452 263.079 45.696C263.307 45.94 263.421 46.266 263.421 46.674C263.421 47.058 263.291 47.386 263.031 47.658C262.775 47.926 262.443 48.06 262.035 48.06C261.595 48.06 261.247 47.91 260.991 47.61C260.735 47.314 260.607 46.904 260.607 46.38C260.607 45.212 260.941 44.486 261.609 44.202C261.761 44.134 261.937 44.084 262.137 44.052C262.293 44.024 262.405 44.002 262.473 43.986C262.541 43.97 262.613 43.942 262.689 43.902C262.769 43.862 262.835 43.808 262.887 43.74ZM261.117 46.47C261.117 46.814 261.201 47.09 261.369 47.298C261.537 47.506 261.755 47.61 262.023 47.61C262.283 47.61 262.495 47.522 262.659 47.346C262.827 47.174 262.911 46.958 262.911 46.698C262.911 46.422 262.833 46.2 262.677 46.032C262.525 45.864 262.315 45.78 262.047 45.78C261.803 45.78 261.599 45.848 261.435 45.984C261.263 46.124 261.157 46.286 261.117 46.47ZM264.59 49.2H264.11V45.3H264.59V45.618C264.686 45.506 264.818 45.416 264.986 45.348C265.154 45.276 265.328 45.24 265.508 45.24C265.892 45.24 266.194 45.368 266.414 45.624C266.642 45.876 266.756 46.204 266.756 46.608C266.756 47.02 266.626 47.366 266.366 47.646C266.11 47.922 265.772 48.06 265.352 48.06C265.028 48.06 264.774 47.998 264.59 47.874V49.2ZM265.37 45.69C265.05 45.69 264.79 45.814 264.59 46.062V47.4C264.802 47.54 265.042 47.61 265.31 47.61C265.594 47.61 265.82 47.52 265.988 47.34C266.16 47.156 266.246 46.918 266.246 46.626C266.246 46.342 266.168 46.116 266.012 45.948C265.856 45.776 265.642 45.69 265.37 45.69ZM267.588 45.87L267.462 45.486C267.73 45.322 268.03 45.24 268.362 45.24C268.726 45.24 268.99 45.33 269.154 45.51C269.318 45.69 269.4 45.968 269.4 46.344V48H268.944V47.652C268.732 47.912 268.444 48.042 268.08 48.042C267.832 48.042 267.632 47.968 267.48 47.82C267.328 47.668 267.252 47.464 267.252 47.208C267.252 46.944 267.346 46.736 267.534 46.584C267.722 46.428 267.968 46.35 268.272 46.35C268.556 46.35 268.78 46.408 268.944 46.524C268.944 46.22 268.902 46.002 268.818 45.87C268.734 45.738 268.572 45.672 268.332 45.672C268.088 45.672 267.84 45.738 267.588 45.87ZM268.248 47.61C268.516 47.61 268.748 47.494 268.944 47.262V46.92C268.776 46.8 268.574 46.74 268.338 46.74C268.174 46.74 268.036 46.78 267.924 46.86C267.816 46.936 267.762 47.044 267.762 47.184C267.762 47.316 267.804 47.42 267.888 47.496C267.976 47.572 268.096 47.61 268.248 47.61ZM271.097 48.06C270.893 48.06 270.677 48.026 270.449 47.958C270.229 47.886 270.073 47.798 269.981 47.694L270.227 47.334C270.335 47.422 270.463 47.494 270.611 47.55C270.763 47.602 270.901 47.628 271.025 47.628C271.233 47.628 271.403 47.588 271.535 47.508C271.667 47.424 271.733 47.316 271.733 47.184C271.733 47.072 271.685 46.986 271.589 46.926C271.497 46.866 271.369 46.836 271.205 46.836H270.749V46.446H271.175C271.311 46.446 271.423 46.41 271.511 46.338C271.599 46.262 271.643 46.17 271.643 46.062C271.643 45.942 271.591 45.848 271.487 45.78C271.383 45.708 271.243 45.672 271.067 45.672C270.783 45.672 270.513 45.772 270.257 45.972L270.071 45.6C270.179 45.488 270.329 45.4 270.521 45.336C270.717 45.272 270.923 45.24 271.139 45.24C271.459 45.24 271.707 45.304 271.883 45.432C272.063 45.56 272.153 45.738 272.153 45.966C272.153 46.278 271.995 46.49 271.679 46.602V46.614C271.855 46.634 271.993 46.704 272.093 46.824C272.193 46.94 272.243 47.082 272.243 47.25C272.243 47.498 272.137 47.696 271.925 47.844C271.717 47.988 271.441 48.06 271.097 48.06ZM274.883 45.3H275.429L274.349 48C274.153 48.476 273.983 48.792 273.839 48.948C273.687 49.116 273.513 49.2 273.317 49.2C273.141 49.2 272.971 49.144 272.807 49.032L272.963 48.666C273.091 48.726 273.191 48.756 273.263 48.756C273.375 48.756 273.475 48.708 273.563 48.612C273.655 48.516 273.747 48.36 273.839 48.144L273.899 48L272.603 45.3H273.179L273.971 47.016C273.987 47.044 274.041 47.18 274.133 47.424C274.169 47.292 274.211 47.154 274.259 47.01L274.883 45.3ZM276.432 48H275.922V45.3H276.432V46.38H277.02C277.076 46.036 277.226 45.76 277.47 45.552C277.718 45.344 278.022 45.24 278.382 45.24C278.806 45.24 279.146 45.374 279.402 45.642C279.662 45.91 279.792 46.246 279.792 46.65C279.792 47.054 279.66 47.392 279.396 47.664C279.136 47.928 278.798 48.06 278.382 48.06C278.002 48.06 277.69 47.95 277.446 47.73C277.202 47.51 277.058 47.22 277.014 46.86H276.432V48ZM277.782 45.978C277.622 46.15 277.542 46.374 277.542 46.65C277.542 46.926 277.622 47.15 277.782 47.322C277.942 47.494 278.148 47.58 278.4 47.58C278.652 47.58 278.856 47.496 279.012 47.328C279.172 47.156 279.252 46.93 279.252 46.65C279.252 46.374 279.174 46.15 279.018 45.978C278.862 45.806 278.656 45.72 278.4 45.72C278.148 45.72 277.942 45.806 277.782 45.978ZM281.023 45.78H280.033V45.3H282.493V45.78H281.503V48H281.023V45.78ZM286.796 48H286.316V45.75H284.846V48H284.366V45.3H286.796V48ZM289.794 47.328L289.944 47.706C289.684 47.942 289.346 48.06 288.93 48.06C288.49 48.06 288.14 47.932 287.88 47.676C287.616 47.42 287.484 47.078 287.484 46.65C287.484 46.246 287.608 45.91 287.856 45.642C288.1 45.374 288.44 45.24 288.876 45.24C289.236 45.24 289.534 45.356 289.77 45.588C290.01 45.816 290.13 46.112 290.13 46.476C290.13 46.592 290.12 46.7 290.1 46.8H288.024C288.044 47.052 288.138 47.25 288.306 47.394C288.478 47.538 288.698 47.61 288.966 47.61C289.318 47.61 289.594 47.516 289.794 47.328ZM288.852 45.69C288.616 45.69 288.42 45.756 288.264 45.888C288.112 46.02 288.022 46.194 287.994 46.41H289.632C289.62 46.186 289.544 46.01 289.404 45.882C289.268 45.754 289.084 45.69 288.852 45.69ZM291.262 49.2H290.782V45.3H291.262V45.618C291.358 45.506 291.49 45.416 291.658 45.348C291.826 45.276 292 45.24 292.18 45.24C292.564 45.24 292.866 45.368 293.086 45.624C293.314 45.876 293.428 46.204 293.428 46.608C293.428 47.02 293.298 47.366 293.038 47.646C292.782 47.922 292.444 48.06 292.024 48.06C291.7 48.06 291.446 47.998 291.262 47.874V49.2ZM292.042 45.69C291.722 45.69 291.462 45.814 291.262 46.062V47.4C291.474 47.54 291.714 47.61 291.982 47.61C292.266 47.61 292.492 47.52 292.66 47.34C292.832 47.156 292.918 46.918 292.918 46.626C292.918 46.342 292.84 46.116 292.684 45.948C292.528 45.776 292.314 45.69 292.042 45.69ZM296.246 47.328L296.396 47.706C296.136 47.942 295.798 48.06 295.382 48.06C294.942 48.06 294.592 47.932 294.332 47.676C294.068 47.42 293.936 47.078 293.936 46.65C293.936 46.246 294.06 45.91 294.308 45.642C294.552 45.374 294.892 45.24 295.328 45.24C295.688 45.24 295.986 45.356 296.222 45.588C296.462 45.816 296.582 46.112 296.582 46.476C296.582 46.592 296.572 46.7 296.552 46.8H294.476C294.496 47.052 294.59 47.25 294.758 47.394C294.93 47.538 295.15 47.61 295.418 47.61C295.77 47.61 296.046 47.516 296.246 47.328ZM295.304 45.69C295.068 45.69 294.872 45.756 294.716 45.888C294.564 46.02 294.474 46.194 294.446 46.41H296.084C296.072 46.186 295.996 46.01 295.856 45.882C295.72 45.754 295.536 45.69 295.304 45.69ZM297.713 48H297.233V45.3H297.671L298.709 46.638L299.693 45.3H300.119V48H299.639V46.032L298.703 47.286H298.685L297.713 46.032V48ZM303.119 47.328L303.269 47.706C303.009 47.942 302.671 48.06 302.255 48.06C301.815 48.06 301.465 47.932 301.205 47.676C300.941 47.42 300.809 47.078 300.809 46.65C300.809 46.246 300.933 45.91 301.181 45.642C301.425 45.374 301.765 45.24 302.201 45.24C302.561 45.24 302.859 45.356 303.095 45.588C303.335 45.816 303.455 46.112 303.455 46.476C303.455 46.592 303.445 46.7 303.425 46.8H301.349C301.369 47.052 301.463 47.25 301.631 47.394C301.803 47.538 302.023 47.61 302.291 47.61C302.643 47.61 302.919 47.516 303.119 47.328ZM302.177 45.69C301.941 45.69 301.745 45.756 301.589 45.888C301.437 46.02 301.347 46.194 301.319 46.41H302.957C302.945 46.186 302.869 46.01 302.729 45.882C302.593 45.754 302.409 45.69 302.177 45.69ZM306.566 48H306.086V46.86H304.586V48H304.106V45.3H304.586V46.41H306.086V45.3H306.566V48ZM309.894 48H309.414V46.86H307.914V48H307.434V45.3H307.914V46.41H309.414V45.3H309.894V48ZM310.978 47.664C310.714 47.392 310.582 47.054 310.582 46.65C310.582 46.242 310.714 45.906 310.978 45.642C311.246 45.374 311.594 45.24 312.022 45.24C312.45 45.24 312.796 45.374 313.06 45.642C313.328 45.906 313.462 46.242 313.462 46.65C313.462 47.058 313.328 47.396 313.06 47.664C312.796 47.928 312.45 48.06 312.022 48.06C311.598 48.06 311.25 47.928 310.978 47.664ZM311.356 45.96C311.18 46.136 311.092 46.366 311.092 46.65C311.092 46.934 311.178 47.164 311.35 47.34C311.526 47.52 311.75 47.61 312.022 47.61C312.294 47.61 312.516 47.522 312.688 47.346C312.864 47.166 312.952 46.934 312.952 46.65C312.952 46.374 312.864 46.144 312.688 45.96C312.516 45.78 312.294 45.69 312.022 45.69C311.75 45.69 311.528 45.78 311.356 45.96ZM316.285 47.328L316.435 47.706C316.175 47.942 315.837 48.06 315.421 48.06C314.981 48.06 314.631 47.932 314.371 47.676C314.107 47.42 313.975 47.078 313.975 46.65C313.975 46.246 314.099 45.91 314.347 45.642C314.591 45.374 314.931 45.24 315.367 45.24C315.727 45.24 316.025 45.356 316.261 45.588C316.501 45.816 316.621 46.112 316.621 46.476C316.621 46.592 316.611 46.7 316.591 46.8H314.515C314.535 47.052 314.629 47.25 314.797 47.394C314.969 47.538 315.189 47.61 315.457 47.61C315.809 47.61 316.085 47.516 316.285 47.328ZM315.343 45.69C315.107 45.69 314.911 45.756 314.755 45.888C314.603 46.02 314.513 46.194 314.485 46.41H316.123C316.111 46.186 316.035 46.01 315.895 45.882C315.759 45.754 315.575 45.69 315.343 45.69ZM321.08 48H320.6V46.86H319.1V48H318.62V45.3H319.1V46.41H320.6V45.3H321.08V48ZM322.092 45.87L321.966 45.486C322.234 45.322 322.534 45.24 322.866 45.24C323.23 45.24 323.494 45.33 323.658 45.51C323.822 45.69 323.904 45.968 323.904 46.344V48H323.448V47.652C323.236 47.912 322.948 48.042 322.584 48.042C322.336 48.042 322.136 47.968 321.984 47.82C321.832 47.668 321.756 47.464 321.756 47.208C321.756 46.944 321.85 46.736 322.038 46.584C322.226 46.428 322.472 46.35 322.776 46.35C323.06 46.35 323.284 46.408 323.448 46.524C323.448 46.22 323.406 46.002 323.322 45.87C323.238 45.738 323.076 45.672 322.836 45.672C322.592 45.672 322.344 45.738 322.092 45.87ZM322.752 47.61C323.02 47.61 323.252 47.494 323.448 47.262V46.92C323.28 46.8 323.078 46.74 322.842 46.74C322.678 46.74 322.54 46.78 322.428 46.86C322.32 46.936 322.266 47.044 322.266 47.184C322.266 47.316 322.308 47.42 322.392 47.496C322.48 47.572 322.6 47.61 322.752 47.61ZM327.137 48H326.657V45.75H325.187V48H324.707V45.3H327.137V48ZM328.486 49.2H328.006V45.3H328.486V45.618C328.582 45.506 328.714 45.416 328.882 45.348C329.05 45.276 329.224 45.24 329.404 45.24C329.788 45.24 330.09 45.368 330.31 45.624C330.538 45.876 330.652 46.204 330.652 46.608C330.652 47.02 330.522 47.366 330.262 47.646C330.006 47.922 329.668 48.06 329.248 48.06C328.924 48.06 328.67 47.998 328.486 47.874V49.2ZM329.266 45.69C328.946 45.69 328.686 45.814 328.486 46.062V47.4C328.698 47.54 328.938 47.61 329.206 47.61C329.49 47.61 329.716 47.52 329.884 47.34C330.056 47.156 330.142 46.918 330.142 46.626C330.142 46.342 330.064 46.116 329.908 45.948C329.752 45.776 329.538 45.69 329.266 45.69ZM332.393 45.3H333.233V48H332.753V47.1H332.231L331.571 48H330.989L331.769 46.98C331.605 46.944 331.467 46.856 331.355 46.716C331.243 46.572 331.187 46.4 331.187 46.2C331.187 45.924 331.287 45.706 331.487 45.546C331.687 45.382 331.989 45.3 332.393 45.3ZM331.697 46.212C331.697 46.34 331.747 46.446 331.847 46.53C331.947 46.61 332.065 46.65 332.201 46.65H332.753V45.75H332.315C332.111 45.75 331.957 45.792 331.853 45.876C331.749 45.96 331.697 46.072 331.697 46.212ZM336.992 45.3H337.586L336.608 46.602L337.658 48H337.064L336.062 46.602L336.992 45.3ZM335.942 48H335.462V45.3H335.942V48ZM333.764 48L334.796 46.602L333.818 45.3H334.418L335.342 46.602L334.352 48H333.764ZM340.162 47.328L340.312 47.706C340.052 47.942 339.714 48.06 339.298 48.06C338.858 48.06 338.508 47.932 338.248 47.676C337.984 47.42 337.852 47.078 337.852 46.65C337.852 46.246 337.976 45.91 338.224 45.642C338.468 45.374 338.808 45.24 339.244 45.24C339.604 45.24 339.902 45.356 340.138 45.588C340.378 45.816 340.498 46.112 340.498 46.476C340.498 46.592 340.488 46.7 340.468 46.8H338.392C338.412 47.052 338.506 47.25 338.674 47.394C338.846 47.538 339.066 47.61 339.334 47.61C339.686 47.61 339.962 47.516 340.162 47.328ZM339.22 45.69C338.984 45.69 338.788 45.756 338.632 45.888C338.48 46.02 338.39 46.194 338.362 46.41H340C339.988 46.186 339.912 46.01 339.772 45.882C339.636 45.754 339.452 45.69 339.22 45.69ZM343.609 48H343.129V46.86H341.629V48H341.149V45.3H341.629V46.41H343.129V45.3H343.609V48ZM346.517 45.99L344.957 48H344.477V45.3H344.957V47.31L346.517 45.3H346.997V48H346.517V45.99ZM350 47.328L350.15 47.706C349.89 47.942 349.552 48.06 349.136 48.06C348.696 48.06 348.346 47.932 348.086 47.676C347.822 47.42 347.69 47.078 347.69 46.65C347.69 46.246 347.814 45.91 348.062 45.642C348.306 45.374 348.646 45.24 349.082 45.24C349.442 45.24 349.74 45.356 349.976 45.588C350.216 45.816 350.336 46.112 350.336 46.476C350.336 46.592 350.326 46.7 350.306 46.8H348.229C348.25 47.052 348.344 47.25 348.512 47.394C348.684 47.538 348.904 47.61 349.172 47.61C349.524 47.61 349.8 47.516 350 47.328ZM349.058 45.69C348.822 45.69 348.626 45.756 348.47 45.888C348.318 46.02 348.228 46.194 348.2 46.41H349.838C349.826 46.186 349.75 46.01 349.61 45.882C349.474 45.754 349.29 45.69 349.058 45.69ZM350.879 47.724C350.879 47.628 350.909 47.552 350.969 47.496C351.029 47.436 351.113 47.406 351.221 47.406C351.349 47.406 351.453 47.46 351.533 47.568C351.613 47.672 351.653 47.812 351.653 47.988C351.653 48.204 351.593 48.39 351.473 48.546C351.357 48.706 351.197 48.816 350.993 48.876L350.861 48.648C351.069 48.584 351.197 48.45 351.245 48.246C351.273 48.11 351.271 48.01 351.239 47.946C351.215 47.982 351.171 48 351.107 48C351.047 48 350.993 47.974 350.945 47.922C350.901 47.866 350.879 47.8 350.879 47.724ZM247.98 53.3H248.46V56H247.98V54.95C247.772 55.082 247.522 55.148 247.23 55.148C246.59 55.148 246.27 54.804 246.27 54.116V53.3H246.78V54.062C246.78 54.486 246.974 54.698 247.362 54.698C247.614 54.698 247.82 54.642 247.98 54.53V53.3ZM249.975 53.78H248.985V53.3H251.445V53.78H250.455V56H249.975V53.78ZM252.097 55.664C251.833 55.392 251.701 55.054 251.701 54.65C251.701 54.242 251.833 53.906 252.097 53.642C252.365 53.374 252.713 53.24 253.141 53.24C253.569 53.24 253.915 53.374 254.179 53.642C254.447 53.906 254.581 54.242 254.581 54.65C254.581 55.058 254.447 55.396 254.179 55.664C253.915 55.928 253.569 56.06 253.141 56.06C252.717 56.06 252.369 55.928 252.097 55.664ZM252.475 53.96C252.299 54.136 252.211 54.366 252.211 54.65C252.211 54.934 252.297 55.164 252.469 55.34C252.645 55.52 252.869 55.61 253.141 55.61C253.413 55.61 253.635 55.522 253.807 55.346C253.983 55.166 254.071 54.934 254.071 54.65C254.071 54.374 253.983 54.144 253.807 53.96C253.635 53.78 253.413 53.69 253.141 53.69C252.869 53.69 252.647 53.78 252.475 53.96ZM257.362 51.74L257.62 52.118C257.524 52.25 257.408 52.34 257.272 52.388C257.124 52.44 256.956 52.48 256.768 52.508C256.584 52.536 256.41 52.586 256.246 52.658C255.838 52.846 255.61 53.28 255.562 53.96H255.574C255.662 53.772 255.804 53.62 256 53.504C256.2 53.388 256.414 53.33 256.642 53.33C257.026 53.33 257.33 53.452 257.554 53.696C257.782 53.94 257.896 54.266 257.896 54.674C257.896 55.058 257.766 55.386 257.506 55.658C257.25 55.926 256.918 56.06 256.51 56.06C256.07 56.06 255.722 55.91 255.466 55.61C255.21 55.314 255.082 54.904 255.082 54.38C255.082 53.212 255.416 52.486 256.084 52.202C256.236 52.134 256.412 52.084 256.612 52.052C256.768 52.024 256.88 52.002 256.948 51.986C257.016 51.97 257.088 51.942 257.164 51.902C257.244 51.862 257.31 51.808 257.362 51.74ZM255.592 54.47C255.592 54.814 255.676 55.09 255.844 55.298C256.012 55.506 256.23 55.61 256.498 55.61C256.758 55.61 256.97 55.522 257.134 55.346C257.302 55.174 257.386 54.958 257.386 54.698C257.386 54.422 257.308 54.2 257.152 54.032C257 53.864 256.79 53.78 256.522 53.78C256.278 53.78 256.074 53.848 255.91 53.984C255.738 54.124 255.632 54.286 255.592 54.47ZM259.454 56H258.584V53.3H259.064V54.11H259.508C259.876 54.11 260.146 54.194 260.318 54.362C260.49 54.526 260.576 54.752 260.576 55.04C260.576 55.312 260.486 55.54 260.306 55.724C260.134 55.908 259.85 56 259.454 56ZM261.572 56H261.092V53.3H261.572V56ZM259.418 54.56H259.064V55.55H259.412C259.64 55.55 259.806 55.51 259.91 55.43C260.014 55.35 260.066 55.226 260.066 55.058C260.066 54.726 259.85 54.56 259.418 54.56ZM263.998 55.664C263.734 55.392 263.602 55.054 263.602 54.65C263.602 54.242 263.734 53.906 263.998 53.642C264.266 53.374 264.614 53.24 265.042 53.24C265.47 53.24 265.816 53.374 266.08 53.642C266.348 53.906 266.482 54.242 266.482 54.65C266.482 55.058 266.348 55.396 266.08 55.664C265.816 55.928 265.47 56.06 265.042 56.06C264.618 56.06 264.27 55.928 263.998 55.664ZM264.376 53.96C264.2 54.136 264.112 54.366 264.112 54.65C264.112 54.934 264.198 55.164 264.37 55.34C264.546 55.52 264.77 55.61 265.042 55.61C265.314 55.61 265.536 55.522 265.708 55.346C265.884 55.166 265.972 54.934 265.972 54.65C265.972 54.374 265.884 54.144 265.708 53.96C265.536 53.78 265.314 53.69 265.042 53.69C264.77 53.69 264.548 53.78 264.376 53.96ZM269.634 56H269.154V54.86H267.654V56H267.174V53.3H267.654V54.41H269.154V53.3H269.634V56ZM270.718 55.664C270.454 55.392 270.322 55.054 270.322 54.65C270.322 54.242 270.454 53.906 270.718 53.642C270.986 53.374 271.334 53.24 271.762 53.24C272.19 53.24 272.536 53.374 272.8 53.642C273.068 53.906 273.202 54.242 273.202 54.65C273.202 55.058 273.068 55.396 272.8 55.664C272.536 55.928 272.19 56.06 271.762 56.06C271.338 56.06 270.99 55.928 270.718 55.664ZM271.096 53.96C270.92 54.136 270.832 54.366 270.832 54.65C270.832 54.934 270.918 55.164 271.09 55.34C271.266 55.52 271.49 55.61 271.762 55.61C272.034 55.61 272.256 55.522 272.428 55.346C272.604 55.166 272.692 54.934 272.692 54.65C272.692 54.374 272.604 54.144 272.428 53.96C272.256 53.78 272.034 53.69 271.762 53.69C271.49 53.69 271.268 53.78 271.096 53.96ZM277.673 56H277.193V53.75H275.723V56H275.243V53.3H277.673V56ZM278.757 55.664C278.493 55.392 278.361 55.054 278.361 54.65C278.361 54.242 278.493 53.906 278.757 53.642C279.025 53.374 279.373 53.24 279.801 53.24C280.229 53.24 280.575 53.374 280.839 53.642C281.107 53.906 281.241 54.242 281.241 54.65C281.241 55.058 281.107 55.396 280.839 55.664C280.575 55.928 280.229 56.06 279.801 56.06C279.377 56.06 279.029 55.928 278.757 55.664ZM279.135 53.96C278.959 54.136 278.871 54.366 278.871 54.65C278.871 54.934 278.957 55.164 279.129 55.34C279.305 55.52 279.529 55.61 279.801 55.61C280.073 55.61 280.295 55.522 280.467 55.346C280.643 55.166 280.731 54.934 280.731 54.65C280.731 54.374 280.643 54.144 280.467 53.96C280.295 53.78 280.073 53.69 279.801 53.69C279.529 53.69 279.307 53.78 279.135 53.96ZM284.01 55.262L284.238 55.61C284.006 55.91 283.66 56.06 283.2 56.06C282.768 56.06 282.418 55.932 282.15 55.676C281.886 55.42 281.754 55.078 281.754 54.65C281.754 54.254 281.884 53.92 282.144 53.648C282.404 53.376 282.73 53.24 283.122 53.24C283.594 53.24 283.948 53.358 284.184 53.594L283.962 53.972C283.754 53.784 283.496 53.69 283.188 53.69C282.936 53.69 282.718 53.782 282.534 53.966C282.354 54.146 282.264 54.374 282.264 54.65C282.264 54.942 282.356 55.174 282.54 55.346C282.728 55.522 282.96 55.61 283.236 55.61C283.548 55.61 283.806 55.494 284.01 55.262ZM285.476 53.78H284.486V53.3H286.946V53.78H285.956V56H285.476V53.78ZM289.449 53.3H289.995L288.915 56C288.719 56.476 288.549 56.792 288.405 56.948C288.253 57.116 288.079 57.2 287.883 57.2C287.707 57.2 287.537 57.144 287.373 57.032L287.529 56.666C287.657 56.726 287.757 56.756 287.829 56.756C287.941 56.756 288.041 56.708 288.129 56.612C288.221 56.516 288.313 56.36 288.405 56.144L288.465 56L287.169 53.3H287.745L288.537 55.016C288.553 55.044 288.607 55.18 288.699 55.424C288.735 55.292 288.777 55.154 288.825 55.01L289.449 53.3ZM292.919 56H292.439V53.75H290.969V56H290.489V53.3H292.919V56ZM293.931 53.87L293.805 53.486C294.073 53.322 294.373 53.24 294.705 53.24C295.069 53.24 295.333 53.33 295.497 53.51C295.661 53.69 295.743 53.968 295.743 54.344V56H295.287V55.652C295.075 55.912 294.787 56.042 294.423 56.042C294.175 56.042 293.975 55.968 293.823 55.82C293.671 55.668 293.595 55.464 293.595 55.208C293.595 54.944 293.689 54.736 293.877 54.584C294.065 54.428 294.311 54.35 294.615 54.35C294.899 54.35 295.123 54.408 295.287 54.524C295.287 54.22 295.245 54.002 295.161 53.87C295.077 53.738 294.915 53.672 294.675 53.672C294.431 53.672 294.183 53.738 293.931 53.87ZM294.591 55.61C294.859 55.61 295.091 55.494 295.287 55.262V54.92C295.119 54.8 294.917 54.74 294.681 54.74C294.517 54.74 294.379 54.78 294.267 54.86C294.159 54.936 294.105 55.044 294.105 55.184C294.105 55.316 294.147 55.42 294.231 55.496C294.319 55.572 294.439 55.61 294.591 55.61ZM298.875 56H298.395V53.78H297.447L297.417 54.236C297.385 54.608 297.337 54.918 297.273 55.166C297.213 55.41 297.133 55.594 297.033 55.718C296.937 55.838 296.835 55.922 296.727 55.97C296.619 56.014 296.487 56.036 296.331 56.036L296.295 55.568C296.339 55.572 296.385 55.566 296.433 55.55C296.481 55.53 296.533 55.49 296.589 55.43C296.649 55.37 296.701 55.29 296.745 55.19C296.793 55.09 296.835 54.95 296.871 54.77C296.911 54.586 296.937 54.376 296.949 54.14L296.997 53.3H298.875V56ZM299.957 55.664C299.693 55.392 299.561 55.054 299.561 54.65C299.561 54.242 299.693 53.906 299.957 53.642C300.225 53.374 300.573 53.24 301.001 53.24C301.429 53.24 301.775 53.374 302.039 53.642C302.307 53.906 302.441 54.242 302.441 54.65C302.441 55.058 302.307 55.396 302.039 55.664C301.775 55.928 301.429 56.06 301.001 56.06C300.577 56.06 300.229 55.928 299.957 55.664ZM300.335 53.96C300.159 54.136 300.071 54.366 300.071 54.65C300.071 54.934 300.157 55.164 300.329 55.34C300.505 55.52 300.729 55.61 301.001 55.61C301.273 55.61 301.495 55.522 301.667 55.346C301.843 55.166 301.931 54.934 301.931 54.65C301.931 54.374 301.843 54.144 301.667 53.96C301.495 53.78 301.273 53.69 301.001 53.69C300.729 53.69 300.507 53.78 300.335 53.96ZM304.481 56V53.3C304.501 53.3 304.529 53.3 304.565 53.3C304.601 53.296 304.653 53.294 304.721 53.294C304.789 53.29 304.851 53.288 304.907 53.288C305.203 53.28 305.387 53.276 305.459 53.276C306.235 53.276 306.623 53.508 306.623 53.972C306.623 54.132 306.573 54.27 306.473 54.386C306.373 54.498 306.243 54.566 306.083 54.59V54.602C306.503 54.678 306.713 54.89 306.713 55.238C306.713 55.762 306.299 56.024 305.471 56.024C305.431 56.024 305.255 56.02 304.943 56.012C304.883 56.012 304.817 56.01 304.745 56.006C304.673 56.006 304.617 56.004 304.577 56C304.537 56 304.505 56 304.481 56ZM305.537 54.788H304.961V55.616C305.249 55.628 305.433 55.634 305.513 55.634C305.973 55.634 306.203 55.49 306.203 55.202C306.203 54.926 305.981 54.788 305.537 54.788ZM305.495 53.666C305.379 53.666 305.201 53.672 304.961 53.684V54.488H305.567C305.731 54.488 305.863 54.45 305.963 54.374C306.063 54.298 306.113 54.196 306.113 54.068C306.113 53.8 305.907 53.666 305.495 53.666ZM310.545 54.824H309.213V54.434H310.539C310.503 54.194 310.401 54.01 310.233 53.882C310.069 53.754 309.859 53.69 309.603 53.69C309.271 53.69 308.995 53.788 308.775 53.984L308.571 53.624C308.687 53.508 308.841 53.416 309.033 53.348C309.225 53.276 309.413 53.24 309.597 53.24C310.029 53.24 310.375 53.368 310.635 53.624C310.903 53.88 311.037 54.222 311.037 54.65C311.037 55.046 310.907 55.38 310.647 55.652C310.387 55.924 310.061 56.06 309.669 56.06C309.181 56.06 308.819 55.946 308.583 55.718L308.811 55.364C308.995 55.528 309.271 55.61 309.639 55.61C309.891 55.61 310.097 55.542 310.257 55.406C310.417 55.266 310.513 55.072 310.545 54.824ZM313.951 56H313.471V53.78H312.523L312.493 54.236C312.461 54.608 312.413 54.918 312.349 55.166C312.289 55.41 312.209 55.594 312.109 55.718C312.013 55.838 311.911 55.922 311.803 55.97C311.695 56.014 311.563 56.036 311.407 56.036L311.371 55.568C311.415 55.572 311.461 55.566 311.509 55.55C311.557 55.53 311.609 55.49 311.665 55.43C311.725 55.37 311.777 55.29 311.821 55.19C311.869 55.09 311.911 54.95 311.947 54.77C311.987 54.586 312.013 54.376 312.025 54.14L312.073 53.3H313.951V56ZM316.947 55.328L317.097 55.706C316.837 55.942 316.499 56.06 316.083 56.06C315.643 56.06 315.293 55.932 315.033 55.676C314.769 55.42 314.637 55.078 314.637 54.65C314.637 54.246 314.761 53.91 315.009 53.642C315.253 53.374 315.593 53.24 316.029 53.24C316.389 53.24 316.687 53.356 316.923 53.588C317.163 53.816 317.283 54.112 317.283 54.476C317.283 54.592 317.273 54.7 317.253 54.8H315.177C315.197 55.052 315.291 55.25 315.459 55.394C315.631 55.538 315.851 55.61 316.119 55.61C316.471 55.61 316.747 55.516 316.947 55.328ZM316.005 53.69C315.769 53.69 315.573 53.756 315.417 53.888C315.265 54.02 315.175 54.194 315.147 54.41H316.785C316.773 54.186 316.697 54.01 316.557 53.882C316.421 53.754 316.237 53.69 316.005 53.69ZM319.668 53.3H320.298L319.116 54.59L320.412 56H319.746L318.528 54.62L319.668 53.3ZM318.414 56H317.934V53.3H318.414V56ZM321.57 53.78H320.58V53.3H323.04V53.78H322.05V56H321.57V53.78ZM324.045 57.2H323.565V53.3H324.045V53.618C324.141 53.506 324.273 53.416 324.441 53.348C324.609 53.276 324.783 53.24 324.963 53.24C325.347 53.24 325.649 53.368 325.869 53.624C326.097 53.876 326.211 54.204 326.211 54.608C326.211 55.02 326.081 55.366 325.821 55.646C325.565 55.922 325.227 56.06 324.807 56.06C324.483 56.06 324.229 55.998 324.045 55.874V57.2ZM324.825 53.69C324.505 53.69 324.245 53.814 324.045 54.062V55.4C324.257 55.54 324.497 55.61 324.765 55.61C325.049 55.61 325.275 55.52 325.443 55.34C325.615 55.156 325.701 54.918 325.701 54.626C325.701 54.342 325.623 54.116 325.467 53.948C325.311 53.776 325.097 53.69 324.825 53.69ZM328.939 53.99L327.379 56H326.899V53.3H327.379V55.31L328.939 53.3H329.419V56H328.939V53.99ZM331.839 53.3H332.319V56H331.839V54.95C331.631 55.082 331.381 55.148 331.089 55.148C330.449 55.148 330.129 54.804 330.129 54.116V53.3H330.639V54.062C330.639 54.486 330.833 54.698 331.221 54.698C331.473 54.698 331.679 54.642 331.839 54.53V53.3ZM335.316 55.328L335.466 55.706C335.206 55.942 334.868 56.06 334.452 56.06C334.012 56.06 333.662 55.932 333.402 55.676C333.138 55.42 333.006 55.078 333.006 54.65C333.006 54.246 333.13 53.91 333.378 53.642C333.622 53.374 333.962 53.24 334.398 53.24C334.758 53.24 335.056 53.356 335.292 53.588C335.532 53.816 335.652 54.112 335.652 54.476C335.652 54.592 335.642 54.7 335.622 54.8H333.546C333.566 55.052 333.66 55.25 333.828 55.394C334 55.538 334.22 55.61 334.488 55.61C334.84 55.61 335.116 55.516 335.316 55.328ZM334.374 53.69C334.138 53.69 333.942 53.756 333.786 53.888C333.634 54.02 333.544 54.194 333.516 54.41H335.154C335.142 54.186 335.066 54.01 334.926 53.882C334.79 53.754 334.606 53.69 334.374 53.69ZM338.344 55.262L338.572 55.61C338.34 55.91 337.994 56.06 337.534 56.06C337.102 56.06 336.752 55.932 336.484 55.676C336.22 55.42 336.088 55.078 336.088 54.65C336.088 54.254 336.218 53.92 336.478 53.648C336.738 53.376 337.064 53.24 337.456 53.24C337.928 53.24 338.282 53.358 338.518 53.594L338.296 53.972C338.088 53.784 337.83 53.69 337.522 53.69C337.27 53.69 337.052 53.782 336.868 53.966C336.688 54.146 336.598 54.374 336.598 54.65C336.598 54.942 336.69 55.174 336.874 55.346C337.062 55.522 337.294 55.61 337.57 55.61C337.882 55.61 338.14 55.494 338.344 55.262ZM340.932 53.3H341.562L340.38 54.59L341.676 56H341.01L339.792 54.62L340.932 53.3ZM339.678 56H339.198V53.3H339.678V56ZM344.041 53.3H344.587L343.507 56C343.311 56.476 343.141 56.792 342.997 56.948C342.845 57.116 342.671 57.2 342.475 57.2C342.299 57.2 342.129 57.144 341.965 57.032L342.121 56.666C342.249 56.726 342.349 56.756 342.421 56.756C342.533 56.756 342.633 56.708 342.721 56.612C342.813 56.516 342.905 56.36 342.997 56.144L343.057 56L341.761 53.3H342.337L343.129 55.016C343.145 55.044 343.199 55.18 343.291 55.424C343.327 55.292 343.369 55.154 343.417 55.01L344.041 53.3ZM345.59 56H345.08V53.3H345.59V54.38H346.178C346.234 54.036 346.384 53.76 346.628 53.552C346.876 53.344 347.18 53.24 347.54 53.24C347.964 53.24 348.304 53.374 348.56 53.642C348.82 53.91 348.95 54.246 348.95 54.65C348.95 55.054 348.818 55.392 348.554 55.664C348.294 55.928 347.956 56.06 347.54 56.06C347.16 56.06 346.848 55.95 346.604 55.73C346.36 55.51 346.216 55.22 346.172 54.86H345.59V56ZM346.94 53.978C346.78 54.15 346.7 54.374 346.7 54.65C346.7 54.926 346.78 55.15 346.94 55.322C347.1 55.494 347.306 55.58 347.558 55.58C347.81 55.58 348.014 55.496 348.17 55.328C348.33 55.156 348.41 54.93 348.41 54.65C348.41 54.374 348.332 54.15 348.176 53.978C348.02 53.806 347.814 53.72 347.558 53.72C347.306 53.72 347.1 53.806 346.94 53.978ZM248.508 63.262L248.736 63.61C248.504 63.91 248.158 64.06 247.698 64.06C247.266 64.06 246.916 63.932 246.648 63.676C246.384 63.42 246.252 63.078 246.252 62.65C246.252 62.254 246.382 61.92 246.642 61.648C246.902 61.376 247.228 61.24 247.62 61.24C248.092 61.24 248.446 61.358 248.682 61.594L248.46 61.972C248.252 61.784 247.994 61.69 247.686 61.69C247.434 61.69 247.216 61.782 247.032 61.966C246.852 62.146 246.762 62.374 246.762 62.65C246.762 62.942 246.854 63.174 247.038 63.346C247.226 63.522 247.458 63.61 247.734 63.61C248.046 63.61 248.304 63.494 248.508 63.262ZM251.345 63.328L251.495 63.706C251.235 63.942 250.897 64.06 250.481 64.06C250.041 64.06 249.691 63.932 249.431 63.676C249.167 63.42 249.035 63.078 249.035 62.65C249.035 62.246 249.159 61.91 249.407 61.642C249.651 61.374 249.991 61.24 250.427 61.24C250.787 61.24 251.085 61.356 251.321 61.588C251.561 61.816 251.681 62.112 251.681 62.476C251.681 62.592 251.671 62.7 251.651 62.8H249.575C249.595 63.052 249.689 63.25 249.857 63.394C250.029 63.538 250.249 63.61 250.517 63.61C250.869 63.61 251.145 63.516 251.345 63.328ZM250.403 61.69C250.167 61.69 249.971 61.756 249.815 61.888C249.663 62.02 249.573 62.194 249.545 62.41H251.183C251.171 62.186 251.095 62.01 250.955 61.882C250.819 61.754 250.635 61.69 250.403 61.69ZM252.928 61.78H251.938V61.3H254.398V61.78H253.408V64H252.928V61.78ZM255.834 64H254.922V61.3H255.402V62.11H255.894C256.262 62.11 256.532 62.194 256.704 62.362C256.876 62.526 256.962 62.752 256.962 63.04C256.962 63.312 256.872 63.54 256.692 63.724C256.512 63.908 256.226 64 255.834 64ZM255.804 62.56H255.402V63.55H255.798C256.234 63.55 256.452 63.386 256.452 63.058C256.452 62.726 256.236 62.56 255.804 62.56ZM261.029 63.262L261.257 63.61C261.025 63.91 260.679 64.06 260.219 64.06C259.787 64.06 259.437 63.932 259.169 63.676C258.905 63.42 258.773 63.078 258.773 62.65C258.773 62.254 258.903 61.92 259.163 61.648C259.423 61.376 259.749 61.24 260.141 61.24C260.613 61.24 260.967 61.358 261.203 61.594L260.981 61.972C260.773 61.784 260.515 61.69 260.207 61.69C259.955 61.69 259.737 61.782 259.553 61.966C259.373 62.146 259.283 62.374 259.283 62.65C259.283 62.942 259.375 63.174 259.559 63.346C259.747 63.522 259.979 63.61 260.255 63.61C260.567 63.61 260.825 63.494 261.029 63.262ZM265.691 64H265.211V62.86H263.711V64H263.231V61.3H263.711V62.41H265.211V61.3H265.691V64ZM268.467 61.3H269.013L267.933 64C267.737 64.476 267.567 64.792 267.423 64.948C267.271 65.116 267.097 65.2 266.901 65.2C266.725 65.2 266.555 65.144 266.391 65.032L266.547 64.666C266.675 64.726 266.775 64.756 266.847 64.756C266.959 64.756 267.059 64.708 267.147 64.612C267.239 64.516 267.331 64.36 267.423 64.144L267.483 64L266.187 61.3H266.763L267.555 63.016C267.571 63.044 267.625 63.18 267.717 63.424C267.753 63.292 267.795 63.154 267.843 63.01L268.467 61.3ZM272.339 61.3H272.933L271.955 62.602L273.005 64H272.411L271.409 62.602L272.339 61.3ZM271.289 64H270.809V61.3H271.289V64ZM269.111 64L270.143 62.602L269.165 61.3H269.765L270.689 62.602L269.699 64H269.111ZM275.986 64H275.506V62.86H274.006V64H273.526V61.3H274.006V62.41H275.506V61.3H275.986V64ZM277.724 64H276.854V61.3H277.334V62.11H277.778C278.146 62.11 278.416 62.194 278.588 62.362C278.76 62.526 278.846 62.752 278.846 63.04C278.846 63.312 278.756 63.54 278.576 63.724C278.404 63.908 278.12 64 277.724 64ZM279.842 64H279.362V61.3H279.842V64ZM277.688 62.56H277.334V63.55H277.682C277.91 63.55 278.076 63.51 278.18 63.43C278.284 63.35 278.336 63.226 278.336 63.058C278.336 62.726 278.12 62.56 277.688 62.56ZM281.183 64H280.703V61.3H281.141L282.179 62.638L283.163 61.3H283.589V64H283.109V62.032L282.173 63.286H282.155L281.183 62.032V64ZM286.499 61.99L284.939 64H284.459V61.3H284.939V63.31L286.499 61.3H286.979V64H286.499V61.99ZM291.042 61.3H291.6L290.634 62.602L291.66 64H291.072L290.28 62.908L289.476 64H288.918L289.938 62.626L288.978 61.3H289.566L290.298 62.32L291.042 61.3ZM292.385 61.87L292.259 61.486C292.527 61.322 292.827 61.24 293.159 61.24C293.523 61.24 293.787 61.33 293.951 61.51C294.115 61.69 294.197 61.968 294.197 62.344V64H293.741V63.652C293.529 63.912 293.241 64.042 292.877 64.042C292.629 64.042 292.429 63.968 292.277 63.82C292.125 63.668 292.049 63.464 292.049 63.208C292.049 62.944 292.143 62.736 292.331 62.584C292.519 62.428 292.765 62.35 293.069 62.35C293.353 62.35 293.577 62.408 293.741 62.524C293.741 62.22 293.699 62.002 293.615 61.87C293.531 61.738 293.369 61.672 293.129 61.672C292.885 61.672 292.637 61.738 292.385 61.87ZM293.045 63.61C293.313 63.61 293.545 63.494 293.741 63.262V62.92C293.573 62.8 293.371 62.74 293.135 62.74C292.971 62.74 292.833 62.78 292.721 62.86C292.613 62.936 292.559 63.044 292.559 63.184C292.559 63.316 292.601 63.42 292.685 63.496C292.773 63.572 292.893 63.61 293.045 63.61ZM295.48 65.2H295V61.3H295.48V61.618C295.576 61.506 295.708 61.416 295.876 61.348C296.044 61.276 296.218 61.24 296.398 61.24C296.782 61.24 297.084 61.368 297.304 61.624C297.532 61.876 297.646 62.204 297.646 62.608C297.646 63.02 297.516 63.366 297.256 63.646C297 63.922 296.662 64.06 296.242 64.06C295.918 64.06 295.664 63.998 295.48 63.874V65.2ZM296.26 61.69C295.94 61.69 295.68 61.814 295.48 62.062V63.4C295.692 63.54 295.932 63.61 296.2 63.61C296.484 63.61 296.71 63.52 296.878 63.34C297.05 63.156 297.136 62.918 297.136 62.626C297.136 62.342 297.058 62.116 296.902 61.948C296.746 61.776 296.532 61.69 296.26 61.69ZM298.478 61.87L298.352 61.486C298.62 61.322 298.92 61.24 299.252 61.24C299.616 61.24 299.88 61.33 300.044 61.51C300.208 61.69 300.29 61.968 300.29 62.344V64H299.834V63.652C299.622 63.912 299.334 64.042 298.97 64.042C298.722 64.042 298.522 63.968 298.37 63.82C298.218 63.668 298.142 63.464 298.142 63.208C298.142 62.944 298.236 62.736 298.424 62.584C298.612 62.428 298.858 62.35 299.162 62.35C299.446 62.35 299.67 62.408 299.834 62.524C299.834 62.22 299.792 62.002 299.708 61.87C299.624 61.738 299.462 61.672 299.222 61.672C298.978 61.672 298.73 61.738 298.478 61.87ZM299.138 63.61C299.406 63.61 299.638 63.494 299.834 63.262V62.92C299.666 62.8 299.464 62.74 299.228 62.74C299.064 62.74 298.926 62.78 298.814 62.86C298.706 62.936 298.652 63.044 298.652 63.184C298.652 63.316 298.694 63.42 298.778 63.496C298.866 63.572 298.986 63.61 299.138 63.61ZM302.828 61.3H303.458L302.276 62.59L303.572 64H302.906L301.688 62.62L302.828 61.3ZM301.574 64H301.094V61.3H301.574V64ZM304.73 61.78H303.74V61.3H306.2V61.78H305.21V64H304.73V61.78ZM308.767 63.328L308.917 63.706C308.657 63.942 308.319 64.06 307.903 64.06C307.463 64.06 307.113 63.932 306.853 63.676C306.589 63.42 306.457 63.078 306.457 62.65C306.457 62.246 306.581 61.91 306.829 61.642C307.073 61.374 307.413 61.24 307.849 61.24C308.209 61.24 308.507 61.356 308.743 61.588C308.983 61.816 309.103 62.112 309.103 62.476C309.103 62.592 309.093 62.7 309.073 62.8H306.997C307.017 63.052 307.111 63.25 307.279 63.394C307.451 63.538 307.671 63.61 307.939 63.61C308.291 63.61 308.567 63.516 308.767 63.328ZM307.825 61.69C307.589 61.69 307.393 61.756 307.237 61.888C307.085 62.02 306.995 62.194 306.967 62.41H308.605C308.593 62.186 308.517 62.01 308.377 61.882C308.241 61.754 308.057 61.69 307.825 61.69ZM310.234 65.2H309.754V61.3H310.234V61.618C310.33 61.506 310.462 61.416 310.63 61.348C310.798 61.276 310.972 61.24 311.152 61.24C311.536 61.24 311.838 61.368 312.058 61.624C312.286 61.876 312.4 62.204 312.4 62.608C312.4 63.02 312.27 63.366 312.01 63.646C311.754 63.922 311.416 64.06 310.996 64.06C310.672 64.06 310.418 63.998 310.234 63.874V65.2ZM311.014 61.69C310.694 61.69 310.434 61.814 310.234 62.062V63.4C310.446 63.54 310.686 63.61 310.954 63.61C311.238 63.61 311.464 63.52 311.632 63.34C311.804 63.156 311.89 62.918 311.89 62.626C311.89 62.342 311.812 62.116 311.656 61.948C311.5 61.776 311.286 61.69 311.014 61.69ZM315.128 61.99L313.568 64H313.088V61.3H313.568V63.31L315.128 61.3H315.608V64H315.128V61.99ZM318.557 63.262L318.785 63.61C318.553 63.91 318.207 64.06 317.747 64.06C317.315 64.06 316.965 63.932 316.697 63.676C316.433 63.42 316.301 63.078 316.301 62.65C316.301 62.254 316.431 61.92 316.691 61.648C316.951 61.376 317.277 61.24 317.669 61.24C318.141 61.24 318.495 61.358 318.731 61.594L318.509 61.972C318.301 61.784 318.043 61.69 317.735 61.69C317.483 61.69 317.265 61.782 317.081 61.966C316.901 62.146 316.811 62.374 316.811 62.65C316.811 62.942 316.903 63.174 317.087 63.346C317.275 63.522 317.507 63.61 317.783 63.61C318.095 63.61 318.353 63.494 318.557 63.262ZM320.023 61.78H319.033V61.3H321.493V61.78H320.503V64H320.023V61.78ZM324.058 61.99L322.498 64H322.018V61.3H322.498V63.31L324.058 61.3H324.538V64H324.058V61.99ZM327.145 61.3H327.775L326.593 62.59L327.889 64H327.223L326.005 62.62L327.145 61.3ZM325.891 64H325.411V61.3H325.891V64ZM328.543 61.87L328.417 61.486C328.685 61.322 328.985 61.24 329.317 61.24C329.681 61.24 329.945 61.33 330.109 61.51C330.273 61.69 330.355 61.968 330.355 62.344V64H329.899V63.652C329.687 63.912 329.399 64.042 329.035 64.042C328.787 64.042 328.587 63.968 328.435 63.82C328.283 63.668 328.207 63.464 328.207 63.208C328.207 62.944 328.301 62.736 328.489 62.584C328.677 62.428 328.923 62.35 329.227 62.35C329.511 62.35 329.735 62.408 329.899 62.524C329.899 62.22 329.857 62.002 329.773 61.87C329.689 61.738 329.527 61.672 329.287 61.672C329.043 61.672 328.795 61.738 328.543 61.87ZM329.203 63.61C329.471 63.61 329.703 63.494 329.899 63.262V62.92C329.731 62.8 329.529 62.74 329.293 62.74C329.129 62.74 328.991 62.78 328.879 62.86C328.771 62.936 328.717 63.044 328.717 63.184C328.717 63.316 328.759 63.42 328.843 63.496C328.931 63.572 329.051 63.61 329.203 63.61ZM331.639 64H331.159V61.3H331.597L332.635 62.638L333.619 61.3H334.045V64H333.565V62.032L332.629 63.286H332.611L331.639 62.032V64ZM336.954 61.99L335.394 64H334.914V61.3H335.394V63.31L336.954 61.3H337.434V64H336.954V61.99Z" fill="#848484"/>
<path d="M229.41 48.3C227.93 48.3 226.63 47.99 225.51 47.37C224.41 46.75 223.59 45.86 223.05 44.7L224.43 42.99C224.91 43.91 225.59 44.63 226.47 45.15C227.35 45.65 228.3 45.9 229.32 45.9C230.58 45.9 231.58 45.55 232.32 44.85C233.08 44.15 233.46 43.24 233.46 42.12C233.46 41 233.06 40.11 232.26 39.45C231.48 38.79 230.45 38.46 229.17 38.46H227.52V36.06H229.02C230 36.06 230.84 35.72 231.54 35.04C232.28 34.36 232.65 33.49 232.65 32.43C232.65 31.39 232.34 30.58 231.72 30C231.12 29.4 230.29 29.1 229.23 29.1C227.33 29.1 225.89 29.97 224.91 31.71L223.56 30.06C224.04 29 224.79 28.18 225.81 27.6C226.85 27 228.05 26.7 229.41 26.7C231.17 26.7 232.57 27.18 233.61 28.14C234.67 29.1 235.2 30.39 235.2 32.01C235.2 33.17 234.92 34.19 234.36 35.07C233.8 35.95 232.99 36.61 231.93 37.05V37.14C233.17 37.34 234.16 37.91 234.9 38.85C235.64 39.79 236.01 40.91 236.01 42.21C236.01 44.05 235.39 45.53 234.15 46.65C232.93 47.75 231.35 48.3 229.41 48.3Z" fill="#D9D9D9"/>
<path d="M292.242 73.9386C292.208 73.8048 292.072 73.7237 291.939 73.7577C291.805 73.7916 291.724 73.9276 291.758 74.0614L292.242 73.9386ZM310.673 147.707C309.959 147.888 309.527 148.614 309.707 149.327C309.888 150.041 310.614 150.473 311.327 150.293C312.041 150.112 312.473 149.386 312.293 148.673C312.112 147.959 311.386 147.527 310.673 147.707ZM291.758 74.0614L310.758 149.061L311.242 148.939L292.242 73.9386L291.758 74.0614Z" fill="#525252"/>
</g>
</svg>
