<svg width="1447" height="863" fill="none" xmlns="http://www.w3.org/2000/svg"><mask id="a" style="mask-type:alpha" maskUnits="userSpaceOnUse" x="0" y="0" width="1447" height="863"><path fill="#D9D9D9" d="M0 0h1447v863H0z"/></mask><g mask="url(#a)"><circle cx="669.5" cy="477.9" r="5.5" fill="#525252"/><path fill="#C1C1C1" fill-opacity=".8" d="M994 584.004h301v129H994z"/><path fill="#fff" d="M987 577.004h301v129H987z"/><path stroke="#525252" d="M980.5 570.504h300v128h-300z"/><path d="M1058.8 611.624v5.38h-1.7v-14c.56 0 1.15-.007 1.78-.02.63-.013 1.25-.02 1.88-.02 1.84 0 3.16.413 3.96 1.24.81.813 1.22 1.847 1.22 3.1 0 1.213-.44 2.253-1.32 3.12-.85.853-2.09 1.28-3.72 1.28-.85 0-1.55-.027-2.1-.08zm2.12-7.06c-.24 0-.95.013-2.12.04v5.4c.84.067 1.52.1 2.04.1 1.03 0 1.83-.247 2.42-.74.59-.507.88-1.2.88-2.08 0-.867-.27-1.533-.82-2-.53-.48-1.33-.72-2.4-.72zm13.44 10.2l.5 1.26c-.87.787-1.99 1.18-3.38 1.18-1.47 0-2.63-.427-3.5-1.28-.88-.853-1.32-1.993-1.32-3.42 0-1.347.41-2.467 1.24-3.36.81-.893 1.95-1.34 3.4-1.34 1.2 0 2.19.387 2.98 1.16.8.76 1.2 1.747 1.2 2.96 0 .387-.03.747-.1 1.08h-6.92c.07.84.38 1.5.94 1.98.57.48 1.31.72 2.2.72 1.17 0 2.09-.313 2.76-.94zm-3.14-5.46c-.79 0-1.44.22-1.96.66-.51.44-.81 1.02-.9 1.74h5.46c-.04-.747-.29-1.333-.76-1.76-.45-.427-1.07-.64-1.84-.64zm6.34 9.9h-1.5v-3.7h1.12c.33-.413.63-1.08.88-2 .25-.933.42-1.973.5-3.12l.14-2.38h6.14v7.5h1.5v3.7h-1.5v-2.2h-7.28v2.2zm2.64-9.7l-.1 1.5c-.08 1-.24 1.913-.48 2.74-.24.827-.49 1.413-.74 1.76h4.36v-6h-3.04zm14.24-1.5h1.82l-3.6 9c-.65 1.587-1.22 2.64-1.7 3.16-.51.56-1.09.84-1.74.84-.59 0-1.15-.187-1.7-.56l.52-1.22c.43.2.76.3 1 .3.37 0 .71-.16 1-.48.31-.32.61-.84.92-1.56l.2-.48-4.32-9h1.92l2.64 5.72c.05.093.23.547.54 1.36.12-.44.26-.9.42-1.38l2.08-5.7zm9.24 0h2.1l-3.94 4.3 4.32 4.7h-2.22l-4.06-4.6 3.8-4.4zm-4.18 9h-1.6v-9h1.6v9zm10.53-7.4h-3.3v-1.6h8.2v1.6h-3.3v7.4h-1.6v-7.4zm7.07 6.28c-.88-.907-1.32-2.033-1.32-3.38 0-1.36.44-2.48 1.32-3.36.89-.893 2.05-1.34 3.48-1.34 1.43 0 2.58.447 3.46 1.34.89.88 1.34 2 1.34 3.36 0 1.36-.45 2.487-1.34 3.38-.88.88-2.03 1.32-3.46 1.32-1.41 0-2.57-.44-3.48-1.32zm1.26-5.68c-.59.587-.88 1.353-.88 2.3 0 .947.29 1.713.86 2.3.59.6 1.33.9 2.24.9.91 0 1.65-.293 2.22-.88.59-.6.88-1.373.88-2.32 0-.92-.29-1.687-.88-2.3-.57-.6-1.31-.9-2.22-.9-.91 0-1.65.3-2.22.9zm10.93 10.8h-1.6v-13h1.6v1.06c.32-.373.76-.673 1.32-.9.56-.24 1.14-.36 1.74-.36 1.28 0 2.29.427 3.02 1.28.76.84 1.14 1.933 1.14 3.28 0 1.373-.43 2.527-1.3 3.46-.85.92-1.98 1.38-3.38 1.38-1.08 0-1.93-.207-2.54-.62v4.42zm2.6-11.7c-1.07 0-1.93.413-2.6 1.24v4.46c.71.467 1.51.7 2.4.7.95 0 1.7-.3 2.26-.9.57-.613.86-1.407.86-2.38 0-.947-.26-1.7-.78-2.26-.52-.573-1.23-.86-2.14-.86z" fill="#000"/><path d="M1062.1 639.42l.41.768c-.28.288-.66.516-1.14.684-.48.168-.98.252-1.51.252-1.26 0-2.28-.392-3.08-1.176-.79-.8-1.18-1.848-1.18-3.144 0-1.248.38-2.276 1.13-3.084.75-.824 1.77-1.236 3.06-1.236 1.06 0 1.91.272 2.55.816l-.46.768c-.56-.416-1.26-.624-2.08-.624-.91 0-1.66.312-2.24.936-.59.616-.88 1.424-.88 2.424s.3 1.812.9 2.436c.62.616 1.41.924 2.38.924.81 0 1.53-.248 2.14-.744zm6.13 1.584h-.96v-4.44h-1.9l-.06.912c-.06.744-.16 1.364-.28 1.86-.12.488-.28.856-.48 1.104-.2.24-.4.408-.62.504-.21.088-.48.132-.79.132l-.07-.936c.09.008.18-.004.28-.036.09-.04.2-.12.31-.24.12-.12.22-.28.31-.48.1-.2.18-.48.25-.84.08-.368.13-.788.16-1.26l.09-1.68h3.76v5.4zm2.16-.672c-.52-.544-.79-1.22-.79-2.028 0-.816.27-1.488.79-2.016.54-.536 1.24-.804 2.09-.804.86 0 1.55.268 2.08.804.53.528.8 1.2.8 2.016 0 .816-.27 1.492-.8 2.028-.53.528-1.22.792-2.08.792-.85 0-1.54-.264-2.09-.792zm.76-3.408c-.35.352-.53.812-.53 1.38 0 .568.17 1.028.52 1.38.35.36.8.54 1.34.54.55 0 .99-.176 1.33-.528.36-.36.53-.824.53-1.392 0-.552-.17-1.012-.53-1.38-.34-.36-.78-.54-1.33-.54-.54 0-.99.18-1.33.54zm11.08-1.32h1.18l-1.95 2.604 2.1 2.796h-1.19l-2-2.796 1.86-2.604zm-2.1 5.4h-.96v-5.4h.96v5.4zm-4.36 0l2.06-2.796-1.95-2.604h1.2l1.85 2.604-1.98 2.796h-1.18zm13.75 0h-.96v-2.28h-3v2.28h-.96v-5.4h.96v2.22h3v-2.22h.96v5.4zm3.47 0h-1.74v-5.4h.96v1.62h.89c.74 0 1.28.168 1.62.504.35.328.52.78.52 1.356 0 .544-.18 1-.54 1.368-.35.368-.91.552-1.71.552zm4.24 0h-.96v-5.4h.96v5.4zm-4.31-2.88h-.71v1.98h.7c.46 0 .79-.08 1-.24.2-.16.31-.408.31-.744 0-.664-.43-.996-1.3-.996zm10.11-1.14l-3.12 4.02h-.96v-5.4h.96v4.02l3.12-4.02h.96v5.4h-.96v-4.02zm-3.31-4.14h.9c.05.632.36.948.93.948.53 0 .82-.316.87-.948h.9c0 .488-.17.892-.5 1.212-.33.312-.75.468-1.27.468-.57 0-1.02-.152-1.35-.456-.32-.312-.48-.72-.48-1.224zm13.57 8.16h-.96v-4.5h-2.94v4.5h-.96v-5.4h4.86v5.4zm6-1.344l.3.756c-.52.472-1.19.708-2.03.708-.88 0-1.58-.256-2.1-.768s-.79-1.196-.79-2.052c0-.808.25-1.48.75-2.016.48-.536 1.16-.804 2.04-.804.72 0 1.31.232 1.78.696.48.456.72 1.048.72 1.776 0 .232-.02.448-.06.648h-4.15c.04.504.23.9.57 1.188.34.288.78.432 1.32.432.7 0 1.25-.188 1.65-.564zm-1.88-3.276c-.47 0-.87.132-1.18.396-.3.264-.48.612-.54 1.044h3.28c-.03-.448-.18-.8-.46-1.056-.27-.256-.64-.384-1.1-.384zm4.82 7.02h-.96v-7.8h.96v.636c.19-.224.45-.404.79-.54.33-.144.68-.216 1.04-.216.77 0 1.37.256 1.81.768.46.504.69 1.16.69 1.968 0 .824-.26 1.516-.78 2.076-.51.552-1.19.828-2.03.828-.65 0-1.16-.124-1.52-.372v2.652zm1.56-7.02c-.64 0-1.16.248-1.56.744v2.676c.42.28.9.42 1.44.42.56 0 1.02-.18 1.35-.54.35-.368.52-.844.52-1.428 0-.568-.16-1.02-.47-1.356-.31-.344-.74-.516-1.28-.516zm8.4 3.276l.3.756c-.52.472-1.19.708-2.02.708-.88 0-1.58-.256-2.1-.768-.53-.512-.8-1.196-.8-2.052 0-.808.25-1.48.75-2.016.49-.536 1.17-.804 2.04-.804.72 0 1.31.232 1.79.696.48.456.72 1.048.72 1.776 0 .232-.02.448-.06.648h-4.16c.04.504.23.9.57 1.188.34.288.78.432 1.32.432.7 0 1.25-.188 1.65-.564zm-1.88-3.276c-.47 0-.86.132-1.18.396-.3.264-.48.612-.54 1.044h3.28c-.02-.448-.18-.8-.46-1.056-.27-.256-.64-.384-1.1-.384zm3.8 5.94h-.9v-2.22h.68c.2-.248.37-.648.52-1.2.16-.56.26-1.184.3-1.872l.09-1.428h3.68v4.5h.9v2.22h-.9v-1.32h-4.37v1.32zm1.59-5.82l-.06.9c-.05.6-.15 1.148-.29 1.644-.14.496-.29.848-.44 1.056h2.61v-3.6h-1.82zm5.01.24l-.25-.768a3.4 3.4 0 011.8-.492c.73 0 1.26.18 1.59.54.32.36.49.916.49 1.668v3.312h-.91v-.696c-.43.52-1 .78-1.73.78-.5 0-.9-.148-1.2-.444-.31-.304-.46-.712-.46-1.224 0-.528.19-.944.57-1.248.37-.312.86-.468 1.47-.468.57 0 1.02.116 1.35.348 0-.608-.09-1.044-.26-1.308-.16-.264-.49-.396-.97-.396-.49 0-.98.132-1.49.396zm1.32 3.48c.54 0 1-.232 1.4-.696v-.684c-.34-.24-.74-.36-1.22-.36-.32 0-.6.08-.82.24a.741.741 0 00-.33.648c0 .264.09.472.25.624.18.152.42.228.72.228zm5.21-3.66h-1.98v-.96h4.92v.96h-1.98v4.44h-.96v-4.44zm4.25 3.768c-.53-.544-.79-1.22-.79-2.028 0-.816.26-1.488.79-2.016.53-.536 1.23-.804 2.09-.804.85 0 1.54.268 2.07.804.54.528.81 1.2.81 2.016 0 .816-.27 1.492-.81 2.028-.53.528-1.22.792-2.07.792-.85 0-1.55-.264-2.09-.792zm.75-3.408c-.35.352-.52.812-.52 1.38 0 .568.17 1.028.51 1.38.35.36.8.54 1.35.54.54 0 .98-.176 1.33-.528.35-.36.53-.824.53-1.392 0-.552-.18-1.012-.53-1.38-.35-.36-.79-.54-1.33-.54-.55 0-.99.18-1.34.54zm8.7-1.32h.96v5.4h-.96v-2.1c-.42.264-.92.396-1.5.396-1.28 0-1.92-.688-1.92-2.064v-1.632h1.02v1.524c0 .848.38 1.272 1.16 1.272.5 0 .92-.112 1.24-.336v-2.46zm7.61 5.4h-.96v-2.28h-3v2.28h-.96v-5.4h.96v2.22h3v-2.22h.96v5.4zm3.48 0h-1.74v-5.4h.96v1.62h.88c.74 0 1.28.168 1.62.504.35.328.52.78.52 1.356 0 .544-.18 1-.54 1.368-.34.368-.91.552-1.7.552zm4.23 0h-.96v-5.4h.96v5.4zm-4.31-2.88h-.7v1.98h.69c.46 0 .79-.08 1-.24.21-.16.31-.408.31-.744 0-.664-.43-.996-1.3-.996zm10.12-1.14l-3.12 4.02h-.96v-5.4h.96v4.02l3.12-4.02h.96v5.4h-.96v-4.02zm-3.32-4.14h.9c.05.632.36.948.93.948.53 0 .83-.316.87-.948h.9c0 .488-.16.892-.5 1.212-.33.312-.75.468-1.27.468-.57 0-1.02-.152-1.35-.456-.32-.312-.48-.72-.48-1.224zm9.68 8.16h-.96v-5.4h.87l2.08 2.676 1.97-2.676h.85v5.4h-.96v-3.936l-1.87 2.508h-.04l-1.94-2.508v3.936zm10.81-1.344l.3.756c-.52.472-1.2.708-2.03.708-.88 0-1.58-.256-2.1-.768-.53-.512-.79-1.196-.79-2.052 0-.808.25-1.48.74-2.016s1.17-.804 2.04-.804c.72 0 1.32.232 1.79.696.48.456.72 1.048.72 1.776 0 .232-.02.448-.06.648h-4.15c.04.504.23.9.56 1.188.35.288.79.432 1.32.432.71 0 1.26-.188 1.66-.564zm-1.89-3.276c-.47 0-.86.132-1.17.396-.31.264-.49.612-.54 1.044h3.27c-.02-.448-.17-.8-.45-1.056-.27-.256-.64-.384-1.11-.384zm7.29-.78h1.11l-1.93 2.604 2.05 2.796h-1.17l-1.59-2.184-1.6 2.184h-1.12l2.04-2.748-1.92-2.652h1.18l1.46 2.04 1.49-2.04zm2.68 1.14l-.25-.768a3.4 3.4 0 011.8-.492c.73 0 1.26.18 1.59.54.32.36.49.916.49 1.668v3.312h-.91v-.696c-.43.52-1 .78-1.73.78-.5 0-.9-.148-1.2-.444-.31-.304-.46-.712-.46-1.224 0-.528.19-.944.57-1.248.37-.312.86-.468 1.47-.468.57 0 1.02.116 1.35.348 0-.608-.09-1.044-.26-1.308-.16-.264-.49-.396-.97-.396-.49 0-.98.132-1.49.396zm1.32 3.48c.54 0 1-.232 1.4-.696v-.684c-.34-.24-.74-.36-1.22-.36-.32 0-.6.08-.82.24a.741.741 0 00-.33.648c0 .264.09.472.25.624.18.152.42.228.72.228zm8.84.78h-.96v-2.28h-3v2.28h-.96v-5.4h.96v2.22h3v-2.22h.96v5.4zm5.81-4.02l-3.12 4.02h-.96v-5.4h.96v4.02l3.12-4.02h.96v5.4h-.96v-4.02zm4.49 4.14c-.4 0-.84-.068-1.29-.204-.44-.144-.75-.32-.94-.528l.49-.72c.22.176.48.32.77.432.31.104.58.156.83.156.42 0 .76-.08 1.02-.24.26-.168.4-.384.4-.648a.58.58 0 00-.29-.516c-.19-.12-.44-.18-.77-.18h-.91v-.78h.85c.27 0 .5-.072.67-.216a.698.698 0 00.27-.552c0-.24-.11-.428-.32-.564-.2-.144-.48-.216-.84-.216-.56 0-1.1.2-1.62.6l-.37-.744c.22-.224.52-.4.9-.528.39-.128.81-.192 1.24-.192.64 0 1.13.128 1.49.384.36.256.54.612.54 1.068 0 .624-.32 1.048-.95 1.272v.024c.35.04.63.18.83.42.2.232.3.516.3.852 0 .496-.22.892-.64 1.188-.42.288-.97.432-1.66.432zm4.72-.12h-.96v-5.4h.88l2.07 2.676 1.97-2.676h.85v5.4h-.96v-3.936l-1.87 2.508h-.04l-1.94-2.508v3.936zm6.34-.552c0-.192.06-.344.18-.456.12-.12.28-.18.5-.18.26 0 .46.108.62.324.16.208.24.488.24.84 0 .432-.12.804-.36 1.116-.23.32-.55.54-.96.66l-.26-.456c.42-.128.67-.396.77-.804.05-.272.05-.472-.01-.6-.05.072-.14.108-.27.108a.416.416 0 01-.32-.156.61.61 0 01-.13-.396zm-179.51 11.152h1.26l-2.36 2.58 2.59 2.82h-1.33l-2.44-2.76 2.28-2.64zm-2.51 5.4h-.96v-5.4h.96v5.4zm5.16-.672c-.53-.544-.79-1.22-.79-2.028 0-.816.26-1.488.79-2.016.54-.536 1.23-.804 2.09-.804.85 0 1.55.268 2.07.804.54.528.81 1.2.81 2.016 0 .816-.27 1.492-.81 2.028-.52.528-1.22.792-2.07.792-.85 0-1.55-.264-2.09-.792zm.76-3.408c-.36.352-.53.812-.53 1.38 0 .568.17 1.028.51 1.38.36.36.8.54 1.35.54.54 0 .99-.176 1.33-.528.35-.36.53-.824.53-1.392 0-.552-.18-1.012-.53-1.38-.34-.36-.79-.54-1.33-.54-.55 0-.99.18-1.33.54zm6.68-.36h-1.98v-.96h4.92v.96h-1.98v4.44h-.96v-4.44zm4.24 3.768c-.52-.544-.79-1.22-.79-2.028 0-.816.27-1.488.79-2.016.54-.536 1.24-.804 2.09-.804.86 0 1.55.268 2.08.804.53.528.8 1.2.8 2.016 0 .816-.27 1.492-.8 2.028-.53.528-1.22.792-2.08.792-.85 0-1.54-.264-2.09-.792zm.76-3.408c-.35.352-.53.812-.53 1.38 0 .568.17 1.028.52 1.38.35.36.8.54 1.34.54.55 0 .99-.176 1.33-.528.36-.36.53-.824.53-1.392 0-.552-.17-1.012-.53-1.38-.34-.36-.78-.54-1.33-.54-.54 0-.99.18-1.33.54zm6.56 6.48h-.96v-7.8h.96v.636c.19-.224.45-.404.79-.54.33-.144.68-.216 1.04-.216.77 0 1.37.256 1.81.768.46.504.69 1.16.69 1.968 0 .824-.26 1.516-.78 2.076-.51.552-1.19.828-2.03.828-.65 0-1.16-.124-1.52-.372v2.652zm1.56-7.02c-.64 0-1.16.248-1.56.744v2.676c.42.28.9.42 1.44.42.56 0 1.02-.18 1.35-.54.35-.368.52-.844.52-1.428 0-.568-.16-1.02-.47-1.356-.31-.344-.74-.516-1.28-.516zm5.88 4.62h-1.74v-5.4h.96v1.62h.89c.74 0 1.28.168 1.62.504.35.328.52.78.52 1.356 0 .544-.18 1-.54 1.368-.35.368-.91.552-1.71.552zm4.24 0h-.96v-5.4h.96v5.4zm-4.31-2.88h-.71v1.98h.7c.46 0 .79-.08 1-.24.2-.16.31-.408.31-.744 0-.664-.43-.996-1.3-.996zm10.11-1.14l-3.12 4.02h-.96v-5.4h.96v4.02l3.12-4.02h.96v5.4h-.96v-4.02zm-3.31-4.14h.9c.05.632.36.948.93.948.53 0 .82-.316.87-.948h.9c0 .488-.17.892-.5 1.212-.33.312-.75.468-1.27.468-.57 0-1.02-.152-1.35-.456-.32-.312-.48-.72-.48-1.224zm13.57 8.16h-.96v-4.5h-2.94v4.5h-.96v-5.4h4.86v5.4zm2.17-.672c-.52-.544-.79-1.22-.79-2.028 0-.816.27-1.488.79-2.016.54-.536 1.24-.804 2.09-.804.86 0 1.55.268 2.08.804.53.528.8 1.2.8 2.016 0 .816-.27 1.492-.8 2.028-.53.528-1.22.792-2.08.792-.85 0-1.54-.264-2.09-.792zm.76-3.408c-.35.352-.53.812-.53 1.38 0 .568.17 1.028.52 1.38.35.36.8.54 1.34.54.55 0 .99-.176 1.33-.528.36-.36.53-.824.53-1.392 0-.552-.17-1.012-.53-1.38-.34-.36-.78-.54-1.33-.54-.54 0-.99.18-1.33.54zm5.6 4.08v-5.4h.16c.08-.008.18-.012.32-.012.13-.008.26-.012.37-.012.59-.016.96-.024 1.1-.024 1.55 0 2.33.464 2.33 1.392 0 .32-.1.596-.3.828-.2.224-.46.36-.78.408v.024c.84.152 1.26.576 1.26 1.272 0 1.048-.83 1.572-2.48 1.572-.08 0-.44-.008-1.06-.024a7.5 7.5 0 01-.4-.012c-.14 0-.25-.004-.33-.012h-.19zm2.11-2.424h-1.15v1.656c.57.024.94.036 1.1.036.92 0 1.38-.288 1.38-.864 0-.552-.44-.828-1.33-.828zm-.09-2.244c-.23 0-.58.012-1.06.036v1.608h1.21c.33 0 .59-.076.79-.228a.73.73 0 00.3-.612c0-.536-.41-.804-1.24-.804zm5.65 4.668h-1.74v-5.4h.96v1.62h.88c.74 0 1.28.168 1.62.504.35.328.52.78.52 1.356 0 .544-.18 1-.54 1.368-.34.368-.91.552-1.7.552zm4.23 0h-.96v-5.4h.96v5.4zm-4.31-2.88h-.7v1.98h.69c.46 0 .79-.08 1-.24.21-.16.31-.408.31-.744 0-.664-.43-.996-1.3-.996zm12.88 2.88h-6.84v-5.4h.96v4.5h1.98v-4.5h.96v4.5h1.98v-4.5h.96v5.4zm2.02-4.26l-.25-.768a3.4 3.4 0 011.8-.492c.73 0 1.26.18 1.58.54.33.36.5.916.5 1.668v3.312h-.92v-.696c-.42.52-1 .78-1.72.78-.5 0-.9-.148-1.2-.444-.31-.304-.46-.712-.46-1.224 0-.528.19-.944.56-1.248.38-.312.87-.468 1.48-.468.57 0 1.02.116 1.34.348 0-.608-.08-1.044-.25-1.308-.17-.264-.49-.396-.97-.396-.49 0-.98.132-1.49.396zm1.32 3.48c.54 0 1-.232 1.39-.696v-.684c-.33-.24-.74-.36-1.21-.36-.33 0-.6.08-.83.24a.756.756 0 00-.32.648c0 .264.08.472.25.624.18.152.42.228.72.228zm8.17-.564l.3.756c-.52.472-1.19.708-2.02.708-.88 0-1.58-.256-2.1-.768-.53-.512-.8-1.196-.8-2.052 0-.808.25-1.48.75-2.016.49-.536 1.17-.804 2.04-.804.72 0 1.31.232 1.79.696.48.456.72 1.048.72 1.776 0 .232-.02.448-.06.648h-4.16c.04.504.23.9.57 1.188.34.288.78.432 1.32.432.7 0 1.25-.188 1.65-.564zm-1.88-3.276c-.47 0-.86.132-1.18.396-.3.264-.48.612-.54 1.044h3.28c-.02-.448-.18-.8-.46-1.056-.27-.256-.64-.384-1.1-.384zm5.05.18h-1.98v-.96h4.92v.96h-1.98v4.44h-.96v-4.44zm10.83 2.964l.46.696c-.46.6-1.16.9-2.08.9-.86 0-1.56-.256-2.1-.768-.52-.512-.79-1.196-.79-2.052 0-.792.26-1.46.78-2.004s1.17-.816 1.96-.816c.94 0 1.65.236 2.12.708l-.44.756c-.42-.376-.93-.564-1.55-.564-.5 0-.94.184-1.31.552-.36.36-.54.816-.54 1.368 0 .584.19 1.048.55 1.392.38.352.84.528 1.4.528.62 0 1.14-.232 1.54-.696zm5.18-3.924h1.26l-2.36 2.58 2.59 2.82h-1.33l-2.44-2.76 2.28-2.64zm-2.51 5.4h-.96v-5.4h.96v5.4zm5.16-.672c-.53-.544-.79-1.22-.79-2.028 0-.816.26-1.488.79-2.016.53-.536 1.23-.804 2.09-.804.85 0 1.54.268 2.07.804.54.528.81 1.2.81 2.016 0 .816-.27 1.492-.81 2.028-.53.528-1.22.792-2.07.792-.85 0-1.55-.264-2.09-.792zm.75-3.408c-.35.352-.52.812-.52 1.38 0 .568.17 1.028.51 1.38.35.36.8.54 1.35.54.54 0 .98-.176 1.33-.528.35-.36.53-.824.53-1.392 0-.552-.18-1.012-.53-1.38-.35-.36-.79-.54-1.33-.54-.55 0-.99.18-1.34.54zm6.56 6.48h-.96v-7.8h.96v.636c.19-.224.46-.404.79-.54.34-.144.69-.216 1.05-.216.76 0 1.37.256 1.81.768.45.504.68 1.16.68 1.968 0 .824-.26 1.516-.78 2.076-.51.552-1.19.828-2.03.828-.64 0-1.15-.124-1.52-.372v2.652zm1.56-7.02c-.64 0-1.16.248-1.56.744v2.676c.42.28.9.42 1.44.42.57 0 1.02-.18 1.36-.54.34-.368.51-.844.51-1.428 0-.568-.15-1.02-.47-1.356-.31-.344-.74-.516-1.28-.516zm4.58 3.948c-.53-.544-.79-1.22-.79-2.028 0-.816.26-1.488.79-2.016.54-.536 1.23-.804 2.09-.804.85 0 1.55.268 2.07.804.54.528.81 1.2.81 2.016 0 .816-.27 1.492-.81 2.028-.52.528-1.22.792-2.07.792-.85 0-1.55-.264-2.09-.792zm.76-3.408c-.36.352-.53.812-.53 1.38 0 .568.17 1.028.51 1.38.36.36.8.54 1.35.54.54 0 .99-.176 1.33-.528.35-.36.53-.824.53-1.392 0-.552-.18-1.012-.53-1.38-.34-.36-.79-.54-1.33-.54-.55 0-.99.18-1.33.54zm9.75 2.604l.45.696c-.46.6-1.15.9-2.07.9-.87 0-1.57-.256-2.1-.768s-.8-1.196-.8-2.052c0-.792.26-1.46.78-2.004s1.18-.816 1.96-.816c.94 0 1.65.236 2.12.708l-.44.756c-.42-.376-.93-.564-1.55-.564-.5 0-.94.184-1.31.552-.36.36-.54.816-.54 1.368 0 .584.19 1.048.56 1.392.37.352.84.528 1.39.528.62 0 1.14-.232 1.55-.696zm2.93-2.964h-1.98v-.96h4.92v.96h-1.98v4.44h-.96v-4.44zm5.81 4.44h-1.82v-5.4h.96v1.62h.98c.74 0 1.28.168 1.62.504.35.328.52.78.52 1.356 0 .544-.18 1-.54 1.368-.36.368-.93.552-1.72.552zm-.06-2.88h-.8v1.98h.79c.87 0 1.31-.328 1.31-.984 0-.664-.43-.996-1.3-.996zm6.3 2.88v-5.4h.17c.07-.008.17-.012.31-.012.14-.008.26-.012.37-.012.59-.016.96-.024 1.11-.024 1.55 0 2.32.464 2.32 1.392 0 .32-.1.596-.3.828-.2.224-.46.36-.78.408v.024c.84.152 1.26.576 1.26 1.272 0 1.048-.82 1.572-2.48 1.572-.08 0-.43-.008-1.06-.024-.12 0-.25-.004-.39-.012-.15 0-.26-.004-.34-.012h-.19zm2.11-2.424h-1.15v1.656c.58.024.94.036 1.1.036.92 0 1.38-.288 1.38-.864 0-.552-.44-.828-1.33-.828zm-.08-2.244c-.23 0-.59.012-1.07.036v1.608h1.21c.33 0 .59-.076.79-.228a.73.73 0 00.3-.612c0-.536-.41-.804-1.23-.804zm4.86 7.068h-.96v-7.8h.96v.636c.19-.224.46-.404.79-.54.34-.144.69-.216 1.05-.216.76 0 1.37.256 1.81.768.45.504.68 1.16.68 1.968 0 .824-.26 1.516-.78 2.076-.51.552-1.19.828-2.03.828-.64 0-1.15-.124-1.52-.372v2.652zm1.56-7.02c-.64 0-1.16.248-1.56.744v2.676c.42.28.9.42 1.44.42.57 0 1.02-.18 1.36-.54.34-.368.51-.844.51-1.428 0-.568-.15-1.02-.47-1.356-.31-.344-.74-.516-1.28-.516zm4.44.36l-.26-.768a3.4 3.4 0 011.8-.492c.73 0 1.26.18 1.59.54.33.36.49.916.49 1.668v3.312h-.91v-.696c-.43.52-1 .78-1.73.78-.5 0-.9-.148-1.2-.444-.3-.304-.46-.712-.46-1.224 0-.528.19-.944.57-1.248.37-.312.87-.468 1.47-.468.57 0 1.02.116 1.35.348 0-.608-.09-1.044-.25-1.308-.17-.264-.5-.396-.98-.396s-.98.132-1.48.396zm1.32 3.48c.53 0 1-.232 1.39-.696v-.684c-.34-.24-.74-.36-1.21-.36-.33 0-.61.08-.83.24a.741.741 0 00-.33.648c0 .264.09.472.26.624.17.152.41.228.72.228zm10.75.78h-6.84v-5.4h.96v4.5h1.98v-4.5h.96v4.5h1.98v-4.5h.96v4.5h.9v2.22h-.9v-1.32zm6.21-1.344l.3.756c-.52.472-1.2.708-2.03.708-.88 0-1.58-.256-2.1-.768-.53-.512-.79-1.196-.79-2.052 0-.808.24-1.48.74-2.016.49-.536 1.17-.804 2.04-.804.72 0 1.32.232 1.79.696.48.456.72 1.048.72 1.776 0 .232-.02.448-.06.648h-4.15c.04.504.22.9.56 1.188.34.288.78.432 1.32.432.7 0 1.26-.188 1.66-.564zm-1.89-3.276c-.47 0-.86.132-1.17.396-.31.264-.49.612-.54 1.044h3.27c-.02-.448-.17-.8-.45-1.056s-.64-.384-1.11-.384zm8.78 4.62h-.96v-2.28h-3v2.28h-.96v-5.4h.96v2.22h3v-2.22h.96v5.4zm5.82-4.02l-3.12 4.02h-.96v-5.4h.96v4.02l3.12-4.02h.96v5.4h-.96v-4.02zm6.96 2.676l.3.756c-.52.472-1.19.708-2.03.708-.88 0-1.58-.256-2.1-.768s-.79-1.196-.79-2.052c0-.808.25-1.48.75-2.016.48-.536 1.16-.804 2.04-.804.72 0 1.31.232 1.78.696.48.456.72 1.048.72 1.776 0 .232-.02.448-.06.648h-4.15c.04.504.23.9.57 1.188.34.288.78.432 1.32.432.7 0 1.25-.188 1.65-.564zm-1.88-3.276c-.47 0-.87.132-1.18.396-.3.264-.48.612-.54 1.044h3.28c-.03-.448-.18-.8-.46-1.056-.27-.256-.64-.384-1.1-.384zm-198.24 20.62h-.96v-4.5h-2.94v4.5h-.96v-5.4h4.86v5.4zm2.7 2.4h-.96v-7.8h.96v.636c.19-.224.46-.404.79-.54.34-.144.69-.216 1.05-.216.77 0 1.37.256 1.81.768.46.504.68 1.16.68 1.968 0 .824-.26 1.516-.78 2.076-.51.552-1.18.828-2.02.828-.65 0-1.16-.124-1.53-.372v2.652zm1.56-7.02c-.64 0-1.16.248-1.56.744v2.676c.43.28.91.42 1.44.42.57 0 1.02-.18 1.36-.54.34-.368.51-.844.51-1.428 0-.568-.15-1.02-.46-1.356-.32-.344-.74-.516-1.29-.516zm8.23.6l-3.12 4.02h-.96v-5.4h.96v4.02l3.12-4.02h.96v5.4h-.96v-4.02zm3.66 4.02h-.96v-5.4h.88l2.08 2.676 1.96-2.676h.86v5.4h-.96v-3.936l-1.88 2.508h-.03l-1.95-2.508v3.936zm10.82-1.344l.3.756c-.52.472-1.2.708-2.03.708-.88 0-1.58-.256-2.1-.768-.53-.512-.79-1.196-.79-2.052 0-.808.24-1.48.74-2.016.49-.536 1.17-.804 2.04-.804.72 0 1.32.232 1.79.696.48.456.72 1.048.72 1.776 0 .232-.02.448-.06.648h-4.15c.04.504.22.9.56 1.188.34.288.78.432 1.32.432.7 0 1.26-.188 1.66-.564zm-1.89-3.276c-.47 0-.86.132-1.17.396-.31.264-.49.612-.54 1.044h3.27c-.02-.448-.17-.8-.45-1.056s-.64-.384-1.11-.384zm4.82 7.02h-.96v-7.8h.96v.636c.19-.224.46-.404.79-.54.34-.144.69-.216 1.05-.216.76 0 1.37.256 1.81.768.45.504.68 1.16.68 1.968 0 .824-.26 1.516-.78 2.076-.51.552-1.19.828-2.03.828-.64 0-1.15-.124-1.52-.372v2.652zm1.56-7.02c-.64 0-1.16.248-1.56.744v2.676c.42.28.9.42 1.44.42.57 0 1.02-.18 1.36-.54.34-.368.51-.844.51-1.428 0-.568-.15-1.02-.47-1.356-.31-.344-.74-.516-1.28-.516zm9.07 4.62h-.96v-2.28h-3v2.28h-.96v-5.4h.96v2.22h3v-2.22h.96v5.4zm2.17-.672c-.53-.544-.79-1.22-.79-2.028 0-.816.26-1.488.79-2.016.53-.536 1.23-.804 2.09-.804.85 0 1.54.268 2.07.804.54.528.81 1.2.81 2.016 0 .816-.27 1.492-.81 2.028-.53.528-1.22.792-2.07.792-.85 0-1.55-.264-2.09-.792zm.75-3.408c-.35.352-.52.812-.52 1.38 0 .568.17 1.028.51 1.38.35.36.8.54 1.35.54.54 0 .98-.176 1.33-.528.35-.36.53-.824.53-1.392 0-.552-.18-1.012-.53-1.38-.35-.36-.79-.54-1.33-.54-.55 0-.99.18-1.34.54zm8.3 4.08v-5.4h.16c.08-.008.18-.012.32-.012.13-.008.26-.012.37-.012.59-.016.96-.024 1.1-.024 1.55 0 2.33.464 2.33 1.392 0 .32-.1.596-.3.828-.2.224-.46.36-.78.408v.024c.84.152 1.26.576 1.26 1.272 0 1.048-.83 1.572-2.48 1.572-.08 0-.44-.008-1.06-.024a7.5 7.5 0 01-.4-.012c-.14 0-.25-.004-.33-.012h-.19zm2.11-2.424h-1.15v1.656c.57.024.94.036 1.1.036.92 0 1.38-.288 1.38-.864 0-.552-.44-.828-1.33-.828zm-.09-2.244c-.23 0-.58.012-1.06.036v1.608h1.21c.33 0 .59-.076.79-.228a.73.73 0 00.3-.612c0-.536-.41-.804-1.24-.804zm6.66-1.44l-.5-.78 2.01-1.56h.67v8.448h-.96v-7.068l-1.22.96zm9.73 1.908c0 1.36-.23 2.416-.68 3.168-.45.752-1.12 1.128-2.02 1.128-.9 0-1.59-.384-2.06-1.152-.46-.776-.69-1.824-.69-3.144 0-1.312.23-2.356.68-3.132.45-.776 1.14-1.164 2.05-1.164.92 0 1.6.388 2.04 1.164.45.768.68 1.812.68 3.132zm-2.7 3.396c.59 0 1.01-.28 1.27-.84.28-.56.41-1.412.41-2.556 0-1.136-.14-1.984-.42-2.544-.27-.568-.7-.852-1.28-.852-1.14 0-1.71 1.132-1.71 3.396 0 2.264.58 3.396 1.73 3.396zm9.47-3.396c0 1.36-.22 2.416-.68 3.168-.45.752-1.12 1.128-2.02 1.128-.9 0-1.59-.384-2.06-1.152-.46-.776-.68-1.824-.68-3.144 0-1.312.22-2.356.67-3.132.45-.776 1.14-1.164 2.05-1.164.92 0 1.6.388 2.04 1.164.46.768.68 1.812.68 3.132zm-2.7 3.396c.59 0 1.01-.28 1.28-.84.27-.56.4-1.412.4-2.556 0-1.136-.14-1.984-.42-2.544-.27-.568-.7-.852-1.28-.852-1.14 0-1.7 1.132-1.7 3.396 0 2.264.57 3.396 1.72 3.396zm7.89 3.204h-.96v-7.8h.96v.636c.19-.224.46-.404.79-.54.34-.144.69-.216 1.05-.216.76 0 1.37.256 1.81.768.45.504.68 1.16.68 1.968 0 .824-.26 1.516-.78 2.076-.51.552-1.19.828-2.03.828-.64 0-1.15-.124-1.52-.372v2.652zm1.56-7.02c-.64 0-1.16.248-1.56.744v2.676c.42.28.9.42 1.44.42.57 0 1.02-.18 1.36-.54.34-.368.51-.844.51-1.428 0-.568-.15-1.02-.47-1.356-.31-.344-.74-.516-1.28-.516zm4.44.36l-.26-.768a3.4 3.4 0 011.8-.492c.73 0 1.26.18 1.59.54.33.36.49.916.49 1.668v3.312h-.91v-.696c-.43.52-1 .78-1.73.78-.5 0-.9-.148-1.2-.444-.3-.304-.46-.712-.46-1.224 0-.528.19-.944.57-1.248.37-.312.87-.468 1.47-.468.57 0 1.02.116 1.35.348 0-.608-.09-1.044-.25-1.308-.17-.264-.5-.396-.98-.396s-.98.132-1.48.396zm1.32 3.48c.53 0 1-.232 1.39-.696v-.684c-.34-.24-.74-.36-1.21-.36-.33 0-.61.08-.83.24a.741.741 0 00-.33.648c0 .264.09.472.26.624.17.152.41.228.72.228zm5.7.9c-.41 0-.84-.068-1.3-.204-.44-.144-.75-.32-.94-.528l.5-.72a2.614 2.614 0 001.59.588c.42 0 .76-.08 1.02-.24.27-.168.4-.384.4-.648a.58.58 0 00-.29-.516c-.18-.12-.44-.18-.77-.18h-.91v-.78h.85c.27 0 .5-.072.67-.216a.698.698 0 00.27-.552c0-.24-.11-.428-.31-.564-.21-.144-.49-.216-.84-.216-.57 0-1.11.2-1.62.6l-.38-.744c.22-.224.52-.4.9-.528.4-.128.81-.192 1.24-.192.64 0 1.14.128 1.49.384.36.256.54.612.54 1.068 0 .624-.32 1.048-.95 1.272v.024c.35.04.63.18.83.42.2.232.3.516.3.852 0 .496-.21.892-.64 1.188-.41.288-.97.432-1.65.432zm5.25-2.7h-1.02v-5.82h1.02v5.82zm-1.18 1.932c0-.176.07-.324.2-.444.12-.128.29-.192.5-.192.17 0 .32.064.44.192.13.128.2.276.2.444 0 .192-.06.356-.18.492a.613.613 0 01-.46.192c-.21 0-.38-.064-.5-.192a.69.69 0 01-.2-.492z" fill="#959595"/><path d="M669.161 477.427a.5.5 0 10-.322.946l.322-.946zm-.322.946l311.5 106.104.322-.947-311.5-106.103-.322.946z" fill="#525252"/><path d="M1033.5 645.004h-25.62v-3.9c5.44-5.32 9.44-9.56 12-12.72 4.52-5.68 6.78-10.44 6.78-14.28 0-2-.62-3.62-1.86-4.86-1.2-1.28-2.86-1.92-4.98-1.92-1.84 0-3.46.6-4.86 1.8-1.36 1.16-2.24 2.8-2.64 4.92l-4.08-1.68c.48-3 1.82-5.38 4.02-7.14 2.24-1.8 4.9-2.7 7.98-2.7 3.68 0 6.52 1.06 8.52 3.18s3 4.6 3 7.44c0 5.4-2.58 11.14-7.74 17.22-2.32 2.72-4.18 4.76-5.58 6.12-1.2 1.2-2.64 2.54-4.32 4.02h19.38v4.5z" fill="#999"/></g></svg>