<svg width="390" height="570" fill="none" xmlns="http://www.w3.org/2000/svg"><mask id="a" style="mask-type:alpha" maskUnits="userSpaceOnUse" x="0" y="0" width="390" height="570"><path fill="#D9D9D9" d="M0 0h390v570H0z"/></mask><g mask="url(#a)"><path fill="#C1C1C1" fill-opacity=".8" d="M102 97h139v55H102z"/><path fill="#fff" d="M98 93h139v55H98z"/><path stroke="#525252" stroke-width=".512" d="M94.256 89.256h138.488v54.488H94.256z"/><path d="M132.534 108.751h-3.556v-.82h3.546c-.089-.737-.393-1.318-.912-1.742-.519-.43-1.182-.645-1.988-.645-.711 0-1.316.194-1.814.584l-.339-.656c.561-.499 1.346-.748 2.358-.748 1.065 0 1.933.334 2.603 1.004.662.663.994 1.551.994 2.665 0 1.1-.335 1.995-1.005 2.685-.662.683-1.554 1.024-2.674 1.024-.971 0-1.767-.249-2.388-.748l.379-.727a3.22 3.22 0 001.988.656c.765 0 1.404-.226 1.917-.677.526-.464.823-1.083.891-1.855zM138.23 112h-.82v-3.792h-1.62l-.051.779a9.735 9.735 0 01-.246 1.588c-.102.417-.239.732-.41.943a1.433 1.433 0 01-.522.431c-.185.075-.41.112-.677.112l-.061-.799a.558.558 0 00.235-.031.815.815 0 00.267-.205c.102-.102.191-.239.266-.41.082-.17.154-.409.216-.717.068-.314.112-.673.133-1.076l.082-1.435h3.208V112zm5.116-1.148l.256.646c-.444.403-1.021.604-1.732.604-.751 0-1.349-.218-1.793-.655-.451-.438-.677-1.022-.677-1.753 0-.69.212-1.264.636-1.722.416-.457.997-.686 1.742-.686.615 0 1.124.198 1.527.594.41.39.615.895.615 1.517 0 .198-.017.383-.051.553h-3.546c.034.431.194.769.481 1.015.294.246.67.369 1.128.369.601 0 1.072-.161 1.414-.482zm-1.609-2.798c-.403 0-.738.113-1.004.339-.26.225-.414.522-.462.891h2.798c-.02-.382-.15-.683-.389-.902-.233-.218-.547-.328-.943-.328zm6.257-.666h1.076l-2.019 2.204 2.214 2.408h-1.138l-2.08-2.357 1.947-2.255zM145.852 112h-.82v-4.612h.82V112zm5.391-3.792h-1.691v-.82h4.202v.82h-1.691V112h-.82v-3.792zm4.227 5.842h-.82v-6.662h.82v.543a1.72 1.72 0 01.676-.461 2.24 2.24 0 01.892-.184c.656 0 1.171.218 1.547.656.39.43.584.99.584 1.68 0 .704-.222 1.295-.666 1.773-.437.472-1.014.707-1.732.707-.553 0-.987-.105-1.301-.317v2.265zm1.332-5.996c-.547 0-.991.212-1.332.636v2.285c.362.239.772.359 1.23.359.485 0 .871-.154 1.158-.461.293-.315.44-.721.44-1.22 0-.485-.133-.871-.399-1.158-.267-.294-.632-.441-1.097-.441zm3.911 3.372c-.45-.465-.676-1.042-.676-1.732 0-.697.226-1.271.676-1.722.458-.457 1.053-.686 1.784-.686.731 0 1.322.229 1.773.686.457.451.686 1.025.686 1.722 0 .697-.229 1.274-.686 1.732-.451.451-1.042.676-1.773.676-.725 0-1.319-.225-1.784-.676zm.646-2.91c-.301.3-.451.693-.451 1.178s.147.878.441 1.179c.3.307.683.461 1.148.461.464 0 .843-.15 1.137-.451.301-.308.451-.704.451-1.189 0-.471-.15-.864-.451-1.178-.294-.308-.673-.462-1.137-.462-.465 0-.844.154-1.138.462zm5.6 3.484h-.82v-4.612h2.921v.769h-2.101V112zm6.381-1.148l.257.646c-.445.403-1.022.604-1.732.604-.752 0-1.35-.218-1.794-.655-.451-.438-.676-1.022-.676-1.753 0-.69.212-1.264.635-1.722.417-.457.998-.686 1.742-.686.615 0 1.124.198 1.527.594.41.39.615.895.615 1.517 0 .198-.017.383-.051.553h-3.546c.034.431.195.769.482 1.015.294.246.669.369 1.127.369.601 0 1.073-.161 1.414-.482zm-1.609-2.798c-.403 0-.738.113-1.004.339-.26.225-.413.522-.461.891h2.798c-.021-.382-.151-.683-.39-.902-.232-.218-.546-.328-.943-.328zm7.497 3.946h-.82v-1.947h-2.562V112h-.819v-4.612h.819v1.896h2.562v-1.896h.82V112zm5.121-1.148l.257.646c-.445.403-1.022.604-1.732.604-.752 0-1.35-.218-1.794-.655-.451-.438-.676-1.022-.676-1.753 0-.69.212-1.264.635-1.722.417-.457.998-.686 1.742-.686.615 0 1.124.198 1.527.594.41.39.615.895.615 1.517 0 .198-.017.383-.051.553h-3.546c.034.431.195.769.482 1.015.294.246.669.369 1.127.369.601 0 1.073-.161 1.414-.482zm-1.609-2.798c-.403 0-.738.113-1.004.339-.26.225-.413.522-.461.891h2.798c-.021-.382-.151-.683-.39-.902-.232-.218-.546-.328-.943-.328zm4.115 5.996h-.819v-6.662h.819v.543c.164-.191.39-.345.677-.461a2.24 2.24 0 01.891-.184c.656 0 1.172.218 1.548.656.389.43.584.99.584 1.68 0 .704-.222 1.295-.666 1.773-.437.472-1.015.707-1.732.707-.553 0-.987-.105-1.302-.317v2.265zm1.333-5.996c-.547 0-.991.212-1.333.636v2.285c.362.239.772.359 1.23.359.485 0 .871-.154 1.158-.461.294-.315.441-.721.441-1.22 0-.485-.133-.871-.4-1.158-.266-.294-.632-.441-1.096-.441zm3.788.308l-.215-.656c.458-.28.97-.42 1.537-.42.622 0 1.073.153 1.353.461.28.307.42.782.42 1.424V112h-.779v-.594c-.362.444-.854.666-1.476.666-.423 0-.765-.127-1.024-.379-.26-.26-.39-.609-.39-1.046 0-.451.161-.806.482-1.066.321-.266.741-.399 1.26-.399.486 0 .868.099 1.148.297 0-.519-.071-.892-.215-1.117-.143-.226-.42-.338-.83-.338-.417 0-.84.112-1.271.338zm1.127 2.972c.458 0 .854-.198 1.189-.595v-.584c-.287-.205-.632-.307-1.035-.307-.28 0-.516.068-.707.205a.638.638 0 00-.277.553c0 .226.072.403.216.533.15.13.355.195.614.195zm4.448-3.126h-1.691v-.82h4.202v.82h-1.691V112h-.82v-3.792zm3.626 3.218c-.451-.465-.677-1.042-.677-1.732 0-.697.226-1.271.677-1.722.457-.457 1.052-.686 1.783-.686.731 0 1.322.229 1.773.686.457.451.686 1.025.686 1.722 0 .697-.229 1.274-.686 1.732-.451.451-1.042.676-1.773.676-.724 0-1.319-.225-1.783-.676zm.645-2.91c-.3.3-.451.693-.451 1.178s.147.878.441 1.179c.301.307.683.461 1.148.461.464 0 .844-.15 1.137-.451.301-.308.451-.704.451-1.189 0-.471-.15-.864-.451-1.178-.293-.308-.673-.462-1.137-.462-.465 0-.844.154-1.138.462zm5.6 5.534h-.82v-6.662h.82v.543c.164-.191.39-.345.677-.461a2.24 2.24 0 01.891-.184c.656 0 1.172.218 1.548.656.389.43.584.99.584 1.68 0 .704-.222 1.295-.666 1.773-.438.472-1.015.707-1.732.707-.554 0-.988-.105-1.302-.317v2.265zm1.332-5.996c-.546 0-.99.212-1.332.636v2.285c.362.239.772.359 1.23.359.485 0 .871-.154 1.158-.461.294-.315.441-.721.441-1.22 0-.485-.133-.871-.4-1.158-.266-.294-.632-.441-1.097-.441z" fill="#000"/><path d="M130.63 122.64l-2.55 3.36h-.45v-4.2h.51v3.36l2.55-3.36h.45v4.2h-.51v-3.36zm2.052 3.36h-.48v-2.7h.438l1.038 1.338.984-1.338h.426v2.7h-.48v-1.968l-.936 1.254h-.018l-.972-1.254V126zm5.405-.672l.15.378c-.26.236-.598.354-1.014.354-.44 0-.79-.128-1.05-.384-.264-.256-.396-.598-.396-1.026 0-.404.124-.74.372-1.008.244-.268.584-.402 1.02-.402.36 0 .658.116.894.348.24.228.36.524.36.888 0 .116-.01.224-.03.324h-2.076c.02.252.114.45.282.594.172.144.392.216.66.216.352 0 .628-.094.828-.282zm-.942-1.638a.879.879 0 00-.588.198.802.802 0 00-.27.522h1.638c-.012-.224-.088-.4-.228-.528-.136-.128-.32-.192-.552-.192zm4.39 2.31h-.48v-1.14h-1.5V126h-.48v-2.7h.48v1.11h1.5v-1.11h.48v2.7zm3.328 0h-.48v-1.14h-1.5V126h-.48v-2.7h.48v1.11h1.5v-1.11h.48v2.7zm1.084-.336a1.399 1.399 0 01-.396-1.014c0-.408.132-.744.396-1.008.268-.268.616-.402 1.044-.402.428 0 .774.134 1.038.402.268.264.402.6.402 1.008 0 .408-.134.746-.402 1.014-.264.264-.61.396-1.038.396-.424 0-.772-.132-1.044-.396zm.378-1.704c-.176.176-.264.406-.264.69 0 .284.086.514.258.69a.9.9 0 00.672.27.89.89 0 00.666-.264.954.954 0 00.264-.696.959.959 0 00-.264-.69.88.88 0 00-.666-.27.88.88 0 00-.666.27zm5.04 2.1a2.27 2.27 0 01-.648-.102c-.22-.072-.376-.16-.468-.264l.246-.36c.108.088.236.16.384.216.152.052.29.078.414.078.208 0 .378-.04.51-.12.132-.084.198-.192.198-.324a.287.287 0 00-.144-.258.7.7 0 00-.384-.09h-.456v-.39h.426a.513.513 0 00.336-.108.352.352 0 00.132-.276.32.32 0 00-.156-.282.726.726 0 00-.42-.108c-.284 0-.554.1-.81.3l-.186-.372c.108-.112.258-.2.45-.264.196-.064.402-.096.618-.096.32 0 .568.064.744.192.18.128.27.306.27.534 0 .312-.158.524-.474.636v.012c.176.02.314.09.414.21.1.116.15.258.15.426a.69.69 0 01-.318.594c-.208.144-.484.216-.828.216zm1.956.6h-.45v-1.11h.336c.1-.124.188-.324.264-.6.076-.28.126-.592.15-.936l.042-.714h1.842v2.25h.45v1.11h-.45V126h-2.184v.66zm.792-2.91l-.03.45c-.024.3-.072.574-.144.822s-.146.424-.222.528h1.308v-1.8h-.912zm4.494 1.578l.15.378c-.26.236-.598.354-1.014.354-.44 0-.79-.128-1.05-.384-.264-.256-.396-.598-.396-1.026 0-.404.124-.74.372-1.008.244-.268.584-.402 1.02-.402.36 0 .658.116.894.348.24.228.36.524.36.888 0 .116-.01.224-.03.324h-2.076c.02.252.114.45.282.594.172.144.392.216.66.216.352 0 .628-.094.828-.282zm-.942-1.638a.879.879 0 00-.588.198.802.802 0 00-.27.522h1.638c-.012-.224-.088-.4-.228-.528-.136-.128-.32-.192-.552-.192zm3.97 1.572l.228.348c-.232.3-.578.45-1.038.45-.432 0-.782-.128-1.05-.384-.264-.256-.396-.598-.396-1.026 0-.396.13-.73.39-1.002s.586-.408.978-.408c.472 0 .826.118 1.062.354l-.222.378a1.111 1.111 0 00-.774-.282.894.894 0 00-.654.276.927.927 0 00-.27.684c0 .292.092.524.276.696a.98.98 0 00.696.264c.312 0 .57-.116.774-.348zm1.766.738h-.912v-2.7h.48v.81h.492c.368 0 .638.084.81.252.172.164.258.39.258.678 0 .272-.09.5-.27.684-.18.184-.466.276-.858.276zm-.03-1.44h-.402v.99h.396c.436 0 .654-.164.654-.492 0-.332-.216-.498-.648-.498zm4.883-1.26h.63l-1.182 1.29 1.296 1.41h-.666l-1.218-1.38 1.14-1.32zM167 126h-.48v-2.7h.48v2.7zm4.548-2.01l-1.56 2.01h-.48v-2.7h.48v2.01l1.56-2.01h.48v2.7h-.48v-2.01zm3.813 2.01h-.48v-1.14h-1.5V126h-.48v-2.7h.48v1.11h1.5v-1.11h.48v2.7zm2.998-.672l.15.378c-.26.236-.598.354-1.014.354-.44 0-.79-.128-1.05-.384-.264-.256-.396-.598-.396-1.026 0-.404.124-.74.372-1.008.244-.268.584-.402 1.02-.402.36 0 .658.116.894.348.24.228.36.524.36.888 0 .116-.01.224-.03.324h-2.076c.02.252.114.45.282.594.172.144.392.216.66.216.352 0 .628-.094.828-.282zm-.942-1.638a.879.879 0 00-.588.198.802.802 0 00-.27.522h1.638c-.012-.224-.088-.4-.228-.528-.136-.128-.32-.192-.552-.192zm2.524.09h-.99v-.48h2.46v.48h-.99V126h-.48v-2.22zm4.035.21l-1.56 2.01h-.48v-2.7h.48v2.01l1.56-2.01h.48v2.7h-.48v-2.01zm2.9-.69h.48v2.7h-.48v-1.05a1.37 1.37 0 01-.75.198c-.64 0-.96-.344-.96-1.032v-.816h.51v.762c0 .424.194.636.582.636.252 0 .458-.056.618-.168v-1.23zm3.477 2.028l.15.378c-.26.236-.598.354-1.014.354-.44 0-.79-.128-1.05-.384-.264-.256-.396-.598-.396-1.026 0-.404.124-.74.372-1.008.244-.268.584-.402 1.02-.402.36 0 .658.116.894.348.24.228.36.524.36.888 0 .116-.01.224-.03.324h-2.076c.02.252.114.45.282.594.172.144.392.216.66.216.352 0 .628-.094.828-.282zm-.942-1.638a.879.879 0 00-.588.198.802.802 0 00-.27.522h1.638c-.012-.224-.088-.4-.228-.528-.136-.128-.32-.192-.552-.192zm3.97 1.572l.228.348c-.232.3-.578.45-1.038.45-.432 0-.782-.128-1.05-.384-.264-.256-.396-.598-.396-1.026 0-.396.13-.73.39-1.002s.586-.408.978-.408c.472 0 .826.118 1.062.354l-.222.378a1.111 1.111 0 00-.774-.282.894.894 0 00-.654.276.927.927 0 00-.27.684c0 .292.092.524.276.696a.98.98 0 00.696.264c.312 0 .57-.116.774-.348zm2.588-1.962h.63l-1.182 1.29 1.296 1.41h-.666l-1.218-1.38 1.14-1.32zm-1.254 2.7h-.48v-2.7h.48v2.7zm2.652-2.13l-.126-.384a1.69 1.69 0 01.9-.246c.364 0 .628.09.792.27.164.18.246.458.246.834V126h-.456v-.348c-.212.26-.5.39-.864.39-.248 0-.448-.074-.6-.222-.152-.152-.228-.356-.228-.612a.76.76 0 01.282-.624c.188-.156.434-.234.738-.234.284 0 .508.058.672.174 0-.304-.042-.522-.126-.654-.084-.132-.246-.198-.486-.198-.244 0-.492.066-.744.198zm.66 1.74c.268 0 .5-.116.696-.348v-.342c-.168-.12-.37-.18-.606-.18a.694.694 0 00-.414.12.373.373 0 00-.162.324.4.4 0 00.126.312.532.532 0 00.36.114zm3.138-2.31h.84v2.7h-.48v-.9h-.522l-.66.9h-.582l.78-1.02a.716.716 0 01-.414-.264.815.815 0 01-.168-.516c0-.276.1-.494.3-.654.2-.164.502-.246.906-.246zm-.696.912c0 .128.05.234.15.318.1.08.218.12.354.12h.552v-.9h-.438c-.204 0-.358.042-.462.126a.41.41 0 00-.156.336zm5.508.612h-1.332v-.39h1.326a.813.813 0 00-.306-.552c-.164-.128-.374-.192-.63-.192-.332 0-.608.098-.828.294l-.204-.36c.116-.116.27-.208.462-.276a1.6 1.6 0 01.564-.108c.432 0 .778.128 1.038.384.268.256.402.598.402 1.026 0 .396-.13.73-.39 1.002s-.586.408-.978.408c-.488 0-.85-.114-1.086-.342l.228-.354c.184.164.46.246.828.246.252 0 .458-.068.618-.204a.893.893 0 00.288-.582zm3.644 1.176h-.48v-1.14h-1.5V126h-.48v-2.7h.48v1.11h1.5v-1.11h.48v2.7zm2.998-.672l.15.378c-.26.236-.598.354-1.014.354-.44 0-.79-.128-1.05-.384-.264-.256-.396-.598-.396-1.026 0-.404.124-.74.372-1.008.244-.268.584-.402 1.02-.402.36 0 .658.116.894.348.24.228.36.524.36.888 0 .116-.01.224-.03.324h-2.076c.02.252.114.45.282.594.172.144.392.216.66.216.352 0 .628-.094.828-.282zm-.942-1.638a.879.879 0 00-.588.198.802.802 0 00-.27.522h1.638c-.012-.224-.088-.4-.228-.528-.136-.128-.32-.192-.552-.192zm2.409 3.51h-.48v-3.9h.48v.318c.096-.112.228-.202.396-.27.168-.072.342-.108.522-.108.384 0 .686.128.906.384.228.252.342.58.342.984 0 .412-.13.758-.39 1.038-.256.276-.594.414-1.014.414-.324 0-.578-.062-.762-.186v1.326zm.78-3.51c-.32 0-.58.124-.78.372v1.338c.212.14.452.21.72.21.284 0 .51-.09.678-.27.172-.184.258-.422.258-.714 0-.284-.078-.51-.234-.678-.156-.172-.37-.258-.642-.258zm2.554 2.31h-.48v-2.7h1.71v.45h-1.23V126zm3.734-2.01l-1.56 2.01h-.48v-2.7h.48v2.01l1.56-2.01h.48v2.7h-.48v-2.01zm2.534-.69h.84v2.7h-.48v-.9h-.522l-.66.9h-.582l.78-1.02a.716.716 0 01-.414-.264.815.815 0 01-.168-.516c0-.276.1-.494.3-.654.2-.164.502-.246.906-.246zm-.696.912c0 .128.05.234.15.318.1.08.218.12.354.12h.552v-.9h-.438c-.204 0-.358.042-.462.126a.41.41 0 00-.156.336zM129.862 134h-.48v-2.25h-1.47V134h-.48v-2.7h2.43v2.7zm1.349 1.2h-.48v-3.9h.48v.318c.096-.112.228-.202.396-.27.168-.072.342-.108.522-.108.384 0 .686.128.906.384.228.252.342.58.342.984 0 .412-.13.758-.39 1.038-.256.276-.594.414-1.014.414-.324 0-.578-.062-.762-.186v1.326zm.78-3.51c-.32 0-.58.124-.78.372v1.338c.212.14.452.21.72.21.284 0 .51-.09.678-.27.172-.184.258-.422.258-.714 0-.284-.078-.51-.234-.678-.156-.172-.37-.258-.642-.258zm4.204 1.638l.15.378c-.26.236-.598.354-1.014.354-.44 0-.79-.128-1.05-.384-.264-.256-.396-.598-.396-1.026 0-.404.124-.74.372-1.008.244-.268.584-.402 1.02-.402.36 0 .658.116.894.348.24.228.36.524.36.888 0 .116-.01.224-.03.324h-2.076c.02.252.114.45.282.594.172.144.392.216.66.216.352 0 .628-.094.828-.282zm-.942-1.638a.879.879 0 00-.588.198.802.802 0 00-.27.522h1.638c-.012-.224-.088-.4-.228-.528-.136-.128-.32-.192-.552-.192zm2.11 1.974a1.399 1.399 0 01-.396-1.014c0-.408.132-.744.396-1.008.268-.268.616-.402 1.044-.402.428 0 .774.134 1.038.402.268.264.402.6.402 1.008 0 .408-.134.746-.402 1.014-.264.264-.61.396-1.038.396-.424 0-.772-.132-1.044-.396zm.378-1.704c-.176.176-.264.406-.264.69 0 .284.086.514.258.69a.9.9 0 00.672.27.89.89 0 00.666-.264.954.954 0 00.264-.696.959.959 0 00-.264-.69.88.88 0 00-.666-.27.88.88 0 00-.666.27zm4.886-2.22l.258.378a.728.728 0 01-.348.27 2.743 2.743 0 01-.504.12 2.065 2.065 0 00-.522.15c-.408.188-.636.622-.684 1.302h.012c.088-.188.23-.34.426-.456.2-.116.414-.174.642-.174.384 0 .688.122.912.366.228.244.342.57.342.978 0 .384-.13.712-.39.984-.256.268-.588.402-.996.402-.44 0-.788-.15-1.044-.45-.256-.296-.384-.706-.384-1.23 0-1.168.334-1.894 1.002-2.178.152-.068.328-.118.528-.15.156-.028.268-.05.336-.066a.92.92 0 00.216-.084.561.561 0 00.198-.162zm-1.77 2.73c0 .344.084.62.252.828a.802.802 0 00.654.312.83.83 0 00.636-.264.89.89 0 00.252-.648c0-.276-.078-.498-.234-.666-.152-.168-.362-.252-.63-.252a.927.927 0 00-.612.204.86.86 0 00-.318.486zm3.473 2.73h-.48v-3.9h.48v.318c.096-.112.228-.202.396-.27.168-.072.342-.108.522-.108.384 0 .686.128.906.384.228.252.342.58.342.984 0 .412-.13.758-.39 1.038-.256.276-.594.414-1.014.414-.324 0-.578-.062-.762-.186v1.326zm.78-3.51c-.32 0-.58.124-.78.372v1.338c.212.14.452.21.72.21.284 0 .51-.09.678-.27.172-.184.258-.422.258-.714 0-.284-.078-.51-.234-.678-.156-.172-.37-.258-.642-.258zm2.218.18l-.126-.384a1.69 1.69 0 01.9-.246c.364 0 .628.09.792.27.164.18.246.458.246.834V134h-.456v-.348c-.212.26-.5.39-.864.39-.248 0-.448-.074-.6-.222-.152-.152-.228-.356-.228-.612a.76.76 0 01.282-.624c.188-.156.434-.234.738-.234.284 0 .508.058.672.174 0-.304-.042-.522-.126-.654-.084-.132-.246-.198-.486-.198-.244 0-.492.066-.744.198zm.66 1.74c.268 0 .5-.116.696-.348v-.342c-.168-.12-.37-.18-.606-.18a.694.694 0 00-.414.12.373.373 0 00-.162.324.4.4 0 00.126.312.532.532 0 00.36.114zm2.85.45a2.27 2.27 0 01-.648-.102c-.22-.072-.376-.16-.468-.264l.246-.36c.108.088.236.16.384.216.152.052.29.078.414.078.208 0 .378-.04.51-.12.132-.084.198-.192.198-.324a.287.287 0 00-.144-.258.7.7 0 00-.384-.09h-.456v-.39h.426a.513.513 0 00.336-.108.352.352 0 00.132-.276.32.32 0 00-.156-.282.726.726 0 00-.42-.108c-.284 0-.554.1-.81.3l-.186-.372c.108-.112.258-.2.45-.264.196-.064.402-.096.618-.096.32 0 .568.064.744.192.18.128.27.306.27.534 0 .312-.158.524-.474.636v.012c.176.02.314.09.414.21.1.116.15.258.15.426a.69.69 0 01-.318.594c-.208.144-.484.216-.828.216zm3.785-2.76h.546l-1.08 2.7c-.196.476-.366.792-.51.948-.152.168-.326.252-.522.252a.892.892 0 01-.51-.168l.156-.366c.128.06.228.09.3.09a.398.398 0 00.3-.144c.092-.096.184-.252.276-.468l.06-.144-1.296-2.7h.576l.792 1.716c.016.028.07.164.162.408.036-.132.078-.27.126-.414l.624-1.71zm3.064 2.028l.15.378c-.26.236-.598.354-1.014.354-.44 0-.79-.128-1.05-.384-.264-.256-.396-.598-.396-1.026 0-.404.124-.74.372-1.008.244-.268.584-.402 1.02-.402.36 0 .658.116.894.348.24.228.36.524.36.888 0 .116-.01.224-.03.324h-2.076c.02.252.114.45.282.594.172.144.392.216.66.216.352 0 .628-.094.828-.282zm-.942-1.638a.879.879 0 00-.588.198.802.802 0 00-.27.522h1.638c-.012-.224-.088-.4-.228-.528-.136-.128-.32-.192-.552-.192zm2.524.09h-.99v-.48h2.46v.48h-.99V134h-.48v-2.22zm3.983 1.482l.228.348c-.232.3-.578.45-1.038.45-.432 0-.782-.128-1.05-.384-.264-.256-.396-.598-.396-1.026 0-.396.13-.73.39-1.002s.586-.408.978-.408c.472 0 .826.118 1.062.354l-.222.378a1.111 1.111 0 00-.774-.282.894.894 0 00-.654.276.927.927 0 00-.27.684c0 .292.092.524.276.696a.98.98 0 00.696.264c.312 0 .57-.116.774-.348zm1.907-1.962h.84v2.7h-.48v-.9h-.522l-.66.9h-.582l.78-1.02a.716.716 0 01-.414-.264.815.815 0 01-.168-.516c0-.276.1-.494.3-.654.2-.164.502-.246.906-.246zm-.696.912c0 .128.05.234.15.318.1.08.218.12.354.12h.552v-.9h-.438c-.204 0-.358.042-.462.126a.41.41 0 00-.156.336zm3.756 1.788v-2.7h.084c.036-.004.088-.006.156-.006a29.46 29.46 0 01.738-.018c.776 0 1.164.232 1.164.696 0 .16-.05.298-.15.414a.63.63 0 01-.39.204v.012c.42.076.63.288.63.636 0 .524-.414.786-1.242.786a43.513 43.513 0 01-.894-.024h-.096zm1.056-1.212h-.576v.828c.288.012.472.018.552.018.46 0 .69-.144.69-.432 0-.276-.222-.414-.666-.414zm-.042-1.122c-.116 0-.294.006-.534.018v.804h.606a.638.638 0 00.396-.114c.1-.076.15-.178.15-.306 0-.268-.206-.402-.618-.402zm5.051 1.158h-1.332v-.39h1.326a.813.813 0 00-.306-.552c-.164-.128-.374-.192-.63-.192-.332 0-.608.098-.828.294l-.204-.36c.116-.116.27-.208.462-.276a1.6 1.6 0 01.564-.108c.432 0 .778.128 1.038.384.268.256.402.598.402 1.026 0 .396-.13.73-.39 1.002s-.586.408-.978.408c-.488 0-.85-.114-1.086-.342l.228-.354c.184.164.46.246.828.246.252 0 .458-.068.618-.204a.893.893 0 00.288-.582zM177.69 134h-.48v-2.22h-.948l-.03.456c-.032.372-.08.682-.144.93-.06.244-.14.428-.24.552a.837.837 0 01-.306.252c-.108.044-.24.066-.396.066l-.036-.468a.337.337 0 00.138-.018.48.48 0 00.156-.12c.06-.06.112-.14.156-.24.048-.1.09-.24.126-.42.04-.184.066-.394.078-.63l.048-.84h1.878v2.7zm2.995-.672l.15.378c-.26.236-.598.354-1.014.354-.44 0-.79-.128-1.05-.384-.264-.256-.396-.598-.396-1.026 0-.404.124-.74.372-1.008.244-.268.584-.402 1.02-.402.36 0 .658.116.894.348.24.228.36.524.36.888 0 .116-.01.224-.03.324h-2.076c.02.252.114.45.282.594.172.144.392.216.66.216.352 0 .628-.094.828-.282zm-.942-1.638a.879.879 0 00-.588.198.802.802 0 00-.27.522h1.638c-.012-.224-.088-.4-.228-.528-.136-.128-.32-.192-.552-.192zm3.663-.39h.63l-1.182 1.29 1.296 1.41h-.666l-1.218-1.38 1.14-1.32zm-1.254 2.7h-.48v-2.7h.48v2.7zm3.157-2.22h-.99v-.48h2.46v.48h-.99V134h-.48v-2.22zm2.474 3.42h-.48v-3.9h.48v.318c.096-.112.228-.202.396-.27.168-.072.342-.108.522-.108.384 0 .686.128.906.384.228.252.342.58.342.984 0 .412-.13.758-.39 1.038-.256.276-.594.414-1.014.414-.324 0-.578-.062-.762-.186v1.326zm.78-3.51c-.32 0-.58.124-.78.372v1.338c.212.14.452.21.72.21.284 0 .51-.09.678-.27.172-.184.258-.422.258-.714 0-.284-.078-.51-.234-.678-.156-.172-.37-.258-.642-.258zm4.114.3l-1.56 2.01h-.48v-2.7h.48v2.01l1.56-2.01h.48v2.7h-.48v-2.01zm2.901-.69h.48v2.7h-.48v-1.05a1.37 1.37 0 01-.75.198c-.64 0-.96-.344-.96-1.032v-.816h.51v.762c0 .424.194.636.582.636.252 0 .458-.056.618-.168v-1.23zm3.476 2.028l.15.378c-.26.236-.598.354-1.014.354-.44 0-.79-.128-1.05-.384-.264-.256-.396-.598-.396-1.026 0-.404.124-.74.372-1.008.244-.268.584-.402 1.02-.402.36 0 .658.116.894.348.24.228.36.524.36.888 0 .116-.01.224-.03.324h-2.076c.02.252.114.45.282.594.172.144.392.216.66.216.352 0 .628-.094.828-.282zm-.942-1.638a.879.879 0 00-.588.198.802.802 0 00-.27.522h1.638c-.012-.224-.088-.4-.228-.528-.136-.128-.32-.192-.552-.192zm3.97 1.572l.228.348c-.232.3-.578.45-1.038.45-.432 0-.782-.128-1.05-.384-.264-.256-.396-.598-.396-1.026 0-.396.13-.73.39-1.002s.586-.408.978-.408c.472 0 .826.118 1.062.354l-.222.378a1.111 1.111 0 00-.774-.282.894.894 0 00-.654.276.927.927 0 00-.27.684c0 .292.092.524.276.696a.98.98 0 00.696.264c.312 0 .57-.116.774-.348zm2.588-1.962h.63l-1.182 1.29 1.296 1.41h-.666l-1.218-1.38 1.14-1.32zm-1.254 2.7h-.48v-2.7h.48v2.7zm4.363-2.7h.546l-1.08 2.7c-.196.476-.366.792-.51.948-.152.168-.326.252-.522.252a.892.892 0 01-.51-.168l.156-.366c.128.06.228.09.3.09a.398.398 0 00.3-.144c.092-.096.184-.252.276-.468l.06-.144-1.296-2.7h.576l.792 1.716c.016.028.07.164.162.408.036-.132.078-.27.126-.414l.624-1.71zm1.55 2.7h-.51v-2.7h.51v1.08h.588c.056-.344.206-.62.45-.828.248-.208.552-.312.912-.312.424 0 .764.134 1.02.402.26.268.39.604.39 1.008s-.132.742-.396 1.014c-.26.264-.598.396-1.014.396-.38 0-.692-.11-.936-.33a1.347 1.347 0 01-.432-.87h-.582V134zm1.35-2.022c-.16.172-.24.396-.24.672s.08.5.24.672c.16.172.366.258.618.258a.796.796 0 00.612-.252c.16-.172.24-.398.24-.678 0-.276-.078-.5-.234-.672a.794.794 0 00-.618-.258.806.806 0 00-.618.258zm2.566 1.698c0-.084.032-.158.096-.222a.346.346 0 01.246-.096c.084 0 .158.032.222.096a.305.305 0 01.096.222c0 .096-.03.178-.09.246a.299.299 0 01-.228.096.346.346 0 01-.246-.096.346.346 0 01-.096-.246z" fill="#848484"/><path d="M119.16 126h-12.81v-1.95c2.72-2.66 4.72-4.78 6-6.36 2.26-2.84 3.39-5.22 3.39-7.14 0-1-.31-1.81-.93-2.43-.6-.64-1.43-.96-2.49-.96-.92 0-1.73.3-2.43.9-.68.58-1.12 1.4-1.32 2.46l-2.04-.84c.24-1.5.91-2.69 2.01-3.57 1.12-.9 2.45-1.35 3.99-1.35 1.84 0 3.26.53 4.26 1.59s1.5 2.3 1.5 3.72c0 2.7-1.29 5.57-3.87 8.61-1.16 1.36-2.09 2.38-2.79 3.06-.6.6-1.32 1.27-2.16 2.01h9.69V126z" fill="#D9D9D9"/><path d="M199.15 143.8a.25.25 0 00-.3.4l.3-.4zm81.782 61.402a1.333 1.333 0 102.135 1.596 1.333 1.333 0 00-2.135-1.596zM198.85 144.2l83 62 .3-.4-83-62-.3.4z" fill="#525252"/></g></svg>