<svg width="276" height="565" fill="none" xmlns="http://www.w3.org/2000/svg"><path d="M113.915.851l159.28 90.158-99.93 55.401-159.28-90.158 99.93-55.4z" fill="#fff" stroke="#26144D" stroke-width="1.5" stroke-linecap="round" stroke-linejoin="round"/><path fill-rule="evenodd" clip-rule="evenodd" d="M173.266 146.41v411.394l.399-.228V355.367l-.055-.032.055-.032v-.023l.02.012 100.814-58.21-1.303-206.073-99.93 55.401z" fill="#D8D8D8"/><path d="M173.266 557.804h-.75a.75.75 0 001.121.652l-.371-.652zm0-411.394l-.364-.656a.75.75 0 00-.386.656h.75zm.399 411.166l.371.652a.75.75 0 00.379-.652h-.75zm0-202.209h.75a.75.75 0 00-.375-.65l-.375.65zm-.055-.032l-.375-.649a.75.75 0 00.001 1.299l.374-.65zm.055-.032l.375.65a.75.75 0 00.375-.65h-.75zm0-.023l.375-.649a.75.75 0 00-1.125.649h.75zm.02.012l-.375.649a.75.75 0 00.75 0l-.375-.649zm100.814-58.21l.375.65a.749.749 0 00.375-.654l-.75.004zm-1.303-206.073l.75-.005a.75.75 0 00-1.114-.65l.364.655zm-99.18 466.795V146.41h-1.5v411.394h1.5zm-.722-.879l-.4.227.743 1.304.399-.228-.742-1.303zm-.379-201.558v202.209h1.5V355.367h-1.5zm.321.618l.054.031.75-1.299-.055-.032-.749 1.3zm.054-1.331l-.055.032.75 1.298.055-.031-.75-1.299zm-.375.626v.023h1.5v-.023h-1.5zm1.145-.638l-.02-.011-.75 1.299.02.011.75-1.299zm100.064-58.209L173.31 354.642l.75 1.299 100.814-58.209-.75-1.299zm-1.678-205.419l1.303 206.073 1.5-.009-1.303-206.073-1.5.009zm-98.817 56.052l99.93-55.4-.727-1.313-99.93 55.401.727 1.312z" fill="#26144D"/><path d="M165.116 151.411L22.133 70.493V437.09l142.983 83.61V151.411z" fill="#248CFF" stroke="#26144D" stroke-width="1.5" stroke-linecap="round" stroke-linejoin="round"/><path d="M14.057 316.049l159.281 90.158-10.532 6.948-159.28-90.158 10.531-6.948zm159.318 241.209l-10.568 6.894V413.155l10.531-6.948.037 151.051z" fill="#fff" stroke="#26144D" stroke-width="1.5" stroke-linecap="round" stroke-linejoin="round"/><path fill-rule="evenodd" clip-rule="evenodd" d="M162.806 564.006V413.154L3.526 322.997v140.89c7.803 3.268 15.28 6.917 22.354 10.947l17.283-10.025 63.57 36.885v9.494l-3.853 2.236v16.853l59.926 33.729zm-67.585-46.139h.001v8.1-8.1z" fill="#E9E9E9"/><path d="M162.806 413.154h.75a.749.749 0 00-.38-.652l-.37.652zm0 150.852l-.367.653a.747.747 0 001.117-.653h-.75zM3.526 322.997l.37-.653a.75.75 0 00-1.12.653h.75zm0 140.89h-.75a.75.75 0 00.46.692l.29-.692zm22.354 10.947l-.372.651a.748.748 0 00.748-.003l-.376-.648zm17.283-10.025l.376-.649a.75.75 0 00-.753 0l.377.649zm63.57 36.885h.75a.75.75 0 00-.374-.649l-.376.649zm0 9.494l.376.649a.753.753 0 00.374-.649h-.75zm-3.853 2.236l-.377-.649a.75.75 0 00-.373.649h.75zm0 16.853h-.75c0 .271.146.521.382.653l.368-.653zm-7.658-12.41h.75a.75.75 0 00-1.12-.652l.37.652zm0 0l-.37-.652a.75.75 0 00-.38.652h.75zm0 8.1l-.37.652a.75.75 0 001.12-.652h-.75zm0-.001h-.75c0 .27.145.519.38.653l.37-.653zm66.834-112.812v150.852h1.5V413.154h-1.5zm-158.9-89.505l159.281 90.158.739-1.305-159.28-90.158-.74 1.305zm1.12 140.238v-140.89h-1.5v140.89h1.5zm-1.04.692c7.777 3.257 15.227 6.893 22.272 10.906l.743-1.303c-7.102-4.046-14.607-7.708-22.435-10.986l-.58 1.383zm39.55-.419l-17.283 10.025.753 1.297 17.283-10.025-.753-1.297zm64.323 36.885l-63.57-36.885-.753 1.297 63.57 36.886.753-1.298zm.374 10.143v-9.494h-1.5v9.494h1.5zm-4.227 2.884l3.853-2.235-.753-1.298-3.853 2.236.753 1.297zm.374 16.205v-16.853h-1.5v16.853h1.5zm59.544 33.075l-59.926-33.729-.736 1.307 59.927 33.729.735-1.307zm-68.322-46.137l.74 1.304-.74-1.304zm1.12 8.752v-8.1h-1.5v8.1h1.5zm-1.12.652l.74-1.304v-.001l-.74 1.305zm-.38-8.752v8.099h1.5v-8.099h-1.5z" fill="#26144D"/><path d="M13.913 59.925l139.036 90.122-11.168 5.056L1.454 64.945l12.459-5.02z" fill="#fff" stroke="#26144D" stroke-width="1.5" stroke-linecap="round" stroke-linejoin="round"/><path d="M152.985 403.533l-11.204 6.111V155.121l11.168-5.074.036 253.486z" fill="#D8D8D8" stroke="#26144D" stroke-width="1.5" stroke-linecap="round" stroke-linejoin="round"/><path d="M141.781 155.121v254.032L1.435 319.013V64.945l140.346 90.176z" fill="#E9E9E9" stroke="#26144D" stroke-width="1.5" stroke-linecap="round" stroke-linejoin="round"/><path d="M9.549 308.1V86.752m.509 250.649v120.786" stroke="#fff" stroke-width="1.5" stroke-linecap="round" stroke-linejoin="round"/><path d="M123.758 237.349v128.352" stroke="#26144D" stroke-width="1.5" stroke-linecap="round" stroke-linejoin="round"/></svg>