<svg width="75" height="94" fill="none" xmlns="http://www.w3.org/2000/svg"><path d="M39.092 90.939V79.208l-.673.145c-.127-.11-.254-.2-.418-.29-1.437-.838-3.783-.838-5.22 0a4.41 4.41 0 00-.528.381l-.546-.255v11.64c0 .565.346 1.11 1.092 1.547 1.437.836 3.783.836 5.22 0 .673-.4 1.037-.91 1.073-1.419v-.018z" fill="#7D7D7B" stroke="#26144D" stroke-width="1.5" stroke-linecap="round" stroke-linejoin="round"/><path d="M38.02 80.754c-1.438.836-3.766.818-5.221 0-1.437-.837-1.455-2.183 0-3.02 1.437-.836 3.765-.818 5.22 0 1.437.837 1.455 2.183 0 3.02z" fill="#fff" stroke="#26144D" stroke-width="1.5" stroke-linecap="round" stroke-linejoin="round"/><path d="M61.973 83.391V71.66l-.673.145a2.356 2.356 0 00-.418-.29c-1.437-.837-3.783-.837-5.22 0-.2.126-.382.254-.528.381l-.545-.255v11.64c0 .565.345 1.11 1.09 1.547 1.438.836 3.784.836 5.221 0 .673-.4 1.037-.91 1.073-1.419v-.018z" fill="#7D7D7B" stroke="#26144D" stroke-width="1.5" stroke-linecap="round" stroke-linejoin="round"/><path d="M60.9 73.187c-1.437.837-3.765.819-5.22 0-1.437-.836-1.456-2.182 0-3.019 1.437-.837 3.765-.818 5.22 0 1.437.837 1.455 2.183 0 3.02z" fill="#fff" stroke="#26144D" stroke-width="1.5" stroke-linecap="round" stroke-linejoin="round"/><path d="M16.902 83.391V71.66l-.673.145a2.402 2.402 0 00-.419-.29c-1.437-.837-3.783-.837-5.22 0a4.41 4.41 0 00-.527.381l-.546-.255v11.64c0 .565.345 1.11 1.091 1.547 1.437.836 3.784.836 5.22 0 .673-.4 1.037-.91 1.074-1.419v-.018z" fill="#7D7D7B" stroke="#26144D" stroke-width="1.5" stroke-linecap="round" stroke-linejoin="round"/><path d="M15.828 73.187c-1.437.837-3.765.819-5.22 0-1.437-.836-1.455-2.182 0-3.019 1.437-.837 3.765-.818 5.22 0 1.437.837 1.455 2.183 0 3.02zM64.03 3.327L68.615 6l-7.366.491 2.783-3.164zm3.001 19.988c-.163 6.766-2.146 12.64-5.911 17.424-2.801 3.565-5.693 5.384-5.966 5.566v1.855c-2.201 1.928-3.82 2.91-4.11 3.074v-7.33c.272-.164 3.146-1.983 5.947-5.566 3.765-4.783 5.748-10.658 5.911-17.424.091-3.565-.4-6.22-1.473-7.93.819.037 1.637.237 2.365.637 2.255 1.291 3.346 4.547 3.219 9.694h.018z" fill="#fff" stroke="#26144D" stroke-width="1.5" stroke-linecap="round" stroke-linejoin="round"/><path d="M69.287 17.423c-.291 12.004-5.202 20.588-9.295 25.663a39.94 39.94 0 01-4.838 5.056v-1.855c.273-.182 3.165-2 5.966-5.566 3.765-4.801 5.748-10.658 5.911-17.424.128-5.147-.964-8.402-3.219-9.694-.728-.418-1.546-.6-2.365-.636-.473-.782-1.055-1.365-1.764-1.765-1.4-.8-3.074-.764-4.565-.436-2.183.455-3.984 1.528-4.02 1.546l-.182-7.22c.327-.2 7.912-4.748 13.296-1.674a7.588 7.588 0 011.928 1.564c2.237 2.474 3.292 6.639 3.165 12.44h-.018z" fill="#fff" stroke="#26144D" stroke-width="1.5" stroke-linecap="round" stroke-linejoin="round"/><path d="M73.417 19.823c-.291 12.004-5.202 20.59-9.295 25.645-4.329 5.366-8.494 7.876-8.949 8.13V46.27c.273-.182 3.165-2.001 5.966-5.566 3.765-4.802 5.748-10.658 5.911-17.424.128-5.147-.964-8.403-3.219-9.694-.728-.419-1.546-.6-2.364-.637-3.002-.145-6.185 1.746-6.24 1.764l-.09-3.946-.091-3.292c.273-.164 6.057-3.62 11.095-2.51a7.73 7.73 0 012.2.836c3.548 2.02 5.258 6.73 5.076 14.005v.018z" fill="#7D7D7B" stroke="#26144D" stroke-width="1.5" stroke-linecap="round" stroke-linejoin="round"/><path d="M50.916 5.11l4.129 2.382.164 7.239-4.111-2.401-.182-7.22zm4.238 41.195l.018 7.312-4.129-2.401v-7.33l4.11 2.42z" fill="#fff" stroke="#26144D" stroke-width="1.5" stroke-linecap="round" stroke-linejoin="round"/><path d="M62.903 71.678c.054 4.038-2.583 8.057-7.913 11.149-10.604 6.111-27.829 6.093-38.506-.055-5.529-3.2-8.203-7.42-8.003-11.567-.6-4.02-4.51-32.611 4.693-58.474H58.12c9.95 27.9 4.765 58.965 4.765 58.965l.019-.018z" fill="#fff" stroke="#26144D" stroke-width="1.5" stroke-linecap="round" stroke-linejoin="round"/><path d="M51.826 24.116c-8.858 5.111-23.264 5.093-32.177-.054-8.912-5.147-8.967-13.46-.109-18.57 8.858-5.11 23.264-5.093 32.176.054 8.913 5.148 8.968 13.46.11 18.57z" fill="#fff" stroke="#26144D" stroke-width="1.5" stroke-linecap="round" stroke-linejoin="round"/><path d="M51.917 5.437c8.894 5.147 8.858 13.496-.11 18.661-8.967 5.165-23.427 5.202-32.34.055-8.894-5.148-8.857-13.496.11-18.661C28.526.326 43.004.29 51.917 5.437z" fill="#248CFF" stroke="#26144D" stroke-width="1.5" stroke-linecap="round" stroke-linejoin="round"/><path d="M25.688 32.3S19.94 72.843 14.702 69.64c-5.875-3.6-13.26-28.99-13.26-28.99" fill="#E9E9E9"/><path d="M25.688 32.3S19.94 72.843 14.702 69.64c-5.875-3.6-13.26-28.99-13.26-28.99" stroke="#26144D" stroke-width="1.5" stroke-linecap="round" stroke-linejoin="round"/><path d="M25.688 32.301S4.28 42.341 1.424 40.631c-2.856-1.71 11.568-15.169 11.568-15.169l12.696 6.82v.02z" fill="#7D7D7B" stroke="#26144D" stroke-width="1.5" stroke-linecap="round" stroke-linejoin="round"/><path d="M46.003 8.839c5.657 3.255 5.62 8.566-.072 11.858-5.694 3.292-14.879 3.31-20.536.037-5.657-3.256-5.62-8.567.073-11.859 5.693-3.292 14.878-3.31 20.535-.036z" stroke="#fff" stroke-width="1.5" stroke-linecap="round" stroke-linejoin="round"/></svg>