<svg width="1440" height="1262" fill="none" xmlns="http://www.w3.org/2000/svg"><path d="M750.766 1226.04L.127 805.023 688.342 419.02 1439 840.035 750.766 1226.04z" fill="#E9E9E9" stroke="#26144D" stroke-width="1.5" stroke-linecap="round" stroke-linejoin="round"/><path d="M1439 875.757l-.04-35.448L751.004 1225.8l.036 35.43L1439 875.757z" fill="#B2B4B3" stroke="#26144D" stroke-width="1.5" stroke-linecap="round" stroke-linejoin="round"/><path d="M750.639 1261.07L0 840.035v-35.43l750.639 421.015v35.45z" fill="#7D7D7B" stroke="#26144D" stroke-width="1.5" stroke-linecap="round" stroke-linejoin="round"/><path d="M860.665 821.029c75.029 43.305 75.448 113.566.891 156.908-74.538 43.323-195.84 43.283-270.87 0-75.065-43.324-75.447-113.566-.909-156.89 74.575-43.324 195.822-43.324 270.888 0v-.018zm-293.807 159.4l63.588 36.871-63.588 36.88-63.571-36.88 63.571-36.871zm309.302 14.404l63.571 36.867-63.571 36.89-63.588-36.89 63.588-36.867z" fill="#E9E9E9"/><path d="M874.633 788.654l63.589 36.867-63.589 36.886-63.57-36.886 63.57-36.867z" fill="#E9E9E9"/><path d="M836.327 673.433L620.879 549.209V346.631l215.448 124.224v202.578z" fill="#E40133" stroke="#26144D" stroke-width="1.5" stroke-linecap="round" stroke-linejoin="round"/><path d="M836.636 470.728L621.188 346.522l101.585-58.656L938.222 412.09l-101.586 58.638z" fill="#E9E9E9" stroke="#26144D" stroke-width="1.5" stroke-linecap="round" stroke-linejoin="round"/><path d="M836.472 673.397l101.585-58.657V412.163l-101.585 58.638v202.596z" fill="#D8D8D8" stroke="#26144D" stroke-width="1.5" stroke-linecap="round" stroke-linejoin="round"/><path d="M668.133 440.354l167.611 96.76" stroke="#26144D" stroke-width="1.5" stroke-linecap="round" stroke-linejoin="round"/><path d="M789.653 481.768l-22.699-13.095c-1.492-.873-2.711-3.183-2.711-5.184v-1.019c0-2 1.219-2.91 2.711-2.055l22.699 13.096c1.492.873 2.71 3.182 2.71 5.183v1.019c0 2-1.218 2.91-2.71 2.055z" fill="#fff" stroke="#26144D" stroke-width="1.5" stroke-linecap="round" stroke-linejoin="round"/><path d="M668.133 504.521l167.611 96.76" stroke="#26144D" stroke-width="1.5" stroke-linecap="round" stroke-linejoin="round"/><path d="M789.653 545.935l-22.699-13.095c-1.492-.873-2.711-3.183-2.711-5.184v-1.019c0-2 1.219-2.91 2.711-2.055l22.699 13.096c1.492.873 2.71 3.182 2.71 5.183v1.019c0 2-1.218 2.91-2.71 2.055zm0 66.205l-22.699-13.096c-1.492-.873-2.711-3.183-2.711-5.183v-1.019c0-2.001 1.219-2.91 2.711-2.055l22.699 13.095c1.492.873 2.71 3.183 2.71 5.184v1.018c0 2.001-1.218 2.91-2.71 2.056z" fill="#fff" stroke="#26144D" stroke-width="1.5" stroke-linecap="round" stroke-linejoin="round"/><path d="M554.854 705.389l168.702-97.379V405.433l-168.702 97.378v202.578z" fill="#E40133" stroke="#26144D" stroke-width="1.5" stroke-linecap="round" stroke-linejoin="round"/><path d="M554.545 502.702l168.685-97.397-101.567-58.638-168.703 97.378 101.585 58.657z" fill="#E9E9E9" stroke="#26144D" stroke-width="1.5" stroke-linecap="round" stroke-linejoin="round"/><path d="M554.71 705.352l-101.585-58.638V444.136l101.585 58.638v202.578z" fill="#fff" stroke="#26144D" stroke-width="1.5" stroke-linecap="round" stroke-linejoin="round"/><path d="M723.048 472.31l-167.611 96.76" stroke="#26144D" stroke-width="1.5" stroke-linecap="round" stroke-linejoin="round"/><path d="M626.301 494.644l22.7-13.095c1.491-.873 2.71-3.183 2.71-5.184v-1.018c0-2.001-1.219-2.91-2.71-2.055l-22.7 13.095c-1.491.873-2.71 3.183-2.71 5.184v1.018c0 2.001 1.219 2.91 2.71 2.055z" fill="#fff" stroke="#26144D" stroke-width="1.5" stroke-linecap="round" stroke-linejoin="round"/><path d="M723.048 536.495l-167.611 96.76" stroke="#26144D" stroke-width="1.5" stroke-linecap="round" stroke-linejoin="round"/><path d="M626.301 562.468l22.7-13.096c1.491-.873 2.71-3.183 2.71-5.183v-1.019c0-2.001-1.219-2.91-2.71-2.055l-22.7 13.095c-1.491.873-2.71 3.183-2.71 5.184v1.018c0 2.001 1.219 2.91 2.71 2.056zm0 65.585l22.7-13.095c1.491-.873 2.71-3.183 2.71-5.184v-1.018c0-2.001-1.219-2.91-2.71-2.056l-22.7 13.096c-1.491.873-2.71 3.183-2.71 5.183v1.019c0 2.001 1.219 2.91 2.71 2.055z" fill="#fff" stroke="#26144D" stroke-width="1.5" stroke-linecap="round" stroke-linejoin="round"/><g filter="url(#filter0_d_813_15178)"><path d="M605.092 397.939v-11.731l-.673.145a2.412 2.412 0 00-.418-.291c-1.437-.837-3.783-.837-5.22 0-.2.127-.382.255-.528.382l-.545-.255v11.641c0 .564.345 1.109 1.091 1.546 1.437.836 3.783.836 5.22 0 .673-.4 1.037-.91 1.073-1.419v-.018z" fill="#7D7D7B" stroke="#26144D" stroke-width="1.5" stroke-linecap="round" stroke-linejoin="round"/><path d="M604.019 387.754c-1.437.836-3.765.818-5.22 0-1.437-.837-1.455-2.183 0-3.02 1.437-.836 3.765-.818 5.22 0 1.437.837 1.455 2.183 0 3.02z" fill="#fff" stroke="#26144D" stroke-width="1.5" stroke-linecap="round" stroke-linejoin="round"/><path d="M627.973 390.391V378.66l-.673.145a2.412 2.412 0 00-.418-.291c-1.437-.836-3.783-.836-5.22 0-.2.128-.382.255-.528.382l-.545-.254v11.64c0 .564.345 1.109 1.091 1.546 1.437.836 3.783.836 5.22 0 .673-.4 1.037-.91 1.073-1.419v-.018z" fill="#7D7D7B" stroke="#26144D" stroke-width="1.5" stroke-linecap="round" stroke-linejoin="round"/><path d="M626.9 380.187c-1.437.837-3.765.819-5.22 0-1.437-.836-1.455-2.182 0-3.019 1.437-.837 3.765-.818 5.22 0 1.437.837 1.455 2.183 0 3.019z" fill="#fff" stroke="#26144D" stroke-width="1.5" stroke-linecap="round" stroke-linejoin="round"/><path d="M582.902 390.391V378.66l-.673.145a2.46 2.46 0 00-.419-.291c-1.437-.836-3.783-.836-5.22 0-.2.128-.382.255-.528.382l-.545-.254v11.64c0 .564.345 1.109 1.091 1.546 1.437.836 3.783.836 5.22 0 .673-.4 1.037-.91 1.074-1.419v-.018z" fill="#7D7D7B" stroke="#26144D" stroke-width="1.5" stroke-linecap="round" stroke-linejoin="round"/><path d="M581.828 380.187c-1.437.837-3.765.819-5.22 0-1.437-.836-1.455-2.182 0-3.019 1.437-.837 3.765-.818 5.22 0 1.437.837 1.455 2.183 0 3.019zm48.203-69.86l4.583 2.673-7.366.491 2.783-3.164zm3 19.988c-.164 6.766-2.146 12.641-5.911 17.424-2.801 3.565-5.693 5.384-5.966 5.566v1.855c-2.201 1.928-3.82 2.91-4.111 3.074v-7.33c.273-.164 3.147-1.983 5.948-5.566 3.765-4.783 5.748-10.658 5.911-17.424.091-3.565-.4-6.22-1.473-7.93.819.037 1.637.237 2.365.637 2.255 1.291 3.346 4.547 3.219 9.694h.018z" fill="#fff" stroke="#26144D" stroke-width="1.5" stroke-linecap="round" stroke-linejoin="round"/><path d="M635.287 324.423c-.291 12.004-5.202 20.588-9.295 25.663a39.871 39.871 0 01-4.838 5.056v-1.855c.273-.182 3.165-2.001 5.966-5.566 3.765-4.801 5.748-10.658 5.911-17.424.128-5.147-.964-8.402-3.219-9.694-.728-.418-1.546-.6-2.365-.636-.473-.782-1.055-1.364-1.764-1.765-1.401-.8-3.074-.764-4.565-.436-2.183.455-3.984 1.528-4.02 1.546l-.182-7.221c.327-.2 7.912-4.747 13.296-1.673a7.587 7.587 0 011.928 1.564c2.237 2.474 3.292 6.639 3.165 12.441h-.018z" fill="#fff" stroke="#26144D" stroke-width="1.5" stroke-linecap="round" stroke-linejoin="round"/><path d="M639.417 326.823c-.291 12.004-5.202 20.589-9.295 25.645-4.329 5.366-8.494 7.876-8.949 8.13v-7.329c.273-.182 3.165-2.001 5.966-5.566 3.765-4.801 5.748-10.658 5.911-17.424.128-5.147-.964-8.403-3.219-9.694-.728-.418-1.546-.6-2.365-.637-3.001-.145-6.184 1.746-6.238 1.765l-.091-3.947-.091-3.292c.273-.164 6.057-3.62 11.095-2.51a7.709 7.709 0 012.201.836c3.547 2.019 5.257 6.73 5.075 14.005v.018z" fill="#7D7D7B" stroke="#26144D" stroke-width="1.5" stroke-linecap="round" stroke-linejoin="round"/><path d="M616.916 312.109l4.129 2.383.164 7.239-4.111-2.401-.182-7.221zm4.238 41.196l.018 7.312-4.129-2.401v-7.33l4.111 2.419z" fill="#fff" stroke="#26144D" stroke-width="1.5" stroke-linecap="round" stroke-linejoin="round"/><path d="M628.903 378.678c.054 4.037-2.583 8.057-7.913 11.149-10.604 6.111-27.829 6.093-38.506-.055-5.529-3.201-8.203-7.42-8.003-11.567-.6-4.02-4.511-32.611 4.693-58.475h44.945c9.949 27.901 4.765 58.966 4.765 58.966l.019-.018z" fill="#fff" stroke="#26144D" stroke-width="1.5" stroke-linecap="round" stroke-linejoin="round"/><path d="M617.826 331.116c-8.858 5.111-23.264 5.093-32.177-.054-8.912-5.147-8.967-13.459-.109-18.57 8.858-5.111 23.264-5.093 32.176.054 8.913 5.148 8.968 13.46.11 18.57z" fill="#fff" stroke="#26144D" stroke-width="1.5" stroke-linecap="round" stroke-linejoin="round"/><path d="M617.917 312.437c8.894 5.147 8.858 13.496-.109 18.661-8.968 5.165-23.428 5.202-32.34.055-8.895-5.148-8.858-13.496.109-18.661 8.949-5.166 23.427-5.202 32.34-.055z" fill="#248CFF" stroke="#26144D" stroke-width="1.5" stroke-linecap="round" stroke-linejoin="round"/><path d="M591.688 339.301s-5.748 40.541-10.986 37.34c-5.875-3.602-13.26-28.992-13.26-28.992" fill="#E9E9E9"/><path d="M591.688 339.301s-5.748 40.541-10.986 37.34c-5.875-3.602-13.26-28.992-13.26-28.992" stroke="#26144D" stroke-width="1.5" stroke-linecap="round" stroke-linejoin="round"/><path d="M591.688 339.301s-21.408 10.04-24.264 8.33c-2.856-1.709 11.568-15.169 11.568-15.169l12.696 6.821v.018z" fill="#7D7D7B" stroke="#26144D" stroke-width="1.5" stroke-linecap="round" stroke-linejoin="round"/></g><path d="M812.136 348.831l-12.769-7.402-14.405-30.265 13.587 9.367 13.587 28.3z" fill="#fff"/><path d="M812.136 348.831l-12.769-7.402-14.405-30.265 13.587 9.367 13.587 28.3z" stroke="#26144D" stroke-width="1.5" stroke-linecap="round" stroke-linejoin="round"/><path d="M812.137 348.832l6.403-2.856-15.097-33.011-27.065 12.932v4.819l22.172-10.185 13.587 28.301z" fill="#fff"/><path d="M812.137 348.832l6.403-2.856-15.097-33.011-27.065 12.932v4.819l22.172-10.185 13.587 28.301z" stroke="#26144D" stroke-width="1.5" stroke-linecap="round" stroke-linejoin="round"/><path d="M803.441 312.965l-12.932-7.476-26.301 13.987 12.168 6.42 27.065-12.931z" fill="#fff"/><path d="M803.441 312.965l-12.932-7.476-26.301 13.987 12.168 6.42 27.065-12.931z" stroke="#26144D" stroke-width="1.5" stroke-linecap="round" stroke-linejoin="round"/><path d="M776.376 330.716v-4.82l-12.168-6.42v5.293l12.168 5.947z" fill="#fff"/><path d="M776.376 330.716v-4.82l-12.168-6.42v5.293l12.168 5.947z" stroke="#26144D" stroke-width="1.5" stroke-linecap="round" stroke-linejoin="round"/><path d="M851.297 382.079l-85.142-49.38a15.927 15.927 0 00-15.788-.109l-51.948 29.246c-2.783 1.564-2.801 5.565-.054 7.166l85.142 49.38a15.927 15.927 0 0015.788.109l51.948-29.246c2.783-1.564 2.801-5.565.054-7.166z" fill="#fff"/><path d="M851.297 382.079l-85.142-49.38a15.927 15.927 0 00-15.788-.109l-51.948 29.246c-2.783 1.564-2.801 5.565-.054 7.166l85.142 49.38a15.927 15.927 0 0015.788.109l51.948-29.246c2.783-1.564 2.801-5.565.054-7.166z" stroke="#26144D" stroke-width="1.5" stroke-linecap="round" stroke-linejoin="round"/><path d="M783.506 418.4l-85.142-49.38c-2.765-1.601-2.747-5.602.054-7.166l51.948-29.246a15.88 15.88 0 0115.788.109l85.142 49.38c2.765 1.601 2.747 5.602-.054 7.166l-51.948 29.246a15.88 15.88 0 01-15.788-.109z" fill="#B2B4B3"/><path d="M783.506 418.4l-85.142-49.38c-2.765-1.601-2.747-5.602.054-7.166l51.948-29.246a15.88 15.88 0 0115.788.109l85.142 49.38c2.765 1.601 2.747 5.602-.054 7.166l-51.948 29.246a15.88 15.88 0 01-15.788-.109z" stroke="#26144D" stroke-width="1.5" stroke-linecap="round" stroke-linejoin="round"/><path d="M698.364 369.02l15.824 9.185 36.178-20.37a15.882 15.882 0 0115.788.109l69.318 40.195 15.788-8.875c2.783-1.564 2.801-5.566.055-7.166l-85.142-49.381a15.931 15.931 0 00-15.789-.109l-51.947 29.246c-2.783 1.565-2.801 5.566-.055 7.166h-.018z" fill="#7D7D7B" stroke="#26144D" stroke-width="1.5" stroke-linecap="round" stroke-linejoin="round"/><path d="M789.908 385.407c0 2.674-3.383 4.857-7.53 4.857s-7.531-2.183-7.531-4.857c0-2.673 3.384-4.856 7.531-4.856s7.53 2.183 7.53 4.856z" fill="#fff"/><path d="M789.908 385.407c0 2.674-3.383 4.857-7.53 4.857s-7.531-2.183-7.531-4.857c0-2.673 3.384-4.856 7.531-4.856s7.53 2.183 7.53 4.856z" stroke="#26144D" stroke-width="1.5" stroke-linecap="round" stroke-linejoin="round"/><path d="M835.344 284.846L643.979 174.372V42.619l191.365 110.473v131.754z" fill="#E40133" stroke="#26144D" stroke-width="1.5" stroke-linecap="round" stroke-linejoin="round"/><path d="M835.344 153.42L643.979 42.946 717.044.768l191.347 110.474-73.047 42.178z" fill="#fff" stroke="#26144D" stroke-width="1.5" stroke-linecap="round" stroke-linejoin="round"/><path d="M908.537 242.668l-73.065 42.178V153.092l73.065-42.177v131.753z" fill="#D8D8D8" stroke="#26144D" stroke-width="1.5" stroke-linecap="round" stroke-linejoin="round"/><path d="M734.778 95.036V225.5" stroke="#26144D" stroke-width="1.5" stroke-linecap="round" stroke-linejoin="round"/><path d="M749.293 227.081l-2.073-1.2c-1.073-.619-1.946-2.292-1.946-3.729v-19.279c0-1.437.873-2.092 1.946-1.473l2.073 1.2c1.074.619 1.947 2.292 1.947 3.729v19.279c0 1.437-.873 2.092-1.947 1.473zm-25.247-14.896l-2.073-1.2c-1.073-.619-1.946-2.292-1.946-3.729v-19.279c0-1.437.873-2.092 1.946-1.473l2.073 1.2c1.074.619 1.947 2.292 1.947 3.729v19.279c0 1.437-.873 2.092-1.947 1.473z" fill="#fff" stroke="#26144D" stroke-width="1.5" stroke-linecap="round" stroke-linejoin="round"/><g filter="url(#filter1_d_813_15178)" stroke="#26144D" stroke-width="1.5" stroke-linecap="round" stroke-linejoin="round"><path d="M946.915 190.851l159.285 90.158-99.93 55.401-159.285-90.158 99.93-55.401z" fill="#fff"/><path d="M1006.27 336.41v411.394l102.51-58.402-2.58-408.393-99.93 55.401z" fill="#D8D8D8"/><path d="M1006.27 336.41l-159.285-90.158v408.393l159.285 93.159V336.41z" fill="#fff"/><path d="M998.116 341.411l-142.983-80.918V627.09l142.983 83.61V341.411z" fill="#248CFF"/><path d="M847.058 506.049l159.282 90.158-10.533 6.948-159.281-90.158 10.532-6.948z" fill="#fff"/><path d="M1006.37 747.258l-10.563 6.894V603.155l10.533-6.948.03 151.051z" fill="#fff"/><path d="M995.807 603.154v150.852l-159.281-89.649v-151.36l159.281 90.157z" fill="#E9E9E9"/><path d="M846.913 249.925l139.037 90.122-11.168 5.056-140.328-90.158 12.459-5.02z" fill="#fff"/><path d="M985.985 593.533l-11.204 6.111V345.121l11.168-5.074.036 253.486z" fill="#D8D8D8"/><path d="M974.781 345.121v254.032l-140.346-90.14V254.945l140.346 90.176z" fill="#E9E9E9"/></g><g filter="url(#filter2_d_813_15178)" stroke="#26144D" stroke-width="1.5" stroke-linecap="round" stroke-linejoin="round"><path d="M577.48 463.598v5.129l-35.832-21.862v-5.129l28.466 17.369 7.366 4.493z" fill="#565656"/><path d="M594.905 452.867l-17.425 10.731-7.366-4.492 17.097-10.931 7.694 4.692z" fill="#565656"/><path d="M587.212 448.174l-17.098 10.931-28.466-17.369 17.425-10.713 28.139 17.151z" fill="#248CFF"/><path d="M594.906 452.867v5.129l-17.425 10.731v-5.129l17.425-10.731z" fill="#565656"/></g><path d="M1263.24 419.765l-78.78-45.47V244.669l78.78 45.488v129.608z" fill="#D8D8D8" stroke="#26144D" stroke-width="1.5" stroke-linecap="round" stroke-linejoin="round"/><path d="M1254.8 403.996l-61.91-35.758V259.656l61.91 35.739v108.601z" fill="#B2B4B3" stroke="#26144D" stroke-width="1.5" stroke-linecap="round" stroke-linejoin="round"/><path d="M1006.67 748.385l111.09 64.131V609.411l-111.09-64.131v203.105z" fill="#E40133" stroke="#26144D" stroke-width="1.5" stroke-linecap="round" stroke-linejoin="round"/><path d="M1117.65 812.662l101.84-58.802V550.755l-101.84 58.783v203.124zm.06-203.196l-111.1-64.131 101.84-58.802 111.1 64.149-101.84 58.784z" fill="#fff" stroke="#26144D" stroke-width="1.5" stroke-linecap="round" stroke-linejoin="round"/><path d="M1006.63 555.466l111.1 64.131m-111.1-5.239l111.1 64.149m-111.1 2.729l111.1 64.149" stroke="#26144D" stroke-width="1.5" stroke-linecap="round" stroke-linejoin="round"/><path d="M1117.33 812.552l132.16 75.299V685.255l-132.16-75.28v202.577z" fill="#fff" stroke="#26144D" stroke-width="1.5" stroke-linecap="round" stroke-linejoin="round"/><path d="M1249.36 887.978l101.59-58.657V626.744l-101.59 58.638v202.596z" fill="#D8D8D8" stroke="#26144D" stroke-width="1.5" stroke-linecap="round" stroke-linejoin="round"/><path d="M1249.43 685.309l-132.14-75.28 101.57-58.638 132.14 75.28-101.57 58.638zm-35.48 112.093l13.62 7.857c3.02 1.746 5.46-.109 5.46-4.129v-12.84c0-4.02-2.44-8.676-5.46-10.422l-13.62-7.857v27.391z" fill="#fff" stroke="#26144D" stroke-width="1.5" stroke-linecap="round" stroke-linejoin="round"/><path d="M1188.64 686.599c3.76-2.17 3.76-9.204 0-15.711s-9.85-10.023-13.61-7.853c-3.76 2.169-3.76 9.203 0 15.71 3.76 6.507 9.85 10.023 13.61 7.854z" fill="#666" stroke="#26144D" stroke-width="1.5" stroke-linecap="round" stroke-linejoin="round"/><path d="M1152.76 668.886l-20.04-11.568c-2.06-1.182-3.73-4.365-3.73-7.111v-10.44c0-2.747 1.67-4.002 3.73-2.819l20.04 11.567c2.06 1.182 3.73 4.365 3.73 7.112v10.44c0 2.746-1.67 4.001-3.73 2.819zm77.72 42.832l-20.04-11.567c-2.06-1.183-3.73-4.365-3.73-7.112v-10.44c0-2.746 1.67-4.001 3.73-2.819l20.04 11.568c2.06 1.182 3.73 4.365 3.73 7.111v10.44c0 2.746-1.67 4.001-3.73 2.819z" fill="#D8D8D8" stroke="#26144D" stroke-width="1.5" stroke-linecap="round" stroke-linejoin="round"/><path d="M1233.52 866.716l-20.04-11.567c-2.06-1.183-3.73-4.365-3.73-7.112v-10.44c0-2.746 1.67-4.001 3.73-2.819l20.04 11.568c2.06 1.182 3.73 4.365 3.73 7.111v10.44c0 2.747-1.67 4.001-3.73 2.819z" fill="#fff" stroke="#26144D" stroke-width="1.5" stroke-linecap="round" stroke-linejoin="round"/><path d="M1184.52 677.088l-5.39-3.092V658.5l5.39 3.092v15.496z" fill="#666" stroke="#26144D" stroke-width="1.5" stroke-linecap="round" stroke-linejoin="round"/><path d="M1249.43 736.999l-132.14-75.28" stroke="#26144D" stroke-width="1.5" stroke-linecap="round" stroke-linejoin="round"/><path d="M1207.41 814.943c16.37-9.447 16.37-40.082 0-68.423-16.36-28.342-42.89-43.66-59.26-34.212-16.36 9.447-16.36 40.081 0 68.423 16.37 28.342 42.9 43.659 59.26 34.212z" fill="#D8D8D8" stroke="#26144D" stroke-width="1.5" stroke-linecap="round" stroke-linejoin="round"/><path d="M1209.69 782.015c0 2.619-.23 5.02-.69 7.22-3.04 14.933-15.84 20.043-31.19 11.186-17.63-10.167-31.91-34.903-31.91-55.237 0-16.442 9.32-24.972 22.19-22.262 3.06.618 6.33 1.891 9.72 3.838 17.6 10.185 31.88 34.902 31.88 55.255z" fill="#666" stroke="#26144D" stroke-width="1.5" stroke-linecap="round" stroke-linejoin="round"/><path d="M1208.16 783.143c0 2.619-.23 5.019-.69 7.22-4.96 2.601-11.67 2.074-19.06-2.201-15.28-8.803-27.66-30.246-27.66-47.889 0-7.384 2.18-12.931 5.82-16.223 3.05.618 6.33 1.891 9.71 3.837 17.61 10.186 31.88 34.903 31.88 55.256z" fill="#909090"/><path d="M876.165 861.369V729.361l-7.675-4.438v132.008l7.675 4.438z" fill="#fff" stroke="#26144D" stroke-width="1.5" stroke-linecap="round" stroke-linejoin="round"/><path d="M883.822 724.923v132.008l-7.658 4.438V729.361l7.658-4.438z" fill="#B2B4B3" stroke="#26144D" stroke-width="1.5" stroke-linecap="round" stroke-linejoin="round"/><path d="M928.222 830.595V698.587l-7.658-4.438v132.008l7.658 4.438z" fill="#fff" stroke="#26144D" stroke-width="1.5" stroke-linecap="round" stroke-linejoin="round"/><path d="M935.88 694.149v132.008l-7.658 4.438V698.587l7.658-4.438z" fill="#B2B4B3" stroke="#26144D" stroke-width="1.5" stroke-linecap="round" stroke-linejoin="round"/><path d="M824.09 830.595V698.587l-7.658-4.438v132.008l7.658 4.438z" fill="#fff" stroke="#26144D" stroke-width="1.5" stroke-linecap="round" stroke-linejoin="round"/><path d="M831.747 694.149v132.008l-7.658 4.438V698.587l7.658-4.438z" fill="#B2B4B3" stroke="#26144D" stroke-width="1.5" stroke-linecap="round" stroke-linejoin="round"/><path d="M876.163 738.073v-9.512l-63.589-36.867v9.494l63.589 36.885z" fill="#004DA9" stroke="#26144D" stroke-width="1.5" stroke-linecap="round" stroke-linejoin="round"/><path d="M876.163 654.809l63.57 36.885-63.57 36.867-63.589-36.867 63.589-36.885z" fill="#0069EA" stroke="#26144D" stroke-width="1.5" stroke-linecap="round" stroke-linejoin="round"/><path d="M939.733 691.694v9.494l-63.571 36.885v-9.512l63.571-36.867z" fill="#0069EA" stroke="#26144D" stroke-width="1.5" stroke-linecap="round" stroke-linejoin="round"/><path d="M823.469 691.966l53.439-30.319" stroke="#fff" stroke-width="1.5" stroke-linecap="round" stroke-linejoin="round"/><path d="M386.805 803.241l168.684-97.397V503.266l-168.684 97.379v202.596z" fill="#fff" stroke="#26144D" stroke-width="1.5" stroke-linecap="round" stroke-linejoin="round"/><path d="M386.478 600.535l168.703-97.396L453.595 444.5l-168.684 97.397 101.567 58.638z" fill="#B2B4B3" stroke="#26144D" stroke-width="1.5" stroke-linecap="round" stroke-linejoin="round"/><path d="M386.642 803.186l-101.585-58.638V541.97l101.585 58.638v202.578z" fill="#fff" stroke="#26144D" stroke-width="1.5" stroke-linecap="round" stroke-linejoin="round"/><path d="M416.926 766.391l108.442-62.603c2.692-1.546 4.857-5.711 4.857-9.294v-96.451c0-3.583-2.183-5.22-4.857-3.674l-108.442 62.603c-2.692 1.546-4.857 5.711-4.857 9.294v96.451c0 3.583 2.183 5.22 4.857 3.674z" fill="#666" stroke="#26144D" stroke-width="1.5" stroke-linecap="round" stroke-linejoin="round"/><path d="M534.994 557.027c4.108-7.116 4.103-14.81-.012-17.186-4.115-2.376-10.781 1.467-14.89 8.583-4.108 7.116-4.103 14.81.012 17.186 4.115 2.376 10.781-1.467 14.89-8.583z" fill="#7D7D7B" stroke="#26144D" stroke-width="1.5" stroke-linecap="round" stroke-linejoin="round"/><path d="M516.2 563.413l22.7-13.095c1.492-.873 2.71-3.183 2.71-5.184v-1.018c0-2.001-1.218-2.91-2.71-2.055l-22.7 13.095c-1.491.873-2.71 3.183-2.71 5.184v1.018c0 2.001 1.219 2.91 2.71 2.055zm-16.611 14.045c4.108-7.116 4.103-14.811-.012-17.186-4.115-2.376-10.781 1.467-14.89 8.583-4.108 7.116-4.103 14.81.012 17.186 4.115 2.375 10.781-1.467 14.89-8.583z" fill="#7D7D7B" stroke="#26144D" stroke-width="1.5" stroke-linecap="round" stroke-linejoin="round"/><path d="M480.806 583.857l22.7-13.095c1.491-.873 2.71-3.183 2.71-5.184v-1.018c0-2.001-1.219-2.91-2.71-2.055l-22.7 13.095c-1.492.873-2.71 3.183-2.71 5.183v1.019c0 2.001 1.218 2.91 2.71 2.055zm-16.997 14.268c4.108-7.116 4.103-14.81-.012-17.186-4.115-2.375-10.781 1.467-14.89 8.583-4.108 7.116-4.103 14.811.012 17.186 4.115 2.376 10.781-1.467 14.89-8.583z" fill="#7D7D7B" stroke="#26144D" stroke-width="1.5" stroke-linecap="round" stroke-linejoin="round"/><path d="M445.01 604.519l22.7-13.095c1.492-.873 2.71-3.183 2.71-5.184v-1.019c0-2-1.218-2.91-2.71-2.055l-22.7 13.096c-1.491.873-2.71 3.182-2.71 5.183v1.019c0 2 1.219 2.91 2.71 2.055zm-16.491 13.979c4.109-7.116 4.104-14.811-.011-17.186-4.115-2.376-10.782 1.467-14.89 8.583-4.109 7.116-4.104 14.81.011 17.186 4.115 2.375 10.782-1.467 14.89-8.583z" fill="#7D7D7B" stroke="#26144D" stroke-width="1.5" stroke-linecap="round" stroke-linejoin="round"/><path d="M409.722 624.889l22.7-13.095c1.491-.873 2.71-3.183 2.71-5.183v-1.019c0-2.001-1.219-2.91-2.71-2.055l-22.7 13.095c-1.492.873-2.71 3.183-2.71 5.184v1.018c0 2.001 1.218 2.91 2.71 2.055z" fill="#7D7D7B" stroke="#26144D" stroke-width="1.5" stroke-linecap="round" stroke-linejoin="round"/><path d="M554.98 560.049l-167.592 96.76" stroke="#26144D" stroke-width="1.5" stroke-linecap="round" stroke-linejoin="round"/><path d="M459.87 651.934l22.7-13.095c1.492-.873 2.71-3.183 2.71-5.184v-1.018c0-2.001-1.218-2.91-2.71-2.055l-22.7 13.095c-1.491.873-2.71 3.183-2.71 5.184v1.018c0 2.001 1.219 2.91 2.71 2.055z" fill="#B2B4B3" stroke="#26144D" stroke-width="1.5" stroke-linecap="round" stroke-linejoin="round"/><path d="M307.774 528.929l101.585 58.638m22.555-130.626l101.567 58.638" stroke="#26144D" stroke-width="1.5" stroke-linecap="round" stroke-linejoin="round"/><path d="M469.803 533.167c14.053 0 25.446-6.579 25.446-14.696 0-8.116-11.393-14.696-25.446-14.696-14.054 0-25.447 6.58-25.447 14.696 0 8.117 11.393 14.696 25.447 14.696z" fill="#7D7D7B" stroke="#26144D" stroke-width="1.5" stroke-linecap="round" stroke-linejoin="round"/><path d="M418.509 562.796c14.053 0 25.446-6.58 25.446-14.696 0-8.117-11.393-14.696-25.446-14.696-14.054 0-25.447 6.579-25.447 14.696 0 8.116 11.393 14.696 25.447 14.696z" fill="#fff" stroke="#26144D" stroke-width="1.5" stroke-linecap="round" stroke-linejoin="round"/><path d="M424.076 506.776c14.054 0 25.446-6.579 25.446-14.696 0-8.116-11.392-14.696-25.446-14.696-14.054 0-25.446 6.58-25.446 14.696 0 8.117 11.392 14.696 25.446 14.696zm-51.295 29.61c14.054 0 25.446-6.579 25.446-14.695 0-8.117-11.392-14.696-25.446-14.696-14.053 0-25.446 6.579-25.446 14.696 0 8.116 11.393 14.695 25.446 14.695z" fill="#7D7D7B" stroke="#26144D" stroke-width="1.5" stroke-linecap="round" stroke-linejoin="round"/><path d="M386.642 803.713L275.835 867.68V665.102l110.807-63.967v202.578z" fill="#E40133" stroke="#26144D" stroke-width="1.5" stroke-linecap="round" stroke-linejoin="round"/><path d="M275.943 867.808L174.376 809.17V606.592l101.567 58.638v202.578z" fill="#fff" stroke="#26144D" stroke-width="1.5" stroke-linecap="round" stroke-linejoin="round"/><path d="M275.889 665.157l110.807-63.967-101.567-58.638-110.825 63.967 101.585 58.638z" fill="#E9E9E9" stroke="#26144D" stroke-width="1.5" stroke-linecap="round" stroke-linejoin="round"/><path d="M326.691 667.54l-33.976 19.606c-1.183.673-2.129-.036-2.129-1.6v-1.728c0-1.564.946-3.383 2.129-4.074l33.976-19.607c1.183-.673 2.129.037 2.129 1.601v1.728c0 1.564-.946 3.383-2.129 4.074z" fill="#fff" stroke="#26144D" stroke-width="1.5" stroke-linecap="round" stroke-linejoin="round"/><path d="M386.679 611.303L275.872 675.27" stroke="#26144D" stroke-width="1.5" stroke-linecap="round" stroke-linejoin="round"/><path d="M725.576 828.066l-.528 188.644 12.678-7.36.546-188.668-12.696 7.384z" fill="#B2B4B3" stroke="#26144D" stroke-width="1.5" stroke-linecap="round" stroke-linejoin="round"/><path d="M712.807 820.682l-.527 188.668 12.768 7.36.528-188.644-12.769-7.384zm25.465 0l-12.769-7.348-12.695 7.348 12.768 7.384 12.696-7.384z" fill="#fff" stroke="#26144D" stroke-width="1.5" stroke-linecap="round" stroke-linejoin="round"/><path d="M559.402 713.974l-.527 188.664 12.677-7.385.546-188.646-12.696 7.367z" fill="#B2B4B3" stroke="#26144D" stroke-width="1.5" stroke-linecap="round" stroke-linejoin="round"/><path d="M546.633 706.607l-.527 188.646 12.769 7.385.527-188.664-12.769-7.367zm25.465 0l-12.768-7.366-12.696 7.366 12.769 7.366 12.695-7.366z" fill="#fff" stroke="#26144D" stroke-width="1.5" stroke-linecap="round" stroke-linejoin="round"/><path d="M890.332 722.14l-.546 188.664 12.696-7.385.528-188.646-12.678 7.367z" fill="#B2B4B3" stroke="#26144D" stroke-width="1.5" stroke-linecap="round" stroke-linejoin="round"/><path d="M877.563 714.773l-.545 188.646 12.768 7.385.546-188.664-12.769-7.367z" fill="#fff" stroke="#26144D" stroke-width="1.5" stroke-linecap="round" stroke-linejoin="round"/><path d="M877.563 714.773l-.545 188.646 12.768 7.385.546-188.664-12.769-7.367z" fill="#fff" stroke="#26144D" stroke-width="1.5" stroke-linecap="round" stroke-linejoin="round"/><path d="M903.01 714.774l-12.769-7.366-12.677 7.366 12.768 7.366 12.678-7.366z" fill="#fff" stroke="#26144D" stroke-width="1.5" stroke-linecap="round" stroke-linejoin="round"/><path d="M916.105 744.002c-.164.018-.327.055-.491.091-3.729 24.99-22.009 49.362-54.931 68.496-74.538 43.324-195.84 43.306-270.869 0-33.668-19.443-52.294-44.288-55.895-69.678h-.109c-.2-.055-.382-.109-.582-.164v7.075c-.109 28.573 18.771 57.201 56.531 79.009 75.029 43.324 196.313 43.324 270.87 0 37.032-21.517 55.585-49.69 55.658-77.899v-6.912h-.182v-.018z" fill="#B2B4B3" stroke="#26144D" stroke-width="1.5" stroke-linecap="round" stroke-linejoin="round"/><path d="M859.793 665.339c75.029 43.306 75.447 113.566.891 156.908-74.538 43.323-195.84 43.287-270.87 0-75.066-43.324-75.448-113.566-.909-156.89 74.574-43.324 195.822-43.324 270.888 0v-.018zM566.862 1052.4V920.39l-7.658-4.456v132.026l7.658 4.44z" fill="#fff" stroke="#26144D" stroke-width="1.5" stroke-linecap="round" stroke-linejoin="round"/><path d="M574.537 915.934v132.026l-7.676 4.44V920.39l7.676-4.456z" fill="#B2B4B3" stroke="#26144D" stroke-width="1.5" stroke-linecap="round" stroke-linejoin="round"/><path d="M618.936 1021.62V889.615l-7.658-4.456v132.031l7.658 4.43z" fill="#fff" stroke="#26144D" stroke-width="1.5" stroke-linecap="round" stroke-linejoin="round"/><path d="M626.594 885.159v132.031l-7.658 4.43V889.615l7.658-4.456z" fill="#B2B4B3" stroke="#26144D" stroke-width="1.5" stroke-linecap="round" stroke-linejoin="round"/><path d="M514.804 1021.62V889.615l-7.658-4.456v132.031l7.658 4.43z" fill="#fff" stroke="#26144D" stroke-width="1.5" stroke-linecap="round" stroke-linejoin="round"/><path d="M522.461 885.159v132.031l-7.658 4.43V889.615l7.658-4.456z" fill="#B2B4B3" stroke="#26144D" stroke-width="1.5" stroke-linecap="round" stroke-linejoin="round"/><path d="M566.859 929.083v-9.494l-63.57-36.885v9.512l63.57 36.867z" fill="#004DA9" stroke="#26144D" stroke-width="1.5" stroke-linecap="round" stroke-linejoin="round"/><path d="M566.859 845.837l63.588 36.867-63.588 36.885-63.57-36.885 63.57-36.867z" fill="#0069EA" stroke="#26144D" stroke-width="1.5" stroke-linecap="round" stroke-linejoin="round"/><path d="M630.447 882.704v9.512l-63.589 36.867v-9.494l63.589-36.885z" fill="#0069EA" stroke="#26144D" stroke-width="1.5" stroke-linecap="round" stroke-linejoin="round"/><path d="M865.16 1072.11V940.088l-7.658-4.438v132.01l7.658 4.45z" fill="#fff" stroke="#26144D" stroke-width="1.5" stroke-linecap="round" stroke-linejoin="round"/><path d="M872.817 935.65v132.01l-7.657 4.45V940.088l7.657-4.438z" fill="#B2B4B3" stroke="#26144D" stroke-width="1.5" stroke-linecap="round" stroke-linejoin="round"/><path d="M917.234 1041.34V909.313l-7.657-4.438v132.005l7.657 4.46z" fill="#fff" stroke="#26144D" stroke-width="1.5" stroke-linecap="round" stroke-linejoin="round"/><path d="M924.892 904.875v132.005l-7.657 4.46V909.313l7.657-4.438z" fill="#B2B4B3" stroke="#26144D" stroke-width="1.5" stroke-linecap="round" stroke-linejoin="round"/><path d="M813.102 1041.34V909.313l-7.657-4.438v132.005l7.657 4.46z" fill="#fff" stroke="#26144D" stroke-width="1.5" stroke-linecap="round" stroke-linejoin="round"/><path d="M820.759 904.875v132.005l-7.657 4.46V909.313l7.657-4.438z" fill="#B2B4B3" stroke="#26144D" stroke-width="1.5" stroke-linecap="round" stroke-linejoin="round"/><path d="M865.158 948.799v-9.512l-63.57-36.867v9.494l63.57 36.885z" fill="#004DA9" stroke="#26144D" stroke-width="1.5" stroke-linecap="round" stroke-linejoin="round"/><path d="M865.158 865.553l63.589 36.867-63.589 36.867-63.57-36.867 63.57-36.867z" fill="#0069EA" stroke="#26144D" stroke-width="1.5" stroke-linecap="round" stroke-linejoin="round"/><path d="M928.745 902.42v9.494l-63.589 36.885v-9.512l63.589-36.867z" fill="#0069EA" stroke="#26144D" stroke-width="1.5" stroke-linecap="round" stroke-linejoin="round"/><path d="M367.707 422.511l-79.795-46.379-.036-11.077 79.813 46.38.018 11.076z" fill="#004DA9" stroke="#26144D" stroke-width="1.5" stroke-linecap="round" stroke-linejoin="round"/><path d="M367.689 411.434l-79.813-46.379 128.523-74.207 79.795 46.38-128.505 74.206z" fill="#248CFF" stroke="#26144D" stroke-width="1.5" stroke-linecap="round" stroke-linejoin="round"/><path d="M496.193 337.228l.037 11.076-128.524 74.207-.018-11.076 128.505-74.207z" fill="#0069EA" stroke="#26144D" stroke-width="1.5" stroke-linecap="round" stroke-linejoin="round"/><path d="M351.191 214.986l28.139 164.965-58.405-33.994.418-147.668 29.848 16.697z" fill="#004DA9" stroke="#26144D" stroke-width="1.5" stroke-linecap="round" stroke-linejoin="round"/><path d="M409.686 181.265l28.139 164.965-58.496 33.721-28.138-164.965 58.495-33.721z" fill="#0069EA" stroke="#26144D" stroke-width="1.5" stroke-linecap="round" stroke-linejoin="round"/><path d="M379.839 164.569l29.848 16.696-58.495 33.721-29.848-16.697 58.495-33.72z" fill="#248CFF" stroke="#26144D" stroke-width="1.5" stroke-linecap="round" stroke-linejoin="round"/><path d="M496.596 304.78v-12.786l134.361-77.917v12.786L496.596 304.78z" fill="#B2B4B3" stroke="#26144D" stroke-width="1.5" stroke-linecap="round" stroke-linejoin="round"/><path d="M630.958 214.077l-46-26.773-134.362 77.936 46 26.754 134.362-77.917z" fill="#D8D8D8" stroke="#26144D" stroke-width="1.5" stroke-linecap="round" stroke-linejoin="round"/><path d="M496.596 304.78v-12.786l-46-26.754v12.786l46 26.754z" fill="#7D7D7B" stroke="#26144D" stroke-width="1.5" stroke-linecap="round" stroke-linejoin="round"/><path d="M450.358 504.939a.59.59 0 01-.527-.309.62.62 0 01.218-.836l3.274-1.892c.491-.291.782-.637.782-.982 0-.346-.291-.691-.782-.982l-5.875-3.383c-1.255-.728-3.365-.728-4.62 0l-3.274 1.891a.62.62 0 01-.837-.218.622.622 0 01.219-.837l3.274-1.891c1.637-.946 4.201-.946 5.838 0l5.875 3.383c.892.509 1.383 1.237 1.383 2.037 0 .8-.491 1.509-1.383 2.037l-3.274 1.891a.593.593 0 01-.309.073l.018.018zm-62.496 3.802v38.794c.073 4.529 3.092 9.022 9.076 12.477 12.096 6.985 31.703 6.985 43.781 0 6.111-3.528 9.149-8.166 9.076-12.804v-38.795l-61.915.328h-.018z" fill="#fff" stroke="#26144D" stroke-width="1.5" stroke-linecap="round" stroke-linejoin="round"/><path d="M418.819 526.455c17.098 0 30.958-8.004 30.958-17.878 0-9.875-13.86-17.879-30.958-17.879-17.097 0-30.957 8.004-30.957 17.879 0 9.874 13.86 17.878 30.957 17.878z" fill="#fff" stroke="#26144D" stroke-width="1.5" stroke-linecap="round" stroke-linejoin="round"/><path d="M441.265 505.085c-12.405-7.039-32.504-7.039-44.891 0-4.038 2.291-6.748 5.056-8.148 7.984 1.4 2.929 4.11 5.693 8.148 7.985 12.405 7.039 32.504 7.039 44.891 0 4.037-2.292 6.748-5.056 8.148-7.985-1.4-2.928-4.111-5.693-8.148-7.984zm-39.799 31.974a.594.594 0 01-.6-.6v-2.383l-2.365 1.364c-1.637.946-4.201.946-5.838 0l-5.875-3.383c-.892-.509-1.383-1.237-1.383-2.037 0-.8.491-1.509 1.383-2.037l3.274-1.891a.587.587 0 01.6 0 .626.626 0 01.309.527v3.492c0 .346-.273.6-.6.6a.604.604 0 01-.6-.6v-2.437l-2.365 1.364c-.491.291-.782.637-.782.982 0 .346.291.691.782.982l5.875 3.383c1.255.728 3.365.728 4.62 0l3.274-1.891a.591.591 0 01.6 0c.182.109.31.309.31.527v3.438c0 .345-.273.6-.601.6h-.018z" fill="#fff" stroke="#26144D" stroke-width="1.5" stroke-linecap="round" stroke-linejoin="round"/><path d="M674.919 721.867c-.055-16.005 22.554-29.046 50.492-29.155 27.938-.091 50.638 12.804 50.693 28.791.072 15.988-22.536 29.047-50.493 29.156-27.92.091-50.62-12.805-50.674-28.792h-.018z" fill="#E9E9E9" stroke="#26144D" stroke-width="1.5" stroke-linecap="round" stroke-linejoin="round"/><path d="M727.812 702.424c0 8.821-7.148 15.969-15.97 15.969-8.821 0-15.97-7.148-15.97-15.969s7.149-15.969 15.97-15.969c8.822 0 15.97 7.148 15.97 15.969z" fill="#FFBF33" stroke="#26144D" stroke-width="1.5" stroke-linecap="round" stroke-linejoin="round"/><path d="M712.225 719.175c0 8.803-7.148 15.969-15.97 15.969-8.821 0-15.97-7.148-15.97-15.969s7.149-15.969 15.97-15.969c8.822 0 15.97 7.148 15.97 15.969zm45.181-14.022c0 8.821-7.148 15.969-15.97 15.969-8.821 0-15.97-7.148-15.97-15.969 0-8.822 7.149-15.969 15.97-15.969 8.822 0 15.97 7.147 15.97 15.969z" fill="#FFBF33" stroke="#26144D" stroke-width="1.5" stroke-linecap="round" stroke-linejoin="round"/><path d="M735.598 728.524c0 8.803-7.149 15.969-15.97 15.969-8.822 0-15.97-7.148-15.97-15.969s7.148-15.969 15.97-15.969c8.821 0 15.97 7.148 15.97 15.969z" fill="#FFBF33" stroke="#26144D" stroke-width="1.5" stroke-linecap="round" stroke-linejoin="round"/><path d="M765.953 717.611c0 8.821-7.148 15.969-15.97 15.969-8.821 0-15.97-7.148-15.97-15.969s7.149-15.969 15.97-15.969c8.822 0 15.97 7.148 15.97 15.969z" fill="#FFBF33" stroke="#26144D" stroke-width="1.5" stroke-linecap="round" stroke-linejoin="round"/><path d="M482.007 239.522v27.063c.036 2.365 1.619 4.711 4.729 6.512 6.312 3.637 16.552 3.637 22.863 0 3.202-1.837 4.766-4.274 4.73-6.693V239.34l-32.322.164v.018z" fill="#fff" stroke="#26144D" stroke-width="1.5" stroke-linecap="round" stroke-linejoin="round"/><path d="M498.177 248.78c8.93 0 16.17-4.178 16.17-9.331s-7.24-9.33-16.17-9.33c-8.931 0-16.17 4.177-16.17 9.33 0 5.153 7.239 9.331 16.17 9.331zm63.988-58.33v27.064c.037 2.365 1.619 4.711 4.729 6.511 6.312 3.638 16.552 3.638 22.864 0 3.201-1.837 4.765-4.274 4.729-6.693v-27.063l-32.322.163v.018z" fill="#fff" stroke="#26144D" stroke-width="1.5" stroke-linecap="round" stroke-linejoin="round"/><path d="M578.335 199.69c8.931 0 16.17-4.177 16.17-9.33 0-5.153-7.239-9.331-16.17-9.331-8.93 0-16.17 4.178-16.17 9.331s7.24 9.33 16.17 9.33z" fill="#fff" stroke="#26144D" stroke-width="1.5" stroke-linecap="round" stroke-linejoin="round"/><path d="M496.596 253.235v-12.786l134.361-77.917v12.786l-134.361 77.917z" fill="#B2B4B3" stroke="#26144D" stroke-width="1.5" stroke-linecap="round" stroke-linejoin="round"/><path d="M630.958 162.532l-46-26.773-134.362 77.936 46 26.754 134.362-77.917z" fill="#D8D8D8" stroke="#26144D" stroke-width="1.5" stroke-linecap="round" stroke-linejoin="round"/><path d="M496.596 253.236v-12.787l-46-26.754v12.786l46 26.755z" fill="#7D7D7B" stroke="#26144D" stroke-width="1.5" stroke-linecap="round" stroke-linejoin="round"/><path d="M554.398 139.67v27.063c.037 2.365 1.619 4.711 4.73 6.512 6.311 3.637 16.552 3.637 22.863 0 3.201-1.837 4.766-4.274 4.729-6.693v-27.064l-32.322.163v.019z" fill="#fff" stroke="#26144D" stroke-width="1.5" stroke-linecap="round" stroke-linejoin="round"/><path d="M570.568 148.909c8.931 0 16.17-4.177 16.17-9.33 0-5.153-7.239-9.33-16.17-9.33-8.93 0-16.17 4.177-16.17 9.33 0 5.153 7.24 9.33 16.17 9.33z" fill="#E9E9E9" stroke="#26144D" stroke-width="1.5" stroke-linecap="round" stroke-linejoin="round"/><path d="M485.992 175.281v27.064c.037 2.365 1.619 4.711 4.73 6.512 6.311 3.637 16.551 3.637 22.863 0 3.201-1.837 4.766-4.275 4.729-6.694V175.1l-32.322.163v.018z" fill="#fff" stroke="#26144D" stroke-width="1.5" stroke-linecap="round" stroke-linejoin="round"/><path d="M502.144 184.539c8.93 0 16.17-4.177 16.17-9.33 0-5.153-7.24-9.331-16.17-9.331-8.931 0-16.17 4.178-16.17 9.331s7.239 9.33 16.17 9.33z" fill="#E9E9E9" stroke="#26144D" stroke-width="1.5" stroke-linecap="round" stroke-linejoin="round"/><path d="M522.896 148.346v33.429c.055 2.91 2.001 5.82 5.857 8.039 7.803 4.511 20.444 4.511 28.247 0 3.947-2.273 5.893-5.274 5.857-8.257v-33.43l-39.943.219h-.018z" fill="#fff" stroke="#26144D" stroke-width="1.5" stroke-linecap="round" stroke-linejoin="round"/><path d="M542.867 159.767c11.03 0 19.972-5.162 19.972-11.531 0-6.368-8.942-11.531-19.972-11.531-11.03 0-19.971 5.163-19.971 11.531 0 6.369 8.941 11.531 19.971 11.531z" fill="#E9E9E9" stroke="#26144D" stroke-width="1.5" stroke-linecap="round" stroke-linejoin="round"/><path d="M1185.45 796.438c-17.61-10.167-31.91-34.903-31.91-55.237M612.004 315.839c5.656 3.255 5.62 8.566-.073 11.858-5.693 3.292-14.879 3.31-20.536.037-5.656-3.256-5.62-8.567.073-11.859 5.693-3.292 14.879-3.31 20.536-.036z" stroke="#fff" stroke-width="1.5" stroke-linecap="round" stroke-linejoin="round"/><path d="M615.66 795.838l-40.416-23.335 40.416-23.336 40.416 23.336-40.416 23.335z" fill="#D8D8D8" stroke="#26144D" stroke-width="1.5" stroke-linecap="round" stroke-linejoin="round"/><path d="M805.17 804.932l-40.416-23.336 40.416-23.335 40.434 23.335-40.434 23.336z" fill="#fff" stroke="#26144D" stroke-width="1.5" stroke-linecap="round" stroke-linejoin="round"/><path d="M778.632 805.695l-40.416-23.335 40.416-23.353 40.434 23.353-40.434 23.335zm19.717-98.542l-40.416-23.335 40.416-23.353 40.416 23.353-40.416 23.335z" fill="#D8D8D8" stroke="#26144D" stroke-width="1.5" stroke-linecap="round" stroke-linejoin="round"/><path d="M600.127 795.565c-.036-10.44 16.516-18.952 36.996-19.025 20.481-.054 37.106 8.349 37.142 18.77.055 10.44-16.515 18.952-36.996 19.025-20.463.073-37.087-8.348-37.142-18.77z" fill="#E9E9E9" stroke="#26144D" stroke-width="1.5" stroke-linecap="round" stroke-linejoin="round"/><path d="M617.298 795.511c-.019-5.602 8.858-10.167 19.844-10.204 10.986-.036 19.898 4.475 19.935 10.077.018 5.601-8.858 10.167-19.844 10.203-10.987.036-19.899-4.474-19.917-10.076h-.018z" fill="#fff" stroke="#26144D" stroke-width="1.5" stroke-linecap="round" stroke-linejoin="round"/><path d="M752.239 803.131c-.037-10.44 16.515-18.952 36.996-19.024 20.481-.055 37.105 8.348 37.142 18.77.054 10.44-16.516 18.952-36.997 19.024-20.462.073-37.087-8.348-37.141-18.77z" fill="#E9E9E9" stroke="#26144D" stroke-width="1.5" stroke-linecap="round" stroke-linejoin="round"/><path d="M769.41 803.077c-.018-5.602 8.858-10.167 19.844-10.204 10.986-.036 19.899 4.474 19.935 10.076.018 5.602-8.858 10.167-19.844 10.204-10.986.036-19.899-4.474-19.917-10.076h-.018z" fill="#fff" stroke="#26144D" stroke-width="1.5" stroke-linecap="round" stroke-linejoin="round"/><path d="M786.599 695.003c-.037-10.439 16.515-18.951 36.996-19.024 20.481-.055 37.105 8.348 37.142 18.77.054 10.44-16.516 18.952-36.996 19.024-20.463.073-37.088-8.348-37.142-18.77z" fill="#E9E9E9" stroke="#26144D" stroke-width="1.5" stroke-linecap="round" stroke-linejoin="round"/><path d="M803.787 694.931c-.019-5.602 8.858-10.167 19.844-10.204 10.986-.036 19.898 4.475 19.935 10.076.018 5.602-8.858 10.168-19.844 10.204-10.986.036-19.899-4.474-19.917-10.076h-.018z" fill="#fff" stroke="#26144D" stroke-width="1.5" stroke-linecap="round" stroke-linejoin="round"/><path d="M813.61 903.074l53.439-30.319M283.094 703.77v150.087m134.434-94.505v-88.43m143.019-31.829l149.585-86.92m-149.585 22.226l149.585-86.92m-149.585 19.715l149.585-86.921m-302.718 160.2l-82.868-47.507m126.34-71.26l82.378 48.016M329.603 198.435l49.528-27.81m-53.074 63.676v107.146m41.942 64.167l117.755-68.223M740.455 190.45v-84.501m-90.964 32.957V54.404M524.17 695.694v-59.638m302.21-161.2l-97.038-56.092m97.038 120.768l-97.038-56.092m97.038 119.768l-97.038-56.091m281.998 78.826l97.04 56.601m-97.04-115.73l97.04 56.601m-97.04 68.732l97.04 56.601M757.132 351.05v-15.678M559.293 435.934l-9.167 5.692 18.825 11.55M842.549 498.1V276.752m.509 250.649v120.786M514.566 882.794l53.439-30.319" stroke="#fff" stroke-width="1.5" stroke-linecap="round" stroke-linejoin="round"/><path d="M956.757 427.349v128.352" stroke="#26144D" stroke-width="1.5" stroke-linecap="round" stroke-linejoin="round"/><defs><filter id="filter0_d_813_15178" x="516.3" y="257.847" width="173.88" height="192.906" filterUnits="userSpaceOnUse" color-interpolation-filters="sRGB"><feFlood flood-opacity="0" result="BackgroundImageFix"/><feColorMatrix in="SourceAlpha" values="0 0 0 0 0 0 0 0 0 0 0 0 0 0 0 0 0 0 127 0" result="hardAlpha"/><feOffset/><feGaussianBlur stdDeviation="25"/><feComposite in2="hardAlpha" operator="out"/><feColorMatrix values="0 0 0 0 1 0 0 0 0 1 0 0 0 0 1 0 0 0 1 0"/><feBlend in2="BackgroundImageFix" result="effect1_dropShadow_813_15178"/><feBlend in="SourceGraphic" in2="effect1_dropShadow_813_15178" result="shape"/></filter><filter id="filter1_d_813_15178" x="783.685" y="140.101" width="375.844" height="664.8" filterUnits="userSpaceOnUse" color-interpolation-filters="sRGB"><feFlood flood-opacity="0" result="BackgroundImageFix"/><feColorMatrix in="SourceAlpha" values="0 0 0 0 0 0 0 0 0 0 0 0 0 0 0 0 0 0 127 0" result="hardAlpha"/><feOffset/><feGaussianBlur stdDeviation="25"/><feComposite in2="hardAlpha" operator="out"/><feColorMatrix values="0 0 0 0 1 0 0 0 0 1 0 0 0 0 1 0 0 0 1 0"/><feBlend in2="BackgroundImageFix" result="effect1_dropShadow_813_15178"/><feBlend in="SourceGraphic" in2="effect1_dropShadow_813_15178" result="shape"/></filter><filter id="filter2_d_813_15178" x="490.898" y="380.273" width="154.758" height="139.204" filterUnits="userSpaceOnUse" color-interpolation-filters="sRGB"><feFlood flood-opacity="0" result="BackgroundImageFix"/><feColorMatrix in="SourceAlpha" values="0 0 0 0 0 0 0 0 0 0 0 0 0 0 0 0 0 0 127 0" result="hardAlpha"/><feOffset/><feGaussianBlur stdDeviation="25"/><feComposite in2="hardAlpha" operator="out"/><feColorMatrix values="0 0 0 0 1 0 0 0 0 1 0 0 0 0 1 0 0 0 1 0"/><feBlend in2="BackgroundImageFix" result="effect1_dropShadow_813_15178"/><feBlend in="SourceGraphic" in2="effect1_dropShadow_813_15178" result="shape"/></filter></defs></svg>