<svg width="1439" height="1304" viewBox="0 0 1439 1304" fill="none" xmlns="http://www.w3.org/2000/svg">
<mask id="mask0_1085_19" style="mask-type:alpha" maskUnits="userSpaceOnUse" x="0" y="0" width="1439" height="1304">
<rect width="1439" height="1304" fill="#D9D9D9"/>
</mask>
<g mask="url(#mask0_1085_19)">
<path d="M750.766 1268.04L0.126953 847.023L688.342 461.02L1439 882.035L750.766 1268.04Z" fill="#E9E9E9" stroke="#26144D" stroke-width="1.5" stroke-linecap="round" stroke-linejoin="round"/>
<path d="M1439 917.757L1438.96 882.309L751.004 1267.8L751.04 1303.23L1439 917.757Z" fill="#B2B4B3" stroke="#26144D" stroke-width="1.5" stroke-linecap="round" stroke-linejoin="round"/>
<path d="M750.639 1303.07L0 882.035V846.605L750.639 1267.62V1303.07Z" fill="#7D7D7B" stroke="#26144D" stroke-width="1.5" stroke-linecap="round" stroke-linejoin="round"/>
<g style="mix-blend-mode:multiply">
<path d="M860.665 863.029C935.694 906.334 936.113 976.595 861.556 1019.94C787.018 1063.26 665.716 1063.22 590.686 1019.94C515.621 976.613 515.239 906.371 589.777 863.047C664.352 819.723 785.599 819.723 860.665 863.047V863.029Z" fill="#E9E9E9"/>
</g>
<g style="mix-blend-mode:multiply">
<path d="M566.858 1022.43L630.446 1059.3L566.858 1096.18L503.287 1059.3L566.858 1022.43Z" fill="#E9E9E9"/>
</g>
<g style="mix-blend-mode:multiply">
<path d="M876.16 1036.83L939.731 1073.7L876.16 1110.59L812.572 1073.7L876.16 1036.83Z" fill="#E9E9E9"/>
</g>
<g style="mix-blend-mode:multiply">
<path d="M874.633 830.654L938.222 867.521L874.633 904.407L811.063 867.521L874.633 830.654Z" fill="#E9E9E9"/>
</g>
<path d="M836.327 715.433L620.879 591.209V388.631L836.327 512.855V715.433Z" fill="#E40133" stroke="#26144D" stroke-width="1.5" stroke-linecap="round" stroke-linejoin="round"/>
<path d="M836.636 512.728L621.188 388.522L722.773 329.866L938.222 454.09L836.636 512.728Z" fill="#E9E9E9" stroke="#26144D" stroke-width="1.5" stroke-linecap="round" stroke-linejoin="round"/>
<path d="M836.472 715.397L938.057 656.74V454.163L836.472 512.801V715.397Z" fill="#D8D8D8" stroke="#26144D" stroke-width="1.5" stroke-linecap="round" stroke-linejoin="round"/>
<path d="M668.133 482.354L835.744 579.114" stroke="#26144D" stroke-width="1.5" stroke-linecap="round" stroke-linejoin="round"/>
<path d="M789.653 523.768L766.954 510.673C765.462 509.8 764.243 507.49 764.243 505.489V504.47C764.243 502.47 765.462 501.56 766.954 502.415L789.653 515.511C791.145 516.384 792.363 518.693 792.363 520.694V521.713C792.363 523.713 791.145 524.623 789.653 523.768Z" fill="white" stroke="#26144D" stroke-width="1.5" stroke-linecap="round" stroke-linejoin="round"/>
<path d="M668.133 546.521L835.744 643.281" stroke="#26144D" stroke-width="1.5" stroke-linecap="round" stroke-linejoin="round"/>
<path d="M789.653 587.935L766.954 574.84C765.462 573.967 764.243 571.657 764.243 569.656V568.637C764.243 566.637 765.462 565.727 766.954 566.582L789.653 579.678C791.145 580.551 792.363 582.86 792.363 584.861V585.88C792.363 587.88 791.145 588.79 789.653 587.935Z" fill="white" stroke="#26144D" stroke-width="1.5" stroke-linecap="round" stroke-linejoin="round"/>
<path d="M789.653 654.14L766.954 641.044C765.462 640.171 764.243 637.861 764.243 635.861V634.842C764.243 632.841 765.462 631.932 766.954 632.787L789.653 645.882C791.145 646.755 792.363 649.065 792.363 651.066V652.084C792.363 654.085 791.145 654.994 789.653 654.14Z" fill="white" stroke="#26144D" stroke-width="1.5" stroke-linecap="round" stroke-linejoin="round"/>
<path d="M851.297 424.079L766.155 374.699C761.28 371.88 755.278 371.825 750.367 374.59L698.419 403.836C695.636 405.4 695.618 409.401 698.365 411.002L783.507 460.382C788.382 463.201 794.384 463.256 799.295 460.491L851.243 431.245C854.026 429.681 854.044 425.68 851.297 424.079Z" fill="white"/>
<path d="M851.297 424.079L766.155 374.699C761.28 371.88 755.278 371.825 750.367 374.59L698.419 403.836C695.636 405.4 695.618 409.401 698.365 411.002L783.507 460.382C788.382 463.201 794.384 463.256 799.295 460.491L851.243 431.245C854.026 429.681 854.044 425.68 851.297 424.079Z" stroke="#26144D" stroke-width="1.5" stroke-linecap="round" stroke-linejoin="round"/>
<path d="M783.506 460.4L698.364 411.02C695.599 409.419 695.617 405.418 698.418 403.854L750.366 374.608C755.277 371.843 761.279 371.879 766.154 374.717L851.296 424.097C854.061 425.698 854.043 429.699 851.242 431.263L799.294 460.509C794.383 463.274 788.381 463.238 783.506 460.4Z" fill="#B2B4B3"/>
<path d="M783.506 460.4L698.364 411.02C695.599 409.419 695.617 405.418 698.418 403.854L750.366 374.608C755.277 371.843 761.279 371.879 766.154 374.717L851.296 424.097C854.061 425.698 854.043 429.699 851.242 431.263L799.294 460.509C794.383 463.274 788.381 463.238 783.506 460.4Z" stroke="#26144D" stroke-width="1.5" stroke-linecap="round" stroke-linejoin="round"/>
<path d="M698.364 411.02L714.188 420.205L750.366 399.835C755.277 397.07 761.28 397.107 766.154 399.944L835.472 440.139L851.26 431.264C854.043 429.7 854.061 425.698 851.315 424.098L766.173 374.717C761.298 371.898 755.295 371.844 750.384 374.608L698.437 403.854C695.654 405.419 695.636 409.42 698.382 411.02H698.364Z" fill="#7D7D7B" stroke="#26144D" stroke-width="1.5" stroke-linecap="round" stroke-linejoin="round"/>
<path d="M789.908 427.407C789.908 430.081 786.525 432.264 782.378 432.264C778.231 432.264 774.847 430.081 774.847 427.407C774.847 424.734 778.231 422.551 782.378 422.551C786.525 422.551 789.908 424.734 789.908 427.407Z" fill="white"/>
<path d="M789.908 427.407C789.908 430.081 786.525 432.264 782.378 432.264C778.231 432.264 774.847 430.081 774.847 427.407C774.847 424.734 778.231 422.551 782.378 422.551C786.525 422.551 789.908 424.734 789.908 427.407Z" stroke="#26144D" stroke-width="1.5" stroke-linecap="round" stroke-linejoin="round"/>
<path d="M757.132 393.05V377.372" stroke="white" stroke-width="1.5" stroke-linecap="round" stroke-linejoin="round"/>
<path d="M812.136 390.831L799.367 383.429L784.962 353.164L798.549 362.531L812.136 390.831Z" fill="white"/>
<path d="M812.136 390.831L799.367 383.429L784.962 353.164L798.549 362.531L812.136 390.831Z" stroke="#26144D" stroke-width="1.5" stroke-linecap="round" stroke-linejoin="round"/>
<path d="M812.137 390.832L818.54 387.976L803.443 354.965L776.378 367.897V372.716L798.55 362.531L812.137 390.832Z" fill="white"/>
<path d="M812.137 390.832L818.54 387.976L803.443 354.965L776.378 367.897V372.716L798.55 362.531L812.137 390.832Z" stroke="#26144D" stroke-width="1.5" stroke-linecap="round" stroke-linejoin="round"/>
<path d="M803.442 354.965L790.509 347.489L764.208 361.476L776.376 367.896L803.442 354.965Z" fill="white"/>
<path d="M803.442 354.965L790.509 347.489L764.208 361.476L776.376 367.896L803.442 354.965Z" stroke="#26144D" stroke-width="1.5" stroke-linecap="round" stroke-linejoin="round"/>
<path d="M776.376 372.716V367.896L764.208 361.476V366.769L776.376 372.716Z" fill="white"/>
<path d="M776.376 372.716V367.896L764.208 361.476V366.769L776.376 372.716Z" stroke="#26144D" stroke-width="1.5" stroke-linecap="round" stroke-linejoin="round"/>
<path d="M826.38 516.856L729.342 460.764" stroke="white" stroke-width="1.5" stroke-linecap="round" stroke-linejoin="round"/>
<path d="M826.38 581.532L729.342 525.44" stroke="white" stroke-width="1.5" stroke-linecap="round" stroke-linejoin="round"/>
<path d="M826.38 645.208L729.342 589.117" stroke="white" stroke-width="1.5" stroke-linecap="round" stroke-linejoin="round"/>
<path d="M554.854 747.389L723.556 650.01V447.433L554.854 544.811V747.389Z" fill="#E40133" stroke="#26144D" stroke-width="1.5" stroke-linecap="round" stroke-linejoin="round"/>
<path d="M554.545 544.702L723.23 447.305L621.663 388.667L452.96 486.045L554.545 544.702Z" fill="#E9E9E9" stroke="#26144D" stroke-width="1.5" stroke-linecap="round" stroke-linejoin="round"/>
<path d="M554.71 747.352L453.125 688.714V486.136L554.71 544.774V747.352Z" fill="white" stroke="#26144D" stroke-width="1.5" stroke-linecap="round" stroke-linejoin="round"/>
<path d="M723.048 514.31L555.437 611.07" stroke="#26144D" stroke-width="1.5" stroke-linecap="round" stroke-linejoin="round"/>
<path d="M626.301 536.644L649.001 523.549C650.492 522.676 651.711 520.366 651.711 518.365V517.347C651.711 515.346 650.492 514.437 649.001 515.292L626.301 528.387C624.81 529.26 623.591 531.57 623.591 533.571V534.589C623.591 536.59 624.81 537.499 626.301 536.644Z" fill="white" stroke="#26144D" stroke-width="1.5" stroke-linecap="round" stroke-linejoin="round"/>
<path d="M723.048 578.495L555.437 675.255" stroke="#26144D" stroke-width="1.5" stroke-linecap="round" stroke-linejoin="round"/>
<path d="M626.301 604.468L649.001 591.372C650.492 590.499 651.711 588.189 651.711 586.189V585.17C651.711 583.169 650.492 582.26 649.001 583.115L626.301 596.21C624.81 597.083 623.591 599.393 623.591 601.394V602.412C623.591 604.413 624.81 605.322 626.301 604.468Z" fill="white" stroke="#26144D" stroke-width="1.5" stroke-linecap="round" stroke-linejoin="round"/>
<path d="M626.301 670.053L649.001 656.958C650.492 656.085 651.711 653.775 651.711 651.774V650.756C651.711 648.755 650.492 647.846 649.001 648.7L626.301 661.796C624.81 662.669 623.591 664.979 623.591 666.979V667.998C623.591 669.999 624.81 670.908 626.301 670.053Z" fill="white" stroke="#26144D" stroke-width="1.5" stroke-linecap="round" stroke-linejoin="round"/>
<path d="M560.547 681.093L710.133 594.173" stroke="white" stroke-width="1.5" stroke-linecap="round" stroke-linejoin="round"/>
<path d="M560.547 616.399L710.133 529.479" stroke="white" stroke-width="1.5" stroke-linecap="round" stroke-linejoin="round"/>
<path d="M560.547 549.194L710.133 462.273" stroke="white" stroke-width="1.5" stroke-linecap="round" stroke-linejoin="round"/>
<path d="M605.092 439.939V439.848V428.208L604.419 428.353C604.292 428.244 604.165 428.153 604.001 428.062C602.564 427.225 600.218 427.225 598.781 428.062C598.581 428.189 598.399 428.317 598.253 428.444L597.708 428.189V439.83C597.708 440.394 598.053 440.939 598.799 441.376C600.236 442.212 602.582 442.212 604.019 441.376C604.692 440.976 605.056 440.466 605.092 439.957V439.939Z" fill="#7D7D7B" stroke="#26144D" stroke-width="1.5" stroke-linecap="round" stroke-linejoin="round"/>
<path d="M604.019 429.754C602.582 430.59 600.254 430.572 598.799 429.754C597.362 428.917 597.344 427.571 598.799 426.734C600.236 425.898 602.564 425.916 604.019 426.734C605.456 427.571 605.474 428.917 604.019 429.754Z" fill="white" stroke="#26144D" stroke-width="1.5" stroke-linecap="round" stroke-linejoin="round"/>
<path d="M627.973 432.391V432.3V420.66L627.3 420.805C627.173 420.696 627.046 420.605 626.882 420.514C625.445 419.678 623.099 419.678 621.662 420.514C621.462 420.642 621.28 420.769 621.134 420.896L620.589 420.642V432.282C620.589 432.846 620.934 433.391 621.68 433.828C623.117 434.664 625.463 434.664 626.9 433.828C627.573 433.428 627.937 432.918 627.973 432.409V432.391Z" fill="#7D7D7B" stroke="#26144D" stroke-width="1.5" stroke-linecap="round" stroke-linejoin="round"/>
<path d="M626.9 422.187C625.463 423.024 623.135 423.006 621.68 422.187C620.243 421.351 620.225 420.005 621.68 419.168C623.117 418.331 625.445 418.35 626.9 419.168C628.337 420.005 628.355 421.351 626.9 422.187Z" fill="white" stroke="#26144D" stroke-width="1.5" stroke-linecap="round" stroke-linejoin="round"/>
<path d="M582.902 432.391V432.3V420.66L582.229 420.805C582.101 420.696 581.974 420.605 581.81 420.514C580.373 419.678 578.027 419.678 576.59 420.514C576.39 420.642 576.208 420.769 576.062 420.896L575.517 420.642V432.282C575.517 432.846 575.862 433.391 576.608 433.828C578.045 434.664 580.391 434.664 581.828 433.828C582.501 433.428 582.865 432.918 582.902 432.409V432.391Z" fill="#7D7D7B" stroke="#26144D" stroke-width="1.5" stroke-linecap="round" stroke-linejoin="round"/>
<path d="M581.828 422.187C580.391 423.024 578.063 423.006 576.608 422.187C575.171 421.351 575.153 420.005 576.608 419.168C578.045 418.331 580.373 418.35 581.828 419.168C583.265 420.005 583.283 421.351 581.828 422.187Z" fill="white" stroke="#26144D" stroke-width="1.5" stroke-linecap="round" stroke-linejoin="round"/>
<path d="M630.031 352.327L634.614 355L627.248 355.491L630.031 352.327Z" fill="white" stroke="#26144D" stroke-width="1.5" stroke-linecap="round" stroke-linejoin="round"/>
<path d="M633.031 372.315C632.867 379.081 630.885 384.956 627.12 389.739C624.319 393.304 621.427 395.123 621.154 395.305V397.16C618.953 399.088 617.334 400.07 617.043 400.234V392.904C617.316 392.74 620.19 390.921 622.991 387.338C626.756 382.555 628.739 376.68 628.902 369.914C628.993 366.349 628.502 363.694 627.429 361.984C628.248 362.021 629.066 362.221 629.794 362.621C632.049 363.912 633.14 367.168 633.013 372.315H633.031Z" fill="white" stroke="#26144D" stroke-width="1.5" stroke-linecap="round" stroke-linejoin="round"/>
<path d="M635.287 366.423C634.996 378.427 630.085 387.011 625.992 392.086C624.283 394.214 622.591 395.887 621.154 397.142V395.287C621.427 395.105 624.319 393.286 627.12 389.721C630.885 384.92 632.868 379.063 633.031 372.297C633.159 367.15 632.067 363.895 629.812 362.603C629.084 362.185 628.266 362.003 627.447 361.967C626.974 361.185 626.392 360.603 625.683 360.202C624.282 359.402 622.609 359.438 621.118 359.766C618.935 360.221 617.134 361.294 617.098 361.312L616.916 354.091C617.243 353.891 624.828 349.344 630.212 352.418C630.94 352.836 631.576 353.346 632.14 353.982C634.377 356.456 635.432 360.621 635.305 366.423H635.287Z" fill="white" stroke="#26144D" stroke-width="1.5" stroke-linecap="round" stroke-linejoin="round"/>
<path d="M639.417 368.823C639.126 380.827 634.215 389.412 630.122 394.468C625.793 399.834 621.628 402.344 621.173 402.598V397.124V395.269C621.446 395.087 624.338 393.268 627.139 389.703C630.904 384.902 632.887 379.045 633.05 372.279C633.178 367.132 632.086 363.876 629.831 362.585C629.103 362.167 628.285 361.985 627.466 361.948C624.465 361.803 621.282 363.694 621.228 363.713L621.137 359.766L621.046 356.474C621.319 356.31 627.103 352.854 632.141 353.964C632.905 354.127 633.633 354.4 634.342 354.8C637.889 356.819 639.599 361.53 639.417 368.805V368.823Z" fill="#7D7D7B" stroke="#26144D" stroke-width="1.5" stroke-linecap="round" stroke-linejoin="round"/>
<path d="M616.916 354.109L621.045 356.492L621.209 363.731L617.098 361.33L616.916 354.109Z" fill="white" stroke="#26144D" stroke-width="1.5" stroke-linecap="round" stroke-linejoin="round"/>
<path d="M621.154 395.305L621.172 402.617L617.043 400.216V392.886L621.154 395.305Z" fill="white" stroke="#26144D" stroke-width="1.5" stroke-linecap="round" stroke-linejoin="round"/>
<path d="M628.903 420.678C628.957 424.715 626.32 428.735 620.99 431.827C610.386 437.938 593.161 437.92 582.484 431.772C576.955 428.571 574.281 424.352 574.481 420.205C573.881 416.185 569.97 387.594 579.174 361.73H624.119C634.068 389.631 628.884 420.696 628.884 420.696L628.903 420.678Z" fill="white" stroke="#26144D" stroke-width="1.5" stroke-linecap="round" stroke-linejoin="round"/>
<path d="M617.826 373.116C608.968 378.227 594.562 378.209 585.649 373.062C576.737 367.915 576.682 359.603 585.54 354.492C594.398 349.381 608.804 349.399 617.716 354.546C626.629 359.694 626.684 368.006 617.826 373.116Z" fill="white" stroke="#26144D" stroke-width="1.5" stroke-linecap="round" stroke-linejoin="round"/>
<path d="M617.917 354.437C626.811 359.584 626.775 367.933 617.808 373.098C608.84 378.263 594.38 378.3 585.468 373.153C576.573 368.005 576.61 359.657 585.577 354.492C594.526 349.326 609.004 349.29 617.917 354.437Z" fill="#248CFF" stroke="#26144D" stroke-width="1.5" stroke-linecap="round" stroke-linejoin="round"/>
<path d="M591.688 381.301C591.688 381.301 585.94 421.842 580.702 418.641C574.827 415.039 567.442 389.649 567.442 389.649" fill="#E9E9E9"/>
<path d="M591.688 381.301C591.688 381.301 585.94 421.842 580.702 418.641C574.827 415.039 567.442 389.649 567.442 389.649" stroke="#26144D" stroke-width="1.5" stroke-linecap="round" stroke-linejoin="round"/>
<path d="M591.688 381.301C591.688 381.301 570.28 391.341 567.424 389.631C564.568 387.922 578.992 374.462 578.992 374.462L591.688 381.283V381.301Z" fill="#7D7D7B" stroke="#26144D" stroke-width="1.5" stroke-linecap="round" stroke-linejoin="round"/>
<path d="M612.003 357.839C617.66 361.094 617.624 366.405 611.931 369.697C606.237 372.989 597.052 373.007 591.395 369.734C585.738 366.478 585.775 361.167 591.468 357.875C597.161 354.583 606.347 354.565 612.003 357.839Z" stroke="white" stroke-width="1.5" stroke-linecap="round" stroke-linejoin="round"/>
<path d="M835.344 326.846L643.979 216.372V84.6187L835.344 195.092V326.846Z" fill="#E40133" stroke="#26144D" stroke-width="1.5" stroke-linecap="round" stroke-linejoin="round"/>
<path d="M835.344 195.42L643.979 84.946L717.044 42.7681L908.391 153.242L835.344 195.42Z" fill="white" stroke="#26144D" stroke-width="1.5" stroke-linecap="round" stroke-linejoin="round"/>
<path d="M908.537 284.668L835.472 326.846V195.092L908.537 152.915V284.668Z" fill="#D8D8D8" stroke="#26144D" stroke-width="1.5" stroke-linecap="round" stroke-linejoin="round"/>
<path d="M734.778 137.036V267.499" stroke="#26144D" stroke-width="1.5" stroke-linecap="round" stroke-linejoin="round"/>
<path d="M749.293 269.081L747.22 267.881C746.147 267.262 745.274 265.589 745.274 264.152V244.873C745.274 243.436 746.147 242.781 747.22 243.4L749.293 244.6C750.367 245.219 751.24 246.892 751.24 248.329V267.608C751.24 269.045 750.367 269.7 749.293 269.081Z" fill="white" stroke="#26144D" stroke-width="1.5" stroke-linecap="round" stroke-linejoin="round"/>
<path d="M724.046 254.185L721.973 252.985C720.9 252.366 720.027 250.693 720.027 249.256V229.977C720.027 228.54 720.9 227.885 721.973 228.504L724.046 229.704C725.12 230.323 725.993 231.996 725.993 233.433V252.712C725.993 254.149 725.12 254.804 724.046 254.185Z" fill="white" stroke="#26144D" stroke-width="1.5" stroke-linecap="round" stroke-linejoin="round"/>
<path d="M740.455 232.451V147.949" stroke="white" stroke-width="1.5" stroke-linecap="round" stroke-linejoin="round"/>
<path d="M649.491 180.906V96.4043" stroke="white" stroke-width="1.5" stroke-linecap="round" stroke-linejoin="round"/>
<path d="M946.915 232.851L1106.2 323.009L1006.27 378.41L846.985 288.252L946.915 232.851Z" fill="white" stroke="#26144D" stroke-width="1.5" stroke-linecap="round" stroke-linejoin="round"/>
<path d="M1006.27 378.41V789.804L1108.78 731.402L1106.2 323.009L1006.27 378.41Z" fill="#D8D8D8" stroke="#26144D" stroke-width="1.5" stroke-linecap="round" stroke-linejoin="round"/>
<path d="M1006.27 378.41L846.985 288.252V696.645L1006.27 789.804V378.41Z" fill="white" stroke="#26144D" stroke-width="1.5" stroke-linecap="round" stroke-linejoin="round"/>
<path d="M998.116 383.411L855.133 302.493V669.09L998.116 752.7V383.411Z" fill="#248CFF" stroke="#26144D" stroke-width="1.5" stroke-linecap="round" stroke-linejoin="round"/>
<path d="M847.057 548.049L1006.34 638.207L995.807 645.155L836.526 554.997L847.057 548.049Z" fill="white" stroke="#26144D" stroke-width="1.5" stroke-linecap="round" stroke-linejoin="round"/>
<path d="M1006.37 789.258L995.807 796.152V645.155L1006.34 638.207L1006.37 789.258Z" fill="white" stroke="#26144D" stroke-width="1.5" stroke-linecap="round" stroke-linejoin="round"/>
<path d="M995.807 645.154V796.006L836.526 706.357V554.997L995.807 645.154Z" fill="#E9E9E9" stroke="#26144D" stroke-width="1.5" stroke-linecap="round" stroke-linejoin="round"/>
<path d="M846.913 291.925L985.949 382.047L974.781 387.103L834.454 296.945L846.913 291.925Z" fill="white" stroke="#26144D" stroke-width="1.5" stroke-linecap="round" stroke-linejoin="round"/>
<path d="M985.985 635.533L974.781 641.644V387.121L985.949 382.047L985.985 635.533Z" fill="#D8D8D8" stroke="#26144D" stroke-width="1.5" stroke-linecap="round" stroke-linejoin="round"/>
<path d="M974.781 387.121V641.153L834.435 551.013V296.945L974.781 387.121Z" fill="#E9E9E9" stroke="#26144D" stroke-width="1.5" stroke-linecap="round" stroke-linejoin="round"/>
<path d="M842.549 540.1V318.752" stroke="white" stroke-width="1.5" stroke-linecap="round" stroke-linejoin="round"/>
<path d="M843.058 569.401V690.187" stroke="white" stroke-width="1.5" stroke-linecap="round" stroke-linejoin="round"/>
<path d="M956.758 469.349V597.701" stroke="#26144D" stroke-width="1.5" stroke-linecap="round" stroke-linejoin="round"/>
<path d="M577.48 505.598V510.727L541.648 488.865V483.736L570.114 501.105L577.48 505.598Z" fill="#565656" stroke="#26144D" stroke-width="1.5" stroke-linecap="round" stroke-linejoin="round"/>
<path d="M594.905 494.867L577.48 505.598L570.113 501.106L587.211 490.175L594.905 494.867Z" fill="#565656" stroke="#26144D" stroke-width="1.5" stroke-linecap="round" stroke-linejoin="round"/>
<path d="M587.211 490.174L570.114 501.105L541.648 483.736L559.073 473.023L587.211 490.174Z" fill="#248CFF" stroke="#26144D" stroke-width="1.5" stroke-linecap="round" stroke-linejoin="round"/>
<path d="M594.906 494.867V499.996L577.481 510.727V505.598L594.906 494.867Z" fill="#565656" stroke="#26144D" stroke-width="1.5" stroke-linecap="round" stroke-linejoin="round"/>
<path d="M559.293 477.934L550.126 483.626L568.951 495.176" stroke="white" stroke-width="1.5" stroke-linecap="round" stroke-linejoin="round"/>
<path d="M1263.24 461.765L1184.46 416.295V286.669L1263.24 332.157V461.765Z" fill="#D8D8D8" stroke="#26144D" stroke-width="1.5" stroke-linecap="round" stroke-linejoin="round"/>
<path d="M1254.8 445.996L1192.89 410.238V301.656L1254.8 337.395V445.996Z" fill="#B2B4B3" stroke="#26144D" stroke-width="1.5" stroke-linecap="round" stroke-linejoin="round"/>
<path d="M1006.67 790.385L1117.76 854.516V651.411L1006.67 587.28V790.385Z" fill="#E40133" stroke="#26144D" stroke-width="1.5" stroke-linecap="round" stroke-linejoin="round"/>
<path d="M1117.65 854.662L1219.49 795.86V592.755L1117.65 651.538V854.662Z" fill="white" stroke="#26144D" stroke-width="1.5" stroke-linecap="round" stroke-linejoin="round"/>
<path d="M1117.71 651.466L1006.61 587.335L1108.45 528.533L1219.55 592.682L1117.71 651.466Z" fill="white" stroke="#26144D" stroke-width="1.5" stroke-linecap="round" stroke-linejoin="round"/>
<path d="M1006.63 597.466L1117.73 661.597" stroke="#26144D" stroke-width="1.5" stroke-linecap="round" stroke-linejoin="round"/>
<path d="M1006.63 656.358L1117.73 720.507" stroke="#26144D" stroke-width="1.5" stroke-linecap="round" stroke-linejoin="round"/>
<path d="M1006.63 723.236L1117.73 787.385" stroke="#26144D" stroke-width="1.5" stroke-linecap="round" stroke-linejoin="round"/>
<path d="M1011.34 667.943L1108.38 724.544" stroke="white" stroke-width="1.5" stroke-linecap="round" stroke-linejoin="round"/>
<path d="M1011.34 608.814L1108.38 665.415" stroke="white" stroke-width="1.5" stroke-linecap="round" stroke-linejoin="round"/>
<path d="M1011.34 734.147L1108.38 790.748" stroke="white" stroke-width="1.5" stroke-linecap="round" stroke-linejoin="round"/>
<path d="M1117.33 854.552L1249.49 929.851V727.255L1117.33 651.975V854.552Z" fill="white" stroke="#26144D" stroke-width="1.5" stroke-linecap="round" stroke-linejoin="round"/>
<path d="M1249.36 929.978L1350.95 871.321V668.744L1249.36 727.382V929.978Z" fill="#D8D8D8" stroke="#26144D" stroke-width="1.5" stroke-linecap="round" stroke-linejoin="round"/>
<path d="M1249.43 727.309L1117.29 652.029L1218.86 593.391L1351 668.671L1249.43 727.309Z" fill="white" stroke="#26144D" stroke-width="1.5" stroke-linecap="round" stroke-linejoin="round"/>
<path d="M1213.95 839.402L1227.57 847.259C1230.59 849.005 1233.03 847.15 1233.03 843.13V830.29C1233.03 826.27 1230.59 821.614 1227.57 819.868L1213.95 812.011V839.402Z" fill="white" stroke="#26144D" stroke-width="1.5" stroke-linecap="round" stroke-linejoin="round"/>
<path d="M1188.64 728.599C1192.4 726.429 1192.4 719.395 1188.64 712.888C1184.88 706.381 1178.79 702.865 1175.03 705.035C1171.27 707.204 1171.27 714.238 1175.03 720.745C1178.79 727.252 1184.88 730.768 1188.64 728.599Z" fill="#666666" stroke="#26144D" stroke-width="1.5" stroke-linecap="round" stroke-linejoin="round"/>
<path d="M1152.76 710.886L1132.72 699.318C1130.66 698.136 1128.99 694.953 1128.99 692.207V681.767C1128.99 679.02 1130.66 677.765 1132.72 678.948L1152.76 690.515C1154.82 691.697 1156.49 694.88 1156.49 697.627V708.067C1156.49 710.813 1154.82 712.068 1152.76 710.886Z" fill="#D8D8D8" stroke="#26144D" stroke-width="1.5" stroke-linecap="round" stroke-linejoin="round"/>
<path d="M1230.48 753.718L1210.44 742.151C1208.38 740.968 1206.71 737.786 1206.71 735.039V724.599C1206.71 721.853 1208.38 720.598 1210.44 721.78L1230.48 733.348C1232.54 734.53 1234.21 737.713 1234.21 740.459V750.899C1234.21 753.645 1232.54 754.9 1230.48 753.718Z" fill="#D8D8D8" stroke="#26144D" stroke-width="1.5" stroke-linecap="round" stroke-linejoin="round"/>
<path d="M1233.52 908.716L1213.48 897.149C1211.42 895.966 1209.75 892.784 1209.75 890.037V879.597C1209.75 876.851 1211.42 875.596 1213.48 876.778L1233.52 888.346C1235.58 889.528 1237.25 892.711 1237.25 895.457V905.897C1237.25 908.644 1235.58 909.898 1233.52 908.716Z" fill="white" stroke="#26144D" stroke-width="1.5" stroke-linecap="round" stroke-linejoin="round"/>
<path d="M1184.52 719.088L1179.13 715.996V700.5L1184.52 703.592V719.088Z" fill="#666666" stroke="#26144D" stroke-width="1.5" stroke-linecap="round" stroke-linejoin="round"/>
<path d="M1249.43 778.999L1117.29 703.719" stroke="#26144D" stroke-width="1.5" stroke-linecap="round" stroke-linejoin="round"/>
<path d="M1207.41 856.943C1223.78 847.496 1223.78 816.861 1207.41 788.52C1191.05 760.178 1164.52 744.86 1148.15 754.308C1131.79 763.755 1131.79 794.389 1148.15 822.731C1164.52 851.073 1191.05 866.39 1207.41 856.943Z" fill="#D8D8D8" stroke="#26144D" stroke-width="1.5" stroke-linecap="round" stroke-linejoin="round"/>
<path d="M1209.69 824.015C1209.69 826.634 1209.46 829.035 1209 831.235C1205.96 846.168 1193.16 851.278 1177.81 842.421C1160.18 832.254 1145.9 807.518 1145.9 787.184C1145.9 770.742 1155.22 762.212 1168.09 764.922C1171.15 765.54 1174.42 766.813 1177.81 768.76C1195.41 778.945 1209.69 803.662 1209.69 824.015Z" fill="#666666" stroke="#26144D" stroke-width="1.5" stroke-linecap="round" stroke-linejoin="round"/>
<path d="M1208.16 825.143C1208.16 827.762 1207.93 830.162 1207.47 832.363C1202.51 834.964 1195.8 834.437 1188.41 830.162C1173.13 821.359 1160.75 799.916 1160.75 782.273C1160.75 774.889 1162.93 769.342 1166.57 766.05C1169.62 766.668 1172.9 767.941 1176.28 769.887C1193.89 780.073 1208.16 804.79 1208.16 825.143Z" fill="#909090"/>
<path d="M1185.45 838.438C1167.84 828.271 1153.54 803.535 1153.54 783.201" stroke="white" stroke-width="1.5" stroke-linecap="round" stroke-linejoin="round"/>
<path d="M876.165 903.369V771.361L868.49 766.923V898.931L876.165 903.369Z" fill="white" stroke="#26144D" stroke-width="1.5" stroke-linecap="round" stroke-linejoin="round"/>
<path d="M883.822 766.923V898.931L876.164 903.369V771.361L883.822 766.923Z" fill="#B2B4B3" stroke="#26144D" stroke-width="1.5" stroke-linecap="round" stroke-linejoin="round"/>
<path d="M928.221 872.595V740.587L920.564 736.149V868.157L928.221 872.595Z" fill="white" stroke="#26144D" stroke-width="1.5" stroke-linecap="round" stroke-linejoin="round"/>
<path d="M935.88 736.149V868.157L928.222 872.595V740.587L935.88 736.149Z" fill="#B2B4B3" stroke="#26144D" stroke-width="1.5" stroke-linecap="round" stroke-linejoin="round"/>
<path d="M824.089 872.595V740.587L816.432 736.149V868.157L824.089 872.595Z" fill="white" stroke="#26144D" stroke-width="1.5" stroke-linecap="round" stroke-linejoin="round"/>
<path d="M831.747 736.149V868.157L824.089 872.595V740.587L831.747 736.149Z" fill="#B2B4B3" stroke="#26144D" stroke-width="1.5" stroke-linecap="round" stroke-linejoin="round"/>
<path d="M876.163 780.073V770.561L812.574 733.694V743.188L876.163 780.073Z" fill="#004DA9" stroke="#26144D" stroke-width="1.5" stroke-linecap="round" stroke-linejoin="round"/>
<path d="M876.163 696.809L939.733 733.694L876.163 770.561L812.574 733.694L876.163 696.809Z" fill="#0069EA" stroke="#26144D" stroke-width="1.5" stroke-linecap="round" stroke-linejoin="round"/>
<path d="M939.733 733.694V743.188L876.162 780.073V770.561L939.733 733.694Z" fill="#0069EA" stroke="#26144D" stroke-width="1.5" stroke-linecap="round" stroke-linejoin="round"/>
<path d="M823.469 733.966L876.908 703.647" stroke="white" stroke-width="1.5" stroke-linecap="round" stroke-linejoin="round"/>
<path d="M386.805 845.241L555.489 747.844V545.266L386.805 642.645V845.241Z" fill="white" stroke="#26144D" stroke-width="1.5" stroke-linecap="round" stroke-linejoin="round"/>
<path d="M386.478 642.535L555.181 545.139L453.595 486.5L284.911 583.897L386.478 642.535Z" fill="#B2B4B3" stroke="#26144D" stroke-width="1.5" stroke-linecap="round" stroke-linejoin="round"/>
<path d="M386.642 845.186L285.057 786.548V583.97L386.642 642.608V845.186Z" fill="white" stroke="#26144D" stroke-width="1.5" stroke-linecap="round" stroke-linejoin="round"/>
<path d="M416.926 808.391L525.368 745.788C528.06 744.242 530.225 740.077 530.225 736.494V640.043C530.225 636.46 528.042 634.823 525.368 636.369L416.926 698.972C414.234 700.518 412.069 704.683 412.069 708.266V804.717C412.069 808.3 414.252 809.937 416.926 808.391Z" fill="#666666" stroke="#26144D" stroke-width="1.5" stroke-linecap="round" stroke-linejoin="round"/>
<path d="M534.994 599.027C539.102 591.911 539.097 584.217 534.982 581.841C530.867 579.465 524.201 583.308 520.092 590.424C515.984 597.54 515.989 605.234 520.104 607.61C524.219 609.986 530.885 606.143 534.994 599.027Z" fill="#7D7D7B" stroke="#26144D" stroke-width="1.5" stroke-linecap="round" stroke-linejoin="round"/>
<path d="M516.2 605.413L538.9 592.318C540.392 591.445 541.61 589.135 541.61 587.134V586.116C541.61 584.115 540.392 583.206 538.9 584.061L516.2 597.156C514.709 598.029 513.49 600.339 513.49 602.34V603.358C513.49 605.359 514.709 606.268 516.2 605.413Z" fill="#7D7D7B" stroke="#26144D" stroke-width="1.5" stroke-linecap="round" stroke-linejoin="round"/>
<path d="M499.589 619.458C503.697 612.342 503.692 604.647 499.577 602.272C495.462 599.896 488.796 603.739 484.687 610.855C480.579 617.971 480.584 625.665 484.699 628.041C488.814 630.416 495.48 626.574 499.589 619.458Z" fill="#7D7D7B" stroke="#26144D" stroke-width="1.5" stroke-linecap="round" stroke-linejoin="round"/>
<path d="M480.806 625.857L503.506 612.762C504.997 611.889 506.216 609.579 506.216 607.578V606.56C506.216 604.559 504.997 603.65 503.506 604.505L480.806 617.6C479.314 618.473 478.096 620.783 478.096 622.783V623.802C478.096 625.803 479.314 626.712 480.806 625.857Z" fill="#7D7D7B" stroke="#26144D" stroke-width="1.5" stroke-linecap="round" stroke-linejoin="round"/>
<path d="M463.809 640.125C467.917 633.009 467.912 625.315 463.797 622.939C459.682 620.564 453.016 624.406 448.907 631.522C444.798 638.638 444.804 646.333 448.918 648.708C453.033 651.084 459.7 647.241 463.809 640.125Z" fill="#7D7D7B" stroke="#26144D" stroke-width="1.5" stroke-linecap="round" stroke-linejoin="round"/>
<path d="M445.01 646.519L467.71 633.424C469.201 632.551 470.42 630.241 470.42 628.24V627.221C470.42 625.221 469.201 624.311 467.71 625.166L445.01 638.262C443.519 639.135 442.3 641.444 442.3 643.445V644.464C442.3 646.464 443.519 647.374 445.01 646.519Z" fill="#7D7D7B" stroke="#26144D" stroke-width="1.5" stroke-linecap="round" stroke-linejoin="round"/>
<path d="M428.519 660.498C432.628 653.382 432.623 645.687 428.508 643.312C424.393 640.936 417.726 644.779 413.618 651.895C409.509 659.011 409.514 666.705 413.629 669.081C417.744 671.456 424.411 667.614 428.519 660.498Z" fill="#7D7D7B" stroke="#26144D" stroke-width="1.5" stroke-linecap="round" stroke-linejoin="round"/>
<path d="M409.722 666.889L432.421 653.794C433.913 652.921 435.132 650.611 435.132 648.611V647.592C435.132 645.591 433.913 644.682 432.421 645.537L409.722 658.632C408.23 659.505 407.011 661.815 407.011 663.816V664.834C407.011 666.835 408.23 667.744 409.722 666.889Z" fill="#7D7D7B" stroke="#26144D" stroke-width="1.5" stroke-linecap="round" stroke-linejoin="round"/>
<path d="M554.98 602.049L387.387 698.809" stroke="#26144D" stroke-width="1.5" stroke-linecap="round" stroke-linejoin="round"/>
<path d="M459.87 693.934L482.57 680.839C484.062 679.966 485.28 677.656 485.28 675.655V674.637C485.28 672.636 484.062 671.727 482.57 672.582L459.87 685.677C458.379 686.55 457.16 688.86 457.16 690.861V691.879C457.16 693.88 458.379 694.789 459.87 693.934Z" fill="#B2B4B3" stroke="#26144D" stroke-width="1.5" stroke-linecap="round" stroke-linejoin="round"/>
<path d="M307.774 570.929L409.359 629.567" stroke="#26144D" stroke-width="1.5" stroke-linecap="round" stroke-linejoin="round"/>
<path d="M431.914 498.941L533.481 557.579" stroke="#26144D" stroke-width="1.5" stroke-linecap="round" stroke-linejoin="round"/>
<path d="M469.803 575.167C483.856 575.167 495.249 568.588 495.249 560.471C495.249 552.355 483.856 545.775 469.803 545.775C455.749 545.775 444.356 552.355 444.356 560.471C444.356 568.588 455.749 575.167 469.803 575.167Z" fill="#7D7D7B" stroke="#26144D" stroke-width="1.5" stroke-linecap="round" stroke-linejoin="round"/>
<path d="M418.509 604.796C432.562 604.796 443.955 598.216 443.955 590.1C443.955 581.983 432.562 575.404 418.509 575.404C404.455 575.404 393.062 581.983 393.062 590.1C393.062 598.216 404.455 604.796 418.509 604.796Z" fill="white" stroke="#26144D" stroke-width="1.5" stroke-linecap="round" stroke-linejoin="round"/>
<path d="M424.076 548.776C438.13 548.776 449.522 542.197 449.522 534.08C449.522 525.964 438.13 519.384 424.076 519.384C410.022 519.384 398.63 525.964 398.63 534.08C398.63 542.197 410.022 548.776 424.076 548.776Z" fill="#7D7D7B" stroke="#26144D" stroke-width="1.5" stroke-linecap="round" stroke-linejoin="round"/>
<path d="M372.781 578.386C386.835 578.386 398.227 571.807 398.227 563.691C398.227 555.574 386.835 548.995 372.781 548.995C358.727 548.995 347.335 555.574 347.335 563.691C347.335 571.807 358.727 578.386 372.781 578.386Z" fill="#7D7D7B" stroke="#26144D" stroke-width="1.5" stroke-linecap="round" stroke-linejoin="round"/>
<path d="M417.528 801.352V712.922" stroke="white" stroke-width="1.5" stroke-linecap="round" stroke-linejoin="round"/>
<path d="M407.414 622.473L324.546 574.966" stroke="white" stroke-width="1.5" stroke-linecap="round" stroke-linejoin="round"/>
<path d="M450.886 503.706L533.264 551.722" stroke="white" stroke-width="1.5" stroke-linecap="round" stroke-linejoin="round"/>
<path d="M524.17 737.695V678.056" stroke="white" stroke-width="1.5" stroke-linecap="round" stroke-linejoin="round"/>
<path d="M450.358 546.939C450.14 546.939 449.94 546.83 449.831 546.63C449.667 546.339 449.758 545.975 450.049 545.794L453.323 543.902C453.814 543.611 454.105 543.265 454.105 542.92C454.105 542.574 453.814 542.229 453.323 541.938L447.448 538.555C446.193 537.827 444.083 537.827 442.828 538.555L439.554 540.446C439.263 540.61 438.899 540.519 438.717 540.228C438.553 539.937 438.644 539.573 438.935 539.391L442.209 537.5C443.846 536.554 446.411 536.554 448.048 537.5L453.923 540.883C454.814 541.392 455.306 542.12 455.306 542.92C455.306 543.72 454.814 544.429 453.923 544.957L450.649 546.848C450.558 546.903 450.449 546.921 450.34 546.921L450.358 546.939Z" fill="white" stroke="#26144D" stroke-width="1.5" stroke-linecap="round" stroke-linejoin="round"/>
<path d="M387.862 550.741V589.535C387.934 594.064 390.954 598.557 396.938 602.012C409.034 608.997 428.641 608.997 440.719 602.012C446.83 598.484 449.868 593.846 449.795 589.208V550.413L387.88 550.741H387.862Z" fill="white" stroke="#26144D" stroke-width="1.5" stroke-linecap="round" stroke-linejoin="round"/>
<path d="M418.819 568.455C435.917 568.455 449.777 560.451 449.777 550.577C449.777 540.702 435.917 532.698 418.819 532.698C401.722 532.698 387.862 540.702 387.862 550.577C387.862 560.451 401.722 568.455 418.819 568.455Z" fill="white" stroke="#26144D" stroke-width="1.5" stroke-linecap="round" stroke-linejoin="round"/>
<path d="M441.264 547.085C428.86 540.046 408.761 540.046 396.374 547.085C392.336 549.376 389.626 552.141 388.225 555.069C389.626 557.998 392.336 560.762 396.374 563.054C408.779 570.093 428.878 570.093 441.264 563.054C445.302 560.762 448.013 557.998 449.413 555.069C448.013 552.141 445.302 549.376 441.264 547.085Z" fill="white" stroke="#26144D" stroke-width="1.5" stroke-linecap="round" stroke-linejoin="round"/>
<path d="M401.466 579.059C401.12 579.059 400.866 578.786 400.866 578.459V576.076L398.501 577.44C396.864 578.386 394.3 578.386 392.663 577.44L386.788 574.057C385.896 573.548 385.405 572.82 385.405 572.02C385.405 571.22 385.896 570.511 386.788 569.983L390.062 568.092C390.243 567.982 390.48 567.982 390.662 568.092C390.844 568.201 390.971 568.401 390.971 568.619V572.111C390.971 572.457 390.698 572.711 390.371 572.711C390.043 572.711 389.77 572.439 389.77 572.111V569.674L387.406 571.038C386.915 571.329 386.624 571.675 386.624 572.02C386.624 572.366 386.915 572.711 387.406 573.002L393.281 576.385C394.536 577.113 396.646 577.113 397.901 576.385L401.175 574.494C401.357 574.385 401.593 574.385 401.775 574.494C401.957 574.603 402.084 574.803 402.084 575.021V578.459C402.084 578.804 401.812 579.059 401.484 579.059H401.466Z" fill="white" stroke="#26144D" stroke-width="1.5" stroke-linecap="round" stroke-linejoin="round"/>
<path d="M386.642 845.713L275.835 909.68V707.102L386.642 643.135V845.713Z" fill="#E40133" stroke="#26144D" stroke-width="1.5" stroke-linecap="round" stroke-linejoin="round"/>
<path d="M275.943 909.808L174.376 851.17V648.592L275.943 707.23V909.808Z" fill="white" stroke="#26144D" stroke-width="1.5" stroke-linecap="round" stroke-linejoin="round"/>
<path d="M275.889 707.157L386.696 643.19L285.129 584.552L174.304 648.519L275.889 707.157Z" fill="#E9E9E9" stroke="#26144D" stroke-width="1.5" stroke-linecap="round" stroke-linejoin="round"/>
<path d="M326.691 709.54L292.715 729.146C291.532 729.819 290.586 729.11 290.586 727.546V725.818C290.586 724.254 291.532 722.435 292.715 721.744L326.691 702.137C327.874 701.464 328.82 702.174 328.82 703.738V705.466C328.82 707.03 327.874 708.849 326.691 709.54Z" fill="white" stroke="#26144D" stroke-width="1.5" stroke-linecap="round" stroke-linejoin="round"/>
<path d="M386.679 653.303L275.872 717.27" stroke="#26144D" stroke-width="1.5" stroke-linecap="round" stroke-linejoin="round"/>
<path d="M283.094 745.77V895.857" stroke="white" stroke-width="1.5" stroke-linecap="round" stroke-linejoin="round"/>
<path d="M725.576 870.066L725.048 1058.71L737.726 1051.35L738.272 862.682L725.576 870.066Z" fill="#B2B4B3" stroke="#26144D" stroke-width="1.5" stroke-linecap="round" stroke-linejoin="round"/>
<path d="M712.807 862.682L712.28 1051.35L725.048 1058.71L725.576 870.066L712.807 862.682Z" fill="white" stroke="#26144D" stroke-width="1.5" stroke-linecap="round" stroke-linejoin="round"/>
<path d="M738.272 862.682L725.503 855.334L712.808 862.682L725.576 870.066L738.272 862.682Z" fill="white" stroke="#26144D" stroke-width="1.5" stroke-linecap="round" stroke-linejoin="round"/>
<path d="M559.402 755.974L558.875 944.638L571.552 937.253L572.098 748.607L559.402 755.974Z" fill="#B2B4B3" stroke="#26144D" stroke-width="1.5" stroke-linecap="round" stroke-linejoin="round"/>
<path d="M546.633 748.607L546.106 937.253L558.875 944.638L559.402 755.974L546.633 748.607Z" fill="white" stroke="#26144D" stroke-width="1.5" stroke-linecap="round" stroke-linejoin="round"/>
<path d="M572.098 748.607L559.33 741.241L546.634 748.607L559.403 755.973L572.098 748.607Z" fill="white" stroke="#26144D" stroke-width="1.5" stroke-linecap="round" stroke-linejoin="round"/>
<path d="M890.332 764.14L889.786 952.804L902.482 945.419L903.01 756.773L890.332 764.14Z" fill="#B2B4B3" stroke="#26144D" stroke-width="1.5" stroke-linecap="round" stroke-linejoin="round"/>
<path d="M877.563 756.773L877.018 945.419L889.786 952.804L890.332 764.14L877.563 756.773Z" fill="white" stroke="#26144D" stroke-width="1.5" stroke-linecap="round" stroke-linejoin="round"/>
<path d="M877.563 756.773L877.018 945.419L889.786 952.804L890.332 764.14L877.563 756.773Z" fill="white" stroke="#26144D" stroke-width="1.5" stroke-linecap="round" stroke-linejoin="round"/>
<path d="M903.01 756.774L890.241 749.408L877.564 756.774L890.332 764.14L903.01 756.774Z" fill="white" stroke="#26144D" stroke-width="1.5" stroke-linecap="round" stroke-linejoin="round"/>
<path d="M916.105 786.002C915.941 786.02 915.778 786.057 915.614 786.093C911.885 811.083 893.605 835.455 860.683 854.589C786.145 897.913 664.843 897.895 589.814 854.589C556.146 835.146 537.52 810.301 533.919 784.911C533.883 784.911 533.846 784.911 533.81 784.911C533.61 784.856 533.428 784.802 533.228 784.747V791.822C533.119 820.395 551.999 849.023 589.759 870.831C664.788 914.155 786.072 914.155 860.629 870.831C897.661 849.314 916.214 821.141 916.287 792.932V786.02C916.287 786.02 916.123 786.02 916.105 786.02V786.002Z" fill="#B2B4B3" stroke="#26144D" stroke-width="1.5" stroke-linecap="round" stroke-linejoin="round"/>
<path d="M859.793 707.339C934.822 750.645 935.24 820.905 860.684 864.247C786.146 907.57 664.844 907.534 589.814 864.247C514.748 820.923 514.366 750.681 588.905 707.357C663.479 664.033 784.727 664.033 859.793 707.357V707.339Z" fill="white" stroke="#26144D" stroke-width="1.5" stroke-linecap="round" stroke-linejoin="round"/>
<path d="M566.862 1094.4V962.39L559.204 957.934V1089.96L566.862 1094.4Z" fill="white" stroke="#26144D" stroke-width="1.5" stroke-linecap="round" stroke-linejoin="round"/>
<path d="M574.537 957.934V1089.96L566.861 1094.4V962.39L574.537 957.934Z" fill="#B2B4B3" stroke="#26144D" stroke-width="1.5" stroke-linecap="round" stroke-linejoin="round"/>
<path d="M618.936 1063.62V931.615L611.278 927.159V1059.19L618.936 1063.62Z" fill="white" stroke="#26144D" stroke-width="1.5" stroke-linecap="round" stroke-linejoin="round"/>
<path d="M626.594 927.159V1059.19L618.936 1063.62V931.615L626.594 927.159Z" fill="#B2B4B3" stroke="#26144D" stroke-width="1.5" stroke-linecap="round" stroke-linejoin="round"/>
<path d="M514.804 1063.62V931.615L507.146 927.159V1059.19L514.804 1063.62Z" fill="white" stroke="#26144D" stroke-width="1.5" stroke-linecap="round" stroke-linejoin="round"/>
<path d="M522.461 927.159V1059.19L514.803 1063.62V931.615L522.461 927.159Z" fill="#B2B4B3" stroke="#26144D" stroke-width="1.5" stroke-linecap="round" stroke-linejoin="round"/>
<path d="M566.859 971.083V961.589L503.289 924.704V934.216L566.859 971.083Z" fill="#004DA9" stroke="#26144D" stroke-width="1.5" stroke-linecap="round" stroke-linejoin="round"/>
<path d="M566.859 887.837L630.447 924.704L566.859 961.589L503.289 924.704L566.859 887.837Z" fill="#0069EA" stroke="#26144D" stroke-width="1.5" stroke-linecap="round" stroke-linejoin="round"/>
<path d="M630.447 924.704V934.216L566.858 971.083V961.589L630.447 924.704Z" fill="#0069EA" stroke="#26144D" stroke-width="1.5" stroke-linecap="round" stroke-linejoin="round"/>
<path d="M514.566 924.794L568.005 894.475" stroke="white" stroke-width="1.5" stroke-linecap="round" stroke-linejoin="round"/>
<path d="M865.16 1114.11V982.088L857.502 977.65V1109.66L865.16 1114.11Z" fill="white" stroke="#26144D" stroke-width="1.5" stroke-linecap="round" stroke-linejoin="round"/>
<path d="M872.817 977.65V1109.66L865.16 1114.11V982.088L872.817 977.65Z" fill="#B2B4B3" stroke="#26144D" stroke-width="1.5" stroke-linecap="round" stroke-linejoin="round"/>
<path d="M917.234 1083.34V951.313L909.577 946.875V1078.88L917.234 1083.34Z" fill="white" stroke="#26144D" stroke-width="1.5" stroke-linecap="round" stroke-linejoin="round"/>
<path d="M924.892 946.875V1078.88L917.235 1083.34V951.313L924.892 946.875Z" fill="#B2B4B3" stroke="#26144D" stroke-width="1.5" stroke-linecap="round" stroke-linejoin="round"/>
<path d="M813.102 1083.34V951.313L805.445 946.875V1078.88L813.102 1083.34Z" fill="white" stroke="#26144D" stroke-width="1.5" stroke-linecap="round" stroke-linejoin="round"/>
<path d="M820.759 946.875V1078.88L813.102 1083.34V951.313L820.759 946.875Z" fill="#B2B4B3" stroke="#26144D" stroke-width="1.5" stroke-linecap="round" stroke-linejoin="round"/>
<path d="M865.158 990.799V981.287L801.588 944.42V953.914L865.158 990.799Z" fill="#004DA9" stroke="#26144D" stroke-width="1.5" stroke-linecap="round" stroke-linejoin="round"/>
<path d="M865.158 907.553L928.747 944.42L865.158 981.287L801.588 944.42L865.158 907.553Z" fill="#0069EA" stroke="#26144D" stroke-width="1.5" stroke-linecap="round" stroke-linejoin="round"/>
<path d="M928.745 944.42V953.914L865.156 990.799V981.287L928.745 944.42Z" fill="#0069EA" stroke="#26144D" stroke-width="1.5" stroke-linecap="round" stroke-linejoin="round"/>
<path d="M813.61 945.074L867.049 914.755" stroke="white" stroke-width="1.5" stroke-linecap="round" stroke-linejoin="round"/>
<path d="M367.707 464.511L287.912 418.132L287.876 407.055L367.689 453.435L367.707 464.511Z" fill="#004DA9" stroke="#26144D" stroke-width="1.5" stroke-linecap="round" stroke-linejoin="round"/>
<path d="M367.689 453.434L287.876 407.055L416.399 332.848L496.194 379.228L367.689 453.434Z" fill="#248CFF" stroke="#26144D" stroke-width="1.5" stroke-linecap="round" stroke-linejoin="round"/>
<path d="M496.193 379.228L496.229 390.304L367.706 464.511L367.688 453.435L496.193 379.228Z" fill="#0069EA" stroke="#26144D" stroke-width="1.5" stroke-linecap="round" stroke-linejoin="round"/>
<path d="M351.191 256.986L379.33 421.951L320.925 387.957L321.343 240.289L351.191 256.986Z" fill="#004DA9" stroke="#26144D" stroke-width="1.5" stroke-linecap="round" stroke-linejoin="round"/>
<path d="M409.686 223.265L437.825 388.23L379.329 421.951L351.191 256.986L409.686 223.265Z" fill="#0069EA" stroke="#26144D" stroke-width="1.5" stroke-linecap="round" stroke-linejoin="round"/>
<path d="M379.839 206.569L409.687 223.265L351.192 256.986L321.344 240.289L379.839 206.569Z" fill="#248CFF" stroke="#26144D" stroke-width="1.5" stroke-linecap="round" stroke-linejoin="round"/>
<path d="M329.603 240.435L379.131 212.625" stroke="white" stroke-width="1.5" stroke-linecap="round" stroke-linejoin="round"/>
<path d="M326.057 276.302V383.447" stroke="white" stroke-width="1.5" stroke-linecap="round" stroke-linejoin="round"/>
<path d="M367.999 447.614L485.754 379.391" stroke="white" stroke-width="1.5" stroke-linecap="round" stroke-linejoin="round"/>
<path d="M496.596 346.78V333.994L630.957 256.077V268.863L496.596 346.78Z" fill="#B2B4B3" stroke="#26144D" stroke-width="1.5" stroke-linecap="round" stroke-linejoin="round"/>
<path d="M630.958 256.077L584.958 229.304L450.596 307.24L496.596 333.994L630.958 256.077Z" fill="#D8D8D8" stroke="#26144D" stroke-width="1.5" stroke-linecap="round" stroke-linejoin="round"/>
<path d="M496.596 346.78V333.994L450.596 307.24V320.026L496.596 346.78Z" fill="#7D7D7B" stroke="#26144D" stroke-width="1.5" stroke-linecap="round" stroke-linejoin="round"/>
<path d="M482.007 281.522V308.585C482.043 310.95 483.626 313.296 486.736 315.097C493.048 318.734 503.288 318.734 509.599 315.097C512.801 313.26 514.365 310.823 514.329 308.404V281.34L482.007 281.504V281.522Z" fill="white" stroke="#26144D" stroke-width="1.5" stroke-linecap="round" stroke-linejoin="round"/>
<path d="M498.177 290.78C507.107 290.78 514.347 286.602 514.347 281.449C514.347 276.296 507.107 272.119 498.177 272.119C489.246 272.119 482.007 276.296 482.007 281.449C482.007 286.602 489.246 290.78 498.177 290.78Z" fill="white" stroke="#26144D" stroke-width="1.5" stroke-linecap="round" stroke-linejoin="round"/>
<path d="M562.165 232.45V259.514C562.202 261.879 563.784 264.225 566.894 266.025C573.206 269.663 583.446 269.663 589.758 266.025C592.959 264.188 594.523 261.751 594.487 259.332V232.269L562.165 232.432V232.45Z" fill="white" stroke="#26144D" stroke-width="1.5" stroke-linecap="round" stroke-linejoin="round"/>
<path d="M578.335 241.69C587.265 241.69 594.505 237.513 594.505 232.36C594.505 227.207 587.265 223.029 578.335 223.029C569.405 223.029 562.165 227.207 562.165 232.36C562.165 237.513 569.405 241.69 578.335 241.69Z" fill="white" stroke="#26144D" stroke-width="1.5" stroke-linecap="round" stroke-linejoin="round"/>
<path d="M496.596 295.235V282.449L630.957 204.532V217.318L496.596 295.235Z" fill="#B2B4B3" stroke="#26144D" stroke-width="1.5" stroke-linecap="round" stroke-linejoin="round"/>
<path d="M630.958 204.532L584.958 177.759L450.596 255.695L496.596 282.449L630.958 204.532Z" fill="#D8D8D8" stroke="#26144D" stroke-width="1.5" stroke-linecap="round" stroke-linejoin="round"/>
<path d="M496.596 295.236V282.449L450.596 255.695V268.481L496.596 295.236Z" fill="#7D7D7B" stroke="#26144D" stroke-width="1.5" stroke-linecap="round" stroke-linejoin="round"/>
<path d="M554.398 181.67V208.733C554.435 211.098 556.017 213.444 559.128 215.245C565.439 218.882 575.68 218.882 581.991 215.245C585.192 213.408 586.757 210.971 586.72 208.552V181.488L554.398 181.651V181.67Z" fill="white" stroke="#26144D" stroke-width="1.5" stroke-linecap="round" stroke-linejoin="round"/>
<path d="M570.568 190.909C579.499 190.909 586.738 186.732 586.738 181.579C586.738 176.426 579.499 172.249 570.568 172.249C561.638 172.249 554.398 176.426 554.398 181.579C554.398 186.732 561.638 190.909 570.568 190.909Z" fill="#E9E9E9" stroke="#26144D" stroke-width="1.5" stroke-linecap="round" stroke-linejoin="round"/>
<path d="M522.896 190.346V223.775C522.95 226.685 524.897 229.595 528.753 231.814C536.556 236.325 549.197 236.325 557 231.814C560.947 229.541 562.893 226.54 562.857 223.557V190.127L522.914 190.346H522.896Z" fill="white" stroke="#26144D" stroke-width="1.5" stroke-linecap="round" stroke-linejoin="round"/>
<path d="M542.867 201.767C553.897 201.767 562.838 196.605 562.838 190.236C562.838 183.868 553.897 178.705 542.867 178.705C531.837 178.705 522.896 183.868 522.896 190.236C522.896 196.605 531.837 201.767 542.867 201.767Z" fill="#E9E9E9" stroke="#26144D" stroke-width="1.5" stroke-linecap="round" stroke-linejoin="round"/>
<path d="M485.992 217.281V244.345C486.029 246.71 487.611 249.056 490.722 250.857C497.033 254.494 507.273 254.494 513.585 250.857C516.786 249.02 518.351 246.582 518.314 244.163V217.1L485.992 217.263V217.281Z" fill="white" stroke="#26144D" stroke-width="1.5" stroke-linecap="round" stroke-linejoin="round"/>
<path d="M502.144 226.539C511.074 226.539 518.314 222.362 518.314 217.209C518.314 212.056 511.074 207.878 502.144 207.878C493.213 207.878 485.974 212.056 485.974 217.209C485.974 222.362 493.213 226.539 502.144 226.539Z" fill="#E9E9E9" stroke="#26144D" stroke-width="1.5" stroke-linecap="round" stroke-linejoin="round"/>
<path d="M674.919 763.867C674.864 747.862 697.473 734.821 725.411 734.712C753.349 734.621 776.049 747.516 776.104 763.503C776.176 779.491 753.568 792.55 725.611 792.659C697.691 792.75 674.991 779.854 674.937 763.867H674.919Z" fill="#E9E9E9" stroke="#26144D" stroke-width="1.5" stroke-linecap="round" stroke-linejoin="round"/>
<path d="M727.812 744.424C727.812 753.245 720.664 760.393 711.842 760.393C703.021 760.393 695.872 753.245 695.872 744.424C695.872 735.603 703.021 728.455 711.842 728.455C720.664 728.455 727.812 735.603 727.812 744.424Z" fill="#FFBF33" stroke="#26144D" stroke-width="1.5" stroke-linecap="round" stroke-linejoin="round"/>
<path d="M712.225 761.175C712.225 769.978 705.077 777.144 696.255 777.144C687.433 777.144 680.285 769.996 680.285 761.175C680.285 752.354 687.433 745.206 696.255 745.206C705.077 745.206 712.225 752.354 712.225 761.175Z" fill="#FFBF33" stroke="#26144D" stroke-width="1.5" stroke-linecap="round" stroke-linejoin="round"/>
<path d="M757.406 747.153C757.406 755.974 750.258 763.122 741.436 763.122C732.615 763.122 725.466 755.974 725.466 747.153C725.466 738.331 732.615 731.184 741.436 731.184C750.258 731.184 757.406 738.331 757.406 747.153Z" fill="#FFBF33" stroke="#26144D" stroke-width="1.5" stroke-linecap="round" stroke-linejoin="round"/>
<path d="M735.598 770.524C735.598 779.327 728.449 786.493 719.628 786.493C710.806 786.493 703.658 779.345 703.658 770.524C703.658 761.703 710.806 754.555 719.628 754.555C728.449 754.555 735.598 761.703 735.598 770.524Z" fill="#FFBF33" stroke="#26144D" stroke-width="1.5" stroke-linecap="round" stroke-linejoin="round"/>
<path d="M765.953 759.611C765.953 768.432 758.805 775.58 749.983 775.58C741.161 775.58 734.013 768.432 734.013 759.611C734.013 750.79 741.161 743.642 749.983 743.642C758.805 743.642 765.953 750.79 765.953 759.611Z" fill="#FFBF33" stroke="#26144D" stroke-width="1.5" stroke-linecap="round" stroke-linejoin="round"/>
<path d="M615.659 837.838L575.244 814.503L615.659 791.167L656.075 814.503L615.659 837.838Z" fill="#D8D8D8" stroke="#26144D" stroke-width="1.5" stroke-linecap="round" stroke-linejoin="round"/>
<path d="M600.127 837.565C600.091 827.125 616.643 818.613 637.123 818.54C657.604 818.486 674.229 826.889 674.265 837.31C674.32 847.75 657.75 856.262 637.269 856.335C616.806 856.408 600.182 847.987 600.127 837.565Z" fill="#E9E9E9" stroke="#26144D" stroke-width="1.5" stroke-linecap="round" stroke-linejoin="round"/>
<path d="M617.297 837.511C617.279 831.909 626.155 827.344 637.142 827.307C648.128 827.271 657.04 831.782 657.077 837.384C657.095 842.985 648.219 847.551 637.232 847.587C626.246 847.623 617.334 843.113 617.316 837.511H617.297Z" fill="white" stroke="#26144D" stroke-width="1.5" stroke-linecap="round" stroke-linejoin="round"/>
<path d="M805.17 846.931L764.754 823.596L805.17 800.261L845.604 823.596L805.17 846.931Z" fill="white" stroke="#26144D" stroke-width="1.5" stroke-linecap="round" stroke-linejoin="round"/>
<path d="M778.632 847.695L738.216 824.36L778.632 801.006L819.066 824.36L778.632 847.695Z" fill="#D8D8D8" stroke="#26144D" stroke-width="1.5" stroke-linecap="round" stroke-linejoin="round"/>
<path d="M752.239 845.131C752.202 834.691 768.754 826.179 789.235 826.106C809.716 826.052 826.34 834.455 826.377 844.876C826.431 855.316 809.861 863.828 789.38 863.901C768.918 863.974 752.293 855.553 752.239 845.131Z" fill="#E9E9E9" stroke="#26144D" stroke-width="1.5" stroke-linecap="round" stroke-linejoin="round"/>
<path d="M769.41 845.076C769.392 839.474 778.268 834.909 789.254 834.873C800.24 834.836 809.153 839.347 809.189 844.949C809.207 850.551 800.331 855.116 789.345 855.152C778.359 855.189 769.446 850.678 769.428 845.076H769.41Z" fill="white" stroke="#26144D" stroke-width="1.5" stroke-linecap="round" stroke-linejoin="round"/>
<path d="M798.349 749.153L757.933 725.818L798.349 702.465L838.765 725.818L798.349 749.153Z" fill="#D8D8D8" stroke="#26144D" stroke-width="1.5" stroke-linecap="round" stroke-linejoin="round"/>
<path d="M786.599 737.003C786.562 726.564 803.114 718.052 823.595 717.979C844.076 717.924 860.7 726.327 860.737 736.749C860.791 747.189 844.221 755.701 823.741 755.773C803.278 755.846 786.653 747.425 786.599 737.003Z" fill="#E9E9E9" stroke="#26144D" stroke-width="1.5" stroke-linecap="round" stroke-linejoin="round"/>
<path d="M803.787 736.931C803.768 731.329 812.645 726.764 823.631 726.727C834.617 726.691 843.529 731.202 843.566 736.803C843.584 742.405 834.708 746.971 823.722 747.007C812.736 747.043 803.823 742.533 803.805 736.931H803.787Z" fill="white" stroke="#26144D" stroke-width="1.5" stroke-linecap="round" stroke-linejoin="round"/>
<path d="M750 1303.5L-1 882.5V-1H1441V917L750 1303.5Z" fill="black" fill-opacity="0.4"/>
</g>
</svg>
