<svg width="1440" height="1262" viewBox="0 0 1440 1262" fill="none" xmlns="http://www.w3.org/2000/svg">
<path d="M750.766 1226.04L0.126953 805.023L688.342 419.02L1439 840.035L750.766 1226.04Z" fill="#E9E9E9" stroke="#26144D" stroke-width="1.5" stroke-linecap="round" stroke-linejoin="round"/>
<path d="M1439 875.757L1438.96 840.309L751.004 1225.8L751.04 1261.23L1439 875.757Z" fill="#B2B4B3" stroke="#26144D" stroke-width="1.5" stroke-linecap="round" stroke-linejoin="round"/>
<path d="M750.639 1261.07L0 840.035V804.605L750.639 1225.62V1261.07Z" fill="#7D7D7B" stroke="#26144D" stroke-width="1.5" stroke-linecap="round" stroke-linejoin="round"/>
<g style="mix-blend-mode:multiply">
<path d="M860.665 821.029C935.694 864.334 936.113 934.595 861.556 977.937C787.018 1021.26 665.716 1021.22 590.686 977.937C515.621 934.613 515.239 864.371 589.777 821.047C664.352 777.723 785.599 777.723 860.665 821.047V821.029Z" fill="#E9E9E9"/>
</g>
<g style="mix-blend-mode:multiply">
<path d="M566.858 980.429L630.446 1017.3L566.858 1054.18L503.287 1017.3L566.858 980.429Z" fill="#E9E9E9"/>
</g>
<g style="mix-blend-mode:multiply">
<path d="M876.16 994.833L939.731 1031.7L876.16 1068.59L812.572 1031.7L876.16 994.833Z" fill="#E9E9E9"/>
</g>
<g style="mix-blend-mode:multiply">
<path d="M874.633 788.654L938.222 825.521L874.633 862.407L811.063 825.521L874.633 788.654Z" fill="#E9E9E9"/>
</g>
<path d="M836.327 673.433L620.879 549.209V346.631L836.327 470.855V673.433Z" fill="#E40133" stroke="#26144D" stroke-width="1.5" stroke-linecap="round" stroke-linejoin="round"/>
<path d="M836.636 470.728L621.188 346.522L722.773 287.866L938.222 412.09L836.636 470.728Z" fill="#E9E9E9" stroke="#26144D" stroke-width="1.5" stroke-linecap="round" stroke-linejoin="round"/>
<path d="M836.472 673.397L938.057 614.74V412.163L836.472 470.801V673.397Z" fill="#D8D8D8" stroke="#26144D" stroke-width="1.5" stroke-linecap="round" stroke-linejoin="round"/>
<path d="M668.133 440.354L835.744 537.114" stroke="#26144D" stroke-width="1.5" stroke-linecap="round" stroke-linejoin="round"/>
<path d="M789.653 481.768L766.954 468.673C765.462 467.8 764.243 465.49 764.243 463.489V462.47C764.243 460.47 765.462 459.56 766.954 460.415L789.653 473.511C791.145 474.384 792.363 476.693 792.363 478.694V479.713C792.363 481.713 791.145 482.623 789.653 481.768Z" fill="white" stroke="#26144D" stroke-width="1.5" stroke-linecap="round" stroke-linejoin="round"/>
<path d="M668.133 504.521L835.744 601.281" stroke="#26144D" stroke-width="1.5" stroke-linecap="round" stroke-linejoin="round"/>
<path d="M789.653 545.935L766.954 532.84C765.462 531.967 764.243 529.657 764.243 527.656V526.637C764.243 524.637 765.462 523.727 766.954 524.582L789.653 537.678C791.145 538.551 792.363 540.86 792.363 542.861V543.88C792.363 545.88 791.145 546.79 789.653 545.935Z" fill="white" stroke="#26144D" stroke-width="1.5" stroke-linecap="round" stroke-linejoin="round"/>
<path d="M789.653 612.14L766.954 599.044C765.462 598.171 764.243 595.861 764.243 593.861V592.842C764.243 590.841 765.462 589.932 766.954 590.787L789.653 603.882C791.145 604.755 792.363 607.065 792.363 609.066V610.084C792.363 612.085 791.145 612.994 789.653 612.14Z" fill="white" stroke="#26144D" stroke-width="1.5" stroke-linecap="round" stroke-linejoin="round"/>
<path d="M554.854 705.389L723.556 608.01V405.433L554.854 502.811V705.389Z" fill="#E40133" stroke="#26144D" stroke-width="1.5" stroke-linecap="round" stroke-linejoin="round"/>
<path d="M554.545 502.702L723.23 405.305L621.663 346.667L452.96 444.045L554.545 502.702Z" fill="#E9E9E9" stroke="#26144D" stroke-width="1.5" stroke-linecap="round" stroke-linejoin="round"/>
<path d="M554.71 705.352L453.125 646.714V444.136L554.71 502.774V705.352Z" fill="white" stroke="#26144D" stroke-width="1.5" stroke-linecap="round" stroke-linejoin="round"/>
<path d="M723.048 472.31L555.437 569.07" stroke="#26144D" stroke-width="1.5" stroke-linecap="round" stroke-linejoin="round"/>
<path d="M626.301 494.644L649.001 481.549C650.492 480.676 651.711 478.366 651.711 476.365V475.347C651.711 473.346 650.492 472.437 649.001 473.292L626.301 486.387C624.81 487.26 623.591 489.57 623.591 491.571V492.589C623.591 494.59 624.81 495.499 626.301 494.644Z" fill="white" stroke="#26144D" stroke-width="1.5" stroke-linecap="round" stroke-linejoin="round"/>
<path d="M723.048 536.495L555.437 633.255" stroke="#26144D" stroke-width="1.5" stroke-linecap="round" stroke-linejoin="round"/>
<path d="M626.301 562.468L649.001 549.372C650.492 548.499 651.711 546.189 651.711 544.189V543.17C651.711 541.169 650.492 540.26 649.001 541.115L626.301 554.21C624.81 555.083 623.591 557.393 623.591 559.394V560.412C623.591 562.413 624.81 563.322 626.301 562.468Z" fill="white" stroke="#26144D" stroke-width="1.5" stroke-linecap="round" stroke-linejoin="round"/>
<path d="M626.301 628.053L649.001 614.958C650.492 614.085 651.711 611.775 651.711 609.774V608.756C651.711 606.755 650.492 605.846 649.001 606.7L626.301 619.796C624.81 620.669 623.591 622.979 623.591 624.979V625.998C623.591 627.999 624.81 628.908 626.301 628.053Z" fill="white" stroke="#26144D" stroke-width="1.5" stroke-linecap="round" stroke-linejoin="round"/>
<g filter="url(#filter0_d_813_15178)">
<path d="M605.092 397.939V397.848V386.208L604.419 386.353C604.292 386.244 604.165 386.153 604.001 386.062C602.564 385.225 600.218 385.225 598.781 386.062C598.581 386.189 598.399 386.317 598.253 386.444L597.708 386.189V397.83C597.708 398.394 598.053 398.939 598.799 399.376C600.236 400.212 602.582 400.212 604.019 399.376C604.692 398.976 605.056 398.466 605.092 397.957V397.939Z" fill="#7D7D7B" stroke="#26144D" stroke-width="1.5" stroke-linecap="round" stroke-linejoin="round"/>
<path d="M604.019 387.754C602.582 388.59 600.254 388.572 598.799 387.754C597.362 386.917 597.344 385.571 598.799 384.734C600.236 383.898 602.564 383.916 604.019 384.734C605.456 385.571 605.474 386.917 604.019 387.754Z" fill="white" stroke="#26144D" stroke-width="1.5" stroke-linecap="round" stroke-linejoin="round"/>
<path d="M627.973 390.391V390.3V378.66L627.3 378.805C627.173 378.696 627.046 378.605 626.882 378.514C625.445 377.678 623.099 377.678 621.662 378.514C621.462 378.642 621.28 378.769 621.134 378.896L620.589 378.642V390.282C620.589 390.846 620.934 391.391 621.68 391.828C623.117 392.664 625.463 392.664 626.9 391.828C627.573 391.428 627.937 390.918 627.973 390.409V390.391Z" fill="#7D7D7B" stroke="#26144D" stroke-width="1.5" stroke-linecap="round" stroke-linejoin="round"/>
<path d="M626.9 380.187C625.463 381.024 623.135 381.006 621.68 380.187C620.243 379.351 620.225 378.005 621.68 377.168C623.117 376.331 625.445 376.35 626.9 377.168C628.337 378.005 628.355 379.351 626.9 380.187Z" fill="white" stroke="#26144D" stroke-width="1.5" stroke-linecap="round" stroke-linejoin="round"/>
<path d="M582.902 390.391V390.3V378.66L582.229 378.805C582.101 378.696 581.974 378.605 581.81 378.514C580.373 377.678 578.027 377.678 576.59 378.514C576.39 378.642 576.208 378.769 576.062 378.896L575.517 378.642V390.282C575.517 390.846 575.862 391.391 576.608 391.828C578.045 392.664 580.391 392.664 581.828 391.828C582.501 391.428 582.865 390.918 582.902 390.409V390.391Z" fill="#7D7D7B" stroke="#26144D" stroke-width="1.5" stroke-linecap="round" stroke-linejoin="round"/>
<path d="M581.828 380.187C580.391 381.024 578.063 381.006 576.608 380.187C575.171 379.351 575.153 378.005 576.608 377.168C578.045 376.331 580.373 376.35 581.828 377.168C583.265 378.005 583.283 379.351 581.828 380.187Z" fill="white" stroke="#26144D" stroke-width="1.5" stroke-linecap="round" stroke-linejoin="round"/>
<path d="M630.031 310.327L634.614 313L627.248 313.491L630.031 310.327Z" fill="white" stroke="#26144D" stroke-width="1.5" stroke-linecap="round" stroke-linejoin="round"/>
<path d="M633.031 330.315C632.867 337.081 630.885 342.956 627.12 347.739C624.319 351.304 621.427 353.123 621.154 353.305V355.16C618.953 357.088 617.334 358.07 617.043 358.234V350.904C617.316 350.74 620.19 348.921 622.991 345.338C626.756 340.555 628.739 334.68 628.902 327.914C628.993 324.349 628.502 321.694 627.429 319.984C628.248 320.021 629.066 320.221 629.794 320.621C632.049 321.912 633.14 325.168 633.013 330.315H633.031Z" fill="white" stroke="#26144D" stroke-width="1.5" stroke-linecap="round" stroke-linejoin="round"/>
<path d="M635.287 324.423C634.996 336.427 630.085 345.011 625.992 350.086C624.283 352.214 622.591 353.887 621.154 355.142V353.287C621.427 353.105 624.319 351.286 627.12 347.721C630.885 342.92 632.868 337.063 633.031 330.297C633.159 325.15 632.067 321.895 629.812 320.603C629.084 320.185 628.266 320.003 627.447 319.967C626.974 319.185 626.392 318.603 625.683 318.202C624.282 317.402 622.609 317.438 621.118 317.766C618.935 318.221 617.134 319.294 617.098 319.312L616.916 312.091C617.243 311.891 624.828 307.344 630.212 310.418C630.94 310.836 631.576 311.346 632.14 311.982C634.377 314.456 635.432 318.621 635.305 324.423H635.287Z" fill="white" stroke="#26144D" stroke-width="1.5" stroke-linecap="round" stroke-linejoin="round"/>
<path d="M639.417 326.823C639.126 338.827 634.215 347.412 630.122 352.468C625.793 357.834 621.628 360.344 621.173 360.598V355.124V353.269C621.446 353.087 624.338 351.268 627.139 347.703C630.904 342.902 632.887 337.045 633.05 330.279C633.178 325.132 632.086 321.876 629.831 320.585C629.103 320.167 628.285 319.985 627.466 319.948C624.465 319.803 621.282 321.694 621.228 321.713L621.137 317.766L621.046 314.474C621.319 314.31 627.103 310.854 632.141 311.964C632.905 312.127 633.633 312.4 634.342 312.8C637.889 314.819 639.599 319.53 639.417 326.805V326.823Z" fill="#7D7D7B" stroke="#26144D" stroke-width="1.5" stroke-linecap="round" stroke-linejoin="round"/>
<path d="M616.916 312.109L621.045 314.492L621.209 321.731L617.098 319.33L616.916 312.109Z" fill="white" stroke="#26144D" stroke-width="1.5" stroke-linecap="round" stroke-linejoin="round"/>
<path d="M621.154 353.305L621.172 360.617L617.043 358.216V350.886L621.154 353.305Z" fill="white" stroke="#26144D" stroke-width="1.5" stroke-linecap="round" stroke-linejoin="round"/>
<path d="M628.903 378.678C628.957 382.715 626.32 386.735 620.99 389.827C610.386 395.938 593.161 395.92 582.484 389.772C576.955 386.571 574.281 382.352 574.481 378.205C573.881 374.185 569.97 345.594 579.174 319.73H624.119C634.068 347.631 628.884 378.696 628.884 378.696L628.903 378.678Z" fill="white" stroke="#26144D" stroke-width="1.5" stroke-linecap="round" stroke-linejoin="round"/>
<path d="M617.826 331.116C608.968 336.227 594.562 336.209 585.649 331.062C576.737 325.915 576.682 317.603 585.54 312.492C594.398 307.381 608.804 307.399 617.716 312.546C626.629 317.694 626.684 326.006 617.826 331.116Z" fill="white" stroke="#26144D" stroke-width="1.5" stroke-linecap="round" stroke-linejoin="round"/>
<path d="M617.917 312.437C626.811 317.584 626.775 325.933 617.808 331.098C608.84 336.263 594.38 336.3 585.468 331.153C576.573 326.005 576.61 317.657 585.577 312.492C594.526 307.326 609.004 307.29 617.917 312.437Z" fill="#248CFF" stroke="#26144D" stroke-width="1.5" stroke-linecap="round" stroke-linejoin="round"/>
<path d="M591.688 339.301C591.688 339.301 585.94 379.842 580.702 376.641C574.827 373.039 567.442 347.649 567.442 347.649" fill="#E9E9E9"/>
<path d="M591.688 339.301C591.688 339.301 585.94 379.842 580.702 376.641C574.827 373.039 567.442 347.649 567.442 347.649" stroke="#26144D" stroke-width="1.5" stroke-linecap="round" stroke-linejoin="round"/>
<path d="M591.688 339.301C591.688 339.301 570.28 349.341 567.424 347.631C564.568 345.922 578.992 332.462 578.992 332.462L591.688 339.283V339.301Z" fill="#7D7D7B" stroke="#26144D" stroke-width="1.5" stroke-linecap="round" stroke-linejoin="round"/>
</g>
<path d="M812.136 348.831L799.367 341.429L784.962 311.164L798.549 320.531L812.136 348.831Z" fill="white"/>
<path d="M812.136 348.831L799.367 341.429L784.962 311.164L798.549 320.531L812.136 348.831Z" stroke="#26144D" stroke-width="1.5" stroke-linecap="round" stroke-linejoin="round"/>
<path d="M812.137 348.832L818.54 345.976L803.443 312.965L776.378 325.897V330.716L798.55 320.531L812.137 348.832Z" fill="white"/>
<path d="M812.137 348.832L818.54 345.976L803.443 312.965L776.378 325.897V330.716L798.55 320.531L812.137 348.832Z" stroke="#26144D" stroke-width="1.5" stroke-linecap="round" stroke-linejoin="round"/>
<path d="M803.441 312.965L790.509 305.489L764.208 319.476L776.376 325.896L803.441 312.965Z" fill="white"/>
<path d="M803.441 312.965L790.509 305.489L764.208 319.476L776.376 325.896L803.441 312.965Z" stroke="#26144D" stroke-width="1.5" stroke-linecap="round" stroke-linejoin="round"/>
<path d="M776.376 330.716V325.896L764.208 319.476V324.769L776.376 330.716Z" fill="white"/>
<path d="M776.376 330.716V325.896L764.208 319.476V324.769L776.376 330.716Z" stroke="#26144D" stroke-width="1.5" stroke-linecap="round" stroke-linejoin="round"/>
<path d="M851.297 382.079L766.155 332.699C761.28 329.88 755.278 329.825 750.367 332.59L698.419 361.836C695.636 363.4 695.618 367.401 698.365 369.002L783.507 418.382C788.382 421.201 794.384 421.256 799.295 418.491L851.243 389.245C854.026 387.681 854.044 383.68 851.297 382.079Z" fill="white"/>
<path d="M851.297 382.079L766.155 332.699C761.28 329.88 755.278 329.825 750.367 332.59L698.419 361.836C695.636 363.4 695.618 367.401 698.365 369.002L783.507 418.382C788.382 421.201 794.384 421.256 799.295 418.491L851.243 389.245C854.026 387.681 854.044 383.68 851.297 382.079Z" stroke="#26144D" stroke-width="1.5" stroke-linecap="round" stroke-linejoin="round"/>
<path d="M783.506 418.4L698.364 369.02C695.599 367.419 695.617 363.418 698.418 361.854L750.366 332.608C755.277 329.843 761.279 329.879 766.154 332.717L851.296 382.097C854.061 383.698 854.043 387.699 851.242 389.263L799.294 418.509C794.383 421.274 788.381 421.238 783.506 418.4Z" fill="#B2B4B3"/>
<path d="M783.506 418.4L698.364 369.02C695.599 367.419 695.617 363.418 698.418 361.854L750.366 332.608C755.277 329.843 761.279 329.879 766.154 332.717L851.296 382.097C854.061 383.698 854.043 387.699 851.242 389.263L799.294 418.509C794.383 421.274 788.381 421.238 783.506 418.4Z" stroke="#26144D" stroke-width="1.5" stroke-linecap="round" stroke-linejoin="round"/>
<path d="M698.364 369.02L714.188 378.205L750.366 357.835C755.277 355.07 761.28 355.107 766.154 357.944L835.472 398.139L851.26 389.264C854.043 387.7 854.061 383.698 851.315 382.098L766.173 332.717C761.298 329.898 755.295 329.844 750.384 332.608L698.437 361.854C695.654 363.419 695.636 367.42 698.382 369.02H698.364Z" fill="#7D7D7B" stroke="#26144D" stroke-width="1.5" stroke-linecap="round" stroke-linejoin="round"/>
<path d="M789.908 385.407C789.908 388.081 786.525 390.264 782.378 390.264C778.231 390.264 774.847 388.081 774.847 385.407C774.847 382.734 778.231 380.551 782.378 380.551C786.525 380.551 789.908 382.734 789.908 385.407Z" fill="white"/>
<path d="M789.908 385.407C789.908 388.081 786.525 390.264 782.378 390.264C778.231 390.264 774.847 388.081 774.847 385.407C774.847 382.734 778.231 380.551 782.378 380.551C786.525 380.551 789.908 382.734 789.908 385.407Z" stroke="#26144D" stroke-width="1.5" stroke-linecap="round" stroke-linejoin="round"/>
<path d="M835.344 284.846L643.979 174.372V42.6187L835.344 153.092V284.846Z" fill="#E40133" stroke="#26144D" stroke-width="1.5" stroke-linecap="round" stroke-linejoin="round"/>
<path d="M835.344 153.42L643.979 42.946L717.044 0.768066L908.391 111.242L835.344 153.42Z" fill="white" stroke="#26144D" stroke-width="1.5" stroke-linecap="round" stroke-linejoin="round"/>
<path d="M908.537 242.668L835.472 284.846V153.092L908.537 110.915V242.668Z" fill="#D8D8D8" stroke="#26144D" stroke-width="1.5" stroke-linecap="round" stroke-linejoin="round"/>
<path d="M734.778 95.0361V225.499" stroke="#26144D" stroke-width="1.5" stroke-linecap="round" stroke-linejoin="round"/>
<path d="M749.293 227.081L747.22 225.881C746.147 225.262 745.274 223.589 745.274 222.152V202.873C745.274 201.436 746.147 200.781 747.22 201.4L749.293 202.6C750.367 203.219 751.24 204.892 751.24 206.329V225.608C751.24 227.045 750.367 227.7 749.293 227.081Z" fill="white" stroke="#26144D" stroke-width="1.5" stroke-linecap="round" stroke-linejoin="round"/>
<path d="M724.046 212.185L721.973 210.985C720.9 210.366 720.027 208.693 720.027 207.256V187.977C720.027 186.54 720.9 185.885 721.973 186.504L724.046 187.704C725.12 188.323 725.993 189.996 725.993 191.433V210.712C725.993 212.149 725.12 212.804 724.046 212.185Z" fill="white" stroke="#26144D" stroke-width="1.5" stroke-linecap="round" stroke-linejoin="round"/>
<g filter="url(#filter1_d_813_15178)">
<path d="M946.915 190.851L1106.2 281.009L1006.27 336.41L846.985 246.252L946.915 190.851Z" fill="white" stroke="#26144D" stroke-width="1.5" stroke-linecap="round" stroke-linejoin="round"/>
<path d="M1006.27 336.41V747.804L1108.78 689.402L1106.2 281.009L1006.27 336.41Z" fill="#D8D8D8" stroke="#26144D" stroke-width="1.5" stroke-linecap="round" stroke-linejoin="round"/>
<path d="M1006.27 336.41L846.985 246.252V654.645L1006.27 747.804V336.41Z" fill="white" stroke="#26144D" stroke-width="1.5" stroke-linecap="round" stroke-linejoin="round"/>
<path d="M998.116 341.411L855.133 260.493V627.09L998.116 710.7V341.411Z" fill="#248CFF" stroke="#26144D" stroke-width="1.5" stroke-linecap="round" stroke-linejoin="round"/>
<path d="M847.058 506.049L1006.34 596.207L995.807 603.155L836.526 512.997L847.058 506.049Z" fill="white" stroke="#26144D" stroke-width="1.5" stroke-linecap="round" stroke-linejoin="round"/>
<path d="M1006.37 747.258L995.807 754.152V603.155L1006.34 596.207L1006.37 747.258Z" fill="white" stroke="#26144D" stroke-width="1.5" stroke-linecap="round" stroke-linejoin="round"/>
<path d="M995.807 603.154V754.006L836.526 664.357V512.997L995.807 603.154Z" fill="#E9E9E9" stroke="#26144D" stroke-width="1.5" stroke-linecap="round" stroke-linejoin="round"/>
<path d="M846.913 249.925L985.95 340.047L974.782 345.103L834.454 254.945L846.913 249.925Z" fill="white" stroke="#26144D" stroke-width="1.5" stroke-linecap="round" stroke-linejoin="round"/>
<path d="M985.985 593.533L974.781 599.644V345.121L985.949 340.047L985.985 593.533Z" fill="#D8D8D8" stroke="#26144D" stroke-width="1.5" stroke-linecap="round" stroke-linejoin="round"/>
<path d="M974.781 345.121V599.153L834.435 509.013V254.945L974.781 345.121Z" fill="#E9E9E9" stroke="#26144D" stroke-width="1.5" stroke-linecap="round" stroke-linejoin="round"/>
</g>
<g filter="url(#filter2_d_813_15178)">
<path d="M577.48 463.598V468.727L541.648 446.865V441.736L570.114 459.105L577.48 463.598Z" fill="#565656" stroke="#26144D" stroke-width="1.5" stroke-linecap="round" stroke-linejoin="round"/>
<path d="M594.905 452.867L577.48 463.598L570.114 459.106L587.211 448.175L594.905 452.867Z" fill="#565656" stroke="#26144D" stroke-width="1.5" stroke-linecap="round" stroke-linejoin="round"/>
<path d="M587.212 448.174L570.114 459.105L541.648 441.736L559.073 431.023L587.212 448.174Z" fill="#248CFF" stroke="#26144D" stroke-width="1.5" stroke-linecap="round" stroke-linejoin="round"/>
<path d="M594.906 452.867V457.996L577.481 468.727V463.598L594.906 452.867Z" fill="#565656" stroke="#26144D" stroke-width="1.5" stroke-linecap="round" stroke-linejoin="round"/>
</g>
<path d="M1263.24 419.765L1184.46 374.295V244.669L1263.24 290.157V419.765Z" fill="#D8D8D8" stroke="#26144D" stroke-width="1.5" stroke-linecap="round" stroke-linejoin="round"/>
<path d="M1254.8 403.996L1192.89 368.238V259.656L1254.8 295.395V403.996Z" fill="#B2B4B3" stroke="#26144D" stroke-width="1.5" stroke-linecap="round" stroke-linejoin="round"/>
<path d="M1006.67 748.385L1117.76 812.516V609.411L1006.67 545.28V748.385Z" fill="#E40133" stroke="#26144D" stroke-width="1.5" stroke-linecap="round" stroke-linejoin="round"/>
<path d="M1117.65 812.662L1219.49 753.86V550.755L1117.65 609.538V812.662Z" fill="white" stroke="#26144D" stroke-width="1.5" stroke-linecap="round" stroke-linejoin="round"/>
<path d="M1117.71 609.466L1006.61 545.335L1108.45 486.533L1219.55 550.682L1117.71 609.466Z" fill="white" stroke="#26144D" stroke-width="1.5" stroke-linecap="round" stroke-linejoin="round"/>
<path d="M1006.63 555.466L1117.73 619.597" stroke="#26144D" stroke-width="1.5" stroke-linecap="round" stroke-linejoin="round"/>
<path d="M1006.63 614.358L1117.73 678.507" stroke="#26144D" stroke-width="1.5" stroke-linecap="round" stroke-linejoin="round"/>
<path d="M1006.63 681.236L1117.73 745.385" stroke="#26144D" stroke-width="1.5" stroke-linecap="round" stroke-linejoin="round"/>
<path d="M1117.33 812.552L1249.49 887.851V685.255L1117.33 609.975V812.552Z" fill="white" stroke="#26144D" stroke-width="1.5" stroke-linecap="round" stroke-linejoin="round"/>
<path d="M1249.36 887.978L1350.95 829.321V626.744L1249.36 685.382V887.978Z" fill="#D8D8D8" stroke="#26144D" stroke-width="1.5" stroke-linecap="round" stroke-linejoin="round"/>
<path d="M1249.43 685.309L1117.29 610.029L1218.86 551.391L1351 626.671L1249.43 685.309Z" fill="white" stroke="#26144D" stroke-width="1.5" stroke-linecap="round" stroke-linejoin="round"/>
<path d="M1213.95 797.402L1227.57 805.259C1230.59 807.005 1233.03 805.15 1233.03 801.13V788.29C1233.03 784.27 1230.59 779.614 1227.57 777.868L1213.95 770.011V797.402Z" fill="white" stroke="#26144D" stroke-width="1.5" stroke-linecap="round" stroke-linejoin="round"/>
<path d="M1188.64 686.599C1192.4 684.429 1192.4 677.395 1188.64 670.888C1184.88 664.381 1178.79 660.865 1175.03 663.035C1171.27 665.204 1171.27 672.238 1175.03 678.745C1178.79 685.252 1184.88 688.768 1188.64 686.599Z" fill="#666666" stroke="#26144D" stroke-width="1.5" stroke-linecap="round" stroke-linejoin="round"/>
<path d="M1152.76 668.886L1132.72 657.318C1130.66 656.136 1128.99 652.953 1128.99 650.207V639.767C1128.99 637.02 1130.66 635.765 1132.72 636.948L1152.76 648.515C1154.82 649.697 1156.49 652.88 1156.49 655.627V666.067C1156.49 668.813 1154.82 670.068 1152.76 668.886Z" fill="#D8D8D8" stroke="#26144D" stroke-width="1.5" stroke-linecap="round" stroke-linejoin="round"/>
<path d="M1230.48 711.718L1210.44 700.151C1208.38 698.968 1206.71 695.786 1206.71 693.039V682.599C1206.71 679.853 1208.38 678.598 1210.44 679.78L1230.48 691.348C1232.54 692.53 1234.21 695.713 1234.21 698.459V708.899C1234.21 711.645 1232.54 712.9 1230.48 711.718Z" fill="#D8D8D8" stroke="#26144D" stroke-width="1.5" stroke-linecap="round" stroke-linejoin="round"/>
<path d="M1233.52 866.716L1213.48 855.149C1211.42 853.966 1209.75 850.784 1209.75 848.037V837.597C1209.75 834.851 1211.42 833.596 1213.48 834.778L1233.52 846.346C1235.58 847.528 1237.25 850.711 1237.25 853.457V863.897C1237.25 866.644 1235.58 867.898 1233.52 866.716Z" fill="white" stroke="#26144D" stroke-width="1.5" stroke-linecap="round" stroke-linejoin="round"/>
<path d="M1184.52 677.088L1179.13 673.996V658.5L1184.52 661.592V677.088Z" fill="#666666" stroke="#26144D" stroke-width="1.5" stroke-linecap="round" stroke-linejoin="round"/>
<path d="M1249.43 736.999L1117.29 661.719" stroke="#26144D" stroke-width="1.5" stroke-linecap="round" stroke-linejoin="round"/>
<path d="M1207.41 814.943C1223.78 805.496 1223.78 774.861 1207.41 746.52C1191.05 718.178 1164.52 702.86 1148.15 712.308C1131.79 721.755 1131.79 752.389 1148.15 780.731C1164.52 809.073 1191.05 824.39 1207.41 814.943Z" fill="#D8D8D8" stroke="#26144D" stroke-width="1.5" stroke-linecap="round" stroke-linejoin="round"/>
<path d="M1209.69 782.015C1209.69 784.634 1209.46 787.035 1209 789.235C1205.96 804.168 1193.16 809.278 1177.81 800.421C1160.18 790.254 1145.9 765.518 1145.9 745.184C1145.9 728.742 1155.22 720.212 1168.09 722.922C1171.15 723.54 1174.42 724.813 1177.81 726.76C1195.41 736.945 1209.69 761.662 1209.69 782.015Z" fill="#666666" stroke="#26144D" stroke-width="1.5" stroke-linecap="round" stroke-linejoin="round"/>
<path d="M1208.16 783.143C1208.16 785.762 1207.93 788.162 1207.47 790.363C1202.51 792.964 1195.8 792.437 1188.41 788.162C1173.13 779.359 1160.75 757.916 1160.75 740.273C1160.75 732.889 1162.93 727.342 1166.57 724.05C1169.62 724.668 1172.9 725.941 1176.28 727.887C1193.89 738.073 1208.16 762.79 1208.16 783.143Z" fill="#909090"/>
<path d="M876.165 861.369V729.361L868.49 724.923V856.931L876.165 861.369Z" fill="white" stroke="#26144D" stroke-width="1.5" stroke-linecap="round" stroke-linejoin="round"/>
<path d="M883.822 724.923V856.931L876.164 861.369V729.361L883.822 724.923Z" fill="#B2B4B3" stroke="#26144D" stroke-width="1.5" stroke-linecap="round" stroke-linejoin="round"/>
<path d="M928.222 830.595V698.587L920.564 694.149V826.157L928.222 830.595Z" fill="white" stroke="#26144D" stroke-width="1.5" stroke-linecap="round" stroke-linejoin="round"/>
<path d="M935.88 694.149V826.157L928.222 830.595V698.587L935.88 694.149Z" fill="#B2B4B3" stroke="#26144D" stroke-width="1.5" stroke-linecap="round" stroke-linejoin="round"/>
<path d="M824.09 830.595V698.587L816.432 694.149V826.157L824.09 830.595Z" fill="white" stroke="#26144D" stroke-width="1.5" stroke-linecap="round" stroke-linejoin="round"/>
<path d="M831.747 694.149V826.157L824.089 830.595V698.587L831.747 694.149Z" fill="#B2B4B3" stroke="#26144D" stroke-width="1.5" stroke-linecap="round" stroke-linejoin="round"/>
<path d="M876.163 738.073V728.561L812.574 691.694V701.188L876.163 738.073Z" fill="#004DA9" stroke="#26144D" stroke-width="1.5" stroke-linecap="round" stroke-linejoin="round"/>
<path d="M876.163 654.809L939.733 691.694L876.163 728.561L812.574 691.694L876.163 654.809Z" fill="#0069EA" stroke="#26144D" stroke-width="1.5" stroke-linecap="round" stroke-linejoin="round"/>
<path d="M939.733 691.694V701.188L876.162 738.073V728.561L939.733 691.694Z" fill="#0069EA" stroke="#26144D" stroke-width="1.5" stroke-linecap="round" stroke-linejoin="round"/>
<path d="M823.469 691.966L876.908 661.647" stroke="white" stroke-width="1.5" stroke-linecap="round" stroke-linejoin="round"/>
<path d="M386.805 803.241L555.489 705.844V503.266L386.805 600.645V803.241Z" fill="white" stroke="#26144D" stroke-width="1.5" stroke-linecap="round" stroke-linejoin="round"/>
<path d="M386.478 600.535L555.181 503.139L453.595 444.5L284.911 541.897L386.478 600.535Z" fill="#B2B4B3" stroke="#26144D" stroke-width="1.5" stroke-linecap="round" stroke-linejoin="round"/>
<path d="M386.642 803.186L285.057 744.548V541.97L386.642 600.608V803.186Z" fill="white" stroke="#26144D" stroke-width="1.5" stroke-linecap="round" stroke-linejoin="round"/>
<path d="M416.926 766.391L525.368 703.788C528.06 702.242 530.225 698.077 530.225 694.494V598.043C530.225 594.46 528.042 592.823 525.368 594.369L416.926 656.972C414.234 658.518 412.069 662.683 412.069 666.266V762.717C412.069 766.3 414.252 767.937 416.926 766.391Z" fill="#666666" stroke="#26144D" stroke-width="1.5" stroke-linecap="round" stroke-linejoin="round"/>
<path d="M534.994 557.027C539.102 549.911 539.097 542.217 534.982 539.841C530.867 537.465 524.201 541.308 520.092 548.424C515.984 555.54 515.989 563.234 520.104 565.61C524.219 567.986 530.885 564.143 534.994 557.027Z" fill="#7D7D7B" stroke="#26144D" stroke-width="1.5" stroke-linecap="round" stroke-linejoin="round"/>
<path d="M516.2 563.413L538.9 550.318C540.392 549.445 541.61 547.135 541.61 545.134V544.116C541.61 542.115 540.392 541.206 538.9 542.061L516.2 555.156C514.709 556.029 513.49 558.339 513.49 560.34V561.358C513.49 563.359 514.709 564.268 516.2 563.413Z" fill="#7D7D7B" stroke="#26144D" stroke-width="1.5" stroke-linecap="round" stroke-linejoin="round"/>
<path d="M499.589 577.458C503.697 570.342 503.692 562.647 499.577 560.272C495.462 557.896 488.796 561.739 484.687 568.855C480.579 575.971 480.584 583.665 484.699 586.041C488.814 588.416 495.48 584.574 499.589 577.458Z" fill="#7D7D7B" stroke="#26144D" stroke-width="1.5" stroke-linecap="round" stroke-linejoin="round"/>
<path d="M480.806 583.857L503.506 570.762C504.997 569.889 506.216 567.579 506.216 565.578V564.56C506.216 562.559 504.997 561.65 503.506 562.505L480.806 575.6C479.314 576.473 478.096 578.783 478.096 580.783V581.802C478.096 583.803 479.314 584.712 480.806 583.857Z" fill="#7D7D7B" stroke="#26144D" stroke-width="1.5" stroke-linecap="round" stroke-linejoin="round"/>
<path d="M463.809 598.125C467.917 591.009 467.912 583.315 463.797 580.939C459.682 578.564 453.016 582.406 448.907 589.522C444.799 596.638 444.804 604.333 448.919 606.708C453.034 609.084 459.7 605.241 463.809 598.125Z" fill="#7D7D7B" stroke="#26144D" stroke-width="1.5" stroke-linecap="round" stroke-linejoin="round"/>
<path d="M445.01 604.519L467.71 591.424C469.202 590.551 470.42 588.241 470.42 586.24V585.221C470.42 583.221 469.202 582.311 467.71 583.166L445.01 596.262C443.519 597.135 442.3 599.444 442.3 601.445V602.464C442.3 604.464 443.519 605.374 445.01 604.519Z" fill="#7D7D7B" stroke="#26144D" stroke-width="1.5" stroke-linecap="round" stroke-linejoin="round"/>
<path d="M428.519 618.498C432.628 611.382 432.623 603.687 428.508 601.312C424.393 598.936 417.726 602.779 413.618 609.895C409.509 617.011 409.514 624.705 413.629 627.081C417.744 629.456 424.411 625.614 428.519 618.498Z" fill="#7D7D7B" stroke="#26144D" stroke-width="1.5" stroke-linecap="round" stroke-linejoin="round"/>
<path d="M409.722 624.889L432.422 611.794C433.913 610.921 435.132 608.611 435.132 606.611V605.592C435.132 603.591 433.913 602.682 432.422 603.537L409.722 616.632C408.23 617.505 407.012 619.815 407.012 621.816V622.834C407.012 624.835 408.23 625.744 409.722 624.889Z" fill="#7D7D7B" stroke="#26144D" stroke-width="1.5" stroke-linecap="round" stroke-linejoin="round"/>
<path d="M554.98 560.049L387.388 656.809" stroke="#26144D" stroke-width="1.5" stroke-linecap="round" stroke-linejoin="round"/>
<path d="M459.87 651.934L482.57 638.839C484.062 637.966 485.28 635.656 485.28 633.655V632.637C485.28 630.636 484.062 629.727 482.57 630.582L459.87 643.677C458.379 644.55 457.16 646.86 457.16 648.861V649.879C457.16 651.88 458.379 652.789 459.87 651.934Z" fill="#B2B4B3" stroke="#26144D" stroke-width="1.5" stroke-linecap="round" stroke-linejoin="round"/>
<path d="M307.774 528.929L409.359 587.567" stroke="#26144D" stroke-width="1.5" stroke-linecap="round" stroke-linejoin="round"/>
<path d="M431.914 456.941L533.481 515.579" stroke="#26144D" stroke-width="1.5" stroke-linecap="round" stroke-linejoin="round"/>
<path d="M469.803 533.167C483.856 533.167 495.249 526.588 495.249 518.471C495.249 510.355 483.856 503.775 469.803 503.775C455.749 503.775 444.356 510.355 444.356 518.471C444.356 526.588 455.749 533.167 469.803 533.167Z" fill="#7D7D7B" stroke="#26144D" stroke-width="1.5" stroke-linecap="round" stroke-linejoin="round"/>
<path d="M418.509 562.796C432.562 562.796 443.955 556.216 443.955 548.1C443.955 539.983 432.562 533.404 418.509 533.404C404.455 533.404 393.062 539.983 393.062 548.1C393.062 556.216 404.455 562.796 418.509 562.796Z" fill="white" stroke="#26144D" stroke-width="1.5" stroke-linecap="round" stroke-linejoin="round"/>
<path d="M424.076 506.776C438.13 506.776 449.522 500.197 449.522 492.08C449.522 483.964 438.13 477.384 424.076 477.384C410.022 477.384 398.63 483.964 398.63 492.08C398.63 500.197 410.022 506.776 424.076 506.776Z" fill="#7D7D7B" stroke="#26144D" stroke-width="1.5" stroke-linecap="round" stroke-linejoin="round"/>
<path d="M372.781 536.386C386.835 536.386 398.227 529.807 398.227 521.691C398.227 513.574 386.835 506.995 372.781 506.995C358.728 506.995 347.335 513.574 347.335 521.691C347.335 529.807 358.728 536.386 372.781 536.386Z" fill="#7D7D7B" stroke="#26144D" stroke-width="1.5" stroke-linecap="round" stroke-linejoin="round"/>
<path d="M386.642 803.713L275.835 867.68V665.102L386.642 601.135V803.713Z" fill="#E40133" stroke="#26144D" stroke-width="1.5" stroke-linecap="round" stroke-linejoin="round"/>
<path d="M275.943 867.808L174.376 809.17V606.592L275.943 665.23V867.808Z" fill="white" stroke="#26144D" stroke-width="1.5" stroke-linecap="round" stroke-linejoin="round"/>
<path d="M275.889 665.157L386.696 601.19L285.129 542.552L174.304 606.519L275.889 665.157Z" fill="#E9E9E9" stroke="#26144D" stroke-width="1.5" stroke-linecap="round" stroke-linejoin="round"/>
<path d="M326.691 667.54L292.715 687.146C291.532 687.819 290.586 687.11 290.586 685.546V683.818C290.586 682.254 291.532 680.435 292.715 679.744L326.691 660.137C327.874 659.464 328.82 660.174 328.82 661.738V663.466C328.82 665.03 327.874 666.849 326.691 667.54Z" fill="white" stroke="#26144D" stroke-width="1.5" stroke-linecap="round" stroke-linejoin="round"/>
<path d="M386.679 611.303L275.872 675.27" stroke="#26144D" stroke-width="1.5" stroke-linecap="round" stroke-linejoin="round"/>
<path d="M725.576 828.066L725.048 1016.71L737.726 1009.35L738.272 820.682L725.576 828.066Z" fill="#B2B4B3" stroke="#26144D" stroke-width="1.5" stroke-linecap="round" stroke-linejoin="round"/>
<path d="M712.807 820.682L712.28 1009.35L725.048 1016.71L725.576 828.066L712.807 820.682Z" fill="white" stroke="#26144D" stroke-width="1.5" stroke-linecap="round" stroke-linejoin="round"/>
<path d="M738.272 820.682L725.503 813.334L712.808 820.682L725.576 828.066L738.272 820.682Z" fill="white" stroke="#26144D" stroke-width="1.5" stroke-linecap="round" stroke-linejoin="round"/>
<path d="M559.402 713.974L558.875 902.638L571.552 895.253L572.098 706.607L559.402 713.974Z" fill="#B2B4B3" stroke="#26144D" stroke-width="1.5" stroke-linecap="round" stroke-linejoin="round"/>
<path d="M546.633 706.607L546.106 895.253L558.875 902.638L559.402 713.974L546.633 706.607Z" fill="white" stroke="#26144D" stroke-width="1.5" stroke-linecap="round" stroke-linejoin="round"/>
<path d="M572.098 706.607L559.33 699.241L546.634 706.607L559.403 713.973L572.098 706.607Z" fill="white" stroke="#26144D" stroke-width="1.5" stroke-linecap="round" stroke-linejoin="round"/>
<path d="M890.332 722.14L889.786 910.804L902.482 903.419L903.01 714.773L890.332 722.14Z" fill="#B2B4B3" stroke="#26144D" stroke-width="1.5" stroke-linecap="round" stroke-linejoin="round"/>
<path d="M877.563 714.773L877.018 903.419L889.786 910.804L890.332 722.14L877.563 714.773Z" fill="white" stroke="#26144D" stroke-width="1.5" stroke-linecap="round" stroke-linejoin="round"/>
<path d="M877.563 714.773L877.018 903.419L889.786 910.804L890.332 722.14L877.563 714.773Z" fill="white" stroke="#26144D" stroke-width="1.5" stroke-linecap="round" stroke-linejoin="round"/>
<path d="M903.01 714.774L890.241 707.408L877.564 714.774L890.332 722.14L903.01 714.774Z" fill="white" stroke="#26144D" stroke-width="1.5" stroke-linecap="round" stroke-linejoin="round"/>
<path d="M916.105 744.002C915.941 744.02 915.778 744.057 915.614 744.093C911.885 769.083 893.605 793.455 860.683 812.589C786.145 855.913 664.843 855.895 589.814 812.589C556.146 793.146 537.52 768.301 533.919 742.911C533.883 742.911 533.846 742.911 533.81 742.911C533.61 742.856 533.428 742.802 533.228 742.747V749.822C533.119 778.395 551.999 807.023 589.759 828.831C664.788 872.155 786.072 872.155 860.629 828.831C897.661 807.314 916.214 779.141 916.287 750.932V744.02C916.287 744.02 916.123 744.02 916.105 744.02V744.002Z" fill="#B2B4B3" stroke="#26144D" stroke-width="1.5" stroke-linecap="round" stroke-linejoin="round"/>
<path d="M859.793 665.339C934.822 708.645 935.24 778.905 860.684 822.247C786.146 865.57 664.844 865.534 589.814 822.247C514.748 778.923 514.366 708.681 588.905 665.357C663.479 622.033 784.727 622.033 859.793 665.357V665.339Z" fill="white" stroke="#26144D" stroke-width="1.5" stroke-linecap="round" stroke-linejoin="round"/>
<path d="M566.862 1052.4V920.39L559.204 915.934V1047.96L566.862 1052.4Z" fill="white" stroke="#26144D" stroke-width="1.5" stroke-linecap="round" stroke-linejoin="round"/>
<path d="M574.537 915.934V1047.96L566.861 1052.4V920.39L574.537 915.934Z" fill="#B2B4B3" stroke="#26144D" stroke-width="1.5" stroke-linecap="round" stroke-linejoin="round"/>
<path d="M618.936 1021.62V889.615L611.278 885.159V1017.19L618.936 1021.62Z" fill="white" stroke="#26144D" stroke-width="1.5" stroke-linecap="round" stroke-linejoin="round"/>
<path d="M626.594 885.159V1017.19L618.936 1021.62V889.615L626.594 885.159Z" fill="#B2B4B3" stroke="#26144D" stroke-width="1.5" stroke-linecap="round" stroke-linejoin="round"/>
<path d="M514.804 1021.62V889.615L507.146 885.159V1017.19L514.804 1021.62Z" fill="white" stroke="#26144D" stroke-width="1.5" stroke-linecap="round" stroke-linejoin="round"/>
<path d="M522.461 885.159V1017.19L514.803 1021.62V889.615L522.461 885.159Z" fill="#B2B4B3" stroke="#26144D" stroke-width="1.5" stroke-linecap="round" stroke-linejoin="round"/>
<path d="M566.859 929.083V919.589L503.289 882.704V892.216L566.859 929.083Z" fill="#004DA9" stroke="#26144D" stroke-width="1.5" stroke-linecap="round" stroke-linejoin="round"/>
<path d="M566.859 845.837L630.447 882.704L566.859 919.589L503.289 882.704L566.859 845.837Z" fill="#0069EA" stroke="#26144D" stroke-width="1.5" stroke-linecap="round" stroke-linejoin="round"/>
<path d="M630.447 882.704V892.216L566.858 929.083V919.589L630.447 882.704Z" fill="#0069EA" stroke="#26144D" stroke-width="1.5" stroke-linecap="round" stroke-linejoin="round"/>
<path d="M865.16 1072.11V940.088L857.502 935.65V1067.66L865.16 1072.11Z" fill="white" stroke="#26144D" stroke-width="1.5" stroke-linecap="round" stroke-linejoin="round"/>
<path d="M872.817 935.65V1067.66L865.16 1072.11V940.088L872.817 935.65Z" fill="#B2B4B3" stroke="#26144D" stroke-width="1.5" stroke-linecap="round" stroke-linejoin="round"/>
<path d="M917.234 1041.34V909.313L909.577 904.875V1036.88L917.234 1041.34Z" fill="white" stroke="#26144D" stroke-width="1.5" stroke-linecap="round" stroke-linejoin="round"/>
<path d="M924.892 904.875V1036.88L917.235 1041.34V909.313L924.892 904.875Z" fill="#B2B4B3" stroke="#26144D" stroke-width="1.5" stroke-linecap="round" stroke-linejoin="round"/>
<path d="M813.102 1041.34V909.313L805.445 904.875V1036.88L813.102 1041.34Z" fill="white" stroke="#26144D" stroke-width="1.5" stroke-linecap="round" stroke-linejoin="round"/>
<path d="M820.759 904.875V1036.88L813.102 1041.34V909.313L820.759 904.875Z" fill="#B2B4B3" stroke="#26144D" stroke-width="1.5" stroke-linecap="round" stroke-linejoin="round"/>
<path d="M865.158 948.799V939.287L801.588 902.42V911.914L865.158 948.799Z" fill="#004DA9" stroke="#26144D" stroke-width="1.5" stroke-linecap="round" stroke-linejoin="round"/>
<path d="M865.158 865.553L928.747 902.42L865.158 939.287L801.588 902.42L865.158 865.553Z" fill="#0069EA" stroke="#26144D" stroke-width="1.5" stroke-linecap="round" stroke-linejoin="round"/>
<path d="M928.745 902.42V911.914L865.156 948.799V939.287L928.745 902.42Z" fill="#0069EA" stroke="#26144D" stroke-width="1.5" stroke-linecap="round" stroke-linejoin="round"/>
<path d="M367.707 422.511L287.912 376.132L287.876 365.055L367.689 411.435L367.707 422.511Z" fill="#004DA9" stroke="#26144D" stroke-width="1.5" stroke-linecap="round" stroke-linejoin="round"/>
<path d="M367.689 411.434L287.876 365.055L416.399 290.848L496.194 337.228L367.689 411.434Z" fill="#248CFF" stroke="#26144D" stroke-width="1.5" stroke-linecap="round" stroke-linejoin="round"/>
<path d="M496.193 337.228L496.23 348.304L367.706 422.511L367.688 411.435L496.193 337.228Z" fill="#0069EA" stroke="#26144D" stroke-width="1.5" stroke-linecap="round" stroke-linejoin="round"/>
<path d="M351.191 214.986L379.33 379.951L320.925 345.957L321.343 198.289L351.191 214.986Z" fill="#004DA9" stroke="#26144D" stroke-width="1.5" stroke-linecap="round" stroke-linejoin="round"/>
<path d="M409.686 181.265L437.825 346.23L379.329 379.951L351.191 214.986L409.686 181.265Z" fill="#0069EA" stroke="#26144D" stroke-width="1.5" stroke-linecap="round" stroke-linejoin="round"/>
<path d="M379.839 164.569L409.687 181.265L351.192 214.986L321.344 198.289L379.839 164.569Z" fill="#248CFF" stroke="#26144D" stroke-width="1.5" stroke-linecap="round" stroke-linejoin="round"/>
<path d="M496.596 304.78V291.994L630.957 214.077V226.863L496.596 304.78Z" fill="#B2B4B3" stroke="#26144D" stroke-width="1.5" stroke-linecap="round" stroke-linejoin="round"/>
<path d="M630.958 214.077L584.958 187.304L450.596 265.24L496.596 291.994L630.958 214.077Z" fill="#D8D8D8" stroke="#26144D" stroke-width="1.5" stroke-linecap="round" stroke-linejoin="round"/>
<path d="M496.596 304.78V291.994L450.596 265.24V278.026L496.596 304.78Z" fill="#7D7D7B" stroke="#26144D" stroke-width="1.5" stroke-linecap="round" stroke-linejoin="round"/>
<path d="M450.358 504.939C450.14 504.939 449.94 504.83 449.831 504.63C449.667 504.339 449.758 503.975 450.049 503.794L453.323 501.902C453.814 501.611 454.105 501.265 454.105 500.92C454.105 500.574 453.814 500.229 453.323 499.938L447.448 496.555C446.193 495.827 444.083 495.827 442.828 496.555L439.554 498.446C439.263 498.61 438.899 498.519 438.717 498.228C438.554 497.937 438.645 497.573 438.936 497.391L442.21 495.5C443.847 494.554 446.411 494.554 448.048 495.5L453.923 498.883C454.815 499.392 455.306 500.12 455.306 500.92C455.306 501.72 454.815 502.429 453.923 502.957L450.649 504.848C450.558 504.903 450.449 504.921 450.34 504.921L450.358 504.939Z" fill="white" stroke="#26144D" stroke-width="1.5" stroke-linecap="round" stroke-linejoin="round"/>
<path d="M387.862 508.741V547.535C387.935 552.064 390.954 556.557 396.938 560.012C409.034 566.997 428.641 566.997 440.719 560.012C446.83 556.484 449.868 551.846 449.795 547.208V508.413L387.88 508.741H387.862Z" fill="white" stroke="#26144D" stroke-width="1.5" stroke-linecap="round" stroke-linejoin="round"/>
<path d="M418.819 526.455C435.917 526.455 449.777 518.451 449.777 508.577C449.777 498.702 435.917 490.698 418.819 490.698C401.722 490.698 387.862 498.702 387.862 508.577C387.862 518.451 401.722 526.455 418.819 526.455Z" fill="white" stroke="#26144D" stroke-width="1.5" stroke-linecap="round" stroke-linejoin="round"/>
<path d="M441.265 505.085C428.86 498.046 408.761 498.046 396.374 505.085C392.336 507.376 389.626 510.141 388.226 513.069C389.626 515.998 392.336 518.762 396.374 521.054C408.779 528.093 428.878 528.093 441.265 521.054C445.302 518.762 448.013 515.998 449.413 513.069C448.013 510.141 445.302 507.376 441.265 505.085Z" fill="white" stroke="#26144D" stroke-width="1.5" stroke-linecap="round" stroke-linejoin="round"/>
<path d="M401.466 537.059C401.121 537.059 400.866 536.786 400.866 536.459V534.076L398.501 535.44C396.864 536.386 394.3 536.386 392.663 535.44L386.788 532.057C385.896 531.548 385.405 530.82 385.405 530.02C385.405 529.22 385.896 528.511 386.788 527.983L390.062 526.092C390.244 525.982 390.48 525.982 390.662 526.092C390.844 526.201 390.971 526.401 390.971 526.619V530.111C390.971 530.457 390.698 530.711 390.371 530.711C390.043 530.711 389.771 530.439 389.771 530.111V527.674L387.406 529.038C386.915 529.329 386.624 529.675 386.624 530.02C386.624 530.366 386.915 530.711 387.406 531.002L393.281 534.385C394.536 535.113 396.646 535.113 397.901 534.385L401.175 532.494C401.357 532.385 401.593 532.385 401.775 532.494C401.957 532.603 402.085 532.803 402.085 533.021V536.459C402.085 536.804 401.812 537.059 401.484 537.059H401.466Z" fill="white" stroke="#26144D" stroke-width="1.5" stroke-linecap="round" stroke-linejoin="round"/>
<path d="M674.919 721.867C674.864 705.862 697.473 692.821 725.411 692.712C753.349 692.621 776.049 705.516 776.104 721.503C776.176 737.491 753.568 750.55 725.611 750.659C697.691 750.75 674.991 737.854 674.937 721.867H674.919Z" fill="#E9E9E9" stroke="#26144D" stroke-width="1.5" stroke-linecap="round" stroke-linejoin="round"/>
<path d="M727.812 702.424C727.812 711.245 720.664 718.393 711.842 718.393C703.021 718.393 695.872 711.245 695.872 702.424C695.872 693.603 703.021 686.455 711.842 686.455C720.664 686.455 727.812 693.603 727.812 702.424Z" fill="#FFBF33" stroke="#26144D" stroke-width="1.5" stroke-linecap="round" stroke-linejoin="round"/>
<path d="M712.225 719.175C712.225 727.978 705.077 735.144 696.255 735.144C687.434 735.144 680.285 727.996 680.285 719.175C680.285 710.354 687.434 703.206 696.255 703.206C705.077 703.206 712.225 710.354 712.225 719.175Z" fill="#FFBF33" stroke="#26144D" stroke-width="1.5" stroke-linecap="round" stroke-linejoin="round"/>
<path d="M757.406 705.153C757.406 713.974 750.258 721.122 741.436 721.122C732.615 721.122 725.466 713.974 725.466 705.153C725.466 696.331 732.615 689.184 741.436 689.184C750.258 689.184 757.406 696.331 757.406 705.153Z" fill="#FFBF33" stroke="#26144D" stroke-width="1.5" stroke-linecap="round" stroke-linejoin="round"/>
<path d="M735.598 728.524C735.598 737.327 728.449 744.493 719.628 744.493C710.806 744.493 703.658 737.345 703.658 728.524C703.658 719.703 710.806 712.555 719.628 712.555C728.449 712.555 735.598 719.703 735.598 728.524Z" fill="#FFBF33" stroke="#26144D" stroke-width="1.5" stroke-linecap="round" stroke-linejoin="round"/>
<path d="M765.953 717.611C765.953 726.432 758.805 733.58 749.983 733.58C741.162 733.58 734.013 726.432 734.013 717.611C734.013 708.79 741.162 701.642 749.983 701.642C758.805 701.642 765.953 708.79 765.953 717.611Z" fill="#FFBF33" stroke="#26144D" stroke-width="1.5" stroke-linecap="round" stroke-linejoin="round"/>
<path d="M482.007 239.522V266.585C482.043 268.95 483.626 271.296 486.736 273.097C493.048 276.734 503.288 276.734 509.599 273.097C512.801 271.26 514.365 268.823 514.329 266.404V239.34L482.007 239.504V239.522Z" fill="white" stroke="#26144D" stroke-width="1.5" stroke-linecap="round" stroke-linejoin="round"/>
<path d="M498.177 248.78C507.107 248.78 514.347 244.602 514.347 239.449C514.347 234.296 507.107 230.119 498.177 230.119C489.246 230.119 482.007 234.296 482.007 239.449C482.007 244.602 489.246 248.78 498.177 248.78Z" fill="white" stroke="#26144D" stroke-width="1.5" stroke-linecap="round" stroke-linejoin="round"/>
<path d="M562.165 190.45V217.514C562.202 219.879 563.784 222.225 566.894 224.025C573.206 227.663 583.446 227.663 589.758 224.025C592.959 222.188 594.523 219.751 594.487 217.332V190.269L562.165 190.432V190.45Z" fill="white" stroke="#26144D" stroke-width="1.5" stroke-linecap="round" stroke-linejoin="round"/>
<path d="M578.335 199.69C587.266 199.69 594.505 195.513 594.505 190.36C594.505 185.207 587.266 181.029 578.335 181.029C569.405 181.029 562.165 185.207 562.165 190.36C562.165 195.513 569.405 199.69 578.335 199.69Z" fill="white" stroke="#26144D" stroke-width="1.5" stroke-linecap="round" stroke-linejoin="round"/>
<path d="M496.596 253.235V240.449L630.957 162.532V175.318L496.596 253.235Z" fill="#B2B4B3" stroke="#26144D" stroke-width="1.5" stroke-linecap="round" stroke-linejoin="round"/>
<path d="M630.958 162.532L584.958 135.759L450.596 213.695L496.596 240.449L630.958 162.532Z" fill="#D8D8D8" stroke="#26144D" stroke-width="1.5" stroke-linecap="round" stroke-linejoin="round"/>
<path d="M496.596 253.236V240.449L450.596 213.695V226.481L496.596 253.236Z" fill="#7D7D7B" stroke="#26144D" stroke-width="1.5" stroke-linecap="round" stroke-linejoin="round"/>
<path d="M554.398 139.67V166.733C554.435 169.098 556.017 171.444 559.128 173.245C565.439 176.882 575.68 176.882 581.991 173.245C585.192 171.408 586.757 168.971 586.72 166.552V139.488L554.398 139.651V139.67Z" fill="white" stroke="#26144D" stroke-width="1.5" stroke-linecap="round" stroke-linejoin="round"/>
<path d="M570.568 148.909C579.499 148.909 586.738 144.732 586.738 139.579C586.738 134.426 579.499 130.249 570.568 130.249C561.638 130.249 554.398 134.426 554.398 139.579C554.398 144.732 561.638 148.909 570.568 148.909Z" fill="#E9E9E9" stroke="#26144D" stroke-width="1.5" stroke-linecap="round" stroke-linejoin="round"/>
<path d="M485.992 175.281V202.345C486.029 204.71 487.611 207.056 490.722 208.857C497.033 212.494 507.273 212.494 513.585 208.857C516.786 207.02 518.351 204.582 518.314 202.163V175.1L485.992 175.263V175.281Z" fill="white" stroke="#26144D" stroke-width="1.5" stroke-linecap="round" stroke-linejoin="round"/>
<path d="M502.144 184.539C511.074 184.539 518.314 180.362 518.314 175.209C518.314 170.056 511.074 165.878 502.144 165.878C493.213 165.878 485.974 170.056 485.974 175.209C485.974 180.362 493.213 184.539 502.144 184.539Z" fill="#E9E9E9" stroke="#26144D" stroke-width="1.5" stroke-linecap="round" stroke-linejoin="round"/>
<path d="M522.896 148.346V181.775C522.951 184.685 524.897 187.595 528.753 189.814C536.556 194.325 549.197 194.325 557 189.814C560.947 187.541 562.893 184.54 562.857 181.557V148.127L522.914 148.346H522.896Z" fill="white" stroke="#26144D" stroke-width="1.5" stroke-linecap="round" stroke-linejoin="round"/>
<path d="M542.867 159.767C553.897 159.767 562.839 154.605 562.839 148.236C562.839 141.868 553.897 136.705 542.867 136.705C531.837 136.705 522.896 141.868 522.896 148.236C522.896 154.605 531.837 159.767 542.867 159.767Z" fill="#E9E9E9" stroke="#26144D" stroke-width="1.5" stroke-linecap="round" stroke-linejoin="round"/>
<path d="M1185.45 796.438C1167.84 786.271 1153.54 761.535 1153.54 741.201" stroke="white" stroke-width="1.5" stroke-linecap="round" stroke-linejoin="round"/>
<path d="M612.004 315.839C617.66 319.094 617.624 324.405 611.931 327.697C606.238 330.989 597.052 331.007 591.395 327.734C585.739 324.478 585.775 319.167 591.468 315.875C597.161 312.583 606.347 312.565 612.004 315.839Z" stroke="white" stroke-width="1.5" stroke-linecap="round" stroke-linejoin="round"/>
<path d="M615.66 795.838L575.244 772.503L615.66 749.167L656.076 772.503L615.66 795.838Z" fill="#D8D8D8" stroke="#26144D" stroke-width="1.5" stroke-linecap="round" stroke-linejoin="round"/>
<path d="M805.17 804.932L764.754 781.596L805.17 758.261L845.604 781.596L805.17 804.932Z" fill="white" stroke="#26144D" stroke-width="1.5" stroke-linecap="round" stroke-linejoin="round"/>
<path d="M778.632 805.695L738.216 782.36L778.632 759.007L819.066 782.36L778.632 805.695Z" fill="#D8D8D8" stroke="#26144D" stroke-width="1.5" stroke-linecap="round" stroke-linejoin="round"/>
<path d="M798.349 707.153L757.933 683.818L798.349 660.465L838.765 683.818L798.349 707.153Z" fill="#D8D8D8" stroke="#26144D" stroke-width="1.5" stroke-linecap="round" stroke-linejoin="round"/>
<path d="M600.127 795.565C600.091 785.125 616.643 776.613 637.123 776.54C657.604 776.486 674.229 784.889 674.265 795.31C674.32 805.75 657.75 814.262 637.269 814.335C616.806 814.408 600.182 805.987 600.127 795.565Z" fill="#E9E9E9" stroke="#26144D" stroke-width="1.5" stroke-linecap="round" stroke-linejoin="round"/>
<path d="M617.298 795.511C617.279 789.909 626.156 785.344 637.142 785.307C648.128 785.271 657.04 789.782 657.077 795.384C657.095 800.985 648.219 805.551 637.233 805.587C626.246 805.623 617.334 801.113 617.316 795.511H617.298Z" fill="white" stroke="#26144D" stroke-width="1.5" stroke-linecap="round" stroke-linejoin="round"/>
<path d="M752.239 803.131C752.202 792.691 768.754 784.179 789.235 784.107C809.716 784.052 826.34 792.455 826.377 802.877C826.431 813.317 809.861 821.829 789.38 821.901C768.918 821.974 752.293 813.553 752.239 803.131Z" fill="#E9E9E9" stroke="#26144D" stroke-width="1.5" stroke-linecap="round" stroke-linejoin="round"/>
<path d="M769.41 803.077C769.392 797.475 778.268 792.91 789.254 792.873C800.24 792.837 809.153 797.347 809.189 802.949C809.207 808.551 800.331 813.116 789.345 813.153C778.359 813.189 769.446 808.679 769.428 803.077H769.41Z" fill="white" stroke="#26144D" stroke-width="1.5" stroke-linecap="round" stroke-linejoin="round"/>
<path d="M786.599 695.003C786.562 684.564 803.114 676.052 823.595 675.979C844.076 675.924 860.7 684.327 860.737 694.749C860.791 705.189 844.221 713.701 823.741 713.773C803.278 713.846 786.653 705.425 786.599 695.003Z" fill="#E9E9E9" stroke="#26144D" stroke-width="1.5" stroke-linecap="round" stroke-linejoin="round"/>
<path d="M803.787 694.931C803.768 689.329 812.645 684.764 823.631 684.727C834.617 684.691 843.529 689.202 843.566 694.803C843.584 700.405 834.708 704.971 823.722 705.007C812.736 705.043 803.823 700.533 803.805 694.931H803.787Z" fill="white" stroke="#26144D" stroke-width="1.5" stroke-linecap="round" stroke-linejoin="round"/>
<path d="M813.61 903.074L867.049 872.755" stroke="white" stroke-width="1.5" stroke-linecap="round" stroke-linejoin="round"/>
<path d="M283.094 703.77V853.857" stroke="white" stroke-width="1.5" stroke-linecap="round" stroke-linejoin="round"/>
<path d="M417.528 759.352V670.922" stroke="white" stroke-width="1.5" stroke-linecap="round" stroke-linejoin="round"/>
<path d="M560.547 639.093L710.132 552.173" stroke="white" stroke-width="1.5" stroke-linecap="round" stroke-linejoin="round"/>
<path d="M560.547 574.399L710.132 487.479" stroke="white" stroke-width="1.5" stroke-linecap="round" stroke-linejoin="round"/>
<path d="M560.547 507.194L710.132 420.273" stroke="white" stroke-width="1.5" stroke-linecap="round" stroke-linejoin="round"/>
<path d="M407.414 580.473L324.546 532.966" stroke="white" stroke-width="1.5" stroke-linecap="round" stroke-linejoin="round"/>
<path d="M450.886 461.706L533.264 509.722" stroke="white" stroke-width="1.5" stroke-linecap="round" stroke-linejoin="round"/>
<path d="M329.603 198.435L379.131 170.625" stroke="white" stroke-width="1.5" stroke-linecap="round" stroke-linejoin="round"/>
<path d="M326.057 234.301V341.447" stroke="white" stroke-width="1.5" stroke-linecap="round" stroke-linejoin="round"/>
<path d="M367.999 405.614L485.754 337.391" stroke="white" stroke-width="1.5" stroke-linecap="round" stroke-linejoin="round"/>
<path d="M740.455 190.45V105.949" stroke="white" stroke-width="1.5" stroke-linecap="round" stroke-linejoin="round"/>
<path d="M649.491 138.906V54.4043" stroke="white" stroke-width="1.5" stroke-linecap="round" stroke-linejoin="round"/>
<path d="M524.17 695.694V636.056" stroke="white" stroke-width="1.5" stroke-linecap="round" stroke-linejoin="round"/>
<path d="M826.38 474.856L729.342 418.764" stroke="white" stroke-width="1.5" stroke-linecap="round" stroke-linejoin="round"/>
<path d="M826.38 539.532L729.342 483.44" stroke="white" stroke-width="1.5" stroke-linecap="round" stroke-linejoin="round"/>
<path d="M826.38 603.208L729.342 547.117" stroke="white" stroke-width="1.5" stroke-linecap="round" stroke-linejoin="round"/>
<path d="M1011.34 625.943L1108.38 682.544" stroke="white" stroke-width="1.5" stroke-linecap="round" stroke-linejoin="round"/>
<path d="M1011.34 566.814L1108.38 623.415" stroke="white" stroke-width="1.5" stroke-linecap="round" stroke-linejoin="round"/>
<path d="M1011.34 692.147L1108.38 748.748" stroke="white" stroke-width="1.5" stroke-linecap="round" stroke-linejoin="round"/>
<path d="M757.132 351.05V335.372" stroke="white" stroke-width="1.5" stroke-linecap="round" stroke-linejoin="round"/>
<path d="M559.293 435.934L550.126 441.626L568.951 453.176" stroke="white" stroke-width="1.5" stroke-linecap="round" stroke-linejoin="round"/>
<path d="M842.549 498.1V276.752" stroke="white" stroke-width="1.5" stroke-linecap="round" stroke-linejoin="round"/>
<path d="M843.058 527.401V648.187" stroke="white" stroke-width="1.5" stroke-linecap="round" stroke-linejoin="round"/>
<path d="M514.566 882.794L568.005 852.475" stroke="white" stroke-width="1.5" stroke-linecap="round" stroke-linejoin="round"/>
<path d="M956.757 427.349V555.701" stroke="#26144D" stroke-width="1.5" stroke-linecap="round" stroke-linejoin="round"/>
<defs>
<filter id="filter0_d_813_15178" x="516.3" y="257.847" width="173.88" height="192.906" filterUnits="userSpaceOnUse" color-interpolation-filters="sRGB">
<feFlood flood-opacity="0" result="BackgroundImageFix"/>
<feColorMatrix in="SourceAlpha" type="matrix" values="0 0 0 0 0 0 0 0 0 0 0 0 0 0 0 0 0 0 127 0" result="hardAlpha"/>
<feOffset/>
<feGaussianBlur stdDeviation="25"/>
<feComposite in2="hardAlpha" operator="out"/>
<feColorMatrix type="matrix" values="0 0 0 0 1 0 0 0 0 1 0 0 0 0 1 0 0 0 1 0"/>
<feBlend mode="normal" in2="BackgroundImageFix" result="effect1_dropShadow_813_15178"/>
<feBlend mode="normal" in="SourceGraphic" in2="effect1_dropShadow_813_15178" result="shape"/>
</filter>
<filter id="filter1_d_813_15178" x="783.685" y="140.101" width="375.844" height="664.8" filterUnits="userSpaceOnUse" color-interpolation-filters="sRGB">
<feFlood flood-opacity="0" result="BackgroundImageFix"/>
<feColorMatrix in="SourceAlpha" type="matrix" values="0 0 0 0 0 0 0 0 0 0 0 0 0 0 0 0 0 0 127 0" result="hardAlpha"/>
<feOffset/>
<feGaussianBlur stdDeviation="25"/>
<feComposite in2="hardAlpha" operator="out"/>
<feColorMatrix type="matrix" values="0 0 0 0 1 0 0 0 0 1 0 0 0 0 1 0 0 0 1 0"/>
<feBlend mode="normal" in2="BackgroundImageFix" result="effect1_dropShadow_813_15178"/>
<feBlend mode="normal" in="SourceGraphic" in2="effect1_dropShadow_813_15178" result="shape"/>
</filter>
<filter id="filter2_d_813_15178" x="490.898" y="380.273" width="154.758" height="139.204" filterUnits="userSpaceOnUse" color-interpolation-filters="sRGB">
<feFlood flood-opacity="0" result="BackgroundImageFix"/>
<feColorMatrix in="SourceAlpha" type="matrix" values="0 0 0 0 0 0 0 0 0 0 0 0 0 0 0 0 0 0 127 0" result="hardAlpha"/>
<feOffset/>
<feGaussianBlur stdDeviation="25"/>
<feComposite in2="hardAlpha" operator="out"/>
<feColorMatrix type="matrix" values="0 0 0 0 1 0 0 0 0 1 0 0 0 0 1 0 0 0 1 0"/>
<feBlend mode="normal" in2="BackgroundImageFix" result="effect1_dropShadow_813_15178"/>
<feBlend mode="normal" in="SourceGraphic" in2="effect1_dropShadow_813_15178" result="shape"/>
</filter>
</defs>
</svg>
