<svg width="1439" height="1880" fill="none" xmlns="http://www.w3.org/2000/svg"><mask id="a" style="mask-type:alpha" maskUnits="userSpaceOnUse" x="0" y="0" width="1441" height="1880"><path fill="#D9D9D9" d="M0 0h1441v1880H0z"/></mask><g mask="url(#a)"><path d="M185.773 15.562S174.909 126.77 260.311 182.04c198.622 128.527 306.809-88.43 533.787 52.412" stroke="#26144D" stroke-width="3" stroke-linecap="round" stroke-linejoin="round"/><path d="M161.5 2s-14.336 142.296 90.251 204.868C463.75 333.701 558.56 118.437 785.538 259.28" stroke="#26144D" stroke-width="3" stroke-linecap="round" stroke-linejoin="round"/><path d="M347.584 208.642l-8.976 21.187-13.508-13.044 3.491 19.444-18.085 4.759 19.2 8.234-6.601 21.92 16.827-15.051 15.404 11.346-3.155-20.033 20.629-13.354-22.325-.579-2.901-24.829z" fill="#FFBF33"/><path d="M929.107 937.953L724.574 819.829l204.533-118.145 204.533 118.145-204.533 118.124z" fill="#8ED760" stroke="#26144D" stroke-width="1.5" stroke-linecap="round" stroke-linejoin="round"/><path d="M928.768 977.922L724.235 859.776v-40.265l204.533 118.145v40.266z" fill="#956054" stroke="#26144D" stroke-width="1.5" stroke-linecap="round" stroke-linejoin="round"/><path d="M1133.49 860.094L928.959 978.218v-40.265l204.531-118.145v40.286z" fill="#A9776B" stroke="#26144D" stroke-width="1.5" stroke-linecap="round" stroke-linejoin="round"/><path d="M823.746 825.66v12.086m204.154-12.892v12.085m-61.192-65.263v12.086m-130.88 47.941v12.086m38.257-64.459v12.086m-10.471-16.518v12.086m153.026 31.021v12.086m-10.47-4.029v12.086m-86.177 39.46v12.086m-10.873-20.547v12.086m-10.873-3.222v12.086m57.185-111.169v12.086m23.357-10.878v12.086m-166.721 40.287v12.086m41.479-64.862v12.086" stroke="#5FAE2C" stroke-width="1.5" stroke-linecap="round" stroke-linejoin="round"/><path d="M904 852.5l86.5 50 33.93-19.782L938.5 833.5l-34.5 19z" fill="#B2B4B3" opacity=".46"/><path d="M1191.61 735.694l-135.37-78.177 135.35-78.199 135.37 78.199-135.35 78.177z" fill="#8ED760" stroke="#26144D" stroke-width="1.5" stroke-linecap="round" stroke-linejoin="round"/><path d="M1191.38 762.134L1056 683.957v-26.652l135.38 78.177v26.652z" fill="#956054" stroke="#26144D" stroke-width="1.5" stroke-linecap="round" stroke-linejoin="round"/><path d="M1326.86 684.148l-135.36 78.198v-26.653l135.36-78.198v26.653z" fill="#A9776B" stroke="#26144D" stroke-width="1.5" stroke-linecap="round" stroke-linejoin="round"/><path d="M1123.02 655.927v8.842m149.28-9.436v8.842m-44.77-47.708v8.82m-95.69 35.05v8.842m27.98-47.136v8.842m-7.65-12.065v8.821m111.88 22.688v8.842m-7.65-2.947v8.841m-63.01 28.858v8.842m-7.95-15.034v8.842m-7.95-2.353v8.842m41.8-81.294v8.82m17.08-7.951v8.842m-121.89 29.452v8.841m30.33-47.432v8.842" stroke="#5FAE2C" stroke-width="1.5" stroke-linecap="round" stroke-linejoin="round"/><path d="M1000.79 622.573l-135.353-78.177 135.353-78.177 135.37 78.177-135.37 78.177z" fill="#8ED760" stroke="#26144D" stroke-width="1.5" stroke-linecap="round" stroke-linejoin="round"/><path d="M1000.58 649.035l-135.376-78.199v-26.652l135.376 78.198v26.653z" fill="#956054" stroke="#26144D" stroke-width="1.5" stroke-linecap="round" stroke-linejoin="round"/><path d="M1136.06 571.048l-135.36 78.177v-26.652l135.36-78.177v26.652z" fill="#A9776B" stroke="#26144D" stroke-width="1.5" stroke-linecap="round" stroke-linejoin="round"/><path d="M931.333 544.289v8.842m149.277-9.436v8.842m-44.74-47.728v8.841m-95.699 35.049v8.842m27.956-47.135v8.842m-7.651-12.086v8.842m111.894 22.687v8.842m-7.66-2.947v8.842m-63.01 28.858v8.842m-7.948-15.033v8.842m-7.948-2.354v8.842m41.816-81.316v8.842m17.06-7.951v8.842m-121.889 29.451v8.842m30.33-47.432v8.842" stroke="#5FAE2C" stroke-width="1.5" stroke-linecap="round" stroke-linejoin="round"/><path d="M804.692 497.091L669.34 418.914l135.352-78.177 135.373 78.177-135.373 78.177z" fill="#8ED760" stroke="#26144D" stroke-width="1.5" stroke-linecap="round" stroke-linejoin="round"/><path d="M804.48 523.553l-135.373-78.198v-26.653L804.48 496.9v26.653z" fill="#956054" stroke="#26144D" stroke-width="1.5" stroke-linecap="round" stroke-linejoin="round"/><path d="M939.959 445.567l-135.373 78.177v-26.653l135.373-78.177v26.653z" fill="#A9776B" stroke="#26144D" stroke-width="1.5" stroke-linecap="round" stroke-linejoin="round"/><path d="M1184.72 663.263l62.59 38.081 16.77-9.435-63.89-37.7-15.47 9.054zM993.053 550.375l62.567 38.06 16.79-9.414-63.91-37.7-15.447 9.054zM794.73 425.763l62.568 38.081 16.787-9.435-63.882-37.7-15.473 9.054z" fill="#B2B4B3" opacity=".46"/><path d="M735.723 419.147v8.842m149.298-9.435v8.842m-44.764-47.729v8.842m-95.696 35.049v8.841m27.978-47.134v8.841m-7.652-12.085v8.841m111.889 22.688v8.842m-7.672-2.948v8.821m-62.992 28.88v8.841m-7.969-15.033v8.842m-7.949-2.354v8.842m41.818-81.315v8.842m17.084-7.952v8.842m-121.915 29.451v8.842m30.33-47.431v8.841" stroke="#5FAE2C" stroke-width="2" stroke-linecap="round" stroke-linejoin="round"/><path d="M810.266 425.594c-3.624 1.951-9.538 1.951-13.183 0-2.141-1.166-3.031-2.757-2.607-4.283V210.019h18.418v211.292c.403 1.526-.466 3.095-2.607 4.283h-.021z" fill="#B2B4B3" stroke="#26144D" stroke-width="2" stroke-linecap="round" stroke-linejoin="round"/><path d="M803.675 215.171c5.138 0 9.304-2.25 9.304-5.026 0-2.775-4.166-5.025-9.304-5.025-5.139 0-9.305 2.25-9.305 5.025 0 2.776 4.166 5.026 9.305 5.026z" fill="#fff" stroke="#26144D" stroke-width="2" stroke-linecap="round" stroke-linejoin="round"/><path d="M766.032 270.639c-1.844.996-4.833.996-6.676 0-1.081-.594-1.527-1.4-1.336-2.163v-10.814h9.326v10.814c.212.763-.233 1.569-1.335 2.163h.021z" fill="#7D7D7B" stroke="#26144D" stroke-width="2" stroke-linecap="round" stroke-linejoin="round"/><path d="M762.704 260.27c2.611 0 4.727-1.139 4.727-2.544s-2.116-2.544-4.727-2.544c-2.61 0-4.726 1.139-4.726 2.544s2.116 2.544 4.726 2.544zm81.771-30.915c-1.844.997-4.832.997-6.676 0-1.081-.593-1.526-1.399-1.336-2.162v-10.814h9.326v10.814c.212.763-.233 1.569-1.335 2.162h.021z" fill="#7D7D7B" stroke="#26144D" stroke-width="2" stroke-linecap="round" stroke-linejoin="round"/><path d="M841.126 218.987c2.611 0 4.727-1.139 4.727-2.544s-2.116-2.545-4.727-2.545c-2.61 0-4.726 1.14-4.726 2.545s2.116 2.544 4.726 2.544zm-14.264 19.529c-1.844.996-4.832.996-6.676 0-1.081-.594-1.526-1.4-1.336-2.163v-10.814h9.326v10.814c.212.763-.233 1.569-1.335 2.163h.021z" fill="#7D7D7B" stroke="#26144D" stroke-width="2" stroke-linecap="round" stroke-linejoin="round"/><path d="M823.534 228.147c2.611 0 4.727-1.139 4.727-2.544s-2.116-2.544-4.727-2.544c-2.61 0-4.726 1.139-4.726 2.544s2.116 2.544 4.726 2.544zm-37.494 32.335c-1.844.997-4.832.997-6.676 0-1.081-.593-1.526-1.399-1.336-2.162v-10.814h9.326v10.814c.212.763-.233 1.569-1.335 2.162h.021z" fill="#7D7D7B" stroke="#26144D" stroke-width="2" stroke-linecap="round" stroke-linejoin="round"/><path d="M782.691 250.135c2.611 0 4.727-1.139 4.727-2.545 0-1.405-2.116-2.544-4.727-2.544-2.61 0-4.726 1.139-4.726 2.544 0 1.406 2.116 2.545 4.726 2.545z" fill="#7D7D7B" stroke="#26144D" stroke-width="2" stroke-linecap="round" stroke-linejoin="round"/><path d="M853.292 231.391c1.59.912 2.798 3.159 2.692 5.004-.085 1.102-.593 1.802-1.335 1.993l-92.708 49.764-3.751-6.997 92.707-49.764c.594-.509 1.463-.551 2.417 0h-.022z" fill="#fff" stroke="#26144D" stroke-width="2" stroke-linecap="round" stroke-linejoin="round"/><path d="M762.024 288.237c1.217-.653 1.351-2.772.3-4.733-1.051-1.961-2.89-3.021-4.107-2.367-1.218.653-1.352 2.772-.301 4.732 1.052 1.961 2.891 3.021 4.108 2.368z" fill="#B2B4B3" stroke="#26144D" stroke-width="2" stroke-linecap="round" stroke-linejoin="round"/><path d="M763.149 271.274l3.074 4.135m21.534-10.156l-3.052-4.113m43.937-18.172l-3.073-4.114m20.39-5.067l-3.052-4.135" stroke="#26144D" stroke-width="2" stroke-linecap="round" stroke-linejoin="round"/><path d="M891.613 714.893s-69.499 43-148.408 51.842c-51.25 5.746-120.579 1.866-120.579 1.866" stroke="#6CA3FF" stroke-width="2" stroke-linecap="round" stroke-linejoin="round"/><path d="M856.281 695.449s-53.582 32.993-109.537 47.135c-52.542 13.274-128.972 21.204-128.972 21.204m150.167-486.322s46.269 45.608 90.271 72.452c44.001 26.843 97.01 40.647 97.01 40.647M845.683 233.278s46.269 45.609 90.27 72.452c44.002 26.844 97.007 40.647 97.007 40.647M829.766 242.12s46.269 45.609 90.27 72.452c44.001 26.844 97.014 40.647 97.014 40.647m-229.844-90.136s46.269 45.609 90.27 72.452c44.001 26.844 97.01 40.647 97.01 40.647" stroke="#6CA3FF" stroke-width="2" stroke-linecap="round" stroke-linejoin="round"/><path d="M1006.66 548.849c-3.62 1.951-9.538 1.951-13.183 0-2.141-1.166-3.031-2.757-2.607-4.283V333.295h18.42v211.292c.4 1.527-.47 3.096-2.61 4.283l-.02-.021z" fill="#B2B4B3" stroke="#26144D" stroke-width="2" stroke-linecap="round" stroke-linejoin="round"/><path d="M1000.09 338.447c5.14 0 9.3-2.25 9.3-5.025 0-2.776-4.16-5.026-9.3-5.026-5.139 0-9.305 2.25-9.305 5.026 0 2.775 4.166 5.025 9.305 5.025z" fill="#fff" stroke="#26144D" stroke-width="2" stroke-linecap="round" stroke-linejoin="round"/><path d="M962.426 393.915c-1.844.997-4.832.997-6.676 0-1.081-.594-1.526-1.399-1.336-2.163v-10.814h9.326v10.814c.212.764-.233 1.569-1.335 2.163h.021z" fill="#7D7D7B" stroke="#26144D" stroke-width="2" stroke-linecap="round" stroke-linejoin="round"/><path d="M959.098 383.547c2.611 0 4.727-1.139 4.727-2.545 0-1.405-2.116-2.544-4.727-2.544-2.61 0-4.726 1.139-4.726 2.544 0 1.406 2.116 2.545 4.726 2.545zm81.772-30.915c-1.84.996-4.83.996-6.68 0-1.08-.594-1.52-1.4-1.33-2.163v-10.814h9.32v10.814c.22.763-.23 1.569-1.33 2.163h.02z" fill="#7D7D7B" stroke="#26144D" stroke-width="2" stroke-linecap="round" stroke-linejoin="round"/><path d="M1037.54 342.264c2.61 0 4.73-1.14 4.73-2.545s-2.12-2.544-4.73-2.544c-2.61 0-4.73 1.139-4.73 2.544s2.12 2.545 4.73 2.545zm-14.26 19.528c-1.85.996-4.84.996-6.68 0-1.08-.594-1.53-1.399-1.33-2.163v-10.814h9.32v10.814c.21.764-.23 1.569-1.33 2.163h.02z" fill="#7D7D7B" stroke="#26144D" stroke-width="2" stroke-linecap="round" stroke-linejoin="round"/><path d="M1019.93 351.424c2.61 0 4.72-1.139 4.72-2.545 0-1.405-2.11-2.544-4.72-2.544s-4.73 1.139-4.73 2.544c0 1.406 2.12 2.545 4.73 2.545zm-37.496 32.335c-1.844.996-4.832.996-6.676 0-1.081-.594-1.526-1.4-1.336-2.163v-10.814h9.326v10.814c.212.763-.233 1.569-1.335 2.163h.021z" fill="#7D7D7B" stroke="#26144D" stroke-width="2" stroke-linecap="round" stroke-linejoin="round"/><path d="M979.085 373.411c2.611 0 4.727-1.139 4.727-2.544 0-1.406-2.116-2.545-4.727-2.545-2.61 0-4.726 1.139-4.726 2.545 0 1.405 2.116 2.544 4.726 2.544z" fill="#7D7D7B" stroke="#26144D" stroke-width="2" stroke-linecap="round" stroke-linejoin="round"/><path d="M1049.69 354.667c1.59.912 2.79 3.16 2.69 5.004-.09 1.103-.6 1.803-1.34 1.993l-92.705 49.765-3.751-6.997 92.706-49.765c.59-.509 1.46-.551 2.42 0h-.02z" fill="#fff" stroke="#26144D" stroke-width="2" stroke-linecap="round" stroke-linejoin="round"/><path d="M958.42 411.492c1.217-.653 1.352-2.772.3-4.733-1.051-1.961-2.89-3.021-4.107-2.367-1.217.653-1.352 2.772-.3 4.732 1.051 1.961 2.89 3.021 4.107 2.368z" fill="#B2B4B3" stroke="#26144D" stroke-width="2" stroke-linecap="round" stroke-linejoin="round"/><path d="M962.617 398.685l-3.073-4.134m24.628-6.022l-3.073-4.113m43.941-18.172l-3.08-4.113m20.39-5.089l-3.05-4.113" stroke="#26144D" stroke-width="2" stroke-linecap="round" stroke-linejoin="round"/><path d="M962.723 394.552s46.267 45.608 90.267 72.452c44.89 27.395 97.01 40.647 97.01 40.647m-109.55-157.288s46.26 45.609 90.27 72.452c44.89 27.395 97.01 40.647 97.01 40.647m-203.18-104.257s46.27 45.609 90.27 72.452c44.89 27.395 97.01 40.647 97.01 40.647m-229.841-90.135s46.271 45.609 90.271 72.452c44.89 27.395 97.01 40.647 97.01 40.647" stroke="#6CA3FF" stroke-width="2" stroke-linecap="round" stroke-linejoin="round"/><path d="M1198.94 662.415c-3.62 1.951-9.54 1.951-13.18 0-2.14-1.166-3.03-2.756-2.61-4.283V446.84h18.42v211.292c.4 1.527-.47 3.096-2.61 4.283h-.02z" fill="#B2B4B3" stroke="#26144D" stroke-width="2" stroke-linecap="round" stroke-linejoin="round"/><path d="M1192.35 451.992c5.14 0 9.31-2.25 9.31-5.025 0-2.776-4.17-5.026-9.31-5.026-5.14 0-9.3 2.25-9.3 5.026 0 2.775 4.16 5.025 9.3 5.025z" fill="#fff" stroke="#26144D" stroke-width="2" stroke-linecap="round" stroke-linejoin="round"/><path d="M1154.71 507.46c-1.85.996-4.83.996-6.68 0-1.08-.594-1.52-1.4-1.33-2.163v-10.814h9.32v10.814c.21.763-.23 1.569-1.33 2.163h.02z" fill="#7D7D7B" stroke="#26144D" stroke-width="2" stroke-linecap="round" stroke-linejoin="round"/><path d="M1151.38 497.092c2.61 0 4.73-1.139 4.73-2.545 0-1.405-2.12-2.544-4.73-2.544-2.61 0-4.73 1.139-4.73 2.544 0 1.406 2.12 2.545 4.73 2.545zm81.77-30.914c-1.84.996-4.83.996-6.67 0-1.09-.594-1.53-1.4-1.34-2.163v-10.814h9.33v10.814c.21.763-.24 1.569-1.34 2.163h.02z" fill="#7D7D7B" stroke="#26144D" stroke-width="2" stroke-linecap="round" stroke-linejoin="round"/><path d="M1229.8 455.83c2.61 0 4.73-1.139 4.73-2.544 0-1.406-2.12-2.545-4.73-2.545-2.61 0-4.72 1.139-4.72 2.545 0 1.405 2.11 2.544 4.72 2.544zm-14.26 19.507c-1.85.996-4.83.996-6.68 0-1.08-.594-1.52-1.4-1.33-2.163V462.36h9.32v10.814c.21.763-.23 1.569-1.33 2.163h.02z" fill="#7D7D7B" stroke="#26144D" stroke-width="2" stroke-linecap="round" stroke-linejoin="round"/><path d="M1212.21 464.989c2.61 0 4.73-1.139 4.73-2.544s-2.12-2.545-4.73-2.545c-2.61 0-4.73 1.14-4.73 2.545s2.12 2.544 4.73 2.544zm-37.51 32.335c-1.85.997-4.84.997-6.68 0-1.08-.594-1.53-1.399-1.34-2.163v-10.813h9.33v10.813c.21.764-.23 1.569-1.34 2.163h.03z" fill="#7D7D7B" stroke="#26144D" stroke-width="2" stroke-linecap="round" stroke-linejoin="round"/><path d="M1171.37 486.956c2.61 0 4.72-1.139 4.72-2.544 0-1.406-2.11-2.545-4.72-2.545s-4.73 1.139-4.73 2.545c0 1.405 2.12 2.544 4.73 2.544z" fill="#7D7D7B" stroke="#26144D" stroke-width="2" stroke-linecap="round" stroke-linejoin="round"/><path d="M1241.95 468.212c1.59.912 2.8 3.159 2.69 5.004-.09 1.103-.59 1.802-1.34 1.993l-92.7 49.765-3.76-6.997 92.71-49.765c.6-.509 1.46-.551 2.42 0h-.02z" fill="#fff" stroke="#26144D" stroke-width="2" stroke-linecap="round" stroke-linejoin="round"/><path d="M1150.69 525.099c1.22-.653 1.35-2.772.3-4.733-1.05-1.96-2.89-3.02-4.11-2.367-1.22.653-1.35 2.772-.3 4.733 1.05 1.96 2.89 3.02 4.11 2.367z" fill="#B2B4B3" stroke="#26144D" stroke-width="2" stroke-linecap="round" stroke-linejoin="round"/><path d="M1154.9 512.231l-3.07-4.114m24.6-6.021l-3.05-4.135m43.94-18.172l-3.07-4.113m20.39-5.067l-3.08-4.114" stroke="#26144D" stroke-width="2" stroke-linecap="round" stroke-linejoin="round"/><path d="M1154.41 511.637L865.988 693.668M1176.48 502.35L899.116 712.242m317.124-232.41L931.799 729.905m302.541-258.469L961.833 747.589" stroke="#6CA3FF" stroke-width="2" stroke-linecap="round" stroke-linejoin="round"/><path d="M952.528 880.598l-120.833-69.801V723.29l120.833 69.781v87.527z" fill="#004DA9" stroke="#26144D" stroke-width="1.5" stroke-linecap="round" stroke-linejoin="round"/><path d="M936.123 859.225L848.121 808.4v-56.549l88.002 50.824v56.55z" fill="#248CFF" stroke="#26144D" stroke-width="1.5" stroke-linecap="round" stroke-linejoin="round"/><path d="M855.476 811.793v-54.535m8.795 59.624v-54.557m7.906 59.115v-54.535m7.694 58.967v-54.535m7.906 59.094v-54.535m8.118 59.242v-54.535m8.478 59.412v-54.536m8.563 59.497V790.44m7.905 59.095V795m7.906 59.114v-54.535" stroke="#26144D" stroke-width="1.5" stroke-linecap="round" stroke-linejoin="round"/><path d="M986.631 861.09l-33.997 19.635v-87.528l33.997-19.635v87.528z" fill="#0069EA" stroke="#26144D" stroke-width="1.5" stroke-linecap="round" stroke-linejoin="round"/><path d="M979.34 853.415l-20.114 11.598v-56.549l20.114-11.599v56.55z" fill="#248CFF" stroke="#26144D" stroke-width="1.5" stroke-linecap="round" stroke-linejoin="round"/><path d="M965.351 860.624v-54.535m7.27 50.337v-54.535" stroke="#26144D" stroke-width="1.5" stroke-linecap="round" stroke-linejoin="round"/><path d="M944.94 796.23l-127.679-73.746 53.242-30.745 127.679 73.746-53.242 30.745z" fill="#D8D8D8" stroke="#26144D" stroke-width="1.5" stroke-linecap="round" stroke-linejoin="round"/><path d="M855.391 723.714l108.201 60.091 18.991-10.602-105.552-59.2-21.64 9.711z" fill="#B2B4B3" opacity=".46"/><path d="M998.034 777.125l-53.242 30.745v-11.302l53.242-30.745v11.302z" fill="#B2B4B3" stroke="#26144D" stroke-width="1.5" stroke-linecap="round" stroke-linejoin="round"/><path d="M944.898 807.976L817.24 734.23v-11.301l127.658 73.745v11.302z" fill="#7D7D7B" stroke="#26144D" stroke-width="1.5" stroke-linecap="round" stroke-linejoin="round"/><path d="M933.346 758.89c-3.709 2.014-9.707 2.014-13.437 0-2.183-1.209-3.074-2.862-2.671-4.432v-22.072h18.758v22.072c.403 1.57-.466 3.202-2.671 4.432h.021z" fill="#fff" stroke="#26144D" stroke-width="1.5" stroke-linecap="round" stroke-linejoin="round"/><path d="M935.954 749.03c.402 1.569-.467 3.202-2.65 4.432-3.688 2.014-9.665 2.014-13.353 0-2.183-1.209-3.052-2.863-2.649-4.432" fill="#fff"/><path d="M935.954 749.03c.402 1.569-.467 3.202-2.65 4.432-3.688 2.014-9.665 2.014-13.353 0-2.183-1.209-3.052-2.863-2.649-4.432" stroke="#26144D" stroke-width="1.5" stroke-linecap="round" stroke-linejoin="round"/><path d="M935.954 743.348c.402 1.569-.467 3.201-2.65 4.431-3.688 2.014-9.665 2.014-13.353 0-2.183-1.208-3.052-2.862-2.649-4.431" fill="#fff"/><path d="M935.954 743.348c.402 1.569-.467 3.201-2.65 4.431-3.688 2.014-9.665 2.014-13.353 0-2.183-1.208-3.052-2.862-2.649-4.431" stroke="#26144D" stroke-width="1.5" stroke-linecap="round" stroke-linejoin="round"/><path d="M935.996 737.92c.403 1.569-.466 3.202-2.65 4.431-3.688 2.015-9.665 2.015-13.352 0-2.184-1.208-3.053-2.862-2.65-4.431" fill="#fff"/><path d="M935.996 737.92c.403 1.569-.466 3.202-2.65 4.431-3.688 2.015-9.665 2.015-13.352 0-2.184-1.208-3.053-2.862-2.65-4.431" stroke="#26144D" stroke-width="1.5" stroke-linecap="round" stroke-linejoin="round"/><path d="M926.776 737.708c5.326 0 9.644-2.326 9.644-5.195s-4.318-5.195-9.644-5.195c-5.326 0-9.644 2.326-9.644 5.195s4.318 5.195 9.644 5.195z" fill="#fff" stroke="#26144D" stroke-width="1.5" stroke-linecap="round" stroke-linejoin="round"/><path d="M929.595 732.704c-1.357.743-3.582.743-4.96 0-.805-.445-1.144-1.038-.975-1.611v-8.015h6.931v8.015c.148.573-.169 1.166-.975 1.611h-.021z" fill="#fff" stroke="#26144D" stroke-width="1.5" stroke-linecap="round" stroke-linejoin="round"/><path d="M927.115 725.008c1.931 0 3.497-.845 3.497-1.887 0-1.043-1.566-1.888-3.497-1.888-1.931 0-3.497.845-3.497 1.888 0 1.042 1.566 1.887 3.497 1.887z" fill="#fff" stroke="#26144D" stroke-width="1.5" stroke-linecap="round" stroke-linejoin="round"/><path d="M927.285 727.34c5.326 0 9.643-2.326 9.643-5.195s-4.317-5.195-9.643-5.195c-5.326 0-9.644 2.326-9.644 5.195s4.318 5.195 9.644 5.195z" fill="#E40133" stroke="#26144D" stroke-width="1.5" stroke-linecap="round" stroke-linejoin="round"/><path d="M964.694 775.683c-3.709 2.014-9.707 2.014-13.438 0-2.183-1.209-3.073-2.862-2.67-4.432v-22.072h18.757v22.072c.403 1.57-.466 3.202-2.67 4.432h.021z" fill="#fff" stroke="#26144D" stroke-width="1.5" stroke-linecap="round" stroke-linejoin="round"/><path d="M967.322 765.823c.403 1.569-.466 3.202-2.649 4.432-3.688 2.014-9.665 2.014-13.353 0-2.183-1.209-3.052-2.863-2.649-4.432" fill="#fff"/><path d="M967.322 765.823c.403 1.569-.466 3.202-2.649 4.432-3.688 2.014-9.665 2.014-13.353 0-2.183-1.209-3.052-2.863-2.649-4.432" stroke="#26144D" stroke-width="1.5" stroke-linecap="round" stroke-linejoin="round"/><path d="M967.322 760.142c.403 1.569-.466 3.201-2.649 4.431-3.688 2.014-9.665 2.014-13.353 0-2.183-1.208-3.052-2.862-2.649-4.431" fill="#fff"/><path d="M967.322 760.142c.403 1.569-.466 3.201-2.649 4.431-3.688 2.014-9.665 2.014-13.353 0-2.183-1.208-3.052-2.862-2.649-4.431" stroke="#26144D" stroke-width="1.5" stroke-linecap="round" stroke-linejoin="round"/><path d="M967.365 754.713c.402 1.569-.467 3.202-2.65 4.431-3.688 2.015-9.665 2.015-13.353 0-2.183-1.208-3.052-2.862-2.649-4.431" fill="#fff"/><path d="M967.365 754.713c.402 1.569-.467 3.202-2.65 4.431-3.688 2.015-9.665 2.015-13.353 0-2.183-1.208-3.052-2.862-2.649-4.431" stroke="#26144D" stroke-width="1.5" stroke-linecap="round" stroke-linejoin="round"/><path d="M958.123 754.501c5.327 0 9.644-2.326 9.644-5.195s-4.317-5.195-9.644-5.195c-5.326 0-9.643 2.326-9.643 5.195s4.317 5.195 9.643 5.195z" fill="#fff" stroke="#26144D" stroke-width="1.5" stroke-linecap="round" stroke-linejoin="round"/><path d="M960.942 749.497c-1.356.743-3.582.743-4.959 0-.806-.445-1.145-1.038-.975-1.611v-8.015h6.931v8.015c.148.573-.17 1.166-.975 1.611h-.022z" fill="#fff" stroke="#26144D" stroke-width="1.5" stroke-linecap="round" stroke-linejoin="round"/><path d="M958.463 741.779c1.931 0 3.497-.845 3.497-1.887s-1.566-1.887-3.497-1.887c-1.932 0-3.498.845-3.498 1.887s1.566 1.887 3.498 1.887z" fill="#fff" stroke="#26144D" stroke-width="1.5" stroke-linecap="round" stroke-linejoin="round"/><path d="M958.632 744.133c5.326 0 9.644-2.326 9.644-5.195s-4.318-5.195-9.644-5.195c-5.326 0-9.644 2.326-9.644 5.195s4.318 5.195 9.644 5.195z" fill="#E40133" stroke="#26144D" stroke-width="1.5" stroke-linecap="round" stroke-linejoin="round"/><path d="M866.497 721.041c-3.709 2.015-9.707 2.015-13.438 0-2.183-1.208-3.073-2.862-2.67-4.431v-22.073h18.757v22.073c.403 1.569-.466 3.202-2.67 4.431h.021z" fill="#fff" stroke="#26144D" stroke-width="1.5" stroke-linecap="round" stroke-linejoin="round"/><path d="M869.125 711.182c.403 1.569-.466 3.201-2.649 4.431-3.688 2.014-9.665 2.014-13.353 0-2.183-1.208-3.052-2.862-2.649-4.431" fill="#fff"/><path d="M869.125 711.182c.403 1.569-.466 3.201-2.649 4.431-3.688 2.014-9.665 2.014-13.353 0-2.183-1.208-3.052-2.862-2.649-4.431" stroke="#26144D" stroke-width="1.5" stroke-linecap="round" stroke-linejoin="round"/><path d="M869.125 705.479c.403 1.569-.466 3.201-2.649 4.431-3.688 2.014-9.665 2.014-13.353 0-2.183-1.209-3.052-2.862-2.649-4.431" fill="#fff"/><path d="M869.125 705.479c.403 1.569-.466 3.201-2.649 4.431-3.688 2.014-9.665 2.014-13.353 0-2.183-1.209-3.052-2.862-2.649-4.431" stroke="#26144D" stroke-width="1.5" stroke-linecap="round" stroke-linejoin="round"/><path d="M869.168 700.071c.402 1.569-.467 3.202-2.65 4.432-3.688 2.014-9.665 2.014-13.353 0-2.183-1.209-3.052-2.863-2.649-4.432" fill="#fff"/><path d="M869.168 700.071c.402 1.569-.467 3.202-2.65 4.432-3.688 2.014-9.665 2.014-13.353 0-2.183-1.209-3.052-2.863-2.649-4.432" stroke="#26144D" stroke-width="1.5" stroke-linecap="round" stroke-linejoin="round"/><path d="M859.927 699.859c5.326 0 9.643-2.325 9.643-5.194 0-2.869-4.317-5.195-9.643-5.195-5.327 0-9.644 2.326-9.644 5.195s4.317 5.194 9.644 5.194z" fill="#fff" stroke="#26144D" stroke-width="1.5" stroke-linecap="round" stroke-linejoin="round"/><path d="M862.746 694.834c-1.357.742-3.582.742-4.96 0-.806-.445-1.145-1.039-.975-1.611v-8.015h6.931v8.015c.148.572-.17 1.166-.975 1.611h-.021z" fill="#fff" stroke="#26144D" stroke-width="1.5" stroke-linecap="round" stroke-linejoin="round"/><path d="M860.287 687.137c1.931 0 3.497-.844 3.497-1.887 0-1.042-1.566-1.887-3.497-1.887-1.932 0-3.497.845-3.497 1.887 0 1.043 1.565 1.887 3.497 1.887z" fill="#fff" stroke="#26144D" stroke-width="1.5" stroke-linecap="round" stroke-linejoin="round"/><path d="M860.435 689.491c5.326 0 9.644-2.326 9.644-5.195s-4.318-5.194-9.644-5.194c-5.326 0-9.644 2.325-9.644 5.194 0 2.869 4.318 5.195 9.644 5.195z" fill="#E40133" stroke="#26144D" stroke-width="1.5" stroke-linecap="round" stroke-linejoin="round"/><path d="M900.939 740.019c-3.709 2.014-9.707 2.014-13.438 0-2.183-1.209-3.073-2.863-2.67-4.432v-22.072h18.757v22.072c.403 1.569-.466 3.202-2.67 4.432h.021z" fill="#fff" stroke="#26144D" stroke-width="1.5" stroke-linecap="round" stroke-linejoin="round"/><path d="M903.546 730.159c.403 1.569-.466 3.202-2.649 4.432-3.688 2.014-9.665 2.014-13.353 0-2.183-1.209-3.052-2.863-2.65-4.432" fill="#fff"/><path d="M903.546 730.159c.403 1.569-.466 3.202-2.649 4.432-3.688 2.014-9.665 2.014-13.353 0-2.183-1.209-3.052-2.863-2.65-4.432" stroke="#26144D" stroke-width="1.5" stroke-linecap="round" stroke-linejoin="round"/><path d="M903.546 724.477c.403 1.569-.466 3.201-2.649 4.431-3.688 2.014-9.665 2.014-13.353 0-2.183-1.209-3.052-2.862-2.65-4.431" fill="#fff"/><path d="M903.546 724.477c.403 1.569-.466 3.201-2.649 4.431-3.688 2.014-9.665 2.014-13.353 0-2.183-1.209-3.052-2.862-2.65-4.431" stroke="#26144D" stroke-width="1.5" stroke-linecap="round" stroke-linejoin="round"/><path d="M903.61 719.069c.402 1.569-.467 3.202-2.65 4.432-3.688 2.014-9.665 2.014-13.353 0-2.183-1.209-3.052-2.863-2.649-4.432" fill="#fff"/><path d="M903.61 719.069c.402 1.569-.467 3.202-2.65 4.432-3.688 2.014-9.665 2.014-13.353 0-2.183-1.209-3.052-2.863-2.649-4.432" stroke="#26144D" stroke-width="1.5" stroke-linecap="round" stroke-linejoin="round"/><path d="M894.369 718.857c5.326 0 9.643-2.325 9.643-5.194 0-2.869-4.317-5.195-9.643-5.195-5.327 0-9.644 2.326-9.644 5.195s4.317 5.194 9.644 5.194z" fill="#fff" stroke="#26144D" stroke-width="1.5" stroke-linecap="round" stroke-linejoin="round"/><path d="M897.188 713.832c-1.357.743-3.582.743-4.96 0-.806-.445-1.145-1.039-.975-1.611v-8.015h6.931v8.015c.148.572-.17 1.166-.975 1.611h-.021z" fill="#fff" stroke="#26144D" stroke-width="1.5" stroke-linecap="round" stroke-linejoin="round"/><path d="M894.708 706.136c1.931 0 3.497-.845 3.497-1.888 0-1.042-1.566-1.887-3.497-1.887-1.932 0-3.498.845-3.498 1.887 0 1.043 1.566 1.888 3.498 1.888z" fill="#fff" stroke="#26144D" stroke-width="1.5" stroke-linecap="round" stroke-linejoin="round"/><path d="M894.877 708.489c5.326 0 9.644-2.326 9.644-5.195s-4.318-5.194-9.644-5.194c-5.326 0-9.643 2.325-9.643 5.194 0 2.869 4.317 5.195 9.643 5.195z" fill="#E40133" stroke="#26144D" stroke-width="1.5" stroke-linecap="round" stroke-linejoin="round"/><path d="M845.238 712.667l-16.341 9.287 98.642 55.956m-89.825-23.706v53.899" stroke="#fff" stroke-width="1.5" stroke-linecap="round" stroke-linejoin="round"/><path d="M955.792 749.646s-69.562 47.644-133.678 71.879c-53.009 20.037-113.796 11.047-113.796 11.047m215.088-99.423s-59.474 34.753-116.595 48.896c-53.666 13.273-112.482 13.549-112.482 13.549" stroke="#6CA3FF" stroke-width="2" stroke-linecap="round" stroke-linejoin="round"/><path d="M1191.78 1595.92c.13-7.47 5.36-16.8 11.68-20.85 3.77-2.35 7.03-2.33 9.09-.34l61.72 34.93-16.3 29.13-61.72-34.92c-2.75-.7-4.49-3.48-4.45-7.93l-.02-.02z" fill="#248CFF" stroke="#26144D" stroke-width="1.5" stroke-linecap="round" stroke-linejoin="round"/><path d="M1273.83 1628.56c4.56-8.14 4.69-16.74.3-19.2-4.39-2.46-11.64 2.15-16.2 10.29-4.56 8.14-4.7 16.74-.3 19.2 4.39 2.46 11.64-2.15 16.2-10.29z" fill="#0069EA" stroke="#26144D" stroke-width="1.5" stroke-linecap="round" stroke-linejoin="round"/><path d="M1132.86 1838.14L928.323 1720l204.537-118.12L1337.41 1720l-204.55 118.14z" fill="#8ED760" stroke="#26144D" stroke-width="1.5" stroke-linecap="round" stroke-linejoin="round"/><path d="M1132.54 1878.11l-204.556-118.14v-40.27l204.556 118.13v40.28z" fill="#956054" stroke="#26144D" stroke-width="1.5" stroke-linecap="round" stroke-linejoin="round"/><path d="M1337.26 1760.26l-204.55 118.15v-40.27L1337.26 1720v40.26z" fill="#A9776B" stroke="#26144D" stroke-width="1.5" stroke-linecap="round" stroke-linejoin="round"/><path d="M1006.6 1708.66v12.99m285.3-8.54v12.97m-272.33-10.91v12.97m260.23-22.39v12.98m-11.25-4.33v12.98m-130.88 66.58v12.97m-11.68-22.07v13m-11.68-3.48v13m-120.261-91.34v12.97" stroke="#5FAE2C" stroke-width="1.5" stroke-linecap="round" stroke-linejoin="round"/><path d="M458.915 1481.78l-357.986-206.27 207.203-119.67 357.986 206.29-207.203 119.65z" fill="#8ED760" stroke="#26144D" stroke-width="1.5" stroke-linecap="round" stroke-linejoin="round"/><path d="M236 1275.95L525.5 1443l44-25.5L283 1249l-47 26.95z" fill="#B2B4B3" opacity=".46"/><path d="M458.575 1522.28L100.59 1315.99v-40.8l357.985 206.29v40.8z" fill="#956054" stroke="#26144D" stroke-width="1.5" stroke-linecap="round" stroke-linejoin="round"/><path d="M665.97 1402.9l-207.204 119.67v-40.79l207.204-119.67v40.79z" fill="#A9776B" stroke="#26144D" stroke-width="1.5" stroke-linecap="round" stroke-linejoin="round"/><path d="M203.026 1266.9v11.16m188.276-11.9v11.15m-56.443-60.17v11.13m-120.685 44.21v11.15m35.269-59.43v11.13m-9.644-15.22v11.13m141.117 28.62V1271m-9.665-3.71v11.15m-79.46 36.4v11.14m-10.025-18.94v11.13m-10.026-2.97v11.16m52.734-102.54v11.15m21.534-10.03v11.13m-153.749 37.15v11.15m38.257-59.81v11.15m150.358 131.36v11.13m188.276-11.87v11.13m-56.442-60.18v11.16m-120.685 44.21v11.13m35.268-59.44v11.16m-9.643-15.25v11.15m141.117 28.61v11.15m-9.665-3.73v11.15m-79.461 36.41v11.15m-10.025-18.95v11.15m-10.025-2.97v11.13m52.733-102.54v11.15m21.534-10.02v11.15m-153.749 37.15v11.13m38.257-59.82v11.16" stroke="#5FAE2C" stroke-width="1.5" stroke-linecap="round" stroke-linejoin="round"/><path d="M1114.46 1664.36l-22.91-13.38.12-63.93 22.94 13.38-.15 63.93z" fill="#fff" stroke="#000" stroke-width="1.5" stroke-linecap="round" stroke-linejoin="round"/><path d="M1114.61 1600.43l-22.94-13.38 20.99-12.13 22.93 13.41-20.98 12.1z" fill="#248CFF" stroke="#26144D" stroke-width="1.5" stroke-linecap="round" stroke-linejoin="round"/><path d="M1099.3 1587.41l14.14-7.95" stroke="#fff" stroke-width="1.5" stroke-linecap="round" stroke-linejoin="round"/><path d="M1135.59 1588.33l-.15 63.92-20.98 12.11.15-63.93 20.98-12.1z" fill="#fff" stroke="#000" stroke-width="1.5" stroke-linecap="round" stroke-linejoin="round"/><path d="M1085.91 1680.86l-22.93-13.38.14-63.93 22.92 13.38-.13 63.93z" fill="#004DA9" stroke="#26144D" stroke-width="1.5" stroke-linecap="round" stroke-linejoin="round"/><path d="M1086.04 1616.93l-22.92-13.38 20.97-12.11 22.93 13.38-20.98 12.11z" fill="#248CFF" stroke="#26144D" stroke-width="1.5" stroke-linecap="round" stroke-linejoin="round"/><path d="M1070.71 1604.1l14.14-7.95" stroke="#fff" stroke-width="1.5" stroke-linecap="round" stroke-linejoin="round"/><path d="M1107.02 1604.82l-.15 63.93-20.96 12.11.13-63.93 20.98-12.11z" fill="#fff" stroke="#000" stroke-width="1.5" stroke-linecap="round" stroke-linejoin="round"/><path d="M1064.31 1758.08l102.01 60.09 134.72-76.88-59.18-36.68-177.55 53.47z" fill="#B2B4B3" opacity=".46"/><path d="M1057.34 1697.35l-22.94-13.38.15-63.92 22.94 13.4-.15 63.9z" fill="#004DA9" stroke="#26144D" stroke-width="1.5" stroke-linecap="round" stroke-linejoin="round"/><path d="M1057.49 1633.45l-22.94-13.4 20.97-12.11 22.93 13.38-20.96 12.13z" fill="#248CFF" stroke="#26144D" stroke-width="1.5" stroke-linecap="round" stroke-linejoin="round"/><path d="M1078.45 1621.32l-.13 63.93-20.98 12.1.15-63.9 20.96-12.13z" fill="#fff" stroke="#000" stroke-width="1.5" stroke-linecap="round" stroke-linejoin="round"/><path d="M1120.29 1773.81l-87.52-50.55v-85.68l87.52 50.55v85.68z" fill="#004DA9" stroke="#26144D" stroke-width="1.5" stroke-linecap="round" stroke-linejoin="round"/><path d="M1245.97 1701.21l-125.68 72.6v-85.68l125.68-72.6v85.68z" fill="#0069EA" stroke="#26144D" stroke-width="1.5" stroke-linecap="round" stroke-linejoin="round"/><path d="M1120.29 1688.13l-87.52-50.55 125.69-72.58 87.51 50.53-125.68 72.6z" fill="#248CFF" stroke="#26144D" stroke-width="1.5" stroke-linecap="round" stroke-linejoin="round"/><path d="M1090.19 1655.71l40.36 24.6 19.88-10.61-39.66-23.09-20.58 9.1zm36.39-24.74l44.75 26.22 19.13-11.19-40.63-23.86-23.25 8.83zm41.5-20.93l41.82 24.17 19.44-10.6-40.7-22.65-20.56 9.08z" fill="#B2B4B3" opacity=".46"/><path d="M1053.27 1665.74l41.22 23.26m-41.22-12.66l41.22 23.26m-41.22-12.06l41.22 23.26m-41.22-12.37l41.22 23.26" stroke="#26144D" stroke-width="1.5" stroke-linecap="round" stroke-linejoin="round"/><path d="M1225.75 1739.25l-22.91-13.4.13-63.91 22.93 13.38-.15 63.93z" fill="#004DA9" stroke="#26144D" stroke-width="1.5" stroke-linecap="round" stroke-linejoin="round"/><path d="M1225.9 1675.32l-22.93-13.38 20.98-12.12 22.94 13.4-20.99 12.1z" fill="#248CFF" stroke="#26144D" stroke-width="1.5" stroke-linecap="round" stroke-linejoin="round"/><path d="M1246.89 1663.22l-.15 63.92-20.99 12.11.15-63.93 20.99-12.1z" fill="#0069EA" stroke="#26144D" stroke-width="1.5" stroke-linecap="round" stroke-linejoin="round"/><path d="M1197.2 1755.75l-22.93-13.4.15-63.91 22.91 13.38-.13 63.93z" fill="#004DA9" stroke="#26144D" stroke-width="1.5" stroke-linecap="round" stroke-linejoin="round"/><path d="M1197.33 1691.82l-22.91-13.38 20.96-12.13 22.93 13.4-20.98 12.11z" fill="#248CFF" stroke="#26144D" stroke-width="1.5" stroke-linecap="round" stroke-linejoin="round"/><path d="M1218.31 1679.71l-.14 63.93-20.97 12.11.13-63.93 20.98-12.11z" fill="#0069EA" stroke="#26144D" stroke-width="1.5" stroke-linecap="round" stroke-linejoin="round"/><path d="M1168.63 1772.24l-22.93-13.38.15-63.92 22.93 13.38-.15 63.92z" fill="#004DA9" stroke="#26144D" stroke-width="1.5" stroke-linecap="round" stroke-linejoin="round"/><path d="M1168.78 1708.32l-22.93-13.38 20.96-12.13 22.93 13.4-20.96 12.11z" fill="#248CFF" stroke="#26144D" stroke-width="1.5" stroke-linecap="round" stroke-linejoin="round"/><path d="M1189.74 1696.21l-.12 63.93-20.99 12.1.15-63.92 20.96-12.11z" fill="#0069EA" stroke="#26144D" stroke-width="1.5" stroke-linecap="round" stroke-linejoin="round"/><path d="M1093.88 1774.26l-63.16-36.62.15-28.24 63.14 36.62-.13 28.24z" fill="#004DA9" stroke="#26144D" stroke-width="1.5" stroke-linecap="round" stroke-linejoin="round"/><path d="M1094.01 1746.02l-63.14-36.62 12.88-7.44 63.14 36.61-12.88 7.45z" fill="#248CFF" stroke="#26144D" stroke-width="1.5" stroke-linecap="round" stroke-linejoin="round"/><path d="M1106.89 1738.57l-.15 28.25-12.86 7.44.13-28.24 12.88-7.45z" fill="#0069EA" stroke="#26144D" stroke-width="1.5" stroke-linecap="round" stroke-linejoin="round"/><path d="M1182.79 1608.53c-5.23 2.19-13.29 1.34-17.99-1.89-2.76-1.92-3.73-4.26-2.95-6.29l3.1-29.56 25.13 2.63-3.09 29.56c.34 2.16-1.08 4.24-4.2 5.55z" fill="#fff" stroke="#26144D" stroke-width="1.5" stroke-linecap="round" stroke-linejoin="round"/><path d="M1187.69 1595.68c.34 2.17-1.08 4.24-4.18 5.56-5.21 2.18-13.22 1.33-17.89-1.87-2.75-1.93-3.71-4.26-2.92-6.29" fill="#fff"/><path d="M1187.69 1595.68c.34 2.17-1.08 4.24-4.18 5.56-5.21 2.18-13.22 1.33-17.89-1.87-2.75-1.93-3.71-4.26-2.92-6.29" stroke="#26144D" stroke-width="1.5" stroke-linecap="round" stroke-linejoin="round"/><path d="M1188.47 1588.07c.34 2.16-1.08 4.24-4.17 5.56-5.22 2.18-13.23 1.33-17.89-1.87-2.76-1.93-3.71-4.26-2.93-6.3" fill="#fff"/><path d="M1188.47 1588.07c.34 2.16-1.08 4.24-4.17 5.56-5.22 2.18-13.23 1.33-17.89-1.87-2.76-1.93-3.71-4.26-2.93-6.3" stroke="#26144D" stroke-width="1.5" stroke-linecap="round" stroke-linejoin="round"/><path d="M1189.3 1580.84c.34 2.16-1.08 4.24-4.18 5.56-5.21 2.18-13.22 1.33-17.89-1.87-2.75-1.93-3.7-4.26-2.92-6.3" fill="#fff"/><path d="M1189.3 1580.84c.34 2.16-1.08 4.24-4.18 5.56-5.21 2.18-13.22 1.33-17.89-1.87-2.75-1.93-3.7-4.26-2.92-6.3" stroke="#26144D" stroke-width="1.5" stroke-linecap="round" stroke-linejoin="round"/><path d="M1190.78 1571.47c.41-3.84-5.04-7.56-12.17-8.31-7.12-.74-13.23 1.77-13.63 5.61-.4 3.84 5.05 7.56 12.17 8.31 7.13.75 13.23-1.76 13.63-5.61z" fill="#fff" stroke="#26144D" stroke-width="1.5" stroke-linecap="round" stroke-linejoin="round"/><path d="M1191.73 1562.46c.41-3.84-5.04-7.56-12.17-8.31-7.12-.75-13.22 1.76-13.63 5.61-.4 3.84 5.05 7.56 12.18 8.31 7.12.75 13.22-1.77 13.62-5.61z" fill="#fff" stroke="#26144D" stroke-width="1.5" stroke-linecap="round" stroke-linejoin="round"/><path d="M1182.73 1560.61c-1.93.79-4.9.49-6.64-.7-1.01-.7-1.37-1.55-1.1-2.29l1.13-10.75 9.28.98-1.12 10.75c.12.78-.41 1.55-1.55 2.01z" fill="#fff" stroke="#26144D" stroke-width="1.5" stroke-linecap="round" stroke-linejoin="round"/><path d="M1185.44 1547.89c.15-1.4-1.84-2.75-4.44-3.03-2.59-.27-4.81.64-4.96 2.04-.15 1.4 1.84 2.75 4.43 3.02 2.6.28 4.82-.64 4.97-2.03z" fill="#fff" stroke="#26144D" stroke-width="1.5" stroke-linecap="round" stroke-linejoin="round"/><path d="M1193.98 1547.47c.4-3.84-5.05-7.56-12.17-8.31-7.13-.75-13.23 1.76-13.63 5.61-.4 3.84 5.05 7.56 12.17 8.31 7.13.74 13.23-1.77 13.63-5.61z" fill="#E40133" stroke="#26144D" stroke-width="1.5" stroke-linecap="round" stroke-linejoin="round"/><path d="M1146.27 1630.2c-4.98 2.72-13.07 2.72-18.08 0-2.94-1.63-4.15-3.83-3.58-5.96v-29.72h25.27v29.72c.55 2.13-.64 4.33-3.59 5.96h-.02z" fill="#fff" stroke="#26144D" stroke-width="1.5" stroke-linecap="round" stroke-linejoin="round"/><path d="M1149.79 1616.93c.55 2.12-.63 4.33-3.56 5.96-4.96 2.71-13.01 2.71-17.99 0-2.93-1.63-4.14-3.84-3.57-5.96" fill="#fff"/><path d="M1149.79 1616.93c.55 2.12-.63 4.33-3.56 5.96-4.96 2.71-13.01 2.71-17.99 0-2.93-1.63-4.14-3.84-3.57-5.96" stroke="#26144D" stroke-width="1.5" stroke-linecap="round" stroke-linejoin="round"/><path d="M1149.79 1609.27c.55 2.12-.63 4.33-3.56 5.96-4.96 2.72-13.01 2.72-17.99 0-2.93-1.63-4.14-3.84-3.57-5.96" fill="#fff"/><path d="M1149.79 1609.27c.55 2.12-.63 4.33-3.56 5.96-4.96 2.72-13.01 2.72-17.99 0-2.93-1.63-4.14-3.84-3.57-5.96" stroke="#26144D" stroke-width="1.5" stroke-linecap="round" stroke-linejoin="round"/><path d="M1149.85 1601.98c.56 2.12-.63 4.33-3.56 5.96-4.96 2.71-13.01 2.71-17.99 0-2.93-1.63-4.13-3.84-3.56-5.96" fill="#fff"/><path d="M1149.85 1601.98c.56 2.12-.63 4.33-3.56 5.96-4.96 2.71-13.01 2.71-17.99 0-2.93-1.63-4.13-3.84-3.56-5.96" stroke="#26144D" stroke-width="1.5" stroke-linecap="round" stroke-linejoin="round"/><path d="M1137.43 1599.59c7.17 0 12.98-3.14 12.98-7 0-3.87-5.81-7-12.98-7-7.16 0-12.97 3.13-12.97 7 0 3.86 5.81 7 12.97 7z" fill="#fff" stroke="#26144D" stroke-width="1.5" stroke-linecap="round" stroke-linejoin="round"/><path d="M1137.43 1590.51c7.17 0 12.98-3.13 12.98-7 0-3.86-5.81-6.99-12.98-6.99-7.16 0-12.97 3.13-12.97 6.99 0 3.87 5.81 7 12.97 7z" fill="#fff" stroke="#26144D" stroke-width="1.5" stroke-linecap="round" stroke-linejoin="round"/><path d="M1141.23 1582.58c-1.85 1-4.83 1-6.68 0-1.08-.59-1.52-1.4-1.33-2.16v-10.82h9.32v10.82c.21.76-.23 1.57-1.33 2.16h.02z" fill="#fff" stroke="#26144D" stroke-width="1.5" stroke-linecap="round" stroke-linejoin="round"/><path d="M1137.88 1572.21c2.61 0 4.73-1.14 4.73-2.54 0-1.41-2.12-2.55-4.73-2.55-2.61 0-4.73 1.14-4.73 2.55 0 1.4 2.12 2.54 4.73 2.54z" fill="#fff" stroke="#26144D" stroke-width="1.5" stroke-linecap="round" stroke-linejoin="round"/><path d="M1138.11 1575.37c7.17 0 12.97-3.13 12.97-7 0-3.86-5.8-6.99-12.97-6.99-7.16 0-12.97 3.13-12.97 6.99 0 3.87 5.81 7 12.97 7z" fill="#E40133" stroke="#26144D" stroke-width="1.5" stroke-linecap="round" stroke-linejoin="round"/><path d="M1108.1 1653.04c-4.54 3.41-12.55 4.6-17.89 2.65-3.16-1.19-4.66-3.2-4.43-5.37l-4.36-29.4 24.98-3.71 4.37 29.4c.87 2.02 0 4.37-2.67 6.43z" fill="#fff" stroke="#26144D" stroke-width="1.5" stroke-linecap="round" stroke-linejoin="round"/><path d="M1109.63 1639.4c.84 2.02 0 4.37-2.65 6.43-4.5 3.41-12.47 4.6-17.79 2.65-3.13-1.19-4.64-3.2-4.4-5.37" fill="#fff"/><path d="M1109.63 1639.4c.84 2.02 0 4.37-2.65 6.43-4.5 3.41-12.47 4.6-17.79 2.65-3.13-1.19-4.64-3.2-4.4-5.37" stroke="#26144D" stroke-width="1.5" stroke-linecap="round" stroke-linejoin="round"/><path d="M1108.5 1631.81c.85 2.02 0 4.37-2.65 6.43-4.49 3.41-12.46 4.6-17.78 2.65-3.14-1.19-4.64-3.2-4.41-5.37" fill="#fff"/><path d="M1108.5 1631.81c.85 2.02 0 4.37-2.65 6.43-4.49 3.41-12.46 4.6-17.78 2.65-3.14-1.19-4.64-3.2-4.41-5.37" stroke="#26144D" stroke-width="1.5" stroke-linecap="round" stroke-linejoin="round"/><path d="M1107.51 1624.6c.84 2.02 0 4.37-2.65 6.43-4.5 3.41-12.47 4.6-17.79 2.65-3.13-1.19-4.64-3.2-4.4-5.36" fill="#fff"/><path d="M1107.51 1624.6c.84 2.02 0 4.37-2.65 6.43-4.5 3.41-12.47 4.6-17.79 2.65-3.13-1.19-4.64-3.2-4.4-5.36" stroke="#26144D" stroke-width="1.5" stroke-linecap="round" stroke-linejoin="round"/><path d="M1094.87 1623.99c7.09-1.05 12.37-5 11.81-8.82-.57-3.82-6.77-6.07-13.86-5.02-7.09 1.05-12.37 5-11.81 8.83.57 3.82 6.78 6.07 13.86 5.01z" fill="#fff" stroke="#26144D" stroke-width="1.5" stroke-linecap="round" stroke-linejoin="round"/><path d="M1093.55 1615.04c7.09-1.05 12.37-5 11.8-8.82-.56-3.83-6.77-6.07-13.85-5.02-7.09 1.05-12.37 5-11.81 8.83.57 3.82 6.77 6.06 13.86 5.01z" fill="#fff" stroke="#26144D" stroke-width="1.5" stroke-linecap="round" stroke-linejoin="round"/><path d="M1096.1 1606.67c-1.67 1.25-4.62 1.67-6.61.97-1.16-.42-1.72-1.16-1.63-1.95l-1.59-10.69 9.22-1.37 1.59 10.68c.32.74 0 1.59-1 2.33l.02.03z" fill="#fff" stroke="#26144D" stroke-width="1.5" stroke-linecap="round" stroke-linejoin="round"/><path d="M1091.32 1596.87c2.58-.38 4.51-1.82 4.3-3.21-.21-1.39-2.47-2.2-5.05-1.82-2.58.38-4.51 1.82-4.3 3.21.21 1.39 2.47 2.21 5.05 1.82z" fill="#fff" stroke="#26144D" stroke-width="1.5" stroke-linecap="round" stroke-linejoin="round"/><path d="M1091.99 1599.95c7.09-1.05 12.37-5 11.8-8.82-.56-3.82-6.77-6.07-13.85-5.02-7.09 1.05-12.37 5-11.81 8.83.57 3.82 6.77 6.07 13.86 5.01z" fill="#E40133" stroke="#26144D" stroke-width="1.5" stroke-linecap="round" stroke-linejoin="round"/><path d="M1043.09 1637.9l76.41 44.19m83.64-102.37l55.06 32.1m-132.51 149.8v-69.82l107.78-62.3m-191.03-9.29l14.13-7.95" stroke="#fff" stroke-width="1.5" stroke-linecap="round" stroke-linejoin="round"/><path d="M480.809 1111.27l-135.373-78.2 135.373-78.175 135.352 78.175-135.352 78.2z" fill="#8ED760" stroke="#26144D" stroke-width="1.5" stroke-linecap="round" stroke-linejoin="round"/><path d="M480.576 1137.71l-135.352-78.18v-26.65l135.352 78.18v26.65z" fill="#956054" stroke="#26144D" stroke-width="1.5" stroke-linecap="round" stroke-linejoin="round"/><path d="M616.076 1059.72l-135.373 78.18v-26.65l135.373-78.18v26.65z" fill="#A9776B" stroke="#26144D" stroke-width="1.5" stroke-linecap="round" stroke-linejoin="round"/><path d="M411.925 1029.15v8.82m149.277-9.42v8.85m-44.743-47.732v8.842m-95.696 35.05v8.84m27.957-47.134v8.844m-7.652-12.089v8.839m111.889 22.69v8.82m-7.651-2.95v8.85m-63.013 28.88v8.82m-7.948-15.02v8.85m-7.949-2.36v8.82m41.818-81.291v8.841m17.062-7.951v8.821m-121.893 29.47v8.82m30.331-47.408v8.838" stroke="#5FAE2C" stroke-width="1.5" stroke-linecap="round" stroke-linejoin="round"/><path d="M659.526 1003.75l-135.352-78.18 135.352-78.198L794.9 925.57l-135.374 78.18z" fill="#8ED760" stroke="#26144D" stroke-width="1.5" stroke-linecap="round" stroke-linejoin="round"/><path d="M659.314 1030.19l-135.373-78.179v-26.653l135.373 78.182v26.65z" fill="#956054" stroke="#26144D" stroke-width="1.5" stroke-linecap="round" stroke-linejoin="round"/><path d="M794.794 952.202L659.442 1030.4v-26.65l135.352-78.201v26.653z" fill="#A9776B" stroke="#26144D" stroke-width="1.5" stroke-linecap="round" stroke-linejoin="round"/><path d="M589.18 920.736v8.842m149.277-9.435v8.841m-44.743-47.708v8.821m-95.696 35.07v8.821m27.978-47.114v8.821m-7.673-12.065v8.842m111.889 22.666v8.842m-7.651-2.947v8.842m-63.013 28.857v8.842m-7.949-15.012v8.821m-7.948-2.354v8.842m41.818-81.294v8.821m17.084-7.952v8.842M580.638 925.74v8.842m30.33-47.433v8.842" stroke="#5FAE2C" stroke-width="1.5" stroke-linecap="round" stroke-linejoin="round"/><path d="M706.664 835.307c-2.289 1.251-6.04 1.251-8.35 0-1.357-.763-1.908-1.781-1.654-2.756v-13.719h11.658v13.719c.254.975-.297 1.993-1.654 2.756z" fill="#fff" stroke="#26144D" stroke-width="1.5" stroke-linecap="round" stroke-linejoin="round"/><path d="M702.574 822.14c3.312 0 5.998-1.443 5.998-3.223 0-1.78-2.686-3.223-5.998-3.223-3.313 0-5.998 1.443-5.998 3.223 0 1.78 2.685 3.223 5.998 3.223zm-17.359 25.041c-2.289 1.251-6.041 1.251-8.351 0-1.356-.763-1.907-1.781-1.653-2.756v-13.719h11.657v13.719c.255.975-.297 1.993-1.653 2.756z" fill="#fff" stroke="#26144D" stroke-width="1.5" stroke-linecap="round" stroke-linejoin="round"/><path d="M681.124 834.014c3.313 0 5.999-1.443 5.999-3.223 0-1.78-2.686-3.223-5.999-3.223-3.312 0-5.998 1.443-5.998 3.223 0 1.78 2.686 3.223 5.998 3.223zm-74.034-31.467c-2.289 1.251-6.041 1.251-8.351 0-1.357-.763-1.908-1.781-1.653-2.756v-13.719h11.657v13.719c.254.975-.297 1.993-1.653 2.756z" fill="#fff" stroke="#26144D" stroke-width="1.5" stroke-linecap="round" stroke-linejoin="round"/><path d="M602.999 789.38c3.313 0 5.998-1.443 5.998-3.223 0-1.78-2.685-3.222-5.998-3.222s-5.998 1.442-5.998 3.222 2.685 3.223 5.998 3.223zm89.02 9.648c-2.29 1.251-6.041 1.251-8.351 0-1.357-.763-1.908-1.781-1.654-2.757v-13.718h11.658v13.718c.254.976-.297 1.994-1.653 2.757z" fill="#fff" stroke="#26144D" stroke-width="1.5" stroke-linecap="round" stroke-linejoin="round"/><path d="M687.928 785.861c3.313 0 5.998-1.443 5.998-3.223 0-1.78-2.685-3.223-5.998-3.223s-5.998 1.443-5.998 3.223c0 1.78 2.685 3.223 5.998 3.223zm-66.955-14.525c-2.29 1.251-6.041 1.251-8.351 0-1.357-.763-1.908-1.781-1.654-2.756v-13.719h11.658v13.719c.254.975-.297 1.993-1.653 2.756z" fill="#fff" stroke="#26144D" stroke-width="1.5" stroke-linecap="round" stroke-linejoin="round"/><path d="M616.903 758.169c3.313 0 5.998-1.443 5.998-3.222 0-1.78-2.685-3.223-5.998-3.223s-5.998 1.443-5.998 3.223c0 1.779 2.685 3.222 5.998 3.222z" fill="#fff" stroke="#26144D" stroke-width="1.5" stroke-linecap="round" stroke-linejoin="round"/><path d="M651.494 942.533l1.504-86.616-15.303-7.272-21.83 75.569" stroke="#26144D" stroke-width="1.5" stroke-linecap="round" stroke-linejoin="round"/><path d="M687.822 922.517l-21.28-74.954v-92.256l-13.544-41.05-14.116 40.096v94.291l14.307-7.103 13.353 6.022-13.544 8.354V716.144m-36.773 208.069l35.269-10.368 36.264 8.863" stroke="#26144D" stroke-width="1.5" stroke-linecap="round" stroke-linejoin="round"/><path d="M675.211 879.771l-23.145 12.806-22.594-11.301 22.022 32.568 23.717-34.073z" stroke="#26144D" stroke-width="1.5" stroke-linecap="round" stroke-linejoin="round"/><path d="M669.573 862.829l-17.507 9.796-18.27-7.909 18.27 27.862 17.507-29.749zm-61.551-78.347l73.399 42.004-28.423-29.388-13.353-7.908-31.623-4.708zm14.667-8.396l73.42 42.004-28.422-29.388-13.375-7.909-31.623-4.707zm-2.628-18.532l51.568 28.434-18.249-23.154-14.498-8.481-18.821 3.201zm14.498-6.403l51.567 28.434-18.249-23.154-14.497-8.482-18.821 3.202zm-10.556 149.526l27.491 41.855 28.041-44.866-28.041 16.178-27.3-14.482" stroke="#26144D" stroke-width="1.5" stroke-linecap="round" stroke-linejoin="round"/><path d="M638.31 849.832l14.498 21.458 12.992-21.267m-12.42-87.189l13.162-7.527m14.879 71.18l14.497-8.291m-87.896-33.713l14.667-7.909m48.94 9.414l14.497-6.403m-66.065-22.031l14.498-6.404m5.087 38.04l11.848-7.718m1.504 15.627l13.184-8.1m-26.367 36.724l12.442 5.47 13.543-8.481" stroke="#26144D" stroke-width="1.5" stroke-linecap="round" stroke-linejoin="round"/><path d="M620.57 924.235L707 976l37-22-85.449-49.718-37.981 19.953zM440.369 1033.81L526 1084.5l38-21.5-85.65-49.14-37.981 19.95z" fill="#B2B4B3" opacity=".46"/><path d="M426.083 901.78s41.521-8.842 93.195-39.757c51.949-31.084 79.948-59.645 79.948-59.645m-158.115 70.247s41.521-8.842 93.195-39.756c51.949-31.084 79.948-59.645 79.948-59.645m-101.61 125.905s41.521-8.842 93.195-39.756c51.949-31.084 79.948-59.645 79.948-59.645M525.912 939.776s20.326-3.095 72-34.031c51.949-31.084 79.948-59.645 79.948-59.645" stroke="#6CA3FF" stroke-width="2" stroke-linecap="round" stroke-linejoin="round"/><path d="M531.974 946.073c-2.289 1.251-6.04 1.251-8.351 0-1.356-.764-1.907-1.781-1.653-2.757v-13.718h11.657v13.718c.255.976-.296 1.993-1.653 2.757z" fill="#fff" stroke="#26144D" stroke-width="1.5" stroke-linecap="round" stroke-linejoin="round"/><path d="M527.883 932.906c3.313 0 5.999-1.443 5.999-3.223 0-1.78-2.686-3.223-5.999-3.223-3.312 0-5.998 1.443-5.998 3.223 0 1.78 2.686 3.223 5.998 3.223zm-17.358 25.02c-2.289 1.251-6.041 1.251-8.351 0-1.357-.763-1.908-1.781-1.653-2.756v-13.719h11.657v13.719c.254.975-.297 1.993-1.653 2.756z" fill="#fff" stroke="#26144D" stroke-width="1.5" stroke-linecap="round" stroke-linejoin="round"/><path d="M506.434 944.759c3.313 0 5.998-1.443 5.998-3.223 0-1.78-2.685-3.223-5.998-3.223s-5.998 1.443-5.998 3.223c0 1.78 2.685 3.223 5.998 3.223zm-74.035-31.466c-2.289 1.251-6.04 1.251-8.35 0-1.357-.763-1.908-1.781-1.654-2.756v-13.719h11.658v13.719c.254.975-.297 1.993-1.654 2.756z" fill="#fff" stroke="#26144D" stroke-width="1.5" stroke-linecap="round" stroke-linejoin="round"/><path d="M428.309 900.147c3.313 0 5.998-1.443 5.998-3.223 0-1.78-2.685-3.223-5.998-3.223s-5.998 1.443-5.998 3.223c0 1.78 2.685 3.223 5.998 3.223zm89.019 9.647c-2.289 1.251-6.04 1.251-8.351 0-1.356-.763-1.907-1.781-1.653-2.756v-13.719h11.658v13.719c.254.975-.297 1.993-1.654 2.756z" fill="#fff" stroke="#26144D" stroke-width="1.5" stroke-linecap="round" stroke-linejoin="round"/><path d="M513.238 896.628c3.312 0 5.998-1.443 5.998-3.223 0-1.78-2.686-3.223-5.998-3.223-3.313 0-5.998 1.443-5.998 3.223 0 1.78 2.685 3.223 5.998 3.223zm-66.956-14.526c-2.289 1.251-6.04 1.251-8.351 0-1.356-.763-1.907-1.781-1.653-2.756v-13.719h11.657v13.719c.255.975-.296 1.993-1.653 2.756z" fill="#fff" stroke="#26144D" stroke-width="1.5" stroke-linecap="round" stroke-linejoin="round"/><path d="M442.213 868.935c3.313 0 5.998-1.443 5.998-3.223 0-1.78-2.685-3.223-5.998-3.223s-5.998 1.443-5.998 3.223c0 1.78 2.685 3.223 5.998 3.223z" fill="#fff" stroke="#26144D" stroke-width="1.5" stroke-linecap="round" stroke-linejoin="round"/><path d="M476.803 1053.3l1.505-86.616-15.303-7.294-21.831 75.57" stroke="#26144D" stroke-width="1.5" stroke-linecap="round" stroke-linejoin="round"/><path d="M513.132 1033.26l-21.28-74.931v-92.277l-13.544-41.05-14.116 40.117v94.27l14.307-7.082 13.353 6.022-13.544 8.354V826.889m-36.773 208.071l35.268-10.35 36.265 8.84" stroke="#26144D" stroke-width="1.5" stroke-linecap="round" stroke-linejoin="round"/><path d="M500.521 990.537l-23.145 12.783-22.595-11.277 22.022 32.567 23.718-34.073z" stroke="#26144D" stroke-width="1.5" stroke-linecap="round" stroke-linejoin="round"/><path d="M494.883 973.574l-17.508 9.796-18.27-7.909 18.27 27.859 17.508-29.746zm-61.551-78.325l73.399 41.983-28.423-29.367-13.353-7.909-31.623-4.707zm14.667-8.396l73.42 41.982-28.423-29.366-13.374-7.909-31.623-4.707zm-2.628-18.532l51.568 28.434-18.249-23.154-14.498-8.482-18.821 3.202zm14.497-6.403l51.568 28.433-18.249-23.154-14.497-8.481-18.822 3.202zm-10.555 149.502l27.49 41.88 28.041-44.89-28.041 16.2-27.299-14.5" stroke="#26144D" stroke-width="1.5" stroke-linecap="round" stroke-linejoin="round"/><path d="M463.62 960.577l14.497 21.479 12.993-21.288M478.69 873.6l13.162-7.548m14.879 71.18l14.497-8.291m-87.896-33.692l14.667-7.909m48.94 9.414l14.497-6.403m-66.065-22.031l14.497-6.403m5.087 38.039l11.848-7.718m1.505 15.627l13.183-8.099m-26.366 36.723l12.441 5.45 13.544-8.46" stroke="#26144D" stroke-width="1.5" stroke-linecap="round" stroke-linejoin="round"/><path d="M425.638 911.937s-47.774 61.426-90.991 109.133c-38.426 42.41-105.551 104.72-105.551 104.72m118.374 39.34s55.511-59.2 83.043-94.55c35.777-45.95 74.649-114.88 74.649-114.88m-174.923 165.68s34.887-32.25 79.503-84.39c43.153-50.417 99.235-127.195 99.235-127.195M244.568 1087.35s54.005-51.1 79.503-79.53c45.93-51.25 112.228-128.473 112.228-128.473" stroke="#6CA3FF" stroke-width="2" stroke-linecap="round" stroke-linejoin="round"/><path d="M346.156 1169.3c-2.776 1.51-7.269 1.51-10.067 0-1.632-.91-2.311-2.14-1.993-3.3v-16.54h14.053V1166c.318 1.18-.361 2.39-1.993 3.3z" fill="#fff" stroke="#26144D" stroke-width="1.5" stroke-linecap="round" stroke-linejoin="round"/><path d="M348.106 1160.55c.318 1.18-.36 2.39-1.992 3.3-2.755 1.51-7.227 1.51-10.004 0-1.632-.91-2.289-2.14-1.992-3.3m13.988-5.45c.318 1.19-.36 2.39-1.992 3.31-2.755 1.5-7.227 1.5-10.004 0-1.632-.92-2.289-2.15-1.992-3.31" stroke="#26144D" stroke-width="1.5" stroke-linecap="round" stroke-linejoin="round"/><path d="M341.239 1153.44c3.992 0 7.228-1.74 7.228-3.9 0-2.15-3.236-3.9-7.228-3.9-3.992 0-7.227 1.75-7.227 3.9 0 2.16 3.235 3.9 7.227 3.9zm-20.962 30.15c-2.776 1.51-7.27 1.51-10.068 0-1.632-.91-2.31-2.14-1.992-3.3v-16.54h14.053v16.54c.317 1.18-.361 2.39-1.993 3.3z" fill="#fff" stroke="#26144D" stroke-width="1.5" stroke-linecap="round" stroke-linejoin="round"/><path d="M322.248 1174.86c.318 1.19-.36 2.39-1.992 3.31-2.755 1.5-7.228 1.5-10.004 0-1.632-.92-2.289-2.15-1.993-3.31m13.989-5.45c.318 1.19-.36 2.4-1.992 3.31-2.755 1.5-7.228 1.5-10.004 0-1.632-.91-2.289-2.14-1.993-3.31" stroke="#26144D" stroke-width="1.5" stroke-linecap="round" stroke-linejoin="round"/><path d="M315.36 1167.73c3.992 0 7.227-1.74 7.227-3.9 0-2.15-3.235-3.9-7.227-3.9-3.992 0-7.228 1.75-7.228 3.9 0 2.16 3.236 3.9 7.228 3.9zm-89.253-37.93c-2.776 1.51-7.27 1.51-10.067 0-1.632-.91-2.311-2.14-1.993-3.31v-16.53H228.1v16.53c.318 1.19-.361 2.4-1.993 3.31z" fill="#fff" stroke="#26144D" stroke-width="1.5" stroke-linecap="round" stroke-linejoin="round"/><path d="M228.078 1121.04c.318 1.19-.36 2.4-1.992 3.31-2.755 1.51-7.227 1.51-10.004 0-1.632-.91-2.289-2.14-1.992-3.31m13.988-5.42c.318 1.18-.36 2.39-1.992 3.3-2.755 1.51-7.227 1.51-10.004 0-1.632-.91-2.289-2.14-1.992-3.3" stroke="#26144D" stroke-width="1.5" stroke-linecap="round" stroke-linejoin="round"/><path d="M221.19 1113.94c3.992 0 7.227-1.75 7.227-3.9s-3.235-3.9-7.227-3.9c-3.992 0-7.228 1.75-7.228 3.9s3.236 3.9 7.228 3.9zm108.371 10.94c-2.777 1.51-7.27 1.51-10.068 0-1.632-.91-2.31-2.14-1.992-3.31v-16.53h14.052v16.53c.318 1.19-.36 2.4-1.992 3.31z" fill="#fff" stroke="#26144D" stroke-width="1.5" stroke-linecap="round" stroke-linejoin="round"/><path d="M331.511 1116.15c.318 1.18-.361 2.39-1.993 3.3-2.755 1.51-7.227 1.51-10.004 0-1.632-.91-2.289-2.14-1.992-3.3m13.989-5.45c.318 1.18-.361 2.39-1.993 3.3-2.755 1.51-7.227 1.51-10.004 0-1.632-.91-2.289-2.14-1.992-3.3" stroke="#26144D" stroke-width="1.5" stroke-linecap="round" stroke-linejoin="round"/><path d="M324.622 1109.02c3.992 0 7.228-1.74 7.228-3.9 0-2.15-3.236-3.9-7.228-3.9-3.991 0-7.227 1.75-7.227 3.9 0 2.16 3.236 3.9 7.227 3.9zm-81.304-17.94c-2.777 1.51-7.27 1.51-10.068 0-1.632-.91-2.31-2.14-1.992-3.3v-16.54h14.052v16.54c.318 1.18-.36 2.39-1.992 3.3z" fill="#fff" stroke="#26144D" stroke-width="1.5" stroke-linecap="round" stroke-linejoin="round"/><path d="M245.268 1082.35c.318 1.19-.361 2.39-1.993 3.31-2.755 1.5-7.227 1.5-10.004 0-1.632-.92-2.289-2.15-1.992-3.31m13.989-5.45c.318 1.19-.361 2.39-1.993 3.31-2.755 1.5-7.227 1.5-10.004 0-1.632-.92-2.289-2.15-1.992-3.31" stroke="#26144D" stroke-width="1.5" stroke-linecap="round" stroke-linejoin="round"/><path d="M238.4 1075.22c3.992 0 7.228-1.74 7.228-3.9 0-2.15-3.236-3.9-7.228-3.9-3.991 0-7.227 1.75-7.227 3.9 0 2.16 3.236 3.9 7.227 3.9z" fill="#fff" stroke="#26144D" stroke-width="1.5" stroke-linecap="round" stroke-linejoin="round"/><path d="M279.646 1298.56l1.802-104.43-18.44-8.78-26.324 91.12" stroke="#26144D" stroke-width="1.5" stroke-linecap="round" stroke-linejoin="round"/><path d="M323.435 1274.43l-25.646-90.35v-111.23l-16.341-49.49-17.02 48.34v113.65l17.253-8.54 16.108 7.27-16.341 10.05v-168.5m-44.319 250.84l42.517-12.49 43.726 10.68" stroke="#26144D" stroke-width="1.5" stroke-linecap="round" stroke-linejoin="round"/><path d="M308.238 1222.91l-27.914 15.43-27.235-13.63 26.557 39.27 28.592-41.07z" stroke="#26144D" stroke-width="1.5" stroke-linecap="round" stroke-linejoin="round"/><path d="M301.435 1202.47l-21.111 11.81-22.021-9.55 22.021 33.61 21.111-35.87zm-74.205-94.44l88.49 50.63-34.272-35.43-16.109-9.52-38.109-5.68zm17.698-10.12l88.49 50.61-34.251-35.41-16.13-9.54-38.109-5.66zm-3.179-22.35l62.166 34.29-22.001-27.93-17.486-10.22-22.679 3.86zm17.465-7.71l62.187 34.28-22.022-27.92-17.465-10.22-22.7 3.86zm-12.696 180.25l33.128 50.46 33.806-54.09-33.806 19.51-32.916-17.47" stroke="#26144D" stroke-width="1.5" stroke-linecap="round" stroke-linejoin="round"/><path d="M263.75 1186.8l17.486 25.89 15.642-25.66m-14.964-105.11l15.875-9.07m17.931 85.81l17.465-9.99m-105.955-40.64l17.698-9.55m58.987 11.37l17.486-7.72m-79.652-26.57l17.465-7.72m6.125 45.87l14.307-9.31m1.802 18.83l15.896-9.76m-31.771 44.28l14.984 6.57 16.321-10.22" stroke="#26144D" stroke-width="1.5" stroke-linecap="round" stroke-linejoin="round"/><path d="M426.528 1288.4s-61.402-26.06-106.442-57.88c-44.764-31.62-93.979-100.72-93.979-100.72m216.318 117.51s-61.403-26.06-106.442-57.88c-44.764-31.62-93.98-100.72-93.98-100.72m290.247 123.45s-57.884-7.51-103.369-23.73-102.924-62.76-102.924-62.76" stroke="#6CA3FF" stroke-width="2" stroke-linecap="round" stroke-linejoin="round"/><path d="M550.35 1251.23s-59.325-5.26-118.417-25.57c-59.092-20.31-90.185-54.79-90.185-54.79" stroke="#6CA3FF" stroke-width="2" stroke-linecap="round" stroke-linejoin="round"/><path d="M424.939 1291.8c2.776 1.5 7.27 1.5 10.067 0 1.632-.92 2.311-2.15 1.993-3.31v-16.54h-14.053v16.54c-.318 1.19.361 2.39 1.993 3.31z" fill="#fff" stroke="#26144D" stroke-width="1.5" stroke-linecap="round" stroke-linejoin="round"/><path d="M422.989 1283.06c-.318 1.19.36 2.4 1.992 3.31 2.755 1.5 7.228 1.5 10.004 0 1.632-.91 2.289-2.14 1.993-3.31m-13.989-5.45c-.318 1.19.36 2.4 1.992 3.31 2.755 1.5 7.228 1.5 10.004 0 1.632-.91 2.289-2.14 1.993-3.31" stroke="#26144D" stroke-width="1.5" stroke-linecap="round" stroke-linejoin="round"/><path d="M429.856 1275.94c3.992 0 7.227-1.75 7.227-3.91 0-2.15-3.235-3.9-7.227-3.9-3.992 0-7.228 1.75-7.228 3.9 0 2.16 3.236 3.91 7.228 3.91zm20.962 30.17c2.777 1.5 7.27 1.5 10.068 0 1.632-.91 2.31-2.14 1.992-3.31v-16.54h-14.052v16.54c-.318 1.19.36 2.4 1.992 3.31z" fill="#fff" stroke="#26144D" stroke-width="1.5" stroke-linecap="round" stroke-linejoin="round"/><path d="M448.847 1297.35c-.318 1.19.36 2.4 1.992 3.31 2.755 1.5 7.228 1.5 10.004 0 1.632-.91 2.289-2.14 1.993-3.31m-13.989-5.45c-.318 1.19.36 2.4 1.992 3.31 2.755 1.51 7.228 1.51 10.004 0 1.632-.91 2.289-2.14 1.993-3.31" stroke="#26144D" stroke-width="1.5" stroke-linecap="round" stroke-linejoin="round"/><path d="M455.735 1290.25c3.992 0 7.228-1.75 7.228-3.9 0-2.16-3.236-3.9-7.228-3.9-3.991 0-7.227 1.74-7.227 3.9 0 2.15 3.236 3.9 7.227 3.9zm89.253-37.96c2.776 1.51 7.27 1.51 10.068 0 1.632-.91 2.31-2.14 1.992-3.3v-16.54h-14.052v16.54c-.318 1.18.36 2.39 1.992 3.3z" fill="#fff" stroke="#26144D" stroke-width="1.5" stroke-linecap="round" stroke-linejoin="round"/><path d="M543.017 1243.56c-.318 1.19.36 2.39 1.992 3.31 2.755 1.5 7.228 1.5 10.004 0 1.632-.92 2.289-2.15 1.992-3.31m-13.988-5.45c-.318 1.19.36 2.39 1.992 3.31 2.755 1.5 7.228 1.5 10.004 0 1.632-.92 2.289-2.15 1.992-3.31" stroke="#26144D" stroke-width="1.5" stroke-linecap="round" stroke-linejoin="round"/><path d="M549.905 1236.43c3.992 0 7.228-1.74 7.228-3.9 0-2.15-3.236-3.9-7.228-3.9-3.992 0-7.227 1.75-7.227 3.9 0 2.16 3.235 3.9 7.227 3.9zm-108.371 10.97c2.777 1.5 7.27 1.5 10.068 0 1.632-.92 2.31-2.15 1.992-3.31v-16.54h-14.052v16.54c-.318 1.18.36 2.39 1.992 3.31z" fill="#fff" stroke="#26144D" stroke-width="1.5" stroke-linecap="round" stroke-linejoin="round"/><path d="M439.584 1238.64c-.317 1.19.361 2.39 1.993 3.31 2.755 1.5 7.227 1.5 10.004 0 1.632-.92 2.289-2.15 1.992-3.31m-13.989-5.45c-.317 1.19.361 2.4 1.993 3.31 2.755 1.5 7.227 1.5 10.004 0 1.632-.91 2.289-2.14 1.992-3.31" stroke="#26144D" stroke-width="1.5" stroke-linecap="round" stroke-linejoin="round"/><path d="M446.473 1231.54c3.992 0 7.227-1.75 7.227-3.91 0-2.15-3.235-3.9-7.227-3.9-3.992 0-7.228 1.75-7.228 3.9 0 2.16 3.236 3.91 7.228 3.91zm81.304-17.94c2.777 1.5 7.27 1.5 10.068 0 1.632-.91 2.31-2.14 1.993-3.31v-16.54h-14.053v16.54c-.318 1.19.36 2.4 1.992 3.31z" fill="#fff" stroke="#26144D" stroke-width="1.5" stroke-linecap="round" stroke-linejoin="round"/><path d="M525.827 1204.84c-.317 1.19.361 2.4 1.993 3.31 2.755 1.5 7.227 1.5 10.004 0 1.632-.91 2.289-2.14 1.992-3.31m-13.989-5.45c-.317 1.19.361 2.4 1.993 3.31 2.755 1.5 7.227 1.5 10.004 0 1.632-.91 2.289-2.14 1.992-3.31" stroke="#26144D" stroke-width="1.5" stroke-linecap="round" stroke-linejoin="round"/><path d="M532.695 1197.74c3.991 0 7.227-1.75 7.227-3.9 0-2.16-3.236-3.91-7.227-3.91-3.992 0-7.228 1.75-7.228 3.91 0 2.15 3.236 3.9 7.228 3.9z" fill="#fff" stroke="#26144D" stroke-width="1.5" stroke-linecap="round" stroke-linejoin="round"/><path d="M491.449 1421.07l-1.802-104.42 18.44-8.78 26.325 91.11" stroke="#26144D" stroke-width="1.5" stroke-linecap="round" stroke-linejoin="round"/><path d="M447.66 1396.92l25.646-90.35v-111.23l16.341-49.49 17.02 48.37v113.65l-17.253-8.55-16.108 7.25 16.341 10.08v-168.53m44.319 250.86l-42.517-12.49-43.726 10.67" stroke="#26144D" stroke-width="1.5" stroke-linecap="round" stroke-linejoin="round"/><path d="M462.857 1345.4l27.914 15.43 27.236-13.61-26.558 39.27-28.592-41.09z" stroke="#26144D" stroke-width="1.5" stroke-linecap="round" stroke-linejoin="round"/><path d="M469.66 1324.96l21.111 11.81 22.021-9.54-22.021 33.6-21.111-35.87zm74.205-94.42l-88.49 50.61 34.272-35.41 16.109-9.54 38.109-5.66zm-17.698-10.14l-88.49 50.64 34.251-35.43 16.13-9.52 38.109-5.69zm3.179-22.32l-62.165 34.26 22-27.92 17.486-10.2 22.679 3.86zm-17.465-7.72l-62.186 34.26 22.021-27.92 17.465-10.2 22.7 3.86zm12.696 180.23l-33.128 50.48-33.806-54.11 33.806 19.53 32.916-17.49" stroke="#26144D" stroke-width="1.5" stroke-linecap="round" stroke-linejoin="round"/><path d="M507.345 1309.31l-17.486 25.87-15.642-25.66m14.964-105.1l-15.875-9.08m-17.931 85.81l-17.465-9.98m105.955-40.63l-17.698-9.54m-58.986 11.34l-17.486-7.72m79.651-26.54l-17.465-7.72m-6.125 45.84l-14.307-9.31m-1.802 18.85l-15.896-9.75m31.772 44.25l-14.985 6.59-16.321-10.22" stroke="#26144D" stroke-width="1.5" stroke-linecap="round" stroke-linejoin="round"/><path d="M461 1307s40.213 45.37 82.935 68.32C586.658 1398.27 631 1407 631 1407m-78-154s40.848 50.86 84.607 77.67C681.366 1357.49 727 1369 727 1369m-279-121s45.8 51.19 95.117 78.79C591.183 1353.66 644 1367 644 1367" stroke="#6CA3FF" stroke-width="2" stroke-linecap="round" stroke-linejoin="round"/><path d="M534 1216s41.354 53.36 85.899 82.11C663.296 1326.14 711 1340 711 1340" stroke="#6CA3FF" stroke-width="2" stroke-linecap="round" stroke-linejoin="round"/><path d="M692.606 1576.59l-135.373-78.18 135.352-78.18 135.373 78.18-135.352 78.18z" fill="#8ED760" stroke="#26144D" stroke-width="1.5" stroke-linecap="round" stroke-linejoin="round"/><path d="M692.373 1603.05L557 1524.85v-26.65l135.373 78.2v26.65z" fill="#956054" stroke="#26144D" stroke-width="1.5" stroke-linecap="round" stroke-linejoin="round"/><path d="M827.852 1525.06L692.5 1603.24v-26.65l135.352-78.18v26.65z" fill="#A9776B" stroke="#26144D" stroke-width="1.5" stroke-linecap="round" stroke-linejoin="round"/><path d="M622.578 1495.85v8.84m149.277-9.42v8.82m-44.764-47.7v8.84m-95.675 35.05v8.84m27.956-47.14v8.85m-7.651-12.09v8.84m111.889 22.67v8.84m-7.652-2.95v8.85m-63.013 28.85v8.84m-7.948-15.01v8.82m-7.948-2.35v8.84m41.818-81.29v8.84m17.062-7.95v8.82m-121.893 29.47v8.82m30.33-47.41v8.82" stroke="#5FAE2C" stroke-width="1.5" stroke-linecap="round" stroke-linejoin="round"/><path d="M648.817 1501.13l85.077 50.14 36.52-21.79-83.615-48.31-37.982 19.96z" fill="#B2B4B3" opacity=".46"/><path d="M627.198 1412.05c2.289 1.25 6.04 1.25 8.351 0 1.356-.76 1.907-1.78 1.653-2.76v-13.71h-11.657v13.71c-.255.98.296 2 1.653 2.76z" fill="#fff" stroke="#26144D" stroke-width="1.5" stroke-linecap="round" stroke-linejoin="round"/><path d="M631.289 1398.88c3.312 0 5.998-1.44 5.998-3.22 0-1.78-2.686-3.22-5.998-3.22-3.313 0-5.999 1.44-5.999 3.22 0 1.78 2.686 3.22 5.999 3.22zm17.38 25.04c2.289 1.26 6.04 1.26 8.35 0 1.357-.76 1.908-1.78 1.654-2.75v-13.72h-11.658v13.72c-.254.97.297 1.99 1.654 2.75z" fill="#fff" stroke="#26144D" stroke-width="1.5" stroke-linecap="round" stroke-linejoin="round"/><path d="M652.738 1410.76c3.313 0 5.998-1.45 5.998-3.23s-2.685-3.22-5.998-3.22-5.998 1.44-5.998 3.22c0 1.78 2.685 3.23 5.998 3.23zm74.035-31.47c2.289 1.25 6.04 1.25 8.35 0 1.357-.76 1.908-1.78 1.654-2.76v-13.71h-11.658v13.71c-.254.98.297 2 1.654 2.76z" fill="#fff" stroke="#26144D" stroke-width="1.5" stroke-linecap="round" stroke-linejoin="round"/><path d="M730.863 1366.12c3.313 0 5.998-1.44 5.998-3.22 0-1.78-2.685-3.22-5.998-3.22s-5.998 1.44-5.998 3.22c0 1.78 2.685 3.22 5.998 3.22zm-88.998 9.65c2.289 1.25 6.041 1.25 8.351 0 1.356-.76 1.907-1.78 1.653-2.76v-13.71h-11.657v13.71c-.255.98.296 2 1.653 2.76z" fill="#fff" stroke="#26144D" stroke-width="1.5" stroke-linecap="round" stroke-linejoin="round"/><path d="M645.934 1362.6c3.313 0 5.999-1.44 5.999-3.22 0-1.78-2.686-3.22-5.999-3.22-3.312 0-5.998 1.44-5.998 3.22 0 1.78 2.686 3.22 5.998 3.22zm66.956-14.52c2.289 1.25 6.04 1.25 8.351 0 1.356-.76 1.907-1.78 1.653-2.76v-13.72h-11.657v13.72c-.255.98.296 2 1.653 2.76z" fill="#fff" stroke="#26144D" stroke-width="1.5" stroke-linecap="round" stroke-linejoin="round"/><path d="M716.98 1334.91c3.313 0 5.999-1.44 5.999-3.22 0-1.78-2.686-3.22-5.999-3.22-3.312 0-5.998 1.44-5.998 3.22 0 1.78 2.686 3.22 5.998 3.22z" fill="#fff" stroke="#26144D" stroke-width="1.5" stroke-linecap="round" stroke-linejoin="round"/><path d="M682.369 1519.28l-1.505-86.62 15.324-7.27 21.831 75.57" stroke="#26144D" stroke-width="1.5" stroke-linecap="round" stroke-linejoin="round"/><path d="M646.04 1499.26l21.28-74.95v-92.26l13.544-41.05 14.116 40.1v94.29l-14.307-7.11-13.353 6.03 13.544 8.35v-139.79m36.773 208.09l-35.268-10.37-36.265 8.86" stroke="#26144D" stroke-width="1.5" stroke-linecap="round" stroke-linejoin="round"/><path d="M658.651 1456.51l23.167 12.81 22.572-11.3-22.021 32.57-23.718-34.08z" stroke="#26144D" stroke-width="1.5" stroke-linecap="round" stroke-linejoin="round"/><path d="M664.311 1439.57l17.507 9.78 18.249-7.91-18.249 27.88-17.507-29.75zm61.55-78.34l-73.42 42 28.423-29.39 13.374-7.91 31.623-4.7zm-14.688-8.4l-73.399 42 28.423-29.38 13.353-7.91 31.623-4.71zm2.628-18.53l-51.568 28.43 18.249-23.15 14.498-8.48 18.821 3.2zm-14.476-6.41l-51.589 28.44 18.27-23.16 14.476-8.48 18.843 3.2zm10.534 149.53l-27.49 41.86-28.041-44.87 28.041 16.18 27.299-14.48" stroke="#26144D" stroke-width="1.5" stroke-linecap="round" stroke-linejoin="round"/><path d="M695.552 1426.57l-14.497 21.46-12.993-21.27m12.42-87.18l-13.162-7.53m-14.879 71.18l-14.497-8.29m87.917-33.71l-14.688-7.91m-48.94 9.41l-14.497-6.4m66.065-22.03l-14.476-6.41m-5.087 38.04l-11.869-7.72m-1.505 15.63l-13.162-8.1m26.345 36.73l-12.42 5.47-13.565-8.48" stroke="#26144D" stroke-width="1.5" stroke-linecap="round" stroke-linejoin="round"/><path d="M659 1418s23.493 38.52 53.5 72c25.287 28.2 57.5 53.98 57.5 53.98M723 1343s32.814 47.49 68.5 81.5c30.07 28.64 63.5 46.48 63.5 46.48M732 1380s29.21 45.69 69.5 80c33.94 28.9 79.5 49 79.5 49m-229-138s34.307 47.63 70 83c30.067 29.8 62 50 62 50" stroke="#6CA3FF" stroke-width="2" stroke-linecap="round" stroke-linejoin="round"/><path d="M826.585 1715.37l-135.373-78.18 135.373-78.17 135.352 78.17-135.352 78.18z" fill="#8ED760" stroke="#26144D" stroke-width="1.5" stroke-linecap="round" stroke-linejoin="round"/><path d="M826.352 1741.83L691 1663.63v-26.65l135.352 78.2v26.65z" fill="#956054" stroke="#26144D" stroke-width="1.5" stroke-linecap="round" stroke-linejoin="round"/><path d="M961.852 1663.85l-135.373 78.17v-26.65l135.373-78.18v26.66z" fill="#A9776B" stroke="#26144D" stroke-width="1.5" stroke-linecap="round" stroke-linejoin="round"/><path d="M757.828 1635.29v8.84m149.298-9.42v8.82m-44.764-47.7v8.84m-95.696 35.05v8.84m27.978-47.14v8.84m-7.651-12.08v8.84m111.889 22.67v8.84m-7.673-2.95v8.84m-62.992 28.86v8.84m-7.969-15.01v8.82m-7.948-2.35v8.84m41.817-81.29v8.84m17.084-7.95v8.82m-121.915 29.47v8.82m30.331-47.41v8.82" stroke="#5FAE2C" stroke-width="1.5" stroke-linecap="round" stroke-linejoin="round"/><path d="M789.282 1636.37l85.077 50.14 36.519-21.79-83.615-48.31-37.981 19.96z" fill="#B2B4B3" opacity=".46"/><path d="M771.499 1549.07c2.289 1.25 6.041 1.25 8.351 0 1.356-.76 1.907-1.78 1.653-2.76v-13.71h-11.657v13.71c-.255.98.297 2 1.653 2.76z" fill="#fff" stroke="#26144D" stroke-width="1.5" stroke-linecap="round" stroke-linejoin="round"/><path d="M775.569 1535.9c3.312 0 5.998-1.44 5.998-3.22 0-1.78-2.686-3.22-5.998-3.22-3.313 0-5.999 1.44-5.999 3.22 0 1.78 2.686 3.22 5.999 3.22zm17.38 25.03c2.289 1.25 6.04 1.25 8.35 0 1.357-.77 1.908-1.79 1.654-2.76v-13.72h-11.658v13.72c-.254.97.297 1.99 1.654 2.76z" fill="#fff" stroke="#26144D" stroke-width="1.5" stroke-linecap="round" stroke-linejoin="round"/><path d="M797.039 1547.76c3.313 0 5.998-1.45 5.998-3.23s-2.685-3.22-5.998-3.22-5.998 1.44-5.998 3.22c0 1.78 2.685 3.23 5.998 3.23zm74.035-31.47c2.289 1.25 6.04 1.25 8.351 0 1.356-.76 1.907-1.78 1.653-2.76v-13.71h-11.657v13.71c-.255.98.296 2 1.653 2.76z" fill="#fff" stroke="#26144D" stroke-width="1.5" stroke-linecap="round" stroke-linejoin="round"/><path d="M875.143 1503.12c3.313 0 5.998-1.44 5.998-3.22 0-1.78-2.685-3.22-5.998-3.22-3.312 0-5.998 1.44-5.998 3.22 0 1.78 2.686 3.22 5.998 3.22zm-88.998 9.67c2.289 1.25 6.04 1.25 8.351 0 1.356-.76 1.907-1.78 1.653-2.75v-13.72h-11.657v13.72c-.255.97.296 1.99 1.653 2.75z" fill="#fff" stroke="#26144D" stroke-width="1.5" stroke-linecap="round" stroke-linejoin="round"/><path d="M790.236 1499.63c3.312 0 5.998-1.45 5.998-3.23s-2.686-3.22-5.998-3.22c-3.313 0-5.999 1.44-5.999 3.22 0 1.78 2.686 3.23 5.999 3.23zm66.955-14.53c2.289 1.25 6.041 1.25 8.351 0 1.356-.76 1.907-1.78 1.653-2.76v-13.71h-11.657v13.71c-.255.98.297 2 1.653 2.76z" fill="#fff" stroke="#26144D" stroke-width="1.5" stroke-linecap="round" stroke-linejoin="round"/><path d="M861.26 1471.93c3.313 0 5.999-1.44 5.999-3.22 0-1.78-2.686-3.22-5.999-3.22-3.312 0-5.998 1.44-5.998 3.22 0 1.78 2.686 3.22 5.998 3.22z" fill="#fff" stroke="#26144D" stroke-width="1.5" stroke-linecap="round" stroke-linejoin="round"/><path d="M826.67 1656.3l-1.505-86.64 15.303-7.27 21.831 75.57" stroke="#26144D" stroke-width="1.5" stroke-linecap="round" stroke-linejoin="round"/><path d="M790.341 1636.26l21.259-74.93v-92.28l13.565-41.05 14.116 40.12v94.27l-14.307-7.11-13.374 6.05 13.565 8.33v-139.77m36.774 208.07l-35.269-10.35-36.265 8.84" stroke="#26144D" stroke-width="1.5" stroke-linecap="round" stroke-linejoin="round"/><path d="M802.953 1593.51l23.145 12.81 22.594-11.3-22.022 32.59-23.717-34.1z" stroke="#26144D" stroke-width="1.5" stroke-linecap="round" stroke-linejoin="round"/><path d="M808.591 1576.57l17.507 9.8 18.27-7.91-18.27 27.86-17.507-29.75zm61.55-78.32l-73.399 41.98 28.423-29.37 13.353-7.91 31.623-4.7zm-14.667-8.4l-73.42 41.98 28.423-29.36 13.374-7.91 31.623-4.71zm2.628-18.53l-51.567 28.43 18.249-23.17 14.497-8.46 18.821 3.2zm-14.497-6.4l-51.568 28.43 18.249-23.18 14.498-8.46 18.821 3.21zm10.534 149.5l-27.469 41.88-28.041-44.89 28.041 16.2 27.299-14.5" stroke="#26144D" stroke-width="1.5" stroke-linecap="round" stroke-linejoin="round"/><path d="M839.832 1563.57l-14.476 21.48-12.993-21.28m12.421-87.19l-13.184-7.53m-14.858 71.18l-14.497-8.29m87.896-33.69l-14.667-7.91m-48.939 9.41l-14.498-6.4m66.065-22.03l-14.497-6.4m-5.087 38.03l-11.848-7.71m-1.505 15.62l-13.183-8.1m26.345 36.73l-12.42 5.45-13.544-8.48" stroke="#26144D" stroke-width="1.5" stroke-linecap="round" stroke-linejoin="round"/><path d="M797 1548s100.796 34.12 172 48.5c64.26 12.98 110 6.5 110 6.5m-289-103s96.423 50.38 173.5 70.5c70.1 18.31 160.5 13.5 160.5 13.5" stroke="#6CA3FF" stroke-width="2" stroke-linecap="round" stroke-linejoin="round"/><path d="M874 1503s54.135 33.45 120.5 53c60.34 17.78 132.5 24 132.5 24m-265-108s70.488 42.44 152 63.5c79.52 20.55 158 19.5 158 19.5" stroke="#6CA3FF" stroke-width="2" stroke-linecap="round" stroke-linejoin="round"/></g></svg>