<svg width="390" height="337" viewBox="0 0 390 337" fill="none" xmlns="http://www.w3.org/2000/svg">
<mask id="mask0_1211_87" style="mask-type:alpha" maskUnits="userSpaceOnUse" x="0" y="0" width="390" height="337">
<rect width="390" height="337" fill="#D9D9D9"/>
</mask>
<g mask="url(#mask0_1211_87)">
<g clip-path="url(#clip0_1211_87)">
<path d="M402.2 10.1699C402.2 10.1699 369.41 30.4499 332.18 34.6199C308 37.3299 275.29 35.4999 275.29 35.4999" stroke="#6CA3FF" stroke-width="2" stroke-linecap="round" stroke-linejoin="round"/>
<path d="M395 -0.5C395 -0.5 360.25 16.56 333.85 23.23C309.06 29.49 273 33.23 273 33.23" stroke="#6CA3FF" stroke-width="2" stroke-linecap="round" stroke-linejoin="round"/>
<path d="M432.48 26.5596C432.48 26.5596 399.66 49.0296 369.41 60.4596C344.4 69.9096 315.72 65.6696 315.72 65.6696" stroke="#6CA3FF" stroke-width="2" stroke-linecap="round" stroke-linejoin="round"/>
<path d="M417.2 18.7803C417.2 18.7803 389.14 35.1703 362.19 41.8403C336.87 48.1003 309.12 48.2303 309.12 48.2303" stroke="#6CA3FF" stroke-width="2" stroke-linecap="round" stroke-linejoin="round"/>
</g>
<path d="M294.395 169.401L218.79 125.908L294.395 82.415L370 125.908L294.395 169.401Z" fill="#8ED760" stroke="#26144D" stroke-width="1.5" stroke-linecap="round" stroke-linejoin="round"/>
<path d="M294.277 184.122L218.671 140.618V125.79L294.277 169.295V184.122Z" fill="#956054" stroke="#26144D" stroke-width="1.5" stroke-linecap="round" stroke-linejoin="round"/>
<path d="M369.941 140.736L294.335 184.229V169.401L369.941 125.908V140.736Z" fill="#A9776B" stroke="#26144D" stroke-width="1.5" stroke-linecap="round" stroke-linejoin="round"/>
<path d="M255.106 123.23V128.138" stroke="#5FAE2C" stroke-width="1.5" stroke-linecap="round" stroke-linejoin="round"/>
<path d="M338.477 122.9V127.808" stroke="#5FAE2C" stroke-width="1.5" stroke-linecap="round" stroke-linejoin="round"/>
<path d="M313.488 101.266V106.185" stroke="#5FAE2C" stroke-width="1.5" stroke-linecap="round" stroke-linejoin="round"/>
<path d="M260.042 125.684V130.603" stroke="#5FAE2C" stroke-width="1.5" stroke-linecap="round" stroke-linejoin="round"/>
<path d="M275.656 104.38V109.299" stroke="#5FAE2C" stroke-width="1.5" stroke-linecap="round" stroke-linejoin="round"/>
<path d="M271.382 102.575V107.494" stroke="#5FAE2C" stroke-width="1.5" stroke-linecap="round" stroke-linejoin="round"/>
<path d="M333.871 120.116V125.023" stroke="#5FAE2C" stroke-width="1.5" stroke-linecap="round" stroke-linejoin="round"/>
<path d="M329.599 123.384V128.303" stroke="#5FAE2C" stroke-width="1.5" stroke-linecap="round" stroke-linejoin="round"/>
<path d="M294.406 144.369V149.276" stroke="#5FAE2C" stroke-width="1.5" stroke-linecap="round" stroke-linejoin="round"/>
<path d="M289.967 140.925V145.844" stroke="#5FAE2C" stroke-width="1.5" stroke-linecap="round" stroke-linejoin="round"/>
<path d="M285.528 144.534V149.441" stroke="#5FAE2C" stroke-width="1.5" stroke-linecap="round" stroke-linejoin="round"/>
<path d="M308.883 104.215V109.134" stroke="#5FAE2C" stroke-width="1.5" stroke-linecap="round" stroke-linejoin="round"/>
<path d="M318.413 104.71V109.617" stroke="#5FAE2C" stroke-width="1.5" stroke-linecap="round" stroke-linejoin="round"/>
<path d="M250.336 126.014V130.921" stroke="#5FAE2C" stroke-width="1.5" stroke-linecap="round" stroke-linejoin="round"/>
<path d="M267.275 104.545V109.464" stroke="#5FAE2C" stroke-width="1.5" stroke-linecap="round" stroke-linejoin="round"/>
<g style="mix-blend-mode:multiply" opacity="0.46">
<path d="M270 125.501L320.527 153.999L340.911 141.873L294.213 115.001L270 125.501Z" fill="#B2B4B3"/>
</g>
<path d="M320.72 75.7018C319.442 76.3978 317.346 76.3978 316.056 75.7018C315.299 75.2771 314.991 74.7109 315.133 74.1683V66.5361H321.643V74.1683C321.785 74.7109 321.478 75.2771 320.72 75.7018Z" fill="white" stroke="#26144D" stroke-width="1.5" stroke-linecap="round" stroke-linejoin="round"/>
<path d="M318.436 68.3771C320.286 68.3771 321.786 67.5743 321.786 66.584C321.786 65.5938 320.286 64.791 318.436 64.791C316.585 64.791 315.086 65.5938 315.086 66.584C315.086 67.5743 316.585 68.3771 318.436 68.3771Z" fill="white" stroke="#26144D" stroke-width="1.5" stroke-linecap="round" stroke-linejoin="round"/>
<path d="M308.729 82.2956C307.451 82.9915 305.356 82.9915 304.065 82.2956C303.308 81.8709 303 81.3047 303.142 80.7621V73.1299H309.653V80.7621C309.795 81.3047 309.487 81.8709 308.729 82.2956Z" fill="white" stroke="#26144D" stroke-width="1.5" stroke-linecap="round" stroke-linejoin="round"/>
<path d="M306.456 74.9708C308.306 74.9708 309.806 74.1681 309.806 73.1778C309.806 72.1875 308.306 71.3848 306.456 71.3848C304.606 71.3848 303.106 72.1875 303.106 73.1778C303.106 74.1681 304.606 74.9708 306.456 74.9708Z" fill="white" stroke="#26144D" stroke-width="1.5" stroke-linecap="round" stroke-linejoin="round"/>
<path d="M265.108 57.4655C263.83 58.1615 261.735 58.1615 260.444 57.4655C259.687 57.0408 259.379 56.4746 259.521 55.932V48.2998H266.032V55.932C266.174 56.4746 265.866 57.0408 265.108 57.4655Z" fill="white" stroke="#26144D" stroke-width="1.5" stroke-linecap="round" stroke-linejoin="round"/>
<path d="M262.824 50.1398C264.674 50.1398 266.174 49.337 266.174 48.3467C266.174 47.3565 264.674 46.5537 262.824 46.5537C260.974 46.5537 259.474 47.3565 259.474 48.3467C259.474 49.337 260.974 50.1398 262.824 50.1398Z" fill="white" stroke="#26144D" stroke-width="1.5" stroke-linecap="round" stroke-linejoin="round"/>
<path d="M312.53 55.5192C311.251 56.2152 309.156 56.2152 307.866 55.5192C307.108 55.0945 306.8 54.5283 306.942 53.9857V46.3535H313.453V53.9857C313.595 54.5283 313.287 55.0945 312.53 55.5192Z" fill="white" stroke="#26144D" stroke-width="1.5" stroke-linecap="round" stroke-linejoin="round"/>
<path d="M310.257 48.1935C312.107 48.1935 313.607 47.3907 313.607 46.4005C313.607 45.4102 312.107 44.6074 310.257 44.6074C308.407 44.6074 306.907 45.4102 306.907 46.4005C306.907 47.3907 308.407 48.1935 310.257 48.1935Z" fill="white" stroke="#26144D" stroke-width="1.5" stroke-linecap="round" stroke-linejoin="round"/>
<path d="M272.863 40.1139C271.585 40.8099 269.489 40.8099 268.199 40.1139C267.442 39.6893 267.134 39.123 267.276 38.5804V30.9482H273.786V38.5804C273.928 39.123 273.621 39.6893 272.863 40.1139Z" fill="white" stroke="#26144D" stroke-width="1.5" stroke-linecap="round" stroke-linejoin="round"/>
<path d="M270.578 32.7882C272.429 32.7882 273.928 31.9854 273.928 30.9952C273.928 30.0049 272.429 29.2021 270.578 29.2021C268.728 29.2021 267.228 30.0049 267.228 30.9952C267.228 31.9854 268.728 32.7882 270.578 32.7882Z" fill="white" stroke="#26144D" stroke-width="1.5" stroke-linecap="round" stroke-linejoin="round"/>
<path d="M289.908 135.356L290.749 87.1565L282.19 83.1104L269.998 125.152" stroke="#26144D" stroke-width="1.5" stroke-linecap="round" stroke-linejoin="round"/>
<path d="M310.197 124.208L298.312 82.5205V31.1832L290.748 8.3457L282.864 30.6642V83.1103L290.854 79.1585L298.312 82.5205L290.748 87.1564V9.39557" stroke="#26144D" stroke-width="1.5" stroke-linecap="round" stroke-linejoin="round"/>
<path d="M270.21 125.152L289.908 119.396L310.161 124.315" stroke="#26144D" stroke-width="1.5" stroke-linecap="round" stroke-linejoin="round"/>
<path d="M303.154 100.427L290.215 107.552L277.609 101.264L289.908 119.395L303.154 100.427Z" stroke="#26144D" stroke-width="1.5" stroke-linecap="round" stroke-linejoin="round"/>
<path d="M299.994 91.002L290.216 96.4518L280.024 92.0518L290.216 107.552L299.994 91.002Z" stroke="#26144D" stroke-width="1.5" stroke-linecap="round" stroke-linejoin="round"/>
<path d="M265.617 47.4268L306.622 70.7833L290.748 54.4455L283.279 50.0455L265.617 47.4268Z" stroke="#26144D" stroke-width="1.5" stroke-linecap="round" stroke-linejoin="round"/>
<path d="M273.821 42.7549L314.825 66.1114L298.951 49.7736L291.482 45.3736L273.821 42.7549Z" stroke="#26144D" stroke-width="1.5" stroke-linecap="round" stroke-linejoin="round"/>
<path d="M272.353 32.4453L301.153 48.2641L290.961 35.3708L282.865 30.6641L272.353 32.4453Z" stroke="#26144D" stroke-width="1.5" stroke-linecap="round" stroke-linejoin="round"/>
<path d="M280.438 28.8828L309.25 44.7016L299.047 31.8083L290.962 27.1016L280.438 28.8828Z" stroke="#26144D" stroke-width="1.5" stroke-linecap="round" stroke-linejoin="round"/>
<path d="M274.555 112.058L289.908 135.355L305.569 110.383L289.908 119.395L274.662 111.327" stroke="#26144D" stroke-width="1.5" stroke-linecap="round" stroke-linejoin="round"/>
<path d="M282.545 83.7705L290.642 95.7201L297.898 83.8767" stroke="#26144D" stroke-width="1.5" stroke-linecap="round" stroke-linejoin="round"/>
<path d="M290.961 35.3713L298.312 31.1836" stroke="#26144D" stroke-width="1.5" stroke-linecap="round" stroke-linejoin="round"/>
<path d="M306.622 70.7832L314.719 66.1709" stroke="#26144D" stroke-width="1.5" stroke-linecap="round" stroke-linejoin="round"/>
<path d="M265.617 47.4264L273.821 43.0264" stroke="#26144D" stroke-width="1.5" stroke-linecap="round" stroke-linejoin="round"/>
<path d="M301.153 48.2646L309.25 44.7021" stroke="#26144D" stroke-width="1.5" stroke-linecap="round" stroke-linejoin="round"/>
<path d="M272.353 32.4453L280.438 28.8828" stroke="#26144D" stroke-width="1.5" stroke-linecap="round" stroke-linejoin="round"/>
<path d="M283.278 50.0458L289.907 45.752" stroke="#26144D" stroke-width="1.5" stroke-linecap="round" stroke-linejoin="round"/>
<path d="M290.749 54.4456L298.1 49.9395" stroke="#26144D" stroke-width="1.5" stroke-linecap="round" stroke-linejoin="round"/>
<path d="M283.385 70.3705L290.322 73.4021L297.898 68.6836" stroke="#26144D" stroke-width="1.5" stroke-linecap="round" stroke-linejoin="round"/>
<path d="M164.018 112.684C164.018 112.684 187.207 107.765 216.067 90.5656C245.08 73.2724 260.717 57.3828 260.717 57.3828" stroke="#6CA3FF" stroke-width="2" stroke-linecap="round" stroke-linejoin="round"/>
<path d="M172.399 96.4521C172.399 96.4521 195.588 91.5331 224.448 74.3342C253.461 57.0409 269.098 41.1514 269.098 41.1514" stroke="#6CA3FF" stroke-width="2" stroke-linecap="round" stroke-linejoin="round"/>
<path d="M212.362 111.197C212.362 111.197 235.552 106.278 264.411 89.0793C293.424 71.786 309.062 55.8965 309.062 55.8965" stroke="#6CA3FF" stroke-width="2" stroke-linecap="round" stroke-linejoin="round"/>
<path d="M219.76 133.823C219.76 133.823 231.113 132.101 259.972 114.89C288.985 97.5966 304.623 81.707 304.623 81.707" stroke="#6CA3FF" stroke-width="2" stroke-linecap="round" stroke-linejoin="round"/>
<path d="M97.58 290.48L21.9748 246.987L97.5682 203.482L173.173 246.987L97.58 290.48Z" fill="#8ED760" stroke="#26144D" stroke-width="1.5" stroke-linecap="round" stroke-linejoin="round"/>
<path d="M97.45 305.19L21.8448 261.697V246.869L97.45 290.362V305.19Z" fill="#956054" stroke="#26144D" stroke-width="1.5" stroke-linecap="round" stroke-linejoin="round"/>
<path d="M173.114 261.803L97.5204 305.308V290.48L173.114 246.976V261.803Z" fill="#A9776B" stroke="#26144D" stroke-width="1.5" stroke-linecap="round" stroke-linejoin="round"/>
<path d="M59.1096 244.792V249.711" stroke="#5FAE2C" stroke-width="1.5" stroke-linecap="round" stroke-linejoin="round"/>
<path d="M142.48 244.463V249.382" stroke="#5FAE2C" stroke-width="1.5" stroke-linecap="round" stroke-linejoin="round"/>
<path d="M117.479 222.828V227.747" stroke="#5FAE2C" stroke-width="1.5" stroke-linecap="round" stroke-linejoin="round"/>
<path d="M64.0334 247.246V252.165" stroke="#5FAE2C" stroke-width="1.5" stroke-linecap="round" stroke-linejoin="round"/>
<path d="M79.6596 225.942V230.861" stroke="#5FAE2C" stroke-width="1.5" stroke-linecap="round" stroke-linejoin="round"/>
<path d="M75.3856 224.137V229.056" stroke="#5FAE2C" stroke-width="1.5" stroke-linecap="round" stroke-linejoin="round"/>
<path d="M137.875 241.679V246.598" stroke="#5FAE2C" stroke-width="1.5" stroke-linecap="round" stroke-linejoin="round"/>
<path d="M133.603 244.958V249.877" stroke="#5FAE2C" stroke-width="1.5" stroke-linecap="round" stroke-linejoin="round"/>
<path d="M98.4092 265.932V270.851" stroke="#5FAE2C" stroke-width="1.5" stroke-linecap="round" stroke-linejoin="round"/>
<path d="M93.9703 262.486V267.405" stroke="#5FAE2C" stroke-width="1.5" stroke-linecap="round" stroke-linejoin="round"/>
<path d="M89.5315 266.097V271.016" stroke="#5FAE2C" stroke-width="1.5" stroke-linecap="round" stroke-linejoin="round"/>
<path d="M112.875 225.777V230.696" stroke="#5FAE2C" stroke-width="1.5" stroke-linecap="round" stroke-linejoin="round"/>
<path d="M122.416 226.272V231.192" stroke="#5FAE2C" stroke-width="1.5" stroke-linecap="round" stroke-linejoin="round"/>
<path d="M54.339 247.576V252.495" stroke="#5FAE2C" stroke-width="1.5" stroke-linecap="round" stroke-linejoin="round"/>
<path d="M71.2785 226.107V231.026" stroke="#5FAE2C" stroke-width="1.5" stroke-linecap="round" stroke-linejoin="round"/>
<path d="M197.392 230.661L121.787 187.169L197.392 143.676L272.997 187.169L197.392 230.661Z" fill="#8ED760" stroke="#26144D" stroke-width="1.5" stroke-linecap="round" stroke-linejoin="round"/>
<path d="M197.274 245.383L121.668 201.879V187.051L197.274 230.555V245.383Z" fill="#956054" stroke="#26144D" stroke-width="1.5" stroke-linecap="round" stroke-linejoin="round"/>
<path d="M272.938 201.997L197.333 245.49V230.662L272.938 187.169V201.997Z" fill="#A9776B" stroke="#26144D" stroke-width="1.5" stroke-linecap="round" stroke-linejoin="round"/>
<path d="M158.105 184.49V189.397" stroke="#5FAE2C" stroke-width="1.5" stroke-linecap="round" stroke-linejoin="round"/>
<path d="M241.475 184.16V189.067" stroke="#5FAE2C" stroke-width="1.5" stroke-linecap="round" stroke-linejoin="round"/>
<path d="M216.486 162.526V167.445" stroke="#5FAE2C" stroke-width="1.5" stroke-linecap="round" stroke-linejoin="round"/>
<path d="M163.04 186.944V191.863" stroke="#5FAE2C" stroke-width="1.5" stroke-linecap="round" stroke-linejoin="round"/>
<path d="M178.655 165.641V170.56" stroke="#5FAE2C" stroke-width="1.5" stroke-linecap="round" stroke-linejoin="round"/>
<path d="M174.381 163.835V168.754" stroke="#5FAE2C" stroke-width="1.5" stroke-linecap="round" stroke-linejoin="round"/>
<path d="M236.871 181.377V186.284" stroke="#5FAE2C" stroke-width="1.5" stroke-linecap="round" stroke-linejoin="round"/>
<path d="M232.598 184.645V189.564" stroke="#5FAE2C" stroke-width="1.5" stroke-linecap="round" stroke-linejoin="round"/>
<path d="M197.405 205.629V210.536" stroke="#5FAE2C" stroke-width="1.5" stroke-linecap="round" stroke-linejoin="round"/>
<path d="M192.966 202.185V207.104" stroke="#5FAE2C" stroke-width="1.5" stroke-linecap="round" stroke-linejoin="round"/>
<path d="M188.527 205.795V210.702" stroke="#5FAE2C" stroke-width="1.5" stroke-linecap="round" stroke-linejoin="round"/>
<path d="M211.882 165.476V170.395" stroke="#5FAE2C" stroke-width="1.5" stroke-linecap="round" stroke-linejoin="round"/>
<path d="M221.411 165.971V170.878" stroke="#5FAE2C" stroke-width="1.5" stroke-linecap="round" stroke-linejoin="round"/>
<path d="M153.334 187.274V192.182" stroke="#5FAE2C" stroke-width="1.5" stroke-linecap="round" stroke-linejoin="round"/>
<path d="M170.273 165.806V170.725" stroke="#5FAE2C" stroke-width="1.5" stroke-linecap="round" stroke-linejoin="round"/>
<path d="M223.718 136.964C222.44 137.66 220.345 137.66 219.054 136.964C218.297 136.539 217.989 135.973 218.131 135.43V127.798H224.642V135.43C224.784 135.973 224.476 136.539 223.718 136.964Z" fill="white" stroke="#26144D" stroke-width="1.5" stroke-linecap="round" stroke-linejoin="round"/>
<path d="M221.434 129.638C223.284 129.638 224.784 128.835 224.784 127.845C224.784 126.855 223.284 126.052 221.434 126.052C219.584 126.052 218.084 126.855 218.084 127.845C218.084 128.835 219.584 129.638 221.434 129.638Z" fill="white" stroke="#26144D" stroke-width="1.5" stroke-linecap="round" stroke-linejoin="round"/>
<path d="M211.727 143.557C210.449 144.253 208.354 144.253 207.063 143.557C206.306 143.133 205.998 142.566 206.14 142.024V134.392H212.651V142.024C212.793 142.566 212.485 143.133 211.727 143.557Z" fill="white" stroke="#26144D" stroke-width="1.5" stroke-linecap="round" stroke-linejoin="round"/>
<path d="M209.455 136.232C211.305 136.232 212.805 135.429 212.805 134.439C212.805 133.448 211.305 132.646 209.455 132.646C207.604 132.646 206.105 133.448 206.105 134.439C206.105 135.429 207.604 136.232 209.455 136.232Z" fill="white" stroke="#26144D" stroke-width="1.5" stroke-linecap="round" stroke-linejoin="round"/>
<path d="M168.106 118.726C166.828 119.422 164.733 119.422 163.442 118.726C162.685 118.302 162.377 117.735 162.519 117.193V109.561H169.03V117.193C169.172 117.735 168.864 118.302 168.106 118.726Z" fill="white" stroke="#26144D" stroke-width="1.5" stroke-linecap="round" stroke-linejoin="round"/>
<path d="M165.822 111.401C167.672 111.401 169.172 110.598 169.172 109.607C169.172 108.617 167.672 107.814 165.822 107.814C163.972 107.814 162.472 108.617 162.472 109.607C162.472 110.598 163.972 111.401 165.822 111.401Z" fill="white" stroke="#26144D" stroke-width="1.5" stroke-linecap="round" stroke-linejoin="round"/>
<path d="M215.528 116.78C214.249 117.476 212.154 117.476 210.864 116.78C210.106 116.355 209.798 115.789 209.941 115.246V107.614H216.451V115.246C216.593 115.789 216.285 116.355 215.528 116.78Z" fill="white" stroke="#26144D" stroke-width="1.5" stroke-linecap="round" stroke-linejoin="round"/>
<path d="M213.255 109.454C215.105 109.454 216.605 108.651 216.605 107.661C216.605 106.671 215.105 105.868 213.255 105.868C211.405 105.868 209.905 106.671 209.905 107.661C209.905 108.651 211.405 109.454 213.255 109.454Z" fill="white" stroke="#26144D" stroke-width="1.5" stroke-linecap="round" stroke-linejoin="round"/>
<path d="M175.86 101.374C174.582 102.07 172.487 102.07 171.196 101.374C170.439 100.949 170.131 100.383 170.273 99.8402V92.208H176.784V99.8402C176.926 100.383 176.618 100.949 175.86 101.374Z" fill="white" stroke="#26144D" stroke-width="1.5" stroke-linecap="round" stroke-linejoin="round"/>
<path d="M173.576 94.048C175.426 94.048 176.926 93.2452 176.926 92.2549C176.926 91.2647 175.426 90.4619 173.576 90.4619C171.726 90.4619 170.226 91.2647 170.226 92.2549C170.226 93.2452 171.726 94.048 173.576 94.048Z" fill="white" stroke="#26144D" stroke-width="1.5" stroke-linecap="round" stroke-linejoin="round"/>
<path d="M192.906 196.617L193.747 148.417L185.188 144.371L172.996 186.413" stroke="#26144D" stroke-width="1.5" stroke-linecap="round" stroke-linejoin="round"/>
<path d="M213.196 185.469L201.311 143.781V92.444L193.747 69.6064L185.863 91.9249V144.371L193.853 140.419L201.311 143.781L193.747 148.417V70.6563" stroke="#26144D" stroke-width="1.5" stroke-linecap="round" stroke-linejoin="round"/>
<path d="M173.208 186.413L192.905 180.656L213.159 185.575" stroke="#26144D" stroke-width="1.5" stroke-linecap="round" stroke-linejoin="round"/>
<path d="M206.152 161.688L193.213 168.812L180.607 162.525L192.906 180.656L206.152 161.688Z" stroke="#26144D" stroke-width="1.5" stroke-linecap="round" stroke-linejoin="round"/>
<path d="M202.991 152.263L193.214 157.713L183.022 153.313L193.214 168.813L202.991 152.263Z" stroke="#26144D" stroke-width="1.5" stroke-linecap="round" stroke-linejoin="round"/>
<path d="M168.616 108.688L209.621 132.044L193.747 115.706L186.277 111.306L168.616 108.688Z" stroke="#26144D" stroke-width="1.5" stroke-linecap="round" stroke-linejoin="round"/>
<path d="M176.819 104.016L217.823 127.372L201.949 111.034L194.48 106.634L176.819 104.016Z" stroke="#26144D" stroke-width="1.5" stroke-linecap="round" stroke-linejoin="round"/>
<path d="M175.351 93.706L204.151 109.525L193.959 96.6315L185.862 91.9248L175.351 93.706Z" stroke="#26144D" stroke-width="1.5" stroke-linecap="round" stroke-linejoin="round"/>
<path d="M183.436 90.1435L212.248 105.962L202.044 93.069L193.959 88.3623L183.436 90.1435Z" stroke="#26144D" stroke-width="1.5" stroke-linecap="round" stroke-linejoin="round"/>
<path d="M177.553 173.319L192.906 196.616L208.567 171.644L192.906 180.656L177.659 172.587" stroke="#26144D" stroke-width="1.5" stroke-linecap="round" stroke-linejoin="round"/>
<path d="M185.544 145.031L193.641 156.981L200.897 145.137" stroke="#26144D" stroke-width="1.5" stroke-linecap="round" stroke-linejoin="round"/>
<path d="M193.96 96.632L201.311 92.4443" stroke="#26144D" stroke-width="1.5" stroke-linecap="round" stroke-linejoin="round"/>
<path d="M209.62 132.044L217.717 127.432" stroke="#26144D" stroke-width="1.5" stroke-linecap="round" stroke-linejoin="round"/>
<path d="M168.616 108.688L176.819 104.288" stroke="#26144D" stroke-width="1.5" stroke-linecap="round" stroke-linejoin="round"/>
<path d="M204.151 109.525L212.248 105.963" stroke="#26144D" stroke-width="1.5" stroke-linecap="round" stroke-linejoin="round"/>
<path d="M175.351 93.706L183.436 90.1436" stroke="#26144D" stroke-width="1.5" stroke-linecap="round" stroke-linejoin="round"/>
<path d="M186.277 111.307L192.906 107.013" stroke="#26144D" stroke-width="1.5" stroke-linecap="round" stroke-linejoin="round"/>
<path d="M193.746 115.706L201.097 111.2" stroke="#26144D" stroke-width="1.5" stroke-linecap="round" stroke-linejoin="round"/>
<path d="M186.383 131.631L193.32 134.663L200.896 129.944" stroke="#26144D" stroke-width="1.5" stroke-linecap="round" stroke-linejoin="round"/>
<g style="mix-blend-mode:multiply" opacity="0.46">
<path d="M173 186L223.163 215.335L243.547 203.209L196.849 176.337L173 186Z" fill="#B2B4B3"/>
</g>
<g style="mix-blend-mode:multiply" opacity="0.46">
<path d="M75.5 248L122.5 275.5L143.5 263.5L97.2074 237.3L75.5 248Z" fill="#B2B4B3"/>
</g>
<path d="M67.0164 173.945C67.0164 173.945 90.2058 169.026 119.065 151.827C148.079 134.534 163.716 118.645 163.716 118.645" stroke="#6CA3FF" stroke-width="2" stroke-linecap="round" stroke-linejoin="round"/>
<path d="M75.3974 157.713C75.3974 157.713 98.5868 152.794 127.446 135.595C156.46 118.302 172.097 102.412 172.097 102.412" stroke="#6CA3FF" stroke-width="2" stroke-linecap="round" stroke-linejoin="round"/>
<path d="M115.361 172.459C115.361 172.459 138.55 167.54 167.409 150.341C196.423 133.048 212.06 117.158 212.06 117.158" stroke="#6CA3FF" stroke-width="2" stroke-linecap="round" stroke-linejoin="round"/>
<path d="M122.759 195.084C122.759 195.084 134.111 193.361 162.97 176.151C191.984 158.857 207.621 142.968 207.621 142.968" stroke="#6CA3FF" stroke-width="2" stroke-linecap="round" stroke-linejoin="round"/>
<path d="M126.155 198.575C124.876 199.271 122.781 199.271 121.491 198.575C120.733 198.15 120.425 197.584 120.567 197.041V189.409H127.078V197.041C127.22 197.584 126.912 198.15 126.155 198.575Z" fill="white" stroke="#26144D" stroke-width="1.5" stroke-linecap="round" stroke-linejoin="round"/>
<path d="M123.87 191.249C125.72 191.249 127.22 190.446 127.22 189.456C127.22 188.466 125.72 187.663 123.87 187.663C122.02 187.663 120.52 188.466 120.52 189.456C120.52 190.446 122.02 191.249 123.87 191.249Z" fill="white" stroke="#26144D" stroke-width="1.5" stroke-linecap="round" stroke-linejoin="round"/>
<path d="M114.166 205.181C112.887 205.877 110.792 205.877 109.502 205.181C108.744 204.757 108.436 204.19 108.578 203.648V196.016H115.089V203.648C115.231 204.19 114.923 204.757 114.166 205.181Z" fill="white" stroke="#26144D" stroke-width="1.5" stroke-linecap="round" stroke-linejoin="round"/>
<path d="M111.893 197.856C113.743 197.856 115.243 197.053 115.243 196.063C115.243 195.072 113.743 194.27 111.893 194.27C110.042 194.27 108.543 195.072 108.543 196.063C108.543 197.053 110.042 197.856 111.893 197.856Z" fill="white" stroke="#26144D" stroke-width="1.5" stroke-linecap="round" stroke-linejoin="round"/>
<path d="M70.5437 180.35C69.2653 181.046 67.1701 181.046 65.8798 180.35C65.1222 179.926 64.8144 179.359 64.9565 178.817V171.185H71.467V178.817C71.6091 179.359 71.3013 179.926 70.5437 180.35Z" fill="white" stroke="#26144D" stroke-width="1.5" stroke-linecap="round" stroke-linejoin="round"/>
<path d="M68.2592 173.025C70.1093 173.025 71.6092 172.222 71.6092 171.232C71.6092 170.241 70.1093 169.438 68.2592 169.438C66.4091 169.438 64.9092 170.241 64.9092 171.232C64.9092 172.222 66.4091 173.025 68.2592 173.025Z" fill="white" stroke="#26144D" stroke-width="1.5" stroke-linecap="round" stroke-linejoin="round"/>
<path d="M117.965 178.391C116.687 179.087 114.591 179.087 113.301 178.391C112.544 177.967 112.236 177.4 112.378 176.858V169.226H118.888V176.858C119.03 177.4 118.723 177.967 117.965 178.391Z" fill="white" stroke="#26144D" stroke-width="1.5" stroke-linecap="round" stroke-linejoin="round"/>
<path d="M115.692 171.066C117.542 171.066 119.042 170.263 119.042 169.273C119.042 168.282 117.542 167.479 115.692 167.479C113.842 167.479 112.342 168.282 112.342 169.273C112.342 170.263 113.842 171.066 115.692 171.066Z" fill="white" stroke="#26144D" stroke-width="1.5" stroke-linecap="round" stroke-linejoin="round"/>
<path d="M78.2976 162.985C77.0191 163.681 74.9239 163.681 73.6337 162.985C72.8761 162.56 72.5683 161.994 72.7103 161.452V153.819H79.2209V161.452C79.3629 161.994 79.0552 162.56 78.2976 162.985Z" fill="white" stroke="#26144D" stroke-width="1.5" stroke-linecap="round" stroke-linejoin="round"/>
<path d="M76.0132 155.66C77.8634 155.66 79.3632 154.858 79.3632 153.867C79.3632 152.877 77.8634 152.074 76.0132 152.074C74.1631 152.074 72.6633 152.877 72.6633 153.867C72.6633 154.858 74.1631 155.66 76.0132 155.66Z" fill="white" stroke="#26144D" stroke-width="1.5" stroke-linecap="round" stroke-linejoin="round"/>
<path d="M95.3432 258.229L96.1836 210.041L87.637 205.995L75.4327 248.037" stroke="#26144D" stroke-width="1.5" stroke-linecap="round" stroke-linejoin="round"/>
<path d="M115.633 247.093L103.748 205.393V154.068L96.1838 131.23L88.3001 153.537V205.995L96.2903 202.043L103.748 205.393L96.1838 210.041V132.269" stroke="#26144D" stroke-width="1.5" stroke-linecap="round" stroke-linejoin="round"/>
<path d="M75.6451 248.037L95.3425 242.269L115.596 247.199" stroke="#26144D" stroke-width="1.5" stroke-linecap="round" stroke-linejoin="round"/>
<path d="M108.589 223.312L95.6503 230.436L83.0435 224.149L95.3425 242.268L108.589 223.312Z" stroke="#26144D" stroke-width="1.5" stroke-linecap="round" stroke-linejoin="round"/>
<path d="M105.429 213.887L95.6509 219.325L85.4589 214.925L95.6509 230.437L105.429 213.887Z" stroke="#26144D" stroke-width="1.5" stroke-linecap="round" stroke-linejoin="round"/>
<path d="M71.053 170.3L112.058 193.668L96.1838 177.319L88.7144 172.919L71.053 170.3Z" stroke="#26144D" stroke-width="1.5" stroke-linecap="round" stroke-linejoin="round"/>
<path d="M79.2556 165.629L120.26 188.985L104.386 172.648L96.9169 168.248L79.2556 165.629Z" stroke="#26144D" stroke-width="1.5" stroke-linecap="round" stroke-linejoin="round"/>
<path d="M77.7879 155.318L106.588 171.137L96.3963 158.256L88.2995 153.537L77.7879 155.318Z" stroke="#26144D" stroke-width="1.5" stroke-linecap="round" stroke-linejoin="round"/>
<path d="M85.8847 151.756L114.685 167.575L104.481 154.693L96.3963 149.975L85.8847 151.756Z" stroke="#26144D" stroke-width="1.5" stroke-linecap="round" stroke-linejoin="round"/>
<path d="M79.9899 234.943L95.3429 258.228L111.004 233.268L95.3429 242.268L80.0964 234.199" stroke="#26144D" stroke-width="1.5" stroke-linecap="round" stroke-linejoin="round"/>
<path d="M87.981 206.655L96.0777 218.593L103.334 206.761" stroke="#26144D" stroke-width="1.5" stroke-linecap="round" stroke-linejoin="round"/>
<path d="M96.3969 158.256L103.748 154.068" stroke="#26144D" stroke-width="1.5" stroke-linecap="round" stroke-linejoin="round"/>
<path d="M112.057 193.668L120.154 189.056" stroke="#26144D" stroke-width="1.5" stroke-linecap="round" stroke-linejoin="round"/>
<path d="M71.053 170.299L79.2563 165.899" stroke="#26144D" stroke-width="1.5" stroke-linecap="round" stroke-linejoin="round"/>
<path d="M106.589 171.138L114.686 167.575" stroke="#26144D" stroke-width="1.5" stroke-linecap="round" stroke-linejoin="round"/>
<path d="M77.7879 155.318L85.8847 151.756" stroke="#26144D" stroke-width="1.5" stroke-linecap="round" stroke-linejoin="round"/>
<path d="M88.7143 172.918L95.3432 168.624" stroke="#26144D" stroke-width="1.5" stroke-linecap="round" stroke-linejoin="round"/>
<path d="M96.1835 177.319L103.534 172.812" stroke="#26144D" stroke-width="1.5" stroke-linecap="round" stroke-linejoin="round"/>
<path d="M88.821 193.243L95.7577 196.287L103.334 191.568" stroke="#26144D" stroke-width="1.5" stroke-linecap="round" stroke-linejoin="round"/>
<path d="M66.7679 179.596C66.7679 179.596 40.0864 213.769 15.9501 240.311C-5.51108 263.903 -43 298.573 -43 298.573" stroke="#6CA3FF" stroke-width="2" stroke-linecap="round" stroke-linejoin="round"/>
<path d="M-4.50021 339.5C-4.50021 339.5 54.1141 287.507 69.4909 267.843C89.4723 242.28 111.182 203.931 111.182 203.931" stroke="#6CA3FF" stroke-width="2" stroke-linecap="round" stroke-linejoin="round"/>
<path d="M-15.4998 315.001C-15.4998 315.001 32.9718 278.165 57.8894 249.158C81.9903 221.107 113.312 178.393 113.312 178.393" stroke="#6CA3FF" stroke-width="2" stroke-linecap="round" stroke-linejoin="round"/>
<path d="M-34.3707 277.186C-34.3707 277.186 -4.20907 248.757 10.0313 232.938C35.6828 204.427 72.7101 161.465 72.7101 161.465" stroke="#6CA3FF" stroke-width="2" stroke-linecap="round" stroke-linejoin="round"/>
</g>
<defs>
<clipPath id="clip0_1211_87">
<rect width="161.48" height="67.62" fill="white" transform="translate(272)"/>
</clipPath>
</defs>
</svg>
