<svg width="390" height="396" viewBox="0 0 390 396" fill="none" xmlns="http://www.w3.org/2000/svg">
<mask id="mask0_1211_91" style="mask-type:alpha" maskUnits="userSpaceOnUse" x="-2" y="0" width="392" height="396">
<rect x="-2" width="392" height="396" fill="#D9D9D9"/>
</mask>
<g mask="url(#mask0_1211_91)">
<path d="M143.328 156.063C143.22 149.76 138.787 141.88 133.438 138.459C130.243 136.471 127.479 136.489 125.738 138.173L73.4702 167.668L87.273 192.274L139.541 162.779C141.874 162.188 143.346 159.842 143.31 156.081L143.328 156.063Z" fill="#248CFF" stroke="#26144D" stroke-width="1.5" stroke-linecap="round" stroke-linejoin="round"/>
<path d="M73.8182 183.63C69.9578 176.752 69.8432 169.492 73.5623 167.414C77.2814 165.336 83.4258 169.227 87.2863 176.104C91.1467 182.982 91.2613 190.242 87.5422 192.32C83.8231 194.398 77.6787 190.508 73.8182 183.63Z" fill="#0069EA" stroke="#26144D" stroke-width="1.5" stroke-linecap="round" stroke-linejoin="round"/>
<path d="M193.209 360.649L366.417 260.863L193.209 161.096L19.9998 260.863L193.209 360.649Z" fill="#8ED760" stroke="#26144D" stroke-width="1.5" stroke-linecap="round" stroke-linejoin="round"/>
<path d="M193.496 394.406L366.705 294.62V260.612L193.496 360.398V394.406Z" fill="#956054" stroke="#26144D" stroke-width="1.5" stroke-linecap="round" stroke-linejoin="round"/>
<path d="M20.1254 294.871L193.334 394.657V360.649L20.1254 260.863V294.871Z" fill="#A9776B" stroke="#26144D" stroke-width="1.5" stroke-linecap="round" stroke-linejoin="round"/>
<path d="M300.149 251.301V262.261" stroke="#5FAE2C" stroke-width="1.5" stroke-linecap="round" stroke-linejoin="round"/>
<path d="M58.5186 255.043V266.003" stroke="#5FAE2C" stroke-width="1.5" stroke-linecap="round" stroke-linejoin="round"/>
<path d="M289.147 256.78V267.74" stroke="#5FAE2C" stroke-width="1.5" stroke-linecap="round" stroke-linejoin="round"/>
<path d="M68.7854 248.829V259.789" stroke="#5FAE2C" stroke-width="1.5" stroke-linecap="round" stroke-linejoin="round"/>
<path d="M78.3164 256.136V267.096" stroke="#5FAE2C" stroke-width="1.5" stroke-linecap="round" stroke-linejoin="round"/>
<path d="M189.134 323.328V334.288" stroke="#5FAE2C" stroke-width="1.5" stroke-linecap="round" stroke-linejoin="round"/>
<path d="M199.024 315.646V326.623" stroke="#5FAE2C" stroke-width="1.5" stroke-linecap="round" stroke-linejoin="round"/>
<path d="M208.914 323.704V334.664" stroke="#5FAE2C" stroke-width="1.5" stroke-linecap="round" stroke-linejoin="round"/>
<path d="M310.775 257.515V268.475" stroke="#5FAE2C" stroke-width="1.5" stroke-linecap="round" stroke-linejoin="round"/>
<path d="M208.788 213.871L228.209 202.571L228.084 148.577L208.663 159.877L208.788 213.871Z" fill="white" stroke="black" stroke-width="1.5" stroke-linecap="round" stroke-linejoin="round"/>
<path d="M208.663 159.877L228.084 148.577L210.332 138.352L190.911 149.652L208.663 159.877Z" fill="#248CFF" stroke="#26144D" stroke-width="1.5" stroke-linecap="round" stroke-linejoin="round"/>
<path d="M221.64 148.882L209.668 142.166" stroke="white" stroke-width="1.5" stroke-linecap="round" stroke-linejoin="round"/>
<path d="M190.911 149.652L191.037 203.646L208.788 213.872L208.663 159.878L190.911 149.652Z" fill="white" stroke="black" stroke-width="1.5" stroke-linecap="round" stroke-linejoin="round"/>
<path d="M232.984 227.804L252.387 216.504L252.279 162.51L232.858 173.828L232.984 227.804Z" fill="#004DA9" stroke="#26144D" stroke-width="1.5" stroke-linecap="round" stroke-linejoin="round"/>
<path d="M232.858 173.828L252.279 162.51L234.51 152.284L215.107 163.584L232.858 173.828Z" fill="#248CFF" stroke="#26144D" stroke-width="1.5" stroke-linecap="round" stroke-linejoin="round"/>
<path d="M245.853 162.975L233.881 156.26" stroke="white" stroke-width="1.5" stroke-linecap="round" stroke-linejoin="round"/>
<path d="M215.107 163.585L215.214 217.579L232.984 227.805L232.858 173.829L215.107 163.585Z" fill="white" stroke="black" stroke-width="1.5" stroke-linecap="round" stroke-linejoin="round"/>
<g style="mix-blend-mode:multiply" opacity="0.46">
<path d="M114.5 277L225.5 341.5L338 277L272.5 235L114.5 277Z" fill="#B2B4B3"/>
</g>
<path d="M257.161 241.737L276.582 230.437L276.474 176.443L257.054 187.761L257.161 241.737Z" fill="#004DA9" stroke="#26144D" stroke-width="1.5" stroke-linecap="round" stroke-linejoin="round"/>
<path d="M257.054 187.761L276.474 176.442L258.705 166.217L239.284 177.517L257.054 187.761Z" fill="#248CFF" stroke="#26144D" stroke-width="1.5" stroke-linecap="round" stroke-linejoin="round"/>
<path d="M239.284 177.518L239.41 231.511L257.161 241.737L257.054 187.761L239.284 177.518Z" fill="white" stroke="black" stroke-width="1.5" stroke-linecap="round" stroke-linejoin="round"/>
<path d="M203.87 306.314L277.964 263.621V191.253L203.87 233.947V306.314Z" fill="#004DA9" stroke="#26144D" stroke-width="1.5" stroke-linecap="round" stroke-linejoin="round"/>
<path d="M97.4322 244.997L203.87 306.315V233.947L97.4322 172.629V244.997Z" fill="#0069EA" stroke="#26144D" stroke-width="1.5" stroke-linecap="round" stroke-linejoin="round"/>
<path d="M203.87 233.947L277.964 191.254L171.544 129.953L97.4322 172.629L203.87 233.947Z" fill="#248CFF" stroke="#26144D" stroke-width="1.5" stroke-linecap="round" stroke-linejoin="round"/>
<g style="mix-blend-mode:multiply" opacity="0.46">
<path d="M229.34 206.565L195.165 227.339L178.329 218.385L211.93 198.9L229.34 206.565Z" fill="#B2B4B3"/>
</g>
<g style="mix-blend-mode:multiply" opacity="0.46">
<path d="M198.539 185.684L160.631 207.818L144.423 198.363L178.831 178.216L198.539 185.684Z" fill="#B2B4B3"/>
</g>
<g style="mix-blend-mode:multiply" opacity="0.46">
<path d="M163.395 168.008L127.964 188.406L111.504 179.451L145.967 160.325L163.395 168.008Z" fill="#B2B4B3"/>
</g>
<path d="M260.625 215.035L225.714 234.681" stroke="#26144D" stroke-width="1.5" stroke-linecap="round" stroke-linejoin="round"/>
<path d="M260.625 223.99L225.714 243.636" stroke="#26144D" stroke-width="1.5" stroke-linecap="round" stroke-linejoin="round"/>
<path d="M260.625 233.445L225.714 253.091" stroke="#26144D" stroke-width="1.5" stroke-linecap="round" stroke-linejoin="round"/>
<path d="M260.625 242.65L225.714 262.296" stroke="#26144D" stroke-width="1.5" stroke-linecap="round" stroke-linejoin="round"/>
<path d="M114.538 277.124L133.959 265.806L133.833 211.83L114.412 223.13L114.538 277.124Z" fill="#004DA9" stroke="#26144D" stroke-width="1.5" stroke-linecap="round" stroke-linejoin="round"/>
<path d="M114.412 223.13L133.833 211.83L116.081 201.586L96.6604 212.904L114.412 223.13Z" fill="#248CFF" stroke="#26144D" stroke-width="1.5" stroke-linecap="round" stroke-linejoin="round"/>
<path d="M96.6604 212.904L96.786 266.898L114.538 277.124L114.412 223.13L96.6604 212.904Z" fill="#0069EA" stroke="#26144D" stroke-width="1.5" stroke-linecap="round" stroke-linejoin="round"/>
<path d="M138.733 291.057L158.136 279.757L158.028 225.763L138.607 237.063L138.733 291.057Z" fill="#004DA9" stroke="#26144D" stroke-width="1.5" stroke-linecap="round" stroke-linejoin="round"/>
<path d="M138.607 237.063L158.028 225.763L140.259 215.52L120.856 226.838L138.607 237.063Z" fill="#248CFF" stroke="#26144D" stroke-width="1.5" stroke-linecap="round" stroke-linejoin="round"/>
<path d="M120.856 226.837L120.963 280.831L138.733 291.056L138.607 237.063L120.856 226.837Z" fill="#0069EA" stroke="#26144D" stroke-width="1.5" stroke-linecap="round" stroke-linejoin="round"/>
<path d="M162.911 304.989L182.331 293.689L182.224 239.695L162.803 250.996L162.911 304.989Z" fill="#004DA9" stroke="#26144D" stroke-width="1.5" stroke-linecap="round" stroke-linejoin="round"/>
<path d="M162.803 250.996L182.224 239.695L164.454 229.47L145.033 240.77L162.803 250.996Z" fill="#248CFF" stroke="#26144D" stroke-width="1.5" stroke-linecap="round" stroke-linejoin="round"/>
<path d="M145.033 240.77L145.159 294.763L162.911 304.989L162.803 250.995L145.033 240.77Z" fill="#0069EA" stroke="#26144D" stroke-width="1.5" stroke-linecap="round" stroke-linejoin="round"/>
<path d="M226.235 306.691L279.705 275.763L279.58 251.909L226.109 282.837L226.235 306.691Z" fill="#004DA9" stroke="#26144D" stroke-width="1.5" stroke-linecap="round" stroke-linejoin="round"/>
<path d="M226.109 282.837L279.58 251.909L268.685 245.623L215.196 276.551L226.109 282.837Z" fill="#248CFF" stroke="#26144D" stroke-width="1.5" stroke-linecap="round" stroke-linejoin="round"/>
<path d="M215.196 276.551L215.322 300.405L226.235 306.691L226.109 282.837L215.196 276.551Z" fill="#0069EA" stroke="#26144D" stroke-width="1.5" stroke-linecap="round" stroke-linejoin="round"/>
<path d="M150.938 166.719C155.372 168.563 162.193 167.847 166.177 165.125C168.511 163.495 169.336 161.525 168.672 159.806L166.052 134.842L144.764 137.062L147.385 162.027C147.097 163.853 148.3 165.608 150.938 166.719Z" fill="white" stroke="#26144D" stroke-width="1.5" stroke-linecap="round" stroke-linejoin="round"/>
<path d="M146.792 155.883C146.505 157.71 147.708 159.465 150.328 160.575C154.744 162.42 161.528 161.704 165.477 158.999C167.811 157.37 168.618 155.4 167.954 153.681" fill="white"/>
<path d="M146.792 155.883C146.505 157.71 147.708 159.465 150.328 160.575C154.744 162.42 161.528 161.704 165.477 158.999C167.811 157.37 168.618 155.4 167.954 153.681" stroke="#26144D" stroke-width="1.5" stroke-linecap="round" stroke-linejoin="round"/>
<path d="M146.11 149.437C145.823 151.264 147.026 153.019 149.646 154.129C154.062 155.974 160.846 155.257 164.795 152.553C167.129 150.924 167.936 148.954 167.272 147.234" fill="white"/>
<path d="M146.11 149.437C145.823 151.264 147.026 153.019 149.646 154.129C154.062 155.974 160.846 155.257 164.795 152.553C167.129 150.924 167.936 148.954 167.272 147.234" stroke="#26144D" stroke-width="1.5" stroke-linecap="round" stroke-linejoin="round"/>
<path d="M145.41 143.33C145.123 145.156 146.326 146.911 148.946 148.022C153.362 149.866 160.146 149.15 164.095 146.446C166.429 144.816 167.236 142.846 166.572 141.127" fill="white"/>
<path d="M145.41 143.33C145.123 145.156 146.326 146.911 148.946 148.022C153.362 149.866 160.146 149.15 164.095 146.446C166.429 144.816 167.236 142.846 166.572 141.127" stroke="#26144D" stroke-width="1.5" stroke-linecap="round" stroke-linejoin="round"/>
<path d="M144.152 135.462C143.811 132.216 148.426 129.073 154.46 128.442C160.493 127.812 165.661 129.932 166.002 133.178C166.342 136.424 161.727 139.567 155.694 140.197C149.66 140.828 144.492 138.708 144.152 135.462Z" fill="white" stroke="#26144D" stroke-width="1.5" stroke-linecap="round" stroke-linejoin="round"/>
<path d="M143.344 127.832C143.003 124.586 147.618 121.443 153.652 120.812C159.686 120.182 164.853 122.302 165.194 125.548C165.535 128.794 160.92 131.937 154.886 132.568C148.852 133.198 143.685 131.078 143.344 127.832Z" fill="white" stroke="#26144D" stroke-width="1.5" stroke-linecap="round" stroke-linejoin="round"/>
<path d="M150.974 126.263C152.608 126.925 155.121 126.675 156.592 125.672C157.454 125.081 157.759 124.365 157.526 123.738L156.574 114.658L148.713 115.482L149.664 124.562C149.556 125.224 150.005 125.869 150.974 126.263Z" fill="white" stroke="#26144D" stroke-width="1.5" stroke-linecap="round" stroke-linejoin="round"/>
<path d="M148.674 115.521C148.55 114.341 150.232 113.197 152.431 112.968C154.629 112.738 156.512 113.508 156.636 114.689C156.76 115.869 155.078 117.012 152.88 117.242C150.681 117.472 148.798 116.701 148.674 115.521Z" fill="white" stroke="#26144D" stroke-width="1.5" stroke-linecap="round" stroke-linejoin="round"/>
<path d="M141.425 115.188C141.084 111.942 145.699 108.799 151.733 108.169C157.767 107.538 162.935 109.659 163.275 112.905C163.616 116.151 159.001 119.293 152.967 119.924C146.934 120.555 141.766 118.434 141.425 115.188Z" fill="#E40133" stroke="#26144D" stroke-width="1.5" stroke-linecap="round" stroke-linejoin="round"/>
<path d="M181.865 185.021C186.083 187.313 192.939 187.313 197.175 185.021C199.67 183.642 200.693 181.779 200.209 179.988V154.881H178.813V179.988C178.347 181.779 179.352 183.642 181.847 185.021H181.865Z" fill="white" stroke="#26144D" stroke-width="1.5" stroke-linecap="round" stroke-linejoin="round"/>
<path d="M178.867 173.811C178.401 175.601 179.406 177.464 181.883 178.843C186.083 181.135 192.903 181.135 197.122 178.843C199.599 177.464 200.622 175.601 200.137 173.811" fill="white"/>
<path d="M178.867 173.811C178.401 175.601 179.406 177.464 181.883 178.843C186.083 181.135 192.903 181.135 197.122 178.843C199.599 177.464 200.622 175.601 200.137 173.811" stroke="#26144D" stroke-width="1.5" stroke-linecap="round" stroke-linejoin="round"/>
<path d="M178.867 167.346C178.401 169.137 179.406 170.999 181.883 172.378C186.083 174.67 192.903 174.67 197.122 172.378C199.599 170.999 200.622 169.137 200.137 167.346" fill="white"/>
<path d="M178.867 167.346C178.401 169.137 179.406 170.999 181.883 172.378C186.083 174.67 192.903 174.67 197.122 172.378C199.599 170.999 200.622 169.137 200.137 167.346" stroke="#26144D" stroke-width="1.5" stroke-linecap="round" stroke-linejoin="round"/>
<path d="M178.813 161.185C178.347 162.975 179.352 164.838 181.829 166.217C186.029 168.509 192.85 168.509 197.068 166.217C199.545 164.838 200.568 162.975 200.083 161.185" fill="white"/>
<path d="M178.813 161.185C178.347 162.975 179.352 164.838 181.829 166.217C186.029 168.509 192.85 168.509 197.068 166.217C199.545 164.838 200.568 162.975 200.083 161.185" stroke="#26144D" stroke-width="1.5" stroke-linecap="round" stroke-linejoin="round"/>
<path d="M189.35 159.161C183.283 159.161 178.365 156.515 178.365 153.252C178.365 149.988 183.283 147.342 189.35 147.342C195.416 147.342 200.334 149.988 200.334 153.252C200.334 156.515 195.416 159.161 189.35 159.161Z" fill="white" stroke="#26144D" stroke-width="1.5" stroke-linecap="round" stroke-linejoin="round"/>
<path d="M189.35 151.496C183.283 151.496 178.365 148.85 178.365 145.587C178.365 142.323 183.283 139.677 189.35 139.677C195.416 139.677 200.334 142.323 200.334 145.587C200.334 148.85 195.416 151.496 189.35 151.496Z" fill="white" stroke="#26144D" stroke-width="1.5" stroke-linecap="round" stroke-linejoin="round"/>
<path d="M186.137 144.799C187.698 145.641 190.229 145.641 191.791 144.799C192.706 144.297 193.083 143.617 192.921 142.972V133.839H185.024V142.972C184.844 143.617 185.221 144.297 186.155 144.799H186.137Z" fill="white" stroke="#26144D" stroke-width="1.5" stroke-linecap="round" stroke-linejoin="round"/>
<path d="M188.955 136.041C186.744 136.041 184.952 135.079 184.952 133.892C184.952 132.705 186.744 131.743 188.955 131.743C191.165 131.743 192.958 132.705 192.958 133.892C192.958 135.079 191.165 136.041 188.955 136.041Z" fill="white" stroke="#26144D" stroke-width="1.5" stroke-linecap="round" stroke-linejoin="round"/>
<path d="M188.775 138.71C182.708 138.71 177.79 136.064 177.79 132.8C177.79 129.537 182.708 126.891 188.775 126.891C194.842 126.891 199.76 129.537 199.76 132.8C199.76 136.064 194.842 138.71 188.775 138.71Z" fill="#E40133" stroke="#26144D" stroke-width="1.5" stroke-linecap="round" stroke-linejoin="round"/>
<path d="M214.191 204.327C218.032 207.21 224.817 208.213 229.34 206.565C232.015 205.562 233.289 203.861 233.092 202.034L236.789 177.195L215.627 174.062L211.93 198.9C211.194 200.602 211.93 202.59 214.191 204.327Z" fill="white" stroke="#26144D" stroke-width="1.5" stroke-linecap="round" stroke-linejoin="round"/>
<path d="M212.881 192.793C212.163 194.494 212.881 196.482 215.124 198.219C218.93 201.102 225.679 202.105 230.184 200.458C232.84 199.455 234.115 197.754 233.917 195.927" fill="white"/>
<path d="M212.881 192.793C212.163 194.494 212.881 196.482 215.124 198.219C218.93 201.102 225.679 202.105 230.184 200.458C232.84 199.455 234.115 197.754 233.917 195.927" stroke="#26144D" stroke-width="1.5" stroke-linecap="round" stroke-linejoin="round"/>
<path d="M213.832 186.4C213.114 188.102 213.832 190.09 216.076 191.827C219.881 194.71 226.63 195.713 231.135 194.065C233.792 193.062 235.066 191.361 234.868 189.534" fill="white"/>
<path d="M213.832 186.4C213.114 188.102 213.832 190.09 216.076 191.827C219.881 194.71 226.63 195.713 231.135 194.065C233.792 193.062 235.066 191.361 234.868 189.534" stroke="#26144D" stroke-width="1.5" stroke-linecap="round" stroke-linejoin="round"/>
<path d="M214.694 180.293C213.976 181.994 214.694 183.982 216.937 185.719C220.743 188.602 227.491 189.605 231.997 187.958C234.653 186.955 235.927 185.254 235.73 183.427" fill="white"/>
<path d="M214.694 180.293C213.976 181.994 214.694 183.982 216.937 185.719C220.743 188.602 227.491 189.605 231.997 187.958C234.653 186.955 235.927 185.254 235.73 183.427" stroke="#26144D" stroke-width="1.5" stroke-linecap="round" stroke-linejoin="round"/>
<path d="M225.405 179.81C219.404 178.922 214.928 175.585 215.408 172.356C215.889 169.128 221.143 167.23 227.144 168.119C233.145 169.007 237.62 172.345 237.14 175.573C236.66 178.802 231.406 180.699 225.405 179.81Z" fill="white" stroke="#26144D" stroke-width="1.5" stroke-linecap="round" stroke-linejoin="round"/>
<path d="M226.525 172.231C220.524 171.343 216.048 168.005 216.529 164.777C217.009 161.548 222.263 159.651 228.264 160.54C234.265 161.428 238.74 164.766 238.26 167.994C237.78 171.223 232.526 173.12 226.525 172.231Z" fill="white" stroke="#26144D" stroke-width="1.5" stroke-linecap="round" stroke-linejoin="round"/>
<path d="M224.332 165.143C225.75 166.199 228.245 166.557 229.932 165.966C230.92 165.608 231.386 164.981 231.315 164.319L232.661 155.293L224.853 154.129L223.507 163.155C223.237 163.782 223.507 164.498 224.35 165.125L224.332 165.143Z" fill="white" stroke="#26144D" stroke-width="1.5" stroke-linecap="round" stroke-linejoin="round"/>
<path d="M228.415 156.887C226.228 156.563 224.597 155.349 224.772 154.175C224.946 153.001 226.86 152.312 229.047 152.636C231.234 152.959 232.865 154.173 232.69 155.347C232.516 156.521 230.601 157.211 228.415 156.887Z" fill="white" stroke="#26144D" stroke-width="1.5" stroke-linecap="round" stroke-linejoin="round"/>
<path d="M227.846 159.507C221.844 158.618 217.369 155.281 217.849 152.052C218.329 148.824 223.583 146.927 229.584 147.815C235.585 148.704 240.061 152.041 239.581 155.27C239.101 158.498 233.847 160.395 227.846 159.507Z" fill="#E40133" stroke="#26144D" stroke-width="1.5" stroke-linecap="round" stroke-linejoin="round"/>
<path d="M269.223 191.521L204.517 228.843" stroke="white" stroke-width="1.5" stroke-linecap="round" stroke-linejoin="round"/>
<path d="M133.707 142.381L87.0756 169.512" stroke="white" stroke-width="1.5" stroke-linecap="round" stroke-linejoin="round"/>
<path d="M199.275 296.017V237.045L108.022 184.43" stroke="white" stroke-width="1.5" stroke-linecap="round" stroke-linejoin="round"/>
<path d="M269.779 176.587L257.825 169.871" stroke="white" stroke-width="1.5" stroke-linecap="round" stroke-linejoin="round"/>
<path d="M415.153 51.5C415.153 51.5 361.998 102.247 321.653 125.5C291.106 143.106 238.925 161.651 238.925 161.651" stroke="#6CA3FF" stroke-width="2" stroke-linecap="round" stroke-linejoin="round"/>
<path d="M403.153 27C403.153 27 361.335 67.0435 330.653 87.5C284.324 118.389 200.783 146.357 200.783 146.357" stroke="#6CA3FF" stroke-width="2" stroke-linecap="round" stroke-linejoin="round"/>
<path d="M395.154 11.5C395.154 11.5 343.044 63.1838 304.154 89C265.395 114.729 197.786 142.632 197.786 142.632" stroke="#6CA3FF" stroke-width="2" stroke-linecap="round" stroke-linejoin="round"/>
<path d="M389.653 1C389.653 1 334.41 63.7972 288.153 88C242.426 111.925 160.38 121.733 160.38 121.733" stroke="#6CA3FF" stroke-width="2" stroke-linecap="round" stroke-linejoin="round"/>
</g>
</svg>
