<svg width="353" height="493" fill="none" xmlns="http://www.w3.org/2000/svg"><mask id="a" style="mask-type:alpha" maskUnits="userSpaceOnUse" x="0" y="0" width="353" height="493"><path fill="#D9D9D9" d="M0 0h353v493H0z"/></mask><g mask="url(#a)"><path d="M210.237 471.801l108.162-62.65-108.162-62.662-108.163 62.662 108.163 62.65z" fill="#8ED760" stroke="#26144D" stroke-width="1.5" stroke-linecap="round" stroke-linejoin="round"/><path d="M210.416 493l108.163-62.662v-21.356l-108.163 62.662V493z" fill="#956054" stroke="#26144D" stroke-width="1.5" stroke-linecap="round" stroke-linejoin="round"/><path d="M102.152 430.507l108.163 62.65v-21.356L102.152 409.14v21.367z" fill="#A9776B" stroke="#26144D" stroke-width="1.5" stroke-linecap="round" stroke-linejoin="round"/><path d="M265.954 412.243v6.41m-107.961-6.838v6.411m32.36-34.615v6.41m69.212 25.427v6.41m-20.231-34.187v6.41m5.537-8.761v6.41m-80.926 16.454v6.41m5.537-2.137v6.41m45.574 20.928v6.41m5.75-10.896v6.41m5.75-1.71v6.41m-30.24-58.962v6.41m-12.352-5.768v6.41m88.166 21.366v6.41m-21.935-34.4v6.41" stroke="#5FAE2C" stroke-width="1.5" stroke-linecap="round" stroke-linejoin="round"/><path d="M198 442l31 18 66-38-32.5-17.5L198 442z" fill="#B2B4B3" opacity=".46"/><path d="M71.418 364.527l71.59-41.463L71.43 281.59-.16 323.064l71.578 41.463z" fill="#8ED760" stroke="#26144D" stroke-width="1.5" stroke-linecap="round" stroke-linejoin="round"/><path d="M71.542 378.551l71.589-41.463v-14.136l-71.59 41.463v14.136z" fill="#956054" stroke="#26144D" stroke-width="1.5" stroke-linecap="round" stroke-linejoin="round"/><path d="M-.115 337.189l71.59 41.475v-14.136l-71.59-41.475v14.136z" fill="#A9776B" stroke="#26144D" stroke-width="1.5" stroke-linecap="round" stroke-linejoin="round"/><path d="M107.689 322.221v4.689m-78.941-5.004v4.689m23.672-25.303v4.679m50.607 18.589v4.69m-14.796-25v4.689m4.047-6.398v4.678m-59.17 12.033v4.689m4.046-1.563v4.69m33.323 15.305v4.69m4.203-7.974v4.69m4.203-1.248v4.689M56.78 304.104v4.678m-9.034-4.217v4.689m64.46 15.621v4.689m-16.039-25.156v4.689" stroke="#5FAE2C" stroke-width="1.5" stroke-linecap="round" stroke-linejoin="round"/><path d="M172.329 304.531l71.578-41.463-71.578-41.464-71.589 41.464 71.589 41.463z" fill="#8ED760" stroke="#26144D" stroke-width="1.5" stroke-linecap="round" stroke-linejoin="round"/><path d="M172.441 318.565l71.589-41.474v-14.136l-71.589 41.474v14.136z" fill="#956054" stroke="#26144D" stroke-width="1.5" stroke-linecap="round" stroke-linejoin="round"/><path d="M100.796 277.204l71.578 41.463v-14.136l-71.578-41.463v14.136z" fill="#A9776B" stroke="#26144D" stroke-width="1.5" stroke-linecap="round" stroke-linejoin="round"/><path d="M209.06 263.011v4.69m-78.942-5.005v4.69m23.661-25.314v4.689m50.607 18.59v4.689m-14.784-24.999v4.689m4.046-6.41v4.689m-59.17 12.033v4.69m4.046-1.563v4.689m33.323 15.306v4.69m4.203-7.974v4.689m4.204-1.248v4.69m-22.115-43.128v4.69m-9.023-4.218v4.69m64.461 15.621v4.689m-16.04-25.157v4.69" stroke="#5FAE2C" stroke-width="1.5" stroke-linecap="round" stroke-linejoin="round"/><path d="M276.031 237.979l71.578-41.464-71.578-41.463-71.589 41.463 71.589 41.464z" fill="#8ED760" stroke="#26144D" stroke-width="1.5" stroke-linecap="round" stroke-linejoin="round"/><path d="M276.143 252.013l71.589-41.474v-14.136l-71.589 41.474v14.136z" fill="#956054" stroke="#26144D" stroke-width="1.5" stroke-linecap="round" stroke-linejoin="round"/><path d="M204.498 210.652l71.589 41.463v-14.136l-71.589-41.463v14.136z" fill="#A9776B" stroke="#26144D" stroke-width="1.5" stroke-linecap="round" stroke-linejoin="round"/><path d="M67 326.5l33.099 20.499 8.866-5.004L75.182 322 67 326.5zM168 266l34.088 20.988 8.877-4.993L177.171 262 168 266zm104-65.5l33.088 20.499 8.877-5.004L280.182 196 272 200.5z" fill="#B2B4B3" opacity=".46"/><path d="M312.503 196.639v4.69m-78.953-5.005v4.69m23.673-25.314v4.689m50.607 18.59v4.689m-14.796-25v4.69m4.047-6.41v4.689m-59.17 12.033v4.69m4.057-1.563v4.678m33.312 15.317v4.689m4.214-7.973v4.689m4.203-1.248v4.69m-22.114-43.128v4.69m-9.034-4.218v4.69m64.472 15.62v4.69m-16.04-25.157v4.69" stroke="#5FAE2C" stroke-width="2" stroke-linecap="round" stroke-linejoin="round"/><path d="M273.083 200.058c1.917 1.035 5.044 1.035 6.972 0 1.132-.619 1.603-1.462 1.378-2.272V85.722h-9.74v112.064c-.213.81.247 1.642 1.379 2.272h.011z" fill="#B2B4B3" stroke="#26144D" stroke-width="2" stroke-linecap="round" stroke-linejoin="round"/><path d="M276.569 88.455c-2.718 0-4.921-1.193-4.921-2.665s2.203-2.666 4.921-2.666c2.717 0 4.92 1.194 4.92 2.666s-2.203 2.665-4.92 2.665z" fill="#fff" stroke="#26144D" stroke-width="2" stroke-linecap="round" stroke-linejoin="round"/><path d="M296.475 117.874c.975.529 2.556.529 3.531 0 .572-.315.807-.742.706-1.147v-5.735h-4.932v5.735c-.112.405.124.832.706 1.147h-.011z" fill="#7D7D7B" stroke="#26144D" stroke-width="2" stroke-linecap="round" stroke-linejoin="round"/><path d="M298.235 112.375c-1.38 0-2.499-.604-2.499-1.35 0-.745 1.119-1.349 2.499-1.349 1.38 0 2.5.604 2.5 1.349 0 .746-1.12 1.35-2.5 1.35zm-43.243-16.396c.976.528 2.556.528 3.531 0 .572-.315.807-.743.706-1.147v-5.736h-4.932v5.736c-.112.404.124.832.707 1.147h-.012z" fill="#7D7D7B" stroke="#26144D" stroke-width="2" stroke-linecap="round" stroke-linejoin="round"/><path d="M256.763 90.48c-1.38 0-2.499-.605-2.499-1.35 0-.745 1.119-1.35 2.499-1.35 1.381 0 2.5.605 2.5 1.35 0 .745-1.119 1.35-2.5 1.35zm7.544 10.357c.975.529 2.555.529 3.53 0 .572-.315.807-.742.707-1.147v-5.735h-4.932v5.735c-.112.405.123.832.706 1.147h-.011z" fill="#7D7D7B" stroke="#26144D" stroke-width="2" stroke-linecap="round" stroke-linejoin="round"/><path d="M266.066 95.338c-1.38 0-2.499-.604-2.499-1.35 0-.745 1.119-1.35 2.499-1.35 1.381 0 2.5.605 2.5 1.35 0 .746-1.119 1.35-2.5 1.35zm19.828 17.149c.976.529 2.556.529 3.531 0 .572-.314.807-.742.706-1.147v-5.735h-4.932v5.735c-.112.405.124.833.707 1.147h-.012z" fill="#7D7D7B" stroke="#26144D" stroke-width="2" stroke-linecap="round" stroke-linejoin="round"/><path d="M287.665 106.999c-1.38 0-2.499-.604-2.499-1.349 0-.746 1.119-1.35 2.499-1.35 1.381 0 2.5.604 2.5 1.35 0 .745-1.119 1.349-2.5 1.349z" fill="#7D7D7B" stroke="#26144D" stroke-width="2" stroke-linecap="round" stroke-linejoin="round"/><path d="M250.33 97.058c-.841.484-1.48 1.676-1.424 2.654.045.585.314.956.706 1.057l49.027 26.394 1.983-3.711-49.015-26.394c-.313-.27-.773-.292-1.277 0z" fill="#fff" stroke="#26144D" stroke-width="2" stroke-linecap="round" stroke-linejoin="round"/><path d="M298.602 127.193c-.644-.347-.715-1.471-.159-2.51.556-1.04 1.529-1.603 2.172-1.256.644.346.715 1.47.159 2.51-.556 1.04-1.528 1.602-2.172 1.256z" fill="#B2B4B3" stroke="#26144D" stroke-width="2" stroke-linecap="round" stroke-linejoin="round"/><path d="M298 118.211l-1.626 2.193m-11.388-5.386l1.615-2.182m-23.236-9.638l1.625-2.181m-10.782-2.688l1.614-2.193" stroke="#26144D" stroke-width="2" stroke-linecap="round" stroke-linejoin="round"/><path d="M230.065 353.496s36.752 22.806 78.482 27.496c27.102 3.047 63.765.989 63.765.989" stroke="#6CA3FF" stroke-width="2" stroke-linecap="round" stroke-linejoin="round"/><path d="M248.749 343.183s28.335 17.499 57.926 24.999c27.786 7.04 68.204 11.246 68.204 11.246m-79.413-257.933s-24.468 24.19-47.737 38.427c-23.269 14.237-51.301 21.558-51.301 21.558m57.925-83.42s-24.468 24.189-47.737 38.426c-23.269 14.237-51.301 21.558-51.301 21.558m107.456-55.295s-24.468 24.189-47.737 38.426c-23.269 14.237-51.302 21.558-51.302 21.558m121.546-47.805s-24.468 24.189-47.737 38.427c-23.269 14.237-51.302 21.558-51.302 21.558" stroke="#6CA3FF" stroke-width="2" stroke-linecap="round" stroke-linejoin="round"/><path d="M169.224 265.43c1.917 1.035 5.044 1.035 6.972 0 1.132-.619 1.603-1.462 1.379-2.272V151.105h-9.74V263.17c-.213.809.246 1.641 1.378 2.271l.011-.011z" fill="#B2B4B3" stroke="#26144D" stroke-width="2" stroke-linecap="round" stroke-linejoin="round"/><path d="M172.699 153.838c-2.717 0-4.92-1.193-4.92-2.665s2.203-2.665 4.92-2.665c2.718 0 4.921 1.193 4.921 2.665s-2.203 2.665-4.921 2.665z" fill="#fff" stroke="#26144D" stroke-width="2" stroke-linecap="round" stroke-linejoin="round"/><path d="M192.617 183.257c.975.529 2.555.529 3.53 0 .572-.314.807-.742.707-1.147v-5.735h-4.932v5.735c-.112.405.123.833.706 1.147h-.011z" fill="#7D7D7B" stroke="#26144D" stroke-width="2" stroke-linecap="round" stroke-linejoin="round"/><path d="M194.377 177.758c-1.381 0-2.5-.604-2.5-1.349 0-.746 1.119-1.35 2.5-1.35 1.38 0 2.499.604 2.499 1.35 0 .745-1.119 1.349-2.499 1.349zm-43.243-16.396c.975.528 2.555.528 3.531 0 .571-.315.807-.742.706-1.147v-5.736h-4.932v5.736c-.112.405.123.832.706 1.147h-.011z" fill="#7D7D7B" stroke="#26144D" stroke-width="2" stroke-linecap="round" stroke-linejoin="round"/><path d="M152.894 155.863c-1.381 0-2.5-.605-2.5-1.35 0-.745 1.119-1.349 2.5-1.349 1.38 0 2.499.604 2.499 1.349s-1.119 1.35-2.499 1.35zm7.543 10.357c.975.529 2.556.529 3.531 0 .571-.315.807-.742.706-1.147v-5.735h-4.932v5.735c-.112.405.123.832.706 1.147h-.011z" fill="#7D7D7B" stroke="#26144D" stroke-width="2" stroke-linecap="round" stroke-linejoin="round"/><path d="M162.208 160.721c-1.381 0-2.5-.604-2.5-1.35 0-.745 1.119-1.349 2.5-1.349 1.38 0 2.499.604 2.499 1.349 0 .746-1.119 1.35-2.499 1.35zm19.828 17.15c.975.528 2.555.528 3.531 0 .571-.315.807-.743.706-1.147v-5.736h-4.932v5.736c-.112.404.123.832.706 1.147h-.011z" fill="#7D7D7B" stroke="#26144D" stroke-width="2" stroke-linecap="round" stroke-linejoin="round"/><path d="M183.807 172.383c-1.381 0-2.5-.605-2.5-1.35 0-.745 1.119-1.349 2.5-1.349 1.38 0 2.499.604 2.499 1.349s-1.119 1.35-2.499 1.35z" fill="#7D7D7B" stroke="#26144D" stroke-width="2" stroke-linecap="round" stroke-linejoin="round"/><path d="M146.471 162.441c-.841.484-1.479 1.676-1.423 2.654.044.585.313.956.706 1.058l49.026 26.393 1.984-3.711-49.026-26.394c-.314-.269-.774-.292-1.278 0h.011z" fill="#fff" stroke="#26144D" stroke-width="2" stroke-linecap="round" stroke-linejoin="round"/><path d="M194.742 192.565c-.643-.347-.714-1.47-.158-2.51.556-1.04 1.528-1.602 2.172-1.256.643.346.715 1.47.159 2.51-.556 1.04-1.529 1.602-2.173 1.256z" fill="#B2B4B3" stroke="#26144D" stroke-width="2" stroke-linecap="round" stroke-linejoin="round"/><path d="M192.516 185.788l1.625-2.193m-13.024-3.194l1.625-2.182m-23.235-9.637l1.625-2.182m-10.783-2.699l1.614-2.182" stroke="#26144D" stroke-width="2" stroke-linecap="round" stroke-linejoin="round"/><path d="M192.46 183.594s-24.469 24.19-47.737 38.427c-23.74 14.53-51.302 21.558-51.302 21.558m57.937-83.421s-24.468 24.19-47.737 38.427c-23.74 14.53-51.302 21.558-51.302 21.558m107.445-55.295s-24.468 24.189-47.737 38.426c-23.74 14.53-51.301 21.559-51.301 21.559m121.545-47.806s-24.468 24.19-47.737 38.427c-23.74 14.529-51.302 21.558-51.302 21.558" stroke="#6CA3FF" stroke-width="2" stroke-linecap="round" stroke-linejoin="round"/><path d="M67.54 325.662c1.917 1.035 5.044 1.035 6.972 0 1.132-.619 1.603-1.462 1.379-2.272V211.326h-9.74V323.39c-.213.81.246 1.642 1.378 2.272h.011z" fill="#B2B4B3" stroke="#26144D" stroke-width="2" stroke-linecap="round" stroke-linejoin="round"/><path d="M71.026 214.059c-2.717 0-4.92-1.193-4.92-2.665s2.203-2.665 4.92-2.665c2.718 0 4.92 1.193 4.92 2.665s-2.202 2.665-4.92 2.665z" fill="#fff" stroke="#26144D" stroke-width="2" stroke-linecap="round" stroke-linejoin="round"/><path d="M90.933 243.478c.975.529 2.555.529 3.53 0 .572-.315.807-.742.707-1.147v-5.735h-4.932v5.735c-.112.405.123.832.706 1.147h-.011z" fill="#7D7D7B" stroke="#26144D" stroke-width="2" stroke-linecap="round" stroke-linejoin="round"/><path d="M92.692 237.979c-1.38 0-2.5-.604-2.5-1.35 0-.745 1.12-1.349 2.5-1.349s2.5.604 2.5 1.349c0 .746-1.12 1.35-2.5 1.35zM49.45 221.583c.975.528 2.555.528 3.53 0 .572-.315.808-.743.707-1.147V214.7h-4.932v5.736c-.112.404.123.832.706 1.147h-.011z" fill="#7D7D7B" stroke="#26144D" stroke-width="2" stroke-linecap="round" stroke-linejoin="round"/><path d="M51.22 216.094c-1.38 0-2.499-.604-2.499-1.349s1.12-1.349 2.5-1.349 2.5.604 2.5 1.349-1.12 1.349-2.5 1.349zm7.544 10.347c.975.529 2.556.529 3.53 0 .572-.315.808-.742.707-1.147v-5.735h-4.932v5.735c-.112.405.123.832.706 1.147h-.01z" fill="#7D7D7B" stroke="#26144D" stroke-width="2" stroke-linecap="round" stroke-linejoin="round"/><path d="M60.524 220.953c-1.38 0-2.5-.604-2.5-1.35 0-.745 1.12-1.349 2.5-1.349s2.5.604 2.5 1.349c0 .746-1.12 1.35-2.5 1.35zm19.839 17.15c.975.528 2.555.528 3.53 0 .572-.315.808-.743.707-1.147v-5.736h-4.932v5.736c-.112.404.123.832.706 1.147h-.011z" fill="#7D7D7B" stroke="#26144D" stroke-width="2" stroke-linecap="round" stroke-linejoin="round"/><path d="M82.123 232.603c-1.38 0-2.5-.604-2.5-1.349 0-.746 1.12-1.35 2.5-1.35s2.5.604 2.5 1.35c0 .745-1.12 1.349-2.5 1.349z" fill="#7D7D7B" stroke="#26144D" stroke-width="2" stroke-linecap="round" stroke-linejoin="round"/><path d="M44.798 222.662c-.84.484-1.48 1.676-1.423 2.654.044.585.314.956.706 1.057l49.026 26.394 1.984-3.711-49.026-26.394c-.314-.27-.774-.292-1.278 0h.011z" fill="#fff" stroke="#26144D" stroke-width="2" stroke-linecap="round" stroke-linejoin="round"/><path d="M93.066 252.807c-.644-.346-.715-1.47-.16-2.51.557-1.04 1.53-1.602 2.173-1.256.644.347.715 1.47.159 2.51-.556 1.04-1.529 1.602-2.172 1.256z" fill="#B2B4B3" stroke="#26144D" stroke-width="2" stroke-linecap="round" stroke-linejoin="round"/><path d="M90.832 246.008l1.625-2.181m-13.013-3.194l1.614-2.193m-23.235-9.638l1.625-2.181m-10.783-2.688l1.625-2.182" stroke="#26144D" stroke-width="2" stroke-linecap="round" stroke-linejoin="round"/><path d="M91.09 245.693l152.526 96.545M79.41 240.768L226.097 352.09M58.394 228.825l150.419 132.632M48.822 224.372l144.109 146.464" stroke="#6CA3FF" stroke-width="2" stroke-linecap="round" stroke-linejoin="round"/><path d="M197.851 441.381l63.9-37.021v-46.411l-63.9 37.01v46.422z" fill="#004DA9" stroke="#26144D" stroke-width="1.5" stroke-linecap="round" stroke-linejoin="round"/><path d="M206.527 430.045l46.537-26.956v-29.992l-46.537 26.956v29.992z" fill="#248CFF" stroke="#26144D" stroke-width="1.5" stroke-linecap="round" stroke-linejoin="round"/><path d="M249.175 404.888v-28.924m-4.651 31.624v-28.936m-4.181 31.353v-28.924m-4.069 31.275v-28.924m-4.181 31.342V385.85m-4.293 31.42v-28.924m-4.483 31.511v-28.924m-4.528 31.555v-28.925m-4.181 31.343v-28.925m-4.181 31.354v-28.924" stroke="#26144D" stroke-width="1.5" stroke-linecap="round" stroke-linejoin="round"/><path d="M179.817 431.035l17.978 10.413v-46.422l-17.978-10.414v46.423z" fill="#0069EA" stroke="#26144D" stroke-width="1.5" stroke-linecap="round" stroke-linejoin="round"/><path d="M183.672 426.964l10.637 6.152v-29.993l-10.637-6.151v29.992z" fill="#248CFF" stroke="#26144D" stroke-width="1.5" stroke-linecap="round" stroke-linejoin="round"/><path d="M191.07 430.787v-28.924m-3.845 26.698v-28.924" stroke="#26144D" stroke-width="1.5" stroke-linecap="round" stroke-linejoin="round"/><path d="M201.864 396.634l67.52-39.112-28.156-16.307-67.52 39.113 28.156 16.306z" fill="#D8D8D8" stroke="#26144D" stroke-width="1.5" stroke-linecap="round" stroke-linejoin="round"/><path d="M249.22 358.174L192 390.045l-10.043-5.623 55.819-31.399 11.444 5.151z" fill="#B2B4B3" opacity=".46"/><path d="M173.786 386.502l28.156 16.306v-5.994l-28.156-16.306v5.994z" fill="#B2B4B3" stroke="#26144D" stroke-width="1.5" stroke-linecap="round" stroke-linejoin="round"/><path d="M201.886 402.865l67.509-39.113v-5.994l-67.509 39.113v5.994z" fill="#7D7D7B" stroke="#26144D" stroke-width="1.5" stroke-linecap="round" stroke-linejoin="round"/><path d="M207.995 376.83c1.961 1.069 5.133 1.069 7.106 0 1.155-.641 1.625-1.518 1.412-2.35v-11.707h-9.919v11.707c-.213.832.246 1.698 1.412 2.35h-.011z" fill="#fff" stroke="#26144D" stroke-width="1.5" stroke-linecap="round" stroke-linejoin="round"/><path d="M206.616 371.601c-.213.832.247 1.698 1.401 2.35 1.951 1.069 5.111 1.069 7.062 0 1.154-.641 1.614-1.518 1.401-2.35" fill="#fff"/><path d="M206.616 371.601c-.213.832.247 1.698 1.401 2.35 1.951 1.069 5.111 1.069 7.062 0 1.154-.641 1.614-1.518 1.401-2.35" stroke="#26144D" stroke-width="1.5" stroke-linecap="round" stroke-linejoin="round"/><path d="M206.616 368.587c-.213.833.247 1.699 1.401 2.351 1.951 1.068 5.111 1.068 7.062 0 1.154-.641 1.614-1.518 1.401-2.351" fill="#fff"/><path d="M206.616 368.587c-.213.833.247 1.699 1.401 2.351 1.951 1.068 5.111 1.068 7.062 0 1.154-.641 1.614-1.518 1.401-2.351" stroke="#26144D" stroke-width="1.5" stroke-linecap="round" stroke-linejoin="round"/><path d="M206.583 365.708c-.213.833.246 1.699 1.401 2.351 1.95 1.068 5.111 1.068 7.061 0 1.155-.641 1.614-1.518 1.401-2.351" fill="#fff"/><path d="M206.583 365.708c-.213.833.246 1.699 1.401 2.351 1.95 1.068 5.111 1.068 7.061 0 1.155-.641 1.614-1.518 1.401-2.351" stroke="#26144D" stroke-width="1.5" stroke-linecap="round" stroke-linejoin="round"/><path d="M211.47 365.596c-2.817 0-5.1-1.234-5.1-2.755 0-1.522 2.283-2.756 5.1-2.756 2.816 0 5.099 1.234 5.099 2.756 0 1.521-2.283 2.755-5.099 2.755z" fill="#fff" stroke="#26144D" stroke-width="1.5" stroke-linecap="round" stroke-linejoin="round"/><path d="M209.979 362.942c.717.394 1.894.394 2.623 0 .426-.236.605-.551.515-.855v-4.251h-3.665v4.251c-.078.304.09.619.516.855h.011z" fill="#fff" stroke="#26144D" stroke-width="1.5" stroke-linecap="round" stroke-linejoin="round"/><path d="M211.29 358.86c-1.021 0-1.849-.448-1.849-1.001 0-.553.828-1.001 1.849-1.001 1.022 0 1.85.448 1.85 1.001 0 .553-.828 1.001-1.85 1.001z" fill="#fff" stroke="#26144D" stroke-width="1.5" stroke-linecap="round" stroke-linejoin="round"/><path d="M211.201 360.097c-2.817 0-5.1-1.234-5.1-2.755 0-1.522 2.283-2.756 5.1-2.756 2.816 0 5.099 1.234 5.099 2.756 0 1.521-2.283 2.755-5.099 2.755z" fill="#E40133" stroke="#26144D" stroke-width="1.5" stroke-linecap="round" stroke-linejoin="round"/><path d="M191.417 385.737c1.962 1.068 5.134 1.068 7.107 0 1.154-.641 1.625-1.518 1.412-2.35V371.68h-9.92v11.707c-.213.832.247 1.698 1.413 2.35h-.012z" fill="#fff" stroke="#26144D" stroke-width="1.5" stroke-linecap="round" stroke-linejoin="round"/><path d="M190.028 380.508c-.213.832.246 1.698 1.401 2.35 1.95 1.069 5.111 1.069 7.061 0 1.154-.641 1.614-1.518 1.401-2.35" fill="#fff"/><path d="M190.028 380.508c-.213.832.246 1.698 1.401 2.35 1.95 1.069 5.111 1.069 7.061 0 1.154-.641 1.614-1.518 1.401-2.35" stroke="#26144D" stroke-width="1.5" stroke-linecap="round" stroke-linejoin="round"/><path d="M190.028 377.494c-.213.832.246 1.698 1.401 2.351 1.95 1.068 5.111 1.068 7.061 0 1.154-.642 1.614-1.519 1.401-2.351" fill="#fff"/><path d="M190.028 377.494c-.213.832.246 1.698 1.401 2.351 1.95 1.068 5.111 1.068 7.061 0 1.154-.642 1.614-1.519 1.401-2.351" stroke="#26144D" stroke-width="1.5" stroke-linecap="round" stroke-linejoin="round"/><path d="M190.005 374.615c-.213.832.247 1.698 1.401 2.351 1.95 1.068 5.111 1.068 7.062 0 1.154-.641 1.614-1.519 1.401-2.351" fill="#fff"/><path d="M190.005 374.615c-.213.832.247 1.698 1.401 2.351 1.95 1.068 5.111 1.068 7.062 0 1.154-.641 1.614-1.519 1.401-2.351" stroke="#26144D" stroke-width="1.5" stroke-linecap="round" stroke-linejoin="round"/><path d="M194.892 374.503c-2.817 0-5.1-1.234-5.1-2.756 0-1.521 2.283-2.755 5.1-2.755 2.817 0 5.1 1.234 5.1 2.755 0 1.522-2.283 2.756-5.1 2.756z" fill="#fff" stroke="#26144D" stroke-width="1.5" stroke-linecap="round" stroke-linejoin="round"/><path d="M193.401 371.849c.718.393 1.895.393 2.623 0 .426-.236.605-.551.516-.855v-4.251h-3.666v4.251c-.078.304.09.619.516.855h.011z" fill="#fff" stroke="#26144D" stroke-width="1.5" stroke-linecap="round" stroke-linejoin="round"/><path d="M194.713 367.755c-1.022 0-1.85-.448-1.85-1.001 0-.552.828-1.001 1.85-1.001 1.021 0 1.849.449 1.849 1.001 0 .553-.828 1.001-1.849 1.001z" fill="#fff" stroke="#26144D" stroke-width="1.5" stroke-linecap="round" stroke-linejoin="round"/><path d="M194.623 369.004c-2.817 0-5.1-1.234-5.1-2.756 0-1.521 2.283-2.755 5.1-2.755 2.817 0 5.1 1.234 5.1 2.755 0 1.522-2.283 2.756-5.1 2.756z" fill="#E40133" stroke="#26144D" stroke-width="1.5" stroke-linecap="round" stroke-linejoin="round"/><path d="M243.347 356.757c1.961 1.068 5.133 1.068 7.106 0 1.154-.641 1.625-1.518 1.412-2.35V342.7h-9.919v11.707c-.213.832.246 1.698 1.412 2.35h-.011z" fill="#fff" stroke="#26144D" stroke-width="1.5" stroke-linecap="round" stroke-linejoin="round"/><path d="M241.957 351.527c-.213.833.246 1.698 1.401 2.351 1.95 1.068 5.111 1.068 7.061 0 1.155-.641 1.614-1.518 1.401-2.351" fill="#fff"/><path d="M241.957 351.527c-.213.833.246 1.698 1.401 2.351 1.95 1.068 5.111 1.068 7.061 0 1.155-.641 1.614-1.518 1.401-2.351" stroke="#26144D" stroke-width="1.5" stroke-linecap="round" stroke-linejoin="round"/><path d="M241.957 348.502c-.213.833.246 1.699 1.401 2.351 1.95 1.068 5.111 1.068 7.061 0 1.155-.641 1.614-1.518 1.401-2.351" fill="#fff"/><path d="M241.957 348.502c-.213.833.246 1.699 1.401 2.351 1.95 1.068 5.111 1.068 7.061 0 1.155-.641 1.614-1.518 1.401-2.351" stroke="#26144D" stroke-width="1.5" stroke-linecap="round" stroke-linejoin="round"/><path d="M241.934 345.635c-.213.832.247 1.698 1.401 2.35 1.951 1.068 5.112 1.068 7.062 0 1.154-.641 1.614-1.518 1.401-2.35" fill="#fff"/><path d="M241.934 345.635c-.213.832.247 1.698 1.401 2.35 1.951 1.068 5.112 1.068 7.062 0 1.154-.641 1.614-1.518 1.401-2.35" stroke="#26144D" stroke-width="1.5" stroke-linecap="round" stroke-linejoin="round"/><path d="M246.821 345.522c-2.816 0-5.1-1.233-5.1-2.755 0-1.522 2.284-2.755 5.1-2.755 2.817 0 5.1 1.233 5.1 2.755 0 1.522-2.283 2.755-5.1 2.755z" fill="#fff" stroke="#26144D" stroke-width="1.5" stroke-linecap="round" stroke-linejoin="round"/><path d="M245.319 342.857c.718.394 1.895.394 2.623 0 .426-.236.605-.551.516-.855v-4.251h-3.665v4.251c-.079.304.089.619.515.855h.011z" fill="#fff" stroke="#26144D" stroke-width="1.5" stroke-linecap="round" stroke-linejoin="round"/><path d="M246.631 338.775c-1.022 0-1.85-.448-1.85-1.001 0-.553.828-1.001 1.85-1.001 1.021 0 1.849.448 1.849 1.001 0 .553-.828 1.001-1.849 1.001z" fill="#fff" stroke="#26144D" stroke-width="1.5" stroke-linecap="round" stroke-linejoin="round"/><path d="M246.552 340.023c-2.816 0-5.1-1.233-5.1-2.755 0-1.522 2.284-2.755 5.1-2.755 2.817 0 5.1 1.233 5.1 2.755 0 1.522-2.283 2.755-5.1 2.755z" fill="#E40133" stroke="#26144D" stroke-width="1.5" stroke-linecap="round" stroke-linejoin="round"/><path d="M225.133 366.821c1.961 1.069 5.133 1.069 7.106 0 1.154-.641 1.625-1.518 1.412-2.35v-11.707h-9.919v11.707c-.213.832.246 1.698 1.412 2.35h-.011z" fill="#fff" stroke="#26144D" stroke-width="1.5" stroke-linecap="round" stroke-linejoin="round"/><path d="M223.754 361.592c-.213.832.247 1.698 1.401 2.351 1.95 1.068 5.111 1.068 7.062 0 1.154-.641 1.614-1.519 1.401-2.351" fill="#fff"/><path d="M223.754 361.592c-.213.832.247 1.698 1.401 2.351 1.95 1.068 5.111 1.068 7.062 0 1.154-.641 1.614-1.519 1.401-2.351" stroke="#26144D" stroke-width="1.5" stroke-linecap="round" stroke-linejoin="round"/><path d="M223.754 358.579c-.213.832.247 1.698 1.401 2.35 1.95 1.068 5.111 1.068 7.062 0 1.154-.641 1.614-1.518 1.401-2.35" fill="#fff"/><path d="M223.754 358.579c-.213.832.247 1.698 1.401 2.35 1.95 1.068 5.111 1.068 7.062 0 1.154-.641 1.614-1.518 1.401-2.35" stroke="#26144D" stroke-width="1.5" stroke-linecap="round" stroke-linejoin="round"/><path d="M223.72 355.711c-.212.832.247 1.698 1.402 2.35 1.95 1.069 5.111 1.069 7.061 0 1.154-.641 1.614-1.518 1.401-2.35" fill="#fff"/><path d="M223.72 355.711c-.212.832.247 1.698 1.402 2.35 1.95 1.069 5.111 1.069 7.061 0 1.154-.641 1.614-1.518 1.401-2.35" stroke="#26144D" stroke-width="1.5" stroke-linecap="round" stroke-linejoin="round"/><path d="M228.607 355.598c-2.816 0-5.099-1.233-5.099-2.755 0-1.522 2.283-2.755 5.099-2.755 2.817 0 5.1 1.233 5.1 2.755 0 1.522-2.283 2.755-5.1 2.755z" fill="#fff" stroke="#26144D" stroke-width="1.5" stroke-linecap="round" stroke-linejoin="round"/><path d="M227.117 352.933c.717.394 1.894.394 2.622 0 .426-.236.606-.551.516-.854v-4.251h-3.665v4.251c-.079.303.09.618.515.854h.012z" fill="#fff" stroke="#26144D" stroke-width="1.5" stroke-linecap="round" stroke-linejoin="round"/><path d="M228.428 348.851c-1.021 0-1.849-.448-1.849-1.001 0-.553.828-1.001 1.849-1.001s1.849.448 1.849 1.001c0 .553-.828 1.001-1.849 1.001z" fill="#fff" stroke="#26144D" stroke-width="1.5" stroke-linecap="round" stroke-linejoin="round"/><path d="M228.338 350.099c-2.816 0-5.099-1.233-5.099-2.755 0-1.522 2.283-2.755 5.099-2.755 2.817 0 5.1 1.233 5.1 2.755 0 1.522-2.283 2.755-5.1 2.755z" fill="#E40133" stroke="#26144D" stroke-width="1.5" stroke-linecap="round" stroke-linejoin="round"/><path d="M254.589 352.314l8.642 4.926-52.165 29.678m47.502-12.573v28.587" stroke="#fff" stroke-width="1.5" stroke-linecap="round" stroke-linejoin="round"/><path d="M196.125 371.927s36.786 25.269 70.692 38.123c28.033 10.628 106.683 0 106.683 0" stroke="#6CA3FF" stroke-width="2" stroke-linecap="round" stroke-linejoin="round"/><path d="M213.252 363.178s31.451 18.432 61.658 25.933c28.38 7.04 96.59 8.889 96.59 8.889" stroke="#6CA3FF" stroke-width="2" stroke-linecap="round" stroke-linejoin="round"/><path d="M42.768 9.992C35.368 12.58-7.513 164.796 160 100c167.513-64.795 259.097-89.965 132 10" stroke="#26144D" stroke-width="2" stroke-linecap="round" stroke-linejoin="round"/><path d="M26.946.19C16.07 9.935-31.02 179.968 148 113.5 327.019 47.032 340 54 267.5 99" stroke="#26144D" stroke-width="2" stroke-linecap="round" stroke-linejoin="round"/><path d="M61.36 110.841l-4.032 9.52-6.07-5.861 1.57 8.736-8.127 2.138 8.627 3.7-2.966 9.848 7.56-6.762 6.921 5.098-1.417-9.001 9.269-6-10.031-.26-1.303-11.156z" fill="#FFBF33"/></g></svg>