<svg width="390" height="337" fill="none" xmlns="http://www.w3.org/2000/svg"><mask id="a" style="mask-type:alpha" maskUnits="userSpaceOnUse" x="0" y="0" width="390" height="337"><path fill="#D9D9D9" d="M0 0h390v337H0z"/></mask><g mask="url(#a)"><g clip-path="url(#clip0_1211_87)" stroke="#6CA3FF" stroke-width="2" stroke-linecap="round" stroke-linejoin="round"><path d="M402.2 10.17s-32.79 20.28-70.02 24.45c-24.18 2.71-56.89.88-56.89.88"/><path d="M395-.5s-34.75 17.06-61.15 23.73c-24.79 6.26-60.85 10-60.85 10m159.48-6.67s-32.82 22.47-63.07 33.9c-25.01 9.45-53.69 5.21-53.69 5.21M417.2 18.78s-28.06 16.39-55.01 23.06c-25.32 6.26-53.07 6.39-53.07 6.39"/></g><path d="M294.395 169.401l-75.605-43.493 75.605-43.493L370 125.908l-75.605 43.493z" fill="#8ED760" stroke="#26144D" stroke-width="1.5" stroke-linecap="round" stroke-linejoin="round"/><path d="M294.277 184.122l-75.606-43.504V125.79l75.606 43.505v14.827z" fill="#956054" stroke="#26144D" stroke-width="1.5" stroke-linecap="round" stroke-linejoin="round"/><path d="M369.941 140.736l-75.606 43.493v-14.828l75.606-43.493v14.828z" fill="#A9776B" stroke="#26144D" stroke-width="1.5" stroke-linecap="round" stroke-linejoin="round"/><path d="M255.106 123.23v4.908m83.371-5.238v4.908m-24.989-26.542v4.919m-53.446 19.499v4.919m15.614-26.223v4.919m-4.274-6.724v4.919m62.489 12.622v4.907m-4.272-1.639v4.919m-35.193 16.066v4.907m-4.439-8.351v4.919m-4.439-1.31v4.907m23.355-45.226v4.919m9.53-4.424v4.907m-68.077 16.397v4.907m16.939-26.376v4.919" stroke="#5FAE2C" stroke-width="1.5" stroke-linecap="round" stroke-linejoin="round"/><path d="M270 125.501l50.527 28.498 20.384-12.126-46.698-26.872-24.213 10.5z" fill="#B2B4B3" opacity=".46"/><path d="M320.72 75.702c-1.278.696-3.374.696-4.664 0-.757-.425-1.065-.991-.923-1.534v-7.632h6.51v7.632c.142.543-.165 1.11-.923 1.534z" fill="#fff" stroke="#26144D" stroke-width="1.5" stroke-linecap="round" stroke-linejoin="round"/><path d="M318.436 68.377c1.85 0 3.35-.803 3.35-1.793 0-.99-1.5-1.793-3.35-1.793-1.851 0-3.35.803-3.35 1.793 0 .99 1.499 1.793 3.35 1.793zm-9.707 13.919c-1.278.695-3.373.695-4.664 0-.757-.425-1.065-.991-.923-1.534V73.13h6.511v7.632c.142.543-.166 1.109-.924 1.534z" fill="#fff" stroke="#26144D" stroke-width="1.5" stroke-linecap="round" stroke-linejoin="round"/><path d="M306.456 74.97c1.85 0 3.35-.802 3.35-1.792s-1.5-1.793-3.35-1.793-3.35.802-3.35 1.793c0 .99 1.5 1.793 3.35 1.793zm-41.348-17.505c-1.278.696-3.373.696-4.664 0-.757-.424-1.065-.99-.923-1.533V48.3h6.511v7.632c.142.543-.166 1.109-.924 1.533z" fill="#fff" stroke="#26144D" stroke-width="1.5" stroke-linecap="round" stroke-linejoin="round"/><path d="M262.824 50.14c1.85 0 3.35-.803 3.35-1.793 0-.99-1.5-1.793-3.35-1.793s-3.35.802-3.35 1.793c0 .99 1.5 1.793 3.35 1.793zm49.706 5.38c-1.279.695-3.374.695-4.664 0-.758-.426-1.066-.992-.924-1.534v-7.633h6.511v7.633c.142.542-.166 1.108-.923 1.533z" fill="#fff" stroke="#26144D" stroke-width="1.5" stroke-linecap="round" stroke-linejoin="round"/><path d="M310.257 48.194c1.85 0 3.35-.803 3.35-1.794 0-.99-1.5-1.793-3.35-1.793s-3.35.803-3.35 1.794c0 .99 1.5 1.792 3.35 1.792zm-37.394-8.08c-1.278.696-3.374.696-4.664 0-.757-.425-1.065-.991-.923-1.534v-7.632h6.51v7.632c.142.543-.165 1.11-.923 1.534z" fill="#fff" stroke="#26144D" stroke-width="1.5" stroke-linecap="round" stroke-linejoin="round"/><path d="M270.578 32.788c1.851 0 3.35-.803 3.35-1.793 0-.99-1.499-1.793-3.35-1.793-1.85 0-3.35.803-3.35 1.793 0 .99 1.5 1.793 3.35 1.793z" fill="#fff" stroke="#26144D" stroke-width="1.5" stroke-linecap="round" stroke-linejoin="round"/><path d="M289.908 135.356l.841-48.2-8.559-4.046-12.192 42.042" stroke="#26144D" stroke-width="1.5" stroke-linecap="round" stroke-linejoin="round"/><path d="M310.197 124.208L298.312 82.52V31.183l-7.564-22.837-7.884 22.318V83.11l7.99-3.951 7.458 3.361-7.564 4.636V9.396M270.21 125.152l19.698-5.756 20.253 4.919" stroke="#26144D" stroke-width="1.5" stroke-linecap="round" stroke-linejoin="round"/><path d="M303.154 100.427l-12.939 7.125-12.606-6.288 12.299 18.131 13.246-18.968z" stroke="#26144D" stroke-width="1.5" stroke-linecap="round" stroke-linejoin="round"/><path d="M299.994 91.002l-9.778 5.45-10.192-4.4 10.192 15.5 9.778-16.55zm-34.377-43.575l41.005 23.356-15.874-16.337-7.469-4.4-17.662-2.62zm8.204-4.672l41.004 23.356-15.874-16.337-7.469-4.4-17.661-2.62zm-1.468-10.31l28.8 15.82-10.192-12.894-8.096-4.707-10.512 1.781zm8.085-3.562l28.812 15.819-10.203-12.894-8.085-4.706-10.524 1.78zm-5.883 83.175l15.353 23.297 15.661-24.972-15.661 9.012-15.246-8.068" stroke="#26144D" stroke-width="1.5" stroke-linecap="round" stroke-linejoin="round"/><path d="M282.545 83.77l8.097 11.95 7.256-11.843m-6.937-48.506l7.351-4.187m8.31 39.599l8.097-4.612m-49.102-18.745l8.204-4.4m27.332 5.239l8.097-3.563m-36.897-12.257l8.085-3.562m2.84 21.163l6.629-4.294m.842 8.694l7.351-4.506m-14.715 20.43l6.937 3.032 7.576-4.718" stroke="#26144D" stroke-width="1.5" stroke-linecap="round" stroke-linejoin="round"/><path d="M164.018 112.684s23.189-4.919 52.049-22.118c29.013-17.294 44.65-33.183 44.65-33.183m-88.318 39.069s23.189-4.919 52.049-22.118c29.013-17.293 44.65-33.183 44.65-33.183m-56.736 70.046s23.19-4.919 52.049-22.118c29.013-17.293 44.651-33.182 44.651-33.182m-89.302 77.926s11.353-1.722 40.212-18.933c29.013-17.293 44.651-33.183 44.651-33.183" stroke="#6CA3FF" stroke-width="2" stroke-linecap="round" stroke-linejoin="round"/><path d="M97.58 290.48l-75.605-43.493 75.593-43.505 75.605 43.505L97.58 290.48z" fill="#8ED760" stroke="#26144D" stroke-width="1.5" stroke-linecap="round" stroke-linejoin="round"/><path d="M97.45 305.19l-75.605-43.493v-14.828l75.605 43.493v14.828z" fill="#956054" stroke="#26144D" stroke-width="1.5" stroke-linecap="round" stroke-linejoin="round"/><path d="M173.114 261.803L97.52 305.308V290.48l75.594-43.504v14.827z" fill="#A9776B" stroke="#26144D" stroke-width="1.5" stroke-linecap="round" stroke-linejoin="round"/><path d="M59.11 244.792v4.919m83.37-5.248v4.919m-25.001-26.554v4.919m-53.446 19.499v4.919m15.627-26.223v4.919m-4.274-6.724v4.919m62.489 12.623v4.919m-4.272-1.64v4.919M98.41 265.932v4.919m-4.44-8.365v4.919m-4.439-1.308v4.919m23.344-45.239v4.919m9.541-4.424v4.92m-68.077 16.384v4.919m16.939-26.388v4.919" stroke="#5FAE2C" stroke-width="1.5" stroke-linecap="round" stroke-linejoin="round"/><path d="M197.392 230.661l-75.605-43.492 75.605-43.493 75.605 43.493-75.605 43.492z" fill="#8ED760" stroke="#26144D" stroke-width="1.5" stroke-linecap="round" stroke-linejoin="round"/><path d="M197.274 245.383l-75.606-43.504v-14.828l75.606 43.504v14.828z" fill="#956054" stroke="#26144D" stroke-width="1.5" stroke-linecap="round" stroke-linejoin="round"/><path d="M272.938 201.997l-75.605 43.493v-14.828l75.605-43.493v14.828z" fill="#A9776B" stroke="#26144D" stroke-width="1.5" stroke-linecap="round" stroke-linejoin="round"/><path d="M158.105 184.49v4.907m83.37-5.237v4.907m-24.989-26.541v4.919m-53.446 19.499v4.919m15.615-26.222v4.919m-4.274-6.725v4.919m62.49 12.623v4.907m-4.273-1.639v4.919m-35.193 16.065v4.907m-4.439-8.351v4.919m-4.439-1.309v4.907m23.355-45.226v4.919m9.529-4.424v4.907m-68.077 16.396v4.908m16.939-26.376v4.919" stroke="#5FAE2C" stroke-width="1.5" stroke-linecap="round" stroke-linejoin="round"/><path d="M223.718 136.964c-1.278.696-3.373.696-4.664 0-.757-.425-1.065-.991-.923-1.534v-7.632h6.511v7.632c.142.543-.166 1.109-.924 1.534z" fill="#fff" stroke="#26144D" stroke-width="1.5" stroke-linecap="round" stroke-linejoin="round"/><path d="M221.434 129.638c1.85 0 3.35-.803 3.35-1.793 0-.99-1.5-1.793-3.35-1.793s-3.35.803-3.35 1.793c0 .99 1.5 1.793 3.35 1.793zm-9.707 13.919c-1.278.696-3.373.696-4.664 0-.757-.424-1.065-.991-.923-1.533v-7.632h6.511v7.632c.142.542-.166 1.109-.924 1.533z" fill="#fff" stroke="#26144D" stroke-width="1.5" stroke-linecap="round" stroke-linejoin="round"/><path d="M209.455 136.232c1.85 0 3.35-.803 3.35-1.793 0-.991-1.5-1.793-3.35-1.793-1.851 0-3.35.802-3.35 1.793 0 .99 1.499 1.793 3.35 1.793zm-41.349-17.506c-1.278.696-3.373.696-4.664 0-.757-.424-1.065-.991-.923-1.533v-7.632h6.511v7.632c.142.542-.166 1.109-.924 1.533z" fill="#fff" stroke="#26144D" stroke-width="1.5" stroke-linecap="round" stroke-linejoin="round"/><path d="M165.822 111.401c1.85 0 3.35-.803 3.35-1.794 0-.99-1.5-1.793-3.35-1.793s-3.35.803-3.35 1.793c0 .991 1.5 1.794 3.35 1.794zm49.706 5.379c-1.279.696-3.374.696-4.664 0-.758-.425-1.066-.991-.923-1.534v-7.632h6.51v7.632c.142.543-.166 1.109-.923 1.534z" fill="#fff" stroke="#26144D" stroke-width="1.5" stroke-linecap="round" stroke-linejoin="round"/><path d="M213.255 109.454c1.85 0 3.35-.803 3.35-1.793 0-.99-1.5-1.793-3.35-1.793s-3.35.803-3.35 1.793c0 .99 1.5 1.793 3.35 1.793zm-37.395-8.08c-1.278.696-3.373.696-4.664 0-.757-.425-1.065-.991-.923-1.534v-7.632h6.511v7.632c.142.543-.166 1.109-.924 1.534z" fill="#fff" stroke="#26144D" stroke-width="1.5" stroke-linecap="round" stroke-linejoin="round"/><path d="M173.576 94.048c1.85 0 3.35-.803 3.35-1.793 0-.99-1.5-1.793-3.35-1.793s-3.35.803-3.35 1.793c0 .99 1.5 1.793 3.35 1.793z" fill="#fff" stroke="#26144D" stroke-width="1.5" stroke-linecap="round" stroke-linejoin="round"/><path d="M192.906 196.617l.841-48.2-8.559-4.046-12.192 42.042" stroke="#26144D" stroke-width="1.5" stroke-linecap="round" stroke-linejoin="round"/><path d="M213.196 185.469l-11.885-41.688V92.444l-7.564-22.838-7.884 22.319v52.446l7.99-3.952 7.458 3.362-7.564 4.636v-77.76m-20.539 115.756l19.697-5.757 20.254 4.919" stroke="#26144D" stroke-width="1.5" stroke-linecap="round" stroke-linejoin="round"/><path d="M206.152 161.688l-12.939 7.124-12.606-6.287 12.299 18.131 13.246-18.968z" stroke="#26144D" stroke-width="1.5" stroke-linecap="round" stroke-linejoin="round"/><path d="M202.991 152.263l-9.777 5.45-10.192-4.4 10.192 15.5 9.777-16.55zm-34.375-43.575l41.005 23.356-15.874-16.338-7.47-4.4-17.661-2.618zm8.203-4.672l41.004 23.356-15.874-16.338-7.469-4.4-17.661-2.618zm-1.468-10.31l28.8 15.819-10.192-12.894-8.097-4.706-10.511 1.781zm8.085-3.562l28.812 15.818-10.204-12.893-8.085-4.707-10.523 1.782zm-5.883 83.175l15.353 23.297 15.661-24.972-15.661 9.012-15.247-8.069" stroke="#26144D" stroke-width="1.5" stroke-linecap="round" stroke-linejoin="round"/><path d="M185.544 145.031l8.097 11.95 7.256-11.844m-6.937-48.505l7.351-4.188m8.309 39.6l8.097-4.612m-49.101-18.744l8.203-4.4m27.332 5.237l8.097-3.562m-36.897-12.257l8.085-3.562m2.841 21.163l6.629-4.294m.84 8.693l7.351-4.506m-14.714 20.431l6.937 3.032 7.576-4.719" stroke="#26144D" stroke-width="1.5" stroke-linecap="round" stroke-linejoin="round"/><path d="M173 186l50.163 29.335 20.384-12.126-46.698-26.872L173 186zm-97.5 62l47 27.5 21-12-46.293-26.2L75.5 248z" fill="#B2B4B3" opacity=".46"/><path d="M67.016 173.945s23.19-4.919 52.049-22.118c29.014-17.293 44.651-33.182 44.651-33.182m-88.319 39.068s23.19-4.919 52.049-22.118c29.014-17.293 44.651-33.183 44.651-33.183m-56.736 70.047s23.189-4.919 52.048-22.118c29.014-17.293 44.651-33.183 44.651-33.183m-89.301 77.926s11.352-1.723 40.211-18.933c29.014-17.294 44.651-33.183 44.651-33.183" stroke="#6CA3FF" stroke-width="2" stroke-linecap="round" stroke-linejoin="round"/><path d="M126.155 198.575c-1.279.696-3.374.696-4.664 0-.758-.425-1.066-.991-.924-1.534v-7.632h6.511v7.632c.142.543-.166 1.109-.923 1.534z" fill="#fff" stroke="#26144D" stroke-width="1.5" stroke-linecap="round" stroke-linejoin="round"/><path d="M123.87 191.249c1.85 0 3.35-.803 3.35-1.793 0-.99-1.5-1.793-3.35-1.793s-3.35.803-3.35 1.793c0 .99 1.5 1.793 3.35 1.793zm-9.704 13.932c-1.279.696-3.374.696-4.664 0-.758-.424-1.066-.991-.924-1.533v-7.632h6.511v7.632c.142.542-.166 1.109-.923 1.533z" fill="#fff" stroke="#26144D" stroke-width="1.5" stroke-linecap="round" stroke-linejoin="round"/><path d="M111.893 197.856c1.85 0 3.35-.803 3.35-1.793 0-.991-1.5-1.793-3.35-1.793-1.851 0-3.35.802-3.35 1.793 0 .99 1.499 1.793 3.35 1.793zM70.544 180.35c-1.279.696-3.374.696-4.664 0-.758-.424-1.066-.991-.923-1.533v-7.632h6.51v7.632c.142.542-.166 1.109-.923 1.533z" fill="#fff" stroke="#26144D" stroke-width="1.5" stroke-linecap="round" stroke-linejoin="round"/><path d="M68.26 173.025c1.85 0 3.35-.803 3.35-1.793 0-.991-1.5-1.794-3.35-1.794s-3.35.803-3.35 1.794c0 .99 1.5 1.793 3.35 1.793zm49.705 5.366c-1.278.696-3.374.696-4.664 0-.757-.424-1.065-.991-.923-1.533v-7.632h6.51v7.632c.142.542-.165 1.109-.923 1.533z" fill="#fff" stroke="#26144D" stroke-width="1.5" stroke-linecap="round" stroke-linejoin="round"/><path d="M115.692 171.066c1.85 0 3.35-.803 3.35-1.793 0-.991-1.5-1.794-3.35-1.794s-3.35.803-3.35 1.794c0 .99 1.5 1.793 3.35 1.793zm-37.394-8.081c-1.279.696-3.374.696-4.664 0-.758-.425-1.066-.991-.924-1.533v-7.633h6.51v7.633c.143.542-.165 1.108-.922 1.533z" fill="#fff" stroke="#26144D" stroke-width="1.5" stroke-linecap="round" stroke-linejoin="round"/><path d="M76.013 155.66c1.85 0 3.35-.802 3.35-1.793 0-.99-1.5-1.793-3.35-1.793s-3.35.803-3.35 1.793c0 .991 1.5 1.793 3.35 1.793z" fill="#fff" stroke="#26144D" stroke-width="1.5" stroke-linecap="round" stroke-linejoin="round"/><path d="M95.343 258.229l.84-48.188-8.546-4.046-12.204 42.042" stroke="#26144D" stroke-width="1.5" stroke-linecap="round" stroke-linejoin="round"/><path d="M115.633 247.093l-11.885-41.7v-51.325l-7.564-22.838-7.884 22.307v52.458l7.99-3.952 7.458 3.35-7.564 4.648v-77.772M75.645 248.037l19.698-5.768 20.253 4.93" stroke="#26144D" stroke-width="1.5" stroke-linecap="round" stroke-linejoin="round"/><path d="M108.589 223.312l-12.939 7.124-12.607-6.287 12.3 18.119 13.246-18.956z" stroke="#26144D" stroke-width="1.5" stroke-linecap="round" stroke-linejoin="round"/><path d="M105.429 213.887l-9.778 5.438-10.192-4.4 10.192 15.512 9.778-16.55zM71.053 170.3l41.005 23.368-15.874-16.349-7.47-4.4-17.661-2.619zm8.203-4.671l41.004 23.356-15.874-16.337-7.47-4.4-17.66-2.619zm-1.468-10.311l28.8 15.819-10.192-12.881-8.097-4.719-10.511 1.781zm8.097-3.562l28.8 15.819-10.204-12.882-8.085-4.718-10.511 1.781zm-5.895 83.187l15.353 23.285 15.661-24.96-15.661 9-15.247-8.069" stroke="#26144D" stroke-width="1.5" stroke-linecap="round" stroke-linejoin="round"/><path d="M87.981 206.655l8.097 11.938 7.256-11.832m-6.937-48.505l7.351-4.188m8.309 39.6l8.097-4.612m-49.101-18.757l8.203-4.4m27.333 5.239l8.097-3.563m-36.898-12.257l8.097-3.562m2.829 21.162l6.63-4.294m.839 8.695l7.351-4.507m-14.713 20.431l6.937 3.044 7.576-4.719" stroke="#26144D" stroke-width="1.5" stroke-linecap="round" stroke-linejoin="round"/><path d="M66.768 179.596s-26.682 34.173-50.818 60.715C-5.51 263.903-43 298.573-43 298.573M-4.5 339.5s58.614-51.993 73.99-71.657c19.982-25.563 41.692-63.912 41.692-63.912M-15.5 315.001s48.472-36.836 73.39-65.843c24.1-28.051 55.422-70.765 55.422-70.765M-34.37 277.186s30.16-28.429 44.401-44.248c25.652-28.511 62.68-71.473 62.68-71.473" stroke="#6CA3FF" stroke-width="2" stroke-linecap="round" stroke-linejoin="round"/></g><defs><clipPath id="clip0_1211_87"><path fill="#fff" transform="translate(272)" d="M0 0h161.48v67.62H0z"/></clipPath></defs></svg>