<svg width="390" height="396" fill="none" xmlns="http://www.w3.org/2000/svg"><mask id="a" style="mask-type:alpha" maskUnits="userSpaceOnUse" x="-2" y="0" width="392" height="396"><path fill="#D9D9D9" d="M-2 0h392v396H-2z"/></mask><g mask="url(#a)"><path d="M143.328 156.063c-.108-6.303-4.541-14.183-9.89-17.604-3.195-1.988-5.959-1.97-7.7-.286L73.47 167.668l13.803 24.606 52.268-29.495c2.333-.591 3.805-2.937 3.769-6.698l.018-.018z" fill="#248CFF" stroke="#26144D" stroke-width="1.5" stroke-linecap="round" stroke-linejoin="round"/><path d="M73.818 183.63c-3.86-6.878-3.975-14.138-.256-16.216 3.72-2.078 9.864 1.813 13.724 8.69 3.86 6.878 3.975 14.138.256 16.216-3.719 2.078-9.863-1.812-13.724-8.69z" fill="#0069EA" stroke="#26144D" stroke-width="1.5" stroke-linecap="round" stroke-linejoin="round"/><path d="M193.209 360.649l173.208-99.786-173.208-99.767-173.21 99.767 173.21 99.786z" fill="#8ED760" stroke="#26144D" stroke-width="1.5" stroke-linecap="round" stroke-linejoin="round"/><path d="M193.496 394.406l173.209-99.786v-34.008l-173.209 99.786v34.008z" fill="#956054" stroke="#26144D" stroke-width="1.5" stroke-linecap="round" stroke-linejoin="round"/><path d="M20.125 294.871l173.209 99.786v-34.008L20.125 260.863v34.008z" fill="#A9776B" stroke="#26144D" stroke-width="1.5" stroke-linecap="round" stroke-linejoin="round"/><path d="M300.149 251.301v10.96m-241.63-7.218v10.96m230.628-9.223v10.96M68.785 248.829v10.96m9.531-3.653v10.96m110.818 56.232v10.96m9.89-18.642v10.977m9.89-2.919v10.96m101.861-77.149v10.96" stroke="#5FAE2C" stroke-width="1.5" stroke-linecap="round" stroke-linejoin="round"/><path d="M208.788 213.871l19.421-11.3-.125-53.994-19.421 11.3.125 53.994z" fill="#fff" stroke="#000" stroke-width="1.5" stroke-linecap="round" stroke-linejoin="round"/><path d="M208.663 159.877l19.421-11.3-17.752-10.225-19.421 11.3 17.752 10.225z" fill="#248CFF" stroke="#26144D" stroke-width="1.5" stroke-linecap="round" stroke-linejoin="round"/><path d="M221.64 148.882l-11.972-6.716" stroke="#fff" stroke-width="1.5" stroke-linecap="round" stroke-linejoin="round"/><path d="M190.911 149.652l.126 53.994 17.751 10.226-.125-53.994-17.752-10.226z" fill="#fff" stroke="#000" stroke-width="1.5" stroke-linecap="round" stroke-linejoin="round"/><path d="M232.984 227.804l19.403-11.3-.108-53.994-19.421 11.318.126 53.976z" fill="#004DA9" stroke="#26144D" stroke-width="1.5" stroke-linecap="round" stroke-linejoin="round"/><path d="M232.858 173.828l19.421-11.318-17.769-10.226-19.403 11.3 17.751 10.244z" fill="#248CFF" stroke="#26144D" stroke-width="1.5" stroke-linecap="round" stroke-linejoin="round"/><path d="M245.853 162.975l-11.972-6.715" stroke="#fff" stroke-width="1.5" stroke-linecap="round" stroke-linejoin="round"/><path d="M215.107 163.585l.107 53.994 17.77 10.226-.126-53.976-17.751-10.244z" fill="#fff" stroke="#000" stroke-width="1.5" stroke-linecap="round" stroke-linejoin="round"/><path d="M114.5 277l111 64.5L338 277l-65.5-42-158 42z" fill="#B2B4B3" opacity=".46"/><path d="M257.161 241.737l19.421-11.3-.108-53.994-19.42 11.318.107 53.976z" fill="#004DA9" stroke="#26144D" stroke-width="1.5" stroke-linecap="round" stroke-linejoin="round"/><path d="M257.054 187.761l19.42-11.319-17.769-10.225-19.421 11.3 17.77 10.244z" fill="#248CFF" stroke="#26144D" stroke-width="1.5" stroke-linecap="round" stroke-linejoin="round"/><path d="M239.284 177.518l.126 53.993 17.751 10.226-.107-53.976-17.77-10.243z" fill="#fff" stroke="#000" stroke-width="1.5" stroke-linecap="round" stroke-linejoin="round"/><path d="M203.87 306.314l74.094-42.693v-72.368l-74.094 42.694v72.367z" fill="#004DA9" stroke="#26144D" stroke-width="1.5" stroke-linecap="round" stroke-linejoin="round"/><path d="M97.432 244.997l106.438 61.318v-72.368L97.432 172.629v72.368z" fill="#0069EA" stroke="#26144D" stroke-width="1.5" stroke-linecap="round" stroke-linejoin="round"/><path d="M203.87 233.947l74.094-42.693-106.42-61.301-74.112 42.676 106.438 61.318z" fill="#248CFF" stroke="#26144D" stroke-width="1.5" stroke-linecap="round" stroke-linejoin="round"/><path d="M229.34 206.565l-34.175 20.774-16.836-8.954L211.93 198.9l17.41 7.665zm-30.801-20.881l-37.908 22.134-16.208-9.455 34.408-20.147 19.708 7.468zm-35.144-17.676l-35.431 20.398-16.46-8.955 34.463-19.126 17.428 7.683z" fill="#B2B4B3" opacity=".46"/><path d="M260.625 215.035l-34.911 19.646m34.911-10.691l-34.911 19.646m34.911-10.191l-34.911 19.646m34.911-10.441l-34.911 19.646" stroke="#26144D" stroke-width="1.5" stroke-linecap="round" stroke-linejoin="round"/><path d="M114.538 277.124l19.421-11.318-.126-53.976-19.421 11.3.126 53.994z" fill="#004DA9" stroke="#26144D" stroke-width="1.5" stroke-linecap="round" stroke-linejoin="round"/><path d="M114.412 223.13l19.421-11.3-17.752-10.244-19.42 11.318 17.751 10.226z" fill="#248CFF" stroke="#26144D" stroke-width="1.5" stroke-linecap="round" stroke-linejoin="round"/><path d="M96.66 212.904l.126 53.994 17.752 10.226-.126-53.994-17.752-10.226z" fill="#0069EA" stroke="#26144D" stroke-width="1.5" stroke-linecap="round" stroke-linejoin="round"/><path d="M138.733 291.057l19.403-11.3-.108-53.994-19.421 11.3.126 53.994z" fill="#004DA9" stroke="#26144D" stroke-width="1.5" stroke-linecap="round" stroke-linejoin="round"/><path d="M138.607 237.063l19.421-11.3-17.769-10.243-19.403 11.318 17.751 10.225z" fill="#248CFF" stroke="#26144D" stroke-width="1.5" stroke-linecap="round" stroke-linejoin="round"/><path d="M120.856 226.837l.107 53.994 17.77 10.225-.126-53.993-17.751-10.226z" fill="#0069EA" stroke="#26144D" stroke-width="1.5" stroke-linecap="round" stroke-linejoin="round"/><path d="M162.911 304.989l19.42-11.3-.107-53.994-19.421 11.301.108 53.993z" fill="#004DA9" stroke="#26144D" stroke-width="1.5" stroke-linecap="round" stroke-linejoin="round"/><path d="M162.803 250.996l19.421-11.301-17.77-10.225-19.421 11.3 17.77 10.226z" fill="#248CFF" stroke="#26144D" stroke-width="1.5" stroke-linecap="round" stroke-linejoin="round"/><path d="M145.033 240.77l.126 53.993 17.752 10.226-.108-53.994-17.77-10.225z" fill="#0069EA" stroke="#26144D" stroke-width="1.5" stroke-linecap="round" stroke-linejoin="round"/><path d="M226.235 306.691l53.47-30.928-.125-23.854-53.471 30.928.126 23.854z" fill="#004DA9" stroke="#26144D" stroke-width="1.5" stroke-linecap="round" stroke-linejoin="round"/><path d="M226.109 282.837l53.471-30.928-10.895-6.286-53.489 30.928 10.913 6.286z" fill="#248CFF" stroke="#26144D" stroke-width="1.5" stroke-linecap="round" stroke-linejoin="round"/><path d="M215.196 276.551l.126 23.854 10.913 6.286-.126-23.854-10.913-6.286z" fill="#0069EA" stroke="#26144D" stroke-width="1.5" stroke-linecap="round" stroke-linejoin="round"/><path d="M150.938 166.719c4.434 1.844 11.255 1.128 15.239-1.594 2.334-1.63 3.159-3.6 2.495-5.319l-2.62-24.964-21.288 2.22 2.621 24.965c-.288 1.826.915 3.581 3.553 4.692z" fill="#fff" stroke="#26144D" stroke-width="1.5" stroke-linecap="round" stroke-linejoin="round"/><path d="M146.792 155.883c-.287 1.827.916 3.582 3.536 4.692 4.416 1.845 11.2 1.129 15.149-1.576 2.334-1.629 3.141-3.599 2.477-5.318" fill="#fff"/><path d="M146.792 155.883c-.287 1.827.916 3.582 3.536 4.692 4.416 1.845 11.2 1.129 15.149-1.576 2.334-1.629 3.141-3.599 2.477-5.318" stroke="#26144D" stroke-width="1.5" stroke-linecap="round" stroke-linejoin="round"/><path d="M146.11 149.437c-.287 1.827.916 3.582 3.536 4.692 4.416 1.845 11.2 1.128 15.149-1.576 2.334-1.629 3.141-3.599 2.477-5.319" fill="#fff"/><path d="M146.11 149.437c-.287 1.827.916 3.582 3.536 4.692 4.416 1.845 11.2 1.128 15.149-1.576 2.334-1.629 3.141-3.599 2.477-5.319" stroke="#26144D" stroke-width="1.5" stroke-linecap="round" stroke-linejoin="round"/><path d="M145.41 143.33c-.287 1.826.916 3.581 3.536 4.692 4.416 1.844 11.2 1.128 15.149-1.576 2.334-1.63 3.141-3.6 2.477-5.319" fill="#fff"/><path d="M145.41 143.33c-.287 1.826.916 3.581 3.536 4.692 4.416 1.844 11.2 1.128 15.149-1.576 2.334-1.63 3.141-3.6 2.477-5.319" stroke="#26144D" stroke-width="1.5" stroke-linecap="round" stroke-linejoin="round"/><path d="M144.152 135.462c-.341-3.246 4.274-6.389 10.308-7.02 6.033-.63 11.201 1.49 11.542 4.736.34 3.246-4.275 6.389-10.308 7.019-6.034.631-11.202-1.489-11.542-4.735z" fill="#fff" stroke="#26144D" stroke-width="1.5" stroke-linecap="round" stroke-linejoin="round"/><path d="M143.344 127.832c-.341-3.246 4.274-6.389 10.308-7.02 6.034-.63 11.201 1.49 11.542 4.736.341 3.246-4.274 6.389-10.308 7.02-6.034.63-11.201-1.49-11.542-4.736z" fill="#fff" stroke="#26144D" stroke-width="1.5" stroke-linecap="round" stroke-linejoin="round"/><path d="M150.974 126.263c1.634.662 4.147.412 5.618-.591.862-.591 1.167-1.307.934-1.934l-.952-9.08-7.861.824.951 9.08c-.108.662.341 1.307 1.31 1.701z" fill="#fff" stroke="#26144D" stroke-width="1.5" stroke-linecap="round" stroke-linejoin="round"/><path d="M148.674 115.521c-.124-1.18 1.558-2.324 3.757-2.553 2.198-.23 4.081.54 4.205 1.721.124 1.18-1.558 2.323-3.756 2.553-2.199.23-4.082-.541-4.206-1.721z" fill="#fff" stroke="#26144D" stroke-width="1.5" stroke-linecap="round" stroke-linejoin="round"/><path d="M141.425 115.188c-.341-3.246 4.274-6.389 10.308-7.019 6.034-.631 11.202 1.49 11.542 4.736.341 3.246-4.274 6.388-10.308 7.019-6.033.631-11.201-1.49-11.542-4.736z" fill="#E40133" stroke="#26144D" stroke-width="1.5" stroke-linecap="round" stroke-linejoin="round"/><path d="M181.865 185.021c4.218 2.292 11.074 2.292 15.31 0 2.495-1.379 3.518-3.242 3.034-5.033v-25.107h-21.396v25.107c-.466 1.791.539 3.654 3.034 5.033h.018z" fill="#fff" stroke="#26144D" stroke-width="1.5" stroke-linecap="round" stroke-linejoin="round"/><path d="M178.867 173.811c-.466 1.79.539 3.653 3.016 5.032 4.2 2.292 11.02 2.292 15.239 0 2.477-1.379 3.5-3.242 3.015-5.032" fill="#fff"/><path d="M178.867 173.811c-.466 1.79.539 3.653 3.016 5.032 4.2 2.292 11.02 2.292 15.239 0 2.477-1.379 3.5-3.242 3.015-5.032" stroke="#26144D" stroke-width="1.5" stroke-linecap="round" stroke-linejoin="round"/><path d="M178.867 167.346c-.466 1.791.539 3.653 3.016 5.032 4.2 2.292 11.02 2.292 15.239 0 2.477-1.379 3.5-3.241 3.015-5.032" fill="#fff"/><path d="M178.867 167.346c-.466 1.791.539 3.653 3.016 5.032 4.2 2.292 11.02 2.292 15.239 0 2.477-1.379 3.5-3.241 3.015-5.032" stroke="#26144D" stroke-width="1.5" stroke-linecap="round" stroke-linejoin="round"/><path d="M178.813 161.185c-.466 1.79.539 3.653 3.016 5.032 4.2 2.292 11.021 2.292 15.239 0 2.477-1.379 3.5-3.242 3.015-5.032" fill="#fff"/><path d="M178.813 161.185c-.466 1.79.539 3.653 3.016 5.032 4.2 2.292 11.021 2.292 15.239 0 2.477-1.379 3.5-3.242 3.015-5.032" stroke="#26144D" stroke-width="1.5" stroke-linecap="round" stroke-linejoin="round"/><path d="M189.35 159.161c-6.067 0-10.985-2.646-10.985-5.909 0-3.264 4.918-5.91 10.985-5.91 6.066 0 10.984 2.646 10.984 5.91 0 3.263-4.918 5.909-10.984 5.909z" fill="#fff" stroke="#26144D" stroke-width="1.5" stroke-linecap="round" stroke-linejoin="round"/><path d="M189.35 151.496c-6.067 0-10.985-2.646-10.985-5.909 0-3.264 4.918-5.91 10.985-5.91 6.066 0 10.984 2.646 10.984 5.91 0 3.263-4.918 5.909-10.984 5.909z" fill="#fff" stroke="#26144D" stroke-width="1.5" stroke-linecap="round" stroke-linejoin="round"/><path d="M186.137 144.799c1.561.842 4.092.842 5.654 0 .915-.502 1.292-1.182 1.13-1.827v-9.133h-7.897v9.133c-.18.645.197 1.325 1.131 1.827h-.018z" fill="#fff" stroke="#26144D" stroke-width="1.5" stroke-linecap="round" stroke-linejoin="round"/><path d="M188.955 136.041c-2.211 0-4.003-.962-4.003-2.149s1.792-2.149 4.003-2.149c2.21 0 4.003.962 4.003 2.149s-1.793 2.149-4.003 2.149z" fill="#fff" stroke="#26144D" stroke-width="1.5" stroke-linecap="round" stroke-linejoin="round"/><path d="M188.775 138.71c-6.067 0-10.985-2.646-10.985-5.91 0-3.263 4.918-5.909 10.985-5.909 6.067 0 10.985 2.646 10.985 5.909 0 3.264-4.918 5.91-10.985 5.91z" fill="#E40133" stroke="#26144D" stroke-width="1.5" stroke-linecap="round" stroke-linejoin="round"/><path d="M214.191 204.327c3.841 2.883 10.626 3.886 15.149 2.238 2.675-1.003 3.949-2.704 3.752-4.531l3.697-24.839-21.162-3.133-3.697 24.838c-.736 1.702 0 3.69 2.261 5.427z" fill="#fff" stroke="#26144D" stroke-width="1.5" stroke-linecap="round" stroke-linejoin="round"/><path d="M212.881 192.793c-.718 1.701 0 3.689 2.243 5.426 3.806 2.883 10.555 3.886 15.06 2.239 2.656-1.003 3.931-2.704 3.733-4.531" fill="#fff"/><path d="M212.881 192.793c-.718 1.701 0 3.689 2.243 5.426 3.806 2.883 10.555 3.886 15.06 2.239 2.656-1.003 3.931-2.704 3.733-4.531" stroke="#26144D" stroke-width="1.5" stroke-linecap="round" stroke-linejoin="round"/><path d="M213.832 186.4c-.718 1.702 0 3.69 2.244 5.427 3.805 2.883 10.554 3.886 15.059 2.238 2.657-1.003 3.931-2.704 3.733-4.531" fill="#fff"/><path d="M213.832 186.4c-.718 1.702 0 3.69 2.244 5.427 3.805 2.883 10.554 3.886 15.059 2.238 2.657-1.003 3.931-2.704 3.733-4.531" stroke="#26144D" stroke-width="1.5" stroke-linecap="round" stroke-linejoin="round"/><path d="M214.694 180.293c-.718 1.701 0 3.689 2.243 5.426 3.806 2.883 10.554 3.886 15.06 2.239 2.656-1.003 3.93-2.704 3.733-4.531" fill="#fff"/><path d="M214.694 180.293c-.718 1.701 0 3.689 2.243 5.426 3.806 2.883 10.554 3.886 15.06 2.239 2.656-1.003 3.93-2.704 3.733-4.531" stroke="#26144D" stroke-width="1.5" stroke-linecap="round" stroke-linejoin="round"/><path d="M225.405 179.81c-6.001-.888-10.477-4.225-9.997-7.454.481-3.228 5.735-5.126 11.736-4.237 6.001.888 10.476 4.226 9.996 7.454-.48 3.229-5.734 5.126-11.735 4.237z" fill="#fff" stroke="#26144D" stroke-width="1.5" stroke-linecap="round" stroke-linejoin="round"/><path d="M226.525 172.231c-6.001-.888-10.477-4.226-9.996-7.454.48-3.229 5.734-5.126 11.735-4.237 6.001.888 10.476 4.226 9.996 7.454-.48 3.229-5.734 5.126-11.735 4.237z" fill="#fff" stroke="#26144D" stroke-width="1.5" stroke-linecap="round" stroke-linejoin="round"/><path d="M224.332 165.143c1.418 1.056 3.913 1.414 5.6.823.988-.358 1.454-.985 1.383-1.647l1.346-9.026-7.808-1.164-1.346 9.026c-.27.627 0 1.343.843 1.97l-.018.018z" fill="#fff" stroke="#26144D" stroke-width="1.5" stroke-linecap="round" stroke-linejoin="round"/><path d="M228.415 156.887c-2.187-.324-3.818-1.538-3.643-2.712.174-1.174 2.088-1.863 4.275-1.539 2.187.323 3.818 1.537 3.643 2.711-.174 1.174-2.089 1.864-4.275 1.54z" fill="#fff" stroke="#26144D" stroke-width="1.5" stroke-linecap="round" stroke-linejoin="round"/><path d="M227.846 159.507c-6.002-.889-10.477-4.226-9.997-7.455.48-3.228 5.734-5.125 11.735-4.237 6.001.889 10.477 4.226 9.997 7.455-.48 3.228-5.734 5.125-11.735 4.237z" fill="#E40133" stroke="#26144D" stroke-width="1.5" stroke-linecap="round" stroke-linejoin="round"/><path d="M269.223 191.521l-64.706 37.322m-70.81-86.462l-46.631 27.131m112.199 126.505v-58.972l-91.253-52.615m161.757-7.843l-11.954-6.716" stroke="#fff" stroke-width="1.5" stroke-linecap="round" stroke-linejoin="round"/><path d="M415.153 51.5s-53.155 50.747-93.5 74c-30.547 17.606-82.728 36.151-82.728 36.151M403.153 27s-41.818 40.043-72.5 60.5c-46.329 30.889-129.87 58.857-129.87 58.857" stroke="#6CA3FF" stroke-width="2" stroke-linecap="round" stroke-linejoin="round"/><path d="M395.154 11.5s-52.11 51.684-91 77.5c-38.759 25.729-106.368 53.632-106.368 53.632" stroke="#6CA3FF" stroke-width="2" stroke-linecap="round" stroke-linejoin="round"/><path d="M389.653 1s-55.243 62.797-101.5 87c-45.727 23.925-127.773 33.733-127.773 33.733" stroke="#6CA3FF" stroke-width="2" stroke-linecap="round" stroke-linejoin="round"/></g></svg>