<svg width="676" height="644" fill="none" xmlns="http://www.w3.org/2000/svg"><mask id="a" style="mask-type:alpha" maskUnits="userSpaceOnUse" x="0" y="0" width="676" height="644"><path fill="#D9D9D9" d="M0 0h676v644H0z"/></mask><g mask="url(#a)"><path d="M280.158 418.272c28.306-37.143 55.072-74.917 79.272-114.821 24.199-39.982 45.612-81.542 62.406-126.256 4.179 1.578 97.091 61.275 137.424 93.608 22.807 18.217 44.66 37.537 64.679 59.303 14.887 16.166 28.82 33.358 39.16 53.389 6.086 11.75 10.926 24.052 11.953 37.695 1.54 21.056-7.553 35.882-23.686 46.37-20.533 13.327-43.56 17.507-66.953 19.715-29.773 2.76-59.399.631-89.025-3.312-45.466-6.151-89.686-18.059-133.025-33.673-26.4-9.543-52.433-20.189-78.612-30.283-1.1-.394-2.053-1.025-3.447-1.656l-.146-.079z" fill="url(#paint0_linear_1003_32)"/><path d="M275.966 432.942c41.579 17.507 83.232 33.279 125.985 45.739 42.826 12.46 86.165 21.529 130.898 24.999-.147 4.732-24.347 118.212-40.553 169.393-9.093 28.942-19.506 57.252-32.56 84.459-9.753 20.268-20.679 39.746-35.199 56.465-8.507 9.778-17.893 18.611-29.626 23.815-18.113 8.044-34.1 3.313-48.326-10.015-18.113-16.955-28.893-39.194-38.06-62.457-11.586-29.652-18.846-60.644-24.419-92.11-8.58-48.42-11.66-97.314-11.147-146.444.293-29.967 1.687-59.855 2.64-89.822 0-1.183.22-2.445.44-4.101l-.073.079z" fill="url(#paint1_linear_1003_32)"/><path d="M259.747 432.47c-2.713 47.947-3.813 95.421-1.613 142.974 2.2 47.632 7.48 94.79 18.26 141.634-4.254 1.34-112.052 11.513-162.358 10.804-28.38-.395-56.686-2.287-84.699-7.256-20.9-3.706-41.506-8.911-60.866-18.611-11.293-5.678-22-12.539-30.213-23.027-12.686-16.088-13.42-33.91-6.086-52.521 9.387-23.737 25.74-41.639 43.56-58.199 22.659-20.977 47.812-37.932 73.918-53.389 40.186-23.658 82.499-41.875 126.132-56.543 26.546-8.911 53.459-16.718 80.225-24.999 1.1-.315 2.2-.473 3.74-.867z" fill="url(#paint2_linear_1003_32)"/><path d="M254.865 418.118c-43.193 12.145-85.506 25.709-126.865 42.664-41.433 16.955-81.472 37.064-119.532 62.615-2.493-3.943-44.952-111.036-59.912-162.611-8.433-29.178-15.546-58.672-19.873-88.875-3.227-22.555-5.06-45.188-2.42-67.978 1.54-13.328 4.326-26.34 11-38.011 10.266-17.98 25.813-24.21 44.586-22.475 23.906 2.208 44.806 13.406 64.899 26.497 25.593 16.639 48.4 37.064 70.106 59.066 33.366 33.674 62.625 71.29 89.098 111.352 16.133 24.367 31.387 49.445 47.006 74.286.66 1.025 1.1 2.129 1.907 3.549v-.079z" fill="url(#paint3_linear_1003_32)"/><path d="M266.738 407.549c-23.979-40.455-48.986-79.649-76.705-116.792-27.72-37.223-57.859-72-92.105-103.15 2.713-3.785 84.478-80.044 125.544-111.194 23.173-17.585 47.153-33.91 72.526-47.631 18.993-10.173 38.426-19.006 59.399-23.343 12.247-2.524 24.64-3.706 37.033-.473 19.066 4.968 29.333 18.926 33.586 38.72 5.353 25.157 1.907 49.998-3.52 74.602-6.893 31.308-17.966 60.96-30.726 89.902-19.58 44.556-43.926 85.958-71.206 125.388-16.646 23.974-34.173 47.316-51.332 70.896-.734.946-1.54 1.813-2.567 2.996l.073.079z" fill="url(#paint4_linear_1003_32)"/></g><defs><linearGradient id="paint0_linear_1003_32" x1="664.125" y1="465.115" x2="359.475" y2="324.274" gradientUnits="userSpaceOnUse"><stop stop-color="#fff"/><stop offset="1" stop-color="#fff" stop-opacity="0"/></linearGradient><linearGradient id="paint1_linear_1003_32" x1="395.277" y1="836.393" x2="405.199" y2="471.541" gradientUnits="userSpaceOnUse"><stop stop-color="#fff"/><stop offset="1" stop-color="#fff" stop-opacity="0"/></linearGradient><linearGradient id="paint2_linear_1003_32" x1="-71.275" y1="648.863" x2="268.166" y2="584.761" gradientUnits="userSpaceOnUse"><stop stop-color="#fff"/><stop offset="1" stop-color="#fff" stop-opacity="0"/></linearGradient><linearGradient id="paint3_linear_1003_32" x1="-50.711" y1="149.046" x2="139.419" y2="439.023" gradientUnits="userSpaceOnUse"><stop stop-color="#fff"/><stop offset="1" stop-color="#fff" stop-opacity="0"/></linearGradient><linearGradient id="paint4_linear_1003_32" x1="436.063" y1="24.681" x2="165.34" y2="276.425" gradientUnits="userSpaceOnUse"><stop stop-color="#fff"/><stop offset="1" stop-color="#fff" stop-opacity="0"/></linearGradient></defs></svg>